<svg id="canvas" height="100%" xmlns="http://www.w3.org/2000/svg" version="1.1" xmlns:xlink="http://www.w3.org/1999/xlink" viewBox="0 0 1400 800"><rect width="1400" height="800" fill="#efe6d6ff"></rect><path d="M1217.685136025995 896.1747062190313C1176.8674880209594 943.7379890766024 1125.4135043770343 999.912573408999 1064.4986293505674 1011.1380919811385C1003.5837543241005 1022.3636105532779 907.1675705703908 1005.1099489656261 852.1958858671935 963.5278176518678C797.2242011639961 921.9456863381096 756.6405937473083 830.4131294998356 734.6685211313829 761.6453040985888C712.6964485154576 692.877478697342 699.7495407455626 612.278175054123 720.3634501716415 550.920865244387C740.9773595977202 489.5635554346508 803.6174809711324 433.63372959157897 858.351977687856 393.50144524017236C913.0864744045796 353.36916088876575 985.7331841107663 309.6644907845468 1048.7704304719828 310.1271591359472C1111.8076768331994 310.5898274873476 1181.9286993613168 356.53242476642146 1236.5754558551553 396.27745534857473C1291.2222123489937 436.02248593072807 1364.5127925140755 493.6838527143441 1376.6509694350134 548.597342628867C1388.7891463559508 603.5108325433898 1335.898822948951 667.8288342373513 1309.4045173807813 725.7583948357121C1282.9102118126116 783.6879554340728 1258.5027840310308 848.6114233614603 1217.685136025995 896.1747062190313C1176.8674880209594 943.7379890766024 1125.4135043770343 999.912573408999 1064.4986293505674 1011.1380919811385 " fill="none" stroke-width="4" stroke="#eb9d75" opacity="0.5"></path><path d="M1350.1267106383461 748.4434090828471C1301.5914417086512 790.597152660394 1232.5560376813082 823.2147964599427 1167.4928747077277 827.9831553216159C1102.4297117341468 832.751514183289 1013.1916657777342 816.3149829611491 959.747732796862 777.0535622528863C906.30379981599 737.7921415446235 868.2460098837499 658.5251480615028 846.829276822495 592.4146310720394C825.41254376124 526.3041140825758 809.8126290494247 441.20341689514703 831.2473344293321 380.3904603161053C852.6820398092395 319.5775037370636 919.7337962542956 267.98867513952666 975.4375091019393 227.53689159778884C1031.141221949583 187.08510805605104 1099.7600634870744 137.5205980760061 1165.4696115151942 137.67975906567858C1231.179159543314 137.83892005535105 1311.1885948172562 187.02870099481237 1369.6947972706582 228.49185753582373C1428.2009997240602 269.9550140768351 1501.6718777330666 328.69722559166166 1516.5068262356065 386.45869831174684C1531.3417747381463 444.2201710318319 1486.4345075521073 514.7299087278177 1458.7044882858972 575.0606938563344C1430.9744690196871 635.3914789848511 1398.661979568041 706.2896655053001 1350.1267106383461 748.4434090828471C1301.5914417086512 790.597152660394 1232.5560376813082 823.2147964599427 1167.4928747077277 827.9831553216159 " fill="#eb9d75" stroke="none" opacity="0.5"></path><path d="M267.0831290748447 293.3464767460015C219.07410995756186 321.20783749521524 145.45824345234905 317.6156234626909 85.84843641887284 316.61822394588114C26.23862938539662 315.6208244290714 -43.02956071676269 318.8925210422543 -90.57571312601272 287.3620796451431C-138.12186553526274 255.83163824803194 -170.02445311247976 180.37830350052252 -199.42847803662738 127.43557556321366C-228.832502960775 74.49284762590474 -267.08419775051203 21.554576331166913 -266.99986267089844 -30.29428797871026C-266.91552759128484 -82.14315228858743 -228.12310476367364 -134.6873104268988 -198.9224675589457 -183.65761029604928C-169.72183035421776 -232.62791016519978 -135.2138418633785 -296.9567941386374 -91.79603944253083 -324.1160871936133C-48.37823702168316 -351.2753802485891 8.638931761608546 -346.12607093657857 61.58434696614029 -346.61336862590434C114.52976217067203 -347.1006663152301 167.71716812420016 -355.99499991248007 225.87645178465976 -327.0398733295681C284.03573544511937 -298.0847467466561 368.14030178413486 -227.81851943728861 410.54004892889793 -172.8826091284325C452.939796073661 -117.9466988195764 486.3811842876263 -51.14652290626992 480.27493465323835 2.5755885235685696C474.1686850188504 56.29769995340706 409.434518718969 100.98824474685955 373.90255112257 149.45005945059836C338.370583526171 197.91187415433717 315.0921481921275 265.4851159967877 267.0831290748447 293.3464767460015C219.07410995756186 321.20783749521524 145.45824345234905 317.6156234626909 85.84843641887284 316.61822394588114 " fill="none" stroke-width="4" stroke="#eb9d75" opacity="0.5"></path></svg>