<svg id="canvas" height="100%" xmlns="http://www.w3.org/2000/svg" version="1.1" xmlns:xlink="http://www.w3.org/1999/xlink" viewBox="0 0 1400 800"><rect width="1400" height="800" fill="#efe6d6ff"></rect><path d="M1305.0178482433855 1049.195244905089C1252.0847877255796 1072.1128007286266 1166.1869728767128 1048.220850398363 1103.6587433602785 1042.508981331434C1041.1305138438443 1036.7971122645044 977.1612061962898 1041.6999040597138 929.8484711447794 1014.924030503514C882.5357360932691 988.1481569473141 848.7507117537997 931.5971497522503 819.7823330512165 881.853739994234C790.8139543486332 832.1103302362178 757.3073987915045 774.341216545427 756.03819892928 716.4635719554165C754.7689990670556 658.5859273654062 785.3666607505197 585.7747586958467 812.1671338778699 534.5878724541717C838.9676070052201 483.4009862124967 863.8027727441133 433.4631914898388 916.8410376933812 409.34225450536667C969.879302642649 385.22131752089456 1063.607565539778 388.68432698207454 1130.3967235734772 389.862250547339C1197.1858816071763 391.04017411260344 1269.2365980400484 387.3579724009508 1317.5759858955757 416.40979589695326C1365.915373751103 445.46161939295575 1391.1359044482244 511.0888915101307 1420.433050706641 564.1731915233538C1449.730196965058 617.2574915365768 1493.221520819331 678.110520165149 1493.3588634460766 734.9155959762918C1493.496206072822 791.7206717874345 1452.6472756675619 852.6237049020775 1421.2571064671133 905.0036463902104C1389.866937266665 957.3835878783433 1357.9509087611914 1026.2776890815521 1305.0178482433855 1049.195244905089C1252.0847877255796 1072.1128007286266 1166.1869728767128 1048.220850398363 1103.6587433602785 1042.508981331434 " fill="#d0dcc2" stroke="none" opacity="0.5"></path><path d="M340.30929631204845 666.7160478451779C287.13924463281853 709.4586216336877 202.01578870500578 726.266218745381 129.72487409288823 728.6543839911056C57.43395948077068 731.0425492368303 -35.41060184952701 724.0946448557819 -93.4361913606567 681.0450393195255C-151.46178087178637 637.995433783269 -195.3392654933733 542.5507205344273 -218.42866297388986 470.3567507735671C-241.51806045440642 398.1627810127069 -250.68439036342832 314.89058217782105 -231.97257624375607 247.88122075436408C-213.26076212408378 180.8718593309071 -157.99402835984966 110.5764686861092 -106.15777825585627 68.30058223282532C-54.32152815186288 26.024695779541453 14.773263970726987 -5.9472638167224074 79.04492438020424 -5.774097965339138C143.31658478968149 -5.600932113955868 224.31551133973528 30.38662030674972 279.47218420100717 69.33957734112494C334.62885706227905 108.29253437550015 381.7727948866253 160.80041692109194 409.9849615478354 227.94364424091216C438.19712820904545 295.0868715607324 460.35779504089874 399.07020732600205 448.74518416826754 472.19894126004635C437.13257329563635 545.3276751940906 393.47934799127836 623.973474056668 340.30929631204845 666.7160478451779C287.13924463281853 709.4586216336877 202.01578870500578 726.266218745381 129.72487409288823 728.6543839911056 " fill="#dcbe97" stroke="none" opacity="0.5"></path><path d="M1122.0313106188 759.0611591124897C1075.6602906177857 806.3594542867615 1019.9317789025099 859.7821498282657 955.7826562867665 869.7318408441685C891.6335336710231 879.6815318600712 791.923420633218 861.6064327386368 737.1365749243394 818.7593052079066C682.3497292154608 775.9121776771763 649.6571109377995 683.005117758043 627.061582033495 612.6490756597866C604.4660531291905 542.2930335615303 581.8051358943601 460.4661501993117 601.5634014985121 396.6230526183685C621.3216671026644 332.77995503742534 687.0386673807259 271.3883555887083 745.6111756584079 229.59049017412747C804.1836839360899 187.79262475954664 888.5185223781448 145.43118257277754 952.9984511646044 145.8358601308836C1017.478379951064 146.24053768898963 1078.890749444116 191.24319680744992 1132.4907483771658 232.01855552276368C1186.0907473102159 272.79391423807743 1257.678773443623 331.50076004347056 1274.598444762904 390.4880124227662C1291.5181160821849 449.4752648020618 1259.4366319835358 524.5132120169167 1234.0087762928517 585.9420697985373C1208.5809206021677 647.370927580158 1168.4023306198142 711.7628639382178 1122.0313106188 759.0611591124897C1075.6602906177857 806.3594542867615 1019.9317789025099 859.7821498282657 955.7826562867665 869.7318408441685 " fill="none" stroke-width="4" stroke="#eb9d75" opacity="0.5"></path></svg>