<svg id="canvas" height="100%" xmlns="http://www.w3.org/2000/svg" version="1.1" xmlns:xlink="http://www.w3.org/1999/xlink" viewBox="0 0 1400 800"><rect width="1400" height="800" fill="#efe6d6ff"></rect><path d="M829.1737132462118 483.79263531950824C776.6734329765344 515.9505426607128 689.5631344896965 510.6195645867284 623.8887149793437 507.4819388564639C558.2142954689909 504.3443131261994 484.05797567315847 492.9627199442464 435.12719618409517 464.96688093792113C386.19641669503187 436.9710419315959 349.5076968015897 395.96170810954374 330.3040380449639 339.5069048185122C311.10037928833805 283.0521015274807 299.12766892686875 188.75770567991304 319.9052436443403 126.23806119173213C340.6828183618119 63.71841670355121 400.6423941720029 4.75893773978413 454.9694863497933 -35.610962110573325C509.29657852758385 -75.98086196093078 575.1446760109765 -117.18017939564096 645.867796711083 -115.98133791041266C716.5909174111896 -114.78249642518436 815.9239308905692 -71.11908579379539 879.3082105504327 -28.417913199203497C942.6924902102962 14.283259395388399 1016.2431103291013 83.06696298906527 1026.173474670264 140.22569765713865C1036.1038390114268 197.384432325212 971.7236901680837 257.2733385321751 938.8903965974084 314.5344948092367C906.0571030267331 371.79565108629834 881.6739935158893 451.63472797830366 829.1737132462118 483.79263531950824C776.6734329765344 515.9505426607128 689.5631344896965 510.6195645867284 623.8887149793437 507.4819388564639 " fill="#eb9d75" stroke="none" opacity="0.5"></path><path d="M1342.5959670329175 702.9680732174033C1296.343909882402 734.9377282198152 1237.7804987809952 757.0959908644606 1180.8354321348133 760.8590031969713C1123.8903654886315 764.622015529482 1049.4580730129583 763.7632543471348 1000.9255671558263 725.5461472124678C952.3930612986944 687.3290400778005 919.6253744885199 588.8276372380992 889.640396992022 531.5563603889684C859.6554194955243 474.2850835398378 821.9082309295827 432.73798093455525 821.0157021768391 381.9184861176835C820.1231734240955 331.0989913008118 857.47079724124 274.08866999640736 884.2852244755609 226.63939148773804C911.0996517098816 179.1901129790687 933.9498443856885 123.00076167159841 981.9022655827641 97.22281506566748C1029.8546867798395 71.44486845973654 1111.068166522041 71.31945825720128 1171.999751658014 71.9717118521524C1232.931336793987 72.62396544710352 1296.9873093708266 71.30381674922575 1347.4917763986018 101.13633663537416C1397.9962434263766 130.96885652152258 1441.37767728675 198.10654443282942 1475.0265538246642 250.96683116904293C1508.6754303625785 303.82711790525644 1552.1648320905474 365.2856833837457 1549.3850356260878 418.2980570526553C1546.6052391616279 471.31043072156484 1492.8126198034342 521.5960704883755 1458.347775037906 569.0410731825002C1423.8829302723775 616.4860758766249 1388.848024183433 670.9984182149915 1342.5959670329175 702.9680732174033C1296.343909882402 734.9377282198152 1237.7804987809952 757.0959908644606 1180.8354321348133 760.8590031969713 " fill="none" stroke-width="4" stroke="#eb9d75" opacity="0.5"></path><path d="M508.86220728067235 1054.2901795277157C451.57519526651083 1091.159986171031 356.16910099231643 1088.6793013709075 283.3199152608311 1086.022856037804C210.47072952934582 1083.366410704701 126.95438463668307 1078.068623843213 71.76709289176068 1038.3515075290957C16.579801146838292 998.6343912149782 -25.969336948479864 915.3985317956775 -47.80383520870316 847.7201581531001C-69.63833346892646 780.0417845105228 -81.1333279454943 695.3114817826347 -59.23989666957908 632.2812656736314C-37.34646539366386 569.2510495646281 25.274604644614897 510.3759276312113 83.55675244678818 469.53886149908055C141.83890024896147 428.7017953669498 225.61210889929873 386.1690163477619 290.45299014346057 387.25886888084676C355.2938713876224 388.3487214139316 418.18751904436004 435.14108406790393 472.60203991175933 476.07797669758975C527.0165607791587 517.0148693272756 591.2001241088495 568.0925514122416 616.9401153478564 632.8802246589618C642.6801065868632 697.6678979056819 645.0549720236642 794.5690236997852 627.0419873458002 864.8040161779109C609.0290026679362 935.0390086560365 566.1492192948339 1017.4203728844001 508.86220728067235 1054.2901795277157C451.57519526651083 1091.159986171031 356.16910099231643 1088.6793013709075 283.3199152608311 1086.022856037804 " fill="#dcbe97" stroke="none" opacity="0.5"></path></svg>