<svg id="canvas" height="100%" xmlns="http://www.w3.org/2000/svg" version="1.1" xmlns:xlink="http://www.w3.org/1999/xlink" viewBox="0 0 1400 800"><rect width="1400" height="800" fill="#efe6d6ff"></rect><path d="M343.3121538441154 730.9196253362268C296.4792650743839 762.4311054576222 247.11814004777506 784.845193504545 189.89062095034484 792.9150339271157C132.66310185291462 800.9848743496864 55.11522688001412 815.8523778883134 -0.052960740465778144 779.3386678716508C-55.221148360945676 742.8249578549883 -101.46805852530048 631.8419558582273 -141.1185047725346 573.8327738271405C-180.76895101976874 515.8235917960535 -226.1468918803481 485.0498625317105 -237.9556382238706 431.28357568512985C-249.7643845673931 377.5172888385492 -224.2573509125375 307.86599087522967 -211.97098283366955 251.23505274765643C-199.6846147548016 194.60411462008318 -195.462764838301 133.32493886405146 -164.2374297506629 91.49794691969038C-133.01209466302478 49.670954975329295 -74.22881127981717 24.33251526755096 -24.618972307840863 0.2731010814899264C24.990866664135467 -23.78631310457111 75.7324212894357 -54.042740732796794 133.42160408119497 -52.85853819667585C191.11078687295424 -51.67433566055491 265.11994421348356 -17.967152374680893 321.5161244427147 7.378316298215566C377.9123046719459 32.723784971112025 437.7773524413394 57.25771032569182 471.798685456582 99.21427384070287C505.8200184718246 141.17083735571393 514.67134745283 203.42099655709774 525.6441225341703 259.11769738828195C536.6168976155105 314.81439821946617 546.7613641055295 375.9397361927314 537.6353359446234 433.3944788278082C528.5093077837173 490.84922146288494 503.2751505854851 554.258628780673 470.8879535687338 603.8461531987427C438.5007565519825 653.4336776168125 390.14504261384695 699.4081452148312 343.3121538441154 730.9196253362268C296.4792650743839 762.4311054576222 247.11814004777506 784.845193504545 189.89062095034484 792.9150339271157 " fill="#eb9d75" stroke="none" opacity="0.5"></path><path d="M1523.123480932355 915.6657850041533C1466.0182577523062 945.4148796890124 1379.582527298813 941.0383546407777 1311.7105816454723 937.8051287792637C1243.8386359921317 934.5719029177496 1170.681736113906 927.3954789308715 1115.8918070123113 896.266429835069C1061.1018779107167 865.1373807392664 1015.6074694747642 807.1219745731028 982.971007035904 751.0308342044485C950.3345445970439 694.9396938357943 918.2649090804025 621.0156415063273 920.0730323791504 559.7195876231439C921.8811556778983 498.4235337399605 959.2726189379503 439.7074315187751 993.819746828391 383.2545109053482C1028.3668747188317 326.80159029192134 1074.31639938868 254.78606494611984 1127.3557997217945 221.0020639425826C1180.395200054909 187.21806293904535 1248.607497605537 181.0547499449451 1312.0561488270782 180.55050488412485C1375.5048000486195 180.0462598233046 1455.2034966895917 185.40650729317966 1508.0477070510424 217.97659357766116C1560.891917412493 250.54667986214267 1596.1212422126 319.2256786016699 1629.121410995782 375.9710225910138C1662.1215797789641 432.7163665803577 1701.845301461804 494.5587345005419 1706.0487197501343 558.4486575137246C1710.252138038465 622.3385805269072 1684.8294605287288 699.774372755038 1654.3419207257657 759.3105606701095C1623.8543809228024 818.8467485851809 1580.228704112404 885.9166903192943 1523.123480932355 915.6657850041533C1466.0182577523062 945.4148796890124 1379.582527298813 941.0383546407777 1311.7105816454723 937.8051287792637 " fill="none" stroke-width="4" stroke="#dcbe97" opacity="0.5"></path><path d="M1102.0129468726095 473.14426308336465C1044.7917853214947 526.5043742923972 964.8780674008137 573.4159176055894 886.212483579335 581.0860204468846C807.5468997578562 588.7561232881799 696.9866164531103 567.3447692769972 630.0194439437372 519.1648801311361C563.0522714343641 470.984990985275 510.83013599156305 373.6673479415497 484.4094485230963 292.00668557171787C457.9887610546295 210.346023201886 447.373344255183 106.65145748277985 471.4953191329366 29.200905912145004C495.61729401069016 -48.24964565848984 566.4806779982749 -122.94376948436201 629.1412977896179 -172.69662385209125C691.8019175809609 -222.4494782198205 765.430500715413 -268.3328338892186 847.4590378809944 -269.31622029423045C929.4875750465758 -270.2996066992423 1048.714940560578 -227.74784836669343 1121.3125207831063 -178.59694228216222C1193.9101010056345 -129.446036197631 1265.0066971990107 -47.66449969951833 1283.0445192161637 25.5892162129569C1301.0823412333166 98.84293212543213 1259.7113816099497 186.33284538095467 1229.539452886024 260.9253531926893C1199.3675241620983 335.51786100442393 1159.2341084237244 419.7841518743321 1102.0129468726095 473.14426308336465C1044.7917853214947 526.5043742923972 964.8780674008137 573.4159176055894 886.212483579335 581.0860204468846 " fill="none" stroke-width="4" stroke="#2f3c2e" opacity="0.5"></path></svg>