<svg id="canvas" height="100%" xmlns="http://www.w3.org/2000/svg" version="1.1" xmlns:xlink="http://www.w3.org/1999/xlink" viewBox="0 0 1400 800"><rect width="1400" height="800" fill="#efe6d6ff"></rect><path d="M956.9718432359177 1190.8932304850412C902.8284673996731 1239.5641673984862 830.3329706970444 1279.8691780808008 757.1598651452766 1287.3535886931936C683.9867595935089 1294.8379993055864 580.1867075439674 1284.458507483187 517.9332099253112 1235.7996941593974C455.6797123066551 1187.1408808356077 408.480651429557 1074.0646678739831 383.63887943333987 995.4007087504547C358.79710743712275 916.736749626926 343.8787465888087 831.3201529030142 368.8825779480086 763.8159394182258C393.88640930720845 696.3117259334374 465.1680661697886 634.4221251221934 533.661867588539 590.375427841724C602.1556690072896 546.3287305612546 705.4851025852106 499.0480392295368 779.8453864605116 499.5357557354091C854.2056703358126 500.0234722412814 920.0167549905118 546.7580495431857 979.8235708403454 593.3017268769577C1039.630386690179 639.8454042107295 1121.6535233391135 711.7934463487796 1138.6862815595134 778.7978197380405C1155.7190397799134 845.8021931273015 1112.305859883344 926.64539875469 1082.0201201627447 995.3279672125234C1051.7343804421455 1064.0105356703568 1011.1152190721624 1142.222293571596 956.9718432359177 1190.8932304850412C902.8284673996731 1239.5641673984862 830.3329706970444 1279.8691780808008 757.1598651452766 1287.3535886931936 " fill="#d0dcc2" stroke="none" opacity="0.5"></path><path d="M1069.8165841082564 476.6312713234789C1017.7577307468226 500.3902258691488 947.1008489263181 491.12293797831785 886.5207212838272 490.435546390912C825.9405936413365 489.74815480350617 756.2739854944291 495.0288125903206 706.3358182533113 472.50692179904365C656.3976510121934 449.9850310077667 624.2976680237969 400.2208671064991 586.89171783712 355.3042016432504C549.4857676504431 310.3875361800017 496.21891237184155 261.4505338357393 481.9001171332502 203.00692901955142C467.58132189465886 144.56332420336355 487.9248290907689 65.70395983255275 500.978946405572 4.642572746123051C514.033063720375 -56.41881434030665 523.9617539720715 -120.2751434539347 560.2248210220686 -163.36139349902683C596.4878880720657 -206.44764354411896 663.6414214703758 -228.27937319665938 718.5573487055547 -253.87492752442978C773.4732759407336 -279.4704818522002 838.9284327136717 -315.24896489075667 889.720384433142 -316.9347194656492C940.5123361526125 -318.62047404054175 977.2863375359118 -288.4522480057173 1023.3090590223773 -263.9894549737849C1069.3317805088427 -239.52666194185255 1124.7163945581724 -215.87397381108707 1165.8567133519346 -170.157961274055C1206.9970321456963 -124.44194873702293 1249.3573446150056 -49.76625848908145 1270.150971784949 10.306620248407512C1290.9445989548924 70.37949898589648 1302.4979980936812 134.0167780061313 1290.6184763715946 190.27931115087875C1278.738954649508 246.54184429562622 1235.6741568296525 300.156492421459 1198.8738414524296 347.8818191168924C1162.0735260752067 395.6071458123258 1121.87543746969 452.87231677780903 1069.8165841082564 476.6312713234789C1017.7577307468226 500.3902258691488 947.1008489263181 491.12293797831785 886.5207212838272 490.435546390912 " fill="#eb9d75" stroke="none" opacity="0.5"></path><path d="M323.25835266283093 560.221472890114C268.7455876531196 595.451390615799 198.03104546070603 608.0517617476628 130.62412483570404 612.0270319849043C63.21720421070205 616.0023022221458 -23.041801967462334 615.6735542673898 -81.18317108718085 584.0730943135628C-139.32454020689937 552.4726343597358 -182.9228738954595 483.16577230342045 -218.22408988260702 422.4242722619424C-253.52530586975453 361.68277222046436 -292.3190076393922 286.76636841366627 -292.9904670100659 219.62409406469442C-293.6619263807396 152.48181971572257 -258.7552427104008 80.79427006785448 -222.25284610664914 19.570626168111232C-185.75044950289745 -41.65301773163202 -135.13715524014208 -112.97549658247269 -73.97608738755582 -147.71776933376515C-12.815019534969565 -182.4600420850576 71.78995060788645 -188.87575938382787 144.7135610088684 -188.88301033964348C217.63717140985034 -188.89026129545908 318.9294249421671 -177.80336045801408 363.5655750183357 -147.76127506865873C408.20172509450435 -117.71918967930338 394.0828001474524 -62.793795429131876 412.5304614658804 -8.630498003511377C430.9781227843084 45.53279942210912 466.72316735755487 109.00550554601335 474.2515429289034 177.21850948506432C481.77991850025194 245.43151342411528 482.86624660498387 336.81369839661943 457.70071489397174 400.64752563079435C432.5351831829596 464.48135286496927 377.77111767254223 524.991555164429 323.25835266283093 560.221472890114C268.7455876531196 595.451390615799 198.03104546070603 608.0517617476628 130.62412483570404 612.0270319849043 " fill="none" stroke-width="4" stroke="#d0dcc2" opacity="0.5"></path></svg>