<svg id="canvas" height="100%" xmlns="http://www.w3.org/2000/svg" version="1.1" xmlns:xlink="http://www.w3.org/1999/xlink" viewBox="0 0 1400 800"><rect width="1400" height="800" fill="#efe6d6ff"></rect><path d="M798.6801300048297 1028.2314573959975C745.937594250403 1040.4284821387032 668.2246627438927 1002.0328820048352 610.6095802997202 994.9713360945947C552.9944978555475 987.9097901843542 499.4189999667413 1004.8159478873596 452.98963533979395 985.8621819345548C406.56027071284666 966.90841598175 369.20165222953403 918.7067761904027 332.03339253803614 881.2487403777658C294.86513284653824 843.7907045651289 248.61078853495405 803.07001903204 229.98007719080658 761.113967058733C211.3493658466591 719.157915085426 219.9254962037595 679.2581248366721 220.24912447315126 629.5124285379236C220.572752742543 579.7667322391751 213.76318994510544 513.5709509463062 231.92184680715707 462.6397892662425C250.0805036692087 411.70862758617875 295.23394751839913 363.91928487645504 329.201065645461 323.92545845754137C363.16818377252287 283.9316320386277 384.89535116538946 241.1915881314626 435.7245555695282 222.6768307527605C486.553759973667 204.1620733740584 573.3279134685248 212.1831070764232 634.1762920702938 212.83691418532874C695.0246706720627 213.49072129423428 765.0548754706695 207.4670674197947 800.814827180142 226.5996734061938C836.5747788896144 245.7322793925929 823.3603032022252 292.8160162935711 848.7360023271289 327.63255010372336C874.1117014520325 362.4490839138756 926.4950127201529 389.50372052097475 953.0690219295639 435.4988762671072C979.6430311389748 481.49403201323963 1002.3901382958729 549.4264305834317 1008.1800575835948 603.6034845805179C1013.9699768713167 657.7805385776041 1001.3277481154474 707.530249739984 987.8085376558951 760.5612002496244C974.2893271963427 813.5921507592649 958.5861961014583 877.1774781139648 927.0647948262807 921.7891876383603C895.5433935511031 966.4008971627559 851.4226657592565 1016.0344326532919 798.6801300048297 1028.2314573959975C745.937594250403 1040.4284821387032 668.2246627438927 1002.0328820048352 610.6095802997202 994.9713360945947 " fill="none" stroke-width="4" stroke="#d0dcc2" opacity="0.5"></path><path d="M1586.9004673874442 818.6846429752608C1530.5377895329816 863.5378847160224 1443.1601683884887 882.4143062268041 1367.4220474158578 885.3522459843327C1291.6839264432272 888.2901857418614 1193.774701651303 880.2543859062771 1132.4717415516598 836.3122815204323C1071.1687814520164 792.3701771345875 1023.8716388111602 697.11704940989 999.6042868179987 621.6996196692637C975.3369348248373 546.2821899286375 960.7012441776714 451.7149238396567 986.8676295926912 383.8077030766748C1013.0340150077109 315.90048231369286 1089.410052438297 259.35598008616796 1156.6025993081173 214.25629509137207C1223.7951461779376 169.15661009657614 1322.6071140253425 114.63158999462884 1390.0229108116125 113.2095931078992C1457.4387075978825 111.78759622116955 1507.0650032976705 161.66013774946967 1561.0973800257377 205.72431377099417C1615.129756753805 249.78848979251867 1690.1337154271987 309.1765689422514 1714.217171180015 377.59464923704616C1738.3006269328312 446.01272953184093 1726.8175651747292 542.7177965833937 1705.5981145426342 616.2327955397628C1684.3786639105392 689.747794496132 1643.263145241907 773.8314012344991 1586.9004673874442 818.6846429752608C1530.5377895329816 863.5378847160224 1443.1601683884887 882.4143062268041 1367.4220474158578 885.3522459843327 " fill="none" stroke-width="4" stroke="#2f3c2e" opacity="0.5"></path><path d="M989.4047744820526 723.5117310593889C918.5720125631892 758.5737565475724 788.4897848649545 720.7399080011362 701.3180497413384 710.6486335803565C614.1463146177224 700.5573591595771 527.0819827076066 700.0062070775048 466.37436374035656 662.9640845347114C405.6667447731064 625.9219619919181 361.0853711297776 560.2304173597599 337.07233593783786 488.39589832359655C313.05930074589804 416.5613792874332 298.1377665666841 307.2186268017922 322.29615258871775 231.95697031773153C346.4545386107514 156.69531383367087 418.43978383665115 85.50515947781824 482.02265207003967 36.825959419232504C545.6055203034282 -11.853240639353224 628.9902289879212 -59.763670084915674 703.7933619890491 -60.11823003378282C778.596494990177 -60.47278998264997 866.3884403783867 -11.86752720939932 930.841450076807 34.69859972602961C995.2944597752272 81.26472666145855 1057.9325583166185 141.68221809125305 1090.5114201795705 219.27853157879076C1123.0902820425224 296.8748450663285 1143.1657288707715 416.2376140711561 1126.3146212545184 500.2764806512558C1109.4635136382656 584.3153472313554 1060.237536400916 688.4497055712054 989.4047744820526 723.5117310593889C918.5720125631892 758.5737565475724 788.4897848649545 720.7399080011362 701.3180497413384 710.6486335803565 " fill="#d0dcc2" stroke="none" opacity="0.5"></path></svg>