<svg id="canvas" height="100%" xmlns="http://www.w3.org/2000/svg" version="1.1" xmlns:xlink="http://www.w3.org/1999/xlink" viewBox="0 0 909 512"><rect width="909" height="512" fill="#efe6d6ff"></rect><path d="M85.91569079203373 259.84357637789356C49.076367653207456 274.65385612579746 -1.652251924823986 265.5032717026344 -43.704272442257434 263.8967025746563C-85.75629295969088 262.29013344667817 -130.90517699846268 259.22584409760714 -166.39643231256693 250.20416161002504C-201.88768762667118 241.18247912244294 -228.00460805393493 233.75155277568945 -256.65180432688294 209.7666076491637C-285.29900059983095 185.78166252263793 -322.8248021452381 143.75283919152025 -338.27960995025495 106.29449085087043C-353.7344177552718 68.83614251022061 -349.50253825750156 27.656516037121833 -349.3806511569841 -14.983482394735404C-349.2587640564666 -57.62348082659264 -353.43235025209594 -109.31392746759991 -337.54828734714994 -149.54549974027313C-321.66422444220393 -189.77707201294635 -284.8424313915889 -224.53915012115309 -254.0762737273081 -256.37291603077483C-223.31011606302727 -288.2066819403965 -190.42799286676333 -325.7392702556459 -152.951341361465 -340.5480951980034C-115.47468985616669 -355.3569201403609 -71.21160116227941 -345.13335408611067 -29.216364695518166 -345.2258656849198C12.778871771243075 -345.318377283729 55.69524433311108 -358.27641684815944 99.02007743910247 -341.1031647908583C142.34491054509385 -323.9299127335571 192.60697975595258 -274.94686232915444 230.7326339404301 -242.18635334111292C268.85828812490763 -209.4258443530714 317.428207623969 -180.57379752966355 327.7740025459673 -144.54011086260908C338.11979746796555 -108.50642419555459 298.9346559665644 -67.46891496203568 292.80740347241976 -25.984233338786055C286.68015097827515 15.500448284463573 310.2564437613862 70.86476930588566 291.0104875810996 104.36797887688886C271.764531400813 137.87118844789205 211.5141325222113 149.1224245037323 177.33166639070032 175.03502408723307C143.14920025918934 200.94762367073383 122.75501393086 245.03329662998965 85.91569079203373 259.84357637789356C49.076367653207456 274.65385612579746 -1.652251924823986 265.5032717026344 -43.704272442257434 263.8967025746563 " fill="#dadabdff"></path><path d="M1053.96690136897 964.9245741817472C1002.906713316535 962.6416503869348 912.0620473259852 878.0692509328499 859.1862248763377 861.3012722140644C806.3104024266903 844.5332934952789 771.2772633203834 869.332580993877 736.7119666710854 864.3167018690344C702.1466700217874 859.3008227441919 680.3118992025763 853.7158173699144 651.7944449805494 831.2059974650092C623.2769907585225 808.696177560104 579.6753484069426 770.7744264155743 565.6072413389238 729.2577824396035C551.5391342709052 687.7411384636326 567.5649371034048 627.9028100324549 567.3858025724371 582.1061336091841C567.2066680414694 536.3094571859133 550.6693884931251 491.49282311411173 564.532434153118 454.47772389997874C578.3954798131107 417.46262468584575 619.00638312644 389.91591480109946 650.564076532394 360.0155383243863C682.1217699383479 330.11516184767305 718.0258442451873 288.751806686479 753.8785945888417 275.07546503969945C789.7313449324962 261.39912339291993 826.2203246305671 278.22789516554633 865.6805785943208 277.957488443709C905.1408325580744 277.68708172187166 940.1291675024893 256.76343232208364 990.640118371364 273.4530247086754C1041.1510692402387 290.14261709526716 1122.2941661248535 343.1873569597982 1168.7462838075694 378.09504276325936C1215.198401490285 413.0027285667205 1258.92951084398 445.9580723271001 1269.3528244676586 482.8991395294423C1279.776138091337 519.8402067317846 1240.3941152949578 557.8715363064892 1231.2861655496401 599.7414459773129C1222.1782158043225 641.6113556481366 1225.6615947222012 688.2423693867801 1214.7051259957523 734.1185975543843C1203.7486572693033 779.9948257219886 1192.337057295411 836.5311522117115 1165.5473531909472 874.9988149829387C1138.7576490864835 913.4664777541659 1105.027089421405 967.2074979765596 1053.96690136897 964.9245741817472C1002.906713316535 962.6416503869348 912.0620473259852 878.0692509328499 859.1862248763377 861.3012722140644 " fill="#ecdbbcff" transform="matrix(-1,1.2246467991473532e-16,-1.2246467991473532e-16,-1,1830.0946044921875,1231.9949340820312)"></path><path d="M262.49866480222187 1035.8399185332396C226.26701737666815 1051.2900705759857 172.8594089151773 1038.8106056937743 130.39310668285526 1036.627645100321C87.92680445053321 1034.4446845068676 40.882991051599845 1031.5047753395652 7.7008514082896795 1022.7421549725194C-25.481288235020486 1013.9795346054738 -40.15148327351429 1006.2391432298937 -68.69973117700567 984.0519228980472C-97.24797908049705 961.8647025662008 -146.16252126994237 926.9280601935914 -163.58863601265858 889.6188329814405C-181.01475075537476 852.3096057692896 -173.31285779594316 804.3624833746114 -173.2564196333028 760.1965596251423C-173.19998147066246 716.0306358756732 -178.4016378201744 665.6898659763979 -163.25000703681644 624.623290484626C-148.0983762534585 583.556714992854 -111.02485122521583 546.1560792818839 -82.3466349331552 513.7971066745109C-53.668418641094576 481.43813406713787 -29.646090048061325 444.23111661197606 8.81929071554731 430.46945484038787C47.284671479155946 416.7077930687997 103.57447909640905 431.0210935819751 148.44564964849656 431.22713604498176C193.31682020058406 431.43317850798843 245.6203571740491 417.07588318139875 278.0463140280722 431.7057096184279C310.47227088209524 446.335536055457 317.4286611381682 490.05507712760283 343.001390772635 519.0060946671566C368.57412040710176 547.9571122067103 398.3121793985314 561.2325532922013 431.48269183487275 605.4118148557503C464.6532042712141 649.5910764192994 524.3869629292174 730.1844053690629 542.0244653906831 784.0816640484508C559.6619678521488 837.9789227278386 569.6812856294182 902.1545221328454 537.3077066036673 928.7953669320774C504.93412757791634 955.4362117313094 393.5844982030852 926.0859742436495 347.7829912361776 943.9267328438432C301.98148426927 961.7674914440369 298.7303122277756 1020.3897664904933 262.49866480222187 1035.8399185332396C226.26701737666815 1051.2900705759857 172.8594089151773 1038.8106056937743 130.39310668285526 1036.627645100321 " fill="#dadabdff"></path></svg>