<svg id="canvas" height="100%" xmlns="http://www.w3.org/2000/svg" version="1.1" xmlns:xlink="http://www.w3.org/1999/xlink" viewBox="0 0 909 512"><rect width="909" height="512" fill="#efe6d6ff"></rect><path d="M117.8416947493896 308.1512092174844C82.41402612392426 332.5874602576215 51.545325329763045 361.23917642969684 9.515820451839772 369.4775481317331C-32.5136844260835 377.71591983376936 -90.96987622226976 377.0196792795597 -134.33533451814998 357.5814394297022C-177.70079281403017 338.1431995798447 -216.65899828039858 288.7865429191737 -250.67692932344139 252.84810903258824C-284.6948603664842 216.90967514600277 -322.5982249766826 190.02293504389547 -338.4429207764068 141.95083611018924C-354.28761657613103 93.87873717648296 -345.2749437800235 15.053770125291749 -345.74510412178677 -35.58448456964942C-346.21526446355006 -86.22273926459059 -357.50357858703313 -126.55465284186153 -341.26388282698656 -161.87869205945793C-325.02418706694 -197.20273127705434 -282.9422334900205 -218.36109127170747 -248.30692956150722 -247.5287198752278C-213.67162563299394 -276.6963484787482 -172.6291425669457 -320.1376976304729 -133.4520592559068 -336.88446368058C-94.27497594486789 -353.63122973068704 -55.80256534241346 -347.7024101168297 -13.24442969527388 -348.0093161758701C29.3137059518657 -348.31622223491047 82.56477420209166 -356.07135594150276 121.89675462693054 -338.72590003482236C161.22873505176938 -321.38044412814196 190.16946496235448 -276.022264214041 222.74745285375934 -243.9365807357878C255.3254407451642 -211.85089725753457 310.6429583375261 -179.27510111384288 317.3646819753594 -146.21179916530295C324.0864056131927 -113.14849721676302 274.41307162307044 -82.7456039710795 263.0777946807591 -45.55676904454816C251.74251773844776 -8.36793411801682 256.1856807341794 32.185075237975184 249.3530203214915 76.92121039388502C242.52035990880358 121.65734554979485 244.00038646664893 184.3217087536441 222.08183220463195 222.86004189091068C200.16327794261497 261.39837502817727 153.26936337485495 283.7149581773473 117.8416947493896 308.1512092174844C82.41402612392426 332.5874602576215 51.545325329763045 361.23917642969684 9.515820451839772 369.4775481317331 " fill="#c8d9bfff"></path><path d="M997.4204752323957 874.3213636411551C964.431757981461 896.599650294518 933.8043842860372 919.7302949361222 894.486774910005 926.6962163960918C855.1691655339728 933.6621378560615 798.9545204687838 923.5712946055561 761.5148189762018 916.116892400973C724.0751174836198 908.66249019639 700.7955615308327 906.1403751204149 669.8485659545128 881.9698031685937C638.9015703781927 857.7992312167725 594.1980704794142 822.0595331935277 575.8328455182818 771.0934606900455C557.4676205571493 720.1273881865633 560.2920548660034 629.6152618626759 559.6572161877182 576.1733681477001C559.022377509433 522.7314744327244 555.9202712288334 486.99001183040025 572.0238134485708 450.4420984001911C588.127355668308 413.894184969982 625.1577469433615 386.3378474329535 656.2784695061424 356.88588756644526C687.3991920689234 327.43392769993704 720.4052111590621 287.3483713663797 758.7481488252564 273.7303392011417C797.0910864914507 260.1123070359037 843.4293000632426 275.2242411063986 886.3360955033081 275.1776945750173C929.2428909433736 275.131148043636 972.6192571114834 258.0104280837745 1016.1889214656493 273.4510600128541C1059.7585858198152 288.8916919419337 1110.3664495909172 335.03904854674 1147.7540816283035 367.821486149495C1185.1417136656898 400.60392375225 1235.4066834222663 435.5260800705778 1240.5147136899668 470.14568562938405C1245.6227439576676 504.7652911881903 1188.8400707263559 537.05878830702 1178.4022632345077 575.5391195023326C1167.9644557426595 614.0194506976452 1192.2183995420278 664.7797766389958 1177.8878687388788 701.0276728012594C1163.5573379357295 737.275568963523 1122.4969773333596 764.1442146692654 1092.4190784156126 793.0264964759147C1062.3411794978654 821.908778282564 1030.4091924833303 852.0430769877922 997.4204752323957 874.3213636411551C964.431757981461 896.599650294518 933.8043842860372 919.7302949361222 894.486774910005 926.6962163960918 " fill="#ecdbbcff" transform="matrix(-1,1.2246467991473532e-16,-1.2246467991473532e-16,-1,1799.8389892578125,1196.0369873046875)"></path><path d="M328.5170683753148 1138.8575025829236C281.6195075827044 1145.04806706114 203.04869660242508 1086.534751089428 151.5494462861298 1076.1131500747874C100.05019596983453 1065.691549060147 59.71834726782214 1094.4583443286556 19.521566477543217 1076.3278964950807C-20.675214312735704 1058.1974486615059 -58.31256725120542 1002.0717434827885 -89.63123845554381 967.3304630733378C-120.94990965988221 932.5891826638871 -154.96925432294478 897.8805045272538 -168.39046074848716 867.8802140383764C-181.81166717402954 837.8799235494988 -170.73523711905793 824.6557256108538 -170.15847700879817 787.3287201400728C-169.58171689853842 750.0017146692921 -178.9064831547765 688.5169723100394 -164.92990008692868 643.9181812136915C-150.95331701908086 599.3193901173435 -114.76070069758845 554.196687371821 -86.29897860171121 519.7359735619851C-57.83725650583398 485.2752597521493 -30.33295091192332 452.92371285835384 5.840432488334699 437.1538983546763C42.01381588859272 421.38408385099876 89.24701436307117 425.0999068921807 130.7413217998369 425.11708653991985C172.23562923660262 425.134266187659 218.1464567070305 420.3304884102592 254.806277108929 437.2569762411115C291.4660975108275 454.1834640719638 319.87728064337364 496.9264635085972 350.7002442112281 526.6760135250337C381.52320777908255 556.4255635414702 406.7402667359927 572.0730342507288 439.7440585160556 615.7542763397305C472.7478502961185 659.4355184287322 533.6340522530245 735.9353357026205 548.7229948916058 788.7634660590434C563.8119375301872 841.5915964154665 549.5757449891793 891.0220089538609 530.2777143475437 932.7230584782684C510.9796837059081 974.4241080026759 466.56158537049737 1004.614022521379 432.9348110417925 1038.969763205488C399.30803671308763 1073.3255038895975 375.4146291679252 1132.6669381047072 328.5170683753148 1138.8575025829236C281.6195075827044 1145.04806706114 203.04869660242508 1086.534751089428 151.5494462861298 1076.1131500747874 " fill="#fedcbaff"></path></svg>