<svg xmlns="http://www.w3.org/2000/svg" xmlns:xlink="http://www.w3.org/1999/xlink" width="500" zoomAndPan="magnify" viewBox="0 0 375 374.999991" height="500" preserveAspectRatio="xMidYMid meet" version="1.0"><defs><clipPath id="b891a1a518"><path d="M 87 208 L 133 208 L 133 242 L 87 242 Z M 87 208 " clip-rule="nonzero"/></clipPath><clipPath id="97cf63b4dd"><path d="M 132.683594 217.828125 C 132.660156 217.957031 132.636719 218.082031 132.605469 218.210938 L 128.285156 235.503906 C 128.070312 236.359375 127.722656 237.152344 127.242188 237.890625 C 126.761719 238.628906 126.171875 239.269531 125.476562 239.8125 C 124.785156 240.351562 124.019531 240.765625 123.183594 241.054688 C 122.351562 241.339844 121.492188 241.484375 120.609375 241.484375 L 99.832031 241.484375 C 98.949219 241.484375 98.089844 241.339844 97.257812 241.054688 C 96.421875 240.765625 95.65625 240.351562 94.960938 239.8125 C 94.265625 239.269531 93.679688 238.628906 93.199219 237.890625 C 92.71875 237.152344 92.371094 236.359375 92.15625 235.503906 L 87.835938 218.210938 C 87.804688 218.082031 87.78125 217.957031 87.757812 217.828125 C 87.640625 217.257812 87.59375 216.679688 87.605469 216.097656 C 87.621094 215.511719 87.699219 214.941406 87.839844 214.375 C 87.980469 213.808594 88.183594 213.265625 88.445312 212.746094 C 88.707031 212.222656 89.023438 211.738281 89.394531 211.289062 C 89.765625 210.835938 90.179688 210.433594 90.640625 210.074219 C 91.101562 209.714844 91.59375 209.410156 92.125 209.160156 C 92.652344 208.914062 93.199219 208.722656 93.769531 208.597656 C 94.339844 208.46875 94.914062 208.40625 95.5 208.40625 L 124.941406 208.40625 C 125.527344 208.402344 126.101562 208.46875 126.671875 208.59375 C 127.242188 208.722656 127.792969 208.910156 128.320312 209.160156 C 128.847656 209.410156 129.339844 209.710938 129.800781 210.070312 C 130.261719 210.429688 130.679688 210.835938 131.046875 211.285156 C 131.417969 211.738281 131.734375 212.222656 131.996094 212.742188 C 132.261719 213.265625 132.460938 213.808594 132.601562 214.375 C 132.746094 214.9375 132.824219 215.511719 132.835938 216.097656 C 132.851562 216.679688 132.800781 217.257812 132.683594 217.828125 Z M 132.683594 217.828125 " clip-rule="nonzero"/></clipPath><linearGradient x1="67.014912" gradientTransform="matrix(0.926471, 0, 0, 0.924941, 25.504923, 33.359589)" y1="207.132" x2="115.864506" gradientUnits="userSpaceOnUse" y2="207.132" id="4367742ade"><stop stop-opacity="1" stop-color="rgb(70.199585%, 31.799316%, 31.799316%)" offset="0"/><stop stop-opacity="1" stop-color="rgb(70.040894%, 31.726074%, 31.726074%)" offset="0.03125"/><stop stop-opacity="1" stop-color="rgb(69.721985%, 31.57959%, 31.57959%)" offset="0.0625"/><stop stop-opacity="1" stop-color="rgb(69.403076%, 31.433105%, 31.433105%)" offset="0.09375"/><stop stop-opacity="1" stop-color="rgb(69.084167%, 31.285095%, 31.285095%)" offset="0.125"/><stop stop-opacity="1" stop-color="rgb(68.765259%, 31.138611%, 31.138611%)" offset="0.15625"/><stop stop-opacity="1" stop-color="rgb(68.44635%, 30.992126%, 30.992126%)" offset="0.1875"/><stop stop-opacity="1" stop-color="rgb(68.127441%, 30.844116%, 30.844116%)" offset="0.21875"/><stop stop-opacity="1" stop-color="rgb(67.808533%, 30.697632%, 30.697632%)" offset="0.25"/><stop stop-opacity="1" stop-color="rgb(67.489624%, 30.551147%, 30.551147%)" offset="0.28125"/><stop stop-opacity="1" stop-color="rgb(67.170715%, 30.404663%, 30.404663%)" offset="0.3125"/><stop stop-opacity="1" stop-color="rgb(66.851807%, 30.256653%, 30.256653%)" offset="0.34375"/><stop stop-opacity="1" stop-color="rgb(66.532898%, 30.110168%, 30.110168%)" offset="0.375"/><stop stop-opacity="1" stop-color="rgb(66.213989%, 29.963684%, 29.963684%)" offset="0.40625"/><stop stop-opacity="1" stop-color="rgb(65.895081%, 29.815674%, 29.815674%)" offset="0.4375"/><stop stop-opacity="1" stop-color="rgb(65.576172%, 29.669189%, 29.669189%)" offset="0.46875"/><stop stop-opacity="1" stop-color="rgb(65.257263%, 29.522705%, 29.522705%)" offset="0.5"/><stop stop-opacity="1" stop-color="rgb(64.938354%, 29.376221%, 29.376221%)" offset="0.53125"/><stop stop-opacity="1" stop-color="rgb(64.619446%, 29.22821%, 29.22821%)" offset="0.5625"/><stop stop-opacity="1" stop-color="rgb(64.300537%, 29.081726%, 29.081726%)" offset="0.59375"/><stop stop-opacity="1" stop-color="rgb(63.981628%, 28.935242%, 28.935242%)" offset="0.625"/><stop stop-opacity="1" stop-color="rgb(63.66272%, 28.787231%, 28.787231%)" offset="0.65625"/><stop stop-opacity="1" stop-color="rgb(63.345337%, 28.640747%, 28.640747%)" offset="0.6875"/><stop stop-opacity="1" stop-color="rgb(63.026428%, 28.494263%, 28.494263%)" offset="0.71875"/><stop stop-opacity="1" stop-color="rgb(62.70752%, 28.346252%, 28.346252%)" offset="0.75"/><stop stop-opacity="1" stop-color="rgb(62.388611%, 28.199768%, 28.199768%)" offset="0.78125"/><stop stop-opacity="1" stop-color="rgb(62.069702%, 28.053284%, 28.053284%)" offset="0.8125"/><stop stop-opacity="1" stop-color="rgb(61.750793%, 27.906799%, 27.906799%)" offset="0.84375"/><stop stop-opacity="1" stop-color="rgb(61.431885%, 27.758789%, 27.758789%)" offset="0.875"/><stop stop-opacity="1" stop-color="rgb(61.112976%, 27.612305%, 27.612305%)" offset="0.90625"/><stop stop-opacity="1" stop-color="rgb(60.794067%, 27.46582%, 27.46582%)" offset="0.9375"/><stop stop-opacity="1" stop-color="rgb(60.475159%, 27.31781%, 27.31781%)" offset="0.96875"/><stop stop-opacity="1" stop-color="rgb(60.157776%, 27.171326%, 27.171326%)" offset="1"/></linearGradient><clipPath id="f390753e7d"><path d="M 96 213 L 129 213 L 129 239 L 96 239 Z M 96 213 " clip-rule="nonzero"/></clipPath><clipPath id="6b5aa74c4d"><path d="M 128.363281 219.628906 L 124.925781 233.402344 C 124.753906 234.085938 124.476562 234.71875 124.09375 235.304688 C 123.710938 235.894531 123.242188 236.402344 122.6875 236.835938 C 122.136719 237.265625 121.527344 237.597656 120.863281 237.824219 C 120.199219 238.054688 119.515625 238.167969 118.8125 238.167969 L 102.261719 238.167969 C 101.597656 238.167969 100.953125 238.066406 100.324219 237.863281 C 99.691406 237.660156 99.109375 237.367188 98.574219 236.980469 C 98.035156 236.589844 97.574219 236.132812 97.183594 235.597656 C 96.792969 235.0625 96.492188 234.484375 96.285156 233.855469 C 97.46875 234.886719 98.84375 235.402344 100.410156 235.398438 L 116.960938 235.398438 C 117.664062 235.398438 118.347656 235.285156 119.011719 235.054688 C 119.675781 234.828125 120.285156 234.496094 120.839844 234.066406 C 121.394531 233.632812 121.863281 233.125 122.246094 232.535156 C 122.628906 231.949219 122.902344 231.316406 123.074219 230.632812 L 126.515625 216.859375 C 126.816406 215.683594 126.773438 214.515625 126.386719 213.363281 C 126.824219 213.742188 127.207031 214.171875 127.527344 214.65625 C 127.847656 215.140625 128.09375 215.660156 128.269531 216.214844 C 128.441406 216.769531 128.539062 217.335938 128.554688 217.917969 C 128.570312 218.496094 128.507812 219.066406 128.363281 219.628906 Z M 128.363281 219.628906 " clip-rule="nonzero"/></clipPath><linearGradient x1="76.398999" gradientTransform="matrix(0.926471, 0, 0, 0.924941, 25.504923, 33.359589)" y1="208.019" x2="111.245777" gradientUnits="userSpaceOnUse" y2="208.019" id="1d45e43589"><stop stop-opacity="1" stop-color="rgb(48.999023%, 18.399048%, 18.399048%)" offset="0"/><stop stop-opacity="1" stop-color="rgb(48.867798%, 18.347168%, 18.347168%)" offset="0.015625"/><stop stop-opacity="1" stop-color="rgb(48.605347%, 18.244934%, 18.244934%)" offset="0.03125"/><stop stop-opacity="1" stop-color="rgb(48.342896%, 18.141174%, 18.141174%)" offset="0.046875"/><stop stop-opacity="1" stop-color="rgb(48.080444%, 18.037415%, 18.037415%)" offset="0.0625"/><stop stop-opacity="1" stop-color="rgb(47.817993%, 17.935181%, 17.935181%)" offset="0.078125"/><stop stop-opacity="1" stop-color="rgb(47.555542%, 17.831421%, 17.831421%)" offset="0.09375"/><stop stop-opacity="1" stop-color="rgb(47.291565%, 17.727661%, 17.727661%)" offset="0.109375"/><stop stop-opacity="1" stop-color="rgb(47.029114%, 17.625427%, 17.625427%)" offset="0.125"/><stop stop-opacity="1" stop-color="rgb(46.766663%, 17.521667%, 17.521667%)" offset="0.140625"/><stop stop-opacity="1" stop-color="rgb(46.504211%, 17.419434%, 17.419434%)" offset="0.15625"/><stop stop-opacity="1" stop-color="rgb(46.24176%, 17.315674%, 17.315674%)" offset="0.171875"/><stop stop-opacity="1" stop-color="rgb(45.979309%, 17.211914%, 17.211914%)" offset="0.1875"/><stop stop-opacity="1" stop-color="rgb(45.716858%, 17.10968%, 17.10968%)" offset="0.203125"/><stop stop-opacity="1" stop-color="rgb(45.454407%, 17.00592%, 17.00592%)" offset="0.21875"/><stop stop-opacity="1" stop-color="rgb(45.191956%, 16.903687%, 16.903687%)" offset="0.234375"/><stop stop-opacity="1" stop-color="rgb(44.927979%, 16.799927%, 16.799927%)" offset="0.25"/><stop stop-opacity="1" stop-color="rgb(44.665527%, 16.696167%, 16.696167%)" offset="0.265625"/><stop stop-opacity="1" stop-color="rgb(44.403076%, 16.593933%, 16.593933%)" offset="0.28125"/><stop stop-opacity="1" stop-color="rgb(44.140625%, 16.490173%, 16.490173%)" offset="0.296875"/><stop stop-opacity="1" stop-color="rgb(43.878174%, 16.386414%, 16.386414%)" offset="0.3125"/><stop stop-opacity="1" stop-color="rgb(43.615723%, 16.28418%, 16.28418%)" offset="0.328125"/><stop stop-opacity="1" stop-color="rgb(43.353271%, 16.18042%, 16.18042%)" offset="0.34375"/><stop stop-opacity="1" stop-color="rgb(43.09082%, 16.078186%, 16.078186%)" offset="0.359375"/><stop stop-opacity="1" stop-color="rgb(42.828369%, 15.974426%, 15.974426%)" offset="0.375"/><stop stop-opacity="1" stop-color="rgb(42.565918%, 15.870667%, 15.870667%)" offset="0.390625"/><stop stop-opacity="1" stop-color="rgb(42.301941%, 15.768433%, 15.768433%)" offset="0.40625"/><stop stop-opacity="1" stop-color="rgb(42.03949%, 15.664673%, 15.664673%)" offset="0.421875"/><stop stop-opacity="1" stop-color="rgb(41.777039%, 15.562439%, 15.562439%)" offset="0.4375"/><stop stop-opacity="1" stop-color="rgb(41.514587%, 15.458679%, 15.458679%)" offset="0.453125"/><stop stop-opacity="1" stop-color="rgb(41.252136%, 15.354919%, 15.354919%)" offset="0.46875"/><stop stop-opacity="1" stop-color="rgb(40.989685%, 15.252686%, 15.252686%)" offset="0.484375"/><stop stop-opacity="1" stop-color="rgb(40.727234%, 15.148926%, 15.148926%)" offset="0.5"/><stop stop-opacity="1" stop-color="rgb(40.464783%, 15.046692%, 15.046692%)" offset="0.515625"/><stop stop-opacity="1" stop-color="rgb(40.202332%, 14.942932%, 14.942932%)" offset="0.53125"/><stop stop-opacity="1" stop-color="rgb(39.938354%, 14.839172%, 14.839172%)" offset="0.546875"/><stop stop-opacity="1" stop-color="rgb(39.675903%, 14.736938%, 14.736938%)" offset="0.5625"/><stop stop-opacity="1" stop-color="rgb(39.413452%, 14.633179%, 14.633179%)" offset="0.578125"/><stop stop-opacity="1" stop-color="rgb(39.151001%, 14.529419%, 14.529419%)" offset="0.59375"/><stop stop-opacity="1" stop-color="rgb(38.88855%, 14.427185%, 14.427185%)" offset="0.609375"/><stop stop-opacity="1" stop-color="rgb(38.626099%, 14.323425%, 14.323425%)" offset="0.625"/><stop stop-opacity="1" stop-color="rgb(38.363647%, 14.221191%, 14.221191%)" offset="0.640625"/><stop stop-opacity="1" stop-color="rgb(38.101196%, 14.117432%, 14.117432%)" offset="0.65625"/><stop stop-opacity="1" stop-color="rgb(37.838745%, 14.013672%, 14.013672%)" offset="0.671875"/><stop stop-opacity="1" stop-color="rgb(37.576294%, 13.911438%, 13.911438%)" offset="0.6875"/><stop stop-opacity="1" stop-color="rgb(37.312317%, 13.807678%, 13.807678%)" offset="0.703125"/><stop stop-opacity="1" stop-color="rgb(37.049866%, 13.705444%, 13.705444%)" offset="0.71875"/><stop stop-opacity="1" stop-color="rgb(36.787415%, 13.601685%, 13.601685%)" offset="0.734375"/><stop stop-opacity="1" stop-color="rgb(36.524963%, 13.497925%, 13.497925%)" offset="0.75"/><stop stop-opacity="1" stop-color="rgb(36.262512%, 13.395691%, 13.395691%)" offset="0.765625"/><stop stop-opacity="1" stop-color="rgb(36.000061%, 13.291931%, 13.291931%)" offset="0.78125"/><stop stop-opacity="1" stop-color="rgb(35.73761%, 13.188171%, 13.188171%)" offset="0.796875"/><stop stop-opacity="1" stop-color="rgb(35.475159%, 13.085938%, 13.085938%)" offset="0.8125"/><stop stop-opacity="1" stop-color="rgb(35.212708%, 12.982178%, 12.982178%)" offset="0.828125"/><stop stop-opacity="1" stop-color="rgb(34.94873%, 12.879944%, 12.879944%)" offset="0.84375"/><stop stop-opacity="1" stop-color="rgb(34.686279%, 12.776184%, 12.776184%)" offset="0.859375"/><stop stop-opacity="1" stop-color="rgb(34.423828%, 12.672424%, 12.672424%)" offset="0.875"/><stop stop-opacity="1" stop-color="rgb(34.161377%, 12.57019%, 12.57019%)" offset="0.890625"/><stop stop-opacity="1" stop-color="rgb(33.898926%, 12.466431%, 12.466431%)" offset="0.90625"/><stop stop-opacity="1" stop-color="rgb(33.636475%, 12.364197%, 12.364197%)" offset="0.921875"/><stop stop-opacity="1" stop-color="rgb(33.374023%, 12.260437%, 12.260437%)" offset="0.9375"/><stop stop-opacity="1" stop-color="rgb(33.111572%, 12.156677%, 12.156677%)" offset="0.953125"/><stop stop-opacity="1" stop-color="rgb(32.849121%, 12.054443%, 12.054443%)" offset="0.96875"/><stop stop-opacity="1" stop-color="rgb(32.58667%, 11.950684%, 11.950684%)" offset="0.984375"/><stop stop-opacity="1" stop-color="rgb(32.327271%, 11.849976%, 11.849976%)" offset="1"/></linearGradient><clipPath id="d242d11426"><path d="M 85 205 L 136 205 L 136 217 L 85 217 Z M 85 205 " clip-rule="nonzero"/></clipPath><clipPath id="395909e1e1"><path d="M 87.269531 205.804688 L 133.175781 205.804688 C 133.460938 205.804688 133.734375 205.855469 134 205.964844 C 134.261719 206.074219 134.496094 206.230469 134.695312 206.433594 C 134.898438 206.632812 135.054688 206.867188 135.164062 207.128906 C 135.273438 207.390625 135.328125 207.667969 135.328125 207.953125 L 135.328125 214.035156 C 135.328125 214.320312 135.273438 214.59375 135.164062 214.855469 C 135.054688 215.121094 134.898438 215.351562 134.695312 215.554688 C 134.496094 215.753906 134.261719 215.910156 134 216.019531 C 133.734375 216.128906 133.460938 216.183594 133.175781 216.183594 L 87.269531 216.183594 C 86.984375 216.183594 86.707031 216.128906 86.445312 216.019531 C 86.179688 215.910156 85.949219 215.753906 85.746094 215.554688 C 85.542969 215.351562 85.390625 215.121094 85.28125 214.855469 C 85.171875 214.59375 85.117188 214.320312 85.117188 214.035156 L 85.117188 207.953125 C 85.117188 207.667969 85.171875 207.390625 85.28125 207.128906 C 85.390625 206.867188 85.542969 206.632812 85.746094 206.433594 C 85.949219 206.230469 86.179688 206.074219 86.445312 205.964844 C 86.707031 205.855469 86.984375 205.804688 87.269531 205.804688 Z M 87.269531 205.804688 " clip-rule="nonzero"/></clipPath><linearGradient x1="64.341993" gradientTransform="matrix(0.926471, 0, 0, 0.924941, 25.504923, 33.359589)" y1="192.048" x2="118.537998" gradientUnits="userSpaceOnUse" y2="192.048" id="ffa370edd3"><stop stop-opacity="1" stop-color="rgb(70.199585%, 31.799316%, 31.799316%)" offset="0"/><stop stop-opacity="1" stop-color="rgb(70.039368%, 31.726074%, 31.726074%)" offset="0.03125"/><stop stop-opacity="1" stop-color="rgb(69.720459%, 31.578064%, 31.578064%)" offset="0.0625"/><stop stop-opacity="1" stop-color="rgb(69.40155%, 31.43158%, 31.43158%)" offset="0.09375"/><stop stop-opacity="1" stop-color="rgb(69.082642%, 31.285095%, 31.285095%)" offset="0.125"/><stop stop-opacity="1" stop-color="rgb(68.763733%, 31.138611%, 31.138611%)" offset="0.15625"/><stop stop-opacity="1" stop-color="rgb(68.444824%, 30.990601%, 30.990601%)" offset="0.1875"/><stop stop-opacity="1" stop-color="rgb(68.127441%, 30.844116%, 30.844116%)" offset="0.21875"/><stop stop-opacity="1" stop-color="rgb(67.808533%, 30.697632%, 30.697632%)" offset="0.25"/><stop stop-opacity="1" stop-color="rgb(67.489624%, 30.551147%, 30.551147%)" offset="0.28125"/><stop stop-opacity="1" stop-color="rgb(67.170715%, 30.403137%, 30.403137%)" offset="0.3125"/><stop stop-opacity="1" stop-color="rgb(66.851807%, 30.256653%, 30.256653%)" offset="0.34375"/><stop stop-opacity="1" stop-color="rgb(66.532898%, 30.110168%, 30.110168%)" offset="0.375"/><stop stop-opacity="1" stop-color="rgb(66.213989%, 29.963684%, 29.963684%)" offset="0.40625"/><stop stop-opacity="1" stop-color="rgb(65.895081%, 29.815674%, 29.815674%)" offset="0.4375"/><stop stop-opacity="1" stop-color="rgb(65.576172%, 29.669189%, 29.669189%)" offset="0.46875"/><stop stop-opacity="1" stop-color="rgb(65.257263%, 29.522705%, 29.522705%)" offset="0.5"/><stop stop-opacity="1" stop-color="rgb(64.93988%, 29.376221%, 29.376221%)" offset="0.53125"/><stop stop-opacity="1" stop-color="rgb(64.620972%, 29.22821%, 29.22821%)" offset="0.5625"/><stop stop-opacity="1" stop-color="rgb(64.302063%, 29.081726%, 29.081726%)" offset="0.59375"/><stop stop-opacity="1" stop-color="rgb(63.983154%, 28.935242%, 28.935242%)" offset="0.625"/><stop stop-opacity="1" stop-color="rgb(63.664246%, 28.788757%, 28.788757%)" offset="0.65625"/><stop stop-opacity="1" stop-color="rgb(63.345337%, 28.640747%, 28.640747%)" offset="0.6875"/><stop stop-opacity="1" stop-color="rgb(63.026428%, 28.494263%, 28.494263%)" offset="0.71875"/><stop stop-opacity="1" stop-color="rgb(62.70752%, 28.347778%, 28.347778%)" offset="0.75"/><stop stop-opacity="1" stop-color="rgb(62.388611%, 28.201294%, 28.201294%)" offset="0.78125"/><stop stop-opacity="1" stop-color="rgb(62.069702%, 28.053284%, 28.053284%)" offset="0.8125"/><stop stop-opacity="1" stop-color="rgb(61.752319%, 27.906799%, 27.906799%)" offset="0.84375"/><stop stop-opacity="1" stop-color="rgb(61.433411%, 27.760315%, 27.760315%)" offset="0.875"/><stop stop-opacity="1" stop-color="rgb(61.114502%, 27.613831%, 27.613831%)" offset="0.90625"/><stop stop-opacity="1" stop-color="rgb(60.795593%, 27.46582%, 27.46582%)" offset="0.9375"/><stop stop-opacity="1" stop-color="rgb(60.476685%, 27.319336%, 27.319336%)" offset="0.96875"/><stop stop-opacity="1" stop-color="rgb(60.157776%, 27.172852%, 27.172852%)" offset="1"/></linearGradient><clipPath id="9ca164e455"><path d="M 30.136719 114 L 192 114 L 192 255 L 30.136719 255 Z M 30.136719 114 " clip-rule="nonzero"/></clipPath><clipPath id="fb35413ec4"><path d="M 151.480469 114.183594 L 70.585938 114.183594 L 30.136719 184.117188 L 70.585938 254.066406 L 151.480469 254.066406 L 191.925781 184.117188 Z M 77.738281 241.675781 L 44.460938 184.117188 L 77.738281 126.558594 L 144.308594 126.558594 L 177.601562 184.117188 L 144.308594 241.675781 Z M 77.738281 241.675781 " clip-rule="nonzero"/></clipPath><linearGradient x1="92.315002" gradientTransform="matrix(0.926471, 0, 0, 0.924941, 25.504923, 33.359589)" y1="87.384702" x2="92.315002" gradientUnits="userSpaceOnUse" y2="238.615304" id="dc3cb9e156"><stop stop-opacity="1" stop-color="rgb(63.899231%, 44.699097%, 29.798889%)" offset="0"/><stop stop-opacity="1" stop-color="rgb(63.777161%, 44.587708%, 29.737854%)" offset="0.03125"/><stop stop-opacity="1" stop-color="rgb(63.53302%, 44.366455%, 29.615784%)" offset="0.0625"/><stop stop-opacity="1" stop-color="rgb(63.290405%, 44.143677%, 29.493713%)" offset="0.09375"/><stop stop-opacity="1" stop-color="rgb(63.046265%, 43.922424%, 29.373169%)" offset="0.125"/><stop stop-opacity="1" stop-color="rgb(62.802124%, 43.699646%, 29.251099%)" offset="0.15625"/><stop stop-opacity="1" stop-color="rgb(62.557983%, 43.478394%, 29.129028%)" offset="0.1875"/><stop stop-opacity="1" stop-color="rgb(62.315369%, 43.257141%, 29.006958%)" offset="0.21875"/><stop stop-opacity="1" stop-color="rgb(62.071228%, 43.034363%, 28.884888%)" offset="0.25"/><stop stop-opacity="1" stop-color="rgb(61.827087%, 42.81311%, 28.762817%)" offset="0.28125"/><stop stop-opacity="1" stop-color="rgb(61.582947%, 42.590332%, 28.640747%)" offset="0.3125"/><stop stop-opacity="1" stop-color="rgb(61.340332%, 42.36908%, 28.520203%)" offset="0.34375"/><stop stop-opacity="1" stop-color="rgb(61.096191%, 42.147827%, 28.398132%)" offset="0.375"/><stop stop-opacity="1" stop-color="rgb(60.852051%, 41.925049%, 28.276062%)" offset="0.40625"/><stop stop-opacity="1" stop-color="rgb(60.60791%, 41.703796%, 28.153992%)" offset="0.4375"/><stop stop-opacity="1" stop-color="rgb(60.365295%, 41.481018%, 28.031921%)" offset="0.46875"/><stop stop-opacity="1" stop-color="rgb(60.121155%, 41.259766%, 27.909851%)" offset="0.5"/><stop stop-opacity="1" stop-color="rgb(59.877014%, 41.038513%, 27.787781%)" offset="0.53125"/><stop stop-opacity="1" stop-color="rgb(59.632874%, 40.815735%, 27.66571%)" offset="0.5625"/><stop stop-opacity="1" stop-color="rgb(59.390259%, 40.594482%, 27.545166%)" offset="0.59375"/><stop stop-opacity="1" stop-color="rgb(59.146118%, 40.371704%, 27.423096%)" offset="0.625"/><stop stop-opacity="1" stop-color="rgb(58.901978%, 40.150452%, 27.301025%)" offset="0.65625"/><stop stop-opacity="1" stop-color="rgb(58.657837%, 39.929199%, 27.178955%)" offset="0.6875"/><stop stop-opacity="1" stop-color="rgb(58.415222%, 39.706421%, 27.056885%)" offset="0.71875"/><stop stop-opacity="1" stop-color="rgb(58.171082%, 39.485168%, 26.934814%)" offset="0.75"/><stop stop-opacity="1" stop-color="rgb(57.926941%, 39.26239%, 26.812744%)" offset="0.78125"/><stop stop-opacity="1" stop-color="rgb(57.6828%, 39.041138%, 26.690674%)" offset="0.8125"/><stop stop-opacity="1" stop-color="rgb(57.440186%, 38.818359%, 26.570129%)" offset="0.84375"/><stop stop-opacity="1" stop-color="rgb(57.196045%, 38.597107%, 26.448059%)" offset="0.875"/><stop stop-opacity="1" stop-color="rgb(56.951904%, 38.375854%, 26.325989%)" offset="0.90625"/><stop stop-opacity="1" stop-color="rgb(56.707764%, 38.153076%, 26.203918%)" offset="0.9375"/><stop stop-opacity="1" stop-color="rgb(56.465149%, 37.931824%, 26.081848%)" offset="0.96875"/><stop stop-opacity="1" stop-color="rgb(56.221008%, 37.709045%, 25.959778%)" offset="1"/></linearGradient><clipPath id="d0c23c7cd4"><path d="M 242 286 L 289 286 L 289 320 L 242 320 Z M 242 286 " clip-rule="nonzero"/></clipPath><clipPath id="923ff8df2c"><path d="M 287.984375 295.769531 C 287.960938 295.898438 287.941406 296.027344 287.90625 296.152344 L 283.585938 313.445312 C 283.371094 314.300781 283.023438 315.097656 282.542969 315.835938 C 282.0625 316.574219 281.476562 317.214844 280.78125 317.753906 C 280.085938 318.296875 279.320312 318.710938 278.484375 318.996094 C 277.652344 319.285156 276.792969 319.425781 275.910156 319.425781 L 255.128906 319.425781 C 254.25 319.425781 253.390625 319.285156 252.558594 318.996094 C 251.722656 318.710938 250.957031 318.296875 250.261719 317.753906 C 249.566406 317.214844 248.980469 316.574219 248.5 315.835938 C 248.019531 315.097656 247.671875 314.300781 247.457031 313.445312 L 243.136719 296.152344 C 243.105469 296.027344 243.082031 295.898438 243.058594 295.769531 C 242.941406 295.199219 242.894531 294.621094 242.90625 294.039062 C 242.921875 293.457031 243 292.882812 243.140625 292.316406 C 243.28125 291.753906 243.484375 291.210938 243.746094 290.6875 C 244.007812 290.167969 244.324219 289.683594 244.695312 289.230469 C 245.066406 288.78125 245.480469 288.375 245.941406 288.015625 C 246.402344 287.660156 246.898438 287.355469 247.425781 287.105469 C 247.953125 286.855469 248.5 286.667969 249.070312 286.539062 C 249.640625 286.414062 250.21875 286.347656 250.800781 286.347656 L 280.242188 286.347656 C 280.828125 286.347656 281.402344 286.410156 281.972656 286.539062 C 282.542969 286.667969 283.09375 286.855469 283.621094 287.101562 C 284.148438 287.351562 284.640625 287.65625 285.101562 288.015625 C 285.5625 288.375 285.980469 288.777344 286.347656 289.230469 C 286.71875 289.679688 287.035156 290.164062 287.296875 290.6875 C 287.5625 291.207031 287.761719 291.75 287.902344 292.316406 C 288.046875 292.882812 288.125 293.457031 288.136719 294.039062 C 288.152344 294.621094 288.101562 295.199219 287.984375 295.769531 Z M 287.984375 295.769531 " clip-rule="nonzero"/></clipPath><linearGradient x1="234.641131" gradientTransform="matrix(0.926471, 0, 0, 0.924941, 25.504923, 33.359589)" y1="291.401" x2="283.490959" gradientUnits="userSpaceOnUse" y2="291.401" id="284e93933a"><stop stop-opacity="1" stop-color="rgb(70.199585%, 31.799316%, 31.799316%)" offset="0"/><stop stop-opacity="1" stop-color="rgb(70.040894%, 31.726074%, 31.726074%)" offset="0.03125"/><stop stop-opacity="1" stop-color="rgb(69.721985%, 31.57959%, 31.57959%)" offset="0.0625"/><stop stop-opacity="1" stop-color="rgb(69.403076%, 31.433105%, 31.433105%)" offset="0.09375"/><stop stop-opacity="1" stop-color="rgb(69.084167%, 31.285095%, 31.285095%)" offset="0.125"/><stop stop-opacity="1" stop-color="rgb(68.765259%, 31.138611%, 31.138611%)" offset="0.15625"/><stop stop-opacity="1" stop-color="rgb(68.44635%, 30.992126%, 30.992126%)" offset="0.1875"/><stop stop-opacity="1" stop-color="rgb(68.127441%, 30.844116%, 30.844116%)" offset="0.21875"/><stop stop-opacity="1" stop-color="rgb(67.808533%, 30.697632%, 30.697632%)" offset="0.25"/><stop stop-opacity="1" stop-color="rgb(67.489624%, 30.551147%, 30.551147%)" offset="0.28125"/><stop stop-opacity="1" stop-color="rgb(67.170715%, 30.404663%, 30.404663%)" offset="0.3125"/><stop stop-opacity="1" stop-color="rgb(66.851807%, 30.256653%, 30.256653%)" offset="0.34375"/><stop stop-opacity="1" stop-color="rgb(66.532898%, 30.110168%, 30.110168%)" offset="0.375"/><stop stop-opacity="1" stop-color="rgb(66.213989%, 29.963684%, 29.963684%)" offset="0.40625"/><stop stop-opacity="1" stop-color="rgb(65.895081%, 29.815674%, 29.815674%)" offset="0.4375"/><stop stop-opacity="1" stop-color="rgb(65.576172%, 29.669189%, 29.669189%)" offset="0.46875"/><stop stop-opacity="1" stop-color="rgb(65.257263%, 29.522705%, 29.522705%)" offset="0.5"/><stop stop-opacity="1" stop-color="rgb(64.938354%, 29.376221%, 29.376221%)" offset="0.53125"/><stop stop-opacity="1" stop-color="rgb(64.619446%, 29.22821%, 29.22821%)" offset="0.5625"/><stop stop-opacity="1" stop-color="rgb(64.302063%, 29.081726%, 29.081726%)" offset="0.59375"/><stop stop-opacity="1" stop-color="rgb(63.983154%, 28.935242%, 28.935242%)" offset="0.625"/><stop stop-opacity="1" stop-color="rgb(63.664246%, 28.787231%, 28.787231%)" offset="0.65625"/><stop stop-opacity="1" stop-color="rgb(63.345337%, 28.640747%, 28.640747%)" offset="0.6875"/><stop stop-opacity="1" stop-color="rgb(63.026428%, 28.494263%, 28.494263%)" offset="0.71875"/><stop stop-opacity="1" stop-color="rgb(62.70752%, 28.347778%, 28.347778%)" offset="0.75"/><stop stop-opacity="1" stop-color="rgb(62.388611%, 28.199768%, 28.199768%)" offset="0.78125"/><stop stop-opacity="1" stop-color="rgb(62.069702%, 28.053284%, 28.053284%)" offset="0.8125"/><stop stop-opacity="1" stop-color="rgb(61.750793%, 27.906799%, 27.906799%)" offset="0.84375"/><stop stop-opacity="1" stop-color="rgb(61.431885%, 27.758789%, 27.758789%)" offset="0.875"/><stop stop-opacity="1" stop-color="rgb(61.112976%, 27.612305%, 27.612305%)" offset="0.90625"/><stop stop-opacity="1" stop-color="rgb(60.794067%, 27.46582%, 27.46582%)" offset="0.9375"/><stop stop-opacity="1" stop-color="rgb(60.475159%, 27.31781%, 27.31781%)" offset="0.96875"/><stop stop-opacity="1" stop-color="rgb(60.157776%, 27.171326%, 27.171326%)" offset="1"/></linearGradient><clipPath id="8fccfdf587"><path d="M 251 291 L 284 291 L 284 317 L 251 317 Z M 251 291 " clip-rule="nonzero"/></clipPath><clipPath id="daa0e2f71e"><path d="M 283.664062 297.574219 L 280.226562 311.347656 C 280.054688 312.027344 279.777344 312.660156 279.394531 313.25 C 279.011719 313.835938 278.542969 314.347656 277.988281 314.777344 C 277.4375 315.210938 276.828125 315.539062 276.164062 315.769531 C 275.5 315.996094 274.816406 316.109375 274.113281 316.109375 L 257.5625 316.109375 C 256.898438 316.113281 256.253906 316.011719 255.625 315.808594 C 254.992188 315.605469 254.410156 315.308594 253.875 314.921875 C 253.339844 314.535156 252.875 314.074219 252.484375 313.542969 C 252.09375 313.007812 251.792969 312.425781 251.585938 311.800781 C 252.769531 312.832031 254.144531 313.34375 255.710938 313.339844 L 272.261719 313.339844 C 272.964844 313.339844 273.648438 313.226562 274.3125 313 C 274.976562 312.769531 275.585938 312.441406 276.140625 312.007812 C 276.695312 311.578125 277.164062 311.066406 277.546875 310.480469 C 277.929688 309.890625 278.207031 309.257812 278.375 308.578125 L 281.816406 294.804688 C 282.117188 293.625 282.074219 292.457031 281.6875 291.304688 C 282.125 291.683594 282.507812 292.117188 282.828125 292.601562 C 283.148438 293.085938 283.394531 293.605469 283.570312 294.160156 C 283.742188 294.710938 283.839844 295.277344 283.855469 295.859375 C 283.871094 296.441406 283.808594 297.011719 283.664062 297.574219 Z M 283.664062 297.574219 " clip-rule="nonzero"/></clipPath><linearGradient x1="244.025591" gradientTransform="matrix(0.926471, 0, 0, 0.924941, 25.504923, 33.359589)" y1="292.28799" x2="278.87233" gradientUnits="userSpaceOnUse" y2="292.28799" id="df3be1cfed"><stop stop-opacity="1" stop-color="rgb(48.999023%, 18.399048%, 18.399048%)" offset="0"/><stop stop-opacity="1" stop-color="rgb(48.867798%, 18.347168%, 18.347168%)" offset="0.015625"/><stop stop-opacity="1" stop-color="rgb(48.605347%, 18.244934%, 18.244934%)" offset="0.03125"/><stop stop-opacity="1" stop-color="rgb(48.342896%, 18.141174%, 18.141174%)" offset="0.046875"/><stop stop-opacity="1" stop-color="rgb(48.080444%, 18.037415%, 18.037415%)" offset="0.0625"/><stop stop-opacity="1" stop-color="rgb(47.817993%, 17.935181%, 17.935181%)" offset="0.078125"/><stop stop-opacity="1" stop-color="rgb(47.555542%, 17.831421%, 17.831421%)" offset="0.09375"/><stop stop-opacity="1" stop-color="rgb(47.293091%, 17.727661%, 17.727661%)" offset="0.109375"/><stop stop-opacity="1" stop-color="rgb(47.029114%, 17.625427%, 17.625427%)" offset="0.125"/><stop stop-opacity="1" stop-color="rgb(46.766663%, 17.521667%, 17.521667%)" offset="0.140625"/><stop stop-opacity="1" stop-color="rgb(46.504211%, 17.419434%, 17.419434%)" offset="0.15625"/><stop stop-opacity="1" stop-color="rgb(46.24176%, 17.315674%, 17.315674%)" offset="0.171875"/><stop stop-opacity="1" stop-color="rgb(45.979309%, 17.211914%, 17.211914%)" offset="0.1875"/><stop stop-opacity="1" stop-color="rgb(45.716858%, 17.10968%, 17.10968%)" offset="0.203125"/><stop stop-opacity="1" stop-color="rgb(45.454407%, 17.00592%, 17.00592%)" offset="0.21875"/><stop stop-opacity="1" stop-color="rgb(45.191956%, 16.903687%, 16.903687%)" offset="0.234375"/><stop stop-opacity="1" stop-color="rgb(44.929504%, 16.799927%, 16.799927%)" offset="0.25"/><stop stop-opacity="1" stop-color="rgb(44.665527%, 16.696167%, 16.696167%)" offset="0.265625"/><stop stop-opacity="1" stop-color="rgb(44.403076%, 16.593933%, 16.593933%)" offset="0.28125"/><stop stop-opacity="1" stop-color="rgb(44.140625%, 16.490173%, 16.490173%)" offset="0.296875"/><stop stop-opacity="1" stop-color="rgb(43.878174%, 16.387939%, 16.387939%)" offset="0.3125"/><stop stop-opacity="1" stop-color="rgb(43.615723%, 16.28418%, 16.28418%)" offset="0.328125"/><stop stop-opacity="1" stop-color="rgb(43.353271%, 16.18042%, 16.18042%)" offset="0.34375"/><stop stop-opacity="1" stop-color="rgb(43.09082%, 16.078186%, 16.078186%)" offset="0.359375"/><stop stop-opacity="1" stop-color="rgb(42.828369%, 15.974426%, 15.974426%)" offset="0.375"/><stop stop-opacity="1" stop-color="rgb(42.565918%, 15.870667%, 15.870667%)" offset="0.390625"/><stop stop-opacity="1" stop-color="rgb(42.303467%, 15.768433%, 15.768433%)" offset="0.40625"/><stop stop-opacity="1" stop-color="rgb(42.03949%, 15.664673%, 15.664673%)" offset="0.421875"/><stop stop-opacity="1" stop-color="rgb(41.777039%, 15.562439%, 15.562439%)" offset="0.4375"/><stop stop-opacity="1" stop-color="rgb(41.514587%, 15.458679%, 15.458679%)" offset="0.453125"/><stop stop-opacity="1" stop-color="rgb(41.252136%, 15.354919%, 15.354919%)" offset="0.46875"/><stop stop-opacity="1" stop-color="rgb(40.989685%, 15.252686%, 15.252686%)" offset="0.484375"/><stop stop-opacity="1" stop-color="rgb(40.727234%, 15.148926%, 15.148926%)" offset="0.5"/><stop stop-opacity="1" stop-color="rgb(40.464783%, 15.046692%, 15.046692%)" offset="0.515625"/><stop stop-opacity="1" stop-color="rgb(40.202332%, 14.942932%, 14.942932%)" offset="0.53125"/><stop stop-opacity="1" stop-color="rgb(39.93988%, 14.839172%, 14.839172%)" offset="0.546875"/><stop stop-opacity="1" stop-color="rgb(39.675903%, 14.736938%, 14.736938%)" offset="0.5625"/><stop stop-opacity="1" stop-color="rgb(39.413452%, 14.633179%, 14.633179%)" offset="0.578125"/><stop stop-opacity="1" stop-color="rgb(39.151001%, 14.530945%, 14.530945%)" offset="0.59375"/><stop stop-opacity="1" stop-color="rgb(38.88855%, 14.427185%, 14.427185%)" offset="0.609375"/><stop stop-opacity="1" stop-color="rgb(38.626099%, 14.323425%, 14.323425%)" offset="0.625"/><stop stop-opacity="1" stop-color="rgb(38.363647%, 14.221191%, 14.221191%)" offset="0.640625"/><stop stop-opacity="1" stop-color="rgb(38.101196%, 14.117432%, 14.117432%)" offset="0.65625"/><stop stop-opacity="1" stop-color="rgb(37.838745%, 14.013672%, 14.013672%)" offset="0.671875"/><stop stop-opacity="1" stop-color="rgb(37.576294%, 13.911438%, 13.911438%)" offset="0.6875"/><stop stop-opacity="1" stop-color="rgb(37.313843%, 13.807678%, 13.807678%)" offset="0.703125"/><stop stop-opacity="1" stop-color="rgb(37.049866%, 13.705444%, 13.705444%)" offset="0.71875"/><stop stop-opacity="1" stop-color="rgb(36.787415%, 13.601685%, 13.601685%)" offset="0.734375"/><stop stop-opacity="1" stop-color="rgb(36.524963%, 13.497925%, 13.497925%)" offset="0.75"/><stop stop-opacity="1" stop-color="rgb(36.262512%, 13.395691%, 13.395691%)" offset="0.765625"/><stop stop-opacity="1" stop-color="rgb(36.000061%, 13.291931%, 13.291931%)" offset="0.78125"/><stop stop-opacity="1" stop-color="rgb(35.73761%, 13.189697%, 13.189697%)" offset="0.796875"/><stop stop-opacity="1" stop-color="rgb(35.475159%, 13.085938%, 13.085938%)" offset="0.8125"/><stop stop-opacity="1" stop-color="rgb(35.212708%, 12.982178%, 12.982178%)" offset="0.828125"/><stop stop-opacity="1" stop-color="rgb(34.950256%, 12.879944%, 12.879944%)" offset="0.84375"/><stop stop-opacity="1" stop-color="rgb(34.687805%, 12.776184%, 12.776184%)" offset="0.859375"/><stop stop-opacity="1" stop-color="rgb(34.423828%, 12.672424%, 12.672424%)" offset="0.875"/><stop stop-opacity="1" stop-color="rgb(34.161377%, 12.57019%, 12.57019%)" offset="0.890625"/><stop stop-opacity="1" stop-color="rgb(33.898926%, 12.466431%, 12.466431%)" offset="0.90625"/><stop stop-opacity="1" stop-color="rgb(33.636475%, 12.364197%, 12.364197%)" offset="0.921875"/><stop stop-opacity="1" stop-color="rgb(33.374023%, 12.260437%, 12.260437%)" offset="0.9375"/><stop stop-opacity="1" stop-color="rgb(33.111572%, 12.156677%, 12.156677%)" offset="0.953125"/><stop stop-opacity="1" stop-color="rgb(32.849121%, 12.054443%, 12.054443%)" offset="0.96875"/><stop stop-opacity="1" stop-color="rgb(32.58667%, 11.950684%, 11.950684%)" offset="0.984375"/><stop stop-opacity="1" stop-color="rgb(32.327271%, 11.849976%, 11.849976%)" offset="1"/></linearGradient><clipPath id="612e8abb2a"><path d="M 240 283 L 291 283 L 291 295 L 240 295 Z M 240 283 " clip-rule="nonzero"/></clipPath><clipPath id="26fee2028c"><path d="M 242.570312 283.746094 L 288.476562 283.746094 C 288.761719 283.746094 289.035156 283.800781 289.296875 283.910156 C 289.5625 284.019531 289.796875 284.175781 289.996094 284.375 C 290.199219 284.578125 290.355469 284.808594 290.464844 285.074219 C 290.574219 285.335938 290.628906 285.609375 290.628906 285.894531 L 290.628906 291.976562 C 290.628906 292.261719 290.574219 292.535156 290.464844 292.800781 C 290.355469 293.0625 290.199219 293.296875 289.996094 293.496094 C 289.796875 293.699219 289.5625 293.855469 289.296875 293.960938 C 289.035156 294.070312 288.761719 294.125 288.476562 294.125 L 242.570312 294.125 C 242.285156 294.125 242.007812 294.070312 241.746094 293.960938 C 241.480469 293.855469 241.25 293.699219 241.046875 293.496094 C 240.84375 293.296875 240.6875 293.0625 240.582031 292.800781 C 240.472656 292.535156 240.417969 292.261719 240.417969 291.976562 L 240.417969 285.894531 C 240.417969 285.609375 240.472656 285.335938 240.582031 285.074219 C 240.6875 284.808594 240.84375 284.578125 241.046875 284.375 C 241.25 284.175781 241.480469 284.019531 241.746094 283.910156 C 242.007812 283.800781 242.285156 283.746094 242.570312 283.746094 Z M 242.570312 283.746094 " clip-rule="nonzero"/></clipPath><linearGradient x1="231.967981" gradientTransform="matrix(0.926471, 0, 0, 0.924941, 25.504923, 33.359589)" y1="276.31699" x2="286.163989" gradientUnits="userSpaceOnUse" y2="276.31699" id="24e63c4336"><stop stop-opacity="1" stop-color="rgb(70.199585%, 31.799316%, 31.799316%)" offset="0"/><stop stop-opacity="1" stop-color="rgb(70.039368%, 31.726074%, 31.726074%)" offset="0.03125"/><stop stop-opacity="1" stop-color="rgb(69.720459%, 31.578064%, 31.578064%)" offset="0.0625"/><stop stop-opacity="1" stop-color="rgb(69.40155%, 31.43158%, 31.43158%)" offset="0.09375"/><stop stop-opacity="1" stop-color="rgb(69.082642%, 31.285095%, 31.285095%)" offset="0.125"/><stop stop-opacity="1" stop-color="rgb(68.763733%, 31.138611%, 31.138611%)" offset="0.15625"/><stop stop-opacity="1" stop-color="rgb(68.444824%, 30.990601%, 30.990601%)" offset="0.1875"/><stop stop-opacity="1" stop-color="rgb(68.127441%, 30.844116%, 30.844116%)" offset="0.21875"/><stop stop-opacity="1" stop-color="rgb(67.808533%, 30.697632%, 30.697632%)" offset="0.25"/><stop stop-opacity="1" stop-color="rgb(67.489624%, 30.551147%, 30.551147%)" offset="0.28125"/><stop stop-opacity="1" stop-color="rgb(67.170715%, 30.403137%, 30.403137%)" offset="0.3125"/><stop stop-opacity="1" stop-color="rgb(66.851807%, 30.256653%, 30.256653%)" offset="0.34375"/><stop stop-opacity="1" stop-color="rgb(66.532898%, 30.110168%, 30.110168%)" offset="0.375"/><stop stop-opacity="1" stop-color="rgb(66.213989%, 29.963684%, 29.963684%)" offset="0.40625"/><stop stop-opacity="1" stop-color="rgb(65.895081%, 29.815674%, 29.815674%)" offset="0.4375"/><stop stop-opacity="1" stop-color="rgb(65.576172%, 29.669189%, 29.669189%)" offset="0.46875"/><stop stop-opacity="1" stop-color="rgb(65.257263%, 29.522705%, 29.522705%)" offset="0.5"/><stop stop-opacity="1" stop-color="rgb(64.93988%, 29.376221%, 29.376221%)" offset="0.53125"/><stop stop-opacity="1" stop-color="rgb(64.620972%, 29.22821%, 29.22821%)" offset="0.5625"/><stop stop-opacity="1" stop-color="rgb(64.302063%, 29.081726%, 29.081726%)" offset="0.59375"/><stop stop-opacity="1" stop-color="rgb(63.983154%, 28.935242%, 28.935242%)" offset="0.625"/><stop stop-opacity="1" stop-color="rgb(63.664246%, 28.788757%, 28.788757%)" offset="0.65625"/><stop stop-opacity="1" stop-color="rgb(63.345337%, 28.640747%, 28.640747%)" offset="0.6875"/><stop stop-opacity="1" stop-color="rgb(63.026428%, 28.494263%, 28.494263%)" offset="0.71875"/><stop stop-opacity="1" stop-color="rgb(62.70752%, 28.347778%, 28.347778%)" offset="0.75"/><stop stop-opacity="1" stop-color="rgb(62.388611%, 28.201294%, 28.201294%)" offset="0.78125"/><stop stop-opacity="1" stop-color="rgb(62.069702%, 28.053284%, 28.053284%)" offset="0.8125"/><stop stop-opacity="1" stop-color="rgb(61.752319%, 27.906799%, 27.906799%)" offset="0.84375"/><stop stop-opacity="1" stop-color="rgb(61.433411%, 27.760315%, 27.760315%)" offset="0.875"/><stop stop-opacity="1" stop-color="rgb(61.114502%, 27.613831%, 27.613831%)" offset="0.90625"/><stop stop-opacity="1" stop-color="rgb(60.795593%, 27.46582%, 27.46582%)" offset="0.9375"/><stop stop-opacity="1" stop-color="rgb(60.476685%, 27.319336%, 27.319336%)" offset="0.96875"/><stop stop-opacity="1" stop-color="rgb(60.157776%, 27.172852%, 27.172852%)" offset="1"/></linearGradient><clipPath id="1da0fa09e5"><path d="M 183 190 L 345.136719 190 L 345.136719 330.75 L 183 330.75 Z M 183 190 " clip-rule="nonzero"/></clipPath><clipPath id="a6348e9459"><path d="M 304.691406 190.664062 L 223.792969 190.664062 L 183.347656 260.597656 L 223.792969 330.542969 L 304.691406 330.542969 L 345.136719 260.597656 Z M 230.949219 318.152344 L 197.671875 260.597656 L 230.949219 203.039062 L 297.519531 203.039062 L 330.8125 260.597656 L 297.519531 318.152344 Z M 230.949219 318.152344 " clip-rule="nonzero"/></clipPath><linearGradient x1="257.685" gradientTransform="matrix(0.926471, 0, 0, 0.924941, 25.504923, 33.359589)" y1="170.070014" x2="257.685" gradientUnits="userSpaceOnUse" y2="321.299993" id="1b47c781b2"><stop stop-opacity="1" stop-color="rgb(63.899231%, 44.699097%, 29.798889%)" offset="0"/><stop stop-opacity="1" stop-color="rgb(63.777161%, 44.587708%, 29.737854%)" offset="0.03125"/><stop stop-opacity="1" stop-color="rgb(63.53302%, 44.366455%, 29.615784%)" offset="0.0625"/><stop stop-opacity="1" stop-color="rgb(63.290405%, 44.143677%, 29.493713%)" offset="0.09375"/><stop stop-opacity="1" stop-color="rgb(63.046265%, 43.922424%, 29.373169%)" offset="0.125"/><stop stop-opacity="1" stop-color="rgb(62.802124%, 43.699646%, 29.251099%)" offset="0.15625"/><stop stop-opacity="1" stop-color="rgb(62.557983%, 43.478394%, 29.129028%)" offset="0.1875"/><stop stop-opacity="1" stop-color="rgb(62.315369%, 43.257141%, 29.006958%)" offset="0.21875"/><stop stop-opacity="1" stop-color="rgb(62.071228%, 43.034363%, 28.884888%)" offset="0.25"/><stop stop-opacity="1" stop-color="rgb(61.827087%, 42.81311%, 28.762817%)" offset="0.28125"/><stop stop-opacity="1" stop-color="rgb(61.582947%, 42.590332%, 28.640747%)" offset="0.3125"/><stop stop-opacity="1" stop-color="rgb(61.340332%, 42.36908%, 28.520203%)" offset="0.34375"/><stop stop-opacity="1" stop-color="rgb(61.096191%, 42.147827%, 28.398132%)" offset="0.375"/><stop stop-opacity="1" stop-color="rgb(60.852051%, 41.925049%, 28.276062%)" offset="0.40625"/><stop stop-opacity="1" stop-color="rgb(60.60791%, 41.703796%, 28.153992%)" offset="0.4375"/><stop stop-opacity="1" stop-color="rgb(60.365295%, 41.481018%, 28.031921%)" offset="0.46875"/><stop stop-opacity="1" stop-color="rgb(60.121155%, 41.259766%, 27.909851%)" offset="0.5"/><stop stop-opacity="1" stop-color="rgb(59.877014%, 41.038513%, 27.787781%)" offset="0.53125"/><stop stop-opacity="1" stop-color="rgb(59.632874%, 40.815735%, 27.66571%)" offset="0.5625"/><stop stop-opacity="1" stop-color="rgb(59.390259%, 40.594482%, 27.545166%)" offset="0.59375"/><stop stop-opacity="1" stop-color="rgb(59.146118%, 40.371704%, 27.423096%)" offset="0.625"/><stop stop-opacity="1" stop-color="rgb(58.901978%, 40.150452%, 27.301025%)" offset="0.65625"/><stop stop-opacity="1" stop-color="rgb(58.657837%, 39.929199%, 27.178955%)" offset="0.6875"/><stop stop-opacity="1" stop-color="rgb(58.415222%, 39.706421%, 27.056885%)" offset="0.71875"/><stop stop-opacity="1" stop-color="rgb(58.171082%, 39.485168%, 26.934814%)" offset="0.75"/><stop stop-opacity="1" stop-color="rgb(57.926941%, 39.26239%, 26.812744%)" offset="0.78125"/><stop stop-opacity="1" stop-color="rgb(57.6828%, 39.041138%, 26.690674%)" offset="0.8125"/><stop stop-opacity="1" stop-color="rgb(57.440186%, 38.818359%, 26.570129%)" offset="0.84375"/><stop stop-opacity="1" stop-color="rgb(57.196045%, 38.597107%, 26.448059%)" offset="0.875"/><stop stop-opacity="1" stop-color="rgb(56.951904%, 38.375854%, 26.325989%)" offset="0.90625"/><stop stop-opacity="1" stop-color="rgb(56.707764%, 38.153076%, 26.203918%)" offset="0.9375"/><stop stop-opacity="1" stop-color="rgb(56.465149%, 37.931824%, 26.081848%)" offset="0.96875"/><stop stop-opacity="1" stop-color="rgb(56.221008%, 37.709045%, 25.959778%)" offset="1"/></linearGradient><clipPath id="641e0e57ab"><path d="M 241 132 L 287 132 L 287 166 L 241 166 Z M 241 132 " clip-rule="nonzero"/></clipPath><clipPath id="29be0b9c7b"><path d="M 286.703125 141.542969 C 286.679688 141.671875 286.65625 141.800781 286.621094 141.925781 L 282.300781 159.21875 C 282.089844 160.074219 281.742188 160.871094 281.261719 161.609375 C 280.78125 162.347656 280.191406 162.988281 279.496094 163.527344 C 278.800781 164.070312 278.035156 164.484375 277.203125 164.769531 C 276.367188 165.058594 275.511719 165.199219 274.628906 165.199219 L 253.847656 165.199219 C 252.964844 165.199219 252.109375 165.058594 251.273438 164.769531 C 250.441406 164.484375 249.675781 164.070312 248.980469 163.527344 C 248.285156 162.988281 247.699219 162.347656 247.214844 161.609375 C 246.734375 160.871094 246.386719 160.074219 246.175781 159.21875 L 241.855469 141.925781 C 241.820312 141.800781 241.796875 141.671875 241.773438 141.542969 C 241.660156 140.972656 241.609375 140.394531 241.625 139.8125 C 241.636719 139.230469 241.714844 138.65625 241.859375 138.089844 C 242 137.527344 242.203125 136.984375 242.464844 136.460938 C 242.726562 135.941406 243.042969 135.457031 243.414062 135.003906 C 243.785156 134.554688 244.199219 134.148438 244.660156 133.789062 C 245.121094 133.433594 245.613281 133.128906 246.140625 132.878906 C 246.667969 132.628906 247.21875 132.441406 247.789062 132.3125 C 248.355469 132.1875 248.933594 132.121094 249.519531 132.121094 L 278.960938 132.121094 C 279.542969 132.121094 280.121094 132.183594 280.691406 132.3125 C 281.261719 132.441406 281.808594 132.628906 282.335938 132.878906 C 282.863281 133.125 283.359375 133.429688 283.820312 133.789062 C 284.28125 134.148438 284.695312 134.550781 285.066406 135.003906 C 285.4375 135.453125 285.753906 135.9375 286.015625 136.460938 C 286.277344 136.980469 286.480469 137.523438 286.621094 138.089844 C 286.761719 138.65625 286.839844 139.230469 286.855469 139.8125 C 286.867188 140.394531 286.816406 140.972656 286.703125 141.542969 Z M 286.703125 141.542969 " clip-rule="nonzero"/></clipPath><linearGradient x1="233.256351" gradientTransform="matrix(0.926471, 0, 0, 0.924941, 25.504923, 33.359589)" y1="124.657997" x2="282.105819" gradientUnits="userSpaceOnUse" y2="124.657997" id="0a7372b700"><stop stop-opacity="1" stop-color="rgb(70.199585%, 31.799316%, 31.799316%)" offset="0"/><stop stop-opacity="1" stop-color="rgb(70.040894%, 31.726074%, 31.726074%)" offset="0.03125"/><stop stop-opacity="1" stop-color="rgb(69.721985%, 31.57959%, 31.57959%)" offset="0.0625"/><stop stop-opacity="1" stop-color="rgb(69.403076%, 31.433105%, 31.433105%)" offset="0.09375"/><stop stop-opacity="1" stop-color="rgb(69.084167%, 31.285095%, 31.285095%)" offset="0.125"/><stop stop-opacity="1" stop-color="rgb(68.765259%, 31.138611%, 31.138611%)" offset="0.15625"/><stop stop-opacity="1" stop-color="rgb(68.44635%, 30.992126%, 30.992126%)" offset="0.1875"/><stop stop-opacity="1" stop-color="rgb(68.127441%, 30.844116%, 30.844116%)" offset="0.21875"/><stop stop-opacity="1" stop-color="rgb(67.808533%, 30.697632%, 30.697632%)" offset="0.25"/><stop stop-opacity="1" stop-color="rgb(67.489624%, 30.551147%, 30.551147%)" offset="0.28125"/><stop stop-opacity="1" stop-color="rgb(67.170715%, 30.404663%, 30.404663%)" offset="0.3125"/><stop stop-opacity="1" stop-color="rgb(66.851807%, 30.256653%, 30.256653%)" offset="0.34375"/><stop stop-opacity="1" stop-color="rgb(66.532898%, 30.110168%, 30.110168%)" offset="0.375"/><stop stop-opacity="1" stop-color="rgb(66.213989%, 29.963684%, 29.963684%)" offset="0.40625"/><stop stop-opacity="1" stop-color="rgb(65.895081%, 29.815674%, 29.815674%)" offset="0.4375"/><stop stop-opacity="1" stop-color="rgb(65.576172%, 29.669189%, 29.669189%)" offset="0.46875"/><stop stop-opacity="1" stop-color="rgb(65.257263%, 29.522705%, 29.522705%)" offset="0.5"/><stop stop-opacity="1" stop-color="rgb(64.938354%, 29.376221%, 29.376221%)" offset="0.53125"/><stop stop-opacity="1" stop-color="rgb(64.619446%, 29.22821%, 29.22821%)" offset="0.5625"/><stop stop-opacity="1" stop-color="rgb(64.300537%, 29.081726%, 29.081726%)" offset="0.59375"/><stop stop-opacity="1" stop-color="rgb(63.981628%, 28.935242%, 28.935242%)" offset="0.625"/><stop stop-opacity="1" stop-color="rgb(63.664246%, 28.787231%, 28.787231%)" offset="0.65625"/><stop stop-opacity="1" stop-color="rgb(63.345337%, 28.640747%, 28.640747%)" offset="0.6875"/><stop stop-opacity="1" stop-color="rgb(63.026428%, 28.494263%, 28.494263%)" offset="0.71875"/><stop stop-opacity="1" stop-color="rgb(62.70752%, 28.347778%, 28.347778%)" offset="0.75"/><stop stop-opacity="1" stop-color="rgb(62.388611%, 28.199768%, 28.199768%)" offset="0.78125"/><stop stop-opacity="1" stop-color="rgb(62.069702%, 28.053284%, 28.053284%)" offset="0.8125"/><stop stop-opacity="1" stop-color="rgb(61.750793%, 27.906799%, 27.906799%)" offset="0.84375"/><stop stop-opacity="1" stop-color="rgb(61.431885%, 27.758789%, 27.758789%)" offset="0.875"/><stop stop-opacity="1" stop-color="rgb(61.112976%, 27.612305%, 27.612305%)" offset="0.90625"/><stop stop-opacity="1" stop-color="rgb(60.794067%, 27.46582%, 27.46582%)" offset="0.9375"/><stop stop-opacity="1" stop-color="rgb(60.475159%, 27.31781%, 27.31781%)" offset="0.96875"/><stop stop-opacity="1" stop-color="rgb(60.157776%, 27.171326%, 27.171326%)" offset="1"/></linearGradient><clipPath id="ed4843d9eb"><path d="M 250 137 L 283 137 L 283 162 L 250 162 Z M 250 137 " clip-rule="nonzero"/></clipPath><clipPath id="b124365c9f"><path d="M 282.382812 143.347656 L 278.941406 157.121094 C 278.769531 157.800781 278.496094 158.433594 278.113281 159.023438 C 277.730469 159.609375 277.261719 160.121094 276.707031 160.550781 C 276.152344 160.984375 275.542969 161.3125 274.878906 161.542969 C 274.214844 161.769531 273.53125 161.882812 272.828125 161.882812 L 256.277344 161.882812 C 255.617188 161.886719 254.96875 161.785156 254.339844 161.582031 C 253.710938 161.378906 253.128906 161.082031 252.589844 160.695312 C 252.054688 160.308594 251.589844 159.847656 251.199219 159.316406 C 250.808594 158.78125 250.511719 158.199219 250.304688 157.574219 C 251.484375 158.605469 252.859375 159.117188 254.429688 159.113281 L 270.980469 159.113281 C 271.683594 159.113281 272.367188 159 273.03125 158.773438 C 273.695312 158.542969 274.304688 158.214844 274.855469 157.78125 C 275.410156 157.351562 275.878906 156.839844 276.261719 156.253906 C 276.644531 155.664062 276.921875 155.03125 277.09375 154.351562 L 280.53125 140.578125 C 280.835938 139.398438 280.792969 138.230469 280.402344 137.078125 C 280.84375 137.457031 281.222656 137.890625 281.542969 138.375 C 281.863281 138.859375 282.109375 139.378906 282.285156 139.933594 C 282.460938 140.484375 282.554688 141.050781 282.574219 141.632812 C 282.589844 142.214844 282.523438 142.785156 282.382812 143.347656 Z M 282.382812 143.347656 " clip-rule="nonzero"/></clipPath><linearGradient x1="242.640391" gradientTransform="matrix(0.926471, 0, 0, 0.924941, 25.504923, 33.359589)" y1="125.544998" x2="277.48714" gradientUnits="userSpaceOnUse" y2="125.544998" id="8585844887"><stop stop-opacity="1" stop-color="rgb(48.999023%, 18.399048%, 18.399048%)" offset="0"/><stop stop-opacity="1" stop-color="rgb(48.867798%, 18.347168%, 18.347168%)" offset="0.015625"/><stop stop-opacity="1" stop-color="rgb(48.605347%, 18.243408%, 18.243408%)" offset="0.03125"/><stop stop-opacity="1" stop-color="rgb(48.342896%, 18.141174%, 18.141174%)" offset="0.046875"/><stop stop-opacity="1" stop-color="rgb(48.080444%, 18.037415%, 18.037415%)" offset="0.0625"/><stop stop-opacity="1" stop-color="rgb(47.817993%, 17.935181%, 17.935181%)" offset="0.078125"/><stop stop-opacity="1" stop-color="rgb(47.554016%, 17.831421%, 17.831421%)" offset="0.09375"/><stop stop-opacity="1" stop-color="rgb(47.291565%, 17.727661%, 17.727661%)" offset="0.109375"/><stop stop-opacity="1" stop-color="rgb(47.029114%, 17.625427%, 17.625427%)" offset="0.125"/><stop stop-opacity="1" stop-color="rgb(46.766663%, 17.521667%, 17.521667%)" offset="0.140625"/><stop stop-opacity="1" stop-color="rgb(46.504211%, 17.419434%, 17.419434%)" offset="0.15625"/><stop stop-opacity="1" stop-color="rgb(46.24176%, 17.315674%, 17.315674%)" offset="0.171875"/><stop stop-opacity="1" stop-color="rgb(45.979309%, 17.211914%, 17.211914%)" offset="0.1875"/><stop stop-opacity="1" stop-color="rgb(45.716858%, 17.10968%, 17.10968%)" offset="0.203125"/><stop stop-opacity="1" stop-color="rgb(45.454407%, 17.00592%, 17.00592%)" offset="0.21875"/><stop stop-opacity="1" stop-color="rgb(45.191956%, 16.903687%, 16.903687%)" offset="0.234375"/><stop stop-opacity="1" stop-color="rgb(44.927979%, 16.799927%, 16.799927%)" offset="0.25"/><stop stop-opacity="1" stop-color="rgb(44.665527%, 16.696167%, 16.696167%)" offset="0.265625"/><stop stop-opacity="1" stop-color="rgb(44.403076%, 16.593933%, 16.593933%)" offset="0.28125"/><stop stop-opacity="1" stop-color="rgb(44.140625%, 16.490173%, 16.490173%)" offset="0.296875"/><stop stop-opacity="1" stop-color="rgb(43.878174%, 16.386414%, 16.386414%)" offset="0.3125"/><stop stop-opacity="1" stop-color="rgb(43.615723%, 16.28418%, 16.28418%)" offset="0.328125"/><stop stop-opacity="1" stop-color="rgb(43.353271%, 16.18042%, 16.18042%)" offset="0.34375"/><stop stop-opacity="1" stop-color="rgb(43.09082%, 16.078186%, 16.078186%)" offset="0.359375"/><stop stop-opacity="1" stop-color="rgb(42.828369%, 15.974426%, 15.974426%)" offset="0.375"/><stop stop-opacity="1" stop-color="rgb(42.565918%, 15.870667%, 15.870667%)" offset="0.390625"/><stop stop-opacity="1" stop-color="rgb(42.301941%, 15.768433%, 15.768433%)" offset="0.40625"/><stop stop-opacity="1" stop-color="rgb(42.03949%, 15.664673%, 15.664673%)" offset="0.421875"/><stop stop-opacity="1" stop-color="rgb(41.777039%, 15.562439%, 15.562439%)" offset="0.4375"/><stop stop-opacity="1" stop-color="rgb(41.514587%, 15.458679%, 15.458679%)" offset="0.453125"/><stop stop-opacity="1" stop-color="rgb(41.252136%, 15.354919%, 15.354919%)" offset="0.46875"/><stop stop-opacity="1" stop-color="rgb(40.989685%, 15.252686%, 15.252686%)" offset="0.484375"/><stop stop-opacity="1" stop-color="rgb(40.727234%, 15.148926%, 15.148926%)" offset="0.5"/><stop stop-opacity="1" stop-color="rgb(40.464783%, 15.046692%, 15.046692%)" offset="0.515625"/><stop stop-opacity="1" stop-color="rgb(40.202332%, 14.942932%, 14.942932%)" offset="0.53125"/><stop stop-opacity="1" stop-color="rgb(39.93988%, 14.839172%, 14.839172%)" offset="0.546875"/><stop stop-opacity="1" stop-color="rgb(39.675903%, 14.736938%, 14.736938%)" offset="0.5625"/><stop stop-opacity="1" stop-color="rgb(39.413452%, 14.633179%, 14.633179%)" offset="0.578125"/><stop stop-opacity="1" stop-color="rgb(39.151001%, 14.529419%, 14.529419%)" offset="0.59375"/><stop stop-opacity="1" stop-color="rgb(38.88855%, 14.427185%, 14.427185%)" offset="0.609375"/><stop stop-opacity="1" stop-color="rgb(38.626099%, 14.323425%, 14.323425%)" offset="0.625"/><stop stop-opacity="1" stop-color="rgb(38.363647%, 14.221191%, 14.221191%)" offset="0.640625"/><stop stop-opacity="1" stop-color="rgb(38.101196%, 14.117432%, 14.117432%)" offset="0.65625"/><stop stop-opacity="1" stop-color="rgb(37.838745%, 14.013672%, 14.013672%)" offset="0.671875"/><stop stop-opacity="1" stop-color="rgb(37.576294%, 13.911438%, 13.911438%)" offset="0.6875"/><stop stop-opacity="1" stop-color="rgb(37.313843%, 13.807678%, 13.807678%)" offset="0.703125"/><stop stop-opacity="1" stop-color="rgb(37.049866%, 13.705444%, 13.705444%)" offset="0.71875"/><stop stop-opacity="1" stop-color="rgb(36.787415%, 13.601685%, 13.601685%)" offset="0.734375"/><stop stop-opacity="1" stop-color="rgb(36.524963%, 13.497925%, 13.497925%)" offset="0.75"/><stop stop-opacity="1" stop-color="rgb(36.262512%, 13.395691%, 13.395691%)" offset="0.765625"/><stop stop-opacity="1" stop-color="rgb(36.000061%, 13.291931%, 13.291931%)" offset="0.78125"/><stop stop-opacity="1" stop-color="rgb(35.73761%, 13.189697%, 13.189697%)" offset="0.796875"/><stop stop-opacity="1" stop-color="rgb(35.475159%, 13.085938%, 13.085938%)" offset="0.8125"/><stop stop-opacity="1" stop-color="rgb(35.212708%, 12.982178%, 12.982178%)" offset="0.828125"/><stop stop-opacity="1" stop-color="rgb(34.950256%, 12.879944%, 12.879944%)" offset="0.84375"/><stop stop-opacity="1" stop-color="rgb(34.687805%, 12.776184%, 12.776184%)" offset="0.859375"/><stop stop-opacity="1" stop-color="rgb(34.423828%, 12.672424%, 12.672424%)" offset="0.875"/><stop stop-opacity="1" stop-color="rgb(34.161377%, 12.57019%, 12.57019%)" offset="0.890625"/><stop stop-opacity="1" stop-color="rgb(33.898926%, 12.466431%, 12.466431%)" offset="0.90625"/><stop stop-opacity="1" stop-color="rgb(33.636475%, 12.364197%, 12.364197%)" offset="0.921875"/><stop stop-opacity="1" stop-color="rgb(33.374023%, 12.260437%, 12.260437%)" offset="0.9375"/><stop stop-opacity="1" stop-color="rgb(33.111572%, 12.156677%, 12.156677%)" offset="0.953125"/><stop stop-opacity="1" stop-color="rgb(32.849121%, 12.054443%, 12.054443%)" offset="0.96875"/><stop stop-opacity="1" stop-color="rgb(32.58667%, 11.950684%, 11.950684%)" offset="0.984375"/><stop stop-opacity="1" stop-color="rgb(32.327271%, 11.849976%, 11.849976%)" offset="1"/></linearGradient><clipPath id="76f4f1bb39"><path d="M 239 129 L 290 129 L 290 140 L 239 140 Z M 239 129 " clip-rule="nonzero"/></clipPath><clipPath id="1a55b95b02"><path d="M 241.285156 129.519531 L 287.191406 129.519531 C 287.476562 129.519531 287.753906 129.574219 288.015625 129.683594 C 288.28125 129.792969 288.511719 129.949219 288.714844 130.148438 C 288.914062 130.351562 289.070312 130.582031 289.179688 130.847656 C 289.289062 131.109375 289.34375 131.382812 289.34375 131.667969 L 289.34375 137.75 C 289.34375 138.035156 289.289062 138.308594 289.179688 138.574219 C 289.070312 138.835938 288.914062 139.070312 288.714844 139.269531 C 288.511719 139.472656 288.28125 139.628906 288.015625 139.734375 C 287.753906 139.84375 287.476562 139.898438 287.191406 139.898438 L 241.285156 139.898438 C 241 139.898438 240.726562 139.84375 240.460938 139.734375 C 240.199219 139.628906 239.964844 139.472656 239.761719 139.269531 C 239.5625 139.070312 239.40625 138.835938 239.296875 138.574219 C 239.1875 138.308594 239.132812 138.035156 239.132812 137.75 L 239.132812 131.667969 C 239.132812 131.382812 239.1875 131.109375 239.296875 130.847656 C 239.40625 130.582031 239.5625 130.351562 239.761719 130.148438 C 239.964844 129.949219 240.199219 129.792969 240.460938 129.683594 C 240.726562 129.574219 241 129.519531 241.285156 129.519531 Z M 241.285156 129.519531 " clip-rule="nonzero"/></clipPath><linearGradient x1="230.582971" gradientTransform="matrix(0.926471, 0, 0, 0.924941, 25.504923, 33.359589)" y1="109.573997" x2="284.778979" gradientUnits="userSpaceOnUse" y2="109.573997" id="20e8c106b3"><stop stop-opacity="1" stop-color="rgb(70.199585%, 31.799316%, 31.799316%)" offset="0"/><stop stop-opacity="1" stop-color="rgb(70.039368%, 31.726074%, 31.726074%)" offset="0.03125"/><stop stop-opacity="1" stop-color="rgb(69.720459%, 31.578064%, 31.578064%)" offset="0.0625"/><stop stop-opacity="1" stop-color="rgb(69.40155%, 31.43158%, 31.43158%)" offset="0.09375"/><stop stop-opacity="1" stop-color="rgb(69.082642%, 31.285095%, 31.285095%)" offset="0.125"/><stop stop-opacity="1" stop-color="rgb(68.763733%, 31.138611%, 31.138611%)" offset="0.15625"/><stop stop-opacity="1" stop-color="rgb(68.444824%, 30.990601%, 30.990601%)" offset="0.1875"/><stop stop-opacity="1" stop-color="rgb(68.127441%, 30.844116%, 30.844116%)" offset="0.21875"/><stop stop-opacity="1" stop-color="rgb(67.808533%, 30.697632%, 30.697632%)" offset="0.25"/><stop stop-opacity="1" stop-color="rgb(67.489624%, 30.551147%, 30.551147%)" offset="0.28125"/><stop stop-opacity="1" stop-color="rgb(67.170715%, 30.403137%, 30.403137%)" offset="0.3125"/><stop stop-opacity="1" stop-color="rgb(66.851807%, 30.256653%, 30.256653%)" offset="0.34375"/><stop stop-opacity="1" stop-color="rgb(66.532898%, 30.110168%, 30.110168%)" offset="0.375"/><stop stop-opacity="1" stop-color="rgb(66.213989%, 29.963684%, 29.963684%)" offset="0.40625"/><stop stop-opacity="1" stop-color="rgb(65.895081%, 29.815674%, 29.815674%)" offset="0.4375"/><stop stop-opacity="1" stop-color="rgb(65.576172%, 29.669189%, 29.669189%)" offset="0.46875"/><stop stop-opacity="1" stop-color="rgb(65.257263%, 29.522705%, 29.522705%)" offset="0.5"/><stop stop-opacity="1" stop-color="rgb(64.93988%, 29.376221%, 29.376221%)" offset="0.53125"/><stop stop-opacity="1" stop-color="rgb(64.620972%, 29.22821%, 29.22821%)" offset="0.5625"/><stop stop-opacity="1" stop-color="rgb(64.302063%, 29.081726%, 29.081726%)" offset="0.59375"/><stop stop-opacity="1" stop-color="rgb(63.983154%, 28.935242%, 28.935242%)" offset="0.625"/><stop stop-opacity="1" stop-color="rgb(63.664246%, 28.788757%, 28.788757%)" offset="0.65625"/><stop stop-opacity="1" stop-color="rgb(63.345337%, 28.640747%, 28.640747%)" offset="0.6875"/><stop stop-opacity="1" stop-color="rgb(63.026428%, 28.494263%, 28.494263%)" offset="0.71875"/><stop stop-opacity="1" stop-color="rgb(62.70752%, 28.347778%, 28.347778%)" offset="0.75"/><stop stop-opacity="1" stop-color="rgb(62.388611%, 28.201294%, 28.201294%)" offset="0.78125"/><stop stop-opacity="1" stop-color="rgb(62.069702%, 28.053284%, 28.053284%)" offset="0.8125"/><stop stop-opacity="1" stop-color="rgb(61.752319%, 27.906799%, 27.906799%)" offset="0.84375"/><stop stop-opacity="1" stop-color="rgb(61.433411%, 27.760315%, 27.760315%)" offset="0.875"/><stop stop-opacity="1" stop-color="rgb(61.114502%, 27.613831%, 27.613831%)" offset="0.90625"/><stop stop-opacity="1" stop-color="rgb(60.795593%, 27.46582%, 27.46582%)" offset="0.9375"/><stop stop-opacity="1" stop-color="rgb(60.476685%, 27.319336%, 27.319336%)" offset="0.96875"/><stop stop-opacity="1" stop-color="rgb(60.157776%, 27.172852%, 27.172852%)" offset="1"/></linearGradient><clipPath id="773726612a"><path d="M 183 37.5 L 345.136719 37.5 L 345.136719 178 L 183 178 Z M 183 37.5 " clip-rule="nonzero"/></clipPath><clipPath id="cdb01c9ca0"><path d="M 304.691406 37.707031 L 223.792969 37.707031 L 183.347656 107.640625 L 223.796875 177.585938 L 304.691406 177.585938 L 345.136719 107.640625 Z M 230.949219 165.195312 L 197.671875 107.640625 L 230.949219 50.082031 L 297.519531 50.082031 L 330.8125 107.640625 L 297.519531 165.195312 Z M 230.949219 165.195312 " clip-rule="nonzero"/></clipPath><linearGradient x1="257.685" gradientTransform="matrix(0.926471, 0, 0, 0.924941, 25.504923, 33.359589)" y1="4.700006" x2="257.685" gradientUnits="userSpaceOnUse" y2="155.930501" id="43cc7a7d58"><stop stop-opacity="1" stop-color="rgb(63.899231%, 44.699097%, 29.798889%)" offset="0"/><stop stop-opacity="1" stop-color="rgb(63.777161%, 44.587708%, 29.737854%)" offset="0.03125"/><stop stop-opacity="1" stop-color="rgb(63.53302%, 44.366455%, 29.615784%)" offset="0.0625"/><stop stop-opacity="1" stop-color="rgb(63.290405%, 44.143677%, 29.493713%)" offset="0.09375"/><stop stop-opacity="1" stop-color="rgb(63.046265%, 43.922424%, 29.373169%)" offset="0.125"/><stop stop-opacity="1" stop-color="rgb(62.802124%, 43.699646%, 29.251099%)" offset="0.15625"/><stop stop-opacity="1" stop-color="rgb(62.557983%, 43.478394%, 29.129028%)" offset="0.1875"/><stop stop-opacity="1" stop-color="rgb(62.315369%, 43.257141%, 29.006958%)" offset="0.21875"/><stop stop-opacity="1" stop-color="rgb(62.071228%, 43.034363%, 28.884888%)" offset="0.25"/><stop stop-opacity="1" stop-color="rgb(61.827087%, 42.81311%, 28.762817%)" offset="0.28125"/><stop stop-opacity="1" stop-color="rgb(61.582947%, 42.590332%, 28.640747%)" offset="0.3125"/><stop stop-opacity="1" stop-color="rgb(61.340332%, 42.36908%, 28.520203%)" offset="0.34375"/><stop stop-opacity="1" stop-color="rgb(61.096191%, 42.147827%, 28.398132%)" offset="0.375"/><stop stop-opacity="1" stop-color="rgb(60.852051%, 41.925049%, 28.276062%)" offset="0.40625"/><stop stop-opacity="1" stop-color="rgb(60.60791%, 41.703796%, 28.153992%)" offset="0.4375"/><stop stop-opacity="1" stop-color="rgb(60.365295%, 41.481018%, 28.031921%)" offset="0.46875"/><stop stop-opacity="1" stop-color="rgb(60.121155%, 41.259766%, 27.909851%)" offset="0.5"/><stop stop-opacity="1" stop-color="rgb(59.877014%, 41.038513%, 27.787781%)" offset="0.53125"/><stop stop-opacity="1" stop-color="rgb(59.632874%, 40.815735%, 27.66571%)" offset="0.5625"/><stop stop-opacity="1" stop-color="rgb(59.390259%, 40.594482%, 27.545166%)" offset="0.59375"/><stop stop-opacity="1" stop-color="rgb(59.146118%, 40.371704%, 27.423096%)" offset="0.625"/><stop stop-opacity="1" stop-color="rgb(58.901978%, 40.150452%, 27.301025%)" offset="0.65625"/><stop stop-opacity="1" stop-color="rgb(58.657837%, 39.929199%, 27.178955%)" offset="0.6875"/><stop stop-opacity="1" stop-color="rgb(58.415222%, 39.706421%, 27.056885%)" offset="0.71875"/><stop stop-opacity="1" stop-color="rgb(58.171082%, 39.485168%, 26.934814%)" offset="0.75"/><stop stop-opacity="1" stop-color="rgb(57.926941%, 39.26239%, 26.812744%)" offset="0.78125"/><stop stop-opacity="1" stop-color="rgb(57.6828%, 39.041138%, 26.690674%)" offset="0.8125"/><stop stop-opacity="1" stop-color="rgb(57.440186%, 38.818359%, 26.570129%)" offset="0.84375"/><stop stop-opacity="1" stop-color="rgb(57.196045%, 38.597107%, 26.448059%)" offset="0.875"/><stop stop-opacity="1" stop-color="rgb(56.951904%, 38.375854%, 26.325989%)" offset="0.90625"/><stop stop-opacity="1" stop-color="rgb(56.707764%, 38.153076%, 26.203918%)" offset="0.9375"/><stop stop-opacity="1" stop-color="rgb(56.465149%, 37.931824%, 26.081848%)" offset="0.96875"/><stop stop-opacity="1" stop-color="rgb(56.221008%, 37.709045%, 25.959778%)" offset="1"/></linearGradient></defs><path fill="#3b8366" d="M 114.769531 178.734375 L 114.082031 192.363281 L 113.222656 209.371094 L 96.554688 209.371094 L 95.464844 187.726562 L 95.007812 178.734375 C 94.59375 170.625 99.144531 163.742188 104.886719 163.742188 C 110.632812 163.742188 115.183594 170.625 114.769531 178.734375 Z M 114.769531 178.734375 " fill-opacity="1" fill-rule="nonzero"/><path fill="#306b53" d="M 114.082031 192.363281 L 113.222656 209.371094 L 96.554688 209.371094 L 95.464844 187.726562 C 98.003906 189.316406 100.714844 190.507812 103.605469 191.304688 C 106.492188 192.101562 109.433594 192.46875 112.425781 192.40625 C 112.992188 192.40625 113.542969 192.390625 114.082031 192.363281 Z M 114.082031 192.363281 " fill-opacity="1" fill-rule="nonzero"/><path fill="#24523f" d="M 104.890625 163.734375 C 101.332031 163.734375 98.515625 170.628906 98.769531 178.734375 L 99.726562 209.367188 L 110.058594 209.367188 L 111.011719 178.734375 C 111.265625 170.628906 108.453125 163.734375 104.890625 163.734375 Z M 104.890625 163.734375 " fill-opacity="1" fill-rule="nonzero"/><path fill="#3b8366" d="M 107.308594 178.734375 L 107.109375 195.101562 L 106.925781 209.371094 L 102.851562 209.371094 L 102.667969 194.089844 L 102.46875 178.734375 C 102.375 170.625 103.480469 163.742188 104.886719 163.742188 C 106.296875 163.742188 107.417969 170.625 107.308594 178.734375 Z M 107.308594 178.734375 " fill-opacity="1" fill-rule="nonzero"/><path fill="#306b53" d="M 107.109375 195.101562 L 106.925781 209.371094 L 102.851562 209.371094 L 102.667969 194.089844 C 104.121094 194.542969 105.601562 194.878906 107.109375 195.101562 Z M 107.109375 195.101562 " fill-opacity="1" fill-rule="nonzero"/><path fill="#3b8366" d="M 127.546875 190.96875 L 127.042969 198.066406 L 126.230469 209.371094 L 112.058594 209.371094 L 111.523438 201.984375 L 110.742188 190.96875 C 110.699219 190.394531 110.71875 189.820312 110.796875 189.246094 C 110.871094 188.675781 111.007812 188.117188 111.199219 187.570312 C 111.394531 187.027344 111.636719 186.507812 111.9375 186.015625 C 112.238281 185.519531 112.585938 185.0625 112.980469 184.640625 C 113.375 184.214844 113.804688 183.839844 114.277344 183.503906 C 114.75 183.171875 115.253906 182.890625 115.78125 182.660156 C 116.3125 182.429688 116.859375 182.253906 117.425781 182.136719 C 117.992188 182.019531 118.566406 181.960938 119.144531 181.960938 C 119.722656 181.960938 120.296875 182.019531 120.863281 182.136719 C 121.429688 182.253906 121.976562 182.429688 122.507812 182.660156 C 123.039062 182.890625 123.539062 183.171875 124.011719 183.503906 C 124.484375 183.839844 124.917969 184.214844 125.308594 184.640625 C 125.703125 185.0625 126.050781 185.519531 126.351562 186.015625 C 126.652344 186.507812 126.898438 187.027344 127.089844 187.570312 C 127.28125 188.117188 127.417969 188.675781 127.492188 189.246094 C 127.570312 189.820312 127.589844 190.394531 127.546875 190.96875 Z M 127.546875 190.96875 " fill-opacity="1" fill-rule="nonzero"/><path fill="#306b53" d="M 127.042969 198.066406 L 126.230469 209.371094 L 112.058594 209.371094 L 111.523438 201.984375 C 116.96875 201.761719 122.144531 200.457031 127.042969 198.066406 Z M 127.042969 198.066406 " fill-opacity="1" fill-rule="nonzero"/><path fill="#24523f" d="M 119.144531 181.960938 C 116.675781 181.960938 114.722656 186.101562 114.898438 190.972656 L 115.5625 209.367188 L 122.730469 209.367188 L 123.394531 190.972656 C 123.570312 186.101562 121.617188 181.960938 119.144531 181.960938 Z M 119.144531 181.960938 " fill-opacity="1" fill-rule="nonzero"/><path fill="#3b8366" d="M 121.097656 190.96875 L 120.945312 200.421875 L 120.792969 209.371094 L 117.496094 209.371094 L 117.359375 201.277344 L 117.191406 190.96875 C 117.113281 186.105469 118.003906 181.960938 119.152344 181.960938 C 120.285156 181.960938 121.175781 186.105469 121.097656 190.96875 Z M 121.097656 190.96875 " fill-opacity="1" fill-rule="nonzero"/><path fill="#306b53" d="M 120.945312 200.421875 L 120.792969 209.371094 L 117.496094 209.371094 L 117.359375 201.277344 C 118.570312 201.058594 119.765625 200.773438 120.945312 200.421875 Z M 120.945312 200.421875 " fill-opacity="1" fill-rule="nonzero"/><g clip-path="url(#b891a1a518)"><g clip-path="url(#97cf63b4dd)"><path fill="url(#4367742ade)" d="M 87.59375 208.402344 L 87.59375 241.484375 L 132.851562 241.484375 L 132.851562 208.402344 Z M 87.59375 208.402344 " fill-rule="nonzero"/></g></g><path fill="#853d3d" d="M 128.363281 219.628906 L 124.925781 233.402344 C 124.753906 234.085938 124.476562 234.71875 124.09375 235.304688 C 123.710938 235.894531 123.242188 236.402344 122.6875 236.835938 C 122.136719 237.265625 121.527344 237.597656 120.863281 237.824219 C 120.199219 238.054688 119.515625 238.167969 118.8125 238.167969 L 102.261719 238.167969 C 101.558594 238.167969 100.875 238.054688 100.210938 237.824219 C 99.546875 237.597656 98.9375 237.265625 98.382812 236.835938 C 97.828125 236.402344 97.359375 235.894531 96.976562 235.304688 C 96.59375 234.71875 96.316406 234.085938 96.148438 233.402344 L 94.984375 228.742188 C 96.058594 229.492188 97.25 229.863281 98.5625 229.859375 L 115.113281 229.859375 C 115.816406 229.859375 116.5 229.746094 117.164062 229.515625 C 117.828125 229.289062 118.4375 228.957031 118.988281 228.527344 C 119.542969 228.097656 120.011719 227.585938 120.394531 227 C 120.777344 226.410156 121.054688 225.777344 121.226562 225.097656 L 124.441406 212.207031 C 124.804688 212.339844 125.148438 212.507812 125.480469 212.703125 C 125.8125 212.898438 126.121094 213.125 126.410156 213.375 C 126.699219 213.628906 126.960938 213.90625 127.199219 214.207031 C 127.4375 214.507812 127.648438 214.832031 127.828125 215.167969 C 128.007812 215.507812 128.152344 215.863281 128.269531 216.230469 C 128.382812 216.59375 128.464844 216.96875 128.507812 217.351562 C 128.554688 217.730469 128.566406 218.113281 128.542969 218.496094 C 128.515625 218.878906 128.457031 219.257812 128.363281 219.628906 Z M 128.363281 219.628906 " fill-opacity="1" fill-rule="nonzero"/><g clip-path="url(#f390753e7d)"><g clip-path="url(#6b5aa74c4d)"><path fill="url(#1d45e43589)" d="M 96.285156 213.363281 L 96.285156 238.167969 L 128.570312 238.167969 L 128.570312 213.363281 Z M 96.285156 213.363281 " fill-rule="nonzero"/></g></g><path fill="#853d3d" d="M 132.683594 217.828125 C 131.894531 218.277344 131.042969 218.503906 130.128906 218.5 L 90.308594 218.5 C 89.398438 218.503906 88.546875 218.277344 87.757812 217.828125 C 87.640625 217.257812 87.59375 216.679688 87.605469 216.097656 C 87.621094 215.511719 87.699219 214.941406 87.839844 214.375 C 87.980469 213.808594 88.183594 213.265625 88.445312 212.746094 C 88.707031 212.222656 89.023438 211.738281 89.394531 211.289062 C 89.765625 210.835938 90.179688 210.433594 90.640625 210.074219 C 91.101562 209.714844 91.59375 209.410156 92.125 209.160156 C 92.652344 208.914062 93.199219 208.722656 93.769531 208.597656 C 94.339844 208.46875 94.914062 208.40625 95.5 208.40625 L 124.941406 208.40625 C 125.527344 208.402344 126.101562 208.46875 126.671875 208.59375 C 127.242188 208.722656 127.792969 208.910156 128.320312 209.160156 C 128.847656 209.410156 129.339844 209.710938 129.800781 210.070312 C 130.261719 210.429688 130.679688 210.835938 131.046875 211.285156 C 131.417969 211.738281 131.734375 212.222656 131.996094 212.742188 C 132.261719 213.265625 132.460938 213.808594 132.601562 214.375 C 132.746094 214.9375 132.824219 215.511719 132.835938 216.097656 C 132.851562 216.679688 132.800781 217.257812 132.683594 217.828125 Z M 132.683594 217.828125 " fill-opacity="1" fill-rule="nonzero"/><g clip-path="url(#d242d11426)"><g clip-path="url(#395909e1e1)"><path fill="url(#ffa370edd3)" d="M 85.117188 205.804688 L 85.117188 216.183594 L 135.328125 216.183594 L 135.328125 205.804688 Z M 85.117188 205.804688 " fill-rule="nonzero"/></g></g><path fill="#853d3d" d="M 132.839844 211.023438 C 132.824219 211.527344 132.695312 211.996094 132.453125 212.4375 C 132.214844 212.878906 131.886719 213.238281 131.472656 213.523438 C 130.480469 214.230469 129.375 214.574219 128.160156 214.558594 L 92.304688 214.558594 C 90.195312 214.558594 88.40625 213.5 87.832031 212.042969 C 88.273438 212.144531 88.71875 212.195312 89.167969 212.191406 L 125.023438 212.191406 C 126.242188 212.210938 127.34375 211.863281 128.335938 211.160156 C 128.75 210.875 129.078125 210.511719 129.320312 210.070312 C 129.558594 209.632812 129.6875 209.160156 129.707031 208.660156 C 129.703125 208.308594 129.636719 207.96875 129.507812 207.644531 C 131.429688 208.085938 132.839844 209.433594 132.839844 211.023438 Z M 132.839844 211.023438 " fill-opacity="1" fill-rule="nonzero"/><g clip-path="url(#9ca164e455)"><g clip-path="url(#fb35413ec4)"><path fill="url(#dc3cb9e156)" d="M 30.136719 114.183594 L 30.136719 254.066406 L 191.925781 254.066406 L 191.925781 114.183594 Z M 30.136719 114.183594 " fill-rule="nonzero"/></g></g><path fill="#784b2f" d="M 146.5 122.78125 L 75.546875 122.78125 L 40.082031 184.117188 L 75.546875 245.453125 L 146.5 245.453125 L 181.96875 184.117188 Z M 144.308594 241.675781 L 77.738281 241.675781 L 44.460938 184.117188 L 77.738281 126.558594 L 144.308594 126.558594 L 177.601562 184.117188 Z M 144.308594 241.675781 " fill-opacity="1" fill-rule="nonzero"/><path fill="#3b8366" d="M 270.070312 256.675781 L 269.382812 270.304688 L 268.523438 287.3125 L 251.855469 287.3125 L 250.765625 265.671875 L 250.308594 256.675781 C 249.894531 248.570312 254.445312 241.6875 260.191406 241.6875 C 265.933594 241.6875 270.484375 248.570312 270.070312 256.675781 Z M 270.070312 256.675781 " fill-opacity="1" fill-rule="nonzero"/><path fill="#306b53" d="M 269.382812 270.304688 L 268.523438 287.3125 L 251.855469 287.3125 L 250.765625 265.671875 C 253.304688 267.257812 256.019531 268.449219 258.90625 269.246094 C 261.792969 270.042969 264.734375 270.410156 267.726562 270.351562 C 268.292969 270.351562 268.847656 270.335938 269.382812 270.304688 Z M 269.382812 270.304688 " fill-opacity="1" fill-rule="nonzero"/><path fill="#24523f" d="M 260.191406 241.679688 C 256.632812 241.679688 253.816406 248.574219 254.070312 256.679688 L 255.027344 287.308594 L 265.359375 287.308594 L 266.316406 256.679688 C 266.566406 248.574219 263.753906 241.679688 260.191406 241.679688 Z M 260.191406 241.679688 " fill-opacity="1" fill-rule="nonzero"/><path fill="#3b8366" d="M 262.609375 256.675781 L 262.410156 273.042969 L 262.226562 287.3125 L 258.152344 287.3125 L 257.96875 272.035156 L 257.769531 256.675781 C 257.675781 248.570312 258.78125 241.6875 260.191406 241.6875 C 261.597656 241.6875 262.71875 248.570312 262.609375 256.675781 Z M 262.609375 256.675781 " fill-opacity="1" fill-rule="nonzero"/><path fill="#306b53" d="M 262.410156 273.042969 L 262.226562 287.3125 L 258.152344 287.3125 L 257.96875 272.035156 C 259.421875 272.488281 260.902344 272.824219 262.410156 273.042969 Z M 262.410156 273.042969 " fill-opacity="1" fill-rule="nonzero"/><path fill="#3b8366" d="M 282.847656 268.914062 L 282.34375 276.011719 L 281.53125 287.3125 L 267.359375 287.3125 L 266.824219 279.925781 L 266.042969 268.914062 C 266 268.335938 266.019531 267.761719 266.097656 267.191406 C 266.175781 266.617188 266.308594 266.058594 266.5 265.515625 C 266.695312 264.972656 266.941406 264.453125 267.238281 263.957031 C 267.539062 263.464844 267.886719 263.003906 268.28125 262.582031 C 268.675781 262.160156 269.109375 261.78125 269.582031 261.449219 C 270.050781 261.113281 270.554688 260.832031 271.082031 260.601562 C 271.613281 260.371094 272.164062 260.199219 272.730469 260.082031 C 273.296875 259.960938 273.867188 259.902344 274.445312 259.902344 C 275.023438 259.902344 275.597656 259.960938 276.164062 260.082031 C 276.730469 260.199219 277.277344 260.371094 277.808594 260.601562 C 278.339844 260.832031 278.839844 261.113281 279.3125 261.449219 C 279.785156 261.78125 280.21875 262.160156 280.613281 262.582031 C 281.007812 263.003906 281.351562 263.464844 281.652344 263.957031 C 281.953125 264.453125 282.199219 264.972656 282.390625 265.515625 C 282.582031 266.058594 282.71875 266.617188 282.796875 267.191406 C 282.871094 267.761719 282.890625 268.335938 282.851562 268.914062 Z M 282.847656 268.914062 " fill-opacity="1" fill-rule="nonzero"/><path fill="#306b53" d="M 282.34375 276.011719 L 281.53125 287.3125 L 267.359375 287.3125 L 266.824219 279.925781 C 272.273438 279.703125 277.445312 278.398438 282.34375 276.011719 Z M 282.34375 276.011719 " fill-opacity="1" fill-rule="nonzero"/><path fill="#24523f" d="M 274.449219 259.90625 C 271.976562 259.90625 270.023438 264.046875 270.199219 268.914062 L 270.863281 287.308594 L 278.03125 287.308594 L 278.695312 268.914062 C 278.871094 264.046875 276.917969 259.90625 274.449219 259.90625 Z M 274.449219 259.90625 " fill-opacity="1" fill-rule="nonzero"/><path fill="#3b8366" d="M 276.398438 268.914062 L 276.246094 278.367188 L 276.09375 287.3125 L 272.796875 287.3125 L 272.660156 279.222656 L 272.492188 268.914062 C 272.414062 264.050781 273.304688 259.90625 274.453125 259.90625 C 275.585938 259.902344 276.476562 264.050781 276.398438 268.914062 Z M 276.398438 268.914062 " fill-opacity="1" fill-rule="nonzero"/><path fill="#306b53" d="M 276.246094 278.367188 L 276.09375 287.3125 L 272.796875 287.3125 L 272.660156 279.222656 C 273.871094 279 275.066406 278.714844 276.246094 278.367188 Z M 276.246094 278.367188 " fill-opacity="1" fill-rule="nonzero"/><g clip-path="url(#d0c23c7cd4)"><g clip-path="url(#923ff8df2c)"><path fill="url(#284e93933a)" d="M 242.894531 286.347656 L 242.894531 319.425781 L 288.152344 319.425781 L 288.152344 286.347656 Z M 242.894531 286.347656 " fill-rule="nonzero"/></g></g><path fill="#853d3d" d="M 283.664062 297.574219 L 280.226562 311.347656 C 280.054688 312.027344 279.777344 312.660156 279.394531 313.25 C 279.011719 313.835938 278.542969 314.347656 277.988281 314.777344 C 277.4375 315.210938 276.828125 315.539062 276.164062 315.769531 C 275.5 315.996094 274.816406 316.109375 274.113281 316.109375 L 257.5625 316.109375 C 256.859375 316.109375 256.175781 315.996094 255.511719 315.769531 C 254.847656 315.539062 254.238281 315.210938 253.683594 314.777344 C 253.128906 314.347656 252.660156 313.835938 252.277344 313.25 C 251.894531 312.660156 251.621094 312.027344 251.449219 311.347656 L 250.285156 306.6875 C 251.359375 307.433594 252.550781 307.808594 253.863281 307.804688 L 270.414062 307.804688 C 271.117188 307.800781 271.800781 307.6875 272.464844 307.460938 C 273.128906 307.230469 273.738281 306.902344 274.289062 306.472656 C 274.84375 306.039062 275.3125 305.53125 275.695312 304.941406 C 276.078125 304.355469 276.355469 303.71875 276.527344 303.039062 L 279.746094 290.152344 C 280.105469 290.285156 280.449219 290.449219 280.78125 290.644531 C 281.113281 290.84375 281.421875 291.066406 281.710938 291.320312 C 282 291.574219 282.265625 291.851562 282.503906 292.152344 C 282.742188 292.453125 282.949219 292.773438 283.128906 293.113281 C 283.308594 293.453125 283.457031 293.804688 283.570312 294.171875 C 283.683594 294.539062 283.765625 294.914062 283.808594 295.292969 C 283.855469 295.675781 283.867188 296.058594 283.84375 296.441406 C 283.816406 296.824219 283.757812 297.203125 283.664062 297.574219 Z M 283.664062 297.574219 " fill-opacity="1" fill-rule="nonzero"/><g clip-path="url(#8fccfdf587)"><g clip-path="url(#daa0e2f71e)"><path fill="url(#df3be1cfed)" d="M 251.585938 291.304688 L 251.585938 316.113281 L 283.871094 316.113281 L 283.871094 291.304688 Z M 251.585938 291.304688 " fill-rule="nonzero"/></g></g><path fill="#853d3d" d="M 287.984375 295.769531 C 287.195312 296.222656 286.34375 296.445312 285.433594 296.445312 L 245.609375 296.445312 C 244.699219 296.445312 243.847656 296.222656 243.058594 295.769531 C 242.941406 295.199219 242.894531 294.621094 242.90625 294.039062 C 242.921875 293.457031 243 292.882812 243.140625 292.316406 C 243.28125 291.753906 243.484375 291.210938 243.746094 290.6875 C 244.007812 290.167969 244.324219 289.683594 244.695312 289.230469 C 245.066406 288.78125 245.480469 288.375 245.941406 288.015625 C 246.402344 287.660156 246.898438 287.355469 247.425781 287.105469 C 247.953125 286.855469 248.5 286.667969 249.070312 286.539062 C 249.640625 286.414062 250.21875 286.347656 250.800781 286.347656 L 280.242188 286.347656 C 280.828125 286.347656 281.402344 286.410156 281.972656 286.539062 C 282.542969 286.667969 283.09375 286.855469 283.621094 287.105469 C 284.148438 287.351562 284.640625 287.65625 285.101562 288.015625 C 285.5625 288.375 285.980469 288.777344 286.347656 289.230469 C 286.71875 289.679688 287.035156 290.164062 287.296875 290.6875 C 287.5625 291.207031 287.761719 291.75 287.902344 292.316406 C 288.046875 292.882812 288.125 293.457031 288.136719 294.039062 C 288.152344 294.621094 288.101562 295.199219 287.984375 295.769531 Z M 287.984375 295.769531 " fill-opacity="1" fill-rule="nonzero"/><g clip-path="url(#612e8abb2a)"><g clip-path="url(#26fee2028c)"><path fill="url(#24e63c4336)" d="M 240.417969 283.746094 L 240.417969 294.125 L 290.628906 294.125 L 290.628906 283.746094 Z M 240.417969 283.746094 " fill-rule="nonzero"/></g></g><path fill="#853d3d" d="M 288.140625 288.96875 C 288.125 289.46875 287.996094 289.941406 287.757812 290.378906 C 287.515625 290.820312 287.1875 291.183594 286.773438 291.46875 C 285.78125 292.171875 284.675781 292.519531 283.460938 292.5 L 247.605469 292.5 C 245.496094 292.5 243.707031 291.445312 243.132812 289.984375 C 243.574219 290.085938 244.019531 290.136719 244.472656 290.136719 L 280.324219 290.136719 C 281.542969 290.152344 282.644531 289.808594 283.636719 289.101562 C 284.050781 288.816406 284.378906 288.457031 284.621094 288.015625 C 284.863281 287.574219 284.988281 287.105469 285.007812 286.601562 C 285.003906 286.25 284.9375 285.914062 284.808594 285.585938 C 286.730469 286.027344 288.140625 287.375 288.140625 288.96875 Z M 288.140625 288.96875 " fill-opacity="1" fill-rule="nonzero"/><g clip-path="url(#1da0fa09e5)"><g clip-path="url(#a6348e9459)"><path fill="url(#1b47c781b2)" d="M 183.347656 190.664062 L 183.347656 330.542969 L 345.136719 330.542969 L 345.136719 190.664062 Z M 183.347656 190.664062 " fill-rule="nonzero"/></g></g><path fill="#784b2f" d="M 299.695312 199.289062 L 228.789062 199.289062 L 193.335938 260.597656 L 228.789062 321.902344 L 299.695312 321.902344 L 335.148438 260.597656 Z M 297.519531 318.152344 L 230.949219 318.152344 L 197.671875 260.597656 L 230.949219 203.039062 L 297.519531 203.039062 L 330.8125 260.597656 Z M 297.519531 318.152344 " fill-opacity="1" fill-rule="nonzero"/><path fill="#3b8366" d="M 267.917969 132.371094 C 266.410156 130.574219 265.144531 128.625 264.121094 126.511719 C 257.578125 112.425781 277.480469 109.824219 277.480469 109.824219 C 279.699219 112.742188 281.398438 115.933594 282.582031 119.402344 C 284.464844 125.640625 283.179688 132.570312 267.917969 132.371094 Z M 267.917969 132.371094 " fill-opacity="1" fill-rule="nonzero"/><path fill="#306b53" d="M 267.917969 132.371094 C 266.410156 130.574219 265.144531 128.625 264.121094 126.511719 C 265.390625 123.347656 267.367188 121.054688 270.433594 121.863281 C 275.535156 123.210938 279.960938 121.144531 282.582031 119.402344 C 284.464844 125.640625 283.179688 132.570312 267.917969 132.371094 Z M 267.917969 132.371094 " fill-opacity="1" fill-rule="nonzero"/><path fill="#24523f" d="M 276.792969 111.90625 L 270.4375 129.832031 C 270.4375 129.832031 278.839844 121.308594 276.792969 111.90625 Z M 276.792969 111.90625 " fill-opacity="1" fill-rule="nonzero"/><path fill="#3b8366" d="M 288.785156 125.976562 C 287.804688 129.96875 284.941406 133.992188 277.003906 131.867188 C 276.59375 129.703125 276.738281 127.578125 277.433594 125.488281 C 279.945312 118.742188 289.15625 119.617188 289.15625 119.617188 C 289.382812 121.757812 289.257812 123.878906 288.785156 125.976562 Z M 288.785156 125.976562 " fill-opacity="1" fill-rule="nonzero"/><path fill="#306b53" d="M 288.785156 125.976562 C 287.804688 129.96875 284.941406 133.992188 277.003906 131.867188 C 276.59375 129.703125 276.738281 127.578125 277.433594 125.488281 C 277.949219 125.589844 278.441406 125.761719 278.90625 126.007812 C 280.472656 126.738281 282.121094 127.101562 283.847656 127.09375 C 285.578125 127.089844 287.222656 126.71875 288.785156 125.976562 Z M 288.785156 125.976562 " fill-opacity="1" fill-rule="nonzero"/><path fill="#24523f" d="M 286.859375 121.101562 L 280.019531 129.832031 C 280.019531 129.832031 284.75 128.085938 286.859375 121.101562 Z M 286.859375 121.101562 " fill-opacity="1" fill-rule="nonzero"/><path fill="#3b8366" d="M 258.097656 132.371094 C 259.609375 130.574219 260.875 128.625 261.898438 126.511719 C 268.441406 112.425781 248.539062 109.824219 248.539062 109.824219 C 246.320312 112.742188 244.617188 115.933594 243.4375 119.402344 C 241.550781 125.640625 242.839844 132.570312 258.097656 132.371094 Z M 258.097656 132.371094 " fill-opacity="1" fill-rule="nonzero"/><path fill="#306b53" d="M 258.097656 132.371094 C 259.609375 130.574219 260.875 128.625 261.898438 126.511719 C 260.625 123.347656 258.648438 121.054688 255.585938 121.863281 C 250.484375 123.210938 246.054688 121.144531 243.4375 119.402344 C 241.550781 125.640625 242.839844 132.570312 258.097656 132.371094 Z M 258.097656 132.371094 " fill-opacity="1" fill-rule="nonzero"/><path fill="#24523f" d="M 249.222656 111.90625 L 255.578125 129.832031 C 255.578125 129.832031 247.175781 121.308594 249.222656 111.90625 Z M 249.222656 111.90625 " fill-opacity="1" fill-rule="nonzero"/><path fill="#3b8366" d="M 237.230469 125.976562 C 238.210938 129.96875 241.078125 133.992188 249.011719 131.867188 C 249.421875 129.703125 249.28125 127.578125 248.585938 125.488281 C 246.070312 118.742188 236.863281 119.617188 236.863281 119.617188 C 236.636719 121.757812 236.757812 123.878906 237.230469 125.976562 Z M 237.230469 125.976562 " fill-opacity="1" fill-rule="nonzero"/><path fill="#306b53" d="M 237.230469 125.976562 C 238.210938 129.96875 241.078125 133.992188 249.011719 131.867188 C 249.421875 129.703125 249.28125 127.578125 248.585938 125.488281 C 248.066406 125.589844 247.578125 125.761719 247.113281 126.007812 C 245.546875 126.738281 243.898438 127.101562 242.167969 127.09375 C 240.441406 127.089844 238.792969 126.71875 237.230469 125.976562 Z M 237.230469 125.976562 " fill-opacity="1" fill-rule="nonzero"/><path fill="#24523f" d="M 239.160156 121.101562 L 246 129.832031 C 246 129.832031 241.265625 128.085938 239.160156 121.101562 Z M 239.160156 121.101562 " fill-opacity="1" fill-rule="nonzero"/><path fill="#3b8366" d="M 263.445312 133.65625 C 258.710938 130.535156 256.015625 127.371094 254.710938 124.296875 C 249.964844 113.160156 263.445312 103.433594 263.445312 103.433594 C 266.742188 105.78125 269.5625 108.605469 271.902344 111.90625 C 276.054688 118.070312 277.554688 126.574219 263.445312 133.65625 Z M 263.445312 133.65625 " fill-opacity="1" fill-rule="nonzero"/><path fill="#306b53" d="M 263.445312 133.65625 C 258.710938 130.535156 256.015625 127.371094 254.710938 124.296875 C 256.15625 124.089844 257.582031 123.789062 258.988281 123.394531 C 260.445312 123.023438 261.839844 122.488281 263.171875 121.785156 C 264.5 121.078125 265.726562 120.226562 266.851562 119.226562 C 267.976562 118.226562 268.964844 117.109375 269.820312 115.871094 C 270.671875 114.632812 271.367188 113.3125 271.902344 111.90625 C 276.054688 118.070312 277.554688 126.574219 263.445312 133.65625 Z M 263.445312 133.65625 " fill-opacity="1" fill-rule="nonzero"/><path fill="#24523f" d="M 263.542969 106.136719 L 263.542969 132.378906 C 263.542969 132.378906 267.996094 116.605469 263.542969 106.136719 Z M 263.542969 106.136719 " fill-opacity="1" fill-rule="nonzero"/><g clip-path="url(#641e0e57ab)"><g clip-path="url(#29be0b9c7b)"><path fill="url(#0a7372b700)" d="M 241.609375 132.121094 L 241.609375 165.199219 L 286.867188 165.199219 L 286.867188 132.121094 Z M 241.609375 132.121094 " fill-rule="nonzero"/></g></g><path fill="#853d3d" d="M 282.382812 143.347656 L 278.941406 157.121094 C 278.769531 157.800781 278.496094 158.433594 278.113281 159.023438 C 277.730469 159.609375 277.261719 160.121094 276.707031 160.550781 C 276.152344 160.984375 275.542969 161.3125 274.878906 161.542969 C 274.214844 161.769531 273.53125 161.882812 272.828125 161.882812 L 256.277344 161.882812 C 255.574219 161.882812 254.890625 161.769531 254.226562 161.542969 C 253.5625 161.3125 252.953125 160.984375 252.402344 160.550781 C 251.847656 160.121094 251.378906 159.609375 250.996094 159.023438 C 250.613281 158.433594 250.335938 157.800781 250.164062 157.121094 L 249 152.460938 C 250.074219 153.207031 251.269531 153.578125 252.578125 153.574219 L 269.128906 153.574219 C 269.832031 153.574219 270.515625 153.460938 271.179688 153.234375 C 271.84375 153.003906 272.453125 152.675781 273.007812 152.242188 C 273.5625 151.8125 274.03125 151.304688 274.414062 150.714844 C 274.796875 150.128906 275.074219 149.492188 275.242188 148.8125 L 278.460938 135.925781 C 278.820312 136.058594 279.167969 136.222656 279.496094 136.417969 C 279.828125 136.617188 280.136719 136.839844 280.425781 137.09375 C 280.714844 137.347656 280.980469 137.625 281.21875 137.925781 C 281.457031 138.226562 281.664062 138.546875 281.84375 138.886719 C 282.023438 139.226562 282.171875 139.578125 282.285156 139.945312 C 282.402344 140.3125 282.480469 140.6875 282.527344 141.066406 C 282.574219 141.449219 282.582031 141.832031 282.558594 142.214844 C 282.535156 142.597656 282.476562 142.976562 282.382812 143.347656 Z M 282.382812 143.347656 " fill-opacity="1" fill-rule="nonzero"/><g clip-path="url(#ed4843d9eb)"><g clip-path="url(#b124365c9f)"><path fill="url(#8585844887)" d="M 250.304688 137.078125 L 250.304688 161.886719 L 282.589844 161.886719 L 282.589844 137.078125 Z M 250.304688 137.078125 " fill-rule="nonzero"/></g></g><path fill="#853d3d" d="M 286.703125 141.542969 C 285.910156 141.996094 285.058594 142.21875 284.148438 142.21875 L 244.328125 142.21875 C 243.417969 142.21875 242.566406 141.996094 241.773438 141.542969 C 241.660156 140.972656 241.609375 140.394531 241.625 139.8125 C 241.636719 139.230469 241.714844 138.65625 241.859375 138.089844 C 242 137.527344 242.203125 136.984375 242.464844 136.460938 C 242.726562 135.941406 243.042969 135.457031 243.414062 135.003906 C 243.785156 134.554688 244.199219 134.148438 244.660156 133.789062 C 245.121094 133.433594 245.613281 133.128906 246.140625 132.878906 C 246.667969 132.628906 247.21875 132.441406 247.789062 132.3125 C 248.355469 132.1875 248.933594 132.121094 249.515625 132.121094 L 278.960938 132.121094 C 279.542969 132.121094 280.121094 132.183594 280.691406 132.3125 C 281.261719 132.441406 281.808594 132.628906 282.335938 132.878906 C 282.863281 133.125 283.359375 133.429688 283.820312 133.789062 C 284.28125 134.148438 284.695312 134.550781 285.066406 135.003906 C 285.4375 135.453125 285.753906 135.9375 286.015625 136.460938 C 286.277344 136.980469 286.480469 137.523438 286.621094 138.089844 C 286.761719 138.65625 286.839844 139.230469 286.855469 139.8125 C 286.867188 140.394531 286.816406 140.972656 286.703125 141.542969 Z M 286.703125 141.542969 " fill-opacity="1" fill-rule="nonzero"/><g clip-path="url(#76f4f1bb39)"><g clip-path="url(#1a55b95b02)"><path fill="url(#20e8c106b3)" d="M 239.132812 129.519531 L 239.132812 139.898438 L 289.34375 139.898438 L 289.34375 129.519531 Z M 239.132812 129.519531 " fill-rule="nonzero"/></g></g><path fill="#853d3d" d="M 286.859375 134.742188 C 286.84375 135.242188 286.714844 135.714844 286.472656 136.152344 C 286.230469 136.59375 285.902344 136.957031 285.488281 137.242188 C 284.5 137.945312 283.394531 138.292969 282.175781 138.273438 L 246.324219 138.273438 C 244.210938 138.273438 242.425781 137.21875 241.847656 135.757812 C 242.289062 135.859375 242.734375 135.910156 243.1875 135.910156 L 279.039062 135.910156 C 280.257812 135.925781 281.363281 135.582031 282.355469 134.875 C 282.769531 134.589844 283.097656 134.230469 283.335938 133.789062 C 283.578125 133.347656 283.707031 132.878906 283.722656 132.375 C 283.722656 132.023438 283.65625 131.6875 283.523438 131.359375 C 285.449219 131.800781 286.859375 133.148438 286.859375 134.742188 Z M 286.859375 134.742188 " fill-opacity="1" fill-rule="nonzero"/><g clip-path="url(#773726612a)"><g clip-path="url(#cdb01c9ca0)"><path fill="url(#43cc7a7d58)" d="M 183.347656 37.707031 L 183.347656 177.585938 L 345.136719 177.585938 L 345.136719 37.707031 Z M 183.347656 37.707031 " fill-rule="nonzero"/></g></g><path fill="#784b2f" d="M 299.695312 46.332031 L 228.789062 46.332031 L 193.335938 107.636719 L 228.789062 168.945312 L 299.695312 168.945312 L 335.148438 107.636719 Z M 297.519531 165.195312 L 230.949219 165.195312 L 197.671875 107.640625 L 230.949219 50.082031 L 297.519531 50.082031 L 330.8125 107.640625 Z M 297.519531 165.195312 " fill-opacity="1" fill-rule="nonzero"/></svg>