<svg xmlns="http://www.w3.org/2000/svg" xmlns:xlink="http://www.w3.org/1999/xlink" width="500" zoomAndPan="magnify" viewBox="0 0 375 374.999991" height="500" preserveAspectRatio="xMidYMid meet" version="1.0"><defs><clipPath id="fbafa0e589"><path d="M 56.125 66.5 L 267.691406 66.5 L 267.691406 248.769531 L 56.125 248.769531 Z M 56.125 66.5 " clip-rule="nonzero"/></clipPath><clipPath id="e78a26ad36"><path d="M 54.765625 47.019531 L 284.621094 47.019531 L 284.621094 239.53125 L 54.765625 239.53125 Z M 54.765625 47.019531 " clip-rule="nonzero"/></clipPath></defs><g clip-path="url(#fbafa0e589)"><path fill="#4ca538" d="M 185.0625 89.4375 C 166.617188 72.664062 164.753906 114.308594 191.402344 112.609375 C 191.402344 112.609375 195.726562 99.140625 185.0625 89.4375 Z M 141.699219 144.636719 C 141.699219 144.636719 130.582031 152.746094 136.8125 168.46875 C 147.585938 195.660156 170.070312 162.339844 141.699219 144.636719 Z M 239.523438 127.480469 C 244.621094 145.152344 266.5625 144.914062 266.5625 144.914062 C 274.722656 118.847656 230.664062 96.769531 239.523438 127.480469 Z M 158.804688 242.941406 C 165.148438 260.15625 186.894531 235.695312 167.867188 216.21875 C 167.867188 216.21875 152.464844 225.730469 158.804688 242.941406 Z M 211.386719 174.449219 C 199.460938 188.453125 211.761719 206.617188 211.761719 206.617188 C 238.007812 199.042969 232.117188 150.121094 211.386719 174.449219 Z M 89.945312 186.773438 C 82.617188 221.085938 117.578125 196.285156 107.160156 173.640625 C 107.160156 173.640625 91.933594 177.460938 89.945312 186.773438 Z M 96.398438 66.789062 C 84.847656 66.957031 85.558594 81.789062 85.558594 81.789062 C 99.023438 93.164062 132.34375 66.261719 96.398438 66.789062 Z M 80.433594 122.757812 C 85.417969 155.824219 45.472656 160.390625 59.140625 134.535156 C 67.042969 119.582031 80.433594 122.757812 80.433594 122.757812 " fill-opacity="1" fill-rule="nonzero"/></g><g clip-path="url(#e78a26ad36)"><path fill="#2f6d30" d="M 281.890625 103.042969 C 279.636719 119.296875 276.058594 134.238281 271.257812 147.457031 C 265.207031 164.117188 257.171875 178.078125 247.378906 188.960938 C 231.003906 207.15625 209.640625 216.9375 183.875 218.027344 C 182.390625 218.089844 180.914062 218.121094 179.457031 218.121094 C 175.578125 218.121094 171.796875 217.894531 168.117188 217.449219 C 168.175781 221.417969 168.238281 233.902344 166.726562 239.378906 L 166.289062 239.257812 C 167.792969 233.808594 167.722656 221.28125 167.664062 217.394531 C 149.652344 215.132812 134.042969 207.550781 121.109375 194.742188 C 115.578125 189.257812 110.53125 182.792969 105.996094 175.414062 C 103.257812 178.875 97.203125 187.265625 96.515625 194.5 L 96.0625 194.453125 C 96.769531 187.019531 103.03125 178.417969 105.746094 175 C 101.769531 168.472656 98.191406 161.242188 95.042969 153.324219 C 92.554688 147.070312 90.332031 140.382812 88.378906 133.3125 C 84.863281 131.097656 81.605469 128.609375 78.609375 125.855469 C 74.871094 131.300781 66.917969 142.492188 63.113281 144.917969 L 62.871094 144.535156 C 66.570312 142.179688 74.558594 130.933594 78.273438 125.535156 C 75.976562 123.394531 73.832031 121.101562 71.847656 118.640625 C 50.011719 91.570312 55.246094 48.550781 55.476562 47.023438 L 62.644531 48.109375 C 62.59375 48.457031 57.691406 89.59375 77.527344 114.136719 C 79.957031 117.144531 82.664062 119.882812 85.636719 122.363281 C 84.53125 117.449219 83.542969 112.382812 82.683594 107.167969 C 77.890625 78.132812 78.589844 47.996094 78.621094 47.023438 L 85.867188 47.261719 C 85.859375 47.414062 85.554688 64.726562 86.726562 80.011719 C 89.554688 77.203125 96.246094 72.675781 104.484375 74.378906 L 104.394531 74.824219 C 95.765625 73.039062 89.222656 78.128906 86.777344 80.65625 C 87.375 88.203125 88.332031 96.902344 89.859375 106.128906 C 91.007812 113.074219 92.558594 120.710938 94.636719 128.59375 C 105.339844 134.710938 118.5625 138.289062 134.1875 139.257812 C 155.53125 140.582031 171.933594 135.523438 182.945312 124.214844 C 186.300781 120.769531 189.035156 116.886719 191.253906 112.746094 L 191.25 112.746094 C 190.714844 112.140625 178.140625 97.859375 176.335938 92.414062 L 176.726562 92.285156 C 178.421875 97.40625 190.277344 111.015625 191.457031 112.359375 C 202.917969 90.570312 200.371094 61.765625 199.425781 51.125 C 199.0625 46.980469 206.390625 47.074219 206.390625 47.023438 C 206.375 47.429688 206.515625 48.984375 206.648438 50.484375 C 207.847656 64.039062 211.503906 105.289062 188.140625 129.269531 C 177.191406 140.511719 161.867188 146.355469 142.507812 146.695312 C 144.042969 152.328125 147.96875 167.394531 147.285156 172.199219 L 146.835938 172.136719 C 147.503906 167.445312 143.535156 152.199219 142.035156 146.699219 C 141.589844 146.707031 141.144531 146.710938 140.699219 146.710938 C 138.429688 146.710938 136.113281 146.640625 133.738281 146.492188 C 119.898438 145.632812 107.757812 142.835938 97.386719 138.144531 C 103.261719 156.796875 112.304688 175.820312 126.222656 189.605469 C 141.398438 204.628906 160.695312 211.753906 183.570312 210.785156 C 193.78125 210.355469 203.238281 208.441406 211.894531 205.082031 C 212.242188 199.53125 213.851562 181.566406 220.265625 175.738281 L 220.570312 176.070312 C 214.441406 181.640625 212.761719 199.191406 212.367188 204.898438 C 223.640625 200.4375 233.546875 193.496094 241.992188 184.113281 C 252.421875 172.519531 259.753906 158.15625 264.898438 143.609375 C 260.03125 139.886719 246.773438 129.078125 245.492188 120.785156 L 245.941406 120.714844 C 247.167969 128.667969 260.152344 139.363281 265.054688 143.148438 C 270.097656 128.765625 273.019531 114.234375 274.710938 102.046875 C 278.433594 75.15625 277.140625 48.597656 277.125 48.386719 L 284.359375 47.929688 C 284.417969 48.832031 285.714844 75.433594 281.890625 103.042969 " fill-opacity="1" fill-rule="nonzero"/></g></svg>