<svg xmlns="http://www.w3.org/2000/svg" xmlns:xlink="http://www.w3.org/1999/xlink" width="500" zoomAndPan="magnify" viewBox="0 0 375 374.999991" height="500" preserveAspectRatio="xMidYMid meet" version="1.0"><defs><clipPath id="69750d5960"><path d="M 154.617188 254 L 239.367188 254 L 239.367188 303.378906 L 154.617188 303.378906 Z M 154.617188 254 " clip-rule="nonzero"/></clipPath><clipPath id="1d88c52d04"><path d="M 151.109375 150.503906 L 244.109375 150.503906 L 244.109375 263.753906 L 151.109375 263.753906 Z M 151.109375 150.503906 " clip-rule="nonzero"/></clipPath></defs><g clip-path="url(#69750d5960)"><path fill="#000000" d="M 237.78125 255.519531 C 236.132812 255.847656 234.417969 255.78125 232.832031 255.386719 L 232.636719 255.320312 C 232.175781 255.191406 231.582031 255.058594 230.988281 255.058594 C 230.0625 255.058594 229.339844 255.386719 228.679688 255.714844 C 228.480469 255.78125 228.285156 255.910156 228.085938 255.976562 C 226.304688 256.699219 224.261719 256.175781 222.085938 255.585938 C 220.304688 255.125 218.523438 254.667969 216.609375 254.796875 C 215.6875 254.863281 214.765625 255.058594 213.90625 255.257812 C 212.652344 255.519531 211.46875 255.78125 210.410156 255.585938 C 210.082031 255.519531 209.753906 255.386719 209.355469 255.257812 C 208.828125 255.058594 208.234375 254.863281 207.574219 254.730469 C 206.519531 254.601562 205.53125 254.796875 204.609375 254.992188 C 204.210938 255.058594 203.882812 255.125 203.554688 255.191406 C 202.761719 255.320312 201.96875 255.257812 201.113281 255.257812 C 200.320312 255.257812 199.464844 255.191406 198.605469 255.257812 C 197.816406 255.320312 197.023438 255.519531 196.300781 255.648438 C 196.035156 255.714844 195.707031 255.78125 195.441406 255.847656 C 193.265625 256.238281 191.023438 256.304688 188.78125 256.371094 C 186.738281 256.4375 185.089844 256.4375 183.769531 255.585938 C 183.636719 255.519531 183.570312 255.453125 183.441406 255.386719 C 183.042969 255.125 182.582031 254.796875 181.988281 254.667969 C 180.40625 254.207031 179.085938 255.058594 178.03125 255.78125 C 177.4375 256.175781 176.84375 256.566406 176.382812 256.632812 C 175.65625 256.765625 174.800781 256.238281 173.941406 255.714844 C 173.546875 255.519531 173.152344 255.257812 172.757812 255.058594 C 170.976562 254.140625 168.863281 253.878906 166.886719 254.339844 C 165.699219 254.601562 164.644531 255.125 163.589844 255.585938 C 162.730469 255.976562 161.875 256.371094 161.082031 256.566406 C 159.894531 256.894531 157.917969 256.699219 157.390625 255.257812 C 157.125 254.601562 156.402344 254.207031 155.675781 254.46875 C 155.015625 254.730469 154.621094 255.453125 154.882812 256.175781 C 155.675781 258.335938 157.851562 259.320312 159.960938 259.320312 C 160.554688 259.320312 161.148438 259.253906 161.742188 259.125 C 162.796875 258.863281 163.789062 258.402344 164.710938 257.945312 C 165.632812 257.484375 166.558594 257.09375 167.480469 256.894531 C 168.863281 256.566406 170.316406 256.765625 171.570312 257.417969 C 171.898438 257.550781 172.226562 257.746094 172.558594 258.011719 C 173.746094 258.730469 175.128906 259.519531 176.777344 259.253906 C 177.832031 259.058594 178.691406 258.535156 179.484375 258.011719 C 180.273438 257.484375 180.867188 257.15625 181.261719 257.222656 C 181.460938 257.289062 181.660156 257.417969 181.921875 257.617188 C 182.054688 257.683594 182.1875 257.8125 182.320312 257.878906 C 183.570312 258.664062 184.890625 258.925781 186.144531 258.992188 C 181.726562 260.699219 176.910156 263.515625 176.316406 267.84375 C 175 267.976562 172.492188 268.238281 169.984375 269.089844 C 168.734375 268.957031 165.765625 268.5 164.183594 267.320312 C 163.589844 266.859375 162.796875 266.992188 162.335938 267.582031 C 161.875 268.171875 162.007812 268.957031 162.601562 269.417969 C 163.523438 270.140625 164.710938 270.664062 165.898438 270.992188 C 164.445312 271.910156 163.324219 273.15625 162.667969 274.726562 C 162.402344 275.382812 162.730469 276.171875 163.390625 276.433594 C 163.523438 276.5 163.722656 276.5 163.851562 276.5 C 164.378906 276.5 164.910156 276.171875 165.105469 275.644531 C 166.492188 272.105469 172.757812 270.792969 176.183594 270.464844 C 176.054688 273.089844 175.328125 277.613281 172.097656 280.5625 C 169.523438 282.859375 165.765625 283.710938 160.886719 282.988281 C 160.160156 282.921875 159.5 283.382812 159.367188 284.105469 C 159.238281 284.824219 159.765625 285.480469 160.488281 285.613281 C 161.742188 285.808594 162.863281 285.875 163.984375 285.875 C 168.007812 285.875 171.304688 284.757812 173.8125 282.53125 C 178.691406 278.136719 178.890625 270.992188 178.824219 268.894531 C 178.824219 263.453125 189.902344 260.171875 194.1875 259.320312 C 194.253906 259.320312 194.320312 259.320312 194.386719 259.253906 C 191.816406 263.714844 187.265625 272.695312 188.054688 280.628906 C 187.925781 280.761719 187.859375 280.890625 187.792969 281.089844 C 187.792969 281.152344 184.957031 288.234375 180.339844 287.90625 C 179.613281 287.839844 178.953125 288.367188 178.953125 289.085938 C 178.890625 289.808594 179.417969 290.464844 180.140625 290.464844 C 180.339844 290.464844 180.472656 290.464844 180.667969 290.464844 C 184.625 290.464844 187.394531 287.121094 188.914062 284.628906 C 189.441406 286.726562 189.96875 288.5625 190.429688 290.003906 C 192.011719 295.25 192.671875 297.414062 190.824219 301.476562 C 190.496094 302.132812 190.824219 302.921875 191.484375 303.25 C 191.683594 303.3125 191.878906 303.378906 192.011719 303.378906 C 192.539062 303.378906 193 303.117188 193.199219 302.59375 C 195.441406 297.675781 194.585938 294.660156 192.9375 289.285156 C 192.34375 287.316406 191.683594 285.085938 190.957031 282.203125 C 190.363281 279.710938 190.496094 276.957031 191.089844 274.203125 C 198.015625 279.710938 196.429688 284.695312 196.363281 284.890625 C 196.101562 285.546875 196.496094 286.332031 197.15625 286.53125 C 197.289062 286.59375 197.421875 286.59375 197.617188 286.59375 C 198.144531 286.59375 198.671875 286.265625 198.871094 285.742188 C 199.003906 285.414062 201.378906 278.335938 191.816406 271.382812 C 193.992188 264.238281 198.210938 257.945312 198.277344 257.878906 C 198.277344 257.8125 198.34375 257.8125 198.34375 257.746094 C 198.476562 257.746094 198.605469 257.683594 198.738281 257.683594 C 198.9375 259.058594 199.53125 262.007812 201.441406 264.632812 C 201.441406 264.695312 201.441406 264.761719 201.441406 264.828125 C 201.507812 265.613281 201.3125 267.1875 200.652344 267.320312 C 199.925781 267.515625 199.53125 268.238281 199.726562 268.894531 C 199.859375 269.484375 200.386719 269.875 200.980469 269.875 C 201.113281 269.875 201.179688 269.875 201.3125 269.8125 C 202.761719 269.417969 203.488281 268.238281 203.816406 266.992188 C 204.804688 267.777344 206.058594 268.433594 207.511719 268.828125 C 208.699219 269.15625 209.820312 269.8125 210.742188 270.597656 C 210.808594 270.792969 211.402344 274.664062 203.621094 280.105469 C 202.5625 280.824219 201.96875 282.007812 201.90625 283.1875 C 201.90625 284.039062 202.167969 284.890625 202.695312 285.546875 C 202.960938 285.875 203.355469 286.070312 203.75 286.070312 C 204.015625 286.070312 204.34375 286.003906 204.542969 285.808594 C 205.136719 285.347656 205.203125 284.5625 204.742188 283.972656 C 204.542969 283.777344 204.476562 283.515625 204.476562 283.25 C 204.476562 282.859375 204.742188 282.464844 205.070312 282.269531 C 210.015625 278.792969 212.125 275.710938 212.917969 273.546875 C 212.984375 273.679688 213.117188 273.808594 213.183594 274.007812 C 214.304688 276.5625 214.433594 279.253906 213.644531 281.808594 C 210.941406 290.136719 212.71875 291.839844 213.3125 292.429688 C 213.578125 292.691406 213.90625 292.824219 214.238281 292.824219 C 214.566406 292.824219 214.894531 292.691406 215.160156 292.429688 C 215.6875 291.90625 215.6875 291.117188 215.160156 290.59375 C 214.765625 290.203125 214.433594 287.972656 216.148438 282.597656 C 216.28125 282.269531 216.347656 281.941406 216.414062 281.679688 C 221.492188 285.21875 221.359375 289.347656 221.359375 289.546875 C 221.292969 290.265625 221.886719 290.855469 222.613281 290.921875 C 222.613281 290.921875 222.679688 290.921875 222.679688 290.921875 C 223.335938 290.921875 223.929688 290.398438 223.996094 289.675781 C 223.996094 289.414062 224.328125 283.316406 216.808594 278.726562 C 216.808594 276.761719 216.414062 274.792969 215.554688 273.023438 C 213.972656 269.679688 211.402344 267.449219 208.234375 266.53125 C 203.027344 265.023438 201.707031 259.84375 201.378906 257.746094 C 202.234375 257.746094 203.089844 257.8125 203.949219 257.683594 C 204.410156 257.617188 204.804688 257.550781 205.203125 257.417969 C 205.925781 257.289062 206.652344 257.09375 207.246094 257.222656 C 207.640625 257.289062 208.039062 257.417969 208.5 257.617188 C 208.894531 257.746094 209.355469 257.945312 209.882812 258.011719 C 210.082031 258.074219 210.28125 258.074219 210.476562 258.140625 C 212.589844 261.746094 216.015625 262.335938 219.117188 262.863281 C 220.632812 263.125 222.152344 263.386719 223.46875 263.910156 C 223.335938 264.695312 222.941406 266.53125 221.953125 267.777344 C 220.632812 269.351562 220.832031 272.828125 220.898438 273.875 C 220.964844 274.53125 221.558594 275.054688 222.214844 275.054688 C 222.28125 275.054688 222.28125 275.054688 222.347656 275.054688 C 223.074219 274.992188 223.601562 274.335938 223.535156 273.613281 C 223.402344 272.039062 223.535156 269.875 223.996094 269.351562 C 224.984375 268.105469 225.578125 266.53125 225.84375 265.351562 C 226.503906 266.007812 227.164062 266.859375 227.691406 267.976562 C 228.347656 269.285156 228.746094 270.792969 228.878906 272.433594 C 229.40625 278.269531 231.910156 279.1875 233.363281 279.1875 C 234.085938 279.1875 234.679688 278.597656 234.679688 277.875 C 234.679688 277.152344 234.085938 276.5625 233.363281 276.5625 C 232.503906 276.5625 231.710938 274.792969 231.515625 272.171875 C 231.316406 270.203125 230.855469 268.367188 230.0625 266.796875 C 227.425781 261.484375 223.074219 260.761719 219.511719 260.171875 C 217.007812 259.78125 214.960938 259.386719 213.511719 257.8125 C 213.839844 257.746094 214.171875 257.683594 214.433594 257.617188 C 215.226562 257.417969 216.015625 257.289062 216.742188 257.222656 C 218.195312 257.15625 219.777344 257.550781 221.359375 257.945312 C 223.800781 258.601562 226.371094 259.253906 228.941406 258.207031 C 229.207031 258.140625 229.46875 258.011719 229.667969 257.878906 C 230.128906 257.683594 230.527344 257.484375 230.855469 257.484375 C 231.054688 257.484375 231.382812 257.550781 231.710938 257.683594 L 231.976562 257.746094 C 234.019531 258.273438 236.132812 258.335938 238.175781 257.945312 C 238.902344 257.8125 239.363281 257.09375 239.230469 256.371094 C 239.164062 255.78125 238.503906 255.386719 237.78125 255.519531 Z M 237.78125 255.519531 " fill-opacity="1" fill-rule="nonzero"/></g><path fill="#5f9e43" d="M 187.066406 159.28125 C 186.441406 160.375 185.972656 161.527344 185.65625 162.746094 C 185.339844 163.964844 185.183594 165.199219 185.191406 166.457031 C 185.199219 167.714844 185.371094 168.953125 185.707031 170.164062 C 186.039062 171.378906 186.527344 172.527344 187.164062 173.609375 C 187.800781 174.695312 188.566406 175.679688 189.464844 176.5625 C 190.359375 177.445312 191.355469 178.195312 192.449219 178.816406 C 193.542969 179.4375 194.699219 179.90625 195.917969 180.222656 C 197.132812 180.539062 198.371094 180.691406 199.628906 180.679688 C 200.253906 179.585938 200.722656 178.429688 201.039062 177.214844 C 201.355469 175.996094 201.511719 174.757812 201.503906 173.5 C 201.496094 172.242188 201.324219 171.007812 200.988281 169.796875 C 200.65625 168.582031 200.167969 167.433594 199.53125 166.347656 C 198.894531 165.265625 198.128906 164.28125 197.234375 163.398438 C 196.335938 162.515625 195.339844 161.761719 194.246094 161.140625 C 193.152344 160.523438 191.996094 160.054688 190.777344 159.738281 C 189.5625 159.421875 188.324219 159.269531 187.066406 159.28125 Z M 187.066406 159.28125 " fill-opacity="1" fill-rule="nonzero"/><path fill="#98b879" d="M 216.164062 152.5 C 216.984375 153.9375 217.605469 155.457031 218.023438 157.0625 C 218.445312 158.664062 218.648438 160.292969 218.636719 161.949219 C 218.628906 163.605469 218.402344 165.234375 217.964844 166.832031 C 217.523438 168.429688 216.886719 169.941406 216.046875 171.371094 C 215.207031 172.800781 214.199219 174.09375 213.019531 175.257812 C 211.839844 176.421875 210.527344 177.410156 209.085938 178.226562 C 207.648438 179.046875 206.125 179.660156 204.519531 180.078125 C 202.917969 180.492188 201.285156 180.695312 199.628906 180.679688 C 198.808594 179.242188 198.191406 177.71875 197.769531 176.117188 C 197.351562 174.515625 197.144531 172.886719 197.15625 171.226562 C 197.167969 169.570312 197.390625 167.945312 197.832031 166.347656 C 198.269531 164.75 198.910156 163.238281 199.746094 161.808594 C 200.585938 160.378906 201.59375 159.082031 202.773438 157.921875 C 203.957031 156.757812 205.265625 155.769531 206.707031 154.949219 C 208.148438 154.132812 209.671875 153.515625 211.273438 153.101562 C 212.878906 152.683594 214.507812 152.484375 216.164062 152.5 Z M 158.164062 180.878906 C 158.175781 182.535156 158.402344 184.164062 158.839844 185.761719 C 159.28125 187.355469 159.917969 188.871094 160.757812 190.300781 C 161.59375 191.726562 162.605469 193.023438 163.785156 194.1875 C 164.964844 195.347656 166.273438 196.339844 167.714844 197.15625 C 169.15625 197.972656 170.679688 198.589844 172.28125 199.003906 C 173.886719 199.421875 175.515625 199.621094 177.171875 199.605469 C 178.828125 199.59375 180.457031 199.363281 182.050781 198.921875 C 183.648438 198.476562 185.160156 197.835938 186.585938 196.996094 C 186.582031 196.582031 186.566406 196.171875 186.535156 195.761719 C 186.503906 195.351562 186.460938 194.941406 186.40625 194.535156 C 186.347656 194.125 186.277344 193.722656 186.195312 193.320312 C 186.109375 192.914062 186.015625 192.515625 185.902344 192.117188 C 185.792969 191.722656 185.671875 191.328125 185.535156 190.941406 C 185.402344 190.550781 185.253906 190.167969 185.09375 189.789062 C 184.933594 189.410156 184.757812 189.035156 184.574219 188.667969 C 184.390625 188.300781 184.191406 187.941406 183.984375 187.585938 C 183.773438 187.230469 183.554688 186.882812 183.324219 186.542969 C 183.09375 186.203125 182.851562 185.871094 182.597656 185.546875 C 182.34375 185.21875 182.078125 184.90625 181.804688 184.597656 C 181.53125 184.289062 181.25 183.992188 180.957031 183.703125 C 180.660156 183.414062 180.359375 183.136719 180.046875 182.867188 C 179.738281 182.597656 179.417969 182.339844 179.085938 182.089844 C 178.757812 181.84375 178.421875 181.605469 178.078125 181.378906 C 177.734375 181.152344 177.382812 180.941406 177.027344 180.738281 C 176.667969 180.535156 176.304688 180.34375 175.933594 180.164062 C 175.5625 179.984375 175.1875 179.816406 174.804688 179.664062 C 174.421875 179.507812 174.039062 179.367188 173.648438 179.238281 C 173.253906 179.109375 172.859375 178.992188 172.460938 178.886719 C 172.0625 178.785156 171.664062 178.695312 171.257812 178.617188 C 170.855469 178.539062 170.449219 178.476562 170.039062 178.425781 C 169.632812 178.375 169.222656 178.335938 168.808594 178.3125 C 168.398438 178.289062 167.988281 178.277344 167.578125 178.28125 C 167.164062 178.285156 166.753906 178.300781 166.34375 178.332031 C 165.933594 178.363281 165.523438 178.40625 165.117188 178.460938 C 164.707031 178.519531 164.304688 178.589844 163.898438 178.671875 C 163.496094 178.753906 163.097656 178.851562 162.699219 178.960938 C 162.304688 179.070312 161.910156 179.195312 161.523438 179.328125 C 161.132812 179.464844 160.75 179.613281 160.371094 179.773438 C 159.992188 179.933594 159.617188 180.105469 159.25 180.289062 C 158.882812 180.476562 158.519531 180.671875 158.164062 180.878906 Z M 153.277344 221.507812 C 154.105469 222.941406 155.105469 224.246094 156.273438 225.417969 C 157.445312 226.589844 158.746094 227.589844 160.179688 228.421875 C 161.613281 229.25 163.128906 229.878906 164.730469 230.308594 C 166.328125 230.738281 167.957031 230.953125 169.613281 230.953125 C 171.269531 230.953125 172.898438 230.738281 174.496094 230.308594 C 176.097656 229.878906 177.613281 229.25 179.046875 228.421875 C 180.480469 227.589844 181.785156 226.589844 182.953125 225.417969 C 184.125 224.246094 185.121094 222.941406 185.949219 221.507812 C 185.742188 221.152344 185.523438 220.800781 185.296875 220.460938 C 185.066406 220.117188 184.828125 219.78125 184.578125 219.457031 C 184.324219 219.128906 184.066406 218.8125 183.792969 218.503906 C 183.523438 218.195312 183.242188 217.894531 182.949219 217.601562 C 182.660156 217.3125 182.359375 217.03125 182.046875 216.757812 C 181.738281 216.488281 181.421875 216.226562 181.09375 215.976562 C 180.769531 215.726562 180.433594 215.488281 180.089844 215.257812 C 179.75 215.03125 179.398438 214.8125 179.042969 214.605469 C 178.6875 214.402344 178.324219 214.207031 177.953125 214.027344 C 177.585938 213.84375 177.210938 213.675781 176.832031 213.515625 C 176.449219 213.359375 176.066406 213.214844 175.675781 213.082031 C 175.285156 212.949219 174.890625 212.832031 174.496094 212.722656 C 174.097656 212.617188 173.695312 212.523438 173.292969 212.445312 C 172.890625 212.363281 172.484375 212.296875 172.074219 212.242188 C 171.667969 212.191406 171.257812 212.148438 170.847656 212.121094 C 170.4375 212.09375 170.023438 212.082031 169.613281 212.082031 C 169.203125 212.082031 168.792969 212.09375 168.378906 212.121094 C 167.96875 212.148438 167.558594 212.191406 167.152344 212.242188 C 166.746094 212.296875 166.339844 212.363281 165.933594 212.445312 C 165.53125 212.523438 165.128906 212.617188 164.734375 212.722656 C 164.335938 212.832031 163.941406 212.949219 163.550781 213.082031 C 163.164062 213.214844 162.777344 213.359375 162.398438 213.515625 C 162.015625 213.675781 161.640625 213.84375 161.273438 214.027344 C 160.902344 214.207031 160.539062 214.402344 160.183594 214.605469 C 159.828125 214.8125 159.480469 215.03125 159.136719 215.257812 C 158.792969 215.488281 158.460938 215.726562 158.132812 215.976562 C 157.804688 216.226562 157.488281 216.488281 157.179688 216.757812 C 156.871094 217.03125 156.570312 217.3125 156.277344 217.601562 C 155.988281 217.894531 155.707031 218.195312 155.433594 218.503906 C 155.164062 218.8125 154.902344 219.128906 154.652344 219.457031 C 154.398438 219.78125 154.160156 220.117188 153.929688 220.460938 C 153.703125 220.800781 153.484375 221.152344 153.277344 221.507812 Z M 218.398438 190.710938 C 216.960938 191.53125 215.648438 192.523438 214.472656 193.6875 C 213.292969 194.847656 212.285156 196.144531 211.445312 197.574219 C 210.609375 199 209.96875 200.511719 209.527344 202.109375 C 209.085938 203.707031 208.859375 205.332031 208.84375 206.988281 C 210.273438 207.828125 211.78125 208.472656 213.378906 208.914062 C 214.976562 209.355469 216.601562 209.585938 218.257812 209.597656 C 219.914062 209.613281 221.542969 209.414062 223.148438 208.996094 C 224.75 208.582031 226.273438 207.964844 227.714844 207.148438 C 229.15625 206.332031 230.464844 205.339844 231.648438 204.179688 C 232.828125 203.015625 233.835938 201.71875 234.675781 200.292969 C 235.511719 198.863281 236.152344 197.347656 236.589844 195.753906 C 237.03125 194.15625 237.253906 192.527344 237.265625 190.871094 C 235.839844 190.035156 234.328125 189.394531 232.730469 188.953125 C 231.132812 188.511719 229.507812 188.285156 227.851562 188.269531 C 226.199219 188.257812 224.570312 188.457031 222.964844 188.871094 C 221.363281 189.285156 219.839844 189.898438 218.398438 190.710938 Z M 225.816406 221.507812 C 224.160156 221.507812 222.53125 221.722656 220.933594 222.15625 C 219.332031 222.585938 217.816406 223.214844 216.382812 224.042969 C 214.949219 224.875 213.648438 225.875 212.476562 227.046875 C 211.308594 228.222656 210.308594 229.523438 209.484375 230.960938 C 209.6875 231.316406 209.90625 231.667969 210.136719 232.007812 C 210.363281 232.351562 210.605469 232.683594 210.855469 233.011719 C 211.105469 233.335938 211.367188 233.65625 211.636719 233.964844 C 211.910156 234.273438 212.191406 234.574219 212.480469 234.863281 C 212.773438 235.15625 213.074219 235.4375 213.382812 235.707031 C 213.691406 235.980469 214.011719 236.238281 214.335938 236.492188 C 214.664062 236.742188 214.996094 236.980469 215.339844 237.207031 C 215.683594 237.4375 216.03125 237.65625 216.386719 237.859375 C 216.746094 238.066406 217.109375 238.257812 217.476562 238.441406 C 217.847656 238.625 218.21875 238.792969 218.601562 238.949219 C 218.980469 239.109375 219.367188 239.253906 219.757812 239.386719 C 220.144531 239.515625 220.539062 239.636719 220.9375 239.742188 C 221.335938 239.851562 221.734375 239.941406 222.136719 240.023438 C 222.542969 240.101562 222.949219 240.171875 223.355469 240.222656 C 223.765625 240.277344 224.171875 240.316406 224.585938 240.34375 C 224.996094 240.371094 225.40625 240.386719 225.816406 240.386719 C 226.230469 240.386719 226.640625 240.371094 227.050781 240.34375 C 227.460938 240.316406 227.871094 240.277344 228.277344 240.222656 C 228.6875 240.171875 229.09375 240.101562 229.496094 240.023438 C 229.898438 239.941406 230.300781 239.851562 230.699219 239.742188 C 231.097656 239.636719 231.488281 239.515625 231.878906 239.386719 C 232.269531 239.253906 232.652344 239.109375 233.035156 238.949219 C 233.414062 238.792969 233.789062 238.625 234.160156 238.441406 C 234.527344 238.257812 234.890625 238.066406 235.246094 237.859375 C 235.601562 237.65625 235.953125 237.4375 236.296875 237.207031 C 236.636719 236.980469 236.972656 236.742188 237.296875 236.492188 C 237.625 236.238281 237.941406 235.980469 238.253906 235.707031 C 238.5625 235.4375 238.863281 235.15625 239.152344 234.863281 C 239.445312 234.574219 239.726562 234.273438 239.996094 233.964844 C 240.269531 233.65625 240.53125 233.335938 240.78125 233.011719 C 241.03125 232.683594 241.269531 232.351562 241.5 232.007812 C 241.730469 231.667969 241.945312 231.316406 242.152344 230.960938 C 241.324219 229.523438 240.328125 228.222656 239.15625 227.046875 C 237.988281 225.875 236.6875 224.875 235.25 224.042969 C 233.816406 223.214844 232.300781 222.585938 230.703125 222.15625 C 229.101562 221.722656 227.472656 221.507812 225.816406 221.507812 Z M 225.816406 221.507812 " fill-opacity="1" fill-rule="nonzero"/><path fill="#a66e4e" d="M 159.324219 249.507812 L 236.109375 249.507812 C 236.503906 249.507812 236.898438 249.546875 237.289062 249.625 C 237.675781 249.703125 238.054688 249.816406 238.421875 249.96875 C 238.789062 250.121094 239.136719 250.308594 239.464844 250.527344 C 239.796875 250.746094 240.101562 251 240.382812 251.277344 C 240.664062 251.558594 240.914062 251.863281 241.132812 252.195312 C 241.355469 252.523438 241.539062 252.871094 241.691406 253.238281 C 241.84375 253.605469 241.957031 253.984375 242.035156 254.375 C 242.113281 254.761719 242.152344 255.15625 242.152344 255.550781 L 242.152344 255.570312 C 242.152344 255.96875 242.113281 256.363281 242.035156 256.75 C 241.957031 257.140625 241.84375 257.519531 241.691406 257.886719 C 241.539062 258.25 241.355469 258.601562 241.132812 258.929688 C 240.914062 259.257812 240.664062 259.566406 240.382812 259.84375 C 240.101562 260.125 239.796875 260.375 239.464844 260.597656 C 239.136719 260.816406 238.789062 261.003906 238.421875 261.15625 C 238.054688 261.308594 237.675781 261.421875 237.289062 261.5 C 236.898438 261.578125 236.503906 261.617188 236.109375 261.617188 L 159.324219 261.617188 C 158.925781 261.617188 158.53125 261.578125 158.144531 261.5 C 157.753906 261.421875 157.375 261.308594 157.007812 261.15625 C 156.644531 261.003906 156.292969 260.816406 155.964844 260.597656 C 155.636719 260.375 155.328125 260.125 155.050781 259.84375 C 154.769531 259.566406 154.519531 259.257812 154.296875 258.929688 C 154.078125 258.601562 153.890625 258.25 153.738281 257.886719 C 153.585938 257.519531 153.472656 257.140625 153.394531 256.75 C 153.316406 256.363281 153.277344 255.96875 153.277344 255.570312 L 153.277344 255.550781 C 153.277344 255.15625 153.316406 254.761719 153.394531 254.375 C 153.472656 253.984375 153.585938 253.605469 153.738281 253.238281 C 153.890625 252.871094 154.078125 252.523438 154.296875 252.195312 C 154.519531 251.863281 154.769531 251.558594 155.050781 251.277344 C 155.328125 251 155.636719 250.746094 155.964844 250.527344 C 156.292969 250.308594 156.644531 250.121094 157.007812 249.96875 C 157.375 249.816406 157.753906 249.703125 158.144531 249.625 C 158.53125 249.546875 158.925781 249.507812 159.324219 249.507812 Z M 159.324219 249.507812 " fill-opacity="1" fill-rule="nonzero"/><g clip-path="url(#1d88c52d04)"><path fill="#000000" d="M 236.109375 247.515625 L 199.710938 247.515625 L 199.710938 240.394531 C 199.710938 239.90625 199.761719 239.425781 199.855469 238.945312 C 199.953125 238.46875 200.09375 238.003906 200.28125 237.554688 C 200.464844 237.105469 200.695312 236.675781 200.964844 236.273438 C 201.238281 235.867188 201.542969 235.492188 201.886719 235.148438 C 202.230469 234.800781 202.605469 234.492188 203.011719 234.222656 C 203.414062 233.949219 203.84375 233.71875 204.292969 233.53125 C 204.742188 233.34375 205.203125 233.203125 205.683594 233.105469 C 206.160156 233.007812 206.640625 232.957031 207.128906 232.953125 L 208.40625 232.953125 C 208.648438 233.324219 208.902344 233.6875 209.167969 234.042969 C 209.429688 234.398438 209.707031 234.742188 209.992188 235.082031 C 210.28125 235.417969 210.578125 235.746094 210.886719 236.0625 C 211.195312 236.382812 211.511719 236.6875 211.839844 236.988281 C 212.167969 237.285156 212.503906 237.570312 212.851562 237.847656 C 213.195312 238.125 213.550781 238.390625 213.914062 238.644531 C 214.277344 238.894531 214.644531 239.136719 215.023438 239.367188 C 215.402344 239.597656 215.789062 239.816406 216.179688 240.019531 C 216.574219 240.226562 216.96875 240.417969 217.375 240.597656 C 217.78125 240.777344 218.1875 240.945312 218.605469 241.101562 C 219.019531 241.253906 219.4375 241.394531 219.863281 241.519531 C 220.289062 241.648438 220.714844 241.761719 221.144531 241.859375 C 221.578125 241.960938 222.011719 242.046875 222.449219 242.117188 C 222.886719 242.191406 223.324219 242.25 223.765625 242.292969 C 224.203125 242.335938 224.644531 242.367188 225.089844 242.382812 C 225.53125 242.398438 225.972656 242.398438 226.414062 242.386719 C 226.859375 242.375 227.300781 242.347656 227.742188 242.308594 C 228.183594 242.265625 228.621094 242.210938 229.058594 242.144531 C 229.496094 242.074219 229.929688 241.992188 230.363281 241.894531 C 230.792969 241.800781 231.222656 241.6875 231.648438 241.566406 C 232.074219 241.441406 232.492188 241.304688 232.910156 241.152344 C 233.324219 241.003906 233.738281 240.839844 234.144531 240.664062 C 234.546875 240.484375 234.949219 240.296875 235.34375 240.09375 C 235.734375 239.890625 236.121094 239.675781 236.503906 239.449219 C 236.882812 239.222656 237.253906 238.984375 237.621094 238.734375 C 237.984375 238.480469 238.339844 238.21875 238.6875 237.945312 C 239.035156 237.671875 239.375 237.386719 239.707031 237.09375 C 240.035156 236.796875 240.355469 236.492188 240.664062 236.175781 C 240.976562 235.859375 241.277344 235.535156 241.566406 235.199219 C 241.855469 234.867188 242.132812 234.523438 242.402344 234.167969 C 242.667969 233.816406 242.925781 233.457031 243.167969 233.085938 C 243.414062 232.71875 243.648438 232.339844 243.867188 231.957031 C 244.046875 231.648438 244.132812 231.316406 244.132812 230.960938 C 244.132812 230.605469 244.046875 230.273438 243.867188 229.964844 C 243.648438 229.578125 243.414062 229.203125 243.167969 228.835938 C 242.925781 228.464844 242.667969 228.105469 242.398438 227.753906 C 242.132812 227.398438 241.855469 227.058594 241.5625 226.722656 C 241.273438 226.386719 240.972656 226.0625 240.664062 225.746094 C 240.351562 225.429688 240.03125 225.125 239.703125 224.832031 C 239.371094 224.535156 239.035156 224.25 238.683594 223.976562 C 238.335938 223.703125 237.980469 223.441406 237.617188 223.191406 C 237.25 222.941406 236.878906 222.703125 236.5 222.476562 C 236.117188 222.25 235.730469 222.035156 235.335938 221.832031 C 234.945312 221.628906 234.542969 221.441406 234.136719 221.265625 C 233.730469 221.085938 233.320312 220.925781 232.90625 220.773438 C 232.488281 220.625 232.066406 220.488281 231.640625 220.363281 C 231.21875 220.238281 230.789062 220.128906 230.355469 220.035156 C 229.925781 219.9375 229.488281 219.855469 229.050781 219.785156 C 228.617188 219.71875 228.175781 219.664062 227.734375 219.625 C 227.292969 219.582031 226.851562 219.554688 226.410156 219.542969 C 225.96875 219.53125 225.527344 219.535156 225.082031 219.550781 C 224.640625 219.566406 224.199219 219.597656 223.757812 219.640625 C 223.320312 219.683594 222.878906 219.742188 222.441406 219.816406 C 222.007812 219.886719 221.574219 219.972656 221.140625 220.074219 C 220.710938 220.171875 220.28125 220.285156 219.859375 220.414062 C 219.433594 220.542969 219.015625 220.683594 218.601562 220.835938 C 218.183594 220.988281 217.773438 221.15625 217.371094 221.335938 C 216.964844 221.515625 216.566406 221.710938 216.175781 221.914062 C 215.785156 222.121094 215.398438 222.339844 215.019531 222.570312 C 214.644531 222.800781 214.273438 223.042969 213.910156 223.296875 C 213.546875 223.550781 213.191406 223.8125 212.847656 224.089844 C 212.5 224.367188 212.164062 224.65625 211.835938 224.953125 C 211.511719 225.25 211.191406 225.558594 210.882812 225.875 C 210.578125 226.195312 210.28125 226.523438 209.992188 226.859375 C 209.707031 227.195312 209.429688 227.542969 209.164062 227.898438 C 208.902344 228.253906 208.648438 228.613281 208.40625 228.984375 L 207.128906 228.984375 C 205.761719 228.984375 204.4375 229.21875 203.160156 229.699219 C 201.878906 230.175781 200.722656 230.863281 199.691406 231.757812 L 199.691406 219.910156 L 204.097656 214.1875 C 205.546875 212.335938 207.21875 210.71875 209.125 209.339844 C 209.515625 209.539062 209.917969 209.726562 210.320312 209.898438 C 210.726562 210.070312 211.136719 210.230469 211.550781 210.378906 C 211.964844 210.527344 212.386719 210.660156 212.808594 210.78125 C 213.234375 210.902344 213.660156 211.007812 214.089844 211.101562 C 214.519531 211.195312 214.953125 211.273438 215.390625 211.339844 C 215.824219 211.40625 216.261719 211.457031 216.699219 211.496094 C 217.140625 211.535156 217.578125 211.558594 218.019531 211.570312 C 218.460938 211.578125 218.898438 211.574219 219.339844 211.558594 C 219.78125 211.539062 220.21875 211.507812 220.65625 211.460938 C 221.097656 211.417969 221.53125 211.355469 221.964844 211.285156 C 222.402344 211.210938 222.832031 211.121094 223.261719 211.023438 C 223.691406 210.921875 224.113281 210.804688 224.535156 210.679688 C 224.957031 210.550781 225.375 210.410156 225.785156 210.253906 C 226.199219 210.101562 226.605469 209.933594 227.007812 209.753906 C 227.410156 209.570312 227.804688 209.378906 228.195312 209.171875 C 228.585938 208.96875 228.96875 208.75 229.34375 208.519531 C 229.71875 208.289062 230.085938 208.050781 230.449219 207.796875 C 230.808594 207.542969 231.160156 207.277344 231.503906 207.003906 C 231.847656 206.726562 232.183594 206.441406 232.507812 206.144531 C 232.832031 205.847656 233.148438 205.539062 233.453125 205.222656 C 233.757812 204.90625 234.054688 204.578125 234.339844 204.242188 C 234.625 203.90625 234.898438 203.5625 235.164062 203.210938 C 235.425781 202.855469 235.675781 202.496094 235.917969 202.125 C 236.15625 201.757812 236.386719 201.382812 236.601562 200.996094 C 236.820312 200.613281 237.023438 200.222656 237.214844 199.828125 C 237.40625 199.429688 237.585938 199.027344 237.75 198.621094 C 237.917969 198.210938 238.070312 197.796875 238.207031 197.382812 C 238.347656 196.964844 238.472656 196.542969 238.585938 196.117188 C 238.699219 195.691406 238.800781 195.261719 238.882812 194.828125 C 238.96875 194.398438 239.042969 193.960938 239.101562 193.527344 C 239.15625 193.089844 239.203125 192.652344 239.230469 192.210938 C 239.261719 191.773438 239.277344 191.332031 239.28125 190.890625 C 239.285156 190.535156 239.199219 190.203125 239.023438 189.894531 C 238.847656 189.582031 238.609375 189.339844 238.304688 189.15625 C 237.917969 188.929688 237.53125 188.714844 237.132812 188.515625 C 236.734375 188.3125 236.332031 188.125 235.925781 187.945312 C 235.515625 187.769531 235.101562 187.609375 234.679688 187.460938 C 234.261719 187.308594 233.839844 187.175781 233.410156 187.050781 C 232.980469 186.929688 232.550781 186.820312 232.113281 186.726562 C 231.679688 186.632812 231.242188 186.550781 230.800781 186.488281 C 230.363281 186.421875 229.917969 186.367188 229.476562 186.332031 C 229.03125 186.292969 228.589844 186.269531 228.144531 186.257812 C 227.699219 186.25 227.253906 186.253906 226.808594 186.273438 C 226.363281 186.292969 225.917969 186.328125 225.476562 186.375 C 225.035156 186.421875 224.59375 186.484375 224.15625 186.558594 C 223.714844 186.636719 223.28125 186.726562 222.847656 186.828125 C 222.414062 186.933594 221.984375 187.050781 221.558594 187.183594 C 221.132812 187.316406 220.714844 187.460938 220.296875 187.617188 C 219.882812 187.777344 219.472656 187.949219 219.066406 188.132812 C 218.660156 188.316406 218.261719 188.515625 217.871094 188.726562 C 217.476562 188.9375 217.09375 189.160156 216.714844 189.394531 C 216.335938 189.628906 215.964844 189.878906 215.605469 190.136719 C 215.242188 190.394531 214.886719 190.664062 214.542969 190.949219 C 214.199219 191.230469 213.863281 191.523438 213.539062 191.824219 C 213.210938 192.128906 212.894531 192.441406 212.589844 192.765625 C 212.285156 193.089844 211.988281 193.421875 211.703125 193.765625 C 211.417969 194.105469 211.144531 194.457031 210.882812 194.816406 C 210.621094 195.179688 210.371094 195.546875 210.132812 195.921875 C 209.894531 196.296875 209.667969 196.679688 209.457031 197.070312 C 209.242188 197.460938 209.039062 197.859375 208.851562 198.261719 C 208.664062 198.667969 208.488281 199.074219 208.328125 199.492188 C 208.164062 199.90625 208.015625 200.324219 207.882812 200.75 C 207.746094 201.171875 207.625 201.601562 207.519531 202.035156 C 207.410156 202.464844 207.316406 202.902344 207.238281 203.339844 C 207.15625 203.777344 207.09375 204.21875 207.042969 204.660156 C 206.988281 205.101562 206.953125 205.546875 206.929688 205.988281 C 204.65625 207.621094 202.660156 209.542969 200.945312 211.753906 L 199.710938 213.371094 L 199.710938 192.109375 C 199.703125 188.859375 200.183594 185.679688 201.144531 182.574219 C 202.835938 182.46875 204.492188 182.160156 206.109375 181.648438 C 207.726562 181.140625 209.257812 180.441406 210.703125 179.558594 C 212.152344 178.679688 213.472656 177.632812 214.664062 176.429688 C 215.859375 175.226562 216.890625 173.898438 217.761719 172.441406 C 218.6875 170.859375 219.394531 169.179688 219.882812 167.410156 C 220.367188 165.640625 220.617188 163.835938 220.628906 162 C 220.640625 160.164062 220.417969 158.359375 219.953125 156.582031 C 219.492188 154.804688 218.804688 153.117188 217.898438 151.519531 C 217.726562 151.210938 217.484375 150.964844 217.179688 150.78125 C 216.871094 150.601562 216.539062 150.507812 216.183594 150.503906 C 214.355469 150.496094 212.554688 150.726562 210.785156 151.191406 C 209.015625 151.652344 207.335938 152.335938 205.742188 153.238281 C 204.152344 154.140625 202.703125 155.234375 201.394531 156.515625 C 200.089844 157.796875 198.96875 159.222656 198.035156 160.796875 C 198.035156 160.933594 197.894531 161.09375 197.816406 161.253906 C 196.34375 159.96875 194.691406 158.984375 192.863281 158.300781 C 191.03125 157.617188 189.140625 157.277344 187.183594 157.285156 L 187.023438 157.285156 C 186.667969 157.289062 186.335938 157.382812 186.03125 157.5625 C 185.726562 157.746094 185.484375 157.992188 185.308594 158.300781 C 184.984375 158.875 184.699219 159.464844 184.445312 160.070312 C 184.191406 160.675781 183.976562 161.296875 183.800781 161.929688 C 183.621094 162.5625 183.484375 163.203125 183.382812 163.855469 C 183.285156 164.503906 183.226562 165.15625 183.203125 165.8125 C 183.183594 166.46875 183.203125 167.125 183.261719 167.78125 C 183.320312 168.433594 183.417969 169.082031 183.554688 169.726562 C 183.695312 170.371094 183.867188 171 184.082031 171.621094 C 184.296875 172.246094 184.546875 172.851562 184.835938 173.441406 C 185.121094 174.03125 185.445312 174.605469 185.800781 175.15625 C 186.160156 175.707031 186.546875 176.238281 186.96875 176.742188 C 187.386719 177.246094 187.839844 177.722656 188.316406 178.175781 C 188.796875 178.625 189.300781 179.046875 189.828125 179.433594 C 190.359375 179.824219 190.910156 180.179688 191.480469 180.503906 C 192.054688 180.824219 192.644531 181.113281 193.253906 181.363281 C 193.859375 181.613281 194.480469 181.828125 195.113281 182.003906 C 195.746094 182.179688 196.386719 182.316406 197.039062 182.414062 C 196.164062 185.574219 195.726562 188.792969 195.722656 192.070312 L 195.722656 203.335938 L 194.484375 201.722656 C 192.769531 199.507812 190.777344 197.585938 188.5 195.957031 C 188.476562 195.515625 188.4375 195.070312 188.386719 194.628906 C 188.332031 194.191406 188.265625 193.75 188.183594 193.3125 C 188.101562 192.878906 188.007812 192.441406 187.898438 192.011719 C 187.792969 191.582031 187.667969 191.15625 187.53125 190.730469 C 187.398438 190.308594 187.246094 189.890625 187.085938 189.476562 C 186.921875 189.0625 186.746094 188.65625 186.558594 188.253906 C 186.367188 187.851562 186.167969 187.457031 185.953125 187.066406 C 185.738281 186.679688 185.511719 186.296875 185.273438 185.921875 C 185.035156 185.546875 184.785156 185.179688 184.523438 184.820312 C 184.257812 184.464844 183.984375 184.113281 183.703125 183.773438 C 183.417969 183.429688 183.121094 183.097656 182.816406 182.777344 C 182.511719 182.453125 182.195312 182.140625 181.867188 181.839844 C 181.542969 181.539062 181.207031 181.246094 180.863281 180.964844 C 180.519531 180.6875 180.167969 180.417969 179.804688 180.160156 C 179.441406 179.898438 179.074219 179.652344 178.695312 179.417969 C 178.320312 179.183594 177.933594 178.964844 177.542969 178.753906 C 177.152344 178.542969 176.753906 178.347656 176.347656 178.164062 C 175.945312 177.976562 175.535156 177.808594 175.121094 177.648438 C 174.703125 177.492188 174.285156 177.347656 173.859375 177.214844 C 173.433594 177.082031 173.007812 176.964844 172.574219 176.863281 C 172.144531 176.757812 171.707031 176.667969 171.269531 176.59375 C 170.832031 176.515625 170.394531 176.457031 169.953125 176.40625 C 169.511719 176.359375 169.066406 176.324219 168.625 176.304688 C 168.179688 176.285156 167.734375 176.28125 167.292969 176.289062 C 166.847656 176.300781 166.402344 176.324219 165.960938 176.359375 C 165.519531 176.398438 165.078125 176.449219 164.636719 176.515625 C 164.199219 176.578125 163.761719 176.660156 163.328125 176.753906 C 162.894531 176.847656 162.460938 176.953125 162.035156 177.074219 C 161.609375 177.195312 161.183594 177.332031 160.765625 177.480469 C 160.347656 177.628906 159.933594 177.789062 159.523438 177.964844 C 159.117188 178.136719 158.714844 178.324219 158.316406 178.527344 C 157.921875 178.726562 157.53125 178.9375 157.148438 179.164062 C 156.84375 179.347656 156.601562 179.589844 156.425781 179.902344 C 156.253906 180.210938 156.167969 180.542969 156.171875 180.898438 C 156.171875 181.339844 156.1875 181.78125 156.21875 182.21875 C 156.25 182.660156 156.292969 183.097656 156.351562 183.535156 C 156.410156 183.96875 156.480469 184.40625 156.566406 184.835938 C 156.652344 185.269531 156.75 185.699219 156.863281 186.125 C 156.976562 186.550781 157.101562 186.972656 157.242188 187.390625 C 157.382812 187.804688 157.535156 188.21875 157.699219 188.628906 C 157.867188 189.035156 158.046875 189.4375 158.238281 189.835938 C 158.429688 190.230469 158.632812 190.621094 158.847656 191.003906 C 159.066406 191.390625 159.292969 191.765625 159.535156 192.132812 C 159.773438 192.503906 160.027344 192.863281 160.289062 193.21875 C 160.550781 193.570312 160.824219 193.914062 161.109375 194.25 C 161.394531 194.585938 161.691406 194.914062 161.996094 195.230469 C 162.304688 195.546875 162.617188 195.855469 162.945312 196.152344 C 163.269531 196.449219 163.605469 196.734375 163.949219 197.011719 C 164.292969 197.285156 164.644531 197.550781 165.003906 197.804688 C 165.363281 198.058594 165.730469 198.296875 166.109375 198.527344 C 166.484375 198.757812 166.867188 198.976562 167.253906 199.179688 C 167.644531 199.386719 168.039062 199.578125 168.441406 199.761719 C 168.84375 199.941406 169.25 200.109375 169.664062 200.261719 C 170.078125 200.417969 170.492188 200.558594 170.914062 200.6875 C 171.335938 200.8125 171.761719 200.929688 172.191406 201.03125 C 172.621094 201.128906 173.050781 201.21875 173.484375 201.292969 C 173.917969 201.363281 174.355469 201.425781 174.792969 201.46875 C 175.230469 201.515625 175.671875 201.546875 176.109375 201.566406 C 176.550781 201.582031 176.992188 201.585938 177.429688 201.578125 C 177.871094 201.566406 178.3125 201.542969 178.75 201.503906 C 179.1875 201.464844 179.625 201.414062 180.0625 201.347656 C 180.496094 201.28125 180.929688 201.203125 181.359375 201.109375 C 181.792969 201.015625 182.21875 200.910156 182.640625 200.789062 C 183.066406 200.667969 183.484375 200.535156 183.898438 200.386719 C 184.316406 200.238281 184.726562 200.078125 185.128906 199.90625 C 185.535156 199.734375 185.933594 199.546875 186.328125 199.347656 C 188.214844 200.730469 189.878906 202.34375 191.3125 204.195312 L 195.722656 209.917969 L 195.722656 222.304688 C 194.6875 221.414062 193.53125 220.726562 192.25 220.25 C 190.96875 219.773438 189.648438 219.535156 188.28125 219.53125 L 187.003906 219.53125 C 186.761719 219.160156 186.511719 218.796875 186.246094 218.445312 C 185.980469 218.089844 185.703125 217.742188 185.417969 217.40625 C 185.128906 217.070312 184.832031 216.742188 184.523438 216.425781 C 184.21875 216.105469 183.898438 215.796875 183.570312 215.5 C 183.242188 215.203125 182.90625 214.914062 182.5625 214.640625 C 182.214844 214.363281 181.859375 214.097656 181.5 213.84375 C 181.136719 213.589844 180.765625 213.347656 180.386719 213.121094 C 180.007812 212.890625 179.625 212.671875 179.230469 212.464844 C 178.839844 212.261719 178.441406 212.066406 178.035156 211.886719 C 177.632812 211.707031 177.222656 211.542969 176.808594 211.386719 C 176.390625 211.234375 175.972656 211.09375 175.546875 210.964844 C 175.125 210.839844 174.695312 210.726562 174.265625 210.625 C 173.832031 210.527344 173.398438 210.441406 172.964844 210.367188 C 172.527344 210.296875 172.085938 210.238281 171.648438 210.195312 C 171.207031 210.152344 170.765625 210.121094 170.324219 210.105469 C 169.878906 210.089844 169.4375 210.085938 168.996094 210.101562 C 168.554688 210.113281 168.109375 210.140625 167.671875 210.179688 C 167.230469 210.21875 166.789062 210.273438 166.351562 210.34375 C 165.914062 210.414062 165.480469 210.496094 165.050781 210.589844 C 164.617188 210.6875 164.1875 210.796875 163.761719 210.921875 C 163.339844 211.046875 162.917969 211.183594 162.5 211.332031 C 162.085938 211.484375 161.675781 211.648438 161.269531 211.824219 C 160.863281 212 160.464844 212.191406 160.070312 212.394531 C 159.675781 212.597656 159.289062 212.8125 158.910156 213.039062 C 158.527344 213.265625 158.15625 213.503906 157.792969 213.753906 C 157.425781 214.003906 157.070312 214.269531 156.722656 214.542969 C 156.375 214.816406 156.035156 215.097656 155.707031 215.394531 C 155.375 215.691406 155.054688 215.996094 154.746094 216.3125 C 154.433594 216.625 154.136719 216.953125 153.847656 217.285156 C 153.554688 217.621094 153.277344 217.964844 153.011719 218.316406 C 152.742188 218.671875 152.484375 219.03125 152.242188 219.398438 C 151.996094 219.769531 151.765625 220.144531 151.542969 220.53125 C 151.367188 220.839844 151.277344 221.171875 151.277344 221.527344 C 151.277344 221.882812 151.367188 222.214844 151.542969 222.523438 C 151.765625 222.910156 151.996094 223.285156 152.242188 223.65625 C 152.484375 224.023438 152.738281 224.386719 153.007812 224.738281 C 153.273438 225.09375 153.554688 225.4375 153.84375 225.773438 C 154.132812 226.105469 154.429688 226.433594 154.742188 226.75 C 155.050781 227.066406 155.371094 227.371094 155.703125 227.667969 C 156.03125 227.964844 156.371094 228.246094 156.71875 228.523438 C 157.066406 228.796875 157.421875 229.058594 157.785156 229.308594 C 158.152344 229.5625 158.523438 229.800781 158.902344 230.027344 C 159.285156 230.257812 159.671875 230.472656 160.066406 230.675781 C 160.457031 230.875 160.859375 231.066406 161.265625 231.242188 C 161.671875 231.421875 162.082031 231.585938 162.496094 231.734375 C 162.914062 231.886719 163.335938 232.023438 163.761719 232.148438 C 164.183594 232.273438 164.613281 232.382812 165.046875 232.480469 C 165.480469 232.574219 165.914062 232.660156 166.351562 232.726562 C 166.789062 232.796875 167.226562 232.851562 167.667969 232.890625 C 168.109375 232.933594 168.550781 232.960938 168.996094 232.972656 C 169.4375 232.984375 169.878906 232.980469 170.324219 232.964844 C 170.765625 232.949219 171.207031 232.921875 171.648438 232.875 C 172.089844 232.832031 172.527344 232.773438 172.964844 232.703125 C 173.402344 232.628906 173.835938 232.542969 174.265625 232.445312 C 174.699219 232.34375 175.125 232.230469 175.550781 232.101562 C 175.976562 231.976562 176.394531 231.835938 176.808594 231.679688 C 177.226562 231.527344 177.636719 231.359375 178.039062 231.179688 C 178.445312 231 178.84375 230.804688 179.234375 230.601562 C 179.628906 230.394531 180.011719 230.175781 180.390625 229.945312 C 180.769531 229.714844 181.140625 229.472656 181.503906 229.21875 C 181.867188 228.964844 182.21875 228.699219 182.566406 228.421875 C 182.910156 228.144531 183.246094 227.859375 183.574219 227.558594 C 183.902344 227.261719 184.21875 226.953125 184.527344 226.636719 C 184.835938 226.316406 185.132812 225.988281 185.417969 225.652344 C 185.707031 225.3125 185.980469 224.964844 186.246094 224.609375 C 186.511719 224.257812 186.765625 223.894531 187.003906 223.519531 L 188.28125 223.519531 C 188.769531 223.523438 189.253906 223.570312 189.734375 223.667969 C 190.214844 223.765625 190.679688 223.90625 191.128906 224.09375 C 191.582031 224.28125 192.011719 224.511719 192.417969 224.785156 C 192.824219 225.058594 193.199219 225.367188 193.542969 225.714844 C 193.890625 226.058594 194.195312 226.4375 194.46875 226.84375 C 194.738281 227.25 194.96875 227.679688 195.15625 228.128906 C 195.34375 228.582031 195.484375 229.046875 195.578125 229.527344 C 195.671875 230.007812 195.722656 230.492188 195.722656 230.980469 L 195.722656 247.535156 L 159.261719 247.535156 C 158.734375 247.535156 158.214844 247.585938 157.695312 247.6875 C 157.179688 247.792969 156.675781 247.945312 156.191406 248.144531 C 155.703125 248.347656 155.242188 248.59375 154.800781 248.886719 C 154.363281 249.179688 153.957031 249.511719 153.585938 249.886719 C 153.214844 250.257812 152.878906 250.664062 152.585938 251.101562 C 152.292969 251.539062 152.046875 252.003906 151.847656 252.488281 C 151.644531 252.976562 151.492188 253.480469 151.390625 253.996094 C 151.285156 254.511719 151.234375 255.035156 151.234375 255.5625 C 151.234375 256.089844 151.285156 256.613281 151.390625 257.128906 C 151.492188 257.644531 151.644531 258.148438 151.847656 258.632812 C 152.046875 259.121094 152.292969 259.582031 152.585938 260.023438 C 152.878906 260.460938 153.214844 260.867188 153.585938 261.238281 C 153.957031 261.613281 154.363281 261.945312 154.800781 262.238281 C 155.242188 262.53125 155.703125 262.777344 156.191406 262.980469 C 156.675781 263.179688 157.179688 263.332031 157.695312 263.4375 C 158.214844 263.539062 158.734375 263.589844 159.261719 263.589844 L 236.050781 263.589844 C 236.578125 263.589844 237.101562 263.539062 237.617188 263.433594 C 238.136719 263.332031 238.636719 263.179688 239.125 262.976562 C 239.613281 262.777344 240.074219 262.527344 240.515625 262.234375 C 240.953125 261.941406 241.359375 261.609375 241.734375 261.234375 C 242.105469 260.863281 242.4375 260.457031 242.730469 260.019531 C 243.027344 259.578125 243.273438 259.117188 243.476562 258.628906 C 243.675781 258.140625 243.828125 257.636719 243.933594 257.121094 C 244.035156 256.601562 244.085938 256.078125 244.085938 255.550781 C 244.085938 255.023438 244.035156 254.5 243.933594 253.984375 C 243.828125 253.464844 243.675781 252.964844 243.476562 252.476562 C 243.273438 251.988281 243.027344 251.527344 242.730469 251.085938 C 242.4375 250.648438 242.105469 250.242188 241.734375 249.867188 C 241.359375 249.496094 240.953125 249.164062 240.515625 248.871094 C 240.074219 248.574219 239.613281 248.328125 239.125 248.125 C 238.636719 247.925781 238.136719 247.773438 237.617188 247.667969 C 237.101562 247.566406 236.578125 247.515625 236.050781 247.515625 Z M 225.816406 223.582031 C 227.195312 223.585938 228.554688 223.757812 229.894531 224.097656 C 231.230469 224.433594 232.507812 224.929688 233.722656 225.578125 C 234.941406 226.230469 236.058594 227.015625 237.085938 227.941406 C 238.109375 228.863281 239.007812 229.898438 239.777344 231.039062 C 239.425781 231.566406 239.042969 232.070312 238.632812 232.554688 C 238.222656 233.039062 237.785156 233.496094 237.324219 233.929688 C 236.863281 234.363281 236.375 234.769531 235.867188 235.148438 C 235.359375 235.527344 234.832031 235.875 234.285156 236.195312 C 233.734375 236.515625 233.171875 236.800781 232.59375 237.058594 C 232.011719 237.3125 231.417969 237.535156 230.8125 237.722656 C 230.207031 237.910156 229.59375 238.0625 228.972656 238.183594 C 228.347656 238.300781 227.722656 238.386719 227.089844 238.433594 C 226.457031 238.480469 225.824219 238.492188 225.191406 238.46875 C 224.558594 238.445312 223.925781 238.386719 223.300781 238.289062 C 222.675781 238.195312 222.054688 238.066406 221.441406 237.902344 C 220.832031 237.734375 220.230469 237.535156 219.640625 237.304688 C 219.050781 237.070312 218.476562 236.804688 217.917969 236.507812 C 217.355469 236.210938 216.816406 235.878906 216.292969 235.523438 C 215.773438 235.164062 215.269531 234.773438 214.792969 234.359375 C 214.3125 233.941406 213.859375 233.5 213.433594 233.035156 L 230.625 233.035156 C 230.890625 233.035156 231.144531 232.984375 231.386719 232.882812 C 231.632812 232.78125 231.847656 232.636719 232.035156 232.449219 C 232.222656 232.261719 232.367188 232.046875 232.46875 231.804688 C 232.566406 231.558594 232.617188 231.304688 232.617188 231.039062 C 232.617188 230.777344 232.566406 230.519531 232.46875 230.277344 C 232.367188 230.03125 232.222656 229.816406 232.035156 229.628906 C 231.847656 229.441406 231.632812 229.300781 231.386719 229.199219 C 231.144531 229.097656 230.890625 229.046875 230.625 229.046875 L 213.453125 229.046875 C 214.234375 228.179688 215.097656 227.40625 216.042969 226.722656 C 216.984375 226.035156 217.988281 225.453125 219.054688 224.976562 C 220.117188 224.5 221.21875 224.136719 222.359375 223.890625 C 223.5 223.640625 224.652344 223.511719 225.816406 223.5 Z M 219.394531 192.386719 C 220.597656 191.710938 221.863281 191.191406 223.191406 190.824219 C 224.519531 190.457031 225.875 190.257812 227.25 190.21875 C 228.628906 190.183594 229.992188 190.3125 231.339844 190.609375 C 232.683594 190.90625 233.976562 191.359375 235.210938 191.96875 C 235.164062 192.601562 235.082031 193.230469 234.964844 193.851562 C 234.847656 194.476562 234.695312 195.089844 234.507812 195.699219 C 234.320312 196.304688 234.097656 196.898438 233.84375 197.480469 C 233.589844 198.058594 233.300781 198.625 232.984375 199.171875 C 232.664062 199.722656 232.316406 200.25 231.9375 200.761719 C 231.558594 201.269531 231.152344 201.753906 230.71875 202.21875 C 230.285156 202.679688 229.828125 203.117188 229.34375 203.53125 C 228.859375 203.941406 228.355469 204.324219 227.828125 204.675781 C 227.300781 205.03125 226.757812 205.351562 226.195312 205.644531 C 225.628906 205.9375 225.050781 206.195312 224.460938 206.421875 C 223.867188 206.648438 223.261719 206.84375 222.648438 207 C 222.035156 207.160156 221.414062 207.28125 220.785156 207.371094 C 220.15625 207.457031 219.523438 207.507812 218.890625 207.523438 C 218.257812 207.542969 217.621094 207.519531 216.992188 207.464844 C 216.359375 207.410156 215.730469 207.320312 215.109375 207.191406 C 214.488281 207.066406 213.875 206.902344 213.273438 206.707031 L 228.351562 198.152344 C 228.582031 198.019531 228.777344 197.847656 228.9375 197.636719 C 229.101562 197.425781 229.214844 197.195312 229.285156 196.9375 C 229.351562 196.683594 229.371094 196.421875 229.335938 196.160156 C 229.300781 195.898438 229.21875 195.648438 229.085938 195.421875 C 228.957031 195.191406 228.785156 194.992188 228.574219 194.832031 C 228.363281 194.671875 228.128906 194.554688 227.875 194.484375 C 227.617188 194.414062 227.359375 194.398438 227.097656 194.433594 C 226.832031 194.464844 226.585938 194.550781 226.355469 194.679688 L 211.316406 203.296875 C 211.578125 202.160156 211.953125 201.058594 212.441406 199.996094 C 212.925781 198.9375 213.519531 197.933594 214.214844 196.996094 C 214.910156 196.058594 215.691406 195.199219 216.566406 194.421875 C 217.4375 193.648438 218.382812 192.96875 219.394531 192.386719 Z M 168.695312 195.417969 C 167.5 194.734375 166.402344 193.914062 165.402344 192.960938 C 164.40625 192.003906 163.539062 190.945312 162.796875 189.777344 C 162.058594 188.613281 161.472656 187.375 161.035156 186.066406 C 160.601562 184.753906 160.328125 183.414062 160.21875 182.035156 C 160.789062 181.75 161.367188 181.5 161.964844 181.28125 C 162.5625 181.0625 163.167969 180.875 163.785156 180.726562 C 164.402344 180.574219 165.023438 180.460938 165.65625 180.382812 C 166.285156 180.300781 166.917969 180.257812 167.550781 180.25 C 168.1875 180.242188 168.820312 180.269531 169.453125 180.332031 C 170.082031 180.398438 170.710938 180.496094 171.332031 180.628906 C 171.949219 180.765625 172.5625 180.933594 173.164062 181.136719 C 173.765625 181.34375 174.351562 181.578125 174.925781 181.851562 C 175.5 182.121094 176.058594 182.421875 176.597656 182.757812 C 177.140625 183.089844 177.660156 183.453125 178.160156 183.84375 C 178.65625 184.238281 179.132812 184.65625 179.585938 185.105469 C 180.035156 185.550781 180.460938 186.019531 180.859375 186.515625 C 181.257812 187.007812 181.625 187.523438 181.964844 188.0625 C 182.304688 188.597656 182.613281 189.152344 182.890625 189.722656 C 183.167969 190.292969 183.414062 190.878906 183.625 191.476562 C 183.835938 192.078125 184.011719 192.6875 184.152344 193.304688 L 169.015625 184.75 C 168.785156 184.617188 168.539062 184.535156 168.277344 184.5 C 168.011719 184.464844 167.753906 184.484375 167.496094 184.550781 C 167.238281 184.621094 167.007812 184.738281 166.796875 184.898438 C 166.585938 185.0625 166.414062 185.257812 166.28125 185.488281 C 166.152344 185.71875 166.066406 185.964844 166.035156 186.226562 C 166 186.488281 166.015625 186.75 166.085938 187.007812 C 166.15625 187.261719 166.269531 187.496094 166.433594 187.707031 C 166.59375 187.914062 166.789062 188.085938 167.019531 188.21875 L 182.097656 196.777344 C 180.996094 197.128906 179.867188 197.363281 178.714844 197.484375 C 177.5625 197.605469 176.410156 197.609375 175.257812 197.492188 C 174.105469 197.375 172.976562 197.140625 171.871094 196.792969 C 170.765625 196.445312 169.707031 195.984375 168.695312 195.417969 Z M 169.613281 228.964844 C 168.234375 228.960938 166.875 228.789062 165.539062 228.449219 C 164.203125 228.113281 162.925781 227.617188 161.707031 226.96875 C 160.492188 226.316406 159.371094 225.53125 158.347656 224.609375 C 157.320312 223.683594 156.425781 222.648438 155.652344 221.507812 C 156.003906 220.980469 156.386719 220.476562 156.796875 219.992188 C 157.207031 219.507812 157.644531 219.050781 158.109375 218.617188 C 158.570312 218.183594 159.054688 217.777344 159.5625 217.398438 C 160.070312 217.019531 160.597656 216.671875 161.148438 216.351562 C 161.695312 216.03125 162.257812 215.746094 162.839844 215.492188 C 163.417969 215.234375 164.011719 215.011719 164.617188 214.824219 C 165.222656 214.636719 165.835938 214.484375 166.460938 214.363281 C 167.082031 214.246094 167.710938 214.164062 168.339844 214.113281 C 168.972656 214.066406 169.605469 214.054688 170.238281 214.078125 C 170.875 214.101562 171.503906 214.160156 172.128906 214.257812 C 172.757812 214.351562 173.375 214.480469 173.988281 214.644531 C 174.601562 214.8125 175.203125 215.011719 175.792969 215.242188 C 176.378906 215.476562 176.957031 215.742188 177.515625 216.039062 C 178.074219 216.335938 178.613281 216.667969 179.136719 217.027344 C 179.660156 217.386719 180.160156 217.773438 180.636719 218.1875 C 181.117188 218.605469 181.570312 219.046875 182 219.511719 L 176.554688 219.511719 C 176.289062 219.511719 176.035156 219.5625 175.792969 219.664062 C 175.546875 219.765625 175.332031 219.910156 175.144531 220.097656 C 174.957031 220.285156 174.8125 220.5 174.710938 220.742188 C 174.609375 220.988281 174.558594 221.242188 174.558594 221.507812 C 174.558594 221.769531 174.609375 222.027344 174.710938 222.269531 C 174.8125 222.515625 174.957031 222.730469 175.144531 222.917969 C 175.332031 223.105469 175.546875 223.25 175.792969 223.347656 C 176.035156 223.449219 176.289062 223.5 176.554688 223.5 L 181.980469 223.5 C 181.191406 224.359375 180.328125 225.125 179.382812 225.804688 C 178.4375 226.484375 177.433594 227.058594 176.367188 227.527344 C 175.304688 228 174.203125 228.355469 173.066406 228.597656 C 171.925781 228.839844 170.777344 228.960938 169.613281 228.964844 Z M 201.523438 162.808594 C 202.222656 161.621094 203.054688 160.535156 204.015625 159.550781 C 204.980469 158.566406 206.046875 157.714844 207.21875 156.988281 C 208.390625 156.265625 209.628906 155.691406 210.941406 155.269531 C 212.25 154.847656 213.59375 154.589844 214.96875 154.492188 C 215.25 155.078125 215.5 155.675781 215.710938 156.285156 C 215.925781 156.898438 216.101562 157.523438 216.246094 158.15625 C 216.386719 158.789062 216.492188 159.425781 216.558594 160.070312 C 216.625 160.714844 216.65625 161.363281 216.652344 162.011719 C 216.644531 162.660156 216.601562 163.304688 216.519531 163.949219 C 216.4375 164.59375 216.320312 165.230469 216.164062 165.859375 C 216.007812 166.488281 215.820312 167.105469 215.59375 167.714844 C 215.367188 168.324219 215.105469 168.914062 214.8125 169.492188 C 214.515625 170.070312 214.191406 170.628906 213.832031 171.167969 C 213.472656 171.710938 213.082031 172.226562 212.664062 172.722656 C 212.246094 173.214844 211.800781 173.6875 211.328125 174.128906 C 210.851562 174.574219 210.355469 174.988281 209.835938 175.375 C 209.316406 175.761719 208.773438 176.117188 208.210938 176.4375 C 207.648438 176.761719 207.070312 177.054688 206.476562 177.308594 C 205.878906 177.566406 205.273438 177.789062 204.652344 177.976562 C 204.03125 178.160156 203.398438 178.3125 202.761719 178.425781 C 203.492188 176.84375 204.347656 175.335938 205.335938 173.898438 L 209.542969 167.734375 C 209.695312 167.515625 209.796875 167.277344 209.851562 167.015625 C 209.90625 166.753906 209.910156 166.496094 209.863281 166.234375 C 209.8125 165.972656 209.714844 165.726562 209.570312 165.503906 C 209.425781 165.28125 209.242188 165.09375 209.023438 164.945312 C 208.804688 164.792969 208.566406 164.691406 208.304688 164.636719 C 208.042969 164.578125 207.78125 164.578125 207.519531 164.625 C 207.257812 164.671875 207.015625 164.769531 206.792969 164.914062 C 206.570312 165.0625 206.382812 165.242188 206.230469 165.460938 L 202.023438 171.625 C 201.167969 172.902344 200.402344 174.230469 199.730469 175.613281 C 199.160156 173.449219 199.023438 171.257812 199.324219 169.039062 C 199.625 166.820312 200.339844 164.746094 201.464844 162.808594 Z M 188.941406 172.582031 C 188.449219 171.734375 188.0625 170.839844 187.78125 169.902344 C 187.5 168.960938 187.332031 168 187.277344 167.023438 C 187.222656 166.042969 187.285156 165.070312 187.460938 164.105469 C 187.636719 163.140625 187.925781 162.210938 188.320312 161.3125 C 189.847656 161.433594 191.296875 161.824219 192.671875 162.488281 C 194.050781 163.152344 195.257812 164.042969 196.300781 165.164062 C 195.628906 167.300781 195.316406 169.488281 195.355469 171.722656 C 195.398438 173.960938 195.792969 176.136719 196.539062 178.246094 C 194.933594 177.851562 193.46875 177.164062 192.140625 176.183594 C 190.8125 175.203125 189.726562 174 188.878906 172.582031 Z M 236.109375 259.601562 L 159.261719 259.601562 C 158.996094 259.601562 158.734375 259.574219 158.472656 259.523438 C 158.210938 259.472656 157.957031 259.394531 157.714844 259.292969 C 157.46875 259.191406 157.234375 259.066406 157.011719 258.917969 C 156.792969 258.769531 156.585938 258.601562 156.398438 258.414062 C 156.210938 258.226562 156.042969 258.023438 155.894531 257.800781 C 155.75 257.582031 155.625 257.347656 155.523438 257.101562 C 155.421875 256.855469 155.34375 256.601562 155.292969 256.34375 C 155.238281 256.082031 155.214844 255.816406 155.214844 255.550781 C 155.214844 255.285156 155.238281 255.023438 155.292969 254.761719 C 155.34375 254.5 155.421875 254.25 155.523438 254.003906 C 155.625 253.757812 155.75 253.523438 155.894531 253.304688 C 156.042969 253.082031 156.210938 252.878906 156.398438 252.6875 C 156.585938 252.5 156.792969 252.332031 157.011719 252.1875 C 157.234375 252.039062 157.46875 251.914062 157.714844 251.8125 C 157.957031 251.710938 158.210938 251.632812 158.472656 251.582031 C 158.734375 251.53125 158.996094 251.503906 159.261719 251.503906 L 236.050781 251.503906 C 236.316406 251.503906 236.578125 251.53125 236.839844 251.582031 C 237.101562 251.632812 237.351562 251.710938 237.597656 251.8125 C 237.84375 251.914062 238.078125 252.039062 238.296875 252.1875 C 238.519531 252.332031 238.722656 252.5 238.910156 252.6875 C 239.101562 252.878906 239.269531 253.082031 239.414062 253.304688 C 239.5625 253.523438 239.6875 253.757812 239.789062 254.003906 C 239.890625 254.25 239.96875 254.5 240.019531 254.761719 C 240.070312 255.023438 240.097656 255.285156 240.097656 255.550781 C 240.097656 255.816406 240.070312 256.082031 240.019531 256.34375 C 239.96875 256.601562 239.890625 256.855469 239.789062 257.101562 C 239.6875 257.347656 239.5625 257.582031 239.414062 257.800781 C 239.269531 258.023438 239.101562 258.226562 238.910156 258.414062 C 238.722656 258.601562 238.519531 258.769531 238.296875 258.917969 C 238.078125 259.066406 237.84375 259.191406 237.597656 259.292969 C 237.351562 259.394531 237.101562 259.472656 236.839844 259.523438 C 236.578125 259.574219 236.316406 259.601562 236.050781 259.601562 Z M 169.234375 221.507812 C 169.234375 221.769531 169.183594 222.027344 169.082031 222.269531 C 168.980469 222.515625 168.835938 222.730469 168.652344 222.917969 C 168.464844 223.105469 168.246094 223.25 168.003906 223.347656 C 167.757812 223.449219 167.503906 223.5 167.242188 223.5 L 164.25 223.5 C 163.984375 223.5 163.730469 223.449219 163.484375 223.347656 C 163.242188 223.25 163.023438 223.105469 162.839844 222.917969 C 162.652344 222.730469 162.507812 222.515625 162.40625 222.269531 C 162.304688 222.027344 162.253906 221.769531 162.253906 221.507812 C 162.253906 221.242188 162.304688 220.988281 162.40625 220.742188 C 162.507812 220.5 162.652344 220.285156 162.839844 220.097656 C 163.023438 219.910156 163.242188 219.765625 163.484375 219.664062 C 163.730469 219.5625 163.984375 219.511719 164.25 219.511719 L 167.242188 219.511719 C 167.503906 219.511719 167.757812 219.5625 168.003906 219.664062 C 168.246094 219.765625 168.464844 219.910156 168.652344 220.097656 C 168.835938 220.285156 168.980469 220.5 169.082031 220.742188 C 169.183594 220.988281 169.234375 221.242188 169.234375 221.507812 Z M 169.234375 221.507812 " fill-opacity="1" fill-rule="nonzero"/></g></svg>