<svg xmlns="http://www.w3.org/2000/svg" xmlns:xlink="http://www.w3.org/1999/xlink" width="500" zoomAndPan="magnify" viewBox="0 0 375 374.999991" height="500" preserveAspectRatio="xMidYMid meet" version="1.0"><defs><clipPath id="021aa4851f"><path d="M 81.714844 0 L 353.964844 0 L 353.964844 342 L 81.714844 342 Z M 81.714844 0 " clip-rule="nonzero"/></clipPath></defs><g clip-path="url(#021aa4851f)"><path fill="#3d7746" d="M 353.242188 1.054688 C 353.128906 0.378906 352.566406 0.140625 352.042969 0.496094 C 351.269531 1.011719 350.539062 1.632812 349.902344 2.324219 C 349.105469 3.195312 348.464844 4.210938 347.683594 5.097656 C 346.386719 6.558594 344.972656 7.925781 343.722656 9.421875 C 342.742188 10.605469 342 11.984375 341.023438 13.171875 C 339.402344 15.140625 337.390625 16.847656 336.070312 18.980469 C 334.417969 21.636719 332.265625 24 331.195312 27.023438 C 330.1875 29.859375 327.945312 32.15625 327.578125 35.28125 C 327.554688 35.496094 327.300781 35.671875 327.230469 35.890625 C 326.886719 37.011719 326.378906 38.121094 326.269531 39.265625 C 326.011719 41.980469 325.824219 44.710938 325.84375 47.433594 C 325.859375 50.035156 326.042969 52.65625 326.378906 55.242188 C 326.707031 57.824219 327.328125 60.371094 327.785156 62.9375 C 327.878906 63.457031 327.925781 64.015625 327.824219 64.523438 C 327.804688 64.621094 327.78125 64.71875 327.761719 64.820312 C 328.882812 67.449219 327.648438 70.238281 327.023438 72.925781 C 326.664062 74.488281 326.410156 76.089844 326.011719 77.648438 C 326.246094 78.921875 325.734375 80.074219 325.167969 81.195312 C 324.210938 83.105469 323.089844 84.925781 321.996094 86.761719 C 321.425781 87.730469 320.859375 88.65625 320.601562 89.800781 C 320.40625 90.691406 319.808594 91.507812 319.308594 92.3125 C 318.742188 93.222656 317.976562 94.007812 317.492188 94.953125 C 315.042969 99.796875 311.691406 104.039062 308.539062 108.402344 C 305.523438 112.582031 302.441406 116.738281 298.710938 120.351562 C 298.441406 120.609375 298.132812 120.824219 297.503906 121.316406 C 297.722656 120.460938 297.820312 120.019531 297.941406 119.585938 C 298.34375 118.171875 298.886719 116.78125 299.125 115.335938 C 299.449219 113.40625 299.667969 111.484375 300.398438 109.632812 C 301.027344 108.042969 301.464844 106.367188 301.863281 104.703125 C 302.183594 103.332031 302.28125 101.90625 302.542969 100.515625 C 302.832031 99.003906 303.226562 97.511719 303.496094 95.992188 C 303.773438 94.421875 304.011719 92.835938 304.175781 91.246094 C 304.28125 90.257812 304.105469 89.242188 304.25 88.265625 C 304.859375 84.175781 304.574219 80.113281 304.214844 76.027344 C 303.945312 73.019531 303.683594 69.996094 303.660156 66.980469 C 303.636719 64.316406 303.835938 61.632812 304.160156 58.988281 C 304.304688 57.769531 303.898438 56.769531 303.585938 55.714844 C 303.316406 54.800781 302.59375 54.757812 302.007812 55.515625 C 301.5 56.167969 300.921875 56.765625 300.496094 57.460938 C 299.574219 58.96875 298.65625 60.5 297.871094 62.085938 C 297.1875 63.457031 296.804688 64.980469 296.082031 66.328125 C 294.390625 69.507812 293.257812 72.847656 292.628906 76.386719 C 292.34375 78.023438 291.816406 79.605469 291.488281 81.234375 C 291.050781 83.371094 290.441406 85.511719 290.34375 87.667969 C 289.988281 95.328125 290.738281 102.964844 291.246094 110.601562 C 291.5 114.503906 291.914062 118.398438 292.300781 122.285156 C 292.496094 124.234375 292.109375 126.0625 291.34375 127.835938 C 291.203125 128.152344 291.054688 128.539062 290.789062 128.722656 C 288.648438 130.195312 286.8125 132.089844 284.375 133.164062 C 282.488281 134 280.648438 134.949219 278.835938 135.941406 C 275.617188 137.703125 272.449219 139.550781 269.246094 141.328125 C 265.878906 143.199219 262.449219 144.960938 259.128906 146.898438 C 255.902344 148.785156 252.742188 150.757812 249.042969 151.625 C 248.292969 151.800781 247.5 151.914062 246.824219 152.257812 C 244.660156 153.347656 242.503906 154.46875 240.410156 155.6875 C 237.503906 157.386719 234.632812 159.164062 231.789062 160.972656 C 229.441406 162.460938 227.15625 164.039062 224.851562 165.589844 C 223.480469 166.519531 222.171875 167.546875 220.757812 168.40625 C 219.496094 169.175781 218.144531 169.777344 216.8125 170.429688 C 216.320312 170.675781 215.84375 171.089844 214.972656 170.765625 C 216.011719 169.304688 216.90625 167.914062 217.921875 166.628906 C 219.945312 164.074219 222.25 161.757812 224.078125 159.046875 C 225.371094 157.132812 226.816406 155.324219 227.996094 153.347656 C 229.277344 151.222656 230.367188 148.972656 231.464844 146.742188 C 232.277344 145.097656 233.117188 143.445312 233.675781 141.707031 C 234.933594 137.8125 236.058594 133.882812 237.167969 129.945312 C 238.179688 126.363281 238.722656 122.667969 239.996094 119.140625 C 240.453125 117.878906 240.273438 116.214844 239.054688 115.050781 C 238.820312 115.136719 238.644531 115.171875 238.503906 115.265625 C 235.585938 117.097656 232.914062 119.257812 230.515625 121.710938 C 229.363281 122.894531 228.394531 124.253906 227.363281 125.550781 C 226.894531 126.144531 226.578125 126.886719 226.027344 127.378906 C 223.121094 129.953125 221.019531 133.210938 218.519531 136.132812 C 217.179688 137.699219 216.191406 139.5625 215.046875 141.289062 C 214.6875 141.828125 214.253906 142.335938 213.960938 142.914062 C 212.351562 146.078125 210.746094 149.234375 209.207031 152.433594 C 208.390625 154.140625 207.625 155.882812 207.007812 157.675781 C 206.199219 160.027344 205.550781 162.441406 204.84375 164.828125 C 204.710938 165.28125 204.566406 165.742188 204.496094 166.207031 C 204.1875 168.382812 203.839844 170.550781 203.636719 172.734375 C 203.503906 174.195312 203.515625 175.691406 203.601562 177.160156 C 203.65625 178.175781 203.363281 178.878906 202.480469 179.371094 C 200.511719 180.472656 198.554688 181.582031 196.597656 182.71875 C 195.527344 183.339844 194.535156 184.136719 193.398438 184.617188 C 191.179688 185.550781 189.253906 186.898438 187.355469 188.324219 C 185.652344 189.597656 184.027344 191.03125 182.179688 192.035156 C 180.234375 193.09375 178.394531 194.246094 176.78125 195.746094 C 174.414062 197.941406 171.722656 199.675781 168.957031 201.261719 C 165.5625 203.207031 162.160156 205.09375 159.355469 207.878906 C 158.265625 208.964844 157.1875 210.074219 155.972656 211.011719 C 153.203125 213.160156 150.660156 215.503906 148.417969 218.214844 C 147.058594 219.855469 145.492188 221.324219 144.023438 222.878906 C 142.640625 224.339844 141.242188 225.785156 139.890625 227.277344 C 137.710938 229.699219 135.644531 232.226562 133.363281 234.554688 C 131.761719 236.195312 130.488281 238.015625 129.367188 239.980469 C 127.835938 242.644531 126.363281 245.335938 124.832031 248 C 123.246094 250.765625 121.652344 253.527344 120 256.25 C 119.890625 256.433594 119.765625 256.597656 119.644531 256.757812 C 119.414062 257.390625 119.210938 258.042969 118.894531 258.648438 C 118.46875 259.46875 117.882812 260.128906 117.316406 260.851562 C 115.800781 262.808594 115.027344 265.230469 113.679688 267.308594 C 113.421875 267.703125 113.089844 267.953125 112.726562 268.085938 C 112.558594 268.292969 112.386719 268.507812 112.222656 268.722656 C 111.375 269.847656 110.546875 270.992188 109.765625 272.171875 C 109.316406 272.851562 108.988281 273.621094 108.570312 274.332031 C 107.882812 275.511719 107.164062 276.660156 106.476562 277.839844 C 106.023438 278.605469 105.75 279.527344 105.148438 280.140625 C 103.820312 281.496094 103.148438 283.195312 102.265625 284.796875 C 101.976562 285.320312 101.808594 286.027344 100.820312 286.21875 C 100.785156 285.035156 101.035156 284.042969 101.339844 283.035156 C 101.835938 281.390625 102.441406 279.757812 102.695312 278.070312 C 103.300781 274.082031 103.703125 270.0625 104.226562 266.0625 C 104.550781 263.59375 104.964844 261.140625 105.3125 258.671875 C 105.488281 257.378906 105.6875 256.082031 105.726562 254.78125 C 105.828125 251.523438 105.847656 248.253906 105.914062 244.996094 C 105.921875 244.691406 106.007812 244.378906 106.097656 243.945312 C 105.96875 242.046875 106.128906 240.113281 106.324219 238.21875 C 106.433594 237.121094 106.554688 236.023438 106.675781 234.925781 C 106.605469 233.511719 106.488281 232.101562 106.28125 230.6875 C 106.257812 230.515625 106.273438 230.375 106.316406 230.246094 C 106.171875 227.96875 106.019531 225.6875 105.871094 223.410156 C 105.804688 222.347656 105.785156 221.277344 105.675781 220.222656 C 105.457031 218.160156 105.160156 216.109375 104.953125 214.042969 C 104.78125 212.328125 104.640625 210.617188 104.59375 208.898438 C 104.550781 207.300781 104.421875 205.65625 104.746094 204.121094 C 105.097656 202.476562 104.441406 201.230469 103.789062 199.933594 C 103.367188 199.097656 102.628906 199.121094 102.171875 199.945312 C 101.949219 200.355469 101.863281 200.835938 101.703125 201.285156 C 101.320312 202.40625 101.058594 203.589844 100.535156 204.644531 C 98.527344 208.683594 96.6875 212.792969 95.3125 217.09375 C 94.949219 218.222656 94.273438 219.308594 94.164062 220.453125 C 93.847656 223.8125 92.320312 226.816406 91.554688 230.046875 C 90.808594 233.234375 89.964844 236.359375 90.0625 239.664062 C 90.082031 240.234375 89.921875 240.84375 89.699219 241.375 C 88.875 243.320312 88.480469 245.335938 88.441406 247.4375 C 88.425781 248.328125 88.535156 249.265625 88.289062 250.097656 C 87.535156 252.703125 87.789062 255.398438 87.496094 258.042969 C 87.253906 260.28125 87.34375 262.558594 87.015625 264.777344 C 86.644531 267.324219 86.707031 269.867188 86.761719 272.414062 C 86.828125 275.429688 87.277344 278.417969 87.808594 281.386719 C 88.144531 283.25 88.59375 285.097656 88.996094 286.949219 C 89.253906 288.105469 89.636719 289.246094 89.753906 290.417969 C 90.074219 293.703125 91.222656 296.613281 93.324219 299.148438 C 93.902344 299.84375 94.03125 300.582031 93.785156 301.472656 C 92.835938 304.921875 91.398438 308.144531 89.839844 311.355469 C 88.601562 313.90625 87.757812 316.660156 86.863281 319.359375 C 85.929688 322.175781 85.414062 325.15625 84.21875 327.847656 C 82.535156 331.644531 82.53125 335.703125 81.761719 339.640625 C 81.707031 339.921875 81.75 340.238281 81.800781 340.523438 C 81.898438 341.132812 82.109375 341.707031 82.8125 341.835938 C 83.53125 341.964844 83.9375 341.511719 84.140625 340.910156 C 84.445312 340.011719 84.726562 339.105469 84.925781 338.183594 C 85.433594 335.867188 85.71875 333.492188 86.40625 331.238281 C 87.359375 328.128906 88.699219 325.167969 89.484375 321.96875 C 90.296875 318.652344 91.640625 315.421875 93.117188 312.332031 C 94.53125 309.375 95.449219 306.261719 96.628906 303.226562 C 97.265625 301.582031 97.65625 299.808594 98.492188 298.273438 C 100.992188 293.6875 103.757812 289.253906 106.21875 284.652344 C 108.035156 281.257812 110.675781 278.34375 111.929688 274.636719 C 112.113281 274.097656 112.558594 273.640625 112.910156 273.164062 C 113.898438 271.828125 115.019531 270.574219 115.878906 269.160156 C 117.480469 266.539062 118.925781 263.816406 120.46875 261.15625 C 121.359375 259.617188 122.332031 258.121094 123.234375 256.585938 C 124.039062 255.210938 124.898438 253.855469 125.558594 252.40625 C 126.734375 249.816406 127.78125 247.183594 129.792969 245.054688 C 130.410156 244.402344 130.808594 244.117188 131.511719 244.832031 C 131.707031 245.027344 131.992188 245.136719 132.320312 245.332031 C 133.511719 244.148438 134.90625 243.753906 136.546875 243.863281 C 140.425781 244.125 144.238281 243.335938 148.027344 242.671875 C 150.886719 242.171875 153.6875 241.34375 156.484375 240.546875 C 159.5625 239.675781 162.640625 238.765625 165.652344 237.699219 C 168.265625 236.773438 170.808594 235.621094 173.363281 234.519531 C 176.078125 233.34375 178.765625 232.097656 181.480469 230.90625 C 182.398438 230.496094 183.386719 230.214844 184.28125 229.773438 C 188.054688 227.902344 191.839844 226.066406 195.546875 224.074219 C 200.707031 221.304688 205.800781 218.421875 210.910156 215.554688 C 211.359375 215.304688 211.773438 214.875 212.035156 214.4375 C 212.3125 213.960938 212.574219 213.339844 212.5 212.828125 C 212.394531 212.121094 211.660156 212.121094 211.054688 212.109375 C 210.757812 212.105469 210.457031 212.089844 210.164062 212.105469 C 204.953125 212.300781 199.730469 212.300781 194.570312 213.214844 C 193.582031 213.390625 192.550781 213.585938 191.566406 213.5 C 188.21875 213.207031 184.921875 213.730469 181.648438 214.132812 C 176.589844 214.75 171.589844 215.765625 166.558594 216.644531 C 165.980469 216.742188 165.421875 216.980469 164.878906 217.21875 C 162.597656 218.210938 160.378906 219.363281 158.046875 220.199219 C 153.316406 221.890625 149.3125 224.675781 145.582031 227.949219 C 144.542969 228.863281 143.40625 229.679688 142.316406 230.539062 C 142.214844 230.070312 142.292969 229.785156 142.464844 229.570312 C 143.972656 227.675781 145.46875 225.761719 147.046875 223.921875 C 148.117188 222.660156 149.308594 221.496094 150.464844 220.308594 C 152.074219 218.65625 153.546875 216.832031 155.351562 215.425781 C 157.34375 213.871094 159.699219 212.761719 160.90625 210.355469 C 160.976562 210.207031 161.15625 210.105469 161.289062 209.988281 C 163.683594 207.929688 166.296875 206.253906 169.148438 204.839844 C 171.574219 203.632812 174 202.195312 175.953125 200.347656 C 178.015625 198.398438 180.332031 196.933594 182.6875 195.453125 C 183.433594 194.980469 184.171875 194.425781 185 194.148438 C 186.074219 193.800781 186.878906 193.15625 187.652344 192.414062 C 190.097656 190.054688 192.664062 187.878906 195.945312 186.734375 C 196.332031 186.597656 196.671875 186.335938 197.027344 186.113281 C 197.75 185.65625 198.476562 185.203125 199.1875 185.238281 C 199.214844 185.210938 199.246094 185.179688 199.273438 185.140625 C 199.453125 184.949219 199.621094 184.746094 199.816406 184.570312 C 200.21875 184.199219 200.6875 183.855469 201.171875 183.589844 C 201.820312 183.214844 202.527344 182.9375 203.25 182.710938 C 203.414062 182.566406 203.578125 182.425781 203.742188 182.289062 C 205.496094 180.886719 207.355469 179.601562 209.277344 178.4375 C 211.632812 177 214.207031 175.890625 216.492188 174.355469 C 218.355469 173.105469 220.105469 171.730469 222.25 170.96875 C 222.585938 170.851562 222.933594 170.699219 223.195312 170.472656 C 225.390625 168.535156 227.992188 167.230469 230.449219 165.695312 C 232.152344 164.628906 233.792969 163.457031 235.488281 162.378906 C 237.890625 160.855469 240.332031 159.398438 242.726562 157.871094 C 245.34375 156.199219 248.042969 154.78125 251.191406 154.414062 C 251.886719 154.335938 252.746094 154.230469 253.203125 153.800781 C 254.507812 152.542969 256.207031 152.183594 257.726562 151.417969 C 259.628906 150.460938 261.339844 150.78125 263.191406 151.496094 C 265.015625 152.195312 266.917969 152.671875 268.789062 153.246094 C 269.238281 153.382812 269.707031 153.476562 270.152344 153.621094 C 273.707031 154.773438 277.238281 155.976562 280.804688 157.066406 C 281.925781 157.40625 283.132812 157.597656 284.308594 157.644531 C 290 157.871094 295.695312 158.109375 301.390625 158.164062 C 304.285156 158.191406 307.195312 157.863281 310.089844 157.65625 C 311.332031 157.570312 312.5625 157.359375 313.800781 157.25 C 314.117188 157.21875 314.375 157.261719 314.574219 157.371094 C 318.945312 156.6875 323.464844 155.40625 327.925781 155.230469 C 328.203125 155.171875 328.46875 155.128906 328.738281 155.109375 C 329.402344 155.066406 330.074219 155.046875 330.738281 155.058594 C 332.382812 154.488281 334.035156 153.96875 335.738281 153.664062 C 335.855469 153.453125 335.933594 153.226562 335.949219 153.019531 C 335.964844 152.703125 335.191406 152.234375 334.691406 152.007812 C 333.453125 151.445312 332.125 151.09375 330.925781 150.472656 C 328.394531 149.167969 325.945312 147.710938 323.429688 146.386719 C 323.289062 146.316406 323.160156 146.242188 323.035156 146.164062 C 322.976562 146.136719 322.921875 146.113281 322.867188 146.089844 C 322.023438 145.925781 321.175781 145.730469 320.316406 145.636719 C 318.25 145.40625 316.25 145.054688 314.226562 144.558594 C 313.878906 144.472656 313.605469 144.320312 313.390625 144.128906 C 313.210938 144.128906 313.039062 144.101562 312.886719 144.058594 C 308.820312 143.730469 304.757812 143.394531 300.683594 143.097656 C 299.265625 142.992188 297.839844 142.964844 296.417969 142.988281 C 295.121094 143.011719 293.816406 143.132812 292.523438 143.242188 C 288.386719 143.585938 284.21875 143.730469 280.121094 144.351562 C 276.605469 144.890625 273.101562 145.375 269.554688 145.601562 C 268.996094 145.636719 268.367188 145.765625 267.933594 144.894531 C 268.5625 144.585938 269.121094 144.304688 269.683594 144.015625 C 270.421875 143.644531 271.226562 143.351562 271.890625 142.871094 C 274.699219 140.835938 277.691406 139.171875 281.007812 138.125 C 284.1875 137.117188 286.894531 135.351562 289.226562 132.992188 C 289.765625 132.449219 290.375 131.957031 291.007812 131.53125 C 291.207031 131.394531 291.605469 131.347656 291.84375 131.425781 C 292.757812 130.183594 293.992188 129.097656 295.304688 128.246094 C 296.21875 126.476562 297.375 124.851562 298.953125 123.441406 C 300.539062 122.027344 301.84375 120.308594 303.261719 118.714844 C 304.171875 117.691406 305.074219 116.671875 305.925781 115.605469 C 307.144531 114.074219 308.351562 112.539062 309.484375 110.949219 C 310.300781 109.804688 311.3125 108.769531 311.59375 107.28125 C 311.671875 106.867188 312.101562 106.519531 312.386719 106.152344 C 313.648438 104.527344 315.203125 103.113281 316.035156 101.160156 C 316.410156 100.289062 316.839844 99.429688 317.367188 98.652344 C 320.496094 93.964844 323.320312 89.09375 325.8125 84.042969 C 326.574219 82.507812 327.367188 80.972656 327.964844 79.375 C 328.714844 77.375 329.238281 75.296875 329.925781 73.28125 C 330.75 70.859375 330.972656 68.433594 330.433594 65.917969 C 330.320312 65.394531 330.492188 64.730469 330.738281 64.234375 C 331.078125 63.554688 331.542969 62.902344 332.082031 62.363281 C 335.105469 59.359375 337.167969 55.667969 339.402344 52.113281 C 341.230469 49.214844 342.816406 46.152344 344.339844 43.078125 C 345.332031 41.070312 346.105469 38.949219 346.839844 36.828125 C 347.417969 35.160156 347.714844 33.390625 348.246094 31.699219 C 349.152344 28.796875 349.734375 25.828125 349.914062 22.804688 C 350.160156 18.832031 350.5 14.882812 351.425781 11.007812 C 351.933594 8.875 352.425781 6.71875 353.199219 4.683594 C 353.695312 3.394531 353.449219 2.257812 353.242188 1.054688 Z M 103.082031 240.308594 C 102.976562 243.921875 103.058594 247.550781 103.039062 251.164062 C 103.027344 253.460938 102.976562 255.757812 102.941406 258.054688 C 102.933594 258.46875 102.953125 258.910156 102.824219 259.292969 C 102.015625 261.765625 102.199219 264.339844 101.953125 266.875 C 101.660156 269.859375 101.148438 272.828125 100.730469 275.796875 C 99.46875 275.546875 98.4375 275.34375 97.320312 275.121094 C 96.949219 273.644531 96.917969 272.144531 97.121094 270.589844 C 97.414062 268.359375 97.515625 266.105469 97.777344 263.875 C 97.945312 262.472656 98.242188 261.089844 98.5 259.699219 C 98.859375 257.75 99.316406 255.832031 99.546875 253.839844 C 99.886719 250.914062 100.519531 248.011719 100.757812 245.054688 C 100.90625 243.226562 100.992188 241.386719 101.148438 239.558594 C 101.210938 238.808594 101.378906 238.070312 101.53125 237.132812 C 102.726562 238.066406 103.117188 238.984375 103.082031 240.308594 Z M 92.566406 289.777344 C 91.617188 288.429688 91.28125 287.234375 91.789062 285.722656 C 92.84375 286.175781 93.421875 287.003906 94.257812 287.96875 C 93.660156 288.613281 93.171875 289.132812 92.566406 289.777344 Z M 94.824219 268.234375 C 94.871094 270.953125 94.414062 273.667969 94.273438 276.394531 C 94.1875 278.046875 94.292969 279.703125 94.292969 281.355469 C 94.292969 281.75 94.230469 282.140625 94.1875 282.597656 C 93.011719 282.238281 91.964844 281.914062 90.710938 281.523438 C 90.113281 279.320312 89.855469 276.929688 89.636719 274.503906 C 89.234375 269.96875 90.03125 265.519531 90.308594 261.03125 C 90.484375 258.140625 90.332031 255.226562 90.464844 252.332031 C 90.53125 250.925781 90.921875 249.535156 91.148438 248.132812 C 91.679688 244.859375 92.097656 241.570312 92.757812 238.328125 C 93.539062 234.496094 94.335938 230.648438 95.464844 226.914062 C 96.796875 222.488281 98.472656 218.175781 100.0625 213.828125 C 100.351562 213.042969 100.929688 212.359375 101.375 211.621094 L 101.894531 211.785156 C 101.960938 212.238281 102.0625 212.683594 102.09375 213.132812 C 102.140625 213.902344 102.03125 214.699219 102.183594 215.445312 C 102.679688 217.871094 102.027344 220.140625 101.378906 222.429688 C 101.285156 222.769531 101.058594 223.136719 101.113281 223.445312 C 101.492188 225.503906 100.605469 227.425781 100.527344 229.429688 C 100.519531 229.667969 100.519531 229.925781 100.425781 230.132812 C 99.261719 232.671875 99.644531 235.488281 99.003906 238.121094 C 98.789062 238.980469 98.632812 239.851562 98.46875 240.722656 C 98.351562 241.363281 98.152344 242.019531 98.210938 242.648438 C 98.332031 243.867188 98.359375 244.972656 97.425781 245.96875 C 97.144531 246.269531 97.210938 246.980469 97.273438 247.492188 C 97.382812 248.480469 97.316406 249.304688 96.546875 250.101562 C 95.664062 251.023438 95.671875 251.457031 96.460938 252.425781 C 97.125 253.230469 97.058594 254.007812 96.851562 254.917969 C 95.859375 259.3125 94.738281 263.664062 94.824219 268.234375 Z M 97.03125 290.703125 C 96.664062 289.101562 96.664062 289.101562 97.449219 286.898438 C 97.972656 288.160156 97.542969 289.3125 97.03125 290.703125 Z M 99.242188 281.605469 C 99.035156 282.238281 98.570312 282.785156 97.796875 282.628906 C 97.046875 282.476562 97.085938 281.78125 97.042969 281.203125 C 96.863281 278.757812 97.1875 278.453125 99.90625 278.769531 C 99.675781 279.800781 99.527344 280.726562 99.242188 281.605469 Z M 140.507812 241.101562 C 140.078125 240.644531 139.640625 240.386719 139.621094 240.101562 C 139.582031 239.4375 140.164062 239.195312 140.707031 239.242188 C 141.011719 239.273438 141.285156 239.65625 141.574219 239.882812 C 141.261719 240.234375 140.953125 240.589844 140.507812 241.101562 Z M 142.753906 240.265625 C 142.6875 240.246094 142.652344 240.109375 142.617188 240.035156 C 142.6875 239.957031 142.753906 239.882812 142.824219 239.804688 C 142.894531 239.925781 142.960938 240.039062 143.035156 240.164062 C 142.9375 240.207031 142.835938 240.289062 142.753906 240.265625 Z M 148.117188 228.929688 C 150.488281 227.351562 152.847656 225.761719 155.265625 224.261719 C 156.21875 223.675781 157.289062 223.273438 158.351562 222.890625 C 161.527344 221.746094 164.671875 220.472656 167.917969 219.582031 C 172.03125 218.453125 176.226562 217.601562 180.492188 217.234375 C 184.09375 216.925781 187.707031 216.71875 191.308594 216.441406 C 192.359375 216.363281 193.398438 216.207031 194.449219 216.089844 C 189.117188 218.507812 183.492188 219.667969 177.90625 221.019531 C 174.984375 221.734375 172.125 222.769531 169.296875 223.816406 C 167.980469 224.304688 166.828125 225.207031 165.566406 225.847656 C 164.414062 226.433594 163.234375 226.960938 162.019531 227.417969 C 157.972656 228.953125 153.914062 230.449219 149.855469 231.949219 C 148.933594 232.289062 148.136719 231.824219 147.453125 230.660156 C 146.925781 229.777344 147.515625 229.332031 148.117188 228.929688 Z M 147.535156 235.839844 C 150.691406 234.640625 153.902344 233.585938 157.070312 232.433594 C 158.6875 231.84375 160.296875 231.222656 161.847656 230.496094 C 164.097656 229.449219 166.230469 228.125 168.535156 227.21875 C 171.277344 226.132812 173.941406 224.824219 176.902344 224.273438 C 179.871094 223.726562 182.851562 223.136719 185.722656 222.246094 C 189.5 221.074219 193.167969 219.527344 196.921875 218.273438 C 198.96875 217.589844 201.101562 217.167969 203.199219 216.625 C 203.265625 216.742188 203.339844 216.863281 203.40625 216.980469 C 203.035156 217.289062 202.699219 217.648438 202.292969 217.910156 C 199.257812 219.875 196.28125 221.929688 192.886719 223.292969 C 191.027344 224.035156 189.351562 225.230469 187.519531 226.035156 C 184.539062 227.347656 181.492188 228.503906 178.476562 229.730469 C 177.433594 230.148438 176.402344 230.605469 175.355469 231.003906 C 174.195312 231.433594 172.988281 231.753906 171.851562 232.226562 C 170.4375 232.820312 169.003906 233.410156 167.6875 234.195312 C 165.5625 235.464844 163.140625 235.855469 160.851562 236.609375 C 158.328125 237.4375 155.710938 237.980469 153.152344 238.699219 C 152.414062 238.90625 151.96875 238.730469 151.441406 238.199219 C 150.28125 237.042969 149.574219 237.238281 149.019531 238.738281 C 148.527344 240.070312 148.089844 240.316406 146.472656 240.148438 C 145.96875 239.125 145.539062 238.253906 145.003906 237.164062 C 145.539062 236.523438 146.59375 236.203125 147.535156 235.839844 Z M 144.875 231.910156 C 145.589844 232.835938 145.472656 233.53125 144.730469 234.050781 C 143.570312 234.847656 142.3125 235.421875 140.828125 235.542969 C 141.910156 234.019531 143.226562 232.824219 144.875 231.910156 Z M 235.949219 126.136719 C 235.914062 126.5625 235.9375 127.003906 235.828125 127.402344 C 234.621094 131.808594 233.402344 136.214844 232.160156 140.617188 C 232.019531 141.117188 231.695312 141.5625 231.460938 142.035156 C 230.910156 143.152344 230.375 144.273438 229.808594 145.375 C 228.039062 148.855469 226.558594 152.488281 224.035156 155.546875 C 222.226562 157.742188 220.542969 160.039062 218.757812 162.257812 C 218.179688 162.976562 217.464844 163.582031 216.746094 164.304688 C 216.339844 163.085938 215.894531 162.105469 215.71875 161.089844 C 215.609375 160.449219 215.722656 159.644531 216.027344 159.078125 C 217.210938 156.894531 218.546875 154.785156 219.769531 152.621094 C 220.941406 150.5625 222.039062 148.460938 223.183594 146.386719 C 223.894531 145.097656 224.621094 143.808594 225.359375 142.53125 C 226.011719 141.398438 226.820312 140.34375 227.332031 139.148438 C 228.703125 135.941406 231.050781 133.371094 232.804688 130.421875 C 233.378906 129.457031 233.925781 128.472656 234.511719 127.515625 C 234.835938 126.988281 235.207031 126.496094 235.5625 125.984375 Z M 214.308594 167.78125 C 212.992188 169.5 211.628906 171.179688 210.289062 172.878906 C 210.164062 172.824219 210.042969 172.765625 209.921875 172.710938 C 209.941406 172.429688 209.878906 172.113281 209.996094 171.886719 C 210.84375 170.265625 211.695312 168.652344 212.628906 167.078125 C 212.824219 166.75 213.339844 166.425781 213.707031 166.433594 C 214.527344 166.4375 214.816406 167.117188 214.308594 167.78125 Z M 210.964844 164.496094 C 210.59375 165.324219 210.367188 166.117188 209.277344 166.335938 C 208.917969 166.410156 208.488281 167.058594 208.429688 167.5 C 208.3125 168.28125 208.183594 168.945312 207.636719 169.589844 C 207.320312 169.960938 207.226562 170.71875 207.34375 171.222656 C 207.636719 172.453125 207.210938 173.398438 206.582031 174.320312 C 206.421875 174.28125 206.265625 174.25 206.105469 174.214844 C 206.191406 173.105469 206.210938 171.992188 206.375 170.894531 C 206.625 169.253906 206.960938 167.621094 207.308594 166 C 207.570312 164.789062 207.789062 163.550781 208.933594 162.75 C 209.539062 162.332031 209.582031 161.65625 209.398438 160.976562 C 209.152344 160.070312 209.378906 159.273438 209.78125 158.417969 C 211.855469 154.023438 213.804688 149.570312 215.914062 145.195312 C 216.601562 143.769531 217.601562 142.480469 218.550781 141.195312 C 219.964844 139.289062 221.53125 137.496094 222.902344 135.566406 C 225.839844 131.449219 229.84375 128.3125 232.996094 124.394531 C 233.648438 123.582031 234.359375 122.828125 235.097656 121.992188 C 235.273438 122.308594 235.402344 122.449219 235.371094 122.492188 C 233.921875 124.777344 232.433594 127.050781 230.996094 129.34375 C 229.613281 131.554688 228.253906 133.777344 226.917969 136.023438 C 224.4375 140.191406 221.988281 144.382812 219.515625 148.558594 C 217.855469 151.359375 216.078125 154.097656 214.523438 156.957031 C 213.21875 159.394531 212.109375 161.960938 210.964844 164.496094 Z M 327.554688 152.84375 C 326.269531 152.523438 324.65625 152.859375 323.949219 151.082031 C 325.375 150.976562 326.542969 151.515625 327.554688 152.84375 Z M 300.222656 146.296875 C 300.90625 146.21875 301.597656 146.039062 302.269531 146.082031 C 306.28125 146.351562 310.289062 146.65625 314.300781 146.980469 C 315.476562 147.078125 315.921875 147.550781 316.019531 148.617188 C 316.148438 150.050781 315.640625 150.53125 314.25 150.042969 C 311.769531 149.179688 309.207031 148.820312 306.621094 148.472656 C 304.410156 148.175781 302.292969 147.480469 300.171875 146.816406 C 300.191406 146.644531 300.210938 146.46875 300.222656 146.296875 Z M 272.839844 149.699219 C 273.035156 148.734375 273.636719 148.632812 274.40625 148.671875 C 277.710938 148.863281 281.011719 149.070312 284.320312 149.242188 C 286.15625 149.339844 287.996094 149.464844 289.824219 149.433594 C 293.464844 149.375 297.027344 149.898438 300.585938 150.574219 C 302.855469 151.007812 305.164062 151.207031 307.4375 151.636719 C 309.359375 151.996094 311.246094 152.511719 313.140625 152.996094 C 313.652344 153.121094 314.195312 153.292969 314.617188 153.59375 C 314.890625 153.785156 315.109375 154.257812 315.105469 154.589844 C 315.097656 154.816406 314.652344 155.042969 314.386719 155.238281 C 314.300781 155.296875 314.160156 155.292969 314.039062 155.304688 C 311.265625 155.574219 308.484375 155.839844 305.402344 156.132812 C 305.421875 156.132812 305.117188 156.144531 304.828125 156.078125 C 302.777344 155.554688 300.699219 155.925781 298.632812 155.851562 C 296.796875 155.785156 294.957031 155.785156 293.121094 155.671875 C 289.683594 155.460938 286.253906 155.226562 282.824219 154.933594 C 279.507812 154.652344 276.558594 153.171875 273.546875 151.921875 C 272.523438 151.5 272.546875 151.179688 272.839844 149.699219 Z M 269.335938 150.527344 C 267.976562 150.863281 266.902344 149.921875 265.519531 149.671875 C 266.195312 149.367188 266.726562 149.144531 267.25 148.898438 C 268.800781 148.160156 269.378906 148.589844 269.335938 150.527344 Z M 298.320312 67.960938 C 298.417969 67.964844 298.515625 67.972656 298.621094 67.976562 C 298.527344 68.40625 298.4375 68.832031 298.34375 69.257812 L 298.34375 69.265625 Z M 295.078125 96.71875 C 294.9375 99.851562 294.824219 102.984375 294.730469 106.117188 C 294.710938 106.824219 294.921875 107.535156 294.890625 108.238281 C 294.761719 110.875 294.574219 113.507812 294.164062 116.160156 C 293.9375 114.003906 293.664062 111.851562 293.492188 109.695312 C 293.316406 107.511719 293.3125 105.3125 293.109375 103.136719 C 292.675781 98.535156 292.703125 93.921875 292.746094 89.308594 C 292.75 88.371094 292.96875 87.425781 293.140625 86.5 C 294.128906 81.203125 295 75.875 297.015625 70.832031 C 297.289062 70.140625 297.570312 69.519531 298.34375 69.289062 C 297.90625 71.738281 297.398438 74.164062 297.027344 76.613281 C 296.492188 80.171875 295.949219 83.738281 295.597656 87.320312 C 295.285156 90.441406 295.21875 93.585938 295.078125 96.71875 Z M 296.925781 109.140625 C 297.289062 107.074219 297.246094 105.011719 297.039062 102.933594 C 296.929688 101.828125 296.96875 100.679688 297.101562 99.570312 C 297.371094 97.335938 297.601562 95.117188 297.441406 92.847656 C 297.359375 91.570312 297.679688 90.265625 297.820312 88.96875 C 298.355469 83.957031 298.867188 78.949219 299.449219 73.945312 C 299.589844 72.75 299.824219 71.539062 300.726562 70.28125 C 300.898438 70.898438 301.0625 71.269531 301.101562 71.648438 C 301.367188 74.835938 301.746094 78.023438 301.832031 81.214844 C 301.902344 84.109375 301.597656 87.015625 301.550781 89.917969 C 301.460938 95.164062 300.582031 100.296875 299.351562 105.378906 C 298.9375 107.097656 298.242188 108.710938 297.417969 110.265625 L 296.984375 110.15625 C 296.960938 109.816406 296.863281 109.460938 296.925781 109.140625 Z M 332.691406 46.136719 C 332.527344 47.074219 332.285156 47.75 331.347656 48.238281 C 330.183594 48.847656 329.980469 50.402344 331.085938 51.011719 C 332.773438 51.945312 332.285156 53.351562 332.132812 54.589844 C 332 55.714844 331.394531 56.78125 330.957031 57.988281 C 329.492188 57.375 328.933594 56.546875 329.328125 55.160156 C 329.753906 53.667969 329.621094 52.417969 328.757812 51.121094 C 328.382812 50.566406 328.292969 49.769531 328.238281 49.074219 C 327.96875 45.5625 328.066406 42.050781 329.109375 38.683594 C 329.90625 36.09375 330.804688 33.515625 332.417969 31.257812 C 332.929688 30.546875 333.253906 29.691406 333.601562 28.875 C 334.878906 25.839844 336.855469 23.238281 338.726562 20.570312 C 339.25 19.828125 339.738281 19.058594 340.25 18.285156 C 340.976562 18.734375 340.699219 19.199219 340.554688 19.617188 C 339.535156 22.527344 338.453125 25.410156 337.5 28.339844 C 336.605469 31.09375 335.863281 33.898438 335.027344 36.675781 C 334.742188 37.640625 334.300781 38.566406 334.078125 39.535156 C 333.558594 41.71875 333.082031 43.921875 332.691406 46.136719 Z M 348.390625 12.519531 C 348.136719 14.871094 347.878906 17.230469 347.53125 19.570312 C 346.910156 23.789062 346.230469 28 345.550781 32.210938 C 345.003906 35.628906 343.730469 38.839844 342.445312 42.015625 C 341.652344 43.976562 340.4375 45.769531 339.371094 47.617188 C 339.214844 47.898438 338.867188 48.175781 338.554688 48.238281 C 337.226562 48.5 337.085938 49.394531 337.171875 50.511719 C 337.289062 51.972656 336.558594 52.957031 335.136719 53.789062 C 334.726562 52.394531 334.886719 51.089844 335.003906 49.859375 C 335.253906 47.207031 335.65625 44.574219 336.070312 41.949219 C 336.234375 40.902344 336.527344 39.863281 336.847656 38.851562 C 338.398438 34.070312 340.054688 29.320312 341.503906 24.507812 C 342.210938 22.167969 343.429688 20.046875 344.132812 17.753906 C 344.796875 15.578125 345.753906 13.5625 346.703125 11.53125 C 347.015625 10.875 347.53125 10.320312 347.960938 9.714844 C 348.136719 9.78125 348.3125 9.851562 348.496094 9.921875 C 348.472656 10.78125 348.488281 11.660156 348.390625 12.519531 Z M 348.390625 12.519531 " fill-opacity="1" fill-rule="nonzero"/></g><path fill="#3d7746" d="M 95.378906 245.988281 C 95.21875 245.203125 95.097656 244.605469 94.945312 243.851562 C 96.523438 244.460938 96.542969 244.550781 95.378906 245.988281 Z M 95.378906 245.988281 " fill-opacity="1" fill-rule="nonzero"/><path fill="#3d7746" d="M 276.839844 152.316406 C 276.148438 152.292969 275.386719 151.429688 275.453125 150.746094 C 275.507812 150.171875 276.203125 149.613281 276.84375 149.617188 C 277.507812 149.625 277.933594 150.15625 277.917969 150.960938 C 277.90625 151.75 277.441406 152.335938 276.839844 152.316406 Z M 276.839844 152.316406 " fill-opacity="1" fill-rule="nonzero"/><path fill="#3d7746" d="M 329.207031 44.0625 C 329.1875 43.367188 329.46875 42.929688 330.21875 42.898438 C 331.015625 42.871094 331.589844 43.417969 331.566406 44.179688 C 331.542969 44.953125 330.960938 45.765625 330.417969 45.777344 C 329.804688 45.792969 329.21875 44.964844 329.207031 44.0625 Z M 329.207031 44.0625 " fill-opacity="1" fill-rule="nonzero"/></svg>