<svg xmlns="http://www.w3.org/2000/svg" xmlns:xlink="http://www.w3.org/1999/xlink" width="500" zoomAndPan="magnify" viewBox="0 0 375 374.999991" height="500" preserveAspectRatio="xMidYMid meet" version="1.0"><defs><clipPath id="80c37522b5"><path d="M 125.425781 16.515625 L 229.675781 16.515625 L 229.675781 329.265625 L 125.425781 329.265625 Z M 125.425781 16.515625 " clip-rule="nonzero"/></clipPath></defs><g clip-path="url(#80c37522b5)"><path fill="#f6afaa" d="M 193.359375 183.835938 C 186.003906 191.210938 183.671875 199.394531 181.246094 208.5625 C 178.125 212.515625 175.164062 216.722656 172.441406 221.042969 C 175.433594 213.195312 178.292969 205.144531 180.414062 196.789062 C 180.890625 196.753906 181.324219 196.457031 181.496094 195.976562 C 183 191.8125 183.710938 187.210938 184.402344 182.761719 C 184.882812 179.648438 185.382812 176.425781 186.148438 173.441406 C 187.335938 168.792969 189.121094 164.050781 191.378906 159.308594 C 204.105469 156.355469 207.988281 147.828125 211.9375 138.875 C 214.085938 134.011719 215.722656 129.066406 216.582031 123.90625 C 217.15625 120.46875 219.230469 115.4375 218.449219 112.257812 C 209.875 117.0625 201.609375 128.085938 196.652344 136.597656 C 193.214844 142.5 191.351562 148.90625 190.464844 155.480469 C 188.488281 159.300781 186.855469 163.136719 185.535156 166.941406 C 186.109375 161.449219 186.492188 156.011719 186.652344 150.640625 C 186.914062 148.007812 186.992188 145.425781 187.058594 142.925781 C 187.140625 139.925781 187.226562 136.824219 187.644531 133.679688 C 188.355469 128.339844 189.917969 122.382812 192.21875 117.238281 C 205.179688 107.878906 210.949219 92.976562 214.207031 79.890625 C 207.6875 82.140625 199.636719 92.070312 196.027344 97.957031 C 192.558594 103.621094 190.808594 109.808594 189.902344 116.246094 C 188.199219 120.074219 186.933594 124.226562 186.082031 128.160156 C 185.988281 127.007812 185.882812 125.859375 185.769531 124.714844 C 185.78125 124.429688 185.792969 124.140625 185.804688 123.855469 C 185.859375 122.675781 185.90625 121.53125 185.941406 120.421875 C 185.941406 120.417969 185.941406 120.417969 185.941406 120.414062 C 185.941406 120.410156 185.941406 120.410156 185.941406 120.410156 C 185.941406 120.34375 185.945312 120.269531 185.949219 120.203125 L 186.035156 116.957031 C 186.140625 112.8125 186.257812 108.476562 186.570312 104.160156 C 191.640625 101.410156 196.152344 87.765625 198.152344 82.359375 C 202.054688 71.804688 201.15625 60.722656 199.613281 50.085938 C 192.175781 59.917969 183.832031 74.046875 182.785156 86.835938 C 182.429688 91.171875 183.558594 95.199219 184.507812 99.242188 C 184.09375 102.921875 183.871094 106.660156 183.730469 110.332031 C 182.699219 104.859375 181.273438 99.65625 179.507812 94.667969 C 179.707031 94.347656 179.777344 93.953125 179.632812 93.574219 C 177.316406 87.527344 175.269531 78.089844 173.933594 68.171875 C 178.609375 63.824219 178.675781 53.394531 178.386719 47.648438 C 177.828125 36.609375 175.417969 26.617188 171.136719 16.515625 C 168.269531 25.453125 164.851562 33.386719 165.171875 43.207031 C 165.421875 50.773438 166.882812 61.367188 171.402344 68.042969 C 171.984375 72.457031 172.710938 76.777344 173.539062 80.78125 C 169.046875 71.921875 163.546875 63.578125 157.425781 55.296875 C 156.40625 38.675781 141.273438 17.199219 125.425781 18.355469 C 126.039062 22.851562 129.15625 26.632812 131.191406 30.8125 C 133.230469 35.003906 134.734375 39.304688 137.390625 43.105469 C 142.035156 49.757812 148.425781 55.894531 156.261719 57.9375 C 166.238281 71.578125 174.460938 85.414062 179.085938 101.539062 C 175.242188 94.828125 170.160156 88.316406 164.625 82.671875 C 161.476562 78.203125 158.269531 74.207031 154.078125 70.84375 C 150.171875 67.710938 138.851562 59.441406 133.722656 62.675781 C 135.964844 69.414062 144.960938 77.597656 150.246094 82.460938 C 154.683594 86.539062 162.652344 93.144531 169.332031 91.847656 C 174.839844 98.730469 179.363281 106.277344 181.761719 113.46875 C 182.378906 117.199219 182.875 120.976562 183.261719 124.789062 C 183.132812 127.867188 183.03125 131.105469 183.191406 134.25 C 181.113281 129.316406 178.199219 124.621094 174.898438 120.1875 C 169.332031 106.945312 161.652344 95.042969 145.4375 92.332031 C 147.082031 100.167969 151.773438 106.75 156.816406 112.949219 C 161.003906 118.101562 170.488281 127.738281 177.660156 128.835938 C 181.34375 135.117188 183.851562 141.800781 183.933594 148.820312 C 183.9375 149.078125 184.035156 149.300781 184.171875 149.5 C 184.164062 149.855469 184.164062 150.203125 184.152344 150.554688 C 184.152344 150.578125 184.148438 150.601562 184.148438 150.621094 C 184.144531 150.632812 184.152344 150.644531 184.152344 150.652344 C 183.929688 157.824219 183.320312 165.109375 182.355469 172.492188 C 181.582031 167.964844 180.355469 163.339844 178.777344 158.808594 C 178.304688 151.507812 175.679688 144.320312 172.339844 138.785156 C 167.671875 131.042969 160.796875 127.109375 154.011719 121.605469 C 152.972656 135.933594 166.953125 153.503906 177.457031 162.976562 C 179.566406 169.828125 180.820312 176.765625 180.734375 183.015625 C 180.269531 185.644531 179.773438 188.285156 179.214844 190.941406 C 177.746094 197.949219 175.648438 204.753906 173.3125 211.410156 C 173.648438 206.035156 173.167969 200.28125 172.15625 194.59375 C 175.238281 184.066406 171.75 176.089844 168.21875 170.066406 C 164.808594 164.261719 156.640625 151.367188 149.402344 149.695312 C 147.023438 158.007812 151.378906 168.191406 154.757812 175.863281 C 158.371094 184.082031 167.820312 192.085938 170.1875 199.777344 C 170.261719 199.625 170.316406 199.476562 170.386719 199.320312 C 171.449219 207.679688 171.191406 215.90625 168.46875 222.335938 C 168.265625 222.816406 168.390625 223.355469 168.738281 223.703125 C 168.230469 225.015625 167.726562 226.316406 167.21875 227.613281 C 165.660156 231.613281 164.089844 235.722656 162.566406 239.863281 C 162.496094 240.03125 162.417969 240.199219 162.351562 240.367188 C 162.324219 240.429688 162.328125 240.496094 162.3125 240.5625 C 161.765625 242.050781 161.203125 243.527344 160.683594 245.023438 C 160.328125 246.054688 159.972656 247.117188 159.625 248.203125 C 159.945312 241.289062 159.796875 234.035156 159.164062 226.613281 C 159.808594 217.109375 159.050781 210.742188 157.917969 204.332031 C 156.390625 195.691406 150.4375 189.808594 148.128906 182.183594 C 142.628906 186.980469 146.945312 201.496094 148.003906 207.6875 C 149.679688 217.457031 154.203125 225.449219 157.15625 234.460938 C 157.558594 244.242188 157.09375 253.601562 155.738281 262.070312 C 155.71875 262.203125 155.734375 262.328125 155.753906 262.453125 C 154.054688 270.191406 152.839844 278.695312 152.578125 287.6875 C 151.132812 282.820312 149.472656 278.03125 147.8125 273.347656 C 148.109375 254.597656 143.492188 238.8125 137.851562 224.675781 C 132.117188 241.808594 137.070312 257.246094 144.894531 272.601562 C 145.039062 273.003906 145.179688 273.414062 145.320312 273.816406 C 147.949219 281.21875 150.667969 288.875 152.347656 296.621094 C 152.398438 296.859375 152.523438 297.050781 152.679688 297.210938 C 153.179688 307.28125 154.984375 317.804688 158.714844 328.425781 C 158.894531 328.941406 159.378906 329.261719 159.894531 329.261719 C 160.03125 329.261719 160.171875 329.238281 160.308594 329.191406 C 160.960938 328.960938 161.300781 328.246094 161.074219 327.59375 C 156.066406 313.332031 154.617188 299.246094 155.15625 286.226562 C 155.496094 286.027344 155.75 285.691406 155.789062 285.269531 C 155.796875 285.183594 156.621094 276.316406 157.734375 272.578125 C 159.394531 266.980469 161.886719 262.484375 165.21875 258.496094 C 175.675781 252.753906 182.042969 249.945312 186.816406 243.066406 C 190.042969 238.414062 192.222656 232.675781 193.226562 227.441406 C 185.789062 233.46875 176.921875 235.410156 170.453125 243.058594 C 166.734375 247.453125 165.585938 251.746094 163.851562 256.21875 C 161.355469 259.082031 159.285156 262.207031 157.628906 265.785156 C 159.097656 258.421875 161.023438 251.683594 163.050781 245.84375 C 163.636719 244.148438 164.273438 242.46875 164.894531 240.777344 C 168.847656 231.300781 174.554688 221.574219 181.089844 212.859375 C 194.40625 212.964844 204.792969 200.757812 211.390625 191.710938 C 218.058594 182.5625 225.292969 170.996094 229.664062 160.539062 C 216.824219 166.054688 203.359375 173.800781 193.359375 183.835938 " fill-opacity="1" fill-rule="nonzero"/></g></svg>