<svg xmlns="http://www.w3.org/2000/svg" xmlns:xlink="http://www.w3.org/1999/xlink" width="500" zoomAndPan="magnify" viewBox="0 0 375 374.999991" height="500" preserveAspectRatio="xMidYMid meet" version="1.0"><defs><clipPath id="a6a1c19f77"><path d="M 69.265625 56.214844 L 305.515625 56.214844 L 305.515625 318.539062 L 69.265625 318.539062 Z M 69.265625 56.214844 " clip-rule="nonzero"/></clipPath></defs><g clip-path="url(#a6a1c19f77)"><path fill="#f9aaa8" d="M 146.71875 250.96875 C 139.085938 250.765625 131.476562 251.828125 123.84375 252.054688 C 118.355469 252.21875 112.761719 251.957031 107.476562 253.453125 C 105.160156 254.109375 102.226562 254.929688 100.699219 253.0625 C 99.894531 252.082031 99.859375 250.683594 100.019531 249.425781 C 100.214844 247.917969 100.667969 246.390625 101.660156 245.242188 C 103.542969 243.070312 106.789062 242.800781 109.65625 243 C 112.519531 243.203125 115.25 243.722656 117.867188 242.535156 C 111.476562 240.730469 105.574219 237.230469 100.929688 232.488281 C 98.402344 229.90625 96.25 226.972656 93.644531 224.46875 C 88.4375 219.464844 81.710938 216.421875 75.570312 212.617188 C 73.558594 211.371094 71.542969 209.980469 70.300781 207.964844 C 69.0625 205.949219 68.796875 203.160156 70.261719 201.304688 C 71.710938 199.46875 74.433594 199.0625 76.679688 199.714844 C 78.925781 200.367188 80.8125 201.867188 82.636719 203.332031 C 85.308594 205.484375 87.789062 207.578125 90.464844 209.730469 C 89.375 206.652344 88.429688 203.519531 87.628906 200.355469 C 86.929688 197.582031 86.8125 193.816406 89.46875 192.757812 C 91.183594 192.074219 93.195312 193.109375 94.25 194.621094 C 95.308594 196.136719 95.65625 198.019531 96.035156 199.824219 C 97.109375 204.953125 98.660156 209.984375 100.65625 214.828125 C 101.636719 217.210938 102.734375 219.566406 104.261719 221.640625 C 107.882812 226.570312 113.550781 229.507812 119.09375 232.09375 C 122.53125 233.699219 126.023438 235.242188 129.710938 236.140625 C 134.457031 237.300781 139.394531 237.355469 144.28125 237.40625 C 148.921875 237.453125 153.070312 236.652344 157.714844 236.699219 C 157.699219 236.375 158.308594 236.730469 158.097656 236.980469 C 157.882812 237.230469 157.480469 237.113281 157.179688 236.972656 C 147.601562 232.558594 137.964844 228.109375 129.316406 222.066406 C 120.667969 216.03125 112.972656 208.253906 108.582031 198.660156 C 107.628906 196.574219 106.828125 194.398438 105.589844 192.460938 C 103.691406 189.488281 100.777344 187.171875 97.445312 186 C 93.914062 184.753906 89.972656 184.761719 86.636719 183.0625 C 85.832031 182.65625 85.050781 182.128906 84.582031 181.359375 C 84.171875 180.6875 84.03125 179.890625 83.964844 179.109375 C 83.722656 176.320312 84.304688 173.464844 85.613281 170.996094 C 85.933594 170.394531 86.339844 169.777344 86.96875 169.523438 C 87.855469 169.171875 88.835938 169.648438 89.660156 170.132812 C 93.929688 172.640625 98.175781 174.667969 101.730469 178.113281 C 97.992188 171.164062 94.796875 163.921875 92.175781 156.480469 C 91.226562 153.769531 90.34375 151.015625 88.96875 148.496094 C 87.578125 145.9375 85.714844 143.667969 84.011719 141.308594 C 81.429688 137.714844 79.207031 133.878906 76.996094 130.046875 C 74.632812 125.957031 72.179688 121.351562 73.246094 116.75 C 73.722656 114.675781 75.277344 112.566406 77.40625 112.527344 C 79.035156 112.5 80.46875 113.714844 81.238281 115.148438 C 82.007812 116.585938 82.261719 118.230469 82.613281 119.820312 C 84.011719 126.132812 87.160156 133.316406 91.621094 137.996094 C 93.90625 131.3125 92.128906 123.957031 92.972656 116.945312 C 93.148438 115.496094 93.492188 113.953125 94.582031 112.976562 C 96.039062 111.675781 98.410156 111.890625 100.015625 113.003906 C 101.621094 114.117188 102.605469 115.917969 103.375 117.714844 C 107.441406 127.242188 105.421875 139.226562 100.292969 148.230469 C 100.125 147.796875 100.949219 147.820312 101.292969 148.140625 C 107.785156 154.242188 110.613281 163.164062 113.472656 171.601562 C 118.765625 187.238281 126.210938 204.761719 139.511719 214.53125 C 138.039062 205.277344 137.300781 195.90625 137.304688 186.539062 C 137.308594 181.464844 137.359375 175.890625 134.09375 172.007812 C 131.761719 169.230469 128.179688 167.914062 125.042969 166.09375 C 121.910156 164.273438 118.859375 161.320312 119.015625 157.699219 C 119.074219 156.296875 119.617188 154.96875 120.234375 153.710938 C 121.175781 151.789062 122.734375 149.71875 124.871094 149.835938 C 125.757812 149.886719 126.585938 150.332031 127.289062 150.878906 C 130.53125 153.40625 131.488281 157.859375 133.933594 161.160156 C 134.808594 162.339844 136.03125 163.441406 137.5 163.453125 C 139.761719 163.476562 141.160156 161.054688 141.996094 158.949219 C 144.4375 152.800781 145.550781 146.167969 146.816406 139.671875 C 144.253906 137.378906 141.050781 135.953125 137.90625 134.5625 C 133.019531 132.402344 128.132812 130.242188 123.246094 128.078125 C 121.222656 127.183594 119.171875 126.273438 117.445312 124.886719 C 115.722656 123.5 114.328125 121.558594 114.082031 119.359375 C 113.863281 117.390625 114.566406 115.441406 115.367188 113.636719 C 115.605469 113.097656 115.871094 112.542969 116.328125 112.175781 C 116.832031 111.773438 117.507812 111.648438 118.148438 111.636719 C 122.25 111.554688 125.3125 115.140625 128.3125 117.9375 C 133.207031 122.507812 139.28125 125.730469 145.882812 126.875 C 144.371094 113.351562 138.753906 100.3125 129.960938 89.921875 C 128.53125 88.230469 126.910156 86.273438 127.25 84.078125 C 127.601562 81.832031 130.046875 80.371094 132.324219 80.445312 C 134.597656 80.511719 136.667969 81.75 138.460938 83.152344 C 142.378906 86.21875 145.527344 90.269531 147.53125 94.828125 C 148.8125 97.746094 149.625 100.847656 150.398438 103.941406 C 154.199219 119.140625 157.179688 135.140625 151.796875 149.851562 C 153.4375 150.003906 154.84375 148.777344 156.105469 147.714844 C 158.890625 145.363281 162.03125 143.429688 165.382812 141.988281 C 166.191406 141.644531 167.050781 141.320312 167.921875 141.410156 C 169.03125 141.523438 169.988281 142.3125 170.558594 143.269531 C 171.125 144.230469 171.355469 145.351562 171.507812 146.453125 C 171.882812 149.191406 171.683594 152.300781 169.703125 154.226562 C 168.425781 155.472656 166.625 155.996094 164.921875 156.542969 C 161.476562 157.644531 156.847656 158.605469 153.609375 160.222656 C 145.148438 173.132812 141.792969 189.292969 144.410156 204.503906 C 145.375 210.121094 147.234375 215.789062 151.085938 219.992188 C 157.667969 227.171875 169.320312 228.605469 173.585938 237.363281 C 170.832031 225.40625 171.597656 212.511719 177.035156 201.511719 C 177.277344 201.605469 177.570312 201.558594 177.773438 201.394531 C 174.0625 199.613281 169.789062 199.023438 165.734375 199.730469 C 164.4375 199.960938 163.164062 200.3125 161.875 200.574219 C 158.9375 201.164062 155.90625 201.25 152.941406 200.835938 C 152.554688 200.78125 152.132812 200.699219 151.875 200.40625 C 151.617188 200.113281 151.585938 199.691406 151.578125 199.300781 C 151.5625 198.203125 151.617188 197.105469 151.753906 196.019531 C 151.941406 194.519531 152.285156 193.003906 153.085938 191.71875 C 153.886719 190.433594 155.207031 189.410156 156.710938 189.257812 C 158.003906 189.128906 159.261719 189.640625 160.492188 190.070312 C 162.578125 190.796875 165.085938 190.910156 167.277344 191.195312 C 162.683594 184.933594 159.9375 177.332031 159.46875 169.582031 C 159.351562 167.605469 159.613281 165.210938 161.382812 164.324219 C 162.03125 164 162.777344 163.945312 163.5 163.933594 C 165.714844 163.898438 168.078125 164.253906 169.765625 165.695312 C 171.4375 167.125 172.164062 169.382812 172.429688 171.570312 C 172.699219 173.753906 172.589844 175.980469 172.972656 178.144531 C 173.78125 182.730469 176.914062 186.839844 181.117188 188.835938 C 185.445312 182.082031 192.238281 175.25 192.972656 167.261719 C 193.636719 160.023438 189.378906 153.339844 185.226562 147.367188 C 176.921875 135.417969 168.300781 123.636719 161.265625 110.894531 C 154.230469 98.152344 148.78125 84.304688 147.371094 69.820312 C 147.097656 67.011719 146.988281 64.097656 147.964844 61.449219 C 148.941406 58.804688 151.238281 56.46875 154.050781 56.234375 C 155.945312 56.078125 157.777344 56.859375 159.503906 57.65625 C 161.21875 58.441406 163.046875 59.390625 163.820312 61.109375 C 164.382812 62.371094 164.265625 63.8125 164.160156 65.191406 C 163.332031 76.09375 163.019531 87.375 165.125 98.105469 C 170.074219 96.308594 173.640625 91.871094 175.902344 87.117188 C 178.167969 82.367188 179.371094 77.1875 181.191406 72.246094 C 181.832031 70.503906 182.65625 68.671875 184.269531 67.761719 C 186.359375 66.585938 189.195312 67.492188 190.664062 69.382812 C 192.132812 71.28125 192.402344 73.890625 191.9375 76.242188 C 191.46875 78.59375 190.347656 80.753906 189.238281 82.878906 C 188.070312 85.121094 186.902344 87.363281 185.734375 89.601562 C 185.242188 90.539062 184.929688 92.078125 183.910156 92.371094 C 185.742188 92.367188 187.570312 92.367188 189.402344 92.367188 C 192.214844 92.367188 195.175781 92.40625 197.597656 93.835938 C 197.914062 94.019531 198.226562 94.238281 198.402344 94.558594 C 198.628906 94.964844 198.597656 95.464844 198.542969 95.929688 C 198.316406 98.019531 197.835938 100.125 196.746094 101.921875 C 195.65625 103.71875 193.878906 105.183594 191.800781 105.519531 C 190.269531 105.765625 188.714844 105.394531 187.214844 105.003906 C 184.046875 104.183594 181.027344 103.496094 177.917969 102.480469 C 173.523438 103.828125 171.324219 109.148438 172.101562 113.679688 C 172.878906 118.210938 175.898438 122.023438 179.117188 125.304688 C 183.226562 129.492188 187.824219 133.183594 191.84375 137.457031 C 195.863281 141.730469 199.714844 146.320312 200.96875 152.050781 C 209.933594 143.160156 216.953125 132.316406 221.402344 120.503906 C 222.496094 117.601562 223.445312 114.589844 223.5 111.488281 C 223.59375 106.402344 220.152344 102.6875 217.128906 98.597656 C 215.128906 95.886719 213.390625 92.984375 211.949219 89.941406 C 210.667969 87.238281 209.597656 84.238281 210.171875 81.300781 C 210.742188 78.363281 213.53125 75.683594 216.472656 76.234375 C 218.359375 76.589844 219.820312 78.136719 220.703125 79.84375 C 221.582031 81.546875 222.011719 83.445312 222.683594 85.242188 C 223.527344 87.507812 224.761719 89.628906 226.320312 91.480469 C 229.796875 85.339844 229.207031 77.816406 230.457031 70.875 C 230.855469 68.679688 231.910156 66.089844 234.128906 65.84375 C 235.226562 65.726562 236.292969 66.261719 237.175781 66.929688 C 240.476562 69.429688 241.9375 73.785156 241.921875 77.925781 C 241.90625 82.0625 240.621094 86.078125 239.351562 90.019531 C 237.375 96.132812 234.941406 101.78125 232.96875 107.898438 C 236.441406 109.058594 240.042969 106.804688 243.015625 104.664062 C 246.738281 101.984375 250.460938 99.300781 254.183594 96.621094 C 256.140625 95.210938 258.152344 93.777344 260.472656 93.128906 C 262.796875 92.480469 265.53125 92.769531 267.238281 94.472656 C 268.707031 95.933594 269.15625 98.15625 269.042969 100.222656 C 268.757812 105.378906 265.371094 109.996094 261.070312 112.851562 C 256.773438 115.710938 251.640625 117.035156 246.550781 117.894531 C 242.671875 118.550781 238.589844 119.027344 235.339844 121.242188 C 231.902344 123.589844 229.953125 127.511719 228.03125 131.207031 C 221.191406 144.359375 212.898438 156.09375 204.660156 168.421875 C 211.527344 170.445312 219.742188 169.984375 224.824219 164.9375 C 228.023438 161.761719 229.523438 157.238281 230.191406 152.78125 C 230.574219 150.226562 230.746094 147.542969 232.054688 145.316406 C 233.367188 143.09375 236.292969 141.535156 238.578125 142.734375 C 240.183594 143.578125 240.964844 145.515625 240.941406 147.328125 C 240.917969 149.140625 240.238281 150.871094 239.566406 152.550781 C 238.371094 155.546875 237.175781 158.542969 235.980469 161.539062 C 243.855469 161.273438 251.242188 157.582031 257.683594 153.039062 C 262.121094 149.910156 266.441406 146.0625 268.089844 140.890625 C 269.832031 135.421875 268.308594 129.386719 269.652344 123.8125 C 269.988281 122.425781 270.539062 121.019531 271.636719 120.113281 C 273.679688 118.429688 276.699219 119.054688 279.246094 119.773438 C 279.941406 119.964844 280.664062 120.175781 281.179688 120.679688 C 281.933594 121.417969 282.042969 122.589844 281.984375 123.644531 C 281.785156 127.386719 280.097656 131.148438 281.097656 134.757812 C 281.234375 135.25 281.441406 135.761719 281.863281 136.046875 C 282.335938 136.367188 282.953125 136.335938 283.515625 136.285156 C 287.738281 135.898438 291.917969 135.011719 295.933594 133.652344 C 299.089844 132.585938 303.414062 131.625 305.039062 134.53125 C 305.570312 135.484375 305.613281 136.632812 305.441406 137.710938 C 304.84375 141.4375 301.828125 144.476562 298.3125 145.847656 C 294.792969 147.222656 290.859375 147.136719 287.152344 146.4375 C 283.914062 145.828125 280.605469 144.765625 277.390625 145.488281 C 274.175781 146.214844 271.285156 149.703125 272.65625 152.699219 C 273.410156 154.359375 275.164062 155.289062 276.796875 156.101562 C 282.304688 158.839844 288.007812 161.632812 294.148438 161.992188 C 295.113281 162.050781 296.121094 162.054688 296.980469 162.503906 C 298.855469 163.480469 299.144531 166.1875 298.234375 168.097656 C 296.824219 171.042969 293.367188 172.585938 290.105469 172.558594 C 286.839844 172.539062 283.730469 171.21875 280.824219 169.734375 C 277.734375 168.152344 274.753906 166.355469 271.914062 164.359375 C 270.117188 163.097656 268.226562 161.699219 266.03125 161.609375 C 264.566406 161.550781 263.152344 162.085938 261.808594 162.664062 C 253.988281 166.050781 246.953125 171.230469 238.8125 173.75 C 230.972656 176.179688 222.597656 175.996094 214.394531 175.789062 C 213.050781 179.507812 219.351562 182.894531 217.882812 186.566406 C 217.121094 188.460938 214.746094 189 212.722656 189.277344 C 211.78125 189.40625 210.777344 189.53125 209.910156 189.132812 C 208.378906 188.429688 207.949219 186.492188 207.71875 184.816406 C 207.210938 181.199219 206.703125 177.578125 206.195312 173.960938 C 202.5625 173.246094 199.746094 177.019531 198.121094 180.347656 C 188.855469 199.34375 184.941406 221.191406 187.566406 242.164062 C 190.144531 235.421875 193.863281 229.117188 198.519531 223.601562 C 201.277344 220.335938 204.371094 217.328125 206.710938 213.75 C 209.667969 209.234375 211.304688 203.984375 212.535156 198.730469 C 213.015625 196.667969 213.472656 194.523438 214.761719 192.84375 C 216.050781 191.171875 218.457031 190.136719 220.335938 191.105469 C 222.234375 192.082031 222.777344 194.585938 222.511719 196.703125 C 222.183594 199.300781 220.996094 201.699219 219.824219 204.042969 C 217.816406 208.054688 215.804688 212.070312 213.796875 216.085938 C 221.484375 211.742188 229.933594 208.875 237.566406 204.4375 C 245.199219 200.003906 252.253906 193.515625 254.492188 184.976562 C 255.023438 182.949219 255.277344 180.828125 256.171875 178.933594 C 257.066406 177.039062 258.8125 175.351562 260.90625 175.3125 C 263.671875 175.257812 265.753906 178.179688 265.796875 180.945312 C 265.84375 183.710938 264.433594 186.265625 262.996094 188.628906 C 261.5625 190.992188 260.015625 193.425781 259.746094 196.179688 C 270.265625 195.761719 280.800781 195.695312 291.324219 195.984375 C 293.554688 196.042969 296.046875 196.238281 297.523438 197.90625 C 298.234375 198.703125 298.609375 199.757812 298.734375 200.816406 C 299.214844 204.980469 295.8125 208.855469 291.820312 210.121094 C 287.828125 211.386719 283.46875 210.578125 279.488281 209.269531 C 275.511719 207.960938 271.675781 206.148438 267.5625 205.359375 C 265.128906 204.894531 262.621094 204.792969 260.15625 205.066406 C 256.445312 205.476562 252.882812 206.714844 249.378906 207.996094 C 245.792969 209.3125 242.226562 210.6875 238.753906 212.277344 C 220.027344 220.875 204.671875 236.21875 195.480469 254.660156 C 197.804688 249.734375 202.269531 246.074219 207.164062 243.679688 C 212.058594 241.292969 217.417969 240.035156 222.722656 238.800781 C 226.171875 237.996094 229.621094 237.1875 233.074219 236.386719 C 239.433594 234.902344 245.898438 233.375 251.558594 230.117188 C 256.464844 227.289062 260.570312 223.265625 265.3125 220.175781 C 270.054688 217.089844 275.902344 214.925781 281.347656 216.464844 C 283.957031 217.203125 286.507812 219.050781 287.003906 221.714844 C 287.453125 224.105469 286.089844 226.566406 284.136719 228.015625 C 282.183594 229.464844 279.734375 230.070312 277.328125 230.429688 C 272.589844 231.136719 267.710938 231.019531 263.089844 232.273438 C 258.460938 233.53125 253.90625 236.59375 252.699219 241.230469 C 252.589844 241.644531 252.511719 242.101562 252.683594 242.496094 C 252.867188 242.925781 253.300781 243.183594 253.71875 243.390625 C 256.914062 244.9375 260.636719 244.695312 264.183594 244.679688 C 270.3125 244.660156 276.445312 245.4375 282.378906 246.980469 C 283.261719 247.210938 284.203125 247.496094 284.777344 248.207031 C 285.351562 248.917969 284.949219 251.3125 284.117188 251.691406 C 281.683594 255.199219 277.191406 256.816406 272.921875 256.839844 C 268.65625 256.859375 264.507812 255.527344 260.449219 254.207031 C 255.082031 252.460938 249.714844 250.710938 244.347656 248.964844 C 236.695312 246.476562 228.496094 243.964844 220.746094 246.140625 C 213.230469 248.25 207.410156 254.636719 204.578125 261.910156 C 201.75 269.183594 201.589844 277.25 202.5625 284.996094 C 203.53125 292.742188 205.578125 300.300781 207.054688 307.96875 C 207.328125 309.382812 207.578125 310.859375 207.183594 312.246094 C 206.390625 315.027344 203.347656 316.464844 200.554688 317.222656 C 193.886719 319.039062 186.71875 318.976562 180.085938 317.039062 C 179.140625 316.765625 178.183594 316.4375 177.441406 315.796875 C 176.460938 314.945312 175.984375 313.65625 175.65625 312.398438 C 172.667969 300.964844 178.644531 289.035156 177.882812 277.242188 C 177.417969 270.003906 174.300781 262.960938 169.257812 257.746094 C 163.949219 252.257812 154.355469 251.167969 146.71875 250.96875 " fill-opacity="1" fill-rule="nonzero"/></g><path fill="#fcdbb7" d="M 188.386719 314.132812 C 189.777344 313.488281 191.054688 312.609375 192.316406 311.738281 C 194.972656 309.914062 197.753906 307.933594 199.042969 304.980469 C 200.285156 302.132812 199.917969 298.839844 199.125 295.839844 C 198.332031 292.835938 197.132812 289.921875 196.757812 286.835938 C 196.195312 282.226562 197.835938 277.628906 199.128906 273.167969 C 196.144531 273.777344 193.878906 276.398438 192.898438 279.289062 C 191.917969 282.171875 192.011719 285.304688 192.25 288.34375 C 192.488281 291.382812 192.855469 294.453125 192.394531 297.464844 C 191.605469 302.574219 188.511719 307.015625 185.148438 310.941406 C 183.339844 313.058594 181.390625 315.140625 180.332031 317.714844 C 182.105469 315.402344 185.742188 315.359375 188.386719 314.132812 Z M 185.832031 304.167969 C 188.21875 299.90625 190.011719 295.183594 190.089844 290.300781 C 190.203125 283.035156 186.574219 276.234375 185.667969 269.027344 C 185.027344 263.898438 185.480469 259.058594 186.234375 253.941406 C 182.464844 257.09375 179.078125 261.035156 177.957031 265.816406 C 177.480469 267.84375 177.433594 269.953125 177.554688 272.035156 C 178.015625 279.921875 180.863281 287.648438 180.234375 295.523438 C 179.765625 301.320312 177.421875 307.039062 178.316406 312.785156 C 178.589844 314.53125 179.171875 316.25 180.183594 317.703125 C 179.945312 312.703125 183.390625 308.539062 185.832031 304.167969 Z M 175.222656 307.050781 C 173.824219 300.757812 173.152344 294.308594 173.214844 287.863281 C 173.25 284.085938 173.539062 280.296875 173.234375 276.53125 C 172.929688 272.765625 171.984375 268.949219 169.789062 265.875 C 168.433594 263.96875 166.644531 262.414062 165.1875 260.585938 C 161.789062 256.328125 160.140625 250.746094 158.800781 245.464844 C 156.316406 251.019531 154.804688 257.511719 157.164062 263.117188 C 158.347656 265.941406 160.414062 268.292969 161.941406 270.945312 C 164.027344 274.570312 165.0625 278.6875 166.070312 282.746094 C 166.492188 284.433594 166.914062 286.125 167.046875 287.859375 C 167.210938 289.929688 166.960938 292.003906 166.863281 294.078125 C 166.628906 299.039062 167.316406 304.152344 169.679688 308.523438 C 172.035156 312.894531 176.234375 316.429688 181.140625 317.203125 C 177.636719 315.195312 176.097656 310.996094 175.222656 307.050781 Z M 168.632812 308.894531 C 167.921875 307.46875 167.460938 305.929688 167.0625 304.386719 C 165.128906 296.988281 164.453125 289.648438 160.050781 283.398438 C 163.492188 289.953125 161.261719 298.140625 163.574219 305.175781 C 165.730469 311.71875 172.089844 316.65625 178.960938 317.121094 C 174.273438 316.703125 170.730469 313.113281 168.632812 308.894531 Z M 204.691406 268.542969 C 204.890625 264.488281 205.890625 260.589844 207.195312 256.75 C 206.15625 258.382812 205.277344 260.121094 204.578125 261.910156 C 201.75 269.183594 201.589844 277.25 202.5625 284.996094 C 203.53125 292.742188 205.578125 300.300781 207.054688 307.96875 C 207.160156 308.523438 207.265625 309.09375 207.324219 309.660156 C 209.425781 304.574219 209.480469 298.421875 208.570312 292.859375 C 207.238281 284.734375 204.289062 276.765625 204.691406 268.542969 Z M 212.886719 241.398438 C 213.464844 239.585938 213.96875 237.753906 214.34375 235.894531 C 214.859375 233.328125 215.125 230.707031 215.320312 228.078125 C 212.230469 230.960938 209.339844 234.058594 206.667969 237.339844 C 206.652344 239.652344 206.511719 241.949219 206.128906 244.210938 C 206.472656 244.03125 206.816406 243.851562 207.164062 243.679688 C 209.015625 242.78125 210.933594 242.039062 212.886719 241.398438 Z M 218.488281 207.496094 C 221.746094 199.605469 228.542969 193.820312 235.101562 188.351562 C 232.625 188.480469 229.648438 189.402344 227.609375 190.808594 C 225.898438 191.992188 224.171875 193.203125 222.476562 194.457031 C 222.597656 195.199219 222.605469 195.976562 222.511719 196.703125 C 222.183594 199.300781 220.996094 201.699219 219.824219 204.042969 C 217.816406 208.054688 215.804688 212.070312 213.796875 216.085938 C 214.695312 215.578125 215.601562 215.09375 216.523438 214.621094 C 216.9375 212.1875 217.539062 209.796875 218.488281 207.496094 Z M 208.035156 211.269531 C 207.949219 211.496094 207.875 211.726562 207.796875 211.957031 C 208.664062 210.410156 209.398438 208.796875 210.035156 207.136719 C 209.257812 208.449219 208.574219 209.816406 208.035156 211.269531 Z M 186.984375 222.355469 C 186.566406 228.96875 186.746094 235.609375 187.566406 242.164062 C 188.523438 239.660156 189.640625 237.214844 190.902344 234.851562 C 190.246094 230.492188 189.007812 226.222656 186.984375 222.355469 Z M 162.378906 190.558594 C 163.996094 190.871094 165.714844 190.992188 167.277344 191.195312 C 165.921875 189.34375 164.730469 187.375 163.703125 185.320312 C 163.433594 186.164062 163.1875 187.019531 162.964844 187.882812 C 162.738281 188.761719 162.542969 189.65625 162.378906 190.558594 Z M 172.058594 199.65625 C 169.964844 199.347656 167.820312 199.367188 165.734375 199.730469 C 164.5 199.949219 163.285156 200.277344 162.058594 200.53125 C 162.441406 203.464844 163.285156 206.304688 164.710938 208.910156 C 166.4375 212.0625 168.917969 214.722656 171.035156 217.628906 C 171.449219 218.191406 171.839844 218.765625 172.222656 219.347656 C 172.59375 214.800781 173.53125 210.324219 175.097656 206.050781 C 173.925781 204.011719 172.910156 201.871094 172.058594 199.65625 Z M 171.632812 168.367188 C 171.664062 168.308594 171.695312 168.25 171.726562 168.191406 C 171.699219 168.261719 171.675781 168.332031 171.644531 168.402344 C 171.640625 168.390625 171.636719 168.378906 171.632812 168.367188 " fill-opacity="1" fill-rule="nonzero"/></svg>