<svg xmlns="http://www.w3.org/2000/svg" xmlns:xlink="http://www.w3.org/1999/xlink" width="500" zoomAndPan="magnify" viewBox="0 0 375 374.999991" height="500" preserveAspectRatio="xMidYMid meet" version="1.0"><path fill="#7b9568" d="M 241.226562 178.476562 C 275.71875 135.894531 240.867188 92.5625 218.855469 143 C 249.164062 14.273438 170.839844 14.570312 178.582031 123.199219 C 165.8125 29.984375 100.910156 58.589844 140.921875 138.546875 C 96.925781 109.777344 76.21875 138.15625 121.164062 188.984375 Z M 241.226562 178.476562 " fill-opacity="1" fill-rule="nonzero"/><path fill="#5c744b" d="M 137.003906 181.195312 C 126.84375 169.707031 118.746094 157.332031 111.820312 143.652344 C 115.480469 158.480469 124.558594 172.292969 137.003906 181.195312 Z M 137.003906 181.195312 " fill-opacity="1" fill-rule="nonzero"/><path fill="#5c744b" d="M 143.4375 83.234375 C 143.308594 113.117188 151.636719 143.226562 167.769531 168.429688 C 166.433594 165.515625 164.40625 161.261719 163.132812 158.28125 C 152.550781 134.523438 146.34375 109.058594 143.4375 83.234375 Z M 143.4375 83.234375 " fill-opacity="1" fill-rule="nonzero"/><path fill="#5c744b" d="M 201.707031 157.203125 C 201.476562 160.96875 201.085938 164.699219 200.757812 168.429688 C 207.0625 138.941406 206.738281 108.273438 202.980469 78.488281 C 203.308594 104.214844 203.765625 131.609375 201.707031 157.203125 Z M 201.707031 157.203125 " fill-opacity="1" fill-rule="nonzero"/><path fill="#5c744b" d="M 225.09375 166.203125 C 234.402344 159.429688 240.3125 147.972656 241.03125 136.484375 C 236.917969 147.285156 231.953125 156.875 225.09375 166.203125 Z M 225.09375 166.203125 " fill-opacity="1" fill-rule="nonzero"/><path fill="#f8cfca" d="M 257.589844 230.875 C 254.652344 249.664062 247.824219 266.945312 237.113281 282.785156 C 231.003906 291.816406 221.664062 298.070312 211.046875 300.359375 C 191.808594 304.484375 172.34375 304.417969 152.679688 299.835938 C 129.882812 291.652344 114.566406 272.476562 106.890625 248.484375 C 101.109375 230.417969 99.671875 209.636719 102.644531 188.820312 C 103.328125 184.039062 107.117188 180.308594 111.855469 179.65625 C 155.785156 173.699219 201.085938 171.929688 247.238281 173.894531 C 252.300781 174.125 256.515625 177.886719 257.296875 182.894531 C 259.878906 199.847656 260.007812 215.820312 257.589844 230.875 Z M 257.589844 230.875 " fill-opacity="1" fill-rule="nonzero"/><path fill="#f4baba" d="M 257.589844 230.875 C 254.652344 249.664062 247.824219 266.945312 237.113281 282.785156 C 231.003906 291.816406 221.664062 298.070312 211.046875 300.359375 C 191.808594 304.484375 172.34375 304.417969 152.679688 299.835938 C 129.882812 291.652344 114.566406 272.476562 106.890625 248.484375 C 119.269531 235.980469 112.3125 219.78125 124.167969 213.792969 C 127.140625 212.285156 130.699219 211.992188 133.574219 213.660156 C 140.203125 217.457031 141.871094 227.964844 148.335938 233.394531 C 152.289062 236.734375 158.332031 235.753906 160.488281 231.039062 C 163.523438 224.460938 160.878906 214.28125 165.058594 205.902344 C 168.816406 198.441406 179.300781 197.425781 183.839844 204.464844 C 188.023438 210.945312 188.480469 221.222656 192.691406 228.257812 C 196.90625 235.328125 207 234.769531 210.460938 227.277344 C 212.878906 221.972656 213.464844 215.167969 216.863281 209.765625 C 222.1875 201.320312 234.859375 202.402344 238.746094 211.632812 C 242.140625 219.847656 244.496094 230.320312 257.589844 230.875 Z M 257.589844 230.875 " fill-opacity="1" fill-rule="nonzero"/></svg>