<svg xmlns="http://www.w3.org/2000/svg" xmlns:xlink="http://www.w3.org/1999/xlink" width="500" zoomAndPan="magnify" viewBox="0 0 375 374.999991" height="500" preserveAspectRatio="xMidYMid meet" version="1.0"><defs><clipPath id="d8c7054b88"><path d="M 108 140 L 246 140 L 246 313.1875 L 108 313.1875 Z M 108 140 " clip-rule="nonzero"/></clipPath></defs><g clip-path="url(#d8c7054b88)"><path fill="#724947" d="M 109.851562 313.226562 L 109.730469 313.226562 C 109.542969 313.210938 109.367188 313.160156 109.199219 313.074219 C 109.03125 312.988281 108.882812 312.875 108.761719 312.730469 C 108.640625 312.585938 108.550781 312.421875 108.492188 312.242188 C 108.433594 312.0625 108.414062 311.878906 108.429688 311.691406 C 109.351562 300.675781 117.980469 280.324219 129.910156 260.988281 C 149.277344 229.640625 166.722656 216.984375 175.398438 212.234375 C 193.675781 202.21875 218.527344 185.660156 233.070312 163.65625 C 241.746094 150.539062 242.632812 141.582031 242.644531 141.492188 C 242.667969 141.3125 242.726562 141.140625 242.820312 140.980469 C 242.910156 140.824219 243.027344 140.6875 243.167969 140.574219 C 243.3125 140.460938 243.472656 140.378906 243.644531 140.324219 C 243.820312 140.273438 244 140.253906 244.183594 140.269531 C 244.363281 140.285156 244.535156 140.335938 244.699219 140.417969 C 244.863281 140.5 245.003906 140.609375 245.125 140.746094 C 245.246094 140.882812 245.339844 141.035156 245.402344 141.207031 C 245.460938 141.378906 245.492188 141.558594 245.484375 141.738281 C 245.449219 142.121094 244.578125 151.332031 235.597656 165 C 220.757812 187.625 195.394531 204.527344 176.765625 214.742188 C 168.335938 219.359375 151.355469 231.703125 132.332031 262.496094 C 120.800781 281.164062 112.140625 301.488281 111.269531 311.917969 C 111.253906 312.097656 111.207031 312.265625 111.128906 312.429688 C 111.050781 312.589844 110.945312 312.730469 110.816406 312.851562 C 110.683594 312.972656 110.535156 313.066406 110.367188 313.128906 C 110.203125 313.195312 110.03125 313.226562 109.851562 313.226562 Z M 109.851562 313.226562 " fill-opacity="1" fill-rule="nonzero"/></g><path fill="#e6aea9" d="M 321.183594 124.800781 C 321.183594 124.800781 333.992188 129.457031 335.601562 139.855469 C 337.207031 150.257812 316.105469 163.929688 316.105469 163.929688 L 284.773438 151.128906 L 288.738281 136.589844 Z M 321.183594 124.800781 " fill-opacity="1" fill-rule="nonzero"/><path fill="#b77574" d="M 265.789062 116.6875 C 265.789062 116.6875 289.710938 94.804688 290.882812 82.332031 C 292.058594 69.859375 286.054688 60.71875 278.796875 58.941406 C 271.539062 57.160156 266.929688 62.320312 264.550781 61.082031 C 262.171875 59.84375 255.800781 46.964844 240.855469 53.78125 C 225.90625 60.59375 214.492188 73.609375 214.582031 88.820312 C 214.667969 104.035156 265.789062 116.6875 265.789062 116.6875 Z M 265.789062 116.6875 " fill-opacity="1" fill-rule="nonzero"/><path fill="#e6aea9" d="M 222.40625 91.871094 C 222.40625 91.871094 219.605469 76.421875 207.640625 74.71875 C 195.671875 73.011719 190.652344 81.46875 185.648438 82.894531 C 180.648438 84.316406 181.78125 98.820312 189.023438 105.953125 C 196.269531 113.085938 228.269531 139.582031 228.269531 139.582031 Z M 222.40625 91.871094 " fill-opacity="1" fill-rule="nonzero"/><path fill="#e6aea9" d="M 220.066406 129.6875 C 220.066406 129.6875 202.882812 105.457031 186.082031 105.765625 C 169.28125 106.074219 169.121094 115.058594 172.910156 123.566406 C 176.695312 132.074219 186.65625 136.257812 185.117188 137.972656 C 183.582031 139.6875 183.796875 142.820312 186.847656 146.398438 C 189.902344 149.976562 200.785156 152.648438 205.375 154.539062 C 209.964844 156.425781 224.503906 162.371094 233.863281 158.503906 C 243.222656 154.636719 220.066406 129.6875 220.066406 129.6875 Z M 220.066406 129.6875 " fill-opacity="1" fill-rule="nonzero"/><path fill="#e6aea9" d="M 293.378906 149.949219 C 293.378906 149.949219 303.472656 143.269531 313.035156 150.773438 C 322.597656 158.273438 330.914062 166.140625 327.042969 169.113281 C 323.171875 172.085938 313.058594 176.925781 309.980469 180.355469 C 306.902344 183.785156 277.082031 188.355469 241.289062 162.179688 C 205.5 136 293.378906 149.949219 293.378906 149.949219 Z M 293.378906 149.949219 " fill-opacity="1" fill-rule="nonzero"/><path fill="#b77574" d="M 283.507812 92.089844 C 283.507812 92.089844 307.203125 82.792969 318.351562 91.097656 C 329.503906 99.398438 329.597656 106.09375 327.589844 111.296875 C 325.582031 116.503906 328.5 122.203125 321.570312 128.503906 C 315.933594 133.621094 275.285156 155.722656 262.667969 128.007812 C 250.050781 100.292969 283.507812 92.089844 283.507812 92.089844 Z M 283.507812 92.089844 " fill-opacity="1" fill-rule="nonzero"/><path fill="#c48783" d="M 241.289062 162.183594 C 239.300781 161.851562 237.460938 161.132812 235.769531 160.027344 C 234.082031 158.921875 232.6875 157.523438 231.585938 155.832031 C 225.574219 146.523438 211.566406 120.703125 221.363281 94.429688 C 233.621094 61.558594 258.234375 95.75 268.214844 115.421875 C 278.195312 135.09375 298.28125 134.511719 295.039062 146.925781 C 292.339844 157.382812 258.023438 165.042969 241.289062 162.183594 Z M 241.289062 162.183594 " fill-opacity="1" fill-rule="nonzero"/><path fill="#724947" d="M 138.304688 252.265625 C 138.183594 252.265625 138.066406 252.25 137.949219 252.21875 C 137.832031 252.1875 137.722656 252.140625 137.617188 252.082031 C 137.511719 252.023438 137.414062 251.953125 137.328125 251.867188 C 137.238281 251.785156 137.164062 251.691406 137.101562 251.589844 C 137.035156 251.484375 136.984375 251.375 136.949219 251.261719 C 136.914062 251.144531 136.894531 251.027344 136.886719 250.90625 C 136.882812 250.785156 136.890625 250.667969 136.914062 250.546875 C 136.941406 250.429688 136.980469 250.316406 137.03125 250.207031 C 149.589844 224.847656 140.636719 194.417969 140.542969 194.113281 C 140.488281 193.929688 140.46875 193.746094 140.488281 193.558594 C 140.507812 193.371094 140.5625 193.195312 140.648438 193.027344 C 140.738281 192.859375 140.855469 192.71875 141.003906 192.597656 C 141.148438 192.480469 141.3125 192.390625 141.492188 192.335938 C 141.675781 192.28125 141.859375 192.265625 142.046875 192.285156 C 142.234375 192.300781 142.410156 192.355469 142.578125 192.445312 C 142.746094 192.535156 142.886719 192.652344 143.007812 192.800781 C 143.125 192.945312 143.214844 193.109375 143.269531 193.289062 C 143.660156 194.574219 152.652344 225.085938 139.585938 251.472656 C 139.464844 251.714844 139.289062 251.90625 139.058594 252.050781 C 138.828125 252.191406 138.578125 252.265625 138.304688 252.265625 Z M 138.304688 252.265625 " fill-opacity="1" fill-rule="nonzero"/><path fill="#e6aea9" d="M 176.402344 158.207031 C 176.402344 158.207031 184.976562 156.175781 189.539062 161.222656 C 194.105469 166.269531 187.558594 181.148438 187.558594 181.148438 L 166.082031 185.363281 L 163.058594 176.097656 Z M 176.402344 158.207031 " fill-opacity="1" fill-rule="nonzero"/><path fill="#b77574" d="M 143.582031 173.503906 C 143.582031 173.503906 148.730469 153.179688 144.9375 146.03125 C 141.148438 138.882812 134.664062 136.070312 130.117188 137.675781 C 125.570312 139.28125 124.902344 143.71875 123.175781 143.894531 C 121.449219 144.074219 113.433594 139.371094 107.777344 148.355469 C 102.121094 157.34375 100.574219 168.433594 106.019531 176.613281 C 111.460938 184.792969 143.582031 173.503906 143.582031 173.503906 Z M 143.582031 173.503906 " fill-opacity="1" fill-rule="nonzero"/><path fill="#e6aea9" d="M 111.34375 175.492188 C 111.34375 175.492188 104.34375 168.140625 97.273438 171.472656 C 90.203125 174.804688 90.492188 181.179688 88.316406 183.695312 C 86.140625 186.214844 91.878906 193.675781 98.328125 194.953125 C 104.78125 196.234375 131.445312 199.191406 131.445312 199.191406 Z M 111.34375 175.492188 " fill-opacity="1" fill-rule="nonzero"/><path fill="#e6aea9" d="M 123.511719 196.757812 C 123.511719 196.757812 105.621094 189.769531 96.652344 195.902344 C 87.6875 202.035156 90.792969 206.957031 95.855469 210.191406 C 100.917969 213.429688 107.789062 212.175781 107.570312 213.664062 C 107.351562 215.152344 108.5625 216.75 111.5 217.628906 C 114.441406 218.507812 121.253906 216.058594 124.390625 215.449219 C 127.527344 214.839844 137.507812 212.886719 141.1875 207.472656 C 144.863281 202.058594 123.511719 196.757812 123.511719 196.757812 Z M 123.511719 196.757812 " fill-opacity="1" fill-rule="nonzero"/><path fill="#e6aea9" d="M 170.304688 181.675781 C 170.304688 181.675781 173.382812 174.480469 181.210938 175.136719 C 189.039062 175.789062 196.324219 177.085938 195.300781 180.09375 C 194.28125 183.101562 190.523438 189.277344 190.074219 192.222656 C 189.628906 195.167969 175.144531 208.230469 146.511719 206.796875 C 117.875 205.363281 170.304688 181.675781 170.304688 181.675781 Z M 170.304688 181.675781 " fill-opacity="1" fill-rule="nonzero"/><path fill="#b77574" d="M 144.429688 153.914062 C 144.429688 153.914062 153.933594 140.476562 162.910156 141.027344 C 171.886719 141.574219 174.3125 145.136719 175.074219 148.660156 C 175.839844 152.183594 179.441406 154.230469 177.929688 160.089844 C 176.707031 164.859375 162.59375 191.238281 145.941406 180.746094 C 129.289062 170.257812 144.429688 153.914062 144.429688 153.914062 Z M 144.429688 153.914062 " fill-opacity="1" fill-rule="nonzero"/><path fill="#c48783" d="M 146.515625 206.777344 C 145.320312 207.300781 144.074219 207.5625 142.769531 207.5625 C 141.464844 207.5625 140.21875 207.300781 139.023438 206.777344 C 132.460938 203.886719 115.726562 194.914062 111.691406 177.246094 C 106.644531 155.140625 132.085938 164.855469 144.464844 171.953125 C 156.839844 179.050781 167.480469 171.578125 170.148438 179.429688 C 172.398438 186.066406 156.570312 202.378906 146.515625 206.777344 Z M 146.515625 206.777344 " fill-opacity="1" fill-rule="nonzero"/><path fill="#724947" d="M 166.683594 221.152344 C 166.378906 221.152344 166.105469 221.066406 165.859375 220.894531 C 165.613281 220.71875 165.4375 220.488281 165.335938 220.203125 C 165.238281 219.917969 165.226562 219.628906 165.3125 219.339844 C 165.394531 219.050781 165.554688 218.808594 165.789062 218.621094 C 166.160156 218.324219 175.113281 211.183594 191.261719 205 C 206.132812 199.300781 230.136719 193.421875 260.03125 197.78125 C 260.207031 197.816406 260.375 197.886719 260.527344 197.984375 C 260.675781 198.085938 260.804688 198.210938 260.910156 198.359375 C 261.015625 198.507812 261.089844 198.671875 261.128906 198.847656 C 261.171875 199.027344 261.179688 199.203125 261.152344 199.386719 C 261.128906 199.566406 261.070312 199.734375 260.976562 199.890625 C 260.886719 200.050781 260.769531 200.183594 260.628906 200.296875 C 260.484375 200.410156 260.328125 200.492188 260.152344 200.546875 C 259.976562 200.597656 259.800781 200.617188 259.617188 200.601562 C 230.371094 196.339844 206.925781 202.0625 192.394531 207.617188 C 176.625 213.636719 167.664062 220.773438 167.574219 220.839844 C 167.3125 221.050781 167.015625 221.152344 166.683594 221.152344 Z M 166.683594 221.152344 " fill-opacity="1" fill-rule="nonzero"/><path fill="#e6aea9" d="M 261.710938 222.21875 C 261.710938 222.21875 261.546875 226.625 258.503906 228.167969 C 255.457031 229.710938 249.152344 224.550781 249.152344 224.550781 L 249.992188 213.644531 L 254.882812 213.402344 Z M 261.710938 222.21875 " fill-opacity="1" fill-rule="nonzero"/><path fill="#b77574" d="M 258.714844 204.347656 C 258.714844 204.347656 267.828125 209.542969 271.789062 208.671875 C 275.75 207.800781 277.96875 205.046875 277.796875 202.636719 C 277.625 200.230469 275.582031 199.316406 275.726562 198.460938 C 275.867188 197.601562 279.195312 194.363281 275.625 190.4375 C 272.054688 186.511719 266.90625 184.28125 262.242188 185.8125 C 257.574219 187.34375 258.714844 204.347656 258.714844 204.347656 Z M 258.714844 204.347656 " fill-opacity="1" fill-rule="nonzero"/><path fill="#e6aea9" d="M 262.0625 188.53125 C 262.0625 188.53125 266.523438 186.140625 265.882812 182.285156 C 265.246094 178.425781 262.117188 177.71875 261.183594 176.335938 C 260.253906 174.953125 255.894531 176.722656 254.417969 179.660156 C 252.941406 182.601562 247.945312 195.058594 247.945312 195.058594 Z M 262.0625 188.53125 " fill-opacity="1" fill-rule="nonzero"/><path fill="#e6aea9" d="M 250.179688 191.558594 C 250.179688 191.558594 255.945312 183.867188 254.183594 178.71875 C 252.425781 173.574219 249.640625 174.421875 247.394531 176.429688 C 245.148438 178.4375 244.84375 181.917969 244.164062 181.613281 C 243.488281 181.3125 242.539062 181.691406 241.730469 182.988281 C 240.921875 184.285156 241.191406 187.902344 241.0625 189.503906 C 240.933594 191.101562 240.566406 196.167969 242.667969 198.667969 C 244.769531 201.167969 250.179688 191.558594 250.179688 191.558594 Z M 250.179688 191.558594 " fill-opacity="1" fill-rule="nonzero"/><path fill="#e6aea9" d="M 251.214844 216.148438 C 251.214844 216.148438 254.269531 218.59375 252.910156 222.285156 C 251.550781 225.972656 249.9375 229.3125 248.640625 228.421875 C 247.347656 227.527344 244.84375 224.886719 243.488281 224.277344 C 242.128906 223.667969 237.761719 214.9375 242.277344 201.320312 C 246.792969 187.703125 251.214844 216.148438 251.214844 216.148438 Z M 251.214844 216.148438 " fill-opacity="1" fill-rule="nonzero"/><path fill="#b77574" d="M 268.050781 207.371094 C 268.050781 207.371094 273.265625 213.753906 271.808594 218.011719 C 270.351562 222.269531 268.296875 222.96875 266.5 222.859375 C 264.699219 222.75 263.226562 224.21875 260.605469 222.710938 C 258.46875 221.480469 247.625 211.148438 254.914062 204.515625 C 262.199219 197.882812 268.050781 207.371094 268.050781 207.371094 Z M 268.050781 207.371094 " fill-opacity="1" fill-rule="nonzero"/><path fill="#c48783" d="M 242.277344 201.320312 C 242.183594 200.675781 242.222656 200.039062 242.394531 199.410156 C 242.566406 198.78125 242.859375 198.210938 243.269531 197.707031 C 245.542969 194.925781 252.101562 188.050781 261.164062 188.464844 C 272.507812 188.960938 264.410156 199.953125 259.339844 204.976562 C 254.269531 210.003906 256.449219 216.128906 252.304688 216.378906 C 248.8125 216.566406 243.054688 206.753906 242.277344 201.320312 Z M 242.277344 201.320312 " fill-opacity="1" fill-rule="nonzero"/><path fill="#724947" d="M 126.214844 272.007812 C 126.214844 272.007812 140.429688 279.390625 150.554688 269.859375 C 160.683594 260.324219 166.914062 258.507812 166.914062 258.507812 C 166.914062 258.507812 131.789062 245.199219 126.214844 272.007812 Z M 126.214844 272.007812 " fill-opacity="1" fill-rule="nonzero"/><path fill="#724947" d="M 152.148438 235.242188 C 152.148438 235.242188 162.65625 242.675781 171.761719 236.1875 C 180.871094 229.699219 186.046875 228.9375 186.046875 228.9375 C 186.046875 228.9375 159.515625 214.496094 152.148438 235.242188 Z M 152.148438 235.242188 " fill-opacity="1" fill-rule="nonzero"/><path fill="#724947" d="M 135.90625 251.3125 C 135.90625 251.3125 127.34375 245.125 129.957031 236.367188 C 132.570312 227.609375 131.773438 223.375 131.773438 223.375 C 131.773438 223.375 150.011719 240.078125 135.90625 251.3125 Z M 135.90625 251.3125 " fill-opacity="1" fill-rule="nonzero"/><path fill="#724947" d="M 209.71875 191.242188 C 209.71875 191.242188 202.480469 183.335938 206.882812 175.136719 C 211.285156 166.9375 211.378906 162.578125 211.378906 162.578125 C 211.378906 162.578125 226.082031 182.984375 209.71875 191.242188 Z M 209.71875 191.242188 " fill-opacity="1" fill-rule="nonzero"/><path fill="#724947" d="M 207.925781 203.070312 C 207.925781 203.070312 212.859375 212.585938 222.074219 211.285156 C 231.292969 209.980469 235.410156 211.382812 235.410156 211.382812 C 235.410156 211.382812 221.316406 190.554688 207.925781 203.070312 Z M 207.925781 203.070312 " fill-opacity="1" fill-rule="nonzero"/><path fill="#724947" d="M 220.613281 226.773438 C 220.613281 227.070312 220.585938 227.363281 220.527344 227.65625 C 220.46875 227.945312 220.382812 228.226562 220.269531 228.5 C 220.15625 228.773438 220.019531 229.035156 219.851562 229.28125 C 219.6875 229.527344 219.5 229.753906 219.292969 229.964844 C 219.082031 230.175781 218.855469 230.359375 218.609375 230.527344 C 218.363281 230.691406 218.101562 230.828125 217.828125 230.941406 C 217.554688 231.054688 217.273438 231.140625 216.980469 231.199219 C 216.691406 231.257812 216.398438 231.285156 216.101562 231.285156 C 215.804688 231.285156 215.511719 231.257812 215.222656 231.199219 C 214.929688 231.140625 214.648438 231.054688 214.375 230.941406 C 214.101562 230.828125 213.84375 230.691406 213.597656 230.527344 C 213.351562 230.359375 213.121094 230.175781 212.914062 229.964844 C 212.703125 229.753906 212.515625 229.527344 212.351562 229.28125 C 212.1875 229.035156 212.046875 228.773438 211.933594 228.5 C 211.820312 228.226562 211.734375 227.945312 211.675781 227.65625 C 211.621094 227.363281 211.589844 227.070312 211.589844 226.773438 C 211.589844 226.480469 211.621094 226.183594 211.675781 225.894531 C 211.734375 225.605469 211.820312 225.324219 211.933594 225.046875 C 212.046875 224.773438 212.1875 224.515625 212.351562 224.269531 C 212.515625 224.023438 212.703125 223.792969 212.914062 223.585938 C 213.121094 223.375 213.347656 223.1875 213.597656 223.023438 C 213.84375 222.859375 214.101562 222.71875 214.375 222.605469 C 214.648438 222.492188 214.929688 222.410156 215.222656 222.351562 C 215.511719 222.292969 215.804688 222.265625 216.101562 222.265625 C 216.398438 222.265625 216.691406 222.292969 216.980469 222.351562 C 217.273438 222.410156 217.554688 222.492188 217.828125 222.605469 C 218.101562 222.71875 218.363281 222.859375 218.609375 223.023438 C 218.855469 223.1875 219.082031 223.375 219.292969 223.585938 C 219.5 223.792969 219.6875 224.023438 219.851562 224.269531 C 220.019531 224.515625 220.15625 224.773438 220.269531 225.046875 C 220.382812 225.324219 220.46875 225.605469 220.527344 225.894531 C 220.585938 226.183594 220.613281 226.480469 220.613281 226.773438 Z M 220.613281 226.773438 " fill-opacity="1" fill-rule="nonzero"/><path fill="#724947" d="M 109.730469 261.203125 C 109.339844 261.203125 108.953125 261.164062 108.570312 261.089844 C 108.1875 261.011719 107.816406 260.898438 107.457031 260.75 C 107.09375 260.601562 106.75 260.417969 106.425781 260.199219 C 106.101562 259.984375 105.800781 259.738281 105.523438 259.460938 C 105.25 259.183594 105.003906 258.882812 104.785156 258.558594 C 104.570312 258.234375 104.386719 257.890625 104.234375 257.53125 C 104.085938 257.167969 103.972656 256.796875 103.898438 256.414062 C 103.820312 256.03125 103.78125 255.644531 103.78125 255.253906 C 103.78125 254.863281 103.820312 254.476562 103.898438 254.09375 C 103.972656 253.710938 104.085938 253.339844 104.234375 252.976562 C 104.386719 252.617188 104.570312 252.273438 104.785156 251.949219 C 105.003906 251.625 105.25 251.324219 105.523438 251.046875 C 105.800781 250.769531 106.101562 250.523438 106.425781 250.308594 C 106.75 250.089844 107.09375 249.90625 107.457031 249.757812 C 107.816406 249.609375 108.1875 249.496094 108.570312 249.417969 C 108.953125 249.34375 109.339844 249.304688 109.730469 249.304688 C 110.121094 249.304688 110.507812 249.34375 110.890625 249.417969 C 111.277344 249.496094 111.648438 249.609375 112.007812 249.757812 C 112.367188 249.90625 112.710938 250.089844 113.035156 250.308594 C 113.363281 250.523438 113.660156 250.769531 113.9375 251.046875 C 114.214844 251.324219 114.460938 251.625 114.679688 251.949219 C 114.894531 252.273438 115.078125 252.617188 115.226562 252.976562 C 115.378906 253.339844 115.488281 253.710938 115.566406 254.09375 C 115.640625 254.476562 115.679688 254.863281 115.679688 255.253906 C 115.679688 255.644531 115.640625 256.03125 115.566406 256.414062 C 115.488281 256.796875 115.378906 257.167969 115.226562 257.53125 C 115.078125 257.890625 114.894531 258.234375 114.679688 258.558594 C 114.460938 258.882812 114.214844 259.183594 113.9375 259.460938 C 113.660156 259.738281 113.363281 259.984375 113.035156 260.199219 C 112.710938 260.417969 112.367188 260.601562 112.007812 260.75 C 111.648438 260.898438 111.277344 261.011719 110.890625 261.089844 C 110.507812 261.164062 110.121094 261.203125 109.730469 261.203125 Z M 109.730469 252.179688 C 109.320312 252.179688 108.929688 252.257812 108.550781 252.414062 C 108.171875 252.574219 107.835938 252.796875 107.546875 253.085938 C 107.257812 253.375 107.035156 253.707031 106.878906 254.085938 C 106.722656 254.464844 106.644531 254.859375 106.644531 255.269531 C 106.644531 255.679688 106.722656 256.074219 106.878906 256.449219 C 107.035156 256.828125 107.257812 257.164062 107.546875 257.453125 C 107.835938 257.742188 108.171875 257.964844 108.550781 258.121094 C 108.929688 258.277344 109.320312 258.355469 109.730469 258.355469 C 110.140625 258.355469 110.535156 258.277344 110.914062 258.121094 C 111.292969 257.964844 111.625 257.742188 111.914062 257.453125 C 112.207031 257.164062 112.429688 256.828125 112.585938 256.449219 C 112.742188 256.074219 112.820312 255.679688 112.820312 255.269531 C 112.820312 254.859375 112.742188 254.464844 112.585938 254.085938 C 112.429688 253.707031 112.207031 253.375 111.914062 253.085938 C 111.625 252.796875 111.292969 252.574219 110.914062 252.414062 C 110.535156 252.257812 110.140625 252.179688 109.730469 252.179688 Z M 109.730469 252.179688 " fill-opacity="1" fill-rule="nonzero"/><path fill="#724947" d="M 182.386719 256.453125 C 181.996094 256.453125 181.609375 256.414062 181.226562 256.339844 C 180.84375 256.261719 180.472656 256.148438 180.109375 256 C 179.75 255.851562 179.40625 255.667969 179.082031 255.449219 C 178.757812 255.234375 178.457031 254.988281 178.179688 254.710938 C 177.90625 254.433594 177.65625 254.132812 177.441406 253.808594 C 177.222656 253.484375 177.039062 253.140625 176.890625 252.78125 C 176.742188 252.421875 176.628906 252.046875 176.550781 251.664062 C 176.476562 251.28125 176.4375 250.894531 176.4375 250.503906 C 176.4375 250.113281 176.476562 249.726562 176.550781 249.34375 C 176.628906 248.960938 176.742188 248.589844 176.890625 248.230469 C 177.039062 247.867188 177.222656 247.523438 177.441406 247.199219 C 177.65625 246.875 177.90625 246.574219 178.179688 246.296875 C 178.457031 246.023438 178.757812 245.777344 179.082031 245.558594 C 179.40625 245.34375 179.75 245.160156 180.109375 245.007812 C 180.472656 244.859375 180.84375 244.746094 181.226562 244.671875 C 181.609375 244.59375 181.996094 244.554688 182.386719 244.554688 C 182.777344 244.554688 183.164062 244.59375 183.546875 244.671875 C 183.929688 244.746094 184.304688 244.859375 184.664062 245.007812 C 185.023438 245.160156 185.367188 245.34375 185.691406 245.558594 C 186.015625 245.777344 186.316406 246.023438 186.59375 246.296875 C 186.871094 246.574219 187.117188 246.875 187.332031 247.199219 C 187.550781 247.523438 187.734375 247.867188 187.882812 248.230469 C 188.03125 248.589844 188.144531 248.960938 188.222656 249.34375 C 188.296875 249.726562 188.335938 250.113281 188.335938 250.503906 C 188.335938 250.894531 188.296875 251.28125 188.222656 251.664062 C 188.144531 252.046875 188.03125 252.421875 187.882812 252.78125 C 187.734375 253.140625 187.550781 253.484375 187.332031 253.808594 C 187.117188 254.132812 186.871094 254.433594 186.59375 254.710938 C 186.316406 254.988281 186.015625 255.234375 185.691406 255.449219 C 185.367188 255.667969 185.023438 255.851562 184.664062 256 C 184.300781 256.148438 183.929688 256.261719 183.546875 256.339844 C 183.164062 256.414062 182.777344 256.453125 182.386719 256.453125 Z M 182.386719 247.429688 C 181.976562 247.429688 181.582031 247.511719 181.207031 247.667969 C 180.828125 247.824219 180.492188 248.046875 180.203125 248.335938 C 179.914062 248.625 179.691406 248.960938 179.535156 249.339844 C 179.378906 249.714844 179.296875 250.109375 179.296875 250.519531 C 179.296875 250.929688 179.378906 251.324219 179.535156 251.703125 C 179.691406 252.078125 179.914062 252.414062 180.203125 252.703125 C 180.492188 252.992188 180.828125 253.214844 181.207031 253.375 C 181.582031 253.53125 181.976562 253.609375 182.386719 253.609375 C 182.796875 253.609375 183.191406 253.53125 183.570312 253.375 C 183.949219 253.214844 184.28125 252.992188 184.570312 252.703125 C 184.859375 252.414062 185.082031 252.078125 185.242188 251.703125 C 185.398438 251.324219 185.476562 250.929688 185.476562 250.519531 C 185.476562 250.109375 185.394531 249.71875 185.238281 249.339844 C 185.082031 248.960938 184.859375 248.628906 184.570312 248.335938 C 184.28125 248.046875 183.945312 247.824219 183.566406 247.667969 C 183.191406 247.511719 182.796875 247.433594 182.386719 247.429688 Z M 182.386719 247.429688 " fill-opacity="1" fill-rule="nonzero"/><path fill="#724947" d="M 138.464844 287.554688 C 138.464844 287.902344 138.398438 288.234375 138.265625 288.554688 C 138.132812 288.875 137.945312 289.15625 137.699219 289.402344 C 137.453125 289.648438 137.171875 289.835938 136.851562 289.96875 C 136.53125 290.101562 136.199219 290.167969 135.851562 290.167969 C 135.503906 290.167969 135.171875 290.101562 134.851562 289.96875 C 134.53125 289.835938 134.25 289.648438 134.003906 289.402344 C 133.761719 289.15625 133.570312 288.875 133.4375 288.554688 C 133.304688 288.234375 133.238281 287.902344 133.238281 287.554688 C 133.238281 287.207031 133.304688 286.875 133.4375 286.554688 C 133.570312 286.234375 133.761719 285.953125 134.003906 285.707031 C 134.25 285.460938 134.53125 285.273438 134.851562 285.140625 C 135.171875 285.007812 135.503906 284.941406 135.851562 284.941406 C 136.199219 284.941406 136.53125 285.007812 136.851562 285.140625 C 137.171875 285.273438 137.453125 285.460938 137.699219 285.707031 C 137.945312 285.953125 138.132812 286.234375 138.265625 286.554688 C 138.398438 286.875 138.464844 287.207031 138.464844 287.554688 Z M 138.464844 287.554688 " fill-opacity="1" fill-rule="nonzero"/><path fill="#724947" d="M 165.53125 128.960938 C 165.53125 129.304688 165.464844 129.640625 165.332031 129.960938 C 165.199219 130.28125 165.011719 130.5625 164.765625 130.808594 C 164.523438 131.050781 164.238281 131.242188 163.917969 131.375 C 163.597656 131.507812 163.265625 131.574219 162.917969 131.574219 C 162.574219 131.574219 162.238281 131.507812 161.917969 131.375 C 161.597656 131.242188 161.316406 131.050781 161.070312 130.808594 C 160.828125 130.5625 160.636719 130.28125 160.503906 129.960938 C 160.375 129.640625 160.308594 129.304688 160.308594 128.960938 C 160.308594 128.613281 160.375 128.28125 160.503906 127.960938 C 160.636719 127.640625 160.828125 127.359375 161.070312 127.113281 C 161.316406 126.867188 161.597656 126.679688 161.917969 126.546875 C 162.238281 126.414062 162.574219 126.347656 162.917969 126.347656 C 163.265625 126.347656 163.597656 126.414062 163.917969 126.546875 C 164.238281 126.679688 164.523438 126.867188 164.765625 127.113281 C 165.011719 127.359375 165.199219 127.640625 165.332031 127.960938 C 165.464844 128.28125 165.53125 128.613281 165.53125 128.960938 Z M 165.53125 128.960938 " fill-opacity="1" fill-rule="nonzero"/><path fill="#724947" d="M 306.566406 196.863281 C 306.566406 197.210938 306.5 197.542969 306.367188 197.863281 C 306.234375 198.183594 306.042969 198.464844 305.800781 198.710938 C 305.554688 198.957031 305.273438 199.144531 304.953125 199.277344 C 304.632812 199.410156 304.296875 199.476562 303.953125 199.476562 C 303.605469 199.476562 303.273438 199.410156 302.953125 199.277344 C 302.632812 199.144531 302.347656 198.957031 302.105469 198.710938 C 301.859375 198.464844 301.671875 198.183594 301.539062 197.863281 C 301.40625 197.542969 301.339844 197.210938 301.339844 196.863281 C 301.339844 196.515625 301.40625 196.183594 301.539062 195.863281 C 301.671875 195.542969 301.859375 195.261719 302.105469 195.015625 C 302.347656 194.769531 302.632812 194.582031 302.953125 194.449219 C 303.273438 194.316406 303.605469 194.25 303.953125 194.25 C 304.296875 194.25 304.632812 194.316406 304.953125 194.449219 C 305.273438 194.582031 305.554688 194.769531 305.800781 195.015625 C 306.042969 195.261719 306.234375 195.542969 306.367188 195.863281 C 306.5 196.183594 306.566406 196.515625 306.566406 196.863281 Z M 306.566406 196.863281 " fill-opacity="1" fill-rule="nonzero"/></svg>