<svg xmlns="http://www.w3.org/2000/svg" xmlns:xlink="http://www.w3.org/1999/xlink" width="500" zoomAndPan="magnify" viewBox="0 0 375 374.999991" height="500" preserveAspectRatio="xMidYMid meet" version="1.0"><defs><clipPath id="e4492d0824"><path d="M 142 296 L 282 296 L 282 337.636719 L 142 337.636719 Z M 142 296 " clip-rule="nonzero"/></clipPath><clipPath id="670b03679a"><path d="M 114.617188 106 L 290.117188 106 L 290.117188 137 L 114.617188 137 Z M 114.617188 106 " clip-rule="nonzero"/></clipPath><clipPath id="337a6eac7c"><path d="M 114.617188 90.886719 L 290.117188 90.886719 L 290.117188 128 L 114.617188 128 Z M 114.617188 90.886719 " clip-rule="nonzero"/></clipPath></defs><g clip-path="url(#e4492d0824)"><path fill="#7f3f00" d="M 281.234375 316.953125 C 281.234375 328.378906 250.101562 337.652344 211.738281 337.652344 C 173.378906 337.652344 142.246094 328.378906 142.246094 316.953125 C 142.246094 305.527344 173.378906 296.253906 211.738281 296.253906 C 250.101562 296.253906 281.234375 305.527344 281.234375 316.953125 Z M 281.234375 316.953125 " fill-opacity="0.1" fill-rule="nonzero"/></g><path fill="#5b2d01" d="M 245.851562 307.925781 C 212.449219 306.832031 196.574219 305.996094 158.867188 307.925781 L 158.867188 314.597656 C 158.863281 314.625 158.867188 314.65625 158.867188 314.683594 C 158.867188 319.816406 178.351562 325.394531 202.359375 325.394531 C 226.367188 325.394531 245.851562 319.816406 245.851562 314.683594 C 245.851562 314.65625 245.855469 314.625 245.851562 314.597656 Z M 245.851562 307.925781 " fill-opacity="1" fill-rule="nonzero"/><path fill="#7f3f00" d="M 245.851562 307.691406 C 245.851562 313.949219 226.363281 319.027344 202.355469 319.027344 C 178.347656 319.027344 158.863281 313.949219 158.863281 307.691406 C 158.863281 301.433594 178.347656 296.355469 202.355469 296.355469 C 226.363281 296.355469 245.851562 301.433594 245.851562 307.691406 Z M 245.851562 307.691406 " fill-opacity="1" fill-rule="nonzero"/><path fill="#7f3f00" d="M 209.890625 306.226562 L 196.03125 309.351562 L 213.886719 318.476562 L 213.980469 324.984375 C 228.292969 323.910156 239.378906 320.917969 243.824219 317.628906 L 243.890625 310.996094 Z M 209.890625 306.226562 " fill-opacity="0.1" fill-rule="evenodd"/><path fill="#633000" d="M 194.015625 121.273438 L 210.886719 121.273438 L 210.886719 305.867188 C 210.886719 310.011719 207.976562 310.90625 202.449219 310.90625 C 196.996094 310.90625 194.015625 308.996094 194.015625 305.039062 Z M 194.015625 121.273438 " fill-opacity="1" fill-rule="nonzero"/><g clip-path="url(#670b03679a)"><path fill="#592c01" d="M 290.066406 109.058594 C 222.710938 106.921875 190.6875 105.285156 114.640625 109.058594 L 114.640625 118.144531 C 114.640625 118.203125 114.640625 118.257812 114.640625 118.3125 C 114.640625 128.347656 153.9375 136.484375 202.359375 136.484375 C 250.773438 136.484375 290.074219 128.347656 290.074219 118.3125 C 290.074219 118.257812 290.074219 118.203125 290.074219 118.144531 L 290.074219 109.058594 Z M 290.066406 109.058594 " fill-opacity="1" fill-rule="nonzero"/></g><g clip-path="url(#337a6eac7c)"><path fill="#7f3f00" d="M 290.066406 109.066406 C 290.066406 119.101562 250.769531 127.242188 202.351562 127.242188 C 153.933594 127.242188 114.632812 119.101562 114.632812 109.066406 C 114.632812 99.03125 153.929688 90.886719 202.351562 90.886719 C 250.765625 90.886719 290.066406 99.03125 290.066406 109.066406 Z M 290.066406 109.066406 " fill-opacity="1" fill-rule="nonzero"/></g></svg>