<svg xmlns="http://www.w3.org/2000/svg" xmlns:xlink="http://www.w3.org/1999/xlink" width="500" zoomAndPan="magnify" viewBox="0 0 375 374.999991" height="500" preserveAspectRatio="xMidYMid meet" version="1.0"><defs><clipPath id="1885d7406a"><path d="M 24.886719 104.292969 L 350.386719 104.292969 L 350.386719 321 L 24.886719 321 Z M 24.886719 104.292969 " clip-rule="nonzero"/></clipPath></defs><path fill="#ad7c57" d="M 338.390625 161.710938 C 338.277344 186.292969 338.277344 210.878906 338.160156 235.460938 C 338.046875 258.660156 337.929688 281.859375 337.816406 305.058594 C 337.816406 308.523438 337.585938 311.984375 337.699219 315.449219 C 337.699219 317.179688 336.890625 317.988281 335.394531 318.332031 C 334.585938 318.5625 333.777344 318.679688 332.972656 318.679688 C 328.355469 319.027344 326.972656 317.757812 326.972656 313.253906 C 326.859375 306.558594 326.859375 299.980469 326.859375 293.289062 C 326.859375 290.980469 326.511719 288.902344 325.820312 286.824219 C 323.628906 279.898438 321.4375 272.972656 319.359375 266.046875 C 318.898438 264.433594 318.089844 264.085938 316.59375 264.085938 C 230.777344 264.085938 144.960938 264.085938 59.144531 264.085938 C 57.414062 264.085938 56.722656 264.664062 56.261719 266.28125 C 54.183594 273.203125 51.992188 280.015625 49.800781 286.824219 C 48.996094 289.132812 48.648438 291.554688 48.765625 293.980469 C 48.765625 300.675781 48.765625 307.367188 48.648438 314.179688 C 48.648438 317.871094 48.1875 318.101562 44.496094 318.679688 C 43.34375 318.910156 42.1875 318.792969 41.035156 318.5625 C 38.382812 318.101562 37.921875 317.523438 37.921875 314.871094 C 37.460938 289.710938 37.804688 264.433594 37.460938 239.269531 C 37.113281 213.53125 37.230469 187.792969 37.113281 162.054688 C 37.113281 160.210938 37.691406 159.746094 39.421875 159.980469 C 42.1875 160.324219 44.957031 160.441406 47.609375 159.402344 C 48.417969 159.171875 48.765625 159.515625 48.878906 160.324219 C 48.878906 161.132812 48.878906 161.824219 48.878906 162.632812 C 48.878906 192.640625 48.878906 222.765625 48.878906 252.773438 C 48.878906 253.351562 48.878906 253.929688 48.878906 254.390625 C 48.878906 254.96875 48.535156 255.890625 49.6875 256.007812 C 50.609375 256.121094 50.839844 255.429688 50.957031 254.738281 C 51.992188 251.042969 53.148438 247.351562 54.183594 243.542969 C 62.027344 216.878906 69.640625 190.101562 77.832031 163.554688 C 79.214844 159.054688 79.214844 159.054688 83.945312 159.054688 C 85.210938 159.054688 86.480469 159.054688 87.632812 159.054688 C 89.132812 159.054688 89.59375 159.515625 89.132812 161.015625 C 87.289062 167.132812 85.558594 173.25 83.597656 179.253906 C 75.871094 203.953125 68.140625 228.652344 60.414062 253.351562 C 59.605469 256.007812 59.605469 256.007812 62.375 256.007812 C 104.246094 256.007812 146.113281 256.007812 187.984375 256.007812 C 229.621094 256.007812 271.148438 256.007812 312.785156 256.007812 C 316.476562 256.007812 316.363281 256.46875 315.207031 252.773438 C 305.863281 222.882812 296.292969 193.105469 287.292969 163.210938 C 285.910156 158.59375 285.679688 159.054688 290.410156 159.054688 C 291.679688 159.054688 292.945312 159.171875 294.101562 159.054688 C 296.0625 158.710938 296.753906 159.632812 297.328125 161.363281 C 302.980469 179.136719 308.054688 197.144531 313.363281 215.035156 C 317.167969 228.074219 320.976562 241.117188 324.78125 254.042969 C 324.898438 254.507812 325.011719 254.96875 325.242188 255.429688 C 325.472656 256.007812 325.933594 256.121094 326.394531 256.007812 C 326.859375 255.890625 326.972656 255.429688 326.972656 255.082031 C 326.972656 254.507812 326.972656 253.929688 326.972656 253.46875 C 326.972656 223.226562 326.972656 192.988281 326.972656 162.75 C 326.972656 161.941406 326.972656 161.25 326.972656 160.441406 C 326.972656 159.746094 327.433594 159.285156 328.242188 159.515625 C 331.011719 160.441406 333.777344 160.441406 336.660156 160.09375 C 337.699219 159.746094 338.390625 159.980469 338.390625 161.710938 Z M 338.390625 161.710938 " fill-opacity="1" fill-rule="nonzero"/><g clip-path="url(#1885d7406a)"><path fill="#dba277" d="M 350.273438 159.746094 C 350.273438 161.824219 349.695312 162.519531 347.734375 162.285156 C 346.121094 162.171875 344.390625 162.285156 342.773438 162.285156 C 341.507812 162.285156 340.121094 161.941406 339.660156 163.902344 C 339.316406 165.171875 337.699219 165.171875 336.546875 165.058594 C 333.894531 164.710938 331.355469 165.171875 328.703125 165.171875 C 327.203125 165.171875 325.703125 164.941406 325.472656 163.09375 C 325.359375 162.402344 325.011719 162.402344 324.433594 162.402344 C 323.859375 162.402344 323.28125 162.402344 322.820312 162.402344 C 232.738281 162.402344 142.652344 162.402344 52.570312 162.402344 C 51.300781 162.402344 49.800781 161.941406 49.570312 164.132812 C 49.457031 164.941406 48.535156 165.289062 47.726562 165.289062 C 44.265625 165.289062 40.804688 165.171875 37.460938 165.058594 C 36.652344 165.058594 35.730469 164.828125 35.613281 164.019531 C 35.382812 162.285156 34.230469 162.519531 33.078125 162.519531 C 31.230469 162.519531 29.269531 162.402344 27.425781 162.519531 C 25.234375 162.402344 24.886719 161.480469 24.886719 159.746094 C 25.003906 147.859375 24.886719 135.972656 24.886719 123.96875 C 24.886719 118.195312 25.003906 112.425781 24.886719 106.769531 C 24.886719 104.808594 25.464844 104.347656 27.308594 104.347656 C 80.714844 104.347656 134.117188 104.347656 187.636719 104.347656 C 241.042969 104.347656 294.332031 104.347656 347.734375 104.347656 C 349.8125 104.347656 350.386719 104.691406 350.386719 106.886719 C 350.273438 124.546875 350.273438 142.089844 350.273438 159.746094 Z M 45.996094 316.371094 C 43.6875 317.410156 41.496094 317.292969 39.191406 316.371094 C 38.613281 316.140625 38.152344 315.21875 37.34375 315.792969 C 36.539062 316.488281 36.769531 317.410156 37.113281 318.332031 C 37.691406 320.0625 39.304688 320.871094 43.113281 320.871094 C 44.035156 320.871094 45.648438 320.640625 47.265625 320.179688 C 48.648438 319.71875 49.457031 317.640625 48.765625 316.371094 C 47.839844 314.640625 46.917969 316.023438 45.996094 316.371094 Z M 336.429688 316.140625 C 334.007812 317.640625 331.472656 317.523438 328.933594 316.253906 C 328.242188 315.910156 327.664062 315.21875 326.859375 315.792969 C 326.050781 316.371094 326.28125 317.292969 326.394531 318.101562 C 326.511719 319.371094 327.320312 320.179688 328.472656 320.410156 C 329.855469 320.640625 331.355469 320.871094 332.738281 320.988281 C 333.894531 320.871094 334.933594 320.871094 335.96875 320.410156 C 337.355469 319.832031 338.160156 318.792969 338.160156 317.179688 C 338.160156 315.792969 337.929688 315.21875 336.429688 316.140625 Z M 336.429688 316.140625 " fill-opacity="1" fill-rule="nonzero"/></g><path fill="#eec29f" d="M 185.5625 155.363281 C 185.5625 157.324219 184.871094 157.671875 183.140625 157.671875 C 157.996094 157.671875 132.734375 157.671875 107.589844 157.671875 C 82.445312 157.671875 57.414062 157.671875 32.269531 157.671875 C 30.425781 157.671875 29.847656 157.207031 29.847656 155.246094 C 29.964844 140.242188 29.964844 125.351562 29.847656 110.347656 C 29.847656 108.386719 30.425781 108.039062 32.15625 108.039062 C 82.558594 108.039062 132.847656 108.039062 183.253906 108.039062 C 185.101562 108.039062 185.5625 108.5 185.5625 110.347656 C 185.5625 125.46875 185.5625 140.359375 185.5625 155.363281 Z M 344.621094 110.695312 C 344.621094 108.617188 344.042969 108.15625 342.082031 108.15625 C 292.253906 108.15625 242.3125 108.15625 192.480469 108.15625 C 190.40625 108.15625 189.714844 108.617188 189.714844 110.808594 C 189.828125 125.582031 189.828125 140.472656 189.714844 155.246094 C 189.714844 157.09375 190.175781 157.671875 192.136719 157.671875 C 217.164062 157.554688 242.195312 157.671875 267.226562 157.671875 C 292.140625 157.671875 317.054688 157.671875 341.96875 157.671875 C 343.929688 157.671875 344.621094 157.324219 344.621094 155.132812 C 344.503906 140.359375 344.503906 125.46875 344.621094 110.695312 Z M 344.621094 110.695312 " fill-opacity="1" fill-rule="nonzero"/><path fill="#cc8956" d="M 110.933594 131.699219 C 110.933594 136.085938 107.242188 139.550781 102.976562 139.550781 C 98.59375 139.550781 95.132812 136.085938 95.246094 131.816406 C 95.246094 127.429688 98.9375 123.738281 103.089844 123.738281 C 107.359375 123.851562 110.933594 127.429688 110.933594 131.699219 Z M 266.648438 123.851562 C 262.496094 123.738281 258.804688 127.429688 258.691406 131.816406 C 258.574219 136.085938 261.917969 139.550781 266.417969 139.664062 C 270.800781 139.78125 274.375 136.316406 274.492188 131.933594 C 274.605469 127.546875 271.03125 123.851562 266.648438 123.851562 Z M 266.648438 123.851562 " fill-opacity="1" fill-rule="nonzero"/></svg>