<svg xmlns="http://www.w3.org/2000/svg" xmlns:xlink="http://www.w3.org/1999/xlink" width="500" zoomAndPan="magnify" viewBox="0 0 375 374.999991" height="500" preserveAspectRatio="xMidYMid meet" version="1.0"><defs><clipPath id="37b1351819"><path d="M 104 71 L 271 71 L 271 287 L 104 287 Z M 104 71 " clip-rule="nonzero"/></clipPath><clipPath id="06c678db6d"><path d="M 195.890625 49.15625 L 295.285156 106.5 L 178.722656 308.539062 L 79.328125 251.195312 Z M 195.890625 49.15625 " clip-rule="nonzero"/></clipPath><clipPath id="1ead8e8e92"><path d="M 195.890625 49.15625 L 295.285156 106.5 L 178.722656 308.539062 L 79.328125 251.195312 Z M 195.890625 49.15625 " clip-rule="nonzero"/></clipPath><clipPath id="d5f4209d00"><path d="M 195.890625 49.15625 L 295.285156 106.5 L 178.722656 308.539062 L 79.328125 251.195312 Z M 195.890625 49.15625 " clip-rule="nonzero"/></clipPath><clipPath id="fe89460bdc"><path d="M 170 85 L 273 85 L 273 154 L 170 154 Z M 170 85 " clip-rule="nonzero"/></clipPath><clipPath id="6d3c7c80a0"><path d="M 195.890625 49.15625 L 295.285156 106.5 L 178.722656 308.539062 L 79.328125 251.195312 Z M 195.890625 49.15625 " clip-rule="nonzero"/></clipPath><clipPath id="8ce5f5730a"><path d="M 195.890625 49.15625 L 295.285156 106.5 L 178.722656 308.539062 L 79.328125 251.195312 Z M 195.890625 49.15625 " clip-rule="nonzero"/></clipPath><clipPath id="96148c1ce8"><path d="M 195.890625 49.15625 L 295.285156 106.5 L 178.722656 308.539062 L 79.328125 251.195312 Z M 195.890625 49.15625 " clip-rule="nonzero"/></clipPath><clipPath id="25d1bb48b6"><path d="M 102 203 L 205 203 L 205 272 L 102 272 Z M 102 203 " clip-rule="nonzero"/></clipPath><clipPath id="16ab9e4c0c"><path d="M 195.890625 49.15625 L 295.285156 106.5 L 178.722656 308.539062 L 79.328125 251.195312 Z M 195.890625 49.15625 " clip-rule="nonzero"/></clipPath><clipPath id="01e46e40bc"><path d="M 195.890625 49.15625 L 295.285156 106.5 L 178.722656 308.539062 L 79.328125 251.195312 Z M 195.890625 49.15625 " clip-rule="nonzero"/></clipPath><clipPath id="cbf5e93700"><path d="M 195.890625 49.15625 L 295.285156 106.5 L 178.722656 308.539062 L 79.328125 251.195312 Z M 195.890625 49.15625 " clip-rule="nonzero"/></clipPath><clipPath id="f99e36838a"><path d="M 161 139 L 224 139 L 224 202 L 161 202 Z M 161 139 " clip-rule="nonzero"/></clipPath><clipPath id="aab312a84b"><path d="M 195.890625 49.15625 L 295.285156 106.5 L 178.722656 308.539062 L 79.328125 251.195312 Z M 195.890625 49.15625 " clip-rule="nonzero"/></clipPath><clipPath id="ce762f3186"><path d="M 195.890625 49.15625 L 295.285156 106.5 L 178.722656 308.539062 L 79.328125 251.195312 Z M 195.890625 49.15625 " clip-rule="nonzero"/></clipPath><clipPath id="6d3b739b2d"><path d="M 195.890625 49.15625 L 295.285156 106.5 L 178.722656 308.539062 L 79.328125 251.195312 Z M 195.890625 49.15625 " clip-rule="nonzero"/></clipPath><clipPath id="b2044b96c4"><path d="M 188 154 L 202 154 L 202 185 L 188 185 Z M 188 154 " clip-rule="nonzero"/></clipPath><clipPath id="abb0cc6c67"><path d="M 195.890625 49.15625 L 295.285156 106.5 L 178.722656 308.539062 L 79.328125 251.195312 Z M 195.890625 49.15625 " clip-rule="nonzero"/></clipPath><clipPath id="17d4a1888e"><path d="M 195.890625 49.15625 L 295.285156 106.5 L 178.722656 308.539062 L 79.328125 251.195312 Z M 195.890625 49.15625 " clip-rule="nonzero"/></clipPath><clipPath id="9f239eb2ba"><path d="M 195.890625 49.15625 L 295.285156 106.5 L 178.722656 308.539062 L 79.328125 251.195312 Z M 195.890625 49.15625 " clip-rule="nonzero"/></clipPath><clipPath id="f96aa3d316"><path d="M 137 183 L 149 183 L 149 199 L 137 199 Z M 137 183 " clip-rule="nonzero"/></clipPath><clipPath id="c20e7b48a1"><path d="M 195.890625 49.15625 L 295.285156 106.5 L 178.722656 308.539062 L 79.328125 251.195312 Z M 195.890625 49.15625 " clip-rule="nonzero"/></clipPath><clipPath id="68889b8b8e"><path d="M 195.890625 49.15625 L 295.285156 106.5 L 178.722656 308.539062 L 79.328125 251.195312 Z M 195.890625 49.15625 " clip-rule="nonzero"/></clipPath><clipPath id="9227d2256f"><path d="M 195.890625 49.15625 L 295.285156 106.5 L 178.722656 308.539062 L 79.328125 251.195312 Z M 195.890625 49.15625 " clip-rule="nonzero"/></clipPath><clipPath id="f8a5387c13"><path d="M 151 191 L 163 191 L 163 207 L 151 207 Z M 151 191 " clip-rule="nonzero"/></clipPath><clipPath id="b971c82ef8"><path d="M 195.890625 49.15625 L 295.285156 106.5 L 178.722656 308.539062 L 79.328125 251.195312 Z M 195.890625 49.15625 " clip-rule="nonzero"/></clipPath><clipPath id="d8c3d22e7b"><path d="M 195.890625 49.15625 L 295.285156 106.5 L 178.722656 308.539062 L 79.328125 251.195312 Z M 195.890625 49.15625 " clip-rule="nonzero"/></clipPath><clipPath id="aa4dbb3698"><path d="M 195.890625 49.15625 L 295.285156 106.5 L 178.722656 308.539062 L 79.328125 251.195312 Z M 195.890625 49.15625 " clip-rule="nonzero"/></clipPath><clipPath id="f21033437a"><path d="M 165 199 L 177 199 L 177 215 L 165 215 Z M 165 199 " clip-rule="nonzero"/></clipPath><clipPath id="2ed15acbfa"><path d="M 195.890625 49.15625 L 295.285156 106.5 L 178.722656 308.539062 L 79.328125 251.195312 Z M 195.890625 49.15625 " clip-rule="nonzero"/></clipPath><clipPath id="0db1d725a9"><path d="M 195.890625 49.15625 L 295.285156 106.5 L 178.722656 308.539062 L 79.328125 251.195312 Z M 195.890625 49.15625 " clip-rule="nonzero"/></clipPath><clipPath id="1d1568a3e8"><path d="M 195.890625 49.15625 L 295.285156 106.5 L 178.722656 308.539062 L 79.328125 251.195312 Z M 195.890625 49.15625 " clip-rule="nonzero"/></clipPath><clipPath id="116dcd582e"><path d="M 179 207 L 191 207 L 191 223 L 179 223 Z M 179 207 " clip-rule="nonzero"/></clipPath><clipPath id="9f3f37b3f7"><path d="M 195.890625 49.15625 L 295.285156 106.5 L 178.722656 308.539062 L 79.328125 251.195312 Z M 195.890625 49.15625 " clip-rule="nonzero"/></clipPath><clipPath id="6bfb5062ad"><path d="M 195.890625 49.15625 L 295.285156 106.5 L 178.722656 308.539062 L 79.328125 251.195312 Z M 195.890625 49.15625 " clip-rule="nonzero"/></clipPath><clipPath id="1170d48586"><path d="M 195.890625 49.15625 L 295.285156 106.5 L 178.722656 308.539062 L 79.328125 251.195312 Z M 195.890625 49.15625 " clip-rule="nonzero"/></clipPath><clipPath id="675e4bba6a"><path d="M 193 215 L 205 215 L 205 231 L 193 231 Z M 193 215 " clip-rule="nonzero"/></clipPath><clipPath id="5d1a839838"><path d="M 195.890625 49.15625 L 295.285156 106.5 L 178.722656 308.539062 L 79.328125 251.195312 Z M 195.890625 49.15625 " clip-rule="nonzero"/></clipPath><clipPath id="2a047b4280"><path d="M 195.890625 49.15625 L 295.285156 106.5 L 178.722656 308.539062 L 79.328125 251.195312 Z M 195.890625 49.15625 " clip-rule="nonzero"/></clipPath><clipPath id="8f7449854f"><path d="M 195.890625 49.15625 L 295.285156 106.5 L 178.722656 308.539062 L 79.328125 251.195312 Z M 195.890625 49.15625 " clip-rule="nonzero"/></clipPath></defs><g clip-path="url(#37b1351819)"><g clip-path="url(#06c678db6d)"><g clip-path="url(#1ead8e8e92)"><g clip-path="url(#d5f4209d00)"><path fill="#000000" d="M 129.015625 279.84375 C 108.539062 268.03125 99.339844 243.179688 107.132812 220.757812 C 107.433594 219.90625 108.089844 219.226562 108.9375 218.914062 C 109.777344 218.597656 110.71875 218.675781 111.5 219.125 L 190.347656 264.613281 C 191.128906 265.066406 191.667969 265.84375 191.816406 266.730469 C 191.960938 267.617188 191.707031 268.53125 191.121094 269.210938 C 175.605469 287.179688 149.488281 291.65625 129.015625 279.84375 Z M 111.777344 226.269531 C 106.996094 244.976562 115.144531 264.847656 132.042969 274.59375 C 148.9375 284.34375 170.21875 281.449219 184.019531 267.953125 Z M 195.632812 257.101562 L 115.355469 210.785156 C 113.914062 209.953125 113.421875 208.101562 114.257812 206.652344 L 174.820312 101.679688 C 175.65625 100.230469 177.503906 99.734375 178.945312 100.566406 L 259.222656 146.878906 C 260.667969 147.714844 261.160156 149.5625 260.324219 151.011719 L 199.761719 255.984375 C 198.925781 257.433594 197.078125 257.933594 195.632812 257.101562 Z M 120.996094 207.046875 L 196.046875 250.34375 L 253.582031 150.621094 L 178.535156 107.320312 Z M 263.078125 138.546875 L 184.234375 93.058594 C 183.453125 92.609375 182.914062 91.832031 182.769531 90.945312 C 182.621094 90.058594 182.875 89.140625 183.460938 88.460938 C 198.976562 70.484375 225.089844 66.015625 245.5625 77.828125 C 266.039062 89.640625 275.238281 114.492188 267.445312 136.914062 C 267.144531 137.765625 266.488281 138.441406 265.640625 138.757812 C 264.800781 139.074219 263.859375 138.996094 263.078125 138.546875 Z M 190.558594 89.714844 L 262.808594 131.398438 C 267.585938 112.691406 259.441406 92.820312 242.542969 83.074219 C 225.640625 73.320312 204.363281 76.214844 190.558594 89.714844 Z M 190.558594 89.714844 " fill-opacity="1" fill-rule="nonzero"/></g></g></g></g><g clip-path="url(#fe89460bdc)"><g clip-path="url(#6d3c7c80a0)"><g clip-path="url(#8ce5f5730a)"><g clip-path="url(#96148c1ce8)"><path fill="#000000" d="M 256.582031 152.351562 L 175.535156 105.589844 C 170.472656 102.671875 168.738281 96.164062 171.671875 91.085938 C 174.601562 86.007812 181.101562 84.25 186.160156 87.171875 L 267.210938 133.929688 C 272.269531 136.851562 274.003906 143.355469 271.074219 148.433594 C 268.144531 153.515625 261.644531 155.269531 256.582031 152.351562 Z M 183.128906 92.421875 C 180.957031 91.167969 178.15625 91.921875 176.894531 94.105469 C 175.632812 96.292969 176.378906 99.089844 178.558594 100.347656 L 259.605469 147.109375 C 261.78125 148.363281 264.582031 147.609375 265.84375 145.421875 C 267.101562 143.242188 266.359375 140.4375 264.179688 139.183594 Z M 183.128906 92.421875 " fill-opacity="1" fill-rule="nonzero"/></g></g></g></g><g clip-path="url(#25d1bb48b6)"><g clip-path="url(#16ab9e4c0c)"><g clip-path="url(#01e46e40bc)"><g clip-path="url(#cbf5e93700)"><path fill="#000000" d="M 188.421875 270.492188 L 107.375 223.730469 C 102.3125 220.8125 100.578125 214.304688 103.511719 209.226562 C 106.441406 204.148438 112.941406 202.390625 118 205.3125 L 199.050781 252.070312 C 204.109375 254.992188 205.84375 261.496094 202.914062 266.574219 C 199.984375 271.65625 193.484375 273.410156 188.421875 270.492188 Z M 114.96875 210.5625 C 112.796875 209.308594 109.996094 210.0625 108.734375 212.246094 C 107.472656 214.433594 108.21875 217.230469 110.398438 218.488281 L 191.449219 265.25 C 193.621094 266.503906 196.421875 265.75 197.683594 263.5625 C 198.941406 261.382812 198.199219 258.578125 196.019531 257.324219 Z M 114.96875 210.5625 " fill-opacity="1" fill-rule="nonzero"/></g></g></g></g><g clip-path="url(#f99e36838a)"><g clip-path="url(#aab312a84b)"><g clip-path="url(#ce762f3186)"><g clip-path="url(#6d3b739b2d)"><path fill="#000000" d="M 176.535156 197.472656 C 161.699219 188.910156 156.617188 169.832031 165.207031 154.941406 C 173.800781 140.050781 192.863281 134.898438 207.699219 143.460938 C 222.535156 152.019531 227.617188 171.101562 219.027344 185.992188 C 210.4375 200.878906 191.375 206.03125 176.535156 197.472656 Z M 204.675781 148.703125 C 192.71875 141.804688 177.363281 145.953125 170.441406 157.953125 C 163.519531 169.949219 167.613281 185.324219 179.566406 192.21875 C 191.519531 199.117188 206.878906 194.96875 213.800781 182.96875 C 220.722656 170.972656 216.628906 155.597656 204.675781 148.703125 Z M 204.675781 148.703125 " fill-opacity="1" fill-rule="nonzero"/></g></g></g></g><g clip-path="url(#b2044b96c4)"><g clip-path="url(#abb0cc6c67)"><g clip-path="url(#17d4a1888e)"><g clip-path="url(#9f239eb2ba)"><path fill="#000000" d="M 196.785156 184.546875 C 196.34375 184.292969 195.957031 183.917969 195.683594 183.445312 L 188.878906 171.625 C 188.339844 170.691406 188.339844 169.535156 188.882812 168.597656 L 196.101562 156.085938 C 196.9375 154.636719 198.785156 154.136719 200.230469 154.972656 C 201.671875 155.804688 202.164062 157.652344 201.328125 159.101562 L 194.984375 170.097656 L 200.917969 180.40625 C 201.75 181.851562 201.253906 183.703125 199.808594 184.542969 C 198.839844 185.101562 197.691406 185.070312 196.785156 184.546875 Z M 196.785156 184.546875 " fill-opacity="1" fill-rule="nonzero"/></g></g></g></g><g clip-path="url(#f96aa3d316)"><g clip-path="url(#c20e7b48a1)"><g clip-path="url(#68889b8b8e)"><g clip-path="url(#9227d2256f)"><path fill="#000000" d="M 138.628906 197.910156 C 137.183594 197.078125 136.691406 195.226562 137.527344 193.777344 L 142.652344 184.898438 C 143.488281 183.449219 145.335938 182.949219 146.777344 183.78125 C 148.222656 184.613281 148.714844 186.464844 147.878906 187.914062 L 142.753906 196.796875 C 141.917969 198.242188 140.070312 198.742188 138.628906 197.910156 Z M 138.628906 197.910156 " fill-opacity="1" fill-rule="nonzero"/></g></g></g></g><g clip-path="url(#f8a5387c13)"><g clip-path="url(#b971c82ef8)"><g clip-path="url(#d8c3d22e7b)"><g clip-path="url(#aa4dbb3698)"><path fill="#000000" d="M 152.753906 206.0625 C 151.3125 205.230469 150.820312 203.378906 151.65625 201.929688 L 156.78125 193.046875 C 157.613281 191.601562 159.464844 191.101562 160.90625 191.933594 C 162.351562 192.765625 162.84375 194.617188 162.007812 196.066406 L 156.882812 204.945312 C 156.046875 206.394531 154.199219 206.894531 152.753906 206.0625 Z M 152.753906 206.0625 " fill-opacity="1" fill-rule="nonzero"/></g></g></g></g><g clip-path="url(#f21033437a)"><g clip-path="url(#2ed15acbfa)"><g clip-path="url(#0db1d725a9)"><g clip-path="url(#1d1568a3e8)"><path fill="#000000" d="M 166.878906 214.210938 C 165.4375 213.378906 164.941406 211.527344 165.777344 210.078125 L 170.902344 201.195312 C 171.738281 199.75 173.589844 199.25 175.03125 200.082031 C 176.472656 200.914062 176.96875 202.765625 176.132812 204.214844 L 171.007812 213.09375 C 170.171875 214.542969 168.324219 215.042969 166.878906 214.210938 Z M 166.878906 214.210938 " fill-opacity="1" fill-rule="nonzero"/></g></g></g></g><g clip-path="url(#116dcd582e)"><g clip-path="url(#9f3f37b3f7)"><g clip-path="url(#6bfb5062ad)"><g clip-path="url(#1170d48586)"><path fill="#000000" d="M 181.003906 222.359375 C 179.558594 221.527344 179.066406 219.675781 179.902344 218.226562 L 185.027344 209.34375 C 185.863281 207.898438 187.710938 207.398438 189.15625 208.230469 C 190.597656 209.0625 191.089844 210.914062 190.253906 212.363281 L 185.132812 221.246094 C 184.296875 222.691406 182.449219 223.195312 181.003906 222.359375 Z M 181.003906 222.359375 " fill-opacity="1" fill-rule="nonzero"/></g></g></g></g><g clip-path="url(#675e4bba6a)"><g clip-path="url(#5d1a839838)"><g clip-path="url(#2a047b4280)"><g clip-path="url(#8f7449854f)"><path fill="#000000" d="M 195.132812 230.511719 C 193.6875 229.679688 193.195312 227.828125 194.03125 226.378906 L 199.15625 217.496094 C 199.992188 216.046875 201.839844 215.546875 203.285156 216.382812 C 204.726562 217.214844 205.21875 219.066406 204.382812 220.511719 L 199.257812 229.394531 C 198.425781 230.84375 196.574219 231.34375 195.132812 230.511719 Z M 195.132812 230.511719 " fill-opacity="1" fill-rule="nonzero"/></g></g></g></g></svg>