<svg xmlns="http://www.w3.org/2000/svg" xmlns:xlink="http://www.w3.org/1999/xlink" width="500" zoomAndPan="magnify" viewBox="0 0 375 374.999991" height="500" preserveAspectRatio="xMidYMid meet" version="1.0"><defs><clipPath id="8daa0f8464"><path d="M 360 108 L 367.726562 108 L 367.726562 179 L 360 179 Z M 360 108 " clip-rule="nonzero"/></clipPath><clipPath id="f2748031cc"><path d="M 366 143 L 367.726562 143 L 367.726562 152 L 366 152 Z M 366 143 " clip-rule="nonzero"/></clipPath><clipPath id="2323622bfa"><path d="M 366 159 L 367.726562 159 L 367.726562 170 L 366 170 Z M 366 159 " clip-rule="nonzero"/></clipPath><clipPath id="c10af713a9"><path d="M 366 143 L 367.726562 143 L 367.726562 152 L 366 152 Z M 366 143 " clip-rule="nonzero"/></clipPath><clipPath id="2cef8b62e7"><path d="M 366 159 L 367.726562 159 L 367.726562 170 L 366 170 Z M 366 159 " clip-rule="nonzero"/></clipPath><clipPath id="7667ab0dec"><path d="M 351 36 L 367.726562 36 L 367.726562 63 L 351 63 Z M 351 36 " clip-rule="nonzero"/></clipPath><clipPath id="46d980ea46"><path d="M 357 55 L 367.726562 55 L 367.726562 59 L 357 59 Z M 357 55 " clip-rule="nonzero"/></clipPath><clipPath id="47b3cc352f"><path d="M 357 55 L 367.726562 55 L 367.726562 59 L 357 59 Z M 357 55 " clip-rule="nonzero"/></clipPath><clipPath id="0b0a7b229b"><path d="M 358 43 L 367.726562 43 L 367.726562 64 L 358 64 Z M 358 43 " clip-rule="nonzero"/></clipPath></defs><path fill="#ffae02" d="M 98.492188 231.898438 C 130.71875 243.382812 149.164062 200.96875 123.859375 212.617188 C 130.464844 207.882812 138.320312 199.035156 137.921875 192.558594 C 137.464844 185.042969 129.757812 186.78125 125.464844 190.757812 C 141.03125 171.953125 129.058594 158.335938 118.636719 177.332031 C 123.625 154.894531 105.199219 161.722656 105.457031 184.496094 C 105.398438 179.066406 100.917969 172.898438 95.890625 177.722656 C 91.234375 183.320312 91.179688 190.941406 91.957031 198.261719 C 91.113281 191.421875 82.515625 184.074219 78.570312 192.964844 C 73.210938 207.5625 82.390625 226.15625 98.492188 231.898438 Z M 98.492188 231.898438 " fill-opacity="1" fill-rule="nonzero"/><path fill="#fe6c30" d="M 108.085938 206.398438 C 108.0625 206.390625 108.042969 206.378906 108.023438 206.371094 C 107.792969 206.261719 108.148438 206.441406 108.015625 206.367188 C 107.921875 206.316406 107.828125 206.265625 107.738281 206.210938 C 107.679688 206.179688 107.625 206.144531 107.570312 206.113281 C 107.539062 206.089844 107.507812 206.070312 107.472656 206.050781 C 107.308594 205.953125 107.671875 206.183594 107.535156 206.089844 C 107.378906 205.984375 107.222656 205.878906 107.070312 205.769531 C 106.988281 205.710938 106.910156 205.648438 106.828125 205.585938 C 106.703125 205.492188 107.050781 205.769531 106.867188 205.617188 C 106.824219 205.578125 106.777344 205.542969 106.730469 205.503906 C 106.527344 205.339844 106.332031 205.167969 106.136719 204.992188 C 106.382812 205.210938 106.085938 204.941406 106 204.859375 C 105.882812 204.746094 105.765625 204.628906 105.652344 204.515625 C 105.605469 204.464844 105.554688 204.414062 105.507812 204.363281 C 105.488281 204.339844 105.300781 204.140625 105.398438 204.25 C 105.5 204.359375 105.335938 204.179688 105.3125 204.152344 C 105.246094 204.078125 105.183594 204.003906 105.117188 203.933594 C 104.878906 203.652344 104.644531 203.367188 104.421875 203.074219 C 104.390625 203.039062 104.359375 203 104.332031 202.960938 C 104.253906 202.859375 104.398438 203.050781 104.324219 202.949219 C 104.269531 202.878906 104.21875 202.808594 104.167969 202.734375 C 104.039062 202.558594 103.914062 202.375 103.789062 202.195312 C 103.550781 201.839844 103.320312 201.476562 103.101562 201.105469 C 102.015625 199.273438 101.199219 197.28125 100.566406 195.246094 C 99.566406 192.03125 99.054688 188.675781 98.816406 185.320312 C 98.789062 184.941406 98.296875 184.570312 98.011719 184.371094 C 97.929688 184.3125 97.21875 183.875 97.242188 184.203125 C 97.632812 189.679688 98.773438 195.242188 101.488281 200.066406 C 102.941406 202.644531 104.910156 205.042969 107.359375 206.734375 C 107.835938 207.066406 108.347656 207.402344 108.886719 207.632812 C 109.21875 207.773438 109.351562 207.609375 109.160156 207.308594 C 108.921875 206.929688 108.496094 206.574219 108.085938 206.398438 Z M 108.085938 206.398438 " fill-opacity="1" fill-rule="nonzero"/><path fill="#fe6c30" d="M 125.8125 218.808594 C 121.960938 220.675781 117.726562 221.921875 113.410156 221.8125 C 111.089844 221.757812 108.730469 221.316406 106.621094 220.320312 C 106.261719 220.148438 105.894531 219.96875 105.566406 219.738281 C 105.394531 219.621094 105.304688 220.398438 105.511719 220.542969 C 106.496094 221.226562 107.71875 221.644531 108.859375 221.96875 C 111.925781 222.835938 115.191406 222.824219 118.304688 222.222656 C 120.957031 221.710938 123.511719 220.78125 125.9375 219.601562 C 126.140625 219.503906 126.046875 218.695312 125.8125 218.808594 Z M 125.8125 218.808594 " fill-opacity="1" fill-rule="nonzero"/><path fill="#fe6c30" d="M 102.441406 224.542969 C 100.273438 223.476562 98.273438 221.949219 96.460938 220.375 C 92.308594 216.773438 88.960938 212.238281 87.054688 207.0625 C 85.640625 203.222656 85.105469 199.113281 85.265625 195.03125 C 85.277344 194.757812 85.1875 194.40625 85.015625 194.1875 C 84.878906 194.011719 84.742188 194.027344 84.730469 194.273438 C 84.457031 201.425781 86.335938 208.511719 90.339844 214.464844 C 92.96875 218.367188 96.410156 221.730469 100.332031 224.328125 C 101.085938 224.828125 101.863281 225.324219 102.675781 225.722656 C 102.882812 225.824219 102.808594 225.300781 102.796875 225.234375 C 102.757812 225.019531 102.660156 224.648438 102.441406 224.542969 Z M 102.441406 224.542969 " fill-opacity="1" fill-rule="nonzero"/><path fill="#fe6c30" d="M 115.53125 189.117188 C 118.058594 187.664062 120.433594 185.707031 122.339844 183.507812 C 123.175781 182.546875 123.925781 181.503906 124.523438 180.375 C 124.710938 180.019531 124.148438 179.441406 123.917969 179.871094 C 122.152344 183.210938 119.085938 185.855469 115.949219 187.886719 C 115.691406 188.054688 115.429688 188.21875 115.164062 188.371094 C 114.796875 188.582031 115.164062 189.328125 115.53125 189.117188 Z M 115.53125 189.117188 " fill-opacity="1" fill-rule="nonzero"/><path fill="#fe6c30" d="M 111.019531 204.800781 C 111.742188 205.078125 112.558594 205.152344 113.328125 205.15625 C 115.21875 205.167969 117.070312 204.546875 118.664062 203.550781 C 120.050781 202.6875 121.238281 201.550781 122.28125 200.300781 C 122.480469 200.054688 121.945312 199.433594 121.773438 199.640625 C 119.316406 202.601562 115.617188 205.066406 111.601562 204.320312 C 111.410156 204.285156 111.226562 204.242188 111.039062 204.191406 C 110.992188 204.179688 110.941406 204.164062 110.894531 204.148438 C 111 204.179688 110.929688 204.160156 110.902344 204.148438 C 110.460938 203.980469 110.757812 204.703125 111.019531 204.800781 Z M 111.019531 204.800781 " fill-opacity="1" fill-rule="nonzero"/><path fill="#15130d" d="M 110.882812 204.882812 C 111.585938 205.152344 112.398438 205.214844 113.140625 205.210938 C 115.019531 205.203125 116.847656 204.578125 118.425781 203.574219 C 119.777344 202.714844 120.941406 201.59375 121.960938 200.363281 C 122.054688 200.253906 122.066406 200.007812 122.089844 199.871094 C 122.097656 199.824219 122.117188 199.546875 122.09375 199.574219 C 119.601562 202.570312 115.847656 205.027344 111.789062 204.261719 C 111.539062 204.214844 111.28125 204.160156 111.039062 204.070312 C 111.023438 204.0625 110.78125 204.84375 110.882812 204.882812 Z M 110.882812 204.882812 " fill-opacity="0.35" fill-rule="nonzero"/><path fill="#15130d" d="M 108.082031 206.398438 C 108.0625 206.386719 108.042969 206.378906 108.023438 206.371094 C 107.792969 206.261719 108.148438 206.441406 108.015625 206.367188 C 107.921875 206.316406 107.828125 206.265625 107.738281 206.210938 C 107.679688 206.179688 107.625 206.144531 107.570312 206.113281 C 107.539062 206.089844 107.507812 206.070312 107.472656 206.050781 C 107.308594 205.953125 107.667969 206.183594 107.535156 206.089844 C 107.378906 205.984375 107.222656 205.878906 107.070312 205.769531 C 106.988281 205.707031 106.910156 205.648438 106.828125 205.585938 C 106.703125 205.492188 107.050781 205.769531 106.867188 205.617188 C 106.824219 205.578125 106.773438 205.542969 106.730469 205.503906 C 106.527344 205.339844 106.332031 205.167969 106.136719 204.992188 C 106.382812 205.210938 106.085938 204.941406 105.996094 204.859375 C 105.878906 204.746094 105.765625 204.628906 105.652344 204.515625 C 105.605469 204.464844 105.554688 204.414062 105.507812 204.363281 C 105.484375 204.339844 105.300781 204.140625 105.398438 204.25 C 105.5 204.359375 105.335938 204.179688 105.3125 204.152344 C 105.246094 204.078125 105.183594 204.003906 105.117188 203.933594 C 104.875 203.652344 104.644531 203.367188 104.417969 203.074219 C 104.390625 203.035156 104.359375 203 104.332031 202.960938 C 104.253906 202.859375 104.398438 203.050781 104.324219 202.949219 C 104.269531 202.878906 104.21875 202.808594 104.167969 202.734375 C 104.039062 202.558594 103.914062 202.375 103.789062 202.191406 C 103.550781 201.835938 103.320312 201.476562 103.101562 201.105469 C 102.015625 199.273438 101.199219 197.28125 100.566406 195.246094 C 99.566406 192.03125 99.054688 188.675781 98.816406 185.320312 C 98.789062 184.941406 98.296875 184.570312 98.011719 184.371094 C 97.929688 184.3125 97.21875 183.875 97.242188 184.203125 C 97.632812 189.679688 98.769531 195.238281 101.488281 200.066406 C 102.941406 202.644531 104.910156 205.042969 107.359375 206.734375 C 107.835938 207.066406 108.347656 207.402344 108.886719 207.632812 C 109.21875 207.773438 109.351562 207.609375 109.160156 207.308594 C 108.921875 206.929688 108.496094 206.574219 108.082031 206.398438 Z M 108.082031 206.398438 " fill-opacity="0.35" fill-rule="nonzero"/><path fill="#15130d" d="M 125.53125 219 C 121.730469 220.84375 117.554688 222.09375 113.296875 222.011719 C 111.046875 221.96875 108.660156 221.53125 106.6875 220.605469 C 106.535156 220.53125 106.378906 220.457031 106.226562 220.378906 C 106.167969 220.347656 106.308594 220.421875 106.207031 220.367188 C 106.179688 220.351562 106.148438 220.335938 106.121094 220.320312 C 106.070312 220.292969 106.023438 220.261719 105.972656 220.234375 C 105.90625 220.195312 105.839844 220.152344 105.777344 220.113281 C 105.667969 220.046875 105.816406 220.140625 105.78125 220.117188 C 105.675781 220.042969 105.382812 219.851562 105.246094 219.921875 C 105.113281 219.992188 105.171875 220.078125 105.296875 220.164062 C 106.371094 220.914062 107.675781 221.382812 108.921875 221.742188 C 112.015625 222.628906 115.328125 222.640625 118.476562 222.046875 C 121.167969 221.539062 123.761719 220.605469 126.21875 219.410156 C 126.371094 219.335938 125.742188 218.894531 125.53125 219 Z M 125.53125 219 " fill-opacity="0.35" fill-rule="nonzero"/><path fill="#15130d" d="M 102.441406 224.539062 C 100.273438 223.476562 98.273438 221.949219 96.460938 220.375 C 92.308594 216.773438 88.960938 212.238281 87.054688 207.0625 C 85.640625 203.21875 85.109375 199.113281 85.265625 195.03125 C 85.277344 194.757812 85.1875 194.40625 85.015625 194.1875 C 84.878906 194.011719 84.742188 194.023438 84.734375 194.273438 C 84.457031 201.425781 86.335938 208.511719 90.339844 214.464844 C 92.96875 218.367188 96.410156 221.730469 100.332031 224.328125 C 101.085938 224.828125 101.863281 225.324219 102.675781 225.722656 C 102.882812 225.824219 102.8125 225.300781 102.796875 225.234375 C 102.757812 225.019531 102.660156 224.648438 102.441406 224.539062 Z M 102.441406 224.539062 " fill-opacity="0.35" fill-rule="nonzero"/><path fill="#15130d" d="M 115.507812 189.128906 C 117.992188 187.699219 120.324219 185.777344 122.210938 183.628906 C 123.058594 182.660156 123.820312 181.613281 124.421875 180.472656 C 124.550781 180.234375 124.136719 179.554688 124.019531 179.773438 C 122.234375 183.144531 119.160156 185.808594 115.996094 187.859375 C 115.730469 188.03125 115.464844 188.203125 115.1875 188.359375 C 114.941406 188.503906 115.285156 189.253906 115.507812 189.128906 Z M 115.507812 189.128906 " fill-opacity="0.35" fill-rule="nonzero"/><path fill="#fe6c30" d="M 116.023438 183.953125 C 115.703125 185.425781 115.339844 186.890625 114.972656 188.355469 C 114.03125 192.101562 113 195.824219 111.886719 199.527344 C 110.367188 204.578125 108.699219 209.582031 106.835938 214.519531 C 104.835938 219.816406 102.609375 225.046875 100.003906 230.078125 C 97.578125 234.765625 94.808594 239.347656 91.375 243.382812 C 90.984375 243.839844 90.589844 244.289062 90.183594 244.730469 C 89.933594 245 89.757812 245.378906 89.621094 245.71875 C 89.585938 245.800781 89.410156 246.300781 89.632812 246.058594 C 93.332031 242.042969 96.316406 237.382812 98.9375 232.605469 C 101.808594 227.359375 104.269531 221.890625 106.464844 216.328125 C 108.5 211.164062 110.316406 205.917969 111.957031 200.613281 C 113.214844 196.5625 114.375 192.484375 115.429688 188.375 C 115.902344 186.53125 116.40625 184.679688 116.777344 182.8125 C 116.785156 182.785156 116.789062 182.761719 116.796875 182.738281 C 116.867188 182.40625 116.542969 182.871094 116.507812 182.921875 C 116.3125 183.226562 116.101562 183.59375 116.023438 183.953125 Z M 116.023438 183.953125 " fill-opacity="1" fill-rule="nonzero"/><path fill="#15130d" d="M 116.023438 183.953125 C 115.703125 185.425781 115.339844 186.890625 114.972656 188.355469 C 114.03125 192.101562 113 195.824219 111.886719 199.527344 C 110.367188 204.578125 108.699219 209.582031 106.835938 214.519531 C 104.835938 219.816406 102.609375 225.046875 100.003906 230.078125 C 97.578125 234.765625 94.808594 239.347656 91.375 243.382812 C 90.988281 243.839844 90.589844 244.289062 90.183594 244.730469 C 89.933594 245 89.757812 245.378906 89.621094 245.71875 C 89.585938 245.800781 89.410156 246.300781 89.632812 246.058594 C 93.332031 242.042969 96.316406 237.382812 98.9375 232.605469 C 101.808594 227.359375 104.269531 221.890625 106.464844 216.328125 C 108.5 211.164062 110.316406 205.914062 111.957031 200.613281 C 113.214844 196.5625 114.375 192.484375 115.429688 188.375 C 115.902344 186.53125 116.40625 184.679688 116.777344 182.8125 C 116.785156 182.785156 116.789062 182.761719 116.796875 182.738281 C 116.867188 182.40625 116.542969 182.871094 116.507812 182.921875 C 116.3125 183.226562 116.101562 183.59375 116.023438 183.953125 Z M 116.023438 183.953125 " fill-opacity="0.35" fill-rule="nonzero"/><path fill="#ffae02" d="M 156.78125 272.191406 C 154.195312 254.9375 130.683594 256.84375 142.011719 265.421875 C 138.292969 263.589844 132.425781 262.1875 129.609375 263.921875 C 126.335938 265.9375 128.972656 268.984375 131.792969 269.957031 C 119.59375 267.480469 116.347656 276.140625 127.398438 276.257812 C 116.109375 279.414062 123.609375 286.054688 133.792969 280.460938 C 131.363281 281.792969 129.667969 285.292969 133.046875 286.394531 C 136.683594 287.140625 140.125 285.332031 143.230469 283.222656 C 140.355469 285.246094 139.121094 290.878906 144.066406 290.515625 C 151.921875 289.414062 158.074219 280.8125 156.78125 272.191406 Z M 156.78125 272.191406 " fill-opacity="1" fill-rule="nonzero"/><path fill="#fe6c30" d="M 143.007812 274.011719 C 143.007812 274.023438 143.011719 274.035156 143.011719 274.046875 C 143.019531 274.175781 143.011719 273.972656 143.011719 274.050781 C 143.011719 274.105469 143.011719 274.160156 143.007812 274.214844 C 143.007812 274.246094 143.003906 274.277344 143.003906 274.3125 C 143.003906 274.332031 143 274.351562 143 274.371094 C 142.996094 274.46875 143.011719 274.25 143.003906 274.332031 C 142.992188 274.429688 142.984375 274.523438 142.96875 274.621094 C 142.960938 274.671875 142.953125 274.722656 142.945312 274.773438 C 142.933594 274.851562 142.972656 274.628906 142.949219 274.746094 C 142.945312 274.777344 142.9375 274.804688 142.933594 274.835938 C 142.90625 274.96875 142.875 275.097656 142.84375 275.226562 C 142.882812 275.0625 142.835938 275.261719 142.816406 275.320312 C 142.796875 275.402344 142.769531 275.480469 142.746094 275.558594 C 142.734375 275.59375 142.722656 275.625 142.714844 275.660156 C 142.707031 275.675781 142.664062 275.808594 142.6875 275.734375 C 142.714844 275.664062 142.671875 275.78125 142.664062 275.800781 C 142.648438 275.847656 142.632812 275.894531 142.613281 275.9375 C 142.546875 276.113281 142.472656 276.289062 142.394531 276.460938 C 142.386719 276.480469 142.375 276.503906 142.363281 276.527344 C 142.339844 276.585938 142.390625 276.472656 142.363281 276.535156 C 142.34375 276.574219 142.324219 276.613281 142.304688 276.65625 C 142.253906 276.753906 142.203125 276.855469 142.152344 276.953125 C 142.046875 277.148438 141.941406 277.339844 141.828125 277.523438 C 141.265625 278.457031 140.566406 279.300781 139.800781 280.074219 C 138.597656 281.300781 137.210938 282.335938 135.761719 283.25 C 135.59375 283.355469 135.546875 283.664062 135.523438 283.839844 C 135.519531 283.890625 135.492188 284.316406 135.636719 284.226562 C 138.003906 282.734375 140.230469 280.882812 141.746094 278.5 C 142.558594 277.226562 143.164062 275.765625 143.335938 274.257812 C 143.367188 273.960938 143.398438 273.652344 143.371094 273.355469 C 143.355469 273.171875 143.246094 273.152344 143.160156 273.308594 C 143.046875 273.507812 142.988281 273.785156 143.007812 274.011719 Z M 143.007812 274.011719 " fill-opacity="1" fill-rule="nonzero"/><path fill="#fe6c30" d="M 144.324219 263.054688 C 146.089844 264.335938 147.671875 265.941406 148.660156 267.910156 C 149.191406 268.964844 149.5625 270.132812 149.621094 271.320312 C 149.632812 271.523438 149.636719 271.734375 149.613281 271.933594 C 149.601562 272.042969 149.972656 271.894531 149.988281 271.765625 C 150.058594 271.160156 149.953125 270.507812 149.824219 269.917969 C 149.476562 268.332031 148.683594 266.863281 147.667969 265.609375 C 146.800781 264.539062 145.765625 263.613281 144.652344 262.808594 C 144.558594 262.738281 144.21875 262.976562 144.324219 263.054688 Z M 144.324219 263.054688 " fill-opacity="1" fill-rule="nonzero"/><path fill="#fe6c30" d="M 152.523438 272.1875 C 152.566406 273.417969 152.359375 274.683594 152.089844 275.875 C 151.46875 278.609375 150.234375 281.207031 148.367188 283.308594 C 146.980469 284.871094 145.261719 286.097656 143.386719 287.007812 C 143.261719 287.070312 143.125 287.195312 143.066406 287.324219 C 143.019531 287.425781 143.058594 287.484375 143.171875 287.429688 C 146.457031 285.835938 149.191406 283.285156 150.902344 280.050781 C 152.027344 277.929688 152.710938 275.574219 152.9375 273.1875 C 152.980469 272.726562 153.015625 272.257812 153 271.792969 C 152.996094 271.679688 152.777344 271.835938 152.75 271.859375 C 152.664062 271.925781 152.519531 272.0625 152.523438 272.1875 Z M 152.523438 272.1875 " fill-opacity="1" fill-rule="nonzero"/><path fill="#fe6c30" d="M 133.445312 274.820312 C 132.183594 274.03125 130.730469 273.433594 129.285156 273.105469 C 128.652344 272.960938 128.003906 272.875 127.351562 272.878906 C 127.144531 272.878906 127.023438 273.273438 127.269531 273.273438 C 129.199219 273.265625 131.125 274.007812 132.792969 274.929688 C 132.929688 275.003906 133.066406 275.082031 133.199219 275.164062 C 133.382812 275.277344 133.628906 274.933594 133.445312 274.820312 Z M 133.445312 274.820312 " fill-opacity="1" fill-rule="nonzero"/><path fill="#fe6c30" d="M 141.585938 273.078125 C 141.535156 272.683594 141.371094 272.300781 141.1875 271.953125 C 140.738281 271.097656 140.015625 270.417969 139.183594 269.9375 C 138.460938 269.523438 137.664062 269.261719 136.851562 269.09375 C 136.691406 269.0625 136.542969 269.453125 136.675781 269.480469 C 138.597656 269.875 140.597656 270.945312 141.230469 272.929688 C 141.257812 273.023438 141.285156 273.117188 141.304688 273.214844 C 141.3125 273.238281 141.316406 273.265625 141.320312 273.289062 C 141.308594 273.234375 141.316406 273.269531 141.320312 273.285156 C 141.351562 273.523438 141.605469 273.21875 141.585938 273.078125 Z M 141.585938 273.078125 " fill-opacity="1" fill-rule="nonzero"/><path fill="#15130d" d="M 141.65625 273.117188 C 141.605469 272.738281 141.4375 272.355469 141.257812 272.023438 C 140.804688 271.179688 140.082031 270.507812 139.25 270.042969 C 138.539062 269.640625 137.753906 269.386719 136.957031 269.222656 C 136.882812 269.207031 136.773438 269.261719 136.703125 269.285156 C 136.679688 269.292969 136.550781 269.351562 136.570312 269.355469 C 138.515625 269.753906 140.523438 270.851562 141.15625 272.859375 C 141.195312 272.984375 141.234375 273.113281 141.25 273.242188 C 141.25 273.25 141.660156 273.171875 141.65625 273.117188 Z M 141.65625 273.117188 " fill-opacity="0.35" fill-rule="nonzero"/><path fill="#15130d" d="M 143.007812 274.011719 C 143.007812 274.023438 143.011719 274.035156 143.011719 274.046875 C 143.019531 274.175781 143.011719 273.972656 143.011719 274.050781 C 143.011719 274.105469 143.011719 274.160156 143.007812 274.214844 C 143.007812 274.246094 143.003906 274.277344 143.003906 274.3125 C 143.003906 274.332031 143 274.351562 143 274.371094 C 142.996094 274.46875 143.011719 274.25 143.003906 274.332031 C 142.992188 274.429688 142.984375 274.523438 142.96875 274.621094 C 142.960938 274.671875 142.953125 274.722656 142.945312 274.773438 C 142.933594 274.851562 142.972656 274.628906 142.949219 274.746094 C 142.945312 274.777344 142.9375 274.804688 142.933594 274.835938 C 142.90625 274.96875 142.875 275.097656 142.84375 275.226562 C 142.882812 275.0625 142.835938 275.261719 142.816406 275.320312 C 142.796875 275.402344 142.769531 275.480469 142.746094 275.558594 C 142.734375 275.59375 142.726562 275.625 142.714844 275.660156 C 142.707031 275.675781 142.664062 275.808594 142.6875 275.734375 C 142.710938 275.664062 142.671875 275.78125 142.664062 275.800781 C 142.648438 275.847656 142.628906 275.894531 142.613281 275.9375 C 142.546875 276.113281 142.472656 276.289062 142.394531 276.460938 C 142.386719 276.480469 142.375 276.503906 142.363281 276.527344 C 142.339844 276.585938 142.390625 276.472656 142.363281 276.535156 C 142.34375 276.574219 142.324219 276.613281 142.304688 276.65625 C 142.253906 276.753906 142.203125 276.855469 142.152344 276.953125 C 142.046875 277.148438 141.941406 277.339844 141.828125 277.523438 C 141.265625 278.457031 140.566406 279.300781 139.800781 280.074219 C 138.597656 281.300781 137.210938 282.335938 135.761719 283.25 C 135.59375 283.355469 135.546875 283.664062 135.523438 283.839844 C 135.519531 283.890625 135.492188 284.316406 135.636719 284.226562 C 138.003906 282.734375 140.230469 280.882812 141.746094 278.5 C 142.558594 277.226562 143.164062 275.765625 143.335938 274.257812 C 143.367188 273.960938 143.398438 273.652344 143.371094 273.355469 C 143.355469 273.171875 143.25 273.152344 143.160156 273.308594 C 143.046875 273.507812 142.988281 273.785156 143.007812 274.011719 Z M 143.007812 274.011719 " fill-opacity="0.35" fill-rule="nonzero"/><path fill="#15130d" d="M 144.480469 263.136719 C 146.222656 264.402344 147.789062 265.976562 148.777344 267.910156 C 149.296875 268.933594 149.675781 270.113281 149.734375 271.222656 C 149.738281 271.308594 149.742188 271.398438 149.742188 271.484375 C 149.742188 271.519531 149.742188 271.4375 149.742188 271.496094 C 149.742188 271.511719 149.742188 271.53125 149.742188 271.546875 C 149.742188 271.574219 149.738281 271.605469 149.738281 271.632812 C 149.738281 271.671875 149.734375 271.710938 149.730469 271.75 C 149.730469 271.816406 149.734375 271.726562 149.734375 271.746094 C 149.726562 271.8125 149.707031 271.992188 149.773438 272.035156 C 149.835938 272.078125 149.863281 272.03125 149.871094 271.953125 C 149.949219 271.292969 149.847656 270.59375 149.707031 269.945312 C 149.363281 268.339844 148.570312 266.847656 147.546875 265.574219 C 146.671875 264.484375 145.625 263.546875 144.5 262.726562 C 144.429688 262.675781 144.382812 263.066406 144.480469 263.136719 Z M 144.480469 263.136719 " fill-opacity="0.35" fill-rule="nonzero"/><path fill="#15130d" d="M 152.523438 272.1875 C 152.566406 273.417969 152.359375 274.683594 152.089844 275.875 C 151.46875 278.609375 150.234375 281.207031 148.367188 283.308594 C 146.980469 284.871094 145.261719 286.097656 143.386719 287.007812 C 143.261719 287.070312 143.125 287.195312 143.066406 287.324219 C 143.019531 287.425781 143.058594 287.484375 143.171875 287.429688 C 146.457031 285.835938 149.191406 283.285156 150.902344 280.050781 C 152.027344 277.929688 152.710938 275.574219 152.9375 273.1875 C 152.980469 272.726562 153.015625 272.257812 153 271.796875 C 152.996094 271.679688 152.777344 271.835938 152.75 271.859375 C 152.664062 271.925781 152.519531 272.0625 152.523438 272.1875 Z M 152.523438 272.1875 " fill-opacity="0.35" fill-rule="nonzero"/><path fill="#15130d" d="M 133.457031 274.828125 C 132.21875 274.054688 130.792969 273.46875 129.371094 273.136719 C 128.730469 272.988281 128.078125 272.898438 127.417969 272.902344 C 127.28125 272.902344 127.074219 273.25 127.203125 273.25 C 129.148438 273.242188 131.085938 273.984375 132.769531 274.914062 C 132.910156 274.992188 133.050781 275.070312 133.1875 275.15625 C 133.3125 275.234375 133.566406 274.898438 133.457031 274.828125 Z M 133.457031 274.828125 " fill-opacity="0.35" fill-rule="nonzero"/><path fill="#fe6c30" d="M 131.003906 275.839844 C 131.746094 275.628906 132.492188 275.441406 133.238281 275.253906 C 135.148438 274.777344 137.070312 274.34375 139.003906 273.953125 C 141.640625 273.421875 144.292969 272.96875 146.960938 272.621094 C 149.824219 272.246094 152.710938 271.988281 155.601562 271.949219 C 158.292969 271.914062 161.019531 272.054688 163.660156 272.628906 C 163.960938 272.695312 164.257812 272.765625 164.554688 272.84375 C 164.734375 272.890625 164.945312 272.875 165.132812 272.859375 C 165.179688 272.851562 165.445312 272.8125 165.285156 272.769531 C 162.585938 272.070312 159.773438 271.851562 156.996094 271.820312 C 153.945312 271.792969 150.894531 272 147.863281 272.351562 C 145.054688 272.679688 142.253906 273.125 139.476562 273.660156 C 137.351562 274.070312 135.238281 274.53125 133.136719 275.042969 C 132.195312 275.273438 131.242188 275.496094 130.308594 275.777344 C 130.296875 275.78125 130.285156 275.78125 130.273438 275.785156 C 130.105469 275.832031 130.394531 275.867188 130.425781 275.871094 C 130.609375 275.882812 130.824219 275.890625 131.003906 275.839844 Z M 131.003906 275.839844 " fill-opacity="1" fill-rule="nonzero"/><path fill="#15130d" d="M 131.003906 275.839844 C 131.746094 275.628906 132.492188 275.441406 133.238281 275.253906 C 135.148438 274.777344 137.070312 274.34375 139.003906 273.953125 C 141.640625 273.421875 144.292969 272.96875 146.960938 272.621094 C 149.824219 272.246094 152.710938 271.988281 155.601562 271.949219 C 158.292969 271.914062 161.019531 272.054688 163.660156 272.628906 C 163.960938 272.695312 164.257812 272.765625 164.550781 272.84375 C 164.734375 272.890625 164.945312 272.875 165.132812 272.859375 C 165.179688 272.851562 165.445312 272.8125 165.285156 272.769531 C 162.585938 272.070312 159.773438 271.851562 156.996094 271.820312 C 153.945312 271.792969 150.894531 272 147.863281 272.351562 C 145.050781 272.679688 142.253906 273.125 139.476562 273.660156 C 137.351562 274.070312 135.238281 274.53125 133.136719 275.042969 C 132.195312 275.273438 131.242188 275.496094 130.308594 275.777344 C 130.296875 275.78125 130.285156 275.78125 130.273438 275.785156 C 130.105469 275.832031 130.394531 275.867188 130.425781 275.871094 C 130.609375 275.882812 130.824219 275.890625 131.003906 275.839844 Z M 131.003906 275.839844 " fill-opacity="0.35" fill-rule="nonzero"/><path fill="#ffae02" d="M 103.316406 40.15625 C 99.773438 26.9375 81.621094 30.507812 91.207031 36.1875 C 88.144531 35.089844 83.449219 34.515625 81.40625 36.117188 C 79.039062 37.976562 81.363281 40.117188 83.644531 40.628906 C 73.917969 39.777344 72.15625 46.816406 80.777344 45.925781 C 72.261719 49.386719 78.695312 53.898438 86.132812 48.636719 C 84.359375 49.890625 83.347656 52.769531 86.078125 53.324219 C 88.976562 53.585938 91.5 51.871094 93.734375 49.953125 C 91.671875 51.785156 91.207031 56.285156 95.03125 55.5625 C 101.054688 54.007812 105.089844 46.761719 103.316406 40.15625 Z M 103.316406 40.15625 " fill-opacity="1" fill-rule="nonzero"/><path fill="#fe6c30" d="M 92.746094 42.792969 C 92.746094 42.804688 92.746094 42.8125 92.75 42.820312 C 92.765625 42.917969 92.746094 42.761719 92.75 42.824219 C 92.753906 42.867188 92.757812 42.910156 92.761719 42.949219 C 92.765625 42.976562 92.765625 43.003906 92.765625 43.027344 C 92.769531 43.042969 92.769531 43.058594 92.769531 43.074219 C 92.773438 43.152344 92.769531 42.980469 92.769531 43.046875 C 92.769531 43.121094 92.769531 43.195312 92.769531 43.269531 C 92.765625 43.3125 92.765625 43.351562 92.761719 43.390625 C 92.761719 43.453125 92.773438 43.277344 92.765625 43.371094 C 92.761719 43.394531 92.761719 43.417969 92.757812 43.441406 C 92.75 43.546875 92.738281 43.652344 92.726562 43.753906 C 92.742188 43.625 92.71875 43.785156 92.710938 43.832031 C 92.703125 43.894531 92.691406 43.957031 92.675781 44.023438 C 92.671875 44.050781 92.667969 44.078125 92.660156 44.105469 C 92.65625 44.117188 92.636719 44.222656 92.648438 44.164062 C 92.660156 44.109375 92.640625 44.203125 92.636719 44.21875 C 92.625 44.253906 92.617188 44.292969 92.605469 44.332031 C 92.570312 44.472656 92.527344 44.613281 92.484375 44.753906 C 92.476562 44.773438 92.472656 44.792969 92.464844 44.8125 C 92.449219 44.859375 92.480469 44.769531 92.464844 44.816406 C 92.453125 44.847656 92.441406 44.882812 92.429688 44.914062 C 92.398438 45 92.367188 45.082031 92.335938 45.164062 C 92.273438 45.324219 92.207031 45.480469 92.136719 45.636719 C 91.777344 46.410156 91.308594 47.132812 90.78125 47.804688 C 89.953125 48.863281 88.964844 49.792969 87.914062 50.636719 C 87.792969 50.730469 87.785156 50.976562 87.785156 51.117188 C 87.78125 51.15625 87.800781 51.488281 87.902344 51.40625 C 89.617188 50.035156 91.1875 48.394531 92.160156 46.402344 C 92.679688 45.339844 93.019531 44.148438 93.019531 42.957031 C 93.019531 42.722656 93.015625 42.480469 92.96875 42.25 C 92.9375 42.109375 92.855469 42.101562 92.800781 42.234375 C 92.730469 42.398438 92.707031 42.621094 92.746094 42.792969 Z M 92.746094 42.792969 " fill-opacity="1" fill-rule="nonzero"/><path fill="#fe6c30" d="M 92.800781 34.136719 C 94.289062 34.980469 95.664062 36.09375 96.609375 37.535156 C 97.117188 38.3125 97.507812 39.191406 97.660156 40.109375 C 97.683594 40.269531 97.710938 40.429688 97.707031 40.589844 C 97.707031 40.675781 97.984375 40.527344 97.984375 40.425781 C 97.988281 39.945312 97.847656 39.449219 97.695312 39 C 97.28125 37.792969 96.535156 36.722656 95.628906 35.832031 C 94.859375 35.074219 93.972656 34.449219 93.035156 33.917969 C 92.953125 33.871094 92.710938 34.085938 92.800781 34.136719 Z M 92.800781 34.136719 " fill-opacity="1" fill-rule="nonzero"/><path fill="#fe6c30" d="M 100 40.527344 C 100.140625 41.484375 100.09375 42.488281 99.988281 43.441406 C 99.746094 45.628906 99.015625 47.761719 97.742188 49.566406 C 96.800781 50.902344 95.570312 52.011719 94.191406 52.886719 C 94.097656 52.945312 94.003906 53.054688 93.96875 53.164062 C 93.941406 53.246094 93.976562 53.289062 94.0625 53.238281 C 96.476562 51.703125 98.382812 49.472656 99.433594 46.800781 C 100.121094 45.050781 100.445312 43.152344 100.410156 41.269531 C 100.402344 40.910156 100.386719 40.539062 100.335938 40.179688 C 100.320312 40.089844 100.164062 40.234375 100.144531 40.253906 C 100.085938 40.3125 99.984375 40.429688 100 40.527344 Z M 100 40.527344 " fill-opacity="1" fill-rule="nonzero"/><path fill="#fe6c30" d="M 85.363281 44.269531 C 84.3125 43.769531 83.125 43.433594 81.96875 43.304688 C 81.464844 43.246094 80.949219 43.238281 80.441406 43.296875 C 80.28125 43.316406 80.222656 43.632812 80.414062 43.609375 C 81.914062 43.433594 83.484375 43.84375 84.863281 44.414062 C 84.976562 44.460938 85.089844 44.507812 85.203125 44.5625 C 85.355469 44.632812 85.515625 44.34375 85.363281 44.269531 Z M 85.363281 44.269531 " fill-opacity="1" fill-rule="nonzero"/><path fill="#fe6c30" d="M 91.550781 42.191406 C 91.476562 41.890625 91.316406 41.605469 91.144531 41.351562 C 90.71875 40.726562 90.09375 40.257812 89.402344 39.957031 C 88.804688 39.699219 88.160156 39.566406 87.511719 39.507812 C 87.382812 39.496094 87.300781 39.8125 87.410156 39.824219 C 88.941406 39.960938 90.59375 40.617188 91.261719 42.109375 C 91.292969 42.179688 91.320312 42.25 91.347656 42.324219 C 91.351562 42.339844 91.359375 42.359375 91.363281 42.378906 C 91.351562 42.335938 91.359375 42.367188 91.363281 42.375 C 91.410156 42.5625 91.578125 42.300781 91.550781 42.191406 Z M 91.550781 42.191406 " fill-opacity="1" fill-rule="nonzero"/><path fill="#15130d" d="M 91.609375 42.21875 C 91.539062 41.925781 91.375 41.644531 91.203125 41.398438 C 90.773438 40.78125 90.152344 40.324219 89.464844 40.03125 C 88.875 39.78125 88.242188 39.652344 87.605469 39.597656 C 87.546875 39.59375 87.464844 39.644531 87.414062 39.667969 C 87.394531 39.675781 87.300781 39.734375 87.316406 39.734375 C 88.867188 39.871094 90.527344 40.550781 91.199219 42.058594 C 91.242188 42.152344 91.28125 42.25 91.304688 42.351562 C 91.308594 42.355469 91.621094 42.257812 91.609375 42.21875 Z M 91.609375 42.21875 " fill-opacity="0.35" fill-rule="nonzero"/><path fill="#15130d" d="M 92.746094 42.792969 C 92.746094 42.804688 92.746094 42.8125 92.75 42.820312 C 92.765625 42.917969 92.746094 42.761719 92.75 42.824219 C 92.753906 42.867188 92.757812 42.910156 92.761719 42.949219 C 92.765625 42.976562 92.765625 43.003906 92.765625 43.027344 C 92.769531 43.042969 92.769531 43.058594 92.769531 43.074219 C 92.773438 43.152344 92.769531 42.980469 92.769531 43.046875 C 92.769531 43.121094 92.769531 43.195312 92.769531 43.269531 C 92.765625 43.3125 92.765625 43.351562 92.761719 43.390625 C 92.761719 43.453125 92.773438 43.277344 92.765625 43.371094 C 92.761719 43.394531 92.761719 43.417969 92.757812 43.441406 C 92.75 43.546875 92.738281 43.652344 92.726562 43.753906 C 92.742188 43.625 92.71875 43.785156 92.710938 43.832031 C 92.703125 43.894531 92.691406 43.957031 92.675781 44.023438 C 92.671875 44.050781 92.667969 44.078125 92.660156 44.105469 C 92.65625 44.117188 92.632812 44.222656 92.648438 44.167969 C 92.660156 44.109375 92.640625 44.203125 92.636719 44.21875 C 92.625 44.253906 92.617188 44.292969 92.605469 44.332031 C 92.570312 44.472656 92.527344 44.613281 92.484375 44.753906 C 92.476562 44.773438 92.472656 44.792969 92.464844 44.8125 C 92.449219 44.859375 92.480469 44.769531 92.464844 44.816406 C 92.453125 44.851562 92.441406 44.882812 92.429688 44.914062 C 92.398438 45 92.367188 45.082031 92.335938 45.164062 C 92.273438 45.324219 92.207031 45.480469 92.136719 45.636719 C 91.777344 46.410156 91.308594 47.132812 90.785156 47.804688 C 89.953125 48.863281 88.964844 49.792969 87.914062 50.636719 C 87.792969 50.730469 87.785156 50.976562 87.785156 51.117188 C 87.78125 51.15625 87.800781 51.488281 87.902344 51.40625 C 89.617188 50.035156 91.1875 48.394531 92.160156 46.402344 C 92.679688 45.339844 93.019531 44.148438 93.019531 42.957031 C 93.019531 42.722656 93.015625 42.480469 92.96875 42.25 C 92.9375 42.109375 92.855469 42.101562 92.800781 42.234375 C 92.730469 42.398438 92.707031 42.621094 92.746094 42.792969 Z M 92.746094 42.792969 " fill-opacity="0.35" fill-rule="nonzero"/><path fill="#15130d" d="M 92.925781 34.1875 C 94.398438 35.019531 95.757812 36.109375 96.699219 37.527344 C 97.195312 38.28125 97.59375 39.164062 97.738281 40.023438 C 97.75 40.089844 97.757812 40.160156 97.769531 40.226562 C 97.769531 40.253906 97.765625 40.191406 97.769531 40.238281 C 97.769531 40.25 97.773438 40.261719 97.773438 40.277344 C 97.773438 40.296875 97.777344 40.320312 97.777344 40.34375 C 97.78125 40.375 97.78125 40.40625 97.785156 40.4375 C 97.785156 40.488281 97.785156 40.417969 97.785156 40.433594 C 97.785156 40.484375 97.785156 40.625 97.839844 40.65625 C 97.894531 40.683594 97.910156 40.644531 97.910156 40.582031 C 97.910156 40.058594 97.769531 39.523438 97.605469 39.03125 C 97.195312 37.808594 96.445312 36.71875 95.535156 35.816406 C 94.753906 35.046875 93.859375 34.40625 92.90625 33.867188 C 92.847656 33.832031 92.84375 34.140625 92.925781 34.1875 Z M 92.925781 34.1875 " fill-opacity="0.35" fill-rule="nonzero"/><path fill="#15130d" d="M 100 40.527344 C 100.140625 41.484375 100.09375 42.488281 99.988281 43.441406 C 99.746094 45.628906 99.011719 47.761719 97.742188 49.566406 C 96.800781 50.902344 95.570312 52.011719 94.191406 52.886719 C 94.097656 52.945312 94.003906 53.054688 93.96875 53.164062 C 93.941406 53.246094 93.976562 53.289062 94.0625 53.238281 C 96.476562 51.703125 98.382812 49.472656 99.433594 46.800781 C 100.121094 45.050781 100.445312 43.152344 100.410156 41.269531 C 100.402344 40.910156 100.386719 40.539062 100.335938 40.179688 C 100.320312 40.089844 100.164062 40.234375 100.144531 40.253906 C 100.085938 40.3125 99.984375 40.429688 100 40.527344 Z M 100 40.527344 " fill-opacity="0.35" fill-rule="nonzero"/><path fill="#15130d" d="M 85.371094 44.277344 C 84.339844 43.78125 83.175781 43.453125 82.039062 43.320312 C 81.527344 43.261719 81.011719 43.25 80.496094 43.308594 C 80.390625 43.320312 80.261719 43.613281 80.359375 43.601562 C 81.875 43.421875 83.449219 43.828125 84.84375 44.402344 C 84.960938 44.453125 85.078125 44.5 85.191406 44.554688 C 85.296875 44.605469 85.464844 44.320312 85.371094 44.277344 Z M 85.371094 44.277344 " fill-opacity="0.35" fill-rule="nonzero"/><path fill="#fe6c30" d="M 83.550781 45.28125 C 84.109375 45.054688 84.675781 44.839844 85.238281 44.628906 C 86.6875 44.085938 88.148438 43.578125 89.617188 43.105469 C 91.625 42.457031 93.652344 41.867188 95.699219 41.359375 C 97.898438 40.8125 100.125 40.355469 102.375 40.070312 C 104.46875 39.804688 106.609375 39.675781 108.714844 39.886719 C 108.953125 39.910156 109.191406 39.941406 109.429688 39.972656 C 109.578125 39.996094 109.742188 39.964844 109.882812 39.933594 C 109.917969 39.925781 110.121094 39.871094 109.992188 39.851562 C 107.828125 39.546875 105.617188 39.625 103.449219 39.847656 C 101.070312 40.09375 98.710938 40.527344 96.382812 41.070312 C 94.21875 41.574219 92.078125 42.167969 89.960938 42.832031 C 88.34375 43.339844 86.734375 43.886719 85.144531 44.472656 C 84.429688 44.734375 83.707031 44.992188 83.003906 45.292969 C 82.996094 45.296875 82.984375 45.300781 82.976562 45.304688 C 82.851562 45.355469 83.078125 45.359375 83.101562 45.355469 C 83.246094 45.351562 83.417969 45.339844 83.550781 45.28125 Z M 83.550781 45.28125 " fill-opacity="1" fill-rule="nonzero"/><path fill="#15130d" d="M 83.550781 45.28125 C 84.109375 45.054688 84.675781 44.839844 85.238281 44.628906 C 86.6875 44.085938 88.148438 43.578125 89.617188 43.105469 C 91.625 42.457031 93.652344 41.867188 95.699219 41.359375 C 97.898438 40.8125 100.125 40.355469 102.375 40.070312 C 104.46875 39.804688 106.609375 39.675781 108.714844 39.886719 C 108.953125 39.910156 109.191406 39.941406 109.429688 39.972656 C 109.578125 39.996094 109.742188 39.964844 109.882812 39.933594 C 109.917969 39.925781 110.121094 39.871094 109.992188 39.851562 C 107.828125 39.546875 105.617188 39.625 103.449219 39.847656 C 101.070312 40.09375 98.710938 40.527344 96.382812 41.070312 C 94.21875 41.574219 92.078125 42.167969 89.960938 42.832031 C 88.34375 43.339844 86.734375 43.886719 85.144531 44.472656 C 84.429688 44.734375 83.703125 44.992188 83.003906 45.292969 C 82.996094 45.296875 82.984375 45.300781 82.976562 45.304688 C 82.851562 45.355469 83.078125 45.359375 83.101562 45.355469 C 83.246094 45.351562 83.417969 45.339844 83.550781 45.28125 Z M 83.550781 45.28125 " fill-opacity="0.35" fill-rule="nonzero"/><path fill="#fe6c30" d="M 142.96875 125.40625 C 177.890625 121.25 175.484375 73.769531 157.511719 96.0625 C 161.429688 88.683594 164.621094 76.949219 161.292969 71.164062 C 157.433594 64.453125 151.136719 69.578125 149 75.203125 C 154.738281 50.773438 137.492188 43.707031 136.574219 65.960938 C 130.914062 43.023438 117.070312 57.730469 127.71875 78.582031 C 125.179688 73.609375 118.234375 69.980469 115.808594 76.71875 C 114.082031 84 117.515625 91.042969 121.578125 97.425781 C 117.675781 91.515625 106.398438 88.679688 106.832031 98.667969 C 108.566406 114.558594 125.519531 127.484375 142.96875 125.40625 Z M 142.96875 125.40625 " fill-opacity="1" fill-rule="nonzero"/><path fill="#fe6c30" d="M 142.027344 94.546875 C 144.789062 94.273438 147.222656 92.167969 148.617188 89.898438 C 149.496094 88.464844 150.074219 86.875 150.460938 85.242188 C 150.476562 85.171875 149.675781 85.082031 149.628906 85.269531 C 148.726562 89.085938 146.449219 93.078125 142.433594 94.230469 C 142.332031 94.261719 142.230469 94.285156 142.128906 94.3125 C 142.019531 94.335938 141.992188 94.34375 141.933594 94.351562 C 141.878906 94.363281 141.828125 94.371094 141.773438 94.378906 C 141.675781 94.394531 141.859375 94.371094 141.804688 94.375 C 141.730469 94.382812 141.484375 94.390625 141.515625 94.5 C 141.546875 94.589844 141.976562 94.554688 142.027344 94.546875 Z M 142.027344 94.546875 " fill-opacity="1" fill-rule="nonzero"/><path fill="#fe6c30" d="M 141.246094 97.078125 C 139.921875 97.15625 138.574219 96.765625 137.308594 96.328125 C 133.671875 95.070312 130.507812 92.664062 127.863281 89.917969 C 125.417969 87.378906 123.367188 84.488281 121.585938 81.453125 C 121.414062 81.164062 121 81.710938 120.898438 81.84375 C 120.753906 82.03125 120.25 82.707031 120.414062 82.988281 C 123.21875 87.753906 126.714844 92.320312 131.316406 95.476562 C 133.601562 97.042969 136.203125 98.285156 138.964844 98.683594 C 139.417969 98.75 139.886719 98.808594 140.347656 98.78125 C 140.703125 98.761719 141.042969 98.132812 141.183594 97.863281 C 141.246094 97.742188 141.582031 97.058594 141.246094 97.078125 Z M 141.246094 97.078125 " fill-opacity="1" fill-rule="nonzero"/><path fill="#fe6c30" d="M 161.988281 101.121094 C 159.316406 104.574219 156.027344 107.648438 152.046875 109.523438 C 149.902344 110.535156 147.558594 111.210938 145.175781 111.273438 C 144.976562 111.277344 144.621094 111.269531 144.335938 111.253906 C 144.1875 111.246094 144.382812 111.261719 144.285156 111.25 C 144.25 111.246094 144.21875 111.242188 144.183594 111.238281 C 144.15625 111.238281 144.128906 111.234375 144.101562 111.230469 C 144.03125 111.21875 143.675781 111.183594 143.671875 111.3125 C 143.667969 111.445312 143.988281 111.488281 144.066406 111.5 C 145.355469 111.691406 146.742188 111.527344 148.007812 111.292969 C 151.21875 110.703125 154.21875 109.226562 156.816406 107.277344 C 159.078125 105.582031 161.046875 103.523438 162.773438 101.292969 C 162.882812 101.148438 162.121094 100.949219 161.988281 101.121094 Z M 161.988281 101.121094 " fill-opacity="1" fill-rule="nonzero"/><path fill="#fe6c30" d="M 144.011719 117.078125 C 141.492188 117.085938 138.921875 116.578125 136.460938 115.929688 C 130.871094 114.453125 125.621094 111.671875 121.441406 107.65625 C 118.324219 104.667969 115.886719 101.050781 114.121094 97.117188 C 113.996094 96.835938 112.828125 97.246094 112.921875 97.449219 C 115.878906 104.046875 120.769531 109.566406 127.113281 113.070312 C 131.214844 115.339844 135.804688 116.796875 140.457031 117.359375 C 141.375 117.46875 142.308594 117.570312 143.230469 117.566406 C 143.511719 117.566406 143.847656 117.492188 144.082031 117.332031 C 144.253906 117.210938 144.257812 117.074219 144.011719 117.078125 Z M 144.011719 117.078125 " fill-opacity="1" fill-rule="nonzero"/><path fill="#fe6c30" d="M 139.003906 78.066406 C 140.6875 75.546875 141.996094 72.640625 142.757812 69.714844 C 143.089844 68.445312 143.304688 67.136719 143.339844 65.820312 C 143.347656 65.410156 142.65625 65.832031 142.648438 66.136719 C 142.550781 70.007812 140.945312 73.808594 139 77.105469 C 138.875 77.3125 138.75 77.519531 138.621094 77.726562 C 138.609375 77.742188 138.546875 77.84375 138.582031 77.789062 C 138.617188 77.730469 138.566406 77.808594 138.5625 77.820312 C 138.546875 77.839844 138.535156 77.859375 138.523438 77.878906 C 138.21875 78.335938 138.769531 78.421875 139.003906 78.066406 Z M 139.003906 78.066406 " fill-opacity="1" fill-rule="nonzero"/><path fill="#15130d" d="M 141.804688 94.828125 C 142.632812 94.746094 143.460938 94.410156 144.195312 94.042969 C 145.996094 93.136719 147.441406 91.660156 148.488281 89.957031 C 149.378906 88.503906 149.964844 86.882812 150.359375 85.230469 C 150.484375 84.703125 149.820312 84.90625 149.734375 85.28125 C 148.84375 89.03125 146.65625 92.847656 142.714844 93.949219 C 142.457031 94.023438 142.300781 94.066406 142.027344 94.09375 C 141.695312 94.128906 141.367188 94.871094 141.804688 94.828125 Z M 141.804688 94.828125 " fill-opacity="0.35" fill-rule="nonzero"/><path fill="#15130d" d="M 140.964844 97.609375 C 139.636719 97.6875 138.210938 97.28125 136.972656 96.855469 C 133.339844 95.59375 130.171875 93.191406 127.527344 90.441406 C 125.070312 87.890625 123.011719 84.980469 121.21875 81.933594 C 121.140625 81.800781 120.6875 82.355469 120.78125 82.511719 C 123.574219 87.261719 127.0625 91.804688 131.652344 94.949219 C 133.917969 96.503906 136.503906 97.75 139.246094 98.152344 C 139.699219 98.214844 140.167969 98.277344 140.628906 98.25 C 140.820312 98.238281 141.097656 97.601562 140.964844 97.609375 Z M 140.964844 97.609375 " fill-opacity="0.35" fill-rule="nonzero"/><path fill="#15130d" d="M 161.980469 101.15625 C 159.316406 104.597656 156.035156 107.671875 152.0625 109.535156 C 150.777344 110.140625 149.429688 110.617188 148.042969 110.914062 C 147.171875 111.101562 146.121094 111.242188 145.335938 111.253906 C 145.164062 111.257812 144.992188 111.257812 144.816406 111.253906 C 144.746094 111.25 144.675781 111.25 144.601562 111.246094 C 144.5625 111.242188 144.398438 111.234375 144.46875 111.238281 C 144.523438 111.242188 144.335938 111.226562 144.28125 111.222656 C 144.253906 111.21875 144.222656 111.214844 144.195312 111.210938 C 144.09375 111.195312 143.730469 111.175781 143.683594 111.3125 C 143.632812 111.464844 143.867188 111.503906 143.96875 111.519531 C 145.265625 111.710938 146.660156 111.539062 147.9375 111.304688 C 151.191406 110.707031 154.242188 109.203125 156.871094 107.214844 C 159.109375 105.519531 161.0625 103.476562 162.78125 101.257812 C 162.90625 101.09375 162.132812 100.960938 161.980469 101.15625 Z M 161.980469 101.15625 " fill-opacity="0.35" fill-rule="nonzero"/><path fill="#15130d" d="M 143.617188 116.703125 C 143.425781 116.707031 143.234375 116.699219 143.046875 116.6875 C 142.949219 116.683594 142.847656 116.679688 142.75 116.671875 C 142.609375 116.664062 142.855469 116.679688 142.707031 116.671875 C 142.628906 116.664062 142.550781 116.660156 142.472656 116.652344 C 142.167969 116.628906 141.859375 116.601562 141.554688 116.570312 C 139.714844 116.375 137.890625 116.027344 136.101562 115.554688 C 130.582031 114.097656 125.382812 111.363281 121.25 107.398438 C 118.152344 104.425781 115.734375 100.847656 113.980469 96.933594 C 113.851562 96.648438 113.492188 96.601562 113.253906 96.773438 C 112.988281 96.964844 112.933594 97.347656 113.0625 97.632812 C 116.039062 104.261719 120.960938 109.828125 127.324219 113.371094 C 131.46875 115.675781 136.109375 117.164062 140.816406 117.734375 C 141.746094 117.84375 142.691406 117.941406 143.628906 117.9375 C 144.296875 117.933594 144.339844 116.703125 143.617188 116.703125 Z M 143.617188 116.703125 " fill-opacity="0.35" fill-rule="nonzero"/><path fill="#15130d" d="M 139.085938 77.941406 C 140.746094 75.460938 142.035156 72.582031 142.785156 69.699219 C 143.117188 68.429688 143.332031 67.132812 143.367188 65.820312 C 143.375 65.546875 142.628906 65.863281 142.621094 66.136719 C 142.519531 70.03125 140.910156 73.875 138.945312 77.1875 C 138.78125 77.460938 138.617188 77.734375 138.441406 78 C 138.34375 78.148438 138.421875 78.234375 138.578125 78.238281 C 138.757812 78.242188 138.992188 78.085938 139.085938 77.941406 Z M 139.085938 77.941406 " fill-opacity="0.35" fill-rule="nonzero"/><path fill="#fe6c30" d="M 136.695312 72.6875 C 137.078125 74.207031 137.417969 75.738281 137.75 77.269531 C 138.609375 81.207031 139.367188 85.160156 140.042969 89.128906 C 140.960938 94.535156 141.71875 99.964844 142.257812 105.421875 C 142.84375 111.347656 143.183594 117.308594 143.074219 123.261719 C 142.96875 128.808594 142.519531 134.421875 141.175781 139.816406 C 141.027344 140.425781 140.863281 141.035156 140.6875 141.636719 C 140.460938 142.410156 141.578125 142.578125 141.78125 141.882812 C 143.328125 136.570312 143.953125 131.015625 144.167969 125.5 C 144.40625 119.492188 144.152344 113.464844 143.636719 107.476562 C 143.152344 101.878906 142.425781 96.304688 141.527344 90.757812 C 140.839844 86.523438 140.054688 82.308594 139.164062 78.117188 C 138.757812 76.214844 138.367188 74.300781 137.871094 72.421875 C 137.863281 72.394531 137.859375 72.371094 137.851562 72.34375 C 137.664062 71.605469 136.527344 72.019531 136.695312 72.6875 Z M 136.695312 72.6875 " fill-opacity="1" fill-rule="nonzero"/><path fill="#15130d" d="M 136.683594 72.71875 C 137.066406 74.238281 137.40625 75.769531 137.742188 77.304688 C 138.59375 81.21875 139.351562 85.160156 140.023438 89.109375 C 140.941406 94.519531 141.695312 99.957031 142.230469 105.417969 C 142.816406 111.359375 143.152344 117.332031 143.039062 123.300781 C 142.9375 128.855469 142.472656 134.457031 141.128906 139.859375 C 140.976562 140.46875 140.8125 141.078125 140.636719 141.679688 C 140.425781 142.410156 141.640625 142.492188 141.832031 141.839844 C 143.378906 136.535156 143.984375 130.96875 144.203125 125.460938 C 144.4375 119.464844 144.183594 113.453125 143.660156 107.476562 C 143.175781 101.882812 142.449219 96.3125 141.546875 90.773438 C 140.855469 86.527344 140.066406 82.292969 139.171875 78.082031 C 138.894531 76.773438 138.609375 75.46875 138.304688 74.164062 C 138.167969 73.574219 138.0625 72.964844 137.882812 72.386719 C 137.875 72.363281 137.867188 72.335938 137.863281 72.3125 C 137.691406 71.632812 136.511719 72.039062 136.683594 72.71875 Z M 136.683594 72.71875 " fill-opacity="0.35" fill-rule="nonzero"/><path fill="#fe6c30" d="M 190.253906 188.007812 C 193.832031 205.582031 217.863281 202.363281 205.777344 194.164062 C 209.695312 195.847656 215.792969 196.972656 218.589844 195.039062 C 221.839844 192.796875 218.972656 189.8125 216.023438 188.960938 C 228.679688 190.851562 231.546875 181.789062 220.199219 182.257812 C 231.617188 178.417969 223.5625 172 213.410156 178.285156 C 215.832031 176.789062 217.386719 173.105469 213.859375 172.15625 C 210.085938 171.582031 206.648438 173.625 203.574219 175.957031 C 206.414062 173.726562 207.382812 167.875 202.324219 168.515625 C 194.320312 170.066406 188.464844 179.226562 190.253906 188.007812 Z M 190.253906 188.007812 " fill-opacity="1" fill-rule="nonzero"/><path fill="#fe6c30" d="M 205.898438 186.230469 C 206.152344 187.621094 207.324219 188.769531 208.539062 189.382812 C 209.304688 189.769531 210.136719 189.996094 210.980469 190.125 C 211.019531 190.132812 211.03125 189.71875 210.933594 189.703125 C 208.953125 189.40625 206.832031 188.417969 206.074219 186.425781 C 206.058594 186.375 206.039062 186.324219 206.023438 186.273438 C 206.003906 186.21875 206 186.203125 205.992188 186.175781 C 205.984375 186.148438 205.980469 186.121094 205.972656 186.09375 C 205.960938 186.046875 205.980469 186.136719 205.976562 186.109375 C 205.96875 186.074219 205.953125 185.945312 205.902344 185.96875 C 205.855469 185.988281 205.890625 186.203125 205.898438 186.230469 Z M 205.898438 186.230469 " fill-opacity="1" fill-rule="nonzero"/><path fill="#fe6c30" d="M 204.578125 185.941406 C 204.484375 185.269531 204.625 184.566406 204.792969 183.90625 C 205.28125 182.007812 206.371094 180.296875 207.65625 178.835938 C 208.84375 177.488281 210.226562 176.324219 211.691406 175.289062 C 211.832031 175.191406 211.539062 175.003906 211.46875 174.957031 C 211.363281 174.890625 211 174.664062 210.863281 174.761719 C 208.558594 176.382812 206.386719 178.351562 204.976562 180.824219 C 204.277344 182.050781 203.753906 183.425781 203.667969 184.847656 C 203.652344 185.082031 203.640625 185.324219 203.675781 185.554688 C 203.699219 185.734375 204.035156 185.878906 204.175781 185.941406 C 204.242188 185.96875 204.601562 186.109375 204.578125 185.941406 Z M 204.578125 185.941406 " fill-opacity="1" fill-rule="nonzero"/><path fill="#fe6c30" d="M 203.394531 196.652344 C 201.527344 195.4375 199.828125 193.894531 198.707031 191.953125 C 198.101562 190.90625 197.660156 189.742188 197.53125 188.535156 C 197.519531 188.433594 197.507812 188.25 197.503906 188.105469 C 197.5 188.03125 197.503906 188.128906 197.503906 188.082031 C 197.503906 188.0625 197.503906 188.046875 197.503906 188.027344 C 197.503906 188.011719 197.503906 188 197.507812 187.984375 C 197.507812 187.949219 197.511719 187.765625 197.445312 187.769531 C 197.378906 187.773438 197.371094 187.941406 197.367188 187.980469 C 197.324219 188.640625 197.464844 189.339844 197.636719 189.972656 C 198.074219 191.582031 198.949219 193.042969 200.050781 194.28125 C 201.007812 195.359375 202.132812 196.273438 203.34375 197.058594 C 203.417969 197.109375 203.488281 196.710938 203.394531 196.652344 Z M 203.394531 196.652344 " fill-opacity="1" fill-rule="nonzero"/><path fill="#fe6c30" d="M 194.53125 188.183594 C 194.417969 186.90625 194.570312 185.578125 194.796875 184.300781 C 195.3125 181.398438 196.503906 178.613281 198.371094 176.316406 C 199.757812 174.609375 201.492188 173.21875 203.417969 172.15625 C 203.558594 172.078125 203.300781 171.503906 203.199219 171.558594 C 199.972656 173.339844 197.371094 176.058594 195.855469 179.429688 C 194.875 181.609375 194.328125 184.003906 194.238281 186.390625 C 194.21875 186.863281 194.207031 187.339844 194.25 187.808594 C 194.261719 187.953125 194.3125 188.121094 194.40625 188.230469 C 194.472656 188.3125 194.542969 188.3125 194.53125 188.183594 Z M 194.53125 188.183594 " fill-opacity="1" fill-rule="nonzero"/><path fill="#fe6c30" d="M 214.148438 184 C 215.5 184.75 217.03125 185.292969 218.550781 185.558594 C 219.210938 185.671875 219.882812 185.726562 220.554688 185.691406 C 220.761719 185.679688 220.519531 185.34375 220.363281 185.351562 C 218.394531 185.464844 216.394531 184.808594 214.636719 183.957031 C 214.523438 183.90625 214.414062 183.847656 214.304688 183.792969 C 214.296875 183.789062 214.242188 183.757812 214.273438 183.773438 C 214.300781 183.789062 214.261719 183.769531 214.253906 183.765625 C 214.242188 183.761719 214.234375 183.753906 214.222656 183.75 C 213.976562 183.613281 213.957031 183.894531 214.148438 184 Z M 214.148438 184 " fill-opacity="1" fill-rule="nonzero"/><path fill="#15130d" d="M 205.746094 186.128906 C 205.820312 186.546875 206.027344 186.953125 206.246094 187.3125 C 206.78125 188.1875 207.59375 188.859375 208.503906 189.320312 C 209.277344 189.714844 210.128906 189.941406 210.984375 190.074219 C 211.257812 190.113281 211.125 189.785156 210.933594 189.757812 C 208.988281 189.464844 206.957031 188.511719 206.230469 186.554688 C 206.183594 186.425781 206.152344 186.347656 206.128906 186.210938 C 206.097656 186.042969 205.703125 185.910156 205.746094 186.128906 Z M 205.746094 186.128906 " fill-opacity="0.35" fill-rule="nonzero"/><path fill="#15130d" d="M 204.296875 185.820312 C 204.199219 185.144531 204.347656 184.40625 204.511719 183.757812 C 205 181.859375 206.089844 180.148438 207.375 178.6875 C 208.570312 177.332031 209.960938 176.164062 211.433594 175.125 C 211.5 175.078125 211.199219 174.871094 211.125 174.925781 C 208.828125 176.542969 206.664062 178.511719 205.257812 180.972656 C 204.5625 182.191406 204.039062 183.558594 203.949219 184.96875 C 203.933594 185.199219 203.925781 185.441406 203.957031 185.675781 C 203.972656 185.773438 204.304688 185.886719 204.296875 185.820312 Z M 204.296875 185.820312 " fill-opacity="0.35" fill-rule="nonzero"/><path fill="#15130d" d="M 203.378906 196.648438 C 201.515625 195.441406 199.816406 193.902344 198.703125 191.960938 C 198.339844 191.332031 198.042969 190.667969 197.832031 189.976562 C 197.699219 189.542969 197.585938 189.011719 197.546875 188.613281 C 197.535156 188.527344 197.527344 188.4375 197.523438 188.351562 C 197.523438 188.3125 197.519531 188.277344 197.519531 188.242188 C 197.519531 188.21875 197.515625 188.136719 197.515625 188.171875 C 197.515625 188.203125 197.515625 188.105469 197.519531 188.074219 C 197.519531 188.0625 197.519531 188.046875 197.519531 188.035156 C 197.523438 187.980469 197.515625 187.792969 197.445312 187.777344 C 197.367188 187.757812 197.359375 187.878906 197.355469 187.929688 C 197.3125 188.597656 197.457031 189.300781 197.628906 189.9375 C 198.070312 191.566406 198.964844 193.054688 200.085938 194.304688 C 201.039062 195.375 202.160156 196.28125 203.359375 197.058594 C 203.449219 197.117188 203.484375 196.71875 203.378906 196.648438 Z M 203.378906 196.648438 " fill-opacity="0.35" fill-rule="nonzero"/><path fill="#15130d" d="M 194.703125 187.96875 C 194.695312 187.871094 194.691406 187.777344 194.6875 187.679688 C 194.683594 187.628906 194.683594 187.578125 194.683594 187.527344 C 194.679688 187.453125 194.683594 187.582031 194.683594 187.507812 C 194.679688 187.464844 194.679688 187.425781 194.679688 187.386719 C 194.679688 187.230469 194.679688 187.070312 194.683594 186.914062 C 194.707031 185.972656 194.808594 185.03125 194.972656 184.101562 C 195.480469 181.234375 196.652344 178.476562 198.492188 176.210938 C 199.875 174.511719 201.589844 173.132812 203.503906 172.078125 C 203.644531 172 203.652344 171.8125 203.558594 171.699219 C 203.449219 171.570312 203.253906 171.5625 203.113281 171.636719 C 199.867188 173.429688 197.246094 176.164062 195.714844 179.550781 C 194.714844 181.753906 194.15625 184.171875 194.0625 186.589844 C 194.042969 187.066406 194.035156 187.550781 194.078125 188.027344 C 194.105469 188.367188 194.734375 188.335938 194.703125 187.96875 Z M 194.703125 187.96875 " fill-opacity="0.35" fill-rule="nonzero"/><path fill="#15130d" d="M 214.214844 184.039062 C 215.546875 184.777344 217.0625 185.3125 218.558594 185.570312 C 219.21875 185.6875 219.886719 185.742188 220.554688 185.703125 C 220.695312 185.695312 220.503906 185.332031 220.363281 185.339844 C 218.378906 185.449219 216.359375 184.792969 214.589844 183.933594 C 214.445312 183.863281 214.300781 183.792969 214.15625 183.710938 C 214.078125 183.667969 214.039062 183.710938 214.042969 183.792969 C 214.046875 183.882812 214.136719 183.996094 214.214844 184.039062 Z M 214.214844 184.039062 " fill-opacity="0.35" fill-rule="nonzero"/><path fill="#fe6c30" d="M 216.785156 182.601562 C 216.027344 182.859375 215.265625 183.097656 214.5 183.332031 C 212.535156 183.933594 210.558594 184.484375 208.566406 184.996094 C 205.859375 185.6875 203.128906 186.300781 200.382812 186.804688 C 197.394531 187.351562 194.378906 187.773438 191.347656 187.96875 C 188.523438 188.148438 185.652344 188.15625 182.851562 187.703125 C 182.535156 187.648438 182.222656 187.59375 181.90625 187.527344 C 181.503906 187.445312 181.464844 188.019531 181.828125 188.09375 C 184.59375 188.660156 187.445312 188.742188 190.257812 188.621094 C 193.320312 188.488281 196.371094 188.105469 199.394531 187.589844 C 202.21875 187.109375 205.023438 186.507812 207.804688 185.816406 C 209.925781 185.289062 212.035156 184.710938 214.128906 184.082031 C 215.078125 183.796875 216.035156 183.519531 216.96875 183.1875 C 216.980469 183.183594 216.996094 183.179688 217.007812 183.175781 C 217.375 183.046875 217.117188 182.488281 216.785156 182.601562 Z M 216.785156 182.601562 " fill-opacity="1" fill-rule="nonzero"/><path fill="#15130d" d="M 216.769531 182.597656 C 216.011719 182.855469 215.246094 183.09375 214.480469 183.328125 C 212.527344 183.925781 210.558594 184.476562 208.578125 184.984375 C 205.867188 185.675781 203.132812 186.289062 200.378906 186.792969 C 197.386719 187.335938 194.363281 187.757812 191.328125 187.953125 C 188.5 188.132812 185.632812 188.132812 182.828125 187.679688 C 182.511719 187.625 182.199219 187.570312 181.882812 187.503906 C 181.503906 187.425781 181.511719 188.050781 181.851562 188.117188 C 184.613281 188.679688 187.46875 188.757812 190.277344 188.636719 C 193.335938 188.503906 196.378906 188.121094 199.394531 187.605469 C 202.21875 187.121094 205.019531 186.519531 207.796875 185.828125 C 209.925781 185.296875 212.042969 184.71875 214.144531 184.089844 C 214.800781 183.890625 215.453125 183.691406 216.101562 183.480469 C 216.394531 183.386719 216.703125 183.308594 216.988281 183.191406 C 217 183.1875 217.011719 183.183594 217.023438 183.179688 C 217.363281 183.0625 217.105469 182.480469 216.769531 182.597656 Z M 216.769531 182.597656 " fill-opacity="0.35" fill-rule="nonzero"/><path fill="#fe6c30" d="M 216.28125 274.335938 C 227.453125 265.789062 216.949219 249.933594 215.304688 261.269531 C 215.152344 257.933594 213.859375 253.242188 211.535156 251.929688 C 208.839844 250.40625 207.714844 253.453125 208.125 255.824219 C 205.125 246.246094 197.746094 247.328125 201.964844 255.175781 C 195.34375 248.433594 193.574219 256.316406 201.488281 261.324219 C 199.601562 260.132812 196.472656 260.296875 197.011719 263.109375 C 197.898438 265.96875 200.515625 267.691406 203.214844 269.0625 C 200.667969 267.824219 196.207031 269.144531 198.394531 272.496094 C 202.226562 277.609375 210.695312 278.605469 216.28125 274.335938 Z M 216.28125 274.335938 " fill-opacity="1" fill-rule="nonzero"/><path fill="#fe6c30" d="M 209.667969 263.90625 C 210.5625 263.246094 210.96875 262.027344 210.988281 260.960938 C 211 260.289062 210.875 259.625 210.675781 258.984375 C 210.664062 258.957031 210.371094 259.089844 210.394531 259.160156 C 210.859375 260.660156 210.890625 262.496094 209.742188 263.710938 C 209.714844 263.742188 209.683594 263.773438 209.652344 263.800781 C 209.621094 263.835938 209.613281 263.839844 209.597656 263.855469 C 209.578125 263.871094 209.5625 263.882812 209.546875 263.898438 C 209.515625 263.925781 209.574219 263.878906 209.554688 263.890625 C 209.53125 263.910156 209.449219 263.960938 209.480469 263.992188 C 209.511719 264.015625 209.652344 263.917969 209.667969 263.90625 Z M 209.667969 263.90625 " fill-opacity="1" fill-rule="nonzero"/><path fill="#fe6c30" d="M 209.914062 264.933594 C 209.472656 265.230469 208.929688 265.371094 208.40625 265.480469 C 206.898438 265.785156 205.320312 265.605469 203.847656 265.195312 C 202.488281 264.820312 201.195312 264.242188 199.960938 263.5625 C 199.84375 263.5 199.8125 263.769531 199.804688 263.835938 C 199.792969 263.929688 199.757812 264.265625 199.875 264.328125 C 201.808594 265.398438 203.941406 266.257812 206.167969 266.40625 C 207.273438 266.480469 208.421875 266.378906 209.457031 265.953125 C 209.625 265.882812 209.800781 265.808594 209.953125 265.703125 C 210.070312 265.625 210.058594 265.339844 210.050781 265.21875 C 210.050781 265.164062 210.023438 264.859375 209.914062 264.933594 Z M 209.914062 264.933594 " fill-opacity="1" fill-rule="nonzero"/><path fill="#fe6c30" d="M 217.878906 262.101562 C 217.660156 263.832031 217.15625 265.5625 216.167969 267.019531 C 215.636719 267.804688 214.964844 268.515625 214.160156 269.019531 C 214.089844 269.0625 213.96875 269.132812 213.867188 269.183594 C 213.8125 269.210938 213.882812 269.175781 213.847656 269.195312 C 213.835938 269.199219 213.824219 269.207031 213.8125 269.210938 C 213.800781 269.214844 213.789062 269.21875 213.78125 269.222656 C 213.753906 269.234375 213.625 269.296875 213.648438 269.339844 C 213.675781 269.386719 213.792969 269.335938 213.824219 269.324219 C 214.304688 269.128906 214.75 268.789062 215.136719 268.449219 C 216.125 267.59375 216.855469 266.472656 217.351562 265.273438 C 217.785156 264.226562 218.042969 263.121094 218.183594 262 C 218.191406 261.925781 217.886719 262.015625 217.878906 262.101562 Z M 217.878906 262.101562 " fill-opacity="1" fill-rule="nonzero"/><path fill="#fe6c30" d="M 214.941406 271.253906 C 214.074219 271.773438 213.085938 272.121094 212.105469 272.398438 C 209.882812 273.03125 207.507812 273.140625 205.253906 272.613281 C 203.570312 272.21875 201.996094 271.46875 200.585938 270.476562 C 200.484375 270.402344 200.167969 270.78125 200.242188 270.835938 C 202.601562 272.5 205.410156 273.40625 208.308594 273.320312 C 210.183594 273.265625 212.058594 272.832031 213.777344 272.078125 C 214.113281 271.929688 214.453125 271.773438 214.773438 271.582031 C 214.867188 271.523438 214.96875 271.433594 215.015625 271.328125 C 215.050781 271.25 215.027344 271.203125 214.941406 271.253906 Z M 214.941406 271.253906 " fill-opacity="1" fill-rule="nonzero"/><path fill="#fe6c30" d="M 205.269531 258.847656 C 205.335938 257.636719 205.191406 256.371094 204.859375 255.207031 C 204.714844 254.703125 204.523438 254.210938 204.265625 253.75 C 204.183594 253.605469 204.03125 253.890625 204.09375 254 C 204.847656 255.351562 205.070312 256.988281 205.070312 258.515625 C 205.070312 258.613281 205.070312 258.710938 205.066406 258.808594 C 205.066406 258.816406 205.066406 258.863281 205.066406 258.835938 C 205.066406 258.8125 205.066406 258.847656 205.066406 258.851562 C 205.066406 258.863281 205.066406 258.871094 205.0625 258.878906 C 205.050781 259.101562 205.257812 259.019531 205.269531 258.847656 Z M 205.269531 258.847656 " fill-opacity="1" fill-rule="nonzero"/><path fill="#15130d" d="M 209.648438 264.046875 C 209.917969 263.851562 210.132812 263.566406 210.3125 263.289062 C 210.746094 262.609375 210.941406 261.808594 210.957031 261.007812 C 210.964844 260.328125 210.839844 259.648438 210.636719 259 C 210.570312 258.792969 210.386719 258.996094 210.429688 259.144531 C 210.890625 260.617188 210.914062 262.375 209.78125 263.558594 C 209.710938 263.636719 209.664062 263.683594 209.574219 263.75 C 209.46875 263.828125 209.507812 264.152344 209.648438 264.046875 Z M 209.648438 264.046875 " fill-opacity="0.35" fill-rule="nonzero"/><path fill="#15130d" d="M 209.925781 265.175781 C 209.484375 265.472656 208.910156 265.625 208.398438 265.726562 C 206.890625 266.035156 205.308594 265.851562 203.839844 265.445312 C 202.472656 265.066406 201.171875 264.488281 199.933594 263.804688 C 199.878906 263.773438 199.839844 264.054688 199.902344 264.089844 C 201.832031 265.15625 203.957031 266.007812 206.179688 266.15625 C 207.273438 266.230469 208.417969 266.132812 209.445312 265.710938 C 209.613281 265.640625 209.789062 265.566406 209.941406 265.464844 C 210.003906 265.421875 209.96875 265.144531 209.925781 265.175781 Z M 209.925781 265.175781 " fill-opacity="0.35" fill-rule="nonzero"/><path fill="#15130d" d="M 217.882812 262.113281 C 217.667969 263.839844 217.164062 265.566406 216.175781 267.019531 C 215.855469 267.488281 215.488281 267.925781 215.074219 268.3125 C 214.8125 268.554688 214.476562 268.816406 214.210938 268.980469 C 214.152344 269.015625 214.09375 269.050781 214.03125 269.085938 C 214.007812 269.101562 213.980469 269.113281 213.957031 269.128906 C 213.941406 269.136719 213.882812 269.164062 213.910156 269.152344 C 213.929688 269.140625 213.859375 269.175781 213.839844 269.183594 C 213.828125 269.191406 213.820312 269.195312 213.808594 269.199219 C 213.769531 269.214844 213.640625 269.28125 213.652344 269.339844 C 213.667969 269.398438 213.753906 269.367188 213.792969 269.351562 C 214.277344 269.152344 214.726562 268.808594 215.117188 268.46875 C 216.113281 267.597656 216.859375 266.460938 217.355469 265.238281 C 217.78125 264.199219 218.039062 263.097656 218.175781 261.984375 C 218.1875 261.90625 217.894531 262.015625 217.882812 262.113281 Z M 217.882812 262.113281 " fill-opacity="0.35" fill-rule="nonzero"/><path fill="#15130d" d="M 214.730469 271.207031 C 214.664062 271.246094 214.597656 271.28125 214.53125 271.320312 C 214.496094 271.335938 214.460938 271.355469 214.425781 271.375 C 214.375 271.398438 214.460938 271.355469 214.410156 271.382812 C 214.382812 271.394531 214.351562 271.410156 214.324219 271.421875 C 214.214844 271.476562 214.105469 271.53125 213.992188 271.582031 C 213.320312 271.890625 212.621094 272.140625 211.910156 272.34375 C 209.710938 272.964844 207.367188 273.085938 205.136719 272.5625 C 203.464844 272.167969 201.902344 271.429688 200.5 270.441406 C 200.398438 270.367188 200.265625 270.425781 200.21875 270.535156 C 200.164062 270.65625 200.222656 270.796875 200.324219 270.867188 C 202.703125 272.542969 205.53125 273.457031 208.441406 273.378906 C 210.339844 273.328125 212.238281 272.894531 213.972656 272.132812 C 214.316406 271.980469 214.664062 271.824219 214.984375 271.628906 C 215.214844 271.492188 214.976562 271.058594 214.730469 271.207031 Z M 214.730469 271.207031 " fill-opacity="0.35" fill-rule="nonzero"/><path fill="#15130d" d="M 205.273438 258.789062 C 205.335938 257.59375 205.195312 256.34375 204.863281 255.195312 C 204.71875 254.691406 204.53125 254.203125 204.273438 253.746094 C 204.222656 253.648438 204.03125 253.910156 204.082031 254.003906 C 204.839844 255.363281 205.070312 257.015625 205.070312 258.558594 C 205.070312 258.683594 205.066406 258.8125 205.0625 258.941406 C 205.058594 259.011719 205.101562 259.023438 205.15625 258.992188 C 205.21875 258.957031 205.269531 258.855469 205.273438 258.789062 Z M 205.273438 258.789062 " fill-opacity="0.35" fill-rule="nonzero"/><path fill="#fe6c30" d="M 203.378906 257.464844 C 203.820312 257.910156 204.25 258.371094 204.675781 258.828125 C 205.773438 260.007812 206.839844 261.214844 207.878906 262.445312 C 209.296875 264.117188 210.664062 265.832031 211.960938 267.601562 C 213.371094 269.519531 214.703125 271.503906 215.878906 273.574219 C 216.972656 275.507812 217.960938 277.53125 218.597656 279.660156 C 218.671875 279.902344 218.738281 280.144531 218.800781 280.386719 C 218.882812 280.699219 219.300781 280.527344 219.226562 280.25 C 218.679688 278.105469 217.761719 276.066406 216.710938 274.121094 C 215.570312 272.003906 214.253906 269.984375 212.855469 268.027344 C 211.546875 266.199219 210.160156 264.429688 208.722656 262.703125 C 207.625 261.386719 206.496094 260.09375 205.332031 258.832031 C 204.808594 258.261719 204.28125 257.679688 203.726562 257.136719 C 203.71875 257.128906 203.714844 257.121094 203.707031 257.113281 C 203.492188 256.894531 203.183594 257.269531 203.378906 257.464844 Z M 203.378906 257.464844 " fill-opacity="1" fill-rule="nonzero"/><path fill="#15130d" d="M 203.378906 257.480469 C 203.824219 257.925781 204.25 258.382812 204.679688 258.84375 C 205.769531 260.015625 206.832031 261.21875 207.871094 262.441406 C 209.289062 264.117188 210.65625 265.835938 211.953125 267.605469 C 213.363281 269.53125 214.695312 271.519531 215.875 273.59375 C 216.972656 275.527344 217.953125 277.550781 218.589844 279.683594 C 218.664062 279.925781 218.730469 280.167969 218.792969 280.410156 C 218.867188 280.707031 219.304688 280.488281 219.234375 280.222656 C 218.6875 278.082031 217.761719 276.042969 216.714844 274.101562 C 215.574219 271.992188 214.261719 269.972656 212.863281 268.023438 C 211.558594 266.195312 210.171875 264.425781 208.734375 262.703125 C 207.628906 261.382812 206.496094 260.085938 205.332031 258.820312 C 204.96875 258.425781 204.601562 258.035156 204.234375 257.648438 C 204.066406 257.472656 203.90625 257.28125 203.726562 257.121094 C 203.71875 257.113281 203.710938 257.105469 203.703125 257.097656 C 203.507812 256.902344 203.183594 257.28125 203.378906 257.480469 Z M 203.378906 257.480469 " fill-opacity="0.35" fill-rule="nonzero"/><g clip-path="url(#8daa0f8464)"><path fill="#ffae02" d="M 403.4375 174.5 C 433.445312 158.066406 414.027344 116.089844 405.90625 142.734375 C 406.761719 134.652344 405.375 122.90625 400.273438 118.894531 C 394.355469 114.238281 390.53125 121.152344 390.644531 127 C 386.953125 102.871094 368.816406 102.757812 376.078125 123.175781 C 362.636719 104.53125 355.484375 122.832031 372.667969 137.78125 C 368.570312 134.21875 360.984375 133.460938 361.242188 140.425781 C 362.328125 147.625 367.984375 152.734375 373.96875 157.019531 C 368.300781 153.101562 357.09375 154.636719 361.117188 163.496094 C 368.453125 177.207031 388.445312 182.714844 403.4375 174.5 Z M 403.4375 174.5 " fill-opacity="1" fill-rule="nonzero"/></g><g clip-path="url(#f2748031cc)"><path fill="#fe6c30" d="M 390.769531 150.382812 C 390.75 150.394531 390.730469 150.402344 390.707031 150.410156 C 390.476562 150.511719 390.847656 150.367188 390.703125 150.414062 C 390.601562 150.449219 390.5 150.484375 390.402344 150.519531 C 390.339844 150.539062 390.277344 150.558594 390.214844 150.578125 C 390.179688 150.585938 390.144531 150.597656 390.105469 150.609375 C 389.921875 150.664062 390.335938 150.550781 390.175781 150.589844 C 389.992188 150.632812 389.8125 150.683594 389.625 150.722656 C 389.527344 150.742188 389.429688 150.761719 389.332031 150.78125 C 389.175781 150.816406 389.613281 150.734375 389.378906 150.773438 C 389.320312 150.78125 389.261719 150.792969 389.203125 150.800781 C 388.945312 150.84375 388.6875 150.875 388.425781 150.902344 C 388.753906 150.867188 388.355469 150.910156 388.234375 150.917969 C 388.070312 150.929688 387.910156 150.941406 387.746094 150.945312 C 387.675781 150.949219 387.609375 150.953125 387.539062 150.957031 C 387.507812 150.957031 387.234375 150.964844 387.382812 150.960938 C 387.527344 150.957031 387.285156 150.960938 387.25 150.960938 C 387.152344 150.960938 387.054688 150.960938 386.957031 150.960938 C 386.589844 150.953125 386.21875 150.9375 385.851562 150.910156 C 385.804688 150.90625 385.757812 150.902344 385.707031 150.902344 C 385.582031 150.890625 385.820312 150.910156 385.691406 150.898438 C 385.605469 150.890625 385.519531 150.882812 385.429688 150.875 C 385.210938 150.851562 384.992188 150.824219 384.773438 150.796875 C 384.351562 150.738281 383.925781 150.667969 383.507812 150.585938 C 381.414062 150.179688 379.382812 149.464844 377.441406 148.585938 C 374.375 147.191406 371.53125 145.34375 368.867188 143.292969 C 368.5625 143.058594 367.960938 143.179688 367.621094 143.257812 C 367.523438 143.28125 366.722656 143.519531 366.984375 143.722656 C 371.335938 147.074219 376.246094 149.921875 381.65625 151.097656 C 384.546875 151.726562 387.648438 151.855469 390.539062 151.148438 C 391.105469 151.011719 391.695312 150.855469 392.226562 150.605469 C 392.550781 150.449219 392.519531 150.242188 392.164062 150.183594 C 391.726562 150.109375 391.175781 150.191406 390.769531 150.382812 Z M 390.769531 150.382812 " fill-opacity="1" fill-rule="nonzero"/></g><g clip-path="url(#2323622bfa)"><path fill="#fe6c30" d="M 400.570312 166.664062 C 398.335938 167.574219 395.863281 168.050781 393.484375 168.359375 C 388.035156 169.066406 382.417969 168.550781 377.285156 166.53125 C 373.472656 165.035156 370.054688 162.703125 367.109375 159.871094 C 366.910156 159.679688 366.589844 159.515625 366.3125 159.496094 C 366.089844 159.480469 366.007812 159.589844 366.1875 159.761719 C 371.34375 164.726562 377.890625 168.035156 385 169 C 389.660156 169.632812 394.460938 169.296875 399.007812 168.097656 C 399.882812 167.867188 400.769531 167.613281 401.609375 167.273438 C 401.824219 167.1875 401.382812 166.890625 401.324219 166.855469 C 401.140625 166.746094 400.796875 166.570312 400.570312 166.664062 Z M 400.570312 166.664062 " fill-opacity="1" fill-rule="nonzero"/></g><g clip-path="url(#c10af713a9)"><path fill="#15130d" d="M 390.769531 150.382812 C 390.75 150.394531 390.730469 150.402344 390.707031 150.410156 C 390.476562 150.511719 390.847656 150.367188 390.703125 150.414062 C 390.601562 150.449219 390.5 150.484375 390.402344 150.519531 C 390.339844 150.539062 390.277344 150.558594 390.214844 150.578125 C 390.179688 150.585938 390.140625 150.597656 390.105469 150.609375 C 389.921875 150.664062 390.335938 150.550781 390.175781 150.589844 C 389.992188 150.632812 389.8125 150.683594 389.625 150.722656 C 389.527344 150.742188 389.429688 150.761719 389.332031 150.78125 C 389.175781 150.816406 389.613281 150.734375 389.378906 150.773438 C 389.320312 150.78125 389.261719 150.792969 389.203125 150.800781 C 388.945312 150.84375 388.6875 150.875 388.425781 150.902344 C 388.753906 150.867188 388.351562 150.910156 388.234375 150.917969 C 388.070312 150.929688 387.910156 150.941406 387.746094 150.949219 C 387.675781 150.949219 387.605469 150.953125 387.539062 150.957031 C 387.507812 150.957031 387.234375 150.964844 387.382812 150.960938 C 387.527344 150.957031 387.285156 150.960938 387.25 150.960938 C 387.152344 150.960938 387.054688 150.960938 386.957031 150.960938 C 386.589844 150.953125 386.21875 150.9375 385.851562 150.910156 C 385.804688 150.90625 385.753906 150.902344 385.707031 150.902344 C 385.582031 150.890625 385.820312 150.910156 385.691406 150.898438 C 385.605469 150.890625 385.519531 150.882812 385.429688 150.875 C 385.210938 150.851562 384.992188 150.824219 384.773438 150.796875 C 384.351562 150.738281 383.925781 150.667969 383.507812 150.585938 C 381.414062 150.179688 379.382812 149.464844 377.441406 148.585938 C 374.375 147.191406 371.53125 145.347656 368.867188 143.292969 C 368.5625 143.058594 367.960938 143.179688 367.621094 143.257812 C 367.523438 143.28125 366.722656 143.519531 366.984375 143.722656 C 371.335938 147.074219 376.246094 149.921875 381.65625 151.097656 C 384.546875 151.730469 387.648438 151.855469 390.539062 151.148438 C 391.105469 151.011719 391.695312 150.855469 392.226562 150.605469 C 392.550781 150.449219 392.519531 150.242188 392.164062 150.183594 C 391.726562 150.113281 391.175781 150.191406 390.769531 150.382812 Z M 390.769531 150.382812 " fill-opacity="0.35" fill-rule="nonzero"/></g><g clip-path="url(#2cef8b62e7)"><path fill="#15130d" d="M 400.570312 166.660156 C 398.335938 167.574219 395.863281 168.050781 393.484375 168.359375 C 388.035156 169.066406 382.417969 168.550781 377.285156 166.53125 C 373.472656 165.035156 370.050781 162.703125 367.109375 159.871094 C 366.910156 159.679688 366.589844 159.515625 366.3125 159.496094 C 366.089844 159.480469 366.007812 159.589844 366.1875 159.761719 C 371.34375 164.726562 377.890625 168.03125 385 169 C 389.660156 169.632812 394.460938 169.296875 399.007812 168.097656 C 399.882812 167.863281 400.769531 167.613281 401.609375 167.273438 C 401.824219 167.183594 401.382812 166.890625 401.324219 166.855469 C 401.140625 166.742188 400.796875 166.570312 400.570312 166.660156 Z M 400.570312 166.660156 " fill-opacity="0.35" fill-rule="nonzero"/></g><g clip-path="url(#7667ab0dec)"><path fill="#ffae02" d="M 373.800781 58.328125 C 383.175781 48.359375 370.585938 34.804688 370.800781 45.945312 C 370.121094 42.761719 368.140625 38.46875 365.703125 37.574219 C 362.875 36.539062 362.277344 39.640625 363.046875 41.851562 C 358.648438 33.132812 351.738281 35.339844 357.03125 42.203125 C 349.605469 36.78125 349.15625 44.625 357.546875 48.183594 C 355.546875 47.335938 352.566406 47.988281 353.527344 50.601562 C 354.835938 53.207031 357.617188 54.449219 360.425781 55.335938 C 357.785156 54.550781 353.714844 56.523438 356.339844 59.394531 C 360.832031 63.695312 369.117188 63.3125 373.800781 58.328125 Z M 373.800781 58.328125 " fill-opacity="1" fill-rule="nonzero"/></g><path fill="#fe6c30" d="M 365.992188 50.730469 C 365.984375 50.734375 365.980469 50.742188 365.972656 50.746094 C 365.898438 50.8125 366.019531 50.710938 365.96875 50.75 C 365.9375 50.773438 365.902344 50.800781 365.867188 50.824219 C 365.847656 50.839844 365.828125 50.855469 365.804688 50.871094 C 365.792969 50.878906 365.78125 50.886719 365.769531 50.898438 C 365.703125 50.941406 365.847656 50.847656 365.792969 50.882812 C 365.726562 50.921875 365.664062 50.960938 365.597656 51 C 365.566406 51.019531 365.527344 51.039062 365.496094 51.058594 C 365.441406 51.089844 365.597656 51.003906 365.511719 51.050781 C 365.492188 51.058594 365.46875 51.070312 365.449219 51.082031 C 365.355469 51.128906 365.261719 51.171875 365.164062 51.21875 C 365.285156 51.164062 365.136719 51.226562 365.09375 51.246094 C 365.035156 51.269531 364.972656 51.296875 364.914062 51.316406 C 364.886719 51.328125 364.859375 51.335938 364.835938 51.347656 C 364.824219 51.351562 364.71875 51.386719 364.773438 51.367188 C 364.832031 51.347656 364.738281 51.378906 364.726562 51.386719 C 364.6875 51.398438 364.652344 51.410156 364.613281 51.421875 C 364.472656 51.464844 364.332031 51.503906 364.1875 51.539062 C 364.167969 51.542969 364.148438 51.546875 364.132812 51.554688 C 364.082031 51.566406 364.175781 51.542969 364.125 51.554688 C 364.089844 51.5625 364.058594 51.570312 364.023438 51.578125 C 363.9375 51.597656 363.851562 51.613281 363.761719 51.628906 C 363.59375 51.660156 363.425781 51.683594 363.253906 51.707031 C 362.410156 51.8125 361.546875 51.792969 360.699219 51.699219 C 359.363281 51.546875 358.050781 51.199219 356.78125 50.75 C 356.640625 50.695312 356.425781 50.816406 356.304688 50.890625 C 356.269531 50.910156 355.996094 51.101562 356.121094 51.144531 C 358.191406 51.878906 360.410156 52.355469 362.617188 52.132812 C 363.792969 52.011719 364.988281 51.675781 366 51.046875 C 366.199219 50.925781 366.402344 50.792969 366.574219 50.632812 C 366.679688 50.53125 366.640625 50.457031 366.5 50.480469 C 366.324219 50.507812 366.121094 50.605469 365.992188 50.730469 Z M 365.992188 50.730469 " fill-opacity="1" fill-rule="nonzero"/><g clip-path="url(#46d980ea46)"><path fill="#fe6c30" d="M 371.738281 55.703125 C 371 56.328125 370.121094 56.816406 369.253906 57.226562 C 367.269531 58.171875 365.070312 58.671875 362.867188 58.542969 C 361.230469 58.445312 359.640625 57.984375 358.171875 57.269531 C 358.070312 57.222656 357.929688 57.199219 357.820312 57.226562 C 357.734375 57.25 357.71875 57.300781 357.808594 57.34375 C 360.382812 58.589844 363.28125 59.039062 366.105469 58.523438 C 367.957031 58.1875 369.742188 57.464844 371.320312 56.445312 C 371.625 56.246094 371.933594 56.042969 372.210938 55.808594 C 372.28125 55.746094 372.074219 55.691406 372.050781 55.683594 C 371.964844 55.664062 371.8125 55.640625 371.738281 55.703125 Z M 371.738281 55.703125 " fill-opacity="1" fill-rule="nonzero"/></g><path fill="#fe6c30" d="M 360.851562 45.230469 C 360.726562 44.070312 360.386719 42.886719 359.886719 41.835938 C 359.667969 41.375 359.40625 40.933594 359.089844 40.535156 C 358.988281 40.40625 358.6875 40.523438 358.808594 40.675781 C 359.75 41.859375 360.226562 43.40625 360.46875 44.878906 C 360.488281 45 360.507812 45.121094 360.519531 45.246094 C 360.539062 45.414062 360.871094 45.398438 360.851562 45.230469 Z M 360.851562 45.230469 " fill-opacity="1" fill-rule="nonzero"/><path fill="#fe6c30" d="M 365.878906 49.398438 C 366.09375 49.175781 366.253906 48.890625 366.378906 48.609375 C 366.683594 47.917969 366.753906 47.140625 366.644531 46.394531 C 366.550781 45.75 366.324219 45.128906 366.03125 44.550781 C 365.976562 44.433594 365.660156 44.53125 365.710938 44.628906 C 366.402344 46.003906 366.710938 47.753906 365.796875 49.109375 C 365.753906 49.171875 365.707031 49.230469 365.65625 49.292969 C 365.644531 49.308594 365.632812 49.324219 365.617188 49.339844 C 365.648438 49.304688 365.628906 49.328125 365.621094 49.335938 C 365.488281 49.46875 365.800781 49.476562 365.878906 49.398438 Z M 365.878906 49.398438 " fill-opacity="1" fill-rule="nonzero"/><path fill="#15130d" d="M 365.886719 49.460938 C 366.097656 49.246094 366.25 48.957031 366.367188 48.683594 C 366.667969 47.996094 366.730469 47.226562 366.613281 46.488281 C 366.515625 45.851562 366.292969 45.246094 366.003906 44.675781 C 365.980469 44.625 365.890625 44.582031 365.84375 44.550781 C 365.828125 44.539062 365.730469 44.488281 365.738281 44.5 C 366.4375 45.894531 366.734375 47.664062 365.804688 49.027344 C 365.746094 49.113281 365.683594 49.199219 365.613281 49.273438 C 365.609375 49.277344 365.855469 49.492188 365.886719 49.460938 Z M 365.886719 49.460938 " fill-opacity="0.35" fill-rule="nonzero"/><path fill="#15130d" d="M 365.992188 50.730469 C 365.984375 50.734375 365.980469 50.742188 365.972656 50.746094 C 365.898438 50.8125 366.019531 50.710938 365.96875 50.75 C 365.9375 50.773438 365.902344 50.800781 365.867188 50.824219 C 365.847656 50.839844 365.828125 50.855469 365.804688 50.871094 C 365.792969 50.878906 365.78125 50.886719 365.769531 50.898438 C 365.703125 50.941406 365.847656 50.847656 365.792969 50.882812 C 365.726562 50.921875 365.664062 50.960938 365.597656 51 C 365.566406 51.019531 365.527344 51.039062 365.496094 51.058594 C 365.441406 51.089844 365.597656 51.003906 365.511719 51.050781 C 365.492188 51.058594 365.46875 51.070312 365.449219 51.082031 C 365.355469 51.128906 365.261719 51.171875 365.164062 51.21875 C 365.285156 51.164062 365.136719 51.226562 365.09375 51.246094 C 365.035156 51.269531 364.972656 51.296875 364.914062 51.316406 C 364.886719 51.328125 364.859375 51.335938 364.835938 51.347656 C 364.824219 51.351562 364.71875 51.386719 364.773438 51.367188 C 364.832031 51.347656 364.738281 51.378906 364.726562 51.386719 C 364.6875 51.398438 364.652344 51.410156 364.613281 51.421875 C 364.472656 51.464844 364.332031 51.503906 364.1875 51.539062 C 364.167969 51.542969 364.148438 51.546875 364.132812 51.554688 C 364.082031 51.566406 364.175781 51.542969 364.125 51.554688 C 364.089844 51.5625 364.058594 51.570312 364.023438 51.578125 C 363.9375 51.597656 363.851562 51.613281 363.761719 51.628906 C 363.59375 51.660156 363.425781 51.683594 363.253906 51.707031 C 362.410156 51.8125 361.546875 51.792969 360.699219 51.699219 C 359.363281 51.546875 358.050781 51.199219 356.78125 50.75 C 356.640625 50.699219 356.425781 50.816406 356.304688 50.890625 C 356.269531 50.910156 355.996094 51.101562 356.121094 51.144531 C 358.191406 51.878906 360.410156 52.355469 362.613281 52.132812 C 363.792969 52.011719 364.988281 51.675781 366 51.050781 C 366.199219 50.925781 366.402344 50.792969 366.574219 50.632812 C 366.679688 50.535156 366.640625 50.457031 366.5 50.480469 C 366.324219 50.507812 366.121094 50.605469 365.992188 50.730469 Z M 365.992188 50.730469 " fill-opacity="0.35" fill-rule="nonzero"/><g clip-path="url(#47b3cc352f)"><path fill="#15130d" d="M 371.738281 55.703125 C 371 56.328125 370.121094 56.816406 369.253906 57.226562 C 367.269531 58.171875 365.070312 58.671875 362.867188 58.542969 C 361.230469 58.445312 359.640625 57.984375 358.171875 57.269531 C 358.070312 57.222656 357.929688 57.199219 357.820312 57.226562 C 357.734375 57.25 357.71875 57.300781 357.804688 57.34375 C 360.382812 58.589844 363.28125 59.039062 366.105469 58.523438 C 367.957031 58.1875 369.742188 57.464844 371.320312 56.445312 C 371.625 56.246094 371.933594 56.042969 372.210938 55.808594 C 372.28125 55.746094 372.074219 55.691406 372.050781 55.683594 C 371.964844 55.664062 371.8125 55.640625 371.738281 55.703125 Z M 371.738281 55.703125 " fill-opacity="0.35" fill-rule="nonzero"/></g><path fill="#15130d" d="M 360.851562 45.242188 C 360.726562 44.101562 360.394531 42.9375 359.910156 41.902344 C 359.691406 41.4375 359.429688 40.992188 359.109375 40.585938 C 359.042969 40.5 358.726562 40.542969 358.789062 40.621094 C 359.738281 41.816406 360.222656 43.371094 360.464844 44.859375 C 360.488281 44.984375 360.507812 45.109375 360.519531 45.234375 C 360.53125 45.347656 360.863281 45.34375 360.851562 45.242188 Z M 360.851562 45.242188 " fill-opacity="0.35" fill-rule="nonzero"/><g clip-path="url(#0b0a7b229b)"><path fill="#fe6c30" d="M 359.039062 44.222656 C 359.527344 44.574219 360.007812 44.945312 360.484375 45.3125 C 361.707031 46.257812 362.90625 47.234375 364.082031 48.234375 C 365.691406 49.597656 367.257812 51.015625 368.769531 52.488281 C 370.390625 54.070312 371.949219 55.722656 373.378906 57.484375 C 374.707031 59.125 375.941406 60.875 376.871094 62.78125 C 376.976562 62.996094 377.078125 63.210938 377.171875 63.433594 C 377.234375 63.566406 377.34375 63.691406 377.445312 63.796875 C 377.46875 63.824219 377.625 63.964844 377.570312 63.847656 C 376.691406 61.847656 375.464844 60.007812 374.132812 58.28125 C 372.667969 56.386719 371.058594 54.609375 369.371094 52.914062 C 367.804688 51.339844 366.171875 49.835938 364.492188 48.382812 C 363.210938 47.273438 361.902344 46.195312 360.566406 45.148438 C 359.964844 44.679688 359.367188 44.199219 358.742188 43.761719 C 358.734375 43.757812 358.726562 43.75 358.714844 43.746094 C 358.605469 43.664062 358.726562 43.859375 358.738281 43.878906 C 358.820312 44 358.917969 44.136719 359.039062 44.222656 Z M 359.039062 44.222656 " fill-opacity="1" fill-rule="nonzero"/><path fill="#15130d" d="M 359.039062 44.222656 C 359.527344 44.574219 360.007812 44.945312 360.484375 45.3125 C 361.707031 46.257812 362.90625 47.234375 364.082031 48.234375 C 365.691406 49.597656 367.257812 51.015625 368.769531 52.488281 C 370.390625 54.070312 371.949219 55.722656 373.378906 57.484375 C 374.707031 59.125 375.941406 60.875 376.871094 62.78125 C 376.976562 62.996094 377.078125 63.210938 377.171875 63.433594 C 377.230469 63.566406 377.34375 63.691406 377.445312 63.796875 C 377.46875 63.824219 377.625 63.964844 377.570312 63.847656 C 376.691406 61.847656 375.464844 60.007812 374.132812 58.28125 C 372.667969 56.386719 371.058594 54.609375 369.371094 52.914062 C 367.804688 51.339844 366.171875 49.832031 364.492188 48.382812 C 363.210938 47.273438 361.902344 46.195312 360.566406 45.148438 C 359.964844 44.679688 359.367188 44.199219 358.742188 43.761719 C 358.734375 43.757812 358.726562 43.75 358.714844 43.746094 C 358.605469 43.664062 358.726562 43.859375 358.738281 43.878906 C 358.820312 44 358.917969 44.136719 359.039062 44.222656 Z M 359.039062 44.222656 " fill-opacity="0.35" fill-rule="nonzero"/></g></svg>