<svg xmlns="http://www.w3.org/2000/svg" xmlns:xlink="http://www.w3.org/1999/xlink" width="500" zoomAndPan="magnify" viewBox="0 0 375 374.999991" height="500" preserveAspectRatio="xMidYMid meet" version="1.0"><defs><clipPath id="00d8bd6c8c"><path d="M 25.886719 37.5 L 337.136719 37.5 L 337.136719 320.25 L 25.886719 320.25 Z M 25.886719 37.5 " clip-rule="nonzero"/></clipPath><clipPath id="47826f7f68"><path d="M 52 68 L 327 68 L 327 320.25 L 52 320.25 Z M 52 68 " clip-rule="nonzero"/></clipPath><clipPath id="f80fb13a67"><path d="M 184 37.5 L 265 37.5 L 265 77 L 184 77 Z M 184 37.5 " clip-rule="nonzero"/></clipPath><clipPath id="52e2ef7f43"><path d="M 71 37.5 L 337 37.5 L 337 320.25 L 71 320.25 Z M 71 37.5 " clip-rule="nonzero"/></clipPath><clipPath id="92d9b0d8f1"><path d="M 25.886719 47 L 337.136719 47 L 337.136719 318 L 25.886719 318 Z M 25.886719 47 " clip-rule="nonzero"/></clipPath></defs><g clip-path="url(#00d8bd6c8c)"><path fill="#aed6c9" d="M 310.050781 195.738281 L 315.941406 201.636719 L 315.941406 186.871094 C 315.941406 186.707031 315.972656 186.546875 316.035156 186.394531 C 316.097656 186.242188 316.1875 186.109375 316.304688 185.992188 C 316.421875 185.875 316.554688 185.785156 316.707031 185.722656 C 316.859375 185.660156 317.019531 185.628906 317.183594 185.628906 C 317.351562 185.628906 317.507812 185.660156 317.660156 185.722656 C 317.8125 185.785156 317.949219 185.875 318.0625 185.992188 C 318.179688 186.109375 318.269531 186.242188 318.335938 186.394531 C 318.398438 186.546875 318.429688 186.707031 318.429688 186.871094 L 318.429688 201.632812 L 324.316406 195.738281 C 324.433594 195.617188 324.566406 195.523438 324.722656 195.457031 C 324.875 195.390625 325.035156 195.359375 325.199219 195.355469 C 325.367188 195.355469 325.527344 195.386719 325.683594 195.449219 C 325.835938 195.511719 325.972656 195.601562 326.089844 195.722656 C 326.210938 195.839844 326.300781 195.976562 326.363281 196.128906 C 326.425781 196.285156 326.457031 196.445312 326.457031 196.613281 C 326.453125 196.78125 326.421875 196.941406 326.355469 197.09375 C 326.289062 197.246094 326.195312 197.382812 326.074219 197.496094 L 318.945312 204.640625 L 326.074219 211.78125 C 326.1875 211.898438 326.277344 212.03125 326.335938 212.183594 C 326.398438 212.335938 326.425781 212.492188 326.425781 212.65625 C 326.425781 212.820312 326.390625 212.976562 326.328125 213.128906 C 326.265625 213.277344 326.175781 213.410156 326.0625 213.527344 C 325.945312 213.640625 325.8125 213.730469 325.664062 213.792969 C 325.511719 213.859375 325.355469 213.890625 325.191406 213.890625 C 325.027344 213.894531 324.871094 213.863281 324.71875 213.804688 C 324.570312 213.742188 324.433594 213.65625 324.316406 213.542969 L 318.429688 207.644531 L 318.429688 221.414062 C 318.429688 221.578125 318.398438 221.738281 318.335938 221.890625 C 318.269531 222.042969 318.179688 222.179688 318.0625 222.296875 C 317.949219 222.410156 317.8125 222.5 317.660156 222.566406 C 317.507812 222.628906 317.351562 222.660156 317.183594 222.660156 C 317.019531 222.660156 316.859375 222.628906 316.707031 222.566406 C 316.554688 222.5 316.421875 222.410156 316.304688 222.296875 C 316.1875 222.179688 316.097656 222.042969 316.035156 221.890625 C 315.972656 221.738281 315.941406 221.578125 315.941406 221.414062 L 315.941406 207.648438 L 310.050781 213.542969 C 309.9375 213.660156 309.800781 213.753906 309.648438 213.816406 C 309.496094 213.878906 309.335938 213.910156 309.171875 213.914062 C 309.007812 213.914062 308.847656 213.882812 308.695312 213.816406 C 308.542969 213.753906 308.40625 213.664062 308.289062 213.546875 C 308.171875 213.429688 308.082031 213.296875 308.019531 213.144531 C 307.957031 212.988281 307.925781 212.832031 307.925781 212.664062 C 307.925781 212.5 307.957031 212.339844 308.019531 212.1875 C 308.085938 212.035156 308.175781 211.898438 308.292969 211.785156 L 315.425781 204.640625 L 308.292969 197.5 C 308.175781 197.382812 308.085938 197.25 308.023438 197.097656 C 307.957031 196.941406 307.925781 196.785156 307.925781 196.617188 C 307.925781 196.453125 307.957031 196.292969 308.019531 196.140625 C 308.085938 195.988281 308.175781 195.855469 308.292969 195.738281 C 308.410156 195.621094 308.542969 195.53125 308.695312 195.464844 C 308.847656 195.402344 309.007812 195.371094 309.171875 195.371094 C 309.335938 195.371094 309.496094 195.402344 309.648438 195.46875 C 309.800781 195.53125 309.9375 195.621094 310.050781 195.738281 Z M 289.464844 100.652344 L 299.546875 100.652344 L 299.546875 110.75 C 299.546875 110.914062 299.578125 111.074219 299.644531 111.226562 C 299.707031 111.378906 299.796875 111.511719 299.914062 111.628906 C 300.027344 111.746094 300.164062 111.835938 300.316406 111.898438 C 300.46875 111.960938 300.628906 111.992188 300.792969 111.992188 C 300.957031 111.992188 301.117188 111.960938 301.269531 111.898438 C 301.421875 111.835938 301.554688 111.746094 301.671875 111.628906 C 301.789062 111.511719 301.878906 111.378906 301.941406 111.226562 C 302.003906 111.074219 302.035156 110.914062 302.035156 110.75 L 302.035156 100.652344 L 312.121094 100.652344 C 312.285156 100.652344 312.441406 100.621094 312.59375 100.558594 C 312.746094 100.496094 312.882812 100.402344 313 100.289062 C 313.117188 100.171875 313.207031 100.035156 313.269531 99.882812 C 313.332031 99.730469 313.363281 99.570312 313.363281 99.40625 C 313.363281 99.242188 313.332031 99.082031 313.269531 98.929688 C 313.207031 98.777344 313.117188 98.644531 313 98.527344 C 312.882812 98.410156 312.746094 98.320312 312.59375 98.253906 C 312.441406 98.191406 312.285156 98.160156 312.121094 98.160156 L 302.035156 98.160156 L 302.035156 88.070312 C 302.035156 87.90625 302.003906 87.746094 301.941406 87.59375 C 301.878906 87.441406 301.789062 87.304688 301.671875 87.1875 C 301.554688 87.074219 301.421875 86.980469 301.269531 86.917969 C 301.117188 86.855469 300.957031 86.824219 300.792969 86.824219 C 300.628906 86.824219 300.46875 86.855469 300.316406 86.917969 C 300.164062 86.980469 300.027344 87.074219 299.914062 87.1875 C 299.796875 87.304688 299.707031 87.441406 299.644531 87.59375 C 299.578125 87.746094 299.546875 87.90625 299.546875 88.070312 L 299.546875 98.160156 L 289.464844 98.160156 C 289.300781 98.160156 289.140625 98.191406 288.988281 98.253906 C 288.835938 98.320312 288.703125 98.410156 288.585938 98.527344 C 288.46875 98.644531 288.378906 98.777344 288.316406 98.929688 C 288.253906 99.082031 288.222656 99.242188 288.222656 99.40625 C 288.222656 99.570312 288.253906 99.730469 288.316406 99.882812 C 288.378906 100.035156 288.46875 100.171875 288.585938 100.289062 C 288.703125 100.402344 288.835938 100.496094 288.988281 100.558594 C 289.140625 100.621094 289.300781 100.652344 289.464844 100.652344 Z M 53.3125 85.46875 L 65.867188 85.46875 L 58.75 92.59375 C 58.628906 92.710938 58.535156 92.847656 58.46875 93 C 58.40625 93.152344 58.371094 93.3125 58.371094 93.480469 C 58.367188 93.648438 58.398438 93.808594 58.460938 93.964844 C 58.527344 94.117188 58.617188 94.253906 58.734375 94.371094 C 58.851562 94.492188 58.988281 94.582031 59.140625 94.644531 C 59.296875 94.707031 59.457031 94.738281 59.625 94.738281 C 59.792969 94.734375 59.953125 94.703125 60.105469 94.636719 C 60.257812 94.570312 60.390625 94.476562 60.507812 94.355469 L 67.625 87.230469 L 67.625 99.800781 C 67.625 99.964844 67.65625 100.125 67.722656 100.277344 C 67.785156 100.429688 67.875 100.566406 67.992188 100.683594 C 68.109375 100.796875 68.242188 100.886719 68.394531 100.953125 C 68.546875 101.015625 68.707031 101.046875 68.871094 101.046875 C 69.035156 101.046875 69.195312 101.015625 69.347656 100.953125 C 69.5 100.886719 69.632812 100.796875 69.75 100.683594 C 69.867188 100.566406 69.957031 100.429688 70.019531 100.277344 C 70.082031 100.125 70.113281 99.964844 70.113281 99.800781 L 70.113281 87.230469 L 77.234375 94.355469 C 77.351562 94.46875 77.484375 94.558594 77.636719 94.617188 C 77.789062 94.679688 77.945312 94.707031 78.109375 94.707031 C 78.269531 94.707031 78.425781 94.671875 78.578125 94.609375 C 78.726562 94.546875 78.863281 94.457031 78.976562 94.339844 C 79.09375 94.226562 79.179688 94.09375 79.246094 93.941406 C 79.308594 93.792969 79.339844 93.636719 79.339844 93.472656 C 79.34375 93.308594 79.3125 93.152344 79.253906 93 C 79.191406 92.847656 79.105469 92.714844 78.992188 92.59375 L 71.875 85.46875 L 82.859375 85.46875 C 83.027344 85.46875 83.183594 85.4375 83.335938 85.375 C 83.488281 85.308594 83.625 85.21875 83.742188 85.101562 C 83.855469 84.988281 83.945312 84.851562 84.011719 84.699219 C 84.074219 84.546875 84.105469 84.386719 84.105469 84.222656 C 84.105469 84.058594 84.074219 83.898438 84.011719 83.746094 C 83.945312 83.59375 83.855469 83.457031 83.742188 83.34375 C 83.625 83.226562 83.488281 83.136719 83.335938 83.070312 C 83.183594 83.007812 83.027344 82.976562 82.859375 82.976562 L 71.875 82.976562 L 77.882812 76.960938 C 78 76.84375 78.089844 76.707031 78.152344 76.554688 C 78.21875 76.402344 78.25 76.246094 78.25 76.078125 C 78.25 75.914062 78.214844 75.753906 78.152344 75.601562 C 78.089844 75.449219 78 75.316406 77.882812 75.199219 C 77.765625 75.082031 77.632812 74.992188 77.480469 74.929688 C 77.328125 74.867188 77.167969 74.835938 77.003906 74.835938 C 76.839844 74.835938 76.679688 74.867188 76.527344 74.929688 C 76.375 74.992188 76.242188 75.082031 76.125 75.199219 L 70.113281 81.214844 L 70.113281 70.214844 C 70.113281 70.050781 70.082031 69.890625 70.019531 69.738281 C 69.957031 69.585938 69.867188 69.453125 69.75 69.335938 C 69.632812 69.21875 69.5 69.128906 69.347656 69.066406 C 69.195312 69.003906 69.035156 68.96875 68.871094 68.96875 C 68.707031 68.96875 68.546875 69.003906 68.394531 69.066406 C 68.242188 69.128906 68.109375 69.21875 67.992188 69.335938 C 67.875 69.453125 67.785156 69.585938 67.722656 69.738281 C 67.65625 69.890625 67.625 70.050781 67.625 70.214844 L 67.625 81.214844 L 61.617188 75.199219 C 61.5 75.085938 61.367188 75 61.214844 74.9375 C 61.0625 74.878906 60.90625 74.847656 60.742188 74.847656 C 60.578125 74.851562 60.421875 74.882812 60.273438 74.945312 C 60.121094 75.007812 59.988281 75.097656 59.875 75.214844 C 59.757812 75.328125 59.667969 75.460938 59.605469 75.613281 C 59.542969 75.761719 59.511719 75.921875 59.507812 76.082031 C 59.507812 76.246094 59.539062 76.40625 59.597656 76.554688 C 59.65625 76.707031 59.746094 76.84375 59.859375 76.960938 L 65.867188 82.976562 L 53.3125 82.976562 C 53.148438 82.976562 52.988281 83.007812 52.835938 83.070312 C 52.683594 83.136719 52.550781 83.226562 52.433594 83.34375 C 52.316406 83.457031 52.226562 83.59375 52.164062 83.746094 C 52.101562 83.898438 52.070312 84.058594 52.070312 84.222656 C 52.070312 84.386719 52.101562 84.546875 52.164062 84.699219 C 52.226562 84.851562 52.316406 84.988281 52.433594 85.101562 C 52.550781 85.21875 52.683594 85.308594 52.835938 85.375 C 52.988281 85.4375 53.148438 85.46875 53.3125 85.46875 Z M 74.394531 259.996094 C 74.394531 260.496094 74.296875 260.980469 74.105469 261.441406 C 73.914062 261.90625 73.640625 262.316406 73.289062 262.667969 C 72.933594 263.023438 72.523438 263.296875 72.0625 263.488281 C 71.601562 263.679688 71.117188 263.777344 70.617188 263.777344 C 70.117188 263.777344 69.636719 263.679688 69.171875 263.488281 C 68.710938 263.296875 68.300781 263.023438 67.949219 262.667969 C 67.59375 262.316406 67.320312 261.90625 67.128906 261.441406 C 66.9375 260.980469 66.84375 260.496094 66.84375 259.996094 C 66.84375 259.496094 66.9375 259.011719 67.128906 258.550781 C 67.320312 258.085938 67.59375 257.679688 67.949219 257.324219 C 68.300781 256.96875 68.710938 256.695312 69.171875 256.503906 C 69.636719 256.3125 70.117188 256.214844 70.617188 256.214844 C 71.117188 256.21875 71.601562 256.3125 72.0625 256.503906 C 72.523438 256.699219 72.933594 256.972656 73.285156 257.324219 C 73.640625 257.679688 73.914062 258.089844 74.105469 258.550781 C 74.296875 259.011719 74.394531 259.496094 74.394531 259.996094 Z M 71.90625 259.996094 C 71.90625 259.824219 71.871094 259.660156 71.808594 259.503906 C 71.742188 259.347656 71.648438 259.207031 71.527344 259.085938 C 71.40625 258.964844 71.269531 258.871094 71.109375 258.808594 C 70.953125 258.742188 70.789062 258.707031 70.617188 258.707031 C 70.445312 258.707031 70.28125 258.742188 70.125 258.808594 C 69.96875 258.871094 69.828125 258.964844 69.707031 259.085938 C 69.585938 259.207031 69.492188 259.347656 69.429688 259.503906 C 69.363281 259.664062 69.332031 259.828125 69.332031 259.996094 C 69.332031 260.167969 69.363281 260.332031 69.429688 260.492188 C 69.496094 260.648438 69.585938 260.789062 69.707031 260.910156 C 69.828125 261.03125 69.96875 261.121094 70.125 261.1875 C 70.28125 261.253906 70.449219 261.285156 70.617188 261.285156 C 70.789062 261.285156 70.953125 261.253906 71.109375 261.1875 C 71.269531 261.121094 71.40625 261.027344 71.527344 260.90625 C 71.648438 260.789062 71.742188 260.648438 71.808594 260.488281 C 71.871094 260.332031 71.90625 260.167969 71.90625 259.996094 Z M 113.109375 70.476562 C 113.109375 70.867188 113.148438 71.253906 113.226562 71.640625 C 113.300781 72.023438 113.414062 72.398438 113.566406 72.761719 C 113.714844 73.121094 113.898438 73.464844 114.117188 73.792969 C 114.332031 74.117188 114.582031 74.421875 114.859375 74.695312 C 115.132812 74.972656 115.4375 75.222656 115.761719 75.441406 C 116.085938 75.65625 116.429688 75.839844 116.792969 75.992188 C 117.152344 76.140625 117.527344 76.253906 117.910156 76.332031 C 118.296875 76.40625 118.683594 76.445312 119.074219 76.445312 L 258.984375 76.445312 C 259.699219 76.445312 260.390625 76.320312 261.0625 76.070312 C 261.730469 75.820312 262.335938 75.464844 262.878906 74.996094 C 263.417969 74.527344 263.863281 73.980469 264.207031 73.355469 C 264.550781 72.726562 264.777344 72.058594 264.882812 71.351562 C 264.988281 70.644531 264.964844 69.941406 264.816406 69.238281 C 264.667969 68.539062 264.402344 67.886719 264.019531 67.28125 C 263.640625 66.675781 263.164062 66.15625 262.59375 65.722656 C 262.027344 65.289062 261.398438 64.96875 260.714844 64.761719 C 261.328125 64.566406 261.898438 64.277344 262.421875 63.902344 C 262.941406 63.523438 263.394531 63.074219 263.773438 62.554688 C 264.15625 62.03125 264.445312 61.464844 264.644531 60.851562 C 264.84375 60.238281 264.945312 59.609375 264.945312 58.960938 L 264.945312 43.753906 C 264.945312 43.351562 264.90625 42.957031 264.828125 42.566406 C 264.75 42.171875 264.636719 41.792969 264.480469 41.421875 C 264.328125 41.054688 264.140625 40.703125 263.921875 40.371094 C 263.699219 40.039062 263.445312 39.730469 263.164062 39.449219 C 262.882812 39.164062 262.574219 38.914062 262.242188 38.691406 C 261.910156 38.46875 261.558594 38.28125 261.191406 38.128906 C 260.820312 37.976562 260.441406 37.859375 260.050781 37.78125 C 259.660156 37.703125 259.261719 37.664062 258.863281 37.664062 L 119.191406 37.664062 C 118.792969 37.664062 118.398438 37.703125 118.003906 37.78125 C 117.613281 37.859375 117.234375 37.976562 116.863281 38.128906 C 116.496094 38.28125 116.144531 38.46875 115.8125 38.691406 C 115.480469 38.914062 115.175781 39.164062 114.890625 39.449219 C 114.609375 39.730469 114.355469 40.039062 114.136719 40.371094 C 113.914062 40.703125 113.726562 41.054688 113.574219 41.421875 C 113.421875 41.792969 113.304688 42.171875 113.226562 42.566406 C 113.148438 42.957031 113.109375 43.351562 113.109375 43.753906 L 113.109375 58.960938 C 113.109375 59.609375 113.210938 60.238281 113.410156 60.851562 C 113.609375 61.464844 113.902344 62.03125 114.28125 62.554688 C 114.660156 63.074219 115.113281 63.523438 115.636719 63.902344 C 116.15625 64.277344 116.726562 64.566406 117.339844 64.761719 C 116.730469 64.949219 116.160156 65.226562 115.636719 65.59375 C 115.117188 65.964844 114.664062 66.40625 114.285156 66.917969 C 113.902344 67.433594 113.613281 67.996094 113.410156 68.601562 C 113.210938 69.210938 113.109375 69.835938 113.109375 70.476562 Z M 336.957031 252.441406 C 336.882812 252.355469 336.789062 252.304688 336.675781 252.296875 C 336.5625 252.289062 336.460938 252.320312 336.375 252.390625 L 335.964844 252.738281 C 330.957031 253.058594 326.007812 253.789062 321.121094 254.925781 C 321.101562 254.824219 321.050781 254.742188 320.96875 254.679688 C 320.886719 254.617188 320.792969 254.589844 320.691406 254.601562 C 320.578125 254.613281 320.480469 254.660156 320.40625 254.746094 C 320.332031 254.835938 320.300781 254.933594 320.308594 255.050781 L 320.316406 255.117188 C 311.84375 257.121094 301.289062 260.800781 291.664062 267.519531 C 291.628906 261.636719 290.839844 255.859375 289.292969 250.183594 C 289.398438 250.148438 289.476562 250.082031 289.527344 249.988281 C 289.578125 249.890625 289.589844 249.789062 289.5625 249.683594 C 289.535156 249.578125 289.472656 249.496094 289.378906 249.4375 C 289.285156 249.378906 289.1875 249.359375 289.078125 249.382812 C 287.921875 245.152344 286.40625 241.054688 284.53125 237.089844 L 284.65625 236.664062 C 284.691406 236.554688 284.679688 236.449219 284.625 236.347656 C 284.570312 236.246094 284.488281 236.179688 284.378906 236.144531 C 284.269531 236.113281 284.164062 236.125 284.0625 236.179688 C 283.960938 236.234375 283.894531 236.316406 283.863281 236.425781 L 283.734375 236.851562 C 283.292969 237.117188 282.578125 237.5625 281.664062 238.167969 L 281.664062 156.917969 C 281.664062 151.570312 281.261719 146.257812 280.457031 140.972656 C 279.65625 135.6875 278.460938 130.492188 276.875 125.390625 C 275.289062 120.285156 273.328125 115.332031 270.992188 110.523438 C 268.65625 105.714844 265.972656 101.113281 262.945312 96.710938 L 258.496094 90.25 C 259.070312 89.722656 259.554688 89.121094 259.953125 88.449219 C 260.347656 87.773438 260.632812 87.058594 260.8125 86.296875 C 260.988281 85.535156 261.050781 84.765625 260.996094 83.988281 C 260.941406 83.207031 260.773438 82.453125 260.492188 81.726562 C 260.210938 80.996094 259.824219 80.328125 259.339844 79.714844 C 258.855469 79.105469 258.292969 78.578125 257.648438 78.136719 C 257.003906 77.695312 256.308594 77.359375 255.5625 77.128906 C 254.816406 76.898438 254.054688 76.785156 253.273438 76.785156 L 124.78125 76.785156 C 124 76.785156 123.234375 76.898438 122.488281 77.128906 C 121.746094 77.359375 121.050781 77.691406 120.40625 78.132812 C 119.761719 78.574219 119.195312 79.101562 118.710938 79.714844 C 118.226562 80.324219 117.839844 80.996094 117.558594 81.722656 C 117.277344 82.453125 117.105469 83.207031 117.050781 83.984375 C 116.996094 84.765625 117.058594 85.535156 117.238281 86.296875 C 117.414062 87.058594 117.703125 87.773438 118.097656 88.449219 C 118.492188 89.121094 118.976562 89.722656 119.554688 90.25 L 115.105469 96.710938 C 112.289062 100.800781 109.773438 105.070312 107.558594 109.515625 C 105.34375 113.957031 103.445312 118.535156 101.871094 123.246094 C 100.300781 127.957031 99.0625 132.753906 98.160156 137.640625 C 97.261719 142.523438 96.703125 147.449219 96.496094 152.410156 C 94.570312 150.210938 92.523438 148.136719 90.351562 146.183594 C 90.425781 146.097656 90.464844 146 90.457031 145.886719 C 90.453125 145.769531 90.410156 145.675781 90.324219 145.597656 C 90.242188 145.519531 90.140625 145.484375 90.027344 145.488281 C 89.914062 145.492188 89.816406 145.539062 89.738281 145.621094 L 89.734375 145.628906 C 86.449219 142.714844 82.941406 140.105469 79.199219 137.808594 L 79.074219 137.382812 C 79.042969 137.273438 78.972656 137.191406 78.875 137.136719 C 78.773438 137.082031 78.667969 137.070312 78.558594 137.101562 C 78.449219 137.136719 78.367188 137.203125 78.3125 137.304688 C 78.257812 137.402344 78.246094 137.507812 78.277344 137.621094 L 78.40625 138.042969 C 76.53125 142.007812 75.011719 146.105469 73.855469 150.335938 C 73.75 150.3125 73.648438 150.328125 73.554688 150.386719 C 73.457031 150.445312 73.398438 150.527344 73.367188 150.632812 C 73.339844 150.742188 73.351562 150.84375 73.40625 150.941406 C 73.457031 151.035156 73.539062 151.101562 73.644531 151.136719 C 72.097656 156.8125 71.308594 162.589844 71.273438 168.472656 C 61.652344 161.753906 51.097656 158.074219 42.625 156.070312 L 42.628906 156.003906 C 42.636719 155.886719 42.605469 155.789062 42.53125 155.699219 C 42.457031 155.613281 42.363281 155.566406 42.25 155.554688 C 42.144531 155.546875 42.050781 155.570312 41.96875 155.632812 C 41.886719 155.695312 41.835938 155.777344 41.820312 155.878906 C 36.929688 154.742188 31.984375 154.011719 26.972656 153.691406 L 26.566406 153.34375 C 26.476562 153.265625 26.375 153.230469 26.257812 153.238281 C 26.140625 153.246094 26.042969 153.292969 25.96875 153.382812 C 25.894531 153.472656 25.859375 153.578125 25.875 153.695312 C 25.886719 153.8125 25.9375 153.90625 26.03125 153.980469 L 26.441406 154.324219 C 27.597656 159.207031 29.144531 163.964844 31.085938 168.589844 C 30.992188 168.628906 30.921875 168.691406 30.878906 168.78125 C 30.832031 168.871094 30.824219 168.964844 30.847656 169.0625 C 30.898438 169.273438 31.03125 169.378906 31.25 169.378906 C 31.285156 169.378906 31.324219 169.375 31.359375 169.367188 L 31.414062 169.351562 C 35.390625 178.734375 42.085938 190.558594 52.867188 199.667969 C 58.195312 204.105469 64.042969 207.699219 70.40625 210.445312 C 70.378906 210.519531 70.375 210.59375 70.394531 210.667969 C 70.445312 210.875 70.578125 210.980469 70.792969 210.980469 C 70.828125 210.980469 70.863281 210.976562 70.898438 210.96875 L 71.339844 210.855469 C 79.390625 214.226562 87.742188 216.46875 96.394531 217.582031 L 96.394531 260.378906 C 96.394531 263.769531 96.636719 267.144531 97.117188 270.5 C 97.597656 273.855469 98.316406 277.160156 99.269531 280.414062 C 100.222656 283.667969 101.398438 286.835938 102.804688 289.921875 C 104.210938 293.003906 105.828125 295.972656 107.65625 298.828125 L 114.757812 309.914062 C 115.757812 311.472656 116.933594 312.882812 118.285156 314.148438 C 119.640625 315.410156 121.128906 316.488281 122.75 317.375 C 124.375 318.265625 126.082031 318.9375 127.875 319.398438 C 129.667969 319.855469 131.488281 320.085938 133.339844 320.085938 L 244.71875 320.085938 C 246.121094 320.085938 247.507812 319.953125 248.882812 319.6875 C 250.257812 319.421875 251.59375 319.03125 252.894531 318.511719 C 254.195312 317.992188 255.4375 317.351562 256.617188 316.597656 C 257.796875 315.839844 258.894531 314.980469 259.910156 314.015625 C 260.140625 314.519531 260.332031 314.929688 260.472656 315.214844 L 260.34375 315.640625 C 260.28125 315.855469 260.351562 316.015625 260.550781 316.117188 C 260.515625 316.265625 260.484375 316.40625 260.457031 316.523438 L 260.046875 316.867188 C 259.957031 316.941406 259.902344 317.035156 259.890625 317.152344 C 259.878906 317.269531 259.910156 317.375 259.984375 317.464844 C 260.0625 317.554688 260.160156 317.601562 260.277344 317.609375 C 260.394531 317.617188 260.496094 317.582031 260.582031 317.503906 L 260.992188 317.15625 C 271.597656 316.4375 281.800781 314.015625 291.605469 309.898438 L 292.050781 310.011719 C 292.082031 310.019531 292.117188 310.023438 292.148438 310.023438 C 292.367188 310.023438 292.5 309.917969 292.550781 309.710938 C 292.570312 309.636719 292.566406 309.5625 292.539062 309.492188 C 298.902344 306.742188 304.75 303.148438 310.078125 298.710938 C 320.859375 289.601562 327.554688 277.78125 331.53125 268.398438 L 331.585938 268.410156 C 331.621094 268.421875 331.652344 268.425781 331.6875 268.425781 C 331.902344 268.425781 332.035156 268.320312 332.089844 268.109375 C 332.113281 268.011719 332.101562 267.917969 332.058594 267.828125 C 332.011719 267.738281 331.945312 267.675781 331.851562 267.636719 C 333.792969 263.007812 335.339844 258.253906 336.496094 253.371094 L 336.90625 253.027344 C 336.992188 252.953125 337.042969 252.859375 337.050781 252.742188 C 337.0625 252.628906 337.027344 252.527344 336.957031 252.441406 Z M 336.957031 252.441406 " fill-opacity="1" fill-rule="nonzero"/></g><g clip-path="url(#47826f7f68)"><path fill="#aed6c9" d="M 70.617188 256.214844 C 70.117188 256.214844 69.636719 256.3125 69.171875 256.503906 C 68.710938 256.695312 68.300781 256.96875 67.949219 257.324219 C 67.59375 257.679688 67.320312 258.085938 67.128906 258.550781 C 66.9375 259.011719 66.839844 259.496094 66.839844 259.996094 C 66.839844 260.5 66.9375 260.980469 67.128906 261.445312 C 67.320312 261.90625 67.59375 262.316406 67.945312 262.671875 C 68.300781 263.027344 68.710938 263.296875 69.171875 263.492188 C 69.636719 263.683594 70.117188 263.777344 70.617188 263.777344 C 71.117188 263.777344 71.601562 263.683594 72.0625 263.492188 C 72.523438 263.296875 72.933594 263.023438 73.289062 262.671875 C 73.640625 262.316406 73.914062 261.90625 74.105469 261.445312 C 74.296875 260.980469 74.394531 260.5 74.394531 259.996094 C 74.394531 259.496094 74.296875 259.011719 74.105469 258.550781 C 73.914062 258.089844 73.640625 257.679688 73.285156 257.324219 C 72.933594 256.972656 72.523438 256.699219 72.0625 256.503906 C 71.601562 256.3125 71.117188 256.21875 70.617188 256.214844 Z M 70.617188 261.28125 C 70.445312 261.28125 70.28125 261.25 70.125 261.183594 C 69.96875 261.117188 69.828125 261.027344 69.707031 260.90625 C 69.585938 260.785156 69.492188 260.644531 69.425781 260.488281 C 69.363281 260.328125 69.328125 260.164062 69.328125 259.992188 C 69.328125 259.820312 69.363281 259.65625 69.425781 259.5 C 69.492188 259.339844 69.585938 259.203125 69.707031 259.082031 C 69.828125 258.960938 69.964844 258.867188 70.125 258.800781 C 70.28125 258.734375 70.445312 258.703125 70.617188 258.703125 C 70.789062 258.703125 70.953125 258.734375 71.109375 258.800781 C 71.269531 258.867188 71.40625 258.960938 71.527344 259.082031 C 71.648438 259.203125 71.742188 259.339844 71.808594 259.5 C 71.871094 259.65625 71.90625 259.820312 71.90625 259.992188 C 71.90625 260.164062 71.875 260.328125 71.808594 260.488281 C 71.742188 260.644531 71.652344 260.785156 71.53125 260.90625 C 71.410156 261.027344 71.269531 261.121094 71.113281 261.1875 C 70.953125 261.253906 70.789062 261.285156 70.617188 261.285156 Z M 84.105469 84.222656 C 84.105469 84.386719 84.074219 84.546875 84.011719 84.699219 C 83.945312 84.851562 83.855469 84.988281 83.742188 85.101562 C 83.625 85.21875 83.488281 85.308594 83.335938 85.375 C 83.183594 85.4375 83.027344 85.46875 82.859375 85.46875 L 71.875 85.46875 L 78.992188 92.59375 C 79.113281 92.710938 79.203125 92.847656 79.269531 93 C 79.335938 93.152344 79.371094 93.3125 79.371094 93.480469 C 79.371094 93.648438 79.34375 93.808594 79.277344 93.964844 C 79.214844 94.117188 79.125 94.253906 79.007812 94.371094 C 78.890625 94.492188 78.753906 94.582031 78.597656 94.644531 C 78.445312 94.707031 78.285156 94.738281 78.117188 94.738281 C 77.949219 94.734375 77.789062 94.703125 77.636719 94.636719 C 77.484375 94.570312 77.347656 94.476562 77.234375 94.355469 L 70.113281 87.230469 L 70.113281 99.800781 C 70.113281 99.964844 70.082031 100.125 70.019531 100.277344 C 69.957031 100.429688 69.867188 100.566406 69.75 100.683594 C 69.632812 100.796875 69.5 100.886719 69.347656 100.953125 C 69.195312 101.015625 69.035156 101.046875 68.871094 101.046875 C 68.707031 101.046875 68.546875 101.015625 68.394531 100.953125 C 68.242188 100.886719 68.109375 100.796875 67.992188 100.683594 C 67.875 100.566406 67.785156 100.429688 67.722656 100.277344 C 67.65625 100.125 67.625 99.964844 67.625 99.800781 L 67.625 87.230469 L 60.507812 94.355469 C 60.390625 94.46875 60.257812 94.558594 60.105469 94.617188 C 59.953125 94.679688 59.796875 94.707031 59.632812 94.707031 C 59.46875 94.707031 59.3125 94.671875 59.164062 94.609375 C 59.011719 94.546875 58.878906 94.457031 58.765625 94.339844 C 58.648438 94.226562 58.558594 94.09375 58.496094 93.941406 C 58.433594 93.792969 58.402344 93.636719 58.398438 93.472656 C 58.398438 93.308594 58.429688 93.152344 58.488281 93 C 58.550781 92.847656 58.636719 92.714844 58.75 92.59375 L 65.867188 85.46875 L 53.3125 85.46875 C 53.148438 85.46875 52.988281 85.4375 52.835938 85.375 C 52.683594 85.308594 52.550781 85.21875 52.433594 85.101562 C 52.316406 84.988281 52.226562 84.851562 52.164062 84.699219 C 52.101562 84.546875 52.070312 84.386719 52.070312 84.222656 C 52.070312 84.058594 52.101562 83.898438 52.164062 83.746094 C 52.226562 83.59375 52.316406 83.457031 52.433594 83.34375 C 52.550781 83.226562 52.683594 83.136719 52.835938 83.070312 C 52.988281 83.007812 53.148438 82.976562 53.3125 82.976562 L 65.867188 82.976562 L 59.859375 76.960938 C 59.746094 76.84375 59.65625 76.707031 59.597656 76.554688 C 59.539062 76.40625 59.507812 76.246094 59.507812 76.082031 C 59.511719 75.921875 59.542969 75.761719 59.605469 75.613281 C 59.667969 75.460938 59.757812 75.328125 59.875 75.214844 C 59.988281 75.097656 60.121094 75.007812 60.273438 74.945312 C 60.421875 74.882812 60.578125 74.851562 60.742188 74.847656 C 60.90625 74.847656 61.0625 74.878906 61.214844 74.9375 C 61.367188 75 61.5 75.085938 61.617188 75.199219 L 67.625 81.214844 L 67.625 70.214844 C 67.625 70.050781 67.65625 69.890625 67.722656 69.738281 C 67.785156 69.585938 67.875 69.453125 67.992188 69.335938 C 68.109375 69.21875 68.242188 69.128906 68.394531 69.066406 C 68.546875 69.003906 68.707031 68.96875 68.871094 68.96875 C 69.035156 68.96875 69.195312 69.003906 69.347656 69.066406 C 69.5 69.128906 69.632812 69.21875 69.75 69.335938 C 69.867188 69.453125 69.957031 69.585938 70.019531 69.738281 C 70.082031 69.890625 70.113281 70.050781 70.113281 70.214844 L 70.113281 81.214844 L 76.125 75.199219 C 76.242188 75.082031 76.375 74.992188 76.527344 74.929688 C 76.679688 74.867188 76.839844 74.835938 77.003906 74.835938 C 77.167969 74.835938 77.328125 74.867188 77.480469 74.929688 C 77.632812 74.992188 77.765625 75.082031 77.882812 75.199219 C 78 75.316406 78.089844 75.449219 78.152344 75.601562 C 78.214844 75.753906 78.25 75.914062 78.25 76.078125 C 78.25 76.246094 78.21875 76.402344 78.152344 76.554688 C 78.089844 76.707031 78 76.84375 77.882812 76.960938 L 71.875 82.976562 L 82.859375 82.976562 C 83.027344 82.976562 83.183594 83.007812 83.335938 83.070312 C 83.488281 83.136719 83.625 83.226562 83.742188 83.34375 C 83.855469 83.457031 83.945312 83.59375 84.011719 83.746094 C 84.074219 83.898438 84.105469 84.058594 84.105469 84.222656 Z M 312.117188 100.652344 L 302.035156 100.652344 L 302.035156 110.75 C 302.035156 110.914062 302.003906 111.074219 301.941406 111.226562 C 301.878906 111.378906 301.789062 111.511719 301.671875 111.628906 C 301.554688 111.746094 301.421875 111.835938 301.269531 111.898438 C 301.117188 111.960938 300.957031 111.992188 300.792969 111.992188 C 300.628906 111.992188 300.46875 111.960938 300.316406 111.898438 C 300.164062 111.835938 300.027344 111.746094 299.914062 111.628906 C 299.796875 111.511719 299.707031 111.378906 299.644531 111.226562 C 299.578125 111.074219 299.546875 110.914062 299.546875 110.75 L 299.546875 100.652344 L 289.464844 100.652344 C 289.300781 100.652344 289.140625 100.621094 288.988281 100.558594 C 288.835938 100.496094 288.703125 100.402344 288.585938 100.289062 C 288.46875 100.171875 288.378906 100.035156 288.316406 99.882812 C 288.253906 99.730469 288.222656 99.570312 288.222656 99.40625 C 288.222656 99.242188 288.253906 99.082031 288.316406 98.929688 C 288.378906 98.777344 288.46875 98.644531 288.585938 98.527344 C 288.703125 98.410156 288.835938 98.320312 288.988281 98.253906 C 289.140625 98.191406 289.300781 98.160156 289.464844 98.160156 L 299.546875 98.160156 L 299.546875 88.070312 C 299.546875 87.90625 299.578125 87.746094 299.644531 87.59375 C 299.707031 87.441406 299.796875 87.304688 299.914062 87.1875 C 300.027344 87.074219 300.164062 86.980469 300.316406 86.917969 C 300.46875 86.855469 300.628906 86.824219 300.792969 86.824219 C 300.957031 86.824219 301.117188 86.855469 301.269531 86.917969 C 301.421875 86.980469 301.554688 87.074219 301.671875 87.1875 C 301.789062 87.304688 301.878906 87.441406 301.941406 87.59375 C 302.003906 87.746094 302.035156 87.90625 302.035156 88.070312 L 302.035156 98.160156 L 312.121094 98.160156 C 312.285156 98.160156 312.441406 98.191406 312.59375 98.253906 C 312.746094 98.320312 312.882812 98.410156 313 98.527344 C 313.117188 98.644531 313.207031 98.777344 313.269531 98.929688 C 313.332031 99.082031 313.363281 99.242188 313.363281 99.40625 C 313.363281 99.570312 313.332031 99.730469 313.269531 99.882812 C 313.207031 100.035156 313.117188 100.171875 313 100.289062 C 312.882812 100.402344 312.746094 100.496094 312.59375 100.558594 C 312.441406 100.621094 312.285156 100.652344 312.121094 100.652344 Z M 326.070312 211.777344 C 326.183594 211.894531 326.269531 212.03125 326.332031 212.183594 C 326.390625 212.332031 326.421875 212.492188 326.417969 212.65625 C 326.417969 212.816406 326.386719 212.976562 326.324219 213.125 C 326.257812 213.277344 326.171875 213.410156 326.054688 213.523438 C 325.941406 213.640625 325.808594 213.730469 325.65625 213.792969 C 325.507812 213.855469 325.347656 213.886719 325.1875 213.890625 C 325.023438 213.890625 324.867188 213.859375 324.714844 213.800781 C 324.5625 213.738281 324.429688 213.652344 324.3125 213.539062 L 318.421875 207.644531 L 318.421875 221.410156 C 318.421875 221.578125 318.390625 221.734375 318.328125 221.886719 C 318.265625 222.042969 318.175781 222.175781 318.058594 222.292969 C 317.941406 222.410156 317.808594 222.5 317.65625 222.5625 C 317.503906 222.625 317.34375 222.65625 317.179688 222.65625 C 317.015625 222.65625 316.855469 222.625 316.703125 222.5625 C 316.550781 222.5 316.414062 222.410156 316.300781 222.292969 C 316.183594 222.175781 316.09375 222.042969 316.03125 221.886719 C 315.964844 221.734375 315.933594 221.578125 315.933594 221.410156 L 315.933594 207.648438 L 310.046875 213.542969 C 309.929688 213.660156 309.796875 213.753906 309.644531 213.816406 C 309.492188 213.878906 309.332031 213.910156 309.167969 213.914062 C 309 213.914062 308.84375 213.882812 308.6875 213.816406 C 308.535156 213.753906 308.402344 213.664062 308.285156 213.546875 C 308.167969 213.429688 308.078125 213.296875 308.015625 213.144531 C 307.953125 212.988281 307.917969 212.832031 307.921875 212.664062 C 307.921875 212.5 307.953125 212.339844 308.015625 212.1875 C 308.078125 212.035156 308.167969 211.898438 308.285156 211.785156 L 315.417969 204.640625 L 308.285156 197.5 C 308.167969 197.382812 308.078125 197.25 308.015625 197.097656 C 307.953125 196.941406 307.921875 196.785156 307.921875 196.617188 C 307.921875 196.453125 307.953125 196.292969 308.015625 196.140625 C 308.078125 195.988281 308.167969 195.855469 308.285156 195.738281 C 308.402344 195.621094 308.539062 195.53125 308.691406 195.464844 C 308.84375 195.402344 309 195.371094 309.167969 195.371094 C 309.332031 195.371094 309.492188 195.402344 309.644531 195.46875 C 309.796875 195.53125 309.929688 195.621094 310.046875 195.738281 L 315.933594 201.636719 L 315.933594 186.871094 C 315.933594 186.707031 315.964844 186.546875 316.03125 186.394531 C 316.09375 186.242188 316.183594 186.109375 316.300781 185.992188 C 316.414062 185.875 316.550781 185.785156 316.703125 185.722656 C 316.855469 185.660156 317.015625 185.628906 317.179688 185.628906 C 317.34375 185.628906 317.503906 185.660156 317.65625 185.722656 C 317.808594 185.785156 317.941406 185.875 318.058594 185.992188 C 318.175781 186.109375 318.265625 186.242188 318.328125 186.394531 C 318.390625 186.546875 318.421875 186.707031 318.421875 186.871094 L 318.421875 201.632812 L 324.3125 195.738281 C 324.425781 195.617188 324.5625 195.523438 324.714844 195.457031 C 324.867188 195.390625 325.027344 195.359375 325.195312 195.355469 C 325.363281 195.355469 325.523438 195.386719 325.675781 195.449219 C 325.832031 195.511719 325.96875 195.601562 326.085938 195.722656 C 326.203125 195.839844 326.292969 195.976562 326.355469 196.128906 C 326.421875 196.285156 326.453125 196.445312 326.449219 196.613281 C 326.449219 196.78125 326.414062 196.941406 326.347656 197.09375 C 326.28125 197.246094 326.191406 197.382812 326.070312 197.496094 L 318.9375 204.640625 Z M 117.039062 84.535156 C 117.039062 85.621094 117.257812 86.664062 117.695312 87.65625 C 118.132812 88.652344 118.753906 89.515625 119.558594 90.246094 L 115.109375 96.710938 C 112.292969 100.800781 109.777344 105.066406 107.5625 109.511719 C 105.34375 113.957031 103.449219 118.535156 101.875 123.246094 C 100.300781 127.957031 99.0625 132.753906 98.160156 137.640625 C 97.261719 142.523438 96.703125 147.449219 96.496094 152.410156 C 96.429688 153.910156 96.390625 155.410156 96.390625 156.917969 L 96.390625 260.378906 C 96.390625 263.769531 96.632812 267.144531 97.113281 270.5 C 97.59375 273.855469 98.3125 277.160156 99.265625 280.414062 C 100.21875 283.667969 101.394531 286.835938 102.800781 289.921875 C 104.207031 293.003906 105.824219 295.972656 107.652344 298.828125 L 114.753906 309.914062 C 115.753906 311.472656 116.929688 312.882812 118.285156 314.148438 C 119.636719 315.410156 121.125 316.488281 122.75 317.375 C 124.371094 318.265625 126.082031 318.9375 127.875 319.398438 C 129.667969 319.855469 131.488281 320.085938 133.339844 320.085938 L 184.152344 320.085938 L 184.152344 312.613281 L 133.339844 312.613281 C 132.113281 312.613281 130.90625 312.464844 129.71875 312.164062 C 128.53125 311.859375 127.398438 311.414062 126.324219 310.828125 C 125.25 310.238281 124.265625 309.527344 123.367188 308.6875 C 122.472656 307.851562 121.695312 306.914062 121.035156 305.878906 L 113.933594 294.796875 C 110.640625 289.660156 108.136719 284.167969 106.421875 278.3125 C 104.707031 272.457031 103.851562 266.480469 103.855469 260.378906 L 103.855469 156.917969 C 103.847656 151.945312 104.21875 147.003906 104.960938 142.089844 C 105.703125 137.179688 106.8125 132.347656 108.289062 127.605469 C 109.765625 122.859375 111.589844 118.253906 113.761719 113.785156 C 115.9375 109.316406 118.4375 105.039062 121.257812 100.953125 L 129.398438 89.128906 L 125.65625 85.699219 C 125.480469 85.542969 125.386719 85.351562 125.371094 85.117188 C 125.359375 84.886719 125.433594 84.683594 125.589844 84.511719 C 125.746094 84.339844 125.941406 84.25 126.175781 84.242188 C 126.40625 84.234375 126.605469 84.3125 126.773438 84.472656 L 131.050781 88.394531 C 131.203125 88.535156 131.289062 88.707031 131.3125 88.910156 C 131.335938 89.117188 131.289062 89.304688 131.171875 89.472656 L 122.621094 101.894531 C 119.84375 105.914062 117.390625 110.117188 115.253906 114.511719 C 113.113281 118.902344 111.320312 123.433594 109.871094 128.097656 C 108.421875 132.761719 107.328125 137.511719 106.597656 142.339844 C 105.871094 147.171875 105.507812 152.03125 105.515625 156.917969 L 105.515625 260.378906 C 105.511719 266.320312 106.34375 272.144531 108.011719 277.84375 C 109.683594 283.546875 112.121094 288.898438 115.328125 293.898438 L 122.433594 304.980469 C 123.019531 305.898438 123.707031 306.730469 124.5 307.472656 C 125.292969 308.214844 126.167969 308.847656 127.121094 309.367188 C 128.074219 309.890625 129.078125 310.285156 130.128906 310.554688 C 131.183594 310.820312 132.253906 310.953125 133.339844 310.949219 L 184.152344 310.949219 L 184.152344 76.78125 L 124.78125 76.78125 C 124.269531 76.78125 123.769531 76.832031 123.269531 76.933594 C 122.769531 77.03125 122.285156 77.179688 121.816406 77.371094 C 121.347656 77.566406 120.902344 77.804688 120.476562 78.089844 C 120.054688 78.371094 119.664062 78.691406 119.304688 79.054688 C 118.945312 79.414062 118.625 79.804688 118.34375 80.226562 C 118.058594 80.652344 117.820312 81.097656 117.625 81.566406 C 117.433594 82.039062 117.285156 82.523438 117.1875 83.023438 C 117.085938 83.523438 117.039062 84.027344 117.039062 84.535156 Z M 141.882812 87.082031 C 142.074219 87.210938 142.1875 87.390625 142.230469 87.613281 C 142.269531 87.839844 142.226562 88.046875 142.097656 88.238281 L 129.449219 106.609375 C 126.910156 110.28125 124.664062 114.128906 122.710938 118.144531 C 120.757812 122.160156 119.117188 126.300781 117.789062 130.566406 C 116.464844 134.832031 115.46875 139.171875 114.800781 143.589844 C 114.132812 148.007812 113.800781 152.449219 113.808594 156.917969 L 113.808594 260.378906 C 113.804688 265.527344 114.527344 270.570312 115.972656 275.507812 C 117.417969 280.449219 119.53125 285.082031 122.308594 289.414062 L 129.414062 300.496094 C 129.839844 301.167969 130.402344 301.695312 131.101562 302.078125 C 131.796875 302.457031 132.542969 302.648438 133.339844 302.644531 L 176.347656 302.644531 C 176.578125 302.644531 176.773438 302.726562 176.9375 302.890625 C 177.097656 303.050781 177.179688 303.246094 177.179688 303.476562 C 177.179688 303.707031 177.097656 303.902344 176.9375 304.0625 C 176.773438 304.226562 176.578125 304.308594 176.347656 304.308594 L 133.339844 304.308594 C 132.261719 304.308594 131.25 304.050781 130.304688 303.535156 C 129.359375 303.015625 128.597656 302.304688 128.015625 301.394531 L 120.914062 290.3125 C 118.050781 285.847656 115.871094 281.066406 114.378906 275.976562 C 112.890625 270.882812 112.144531 265.6875 112.148438 260.378906 L 112.148438 156.917969 C 112.140625 152.367188 112.480469 147.839844 113.160156 143.339844 C 113.839844 138.839844 114.855469 134.417969 116.207031 130.074219 C 117.558594 125.726562 119.226562 121.507812 121.21875 117.417969 C 123.210938 113.324219 125.496094 109.410156 128.082031 105.664062 L 140.730469 87.292969 C 140.859375 87.105469 141.039062 86.992188 141.261719 86.949219 C 141.488281 86.90625 141.695312 86.953125 141.882812 87.082031 Z M 141.882812 87.082031 " fill-opacity="1" fill-rule="nonzero"/></g><g clip-path="url(#f80fb13a67)"><path fill="#227a89" d="M 260.710938 64.761719 C 261.398438 64.96875 262.023438 65.289062 262.59375 65.722656 C 263.160156 66.15625 263.636719 66.675781 264.019531 67.28125 C 264.402344 67.886719 264.667969 68.539062 264.8125 69.238281 C 264.960938 69.941406 264.984375 70.644531 264.878906 71.351562 C 264.773438 72.058594 264.550781 72.726562 264.203125 73.355469 C 263.859375 73.980469 263.417969 74.527344 262.875 74.996094 C 262.335938 75.464844 261.730469 75.820312 261.058594 76.070312 C 260.386719 76.320312 259.695312 76.445312 258.980469 76.445312 L 184.152344 76.445312 L 184.152344 49.058594 L 256.867188 49.058594 C 257.097656 49.058594 257.292969 48.976562 257.457031 48.816406 C 257.617188 48.652344 257.699219 48.457031 257.699219 48.230469 C 257.699219 48 257.617188 47.804688 257.457031 47.640625 C 257.292969 47.480469 257.097656 47.398438 256.867188 47.398438 L 184.152344 47.398438 L 184.152344 37.664062 L 258.863281 37.664062 C 259.261719 37.664062 259.660156 37.703125 260.050781 37.78125 C 260.441406 37.859375 260.820312 37.976562 261.191406 38.128906 C 261.558594 38.28125 261.910156 38.46875 262.242188 38.691406 C 262.574219 38.914062 262.882812 39.164062 263.164062 39.449219 C 263.445312 39.730469 263.699219 40.039062 263.921875 40.371094 C 264.140625 40.703125 264.328125 41.054688 264.480469 41.421875 C 264.632812 41.792969 264.75 42.171875 264.828125 42.566406 C 264.90625 42.957031 264.945312 43.351562 264.945312 43.753906 L 264.945312 58.960938 C 264.945312 59.605469 264.84375 60.238281 264.644531 60.851562 C 264.445312 61.464844 264.152344 62.03125 263.773438 62.554688 C 263.394531 63.074219 262.941406 63.523438 262.417969 63.902344 C 261.894531 64.277344 261.328125 64.566406 260.710938 64.761719 Z M 260.710938 64.761719 " fill-opacity="1" fill-rule="nonzero"/></g><g clip-path="url(#52e2ef7f43)"><path fill="#76b5a5" d="M 82.71875 152.566406 L 73.859375 150.335938 C 75.015625 146.105469 76.53125 142.007812 78.40625 138.046875 Z M 95.410156 192.390625 L 96.390625 191.332031 L 96.390625 180.132812 L 92.894531 183.917969 Z M 89.730469 145.628906 C 86.449219 142.710938 82.9375 140.105469 79.199219 137.804688 L 83.523438 152.347656 Z M 90.347656 146.179688 L 83.796875 153.273438 L 86.601562 162.722656 L 95.53125 153.058594 C 95.609375 152.972656 95.707031 152.929688 95.820312 152.921875 C 95.933594 152.917969 96.035156 152.953125 96.117188 153.03125 C 96.203125 153.109375 96.246094 153.207031 96.25 153.324219 C 96.257812 153.4375 96.21875 153.539062 96.140625 153.621094 L 86.875 163.648438 L 89.632812 172.933594 L 96.390625 165.617188 L 96.390625 156.917969 C 96.390625 155.410156 96.429688 153.910156 96.496094 152.410156 C 94.570312 150.210938 92.523438 148.132812 90.351562 146.179688 Z M 96.390625 195.691406 L 96.390625 192.550781 L 95.683594 193.3125 Z M 92.917969 193.035156 L 89.910156 192.285156 L 89.09375 192.082031 L 81.101562 190.066406 L 80.285156 189.863281 L 75.890625 188.753906 C 75.777344 188.726562 75.691406 188.664062 75.632812 188.566406 C 75.574219 188.46875 75.558594 188.363281 75.585938 188.25 C 75.617188 188.140625 75.679688 188.054688 75.777344 187.996094 C 75.875 187.9375 75.980469 187.921875 76.089844 187.949219 L 80.355469 189.023438 L 81.167969 189.226562 L 89.164062 191.242188 L 89.976562 191.445312 L 92.351562 192.042969 L 94.617188 192.613281 L 92.097656 184.136719 L 86.046875 182.613281 L 81.773438 181.539062 L 80.960938 181.332031 L 73.101562 179.355469 C 72.988281 179.324219 72.90625 179.261719 72.847656 179.164062 C 72.785156 179.066406 72.773438 178.960938 72.800781 178.851562 C 72.828125 178.738281 72.890625 178.652344 72.988281 178.59375 C 73.085938 178.535156 73.191406 178.519531 73.304688 178.546875 L 81.023438 180.492188 L 81.839844 180.699219 L 85.199219 181.542969 L 91.828125 183.210938 L 89.117188 174.078125 L 73.617188 170.175781 L 72.710938 169.949219 C 72.597656 169.921875 72.511719 169.855469 72.453125 169.757812 C 72.394531 169.660156 72.378906 169.554688 72.410156 169.441406 C 72.421875 169.398438 72.441406 169.359375 72.464844 169.320312 C 72.574219 169.15625 72.722656 169.097656 72.910156 169.140625 L 88.835938 173.148438 L 86.078125 163.867188 L 72.886719 160.542969 C 72.773438 160.515625 72.6875 160.453125 72.628906 160.355469 C 72.570312 160.253906 72.554688 160.152344 72.582031 160.039062 C 72.613281 159.929688 72.675781 159.84375 72.773438 159.785156 C 72.871094 159.726562 72.976562 159.710938 73.085938 159.738281 L 85.804688 162.9375 L 83 153.492188 L 73.65625 151.140625 L 73.644531 151.136719 C 72.097656 156.8125 71.308594 162.589844 71.273438 168.472656 C 71.273438 170.8125 71.433594 173.140625 71.75 175.457031 C 71.902344 176.554688 72.089844 177.652344 72.324219 178.75 C 72.574219 179.914062 72.851562 181.074219 73.195312 182.238281 C 74.691406 187.132812 76.894531 191.683594 79.804688 195.886719 C 80.054688 196.253906 80.300781 196.617188 80.550781 196.96875 C 80.667969 197.128906 80.789062 197.285156 80.90625 197.445312 C 81.011719 197.34375 81.140625 197.308594 81.285156 197.34375 L 88.53125 199.171875 L 89.347656 199.375 L 96.390625 201.148438 L 96.390625 198.609375 L 94.882812 193.535156 Z M 92.621094 182.984375 L 96.390625 178.902344 L 96.390625 166.839844 L 89.910156 173.859375 Z M 88.472656 200.007812 L 81.507812 198.253906 C 82.863281 200.046875 84.308594 201.769531 85.84375 203.414062 C 86.570312 204.195312 87.300781 204.949219 88.03125 205.667969 C 88.265625 205.902344 88.5 206.132812 88.734375 206.355469 C 91.152344 208.675781 93.707031 210.835938 96.398438 212.832031 L 96.398438 202 L 89.289062 200.210938 Z M 253.179688 288.675781 C 253.101562 288.589844 253.0625 288.492188 253.070312 288.375 C 253.074219 288.261719 253.117188 288.164062 253.203125 288.085938 C 253.265625 288.03125 253.339844 288 253.425781 287.988281 C 253.234375 284.550781 253.367188 281.128906 253.832031 277.714844 C 253.816406 277.628906 253.828125 277.550781 253.863281 277.472656 C 254.175781 275.285156 254.640625 273.136719 255.265625 271.019531 C 257.222656 264.71875 260.28125 259.011719 264.433594 253.890625 C 264.230469 253.726562 264.125 253.515625 264.121094 253.257812 L 264.121094 170.234375 C 264.109375 160.984375 263.082031 151.847656 261.046875 142.820312 C 259.007812 133.796875 256.007812 125.105469 252.046875 116.75 L 243.96875 99.765625 C 243.867188 99.554688 243.855469 99.34375 243.933594 99.128906 C 244.007812 98.910156 244.152344 98.753906 244.359375 98.652344 C 244.566406 98.554688 244.777344 98.542969 244.996094 98.621094 C 245.210938 98.699219 245.367188 98.84375 245.464844 99.050781 L 253.542969 116.035156 C 257.558594 124.503906 260.597656 133.3125 262.660156 142.457031 C 264.722656 151.601562 265.761719 160.859375 265.773438 170.234375 L 265.773438 252.242188 C 267.890625 249.75 270.160156 247.414062 272.589844 245.230469 C 272.515625 245.144531 272.484375 245.046875 272.492188 244.9375 C 272.496094 244.824219 272.542969 244.730469 272.625 244.65625 C 272.707031 244.582031 272.804688 244.542969 272.914062 244.546875 C 273.027344 244.550781 273.121094 244.589844 273.199219 244.667969 L 273.207031 244.679688 C 275.878906 242.316406 278.699219 240.148438 281.667969 238.171875 L 281.667969 156.917969 C 281.667969 151.570312 281.265625 146.257812 280.460938 140.972656 C 279.660156 135.6875 278.464844 130.492188 276.878906 125.390625 C 275.292969 120.285156 273.332031 115.332031 270.996094 110.523438 C 268.660156 105.714844 265.980469 101.113281 262.949219 96.710938 L 258.5 90.25 C 259.074219 89.722656 259.558594 89.121094 259.957031 88.449219 C 260.351562 87.773438 260.636719 87.058594 260.816406 86.296875 C 260.992188 85.535156 261.054688 84.765625 261 83.988281 C 260.945312 83.207031 260.777344 82.453125 260.496094 81.726562 C 260.214844 80.996094 259.828125 80.328125 259.34375 79.714844 C 258.859375 79.105469 258.296875 78.578125 257.652344 78.136719 C 257.007812 77.695312 256.3125 77.359375 255.566406 77.128906 C 254.820312 76.898438 254.058594 76.785156 253.277344 76.785156 L 184.152344 76.785156 L 184.152344 310.953125 L 244.71875 310.953125 C 244.945312 310.953125 245.144531 311.03125 245.304688 311.195312 C 245.464844 311.355469 245.546875 311.550781 245.546875 311.78125 C 245.546875 312.011719 245.464844 312.207031 245.304688 312.367188 C 245.144531 312.53125 244.945312 312.613281 244.71875 312.613281 L 184.152344 312.613281 L 184.152344 320.085938 L 244.714844 320.085938 C 246.117188 320.085938 247.503906 319.953125 248.878906 319.6875 C 250.253906 319.421875 251.59375 319.03125 252.894531 318.511719 C 254.195312 317.992188 255.433594 317.351562 256.613281 316.597656 C 257.792969 315.839844 258.890625 314.980469 259.90625 314.015625 C 256.328125 306.046875 254.1875 297.710938 253.476562 289.003906 Z M 184.152344 49.058594 L 121.1875 49.058594 C 120.957031 49.058594 120.761719 48.976562 120.601562 48.816406 C 120.4375 48.652344 120.359375 48.457031 120.359375 48.230469 C 120.359375 48 120.4375 47.804688 120.601562 47.640625 C 120.761719 47.480469 120.957031 47.398438 121.1875 47.398438 L 184.152344 47.398438 L 184.152344 37.664062 L 119.191406 37.664062 C 118.792969 37.664062 118.398438 37.703125 118.003906 37.78125 C 117.613281 37.859375 117.234375 37.976562 116.863281 38.128906 C 116.496094 38.28125 116.144531 38.46875 115.8125 38.691406 C 115.480469 38.914062 115.175781 39.164062 114.890625 39.449219 C 114.609375 39.730469 114.355469 40.039062 114.136719 40.371094 C 113.914062 40.703125 113.726562 41.054688 113.574219 41.421875 C 113.421875 41.792969 113.304688 42.171875 113.226562 42.566406 C 113.148438 42.957031 113.109375 43.351562 113.109375 43.753906 L 113.109375 58.960938 C 113.109375 59.605469 113.210938 60.238281 113.410156 60.851562 C 113.609375 61.464844 113.902344 62.03125 114.28125 62.550781 C 114.660156 63.074219 115.113281 63.523438 115.636719 63.902344 C 116.15625 64.277344 116.726562 64.566406 117.339844 64.761719 C 116.65625 64.96875 116.03125 65.289062 115.460938 65.722656 C 114.890625 66.15625 114.417969 66.675781 114.035156 67.28125 C 113.652344 67.886719 113.386719 68.539062 113.238281 69.238281 C 113.089844 69.941406 113.070312 70.644531 113.175781 71.351562 C 113.277344 72.058594 113.503906 72.726562 113.847656 73.355469 C 114.195312 73.980469 114.636719 74.527344 115.179688 74.996094 C 115.71875 75.464844 116.324219 75.824219 116.996094 76.070312 C 117.664062 76.320312 118.359375 76.445312 119.074219 76.445312 L 184.148438 76.445312 Z M 277.097656 302.464844 L 282.527344 297.875 L 282.382812 296.015625 C 282.265625 296.183594 282.148438 296.335938 282.03125 296.496094 C 282.09375 296.550781 282.132812 296.613281 282.15625 296.691406 C 282.183594 296.804688 282.167969 296.910156 282.109375 297.007812 C 282.050781 297.105469 281.96875 297.171875 281.855469 297.199219 L 281.441406 297.304688 C 280.082031 299.097656 278.636719 300.816406 277.097656 302.464844 Z M 301.277344 282.035156 L 299.875 264.125 C 299.863281 264.007812 299.898438 263.910156 299.972656 263.820312 C 300.046875 263.734375 300.140625 263.6875 300.253906 263.679688 C 300.371094 263.667969 300.472656 263.699219 300.558594 263.773438 C 300.644531 263.847656 300.691406 263.945312 300.699219 264.058594 L 302.058594 281.375 L 311.117188 273.722656 L 309.984375 259.269531 C 309.972656 259.15625 310.007812 259.054688 310.082031 258.96875 C 310.15625 258.882812 310.25 258.832031 310.363281 258.824219 C 310.476562 258.816406 310.578125 258.847656 310.664062 258.921875 C 310.75 258.996094 310.800781 259.089844 310.808594 259.207031 L 311.898438 273.066406 L 321.113281 265.277344 L 320.316406 255.113281 C 311.84375 257.117188 301.289062 260.796875 291.664062 267.515625 C 291.660156 269.855469 291.5 272.183594 291.1875 274.503906 L 292.367188 289.5625 Z M 312.449219 273.683594 L 325.871094 277.082031 C 325.972656 277.105469 326.054688 277.164062 326.113281 277.25 C 326.171875 277.335938 326.195312 277.429688 326.183594 277.535156 C 326.167969 277.640625 326.125 277.726562 326.042969 277.796875 C 325.964844 277.863281 325.875 277.898438 325.769531 277.898438 C 325.734375 277.898438 325.703125 277.894531 325.667969 277.886719 L 311.667969 274.34375 L 302.613281 281.996094 L 319.425781 286.25 C 319.527344 286.277344 319.605469 286.332031 319.664062 286.417969 C 319.722656 286.503906 319.746094 286.601562 319.734375 286.703125 C 319.722656 286.808594 319.675781 286.894531 319.597656 286.964844 C 319.519531 287.035156 319.425781 287.066406 319.324219 287.066406 C 319.289062 287.066406 319.253906 287.0625 319.222656 287.054688 L 301.832031 282.652344 L 292.921875 290.183594 L 312.492188 295.132812 C 312.59375 295.160156 312.671875 295.21875 312.730469 295.304688 C 312.789062 295.390625 312.8125 295.484375 312.800781 295.585938 C 312.785156 295.691406 312.742188 295.777344 312.664062 295.847656 C 312.585938 295.914062 312.496094 295.949219 312.390625 295.953125 C 312.355469 295.953125 312.324219 295.949219 312.289062 295.9375 L 292.144531 290.839844 L 283.867188 297.835938 L 303.433594 302.785156 C 303.535156 302.8125 303.617188 302.867188 303.675781 302.953125 C 303.734375 303.039062 303.757812 303.136719 303.742188 303.238281 C 303.730469 303.34375 303.6875 303.429688 303.605469 303.5 C 303.527344 303.570312 303.4375 303.605469 303.332031 303.605469 C 303.296875 303.605469 303.265625 303.597656 303.230469 303.589844 L 283.085938 298.492188 L 275.441406 304.949219 L 292.25 309.207031 C 292.398438 309.246094 292.496094 309.339844 292.539062 309.492188 C 298.902344 306.742188 304.746094 303.148438 310.074219 298.710938 C 320.855469 289.601562 327.554688 277.78125 331.527344 268.398438 L 321.664062 265.902344 Z M 260.988281 317.15625 C 271.59375 316.433594 281.800781 314.015625 291.601562 309.898438 L 274.65625 305.609375 Z M 260.621094 316.160156 C 260.597656 316.148438 260.570312 316.136719 260.546875 316.121094 C 260.511719 316.265625 260.480469 316.40625 260.453125 316.523438 L 260.953125 316.109375 C 260.890625 316.152344 260.820312 316.175781 260.742188 316.179688 C 260.699219 316.175781 260.660156 316.171875 260.621094 316.15625 Z M 291.585938 290.226562 L 290.609375 277.796875 C 290.359375 278.960938 290.082031 280.125 289.738281 281.285156 C 288.242188 286.179688 286.039062 290.730469 283.128906 294.9375 L 283.304688 297.21875 Z M 321.890625 264.621094 L 335.960938 252.738281 C 330.953125 253.058594 326.003906 253.789062 321.117188 254.929688 C 321.121094 254.949219 321.128906 254.96875 321.132812 254.988281 Z M 261.019531 316.046875 L 263.078125 314.304688 C 262.289062 314.824219 261.667969 315.207031 261.265625 315.449219 L 261.140625 315.875 C 261.113281 315.941406 261.074219 316 261.015625 316.046875 Z M 322.445312 265.242188 L 331.789062 267.605469 C 331.808594 267.613281 331.832031 267.625 331.851562 267.636719 C 333.789062 263.007812 335.339844 258.253906 336.496094 253.371094 Z M 322.445312 265.242188 " fill-opacity="1" fill-rule="nonzero"/></g><path fill="#99cc99" d="M 40.492188 166.195312 L 31.152344 168.558594 C 31.128906 168.566406 31.109375 168.578125 31.089844 168.589844 C 29.148438 163.964844 27.601562 159.207031 26.445312 154.324219 Z M 79.628906 198.167969 L 79.808594 195.882812 C 76.898438 191.679688 74.695312 187.128906 73.199219 182.238281 C 72.851562 181.074219 72.570312 179.914062 72.328125 178.75 L 71.351562 191.175781 Z M 52.128906 160.160156 C 52.136719 160.046875 52.1875 159.949219 52.273438 159.875 C 52.363281 159.800781 52.460938 159.769531 52.578125 159.777344 C 52.691406 159.785156 52.785156 159.835938 52.859375 159.921875 C 52.933594 160.011719 52.96875 160.109375 52.957031 160.226562 L 51.824219 174.679688 L 60.882812 182.332031 L 62.242188 165.011719 C 62.25 164.898438 62.296875 164.804688 62.386719 164.730469 C 62.472656 164.652344 62.574219 164.621094 62.6875 164.628906 C 62.804688 164.640625 62.898438 164.6875 62.972656 164.773438 C 63.046875 164.863281 63.078125 164.964844 63.070312 165.078125 L 61.667969 182.988281 L 70.578125 190.515625 L 71.761719 175.457031 C 71.441406 173.140625 71.285156 170.8125 71.28125 168.472656 C 61.652344 161.753906 51.097656 158.074219 42.625 156.070312 L 41.828125 166.234375 L 51.042969 174.015625 Z M 79.855469 199.449219 L 59.710938 204.546875 C 59.679688 204.554688 59.644531 204.558594 59.609375 204.558594 C 59.507812 204.558594 59.414062 204.523438 59.335938 204.453125 C 59.257812 204.382812 59.214844 204.296875 59.203125 204.195312 C 59.1875 204.089844 59.210938 203.996094 59.269531 203.910156 C 59.328125 203.824219 59.410156 203.769531 59.507812 203.742188 L 79.082031 198.789062 L 70.800781 191.796875 L 50.65625 196.894531 C 50.625 196.902344 50.589844 196.90625 50.554688 196.90625 C 50.453125 196.90625 50.359375 196.871094 50.28125 196.800781 C 50.203125 196.730469 50.160156 196.644531 50.148438 196.542969 C 50.132812 196.4375 50.15625 196.34375 50.214844 196.257812 C 50.273438 196.171875 50.355469 196.117188 50.453125 196.089844 L 70.027344 191.136719 L 61.105469 183.609375 L 43.714844 188.007812 C 43.683594 188.019531 43.648438 188.023438 43.613281 188.023438 C 43.511719 188.019531 43.417969 187.984375 43.34375 187.917969 C 43.265625 187.847656 43.21875 187.761719 43.207031 187.65625 C 43.191406 187.554688 43.214844 187.460938 43.273438 187.375 C 43.332031 187.289062 43.414062 187.230469 43.511719 187.203125 L 60.324219 182.949219 L 51.269531 175.296875 L 37.269531 178.839844 C 37.234375 178.847656 37.203125 178.851562 37.167969 178.851562 C 37.0625 178.851562 36.972656 178.816406 36.894531 178.75 C 36.816406 178.679688 36.773438 178.59375 36.757812 178.488281 C 36.746094 178.386719 36.769531 178.292969 36.828125 178.203125 C 36.886719 178.117188 36.964844 178.0625 37.066406 178.035156 L 50.488281 174.640625 L 41.273438 166.855469 L 31.410156 169.351562 C 35.386719 178.734375 42.082031 190.554688 52.863281 199.664062 C 58.191406 204.101562 64.039062 207.695312 70.402344 210.445312 C 70.445312 210.296875 70.539062 210.203125 70.6875 210.160156 L 87.503906 205.90625 Z M 41.800781 155.933594 C 41.808594 155.914062 41.8125 155.894531 41.820312 155.878906 C 36.929688 154.738281 31.984375 154.007812 26.972656 153.6875 L 41.046875 165.574219 Z M 71.332031 210.851562 C 79.382812 214.222656 87.734375 216.464844 96.386719 217.578125 L 96.386719 213.410156 L 88.277344 206.5625 Z M 81.496094 198.257812 L 81.082031 198.152344 C 80.972656 198.125 80.886719 198.058594 80.828125 197.960938 C 80.769531 197.863281 80.753906 197.757812 80.78125 197.644531 C 80.800781 197.566406 80.84375 197.503906 80.90625 197.449219 C 80.789062 197.289062 80.667969 197.132812 80.554688 196.96875 L 80.410156 198.828125 L 85.835938 203.414062 C 84.300781 201.769531 82.859375 200.050781 81.5 198.257812 Z M 289.289062 250.183594 L 289.277344 250.191406 L 281.660156 252.105469 L 279.941406 252.539062 L 277.132812 261.988281 L 281.652344 260.851562 L 289.851562 258.785156 C 289.960938 258.757812 290.066406 258.773438 290.164062 258.832031 C 290.261719 258.890625 290.328125 258.976562 290.355469 259.085938 C 290.382812 259.199219 290.367188 259.304688 290.308594 259.402344 C 290.25 259.5 290.164062 259.5625 290.054688 259.59375 L 281.640625 261.707031 L 276.863281 262.910156 L 274.105469 272.195312 L 280.945312 270.476562 L 290.027344 268.183594 C 290.21875 268.140625 290.367188 268.199219 290.472656 268.363281 C 290.5 268.402344 290.519531 268.445312 290.53125 268.488281 C 290.558594 268.597656 290.542969 268.703125 290.484375 268.800781 C 290.425781 268.902344 290.34375 268.964844 290.230469 268.992188 L 289.332031 269.21875 L 280.804688 271.363281 L 273.832031 273.121094 L 271.121094 282.253906 L 277.75 280.585938 L 278.820312 280.316406 L 281.109375 279.742188 L 281.925781 279.535156 L 289.648438 277.589844 C 289.757812 277.5625 289.863281 277.578125 289.960938 277.636719 C 290.058594 277.695312 290.125 277.78125 290.152344 277.890625 C 290.179688 278.003906 290.164062 278.109375 290.105469 278.207031 C 290.046875 278.304688 289.960938 278.371094 289.847656 278.398438 L 281.988281 280.375 L 281.175781 280.582031 L 278.535156 281.246094 L 276.902344 281.65625 L 270.851562 283.179688 L 268.332031 291.648438 L 270.597656 291.082031 L 272.972656 290.484375 L 273.785156 290.277344 L 275.261719 289.90625 L 281.78125 288.265625 L 282.59375 288.058594 L 286.855469 286.988281 C 286.96875 286.957031 287.074219 286.972656 287.171875 287.03125 C 287.269531 287.09375 287.332031 287.175781 287.359375 287.289062 C 287.386719 287.398438 287.371094 287.503906 287.3125 287.601562 C 287.253906 287.703125 287.171875 287.765625 287.058594 287.792969 L 282.664062 288.898438 L 281.847656 289.105469 L 274.800781 290.878906 L 273.851562 291.117188 L 273.035156 291.324219 L 270.027344 292.082031 L 268.058594 292.578125 L 265.734375 300.394531 L 265.917969 300.351562 L 270.105469 299.296875 L 273.589844 298.417969 L 274.402344 298.214844 L 281.652344 296.386719 C 281.796875 296.355469 281.921875 296.390625 282.03125 296.492188 C 282.148438 296.332031 282.265625 296.171875 282.382812 296.011719 C 282.636719 295.65625 282.882812 295.292969 283.128906 294.929688 C 286.042969 290.726562 288.246094 286.175781 289.742188 281.28125 C 290.085938 280.117188 290.367188 278.957031 290.613281 277.792969 C 290.84375 276.695312 291.035156 275.597656 291.183594 274.5 C 291.5 272.183594 291.660156 269.855469 291.664062 267.511719 C 291.628906 261.632812 290.839844 255.855469 289.292969 250.183594 Z M 281.660156 243.828125 L 283.734375 236.851562 C 283.289062 237.117188 282.578125 237.5625 281.660156 238.167969 C 278.691406 240.144531 275.871094 242.3125 273.199219 244.675781 L 279.410156 251.394531 Z M 264.929688 300.183594 L 267.25 292.363281 L 253.917969 277.9375 C 253.863281 277.871094 253.832031 277.800781 253.820312 277.714844 C 253.359375 281.128906 253.222656 284.554688 253.414062 287.992188 C 253.558594 287.964844 253.679688 288.007812 253.777344 288.113281 Z M 254.535156 277.371094 L 267.53125 291.4375 L 270.042969 282.964844 L 256.714844 268.535156 C 256.632812 268.449219 256.597656 268.351562 256.597656 268.234375 C 256.601562 268.117188 256.648438 268.023438 256.730469 267.941406 C 256.816406 267.863281 256.917969 267.828125 257.03125 267.832031 C 257.148438 267.839844 257.246094 267.882812 257.324219 267.96875 L 270.320312 282.039062 L 273.03125 272.902344 L 261.542969 260.472656 C 261.46875 260.386719 261.429688 260.289062 261.433594 260.171875 C 261.4375 260.058594 261.484375 259.960938 261.566406 259.882812 C 261.652344 259.804688 261.75 259.769531 261.867188 259.773438 C 261.980469 259.777344 262.078125 259.824219 262.152344 259.90625 L 273.304688 271.976562 L 276.0625 262.691406 L 266.796875 252.664062 C 266.71875 252.582031 266.683594 252.480469 266.6875 252.367188 C 266.691406 252.253906 266.734375 252.15625 266.820312 252.078125 C 266.90625 252 267.003906 251.964844 267.117188 251.96875 C 267.234375 251.972656 267.328125 252.015625 267.40625 252.101562 L 276.335938 261.765625 L 279.140625 252.320312 L 272.589844 245.226562 C 270.160156 247.410156 267.890625 249.746094 265.777344 252.238281 C 265.320312 252.777344 264.871094 253.328125 264.425781 253.890625 C 260.273438 259.011719 257.21875 264.722656 255.261719 271.019531 C 254.636719 273.136719 254.167969 275.289062 253.859375 277.472656 C 253.878906 277.425781 253.910156 277.386719 253.945312 277.351562 C 254.03125 277.269531 254.128906 277.234375 254.246094 277.238281 C 254.359375 277.242188 254.457031 277.285156 254.535156 277.371094 Z M 280.21875 251.613281 L 281.667969 251.25 L 289.082031 249.382812 C 287.925781 245.152344 286.410156 241.054688 284.53125 237.089844 L 281.667969 246.742188 Z M 253.476562 289.003906 C 254.1875 297.710938 256.332031 306.046875 259.910156 314.015625 C 260.140625 314.519531 260.332031 314.929688 260.472656 315.214844 L 261.238281 312.632812 L 264.660156 301.109375 Z M 273.65625 299.261719 L 269.453125 300.320312 L 265.503906 301.316406 L 265.460938 301.328125 L 265.371094 301.628906 L 262.609375 310.929688 L 261.265625 315.457031 C 261.667969 315.21875 262.289062 314.832031 263.078125 314.3125 C 267.058594 311.683594 270.769531 308.714844 274.210938 305.410156 C 274.445312 305.183594 274.679688 304.953125 274.917969 304.722656 C 275.644531 304 276.371094 303.25 277.101562 302.46875 C 278.636719 300.820312 280.082031 299.101562 281.441406 297.308594 L 274.472656 299.0625 Z M 273.65625 299.261719 " fill-opacity="1" fill-rule="nonzero"/><g clip-path="url(#92d9b0d8f1)"><path fill="#ffffff" d="M 88.730469 206.355469 C 91.144531 208.679688 93.699219 210.835938 96.390625 212.835938 L 96.390625 213.414062 L 88.28125 206.566406 L 71.332031 210.851562 L 70.890625 210.964844 C 70.855469 210.972656 70.820312 210.980469 70.789062 210.980469 C 70.570312 210.976562 70.4375 210.875 70.386719 210.664062 C 70.367188 210.589844 70.371094 210.515625 70.398438 210.445312 C 70.441406 210.296875 70.539062 210.203125 70.6875 210.160156 L 87.503906 205.90625 L 79.859375 199.445312 L 59.714844 204.546875 C 59.679688 204.554688 59.648438 204.558594 59.613281 204.558594 C 59.507812 204.558594 59.417969 204.523438 59.339844 204.453125 C 59.261719 204.382812 59.21875 204.296875 59.203125 204.195312 C 59.191406 204.089844 59.214844 203.996094 59.273438 203.910156 C 59.332031 203.824219 59.410156 203.765625 59.511719 203.742188 L 79.085938 198.789062 L 70.804688 191.792969 L 50.660156 196.894531 C 50.625 196.902344 50.59375 196.90625 50.558594 196.90625 C 50.453125 196.90625 50.363281 196.871094 50.285156 196.800781 C 50.207031 196.730469 50.164062 196.644531 50.148438 196.542969 C 50.136719 196.4375 50.160156 196.34375 50.21875 196.257812 C 50.277344 196.171875 50.355469 196.113281 50.457031 196.089844 L 70.03125 191.136719 L 61.105469 183.609375 L 43.714844 188.007812 C 43.683594 188.019531 43.648438 188.023438 43.613281 188.023438 C 43.511719 188.019531 43.417969 187.984375 43.34375 187.917969 C 43.265625 187.847656 43.21875 187.761719 43.207031 187.65625 C 43.191406 187.554688 43.214844 187.460938 43.273438 187.375 C 43.332031 187.289062 43.414062 187.230469 43.511719 187.203125 L 60.324219 182.949219 L 51.269531 175.296875 L 37.269531 178.839844 C 37.234375 178.847656 37.203125 178.851562 37.167969 178.851562 C 37.0625 178.851562 36.972656 178.816406 36.894531 178.75 C 36.816406 178.679688 36.773438 178.59375 36.757812 178.488281 C 36.746094 178.386719 36.769531 178.292969 36.828125 178.203125 C 36.886719 178.117188 36.964844 178.0625 37.066406 178.035156 L 50.488281 174.640625 L 41.273438 166.855469 L 31.410156 169.351562 L 31.359375 169.367188 C 31.324219 169.375 31.292969 169.378906 31.257812 169.378906 C 31.042969 169.378906 30.90625 169.277344 30.855469 169.066406 C 30.832031 168.96875 30.84375 168.875 30.886719 168.785156 C 30.933594 168.695312 31 168.628906 31.09375 168.59375 C 31.113281 168.582031 31.136719 168.570312 31.15625 168.5625 L 40.5 166.199219 L 26.441406 154.324219 L 26.03125 153.980469 C 25.941406 153.90625 25.886719 153.8125 25.875 153.695312 C 25.863281 153.578125 25.894531 153.472656 25.96875 153.382812 C 26.046875 153.292969 26.144531 153.246094 26.261719 153.238281 C 26.378906 153.230469 26.480469 153.265625 26.566406 153.34375 L 26.976562 153.691406 L 41.046875 165.578125 L 41.800781 155.9375 C 41.808594 155.917969 41.8125 155.898438 41.820312 155.878906 C 41.835938 155.777344 41.886719 155.695312 41.96875 155.632812 C 42.050781 155.570312 42.144531 155.546875 42.25 155.554688 C 42.363281 155.566406 42.457031 155.613281 42.53125 155.699219 C 42.605469 155.789062 42.636719 155.886719 42.628906 156.003906 L 42.625 156.070312 L 41.828125 166.234375 L 51.042969 174.015625 L 52.128906 160.15625 C 52.136719 160.042969 52.1875 159.949219 52.273438 159.871094 C 52.363281 159.796875 52.460938 159.765625 52.578125 159.773438 C 52.691406 159.785156 52.785156 159.832031 52.859375 159.917969 C 52.933594 160.007812 52.96875 160.109375 52.957031 160.222656 L 51.824219 174.679688 L 60.882812 182.332031 L 62.242188 165.011719 C 62.25 164.898438 62.296875 164.804688 62.386719 164.730469 C 62.472656 164.652344 62.574219 164.621094 62.6875 164.628906 C 62.804688 164.640625 62.898438 164.6875 62.972656 164.773438 C 63.046875 164.863281 63.078125 164.964844 63.070312 165.078125 L 61.667969 182.988281 L 70.578125 190.515625 L 71.761719 175.457031 C 71.910156 176.554688 72.101562 177.652344 72.332031 178.75 L 71.359375 191.175781 L 79.636719 198.167969 L 79.816406 195.886719 C 80.0625 196.25 80.308594 196.613281 80.5625 196.96875 L 80.417969 198.828125 L 85.84375 203.410156 C 86.570312 204.195312 87.300781 204.945312 88.03125 205.667969 C 88.257812 205.90625 88.496094 206.132812 88.730469 206.355469 Z M 86.875 163.648438 L 96.140625 153.621094 C 96.21875 153.539062 96.257812 153.4375 96.25 153.324219 C 96.246094 153.207031 96.203125 153.109375 96.117188 153.03125 C 96.035156 152.953125 95.933594 152.917969 95.820312 152.921875 C 95.707031 152.929688 95.609375 152.972656 95.53125 153.058594 L 86.601562 162.722656 L 83.796875 153.277344 L 90.347656 146.183594 C 90.421875 146.101562 90.453125 146 90.445312 145.890625 C 90.441406 145.777344 90.394531 145.683594 90.3125 145.609375 C 90.230469 145.535156 90.132812 145.496094 90.023438 145.5 C 89.910156 145.503906 89.816406 145.542969 89.738281 145.625 L 89.730469 145.632812 L 83.523438 152.347656 L 79.203125 137.804688 L 79.078125 137.378906 C 79.042969 137.269531 78.976562 137.1875 78.878906 137.132812 C 78.777344 137.078125 78.671875 137.070312 78.5625 137.101562 C 78.453125 137.132812 78.371094 137.199219 78.316406 137.300781 C 78.261719 137.402344 78.25 137.507812 78.28125 137.617188 L 78.40625 138.042969 L 82.71875 152.566406 L 73.859375 150.335938 C 73.753906 150.316406 73.652344 150.332031 73.5625 150.390625 C 73.46875 150.449219 73.40625 150.53125 73.378906 150.636719 C 73.351562 150.742188 73.363281 150.84375 73.414062 150.941406 C 73.464844 151.035156 73.542969 151.101562 73.648438 151.136719 L 73.660156 151.144531 L 82.996094 153.492188 L 85.800781 162.941406 L 73.085938 159.742188 C 72.972656 159.710938 72.871094 159.726562 72.769531 159.785156 C 72.671875 159.84375 72.609375 159.929688 72.582031 160.042969 C 72.554688 160.152344 72.570312 160.257812 72.628906 160.355469 C 72.6875 160.457031 72.773438 160.519531 72.882812 160.546875 L 86.074219 163.867188 L 88.832031 173.152344 L 72.910156 169.144531 C 72.71875 169.097656 72.570312 169.15625 72.464844 169.320312 C 72.4375 169.359375 72.417969 169.398438 72.40625 169.445312 C 72.378906 169.554688 72.390625 169.660156 72.449219 169.757812 C 72.511719 169.859375 72.59375 169.921875 72.707031 169.949219 L 73.605469 170.175781 L 89.105469 174.078125 L 91.816406 183.210938 L 85.1875 181.542969 L 81.828125 180.699219 L 81.015625 180.492188 L 73.292969 178.546875 C 73.179688 178.519531 73.074219 178.535156 72.976562 178.59375 C 72.878906 178.652344 72.816406 178.738281 72.789062 178.851562 C 72.761719 178.960938 72.777344 179.066406 72.835938 179.164062 C 72.894531 179.265625 72.976562 179.328125 73.089844 179.355469 L 80.949219 181.332031 L 81.761719 181.539062 L 86.035156 182.613281 L 92.085938 184.140625 L 94.605469 192.613281 L 92.339844 192.042969 L 89.964844 191.445312 L 89.152344 191.242188 L 81.15625 189.230469 L 80.34375 189.023438 L 76.078125 187.949219 C 75.96875 187.921875 75.863281 187.9375 75.765625 187.996094 C 75.667969 188.054688 75.605469 188.140625 75.578125 188.25 C 75.546875 188.363281 75.5625 188.46875 75.621094 188.566406 C 75.679688 188.664062 75.765625 188.726562 75.878906 188.757812 L 80.273438 189.863281 L 81.089844 190.070312 L 89.082031 192.082031 L 89.898438 192.285156 L 92.90625 193.042969 L 94.875 193.542969 L 96.382812 198.617188 L 96.382812 195.691406 L 95.675781 193.3125 L 96.382812 192.550781 L 96.382812 191.328125 L 95.402344 192.386719 L 92.894531 183.917969 L 96.394531 180.132812 L 96.394531 178.90625 L 92.621094 182.988281 L 89.910156 173.855469 L 96.394531 166.835938 L 96.394531 165.613281 L 89.632812 172.929688 Z M 88.535156 199.167969 L 81.289062 197.34375 C 81.140625 197.308594 81.015625 197.34375 80.910156 197.445312 C 80.847656 197.5 80.804688 197.566406 80.78125 197.644531 C 80.753906 197.753906 80.769531 197.859375 80.828125 197.960938 C 80.886719 198.058594 80.972656 198.121094 81.085938 198.148438 L 81.5 198.253906 L 88.464844 200.007812 L 89.28125 200.210938 L 96.390625 202 L 96.390625 201.144531 L 89.347656 199.371094 Z M 129.449219 106.609375 L 142.097656 88.234375 C 142.226562 88.046875 142.269531 87.839844 142.230469 87.613281 C 142.1875 87.390625 142.074219 87.210938 141.882812 87.082031 C 141.695312 86.949219 141.488281 86.90625 141.261719 86.949219 C 141.039062 86.988281 140.859375 87.105469 140.730469 87.292969 L 128.082031 105.664062 C 125.496094 109.40625 123.210938 113.324219 121.21875 117.417969 C 119.226562 121.507812 117.558594 125.726562 116.207031 130.070312 C 114.855469 134.417969 113.839844 138.839844 113.160156 143.339844 C 112.480469 147.839844 112.140625 152.363281 112.148438 156.914062 L 112.148438 260.378906 C 112.144531 265.6875 112.890625 270.882812 114.378906 275.976562 C 115.871094 281.066406 118.050781 285.847656 120.914062 290.3125 L 128.015625 301.394531 C 128.597656 302.304688 129.359375 303.015625 130.304688 303.535156 C 131.25 304.050781 132.261719 304.308594 133.339844 304.308594 L 176.347656 304.308594 C 176.578125 304.308594 176.773438 304.226562 176.9375 304.0625 C 177.097656 303.902344 177.179688 303.707031 177.179688 303.476562 C 177.179688 303.246094 177.097656 303.050781 176.9375 302.890625 C 176.773438 302.726562 176.578125 302.644531 176.347656 302.644531 L 133.339844 302.644531 C 132.542969 302.648438 131.796875 302.457031 131.101562 302.078125 C 130.402344 301.695312 129.839844 301.167969 129.414062 300.496094 L 122.308594 289.414062 C 119.53125 285.082031 117.417969 280.449219 115.972656 275.507812 C 114.527344 270.570312 113.804688 265.527344 113.808594 260.378906 L 113.808594 156.917969 C 113.800781 152.449219 114.132812 148.007812 114.800781 143.589844 C 115.46875 139.171875 116.464844 134.832031 117.789062 130.566406 C 119.117188 126.300781 120.757812 122.160156 122.710938 118.144531 C 124.664062 114.128906 126.910156 110.28125 129.449219 106.609375 Z M 244.714844 310.953125 L 133.335938 310.953125 C 132.25 310.953125 131.179688 310.820312 130.125 310.554688 C 129.074219 310.285156 128.070312 309.890625 127.117188 309.371094 C 126.164062 308.847656 125.289062 308.214844 124.496094 307.472656 C 123.703125 306.730469 123.015625 305.898438 122.429688 304.984375 L 115.324219 293.898438 C 112.117188 288.898438 109.679688 283.546875 108.011719 277.84375 C 106.34375 272.144531 105.511719 266.320312 105.515625 260.378906 L 105.515625 156.917969 C 105.507812 152.03125 105.871094 147.171875 106.597656 142.339844 C 107.328125 137.511719 108.421875 132.761719 109.871094 128.097656 C 111.320312 123.433594 113.113281 118.902344 115.253906 114.511719 C 117.390625 110.117188 119.84375 105.914062 122.621094 101.894531 L 131.167969 89.480469 C 131.285156 89.3125 131.332031 89.125 131.308594 88.917969 C 131.285156 88.714844 131.199219 88.542969 131.046875 88.402344 L 126.769531 84.480469 C 126.601562 84.320312 126.402344 84.242188 126.167969 84.25 C 125.9375 84.257812 125.742188 84.347656 125.585938 84.519531 C 125.429688 84.691406 125.355469 84.894531 125.367188 85.125 C 125.382812 85.359375 125.476562 85.550781 125.648438 85.707031 L 129.394531 89.136719 L 121.257812 100.953125 C 118.4375 105.039062 115.9375 109.316406 113.765625 113.785156 C 111.589844 118.253906 109.765625 122.859375 108.289062 127.605469 C 106.816406 132.347656 105.707031 137.179688 104.964844 142.09375 C 104.222656 147.003906 103.851562 151.945312 103.859375 156.917969 L 103.859375 260.378906 C 103.855469 266.480469 104.710938 272.457031 106.425781 278.3125 C 108.140625 284.167969 110.644531 289.660156 113.9375 294.792969 L 121.039062 305.878906 C 121.699219 306.914062 122.476562 307.847656 123.371094 308.6875 C 124.269531 309.523438 125.253906 310.238281 126.328125 310.828125 C 127.40625 311.414062 128.535156 311.859375 129.722656 312.164062 C 130.910156 312.464844 132.117188 312.613281 133.34375 312.609375 L 244.722656 312.609375 C 244.953125 312.609375 245.148438 312.53125 245.308594 312.367188 C 245.472656 312.207031 245.550781 312.011719 245.550781 311.78125 C 245.550781 311.550781 245.472656 311.355469 245.308594 311.195312 C 245.148438 311.03125 244.953125 310.949219 244.722656 310.949219 Z M 264.117188 253.257812 C 264.117188 253.519531 264.222656 253.730469 264.425781 253.890625 C 264.867188 253.328125 265.316406 252.777344 265.773438 252.238281 L 265.773438 170.234375 C 265.761719 160.859375 264.722656 151.601562 262.660156 142.457031 C 260.59375 133.3125 257.558594 124.503906 253.542969 116.035156 L 245.464844 99.050781 C 245.367188 98.84375 245.210938 98.699219 244.996094 98.621094 C 244.777344 98.542969 244.566406 98.554688 244.359375 98.652344 C 244.152344 98.753906 244.007812 98.910156 243.933594 99.128906 C 243.855469 99.34375 243.867188 99.554688 243.964844 99.765625 L 252.042969 116.75 C 256.003906 125.105469 259.003906 133.796875 261.042969 142.820312 C 263.078125 151.847656 264.101562 160.984375 264.117188 170.234375 Z M 121.1875 49.058594 L 256.867188 49.058594 C 257.09375 49.058594 257.289062 48.976562 257.453125 48.816406 C 257.613281 48.652344 257.695312 48.457031 257.695312 48.230469 C 257.695312 48 257.613281 47.804688 257.453125 47.640625 C 257.289062 47.480469 257.09375 47.398438 256.867188 47.398438 L 121.1875 47.398438 C 120.957031 47.398438 120.761719 47.480469 120.601562 47.640625 C 120.4375 47.804688 120.359375 48 120.359375 48.230469 C 120.359375 48.457031 120.4375 48.652344 120.601562 48.816406 C 120.761719 48.976562 120.957031 49.058594 121.1875 49.058594 Z M 336.957031 252.441406 C 336.882812 252.355469 336.789062 252.304688 336.675781 252.296875 C 336.5625 252.289062 336.460938 252.320312 336.375 252.390625 L 335.964844 252.738281 L 321.890625 264.621094 L 321.136719 254.984375 C 321.132812 254.964844 321.125 254.945312 321.121094 254.925781 C 321.101562 254.824219 321.050781 254.742188 320.96875 254.679688 C 320.886719 254.617188 320.792969 254.589844 320.691406 254.601562 C 320.578125 254.613281 320.480469 254.660156 320.40625 254.746094 C 320.332031 254.835938 320.300781 254.933594 320.308594 255.050781 L 320.316406 255.117188 L 321.113281 265.28125 L 311.898438 273.066406 L 310.808594 259.207031 C 310.800781 259.09375 310.75 259 310.664062 258.925781 C 310.578125 258.851562 310.476562 258.816406 310.363281 258.824219 C 310.25 258.835938 310.15625 258.882812 310.082031 258.96875 C 310.007812 259.058594 309.972656 259.15625 309.984375 259.273438 L 311.117188 273.726562 L 302.058594 281.378906 L 300.699219 264.0625 C 300.691406 263.945312 300.644531 263.851562 300.558594 263.773438 C 300.472656 263.699219 300.371094 263.667969 300.253906 263.679688 C 300.140625 263.6875 300.046875 263.738281 299.972656 263.824219 C 299.898438 263.910156 299.863281 264.011719 299.875 264.125 L 301.277344 282.035156 L 292.367188 289.566406 L 291.191406 274.507812 C 291.039062 275.601562 290.847656 276.699219 290.617188 277.796875 L 291.589844 290.222656 L 283.3125 297.214844 L 283.132812 294.933594 C 282.882812 295.296875 282.632812 295.660156 282.386719 296.015625 L 282.53125 297.875 L 277.101562 302.460938 C 276.375 303.246094 275.644531 303.996094 274.917969 304.714844 C 274.679688 304.945312 274.445312 305.175781 274.210938 305.402344 C 270.769531 308.710938 267.058594 311.679688 263.074219 314.308594 L 261.015625 316.050781 C 261.070312 316.007812 261.113281 315.949219 261.136719 315.882812 L 261.261719 315.457031 L 262.605469 310.929688 L 265.367188 301.628906 L 265.457031 301.328125 L 265.5 301.316406 L 269.449219 300.320312 L 273.652344 299.261719 L 274.46875 299.054688 L 281.4375 297.300781 L 281.851562 297.199219 C 281.960938 297.167969 282.046875 297.105469 282.105469 297.007812 C 282.164062 296.910156 282.179688 296.804688 282.152344 296.691406 C 282.128906 296.613281 282.085938 296.546875 282.027344 296.496094 C 281.917969 296.394531 281.792969 296.359375 281.648438 296.390625 L 274.398438 298.21875 L 273.585938 298.421875 L 270.101562 299.300781 L 265.914062 300.355469 L 265.730469 300.398438 L 268.050781 292.582031 L 270.019531 292.085938 L 273.03125 291.328125 L 273.847656 291.121094 L 274.792969 290.882812 L 281.84375 289.109375 L 282.660156 288.902344 L 287.054688 287.796875 C 287.164062 287.769531 287.25 287.707031 287.308594 287.605469 C 287.367188 287.507812 287.382812 287.402344 287.355469 287.292969 C 287.328125 287.179688 287.265625 287.097656 287.167969 287.039062 C 287.066406 286.976562 286.964844 286.960938 286.851562 286.992188 L 282.589844 288.0625 L 281.773438 288.269531 L 275.257812 289.910156 L 273.78125 290.28125 L 272.964844 290.488281 L 270.589844 291.085938 L 268.328125 291.65625 L 270.84375 283.183594 L 276.898438 281.660156 L 278.527344 281.25 L 281.167969 280.585938 L 281.984375 280.378906 L 289.84375 278.402344 C 289.957031 278.375 290.039062 278.308594 290.101562 278.210938 C 290.160156 278.113281 290.175781 278.007812 290.144531 277.898438 C 290.117188 277.785156 290.054688 277.699219 289.957031 277.640625 C 289.859375 277.582031 289.753906 277.566406 289.640625 277.59375 L 281.917969 279.539062 L 281.105469 279.746094 L 278.816406 280.320312 L 277.746094 280.589844 L 271.117188 282.257812 L 273.828125 273.125 L 280.800781 271.371094 L 289.328125 269.222656 L 290.226562 268.996094 C 290.335938 268.96875 290.421875 268.90625 290.480469 268.804688 C 290.539062 268.707031 290.554688 268.601562 290.527344 268.492188 C 290.515625 268.449219 290.496094 268.40625 290.46875 268.367188 C 290.363281 268.203125 290.214844 268.144531 290.023438 268.191406 L 280.941406 270.476562 L 274.105469 272.199219 L 276.859375 262.914062 L 281.636719 261.710938 L 290.054688 259.59375 C 290.164062 259.566406 290.25 259.5 290.308594 259.402344 C 290.367188 259.304688 290.382812 259.199219 290.355469 259.089844 C 290.328125 258.976562 290.265625 258.890625 290.164062 258.832031 C 290.066406 258.773438 289.960938 258.757812 289.851562 258.785156 L 281.652344 260.851562 L 277.136719 261.988281 L 279.941406 252.542969 L 281.660156 252.109375 L 289.277344 250.191406 L 289.289062 250.183594 C 289.394531 250.148438 289.472656 250.085938 289.523438 249.988281 C 289.578125 249.890625 289.589844 249.789062 289.558594 249.683594 C 289.53125 249.578125 289.46875 249.496094 289.378906 249.4375 C 289.285156 249.378906 289.183594 249.363281 289.074219 249.382812 L 281.664062 251.25 L 280.214844 251.613281 L 281.664062 246.746094 L 284.527344 237.089844 L 284.65625 236.664062 C 284.6875 236.554688 284.675781 236.449219 284.621094 236.347656 C 284.566406 236.246094 284.484375 236.179688 284.375 236.148438 C 284.265625 236.113281 284.160156 236.125 284.058594 236.179688 C 283.957031 236.234375 283.890625 236.316406 283.859375 236.429688 L 283.734375 236.851562 L 281.660156 243.828125 L 279.414062 251.398438 L 273.203125 244.675781 L 273.195312 244.667969 C 273.117188 244.585938 273.023438 244.546875 272.910156 244.542969 C 272.796875 244.539062 272.703125 244.578125 272.621094 244.652344 C 272.539062 244.726562 272.492188 244.820312 272.484375 244.933594 C 272.480469 245.042969 272.511719 245.144531 272.585938 245.226562 L 279.136719 252.320312 L 276.332031 261.765625 L 267.402344 252.101562 C 267.324219 252.015625 267.226562 251.972656 267.113281 251.96875 C 267 251.964844 266.898438 252 266.816406 252.078125 C 266.730469 252.15625 266.6875 252.253906 266.683594 252.367188 C 266.675781 252.480469 266.714844 252.582031 266.792969 252.664062 L 276.054688 262.691406 L 273.300781 271.976562 L 262.148438 259.90625 C 262.070312 259.820312 261.972656 259.777344 261.859375 259.773438 C 261.746094 259.765625 261.644531 259.804688 261.558594 259.882812 C 261.476562 259.960938 261.429688 260.058594 261.425781 260.171875 C 261.421875 260.285156 261.460938 260.386719 261.539062 260.472656 L 273.027344 272.90625 L 270.316406 282.039062 L 257.320312 267.972656 C 257.242188 267.886719 257.144531 267.839844 257.03125 267.835938 C 256.914062 267.832031 256.8125 267.867188 256.730469 267.945312 C 256.644531 268.023438 256.601562 268.121094 256.597656 268.238281 C 256.59375 268.351562 256.628906 268.453125 256.710938 268.535156 L 270.042969 282.964844 L 267.527344 291.4375 L 254.535156 277.371094 C 254.457031 277.285156 254.359375 277.242188 254.246094 277.238281 C 254.128906 277.234375 254.03125 277.269531 253.945312 277.347656 C 253.910156 277.382812 253.878906 277.425781 253.859375 277.472656 C 253.847656 277.554688 253.839844 277.636719 253.828125 277.714844 C 253.835938 277.800781 253.871094 277.871094 253.925781 277.9375 L 267.253906 292.363281 L 264.933594 300.183594 L 253.78125 288.113281 C 253.679688 288.011719 253.558594 287.96875 253.417969 287.992188 C 253.332031 288.003906 253.257812 288.035156 253.195312 288.09375 C 253.109375 288.167969 253.066406 288.265625 253.0625 288.378906 C 253.058594 288.496094 253.09375 288.59375 253.171875 288.679688 L 253.476562 289.011719 L 264.65625 301.113281 L 261.234375 312.636719 L 260.46875 315.222656 L 260.34375 315.648438 C 260.28125 315.863281 260.347656 316.023438 260.546875 316.125 C 260.570312 316.140625 260.597656 316.152344 260.621094 316.164062 C 260.660156 316.175781 260.699219 316.179688 260.738281 316.179688 C 260.816406 316.175781 260.886719 316.15625 260.949219 316.113281 L 260.453125 316.527344 L 260.042969 316.871094 C 259.949219 316.945312 259.898438 317.039062 259.886719 317.15625 C 259.875 317.273438 259.90625 317.378906 259.980469 317.46875 C 260.058594 317.558594 260.152344 317.605469 260.269531 317.613281 C 260.386719 317.621094 260.492188 317.585938 260.578125 317.507812 L 260.988281 317.160156 L 274.65625 305.617188 L 291.601562 309.90625 L 292.042969 310.019531 C 292.078125 310.027344 292.109375 310.03125 292.144531 310.03125 C 292.359375 310.03125 292.496094 309.925781 292.546875 309.71875 C 292.5625 309.644531 292.558594 309.570312 292.535156 309.496094 C 292.492188 309.347656 292.398438 309.253906 292.246094 309.214844 L 275.433594 304.953125 L 283.078125 298.496094 L 303.222656 303.59375 C 303.257812 303.601562 303.289062 303.605469 303.324219 303.605469 C 303.429688 303.605469 303.519531 303.570312 303.597656 303.5 C 303.675781 303.433594 303.722656 303.34375 303.734375 303.242188 C 303.75 303.136719 303.726562 303.042969 303.667969 302.957031 C 303.605469 302.867188 303.527344 302.8125 303.425781 302.789062 L 283.859375 297.835938 L 292.136719 290.84375 L 312.28125 295.941406 C 312.316406 295.949219 312.347656 295.953125 312.382812 295.953125 C 312.488281 295.953125 312.578125 295.917969 312.65625 295.847656 C 312.734375 295.777344 312.777344 295.691406 312.792969 295.589844 C 312.804688 295.484375 312.78125 295.390625 312.722656 295.304688 C 312.664062 295.21875 312.585938 295.164062 312.484375 295.136719 L 292.910156 290.183594 L 301.824219 282.65625 L 319.214844 287.054688 C 319.246094 287.066406 319.28125 287.070312 319.316406 287.070312 C 319.417969 287.070312 319.511719 287.035156 319.589844 286.964844 C 319.667969 286.894531 319.714844 286.808594 319.726562 286.707031 C 319.738281 286.601562 319.714844 286.507812 319.65625 286.417969 C 319.597656 286.332031 319.515625 286.277344 319.414062 286.25 L 302.601562 281.996094 L 311.660156 274.34375 L 325.660156 277.886719 C 325.695312 277.898438 325.726562 277.902344 325.761719 277.902344 C 325.867188 277.902344 325.957031 277.867188 326.035156 277.796875 C 326.113281 277.726562 326.160156 277.640625 326.171875 277.535156 C 326.1875 277.433594 326.164062 277.335938 326.105469 277.25 C 326.042969 277.164062 325.964844 277.109375 325.863281 277.082031 L 312.441406 273.6875 L 321.65625 265.902344 L 331.519531 268.398438 L 331.574219 268.410156 C 331.609375 268.421875 331.640625 268.425781 331.675781 268.425781 C 331.890625 268.425781 332.027344 268.320312 332.078125 268.109375 C 332.101562 268.011719 332.09375 267.917969 332.046875 267.828125 C 332.003906 267.738281 331.933594 267.675781 331.839844 267.636719 C 331.820312 267.625 331.800781 267.613281 331.777344 267.605469 L 322.4375 265.242188 L 336.488281 253.371094 L 336.898438 253.027344 C 336.984375 252.953125 337.035156 252.859375 337.046875 252.746094 C 337.058594 252.632812 337.027344 252.53125 336.957031 252.441406 Z M 336.957031 252.441406 " fill-opacity="1" fill-rule="nonzero"/></g></svg>