<svg xmlns="http://www.w3.org/2000/svg" xmlns:xlink="http://www.w3.org/1999/xlink" width="500" zoomAndPan="magnify" viewBox="0 0 375 374.999991" height="500" preserveAspectRatio="xMidYMid meet" version="1.0"><defs><clipPath id="68f49b600c"><path d="M 121.773438 80.8125 L 252.855469 80.8125 L 252.855469 337.382812 L 121.773438 337.382812 Z M 121.773438 80.8125 " clip-rule="nonzero"/></clipPath></defs><g clip-path="url(#68f49b600c)"><path fill="#bdc6e9" d="M 236.730469 311.480469 C 236.019531 314.285156 235.28125 317.140625 234.515625 320.03125 C 232.890625 326.132812 228.175781 330.925781 222.113281 332.652344 C 215.132812 334.640625 204.050781 336.753906 187.46875 337.378906 L 187.46875 337.390625 C 187.414062 337.390625 187.363281 337.382812 187.316406 337.382812 C 187.265625 337.382812 187.214844 337.390625 187.160156 337.390625 L 187.160156 337.378906 C 170.578125 336.753906 159.496094 334.640625 152.515625 332.652344 C 146.453125 330.925781 141.738281 326.132812 140.113281 320.03125 C 123.925781 259.046875 120.382812 216.34375 122.210938 186.820312 C 123 174.101562 126.40625 161.898438 131.976562 150.789062 C 138.578125 137.628906 148.214844 125.992188 160.15625 116.789062 C 178.917969 102.328125 176.140625 80.816406 176.140625 80.816406 L 198.488281 80.816406 C 198.488281 80.816406 195.710938 102.328125 214.472656 116.789062 C 236.492188 133.761719 250.691406 159.03125 252.417969 186.820312 C 254.160156 214.941406 251.03125 255.027344 236.730469 311.480469 " fill-opacity="1" fill-rule="nonzero"/></g><path fill="#959dd7" d="M 148.152344 319.214844 C 148.152344 319.214844 184.796875 302.128906 228.160156 319.214844 C 228.160156 319.214844 195.226562 311.078125 148.152344 319.214844 " fill-opacity="1" fill-rule="nonzero"/><path fill="#dda5a1" d="M 138.785156 156.933594 C 138.785156 156.933594 152.871094 128.082031 196.347656 136.679688 C 196.347656 136.679688 177.976562 168.597656 138.785156 156.933594 " fill-opacity="1" fill-rule="nonzero"/><path fill="#f2bdb5" d="M 138.785156 156.933594 C 138.785156 156.933594 166.339844 160.617188 173.691406 138.519531 L 184.097656 166.140625 C 184.097656 166.140625 144.296875 169.824219 138.785156 156.933594 " fill-opacity="1" fill-rule="nonzero"/><path fill="#fcd3cf" d="M 236.148438 311.621094 C 236.148438 311.621094 224.515625 336.175781 196.347656 326.355469 L 164.117188 231.492188 L 163.3125 229.121094 L 138.785156 156.933594 C 138.785156 156.933594 173.691406 165.527344 196.347656 136.675781 L 214.953125 218.464844 L 215.414062 220.496094 L 216.195312 223.921875 L 216.847656 226.78125 L 236.148438 311.621094 " fill-opacity="1" fill-rule="nonzero"/><path fill="#bdc6e9" d="M 202.777344 63.628906 L 198.488281 80.816406 C 198.488281 80.816406 187.160156 86.34375 176.140625 80.816406 L 173.410156 70.996094 L 171.355469 63.628906 L 202.777344 63.628906 " fill-opacity="1" fill-rule="nonzero"/><path fill="#4c2227" d="M 164.503906 28.054688 C 164.503906 28.054688 182.785156 19.382812 208.59375 28.066406 C 208.59375 28.066406 195.152344 36.105469 164.503906 28.054688 " fill-opacity="1" fill-rule="nonzero"/><path fill="#6d3138" d="M 176.519531 77.738281 L 164.503906 28.054688 C 164.503906 28.054688 194.613281 33.015625 208.59375 28.066406 L 197.894531 77.429688 C 197.289062 80.230469 195.152344 82.441406 192.382812 83.15625 C 189.570312 83.882812 185.757812 84.328125 181.722656 83.214844 C 179.125 82.5 177.15625 80.363281 176.519531 77.738281 " fill-opacity="1" fill-rule="nonzero"/><path fill="#bdc6e9" d="M 209.820312 67.3125 C 209.820312 69.34375 208.171875 70.996094 206.144531 70.996094 L 168.179688 70.996094 C 167.164062 70.996094 166.242188 70.585938 165.582031 69.917969 C 164.914062 69.253906 164.503906 68.332031 164.503906 67.3125 C 164.503906 65.28125 166.152344 63.628906 168.179688 63.628906 L 206.144531 63.628906 C 207.160156 63.628906 208.078125 64.042969 208.742188 64.710938 C 209.410156 65.375 209.820312 66.292969 209.820312 67.3125 " fill-opacity="1" fill-rule="nonzero"/><path fill="#e3e9f7" d="M 234.953125 157.367188 C 238.816406 165.972656 237.96875 174.742188 233.0625 176.953125 C 228.15625 179.164062 221.050781 173.984375 217.1875 165.375 C 213.328125 156.773438 214.171875 148 219.078125 145.789062 C 223.984375 143.578125 231.089844 148.761719 234.953125 157.367188 " fill-opacity="1" fill-rule="nonzero"/><path fill="#959dd7" d="M 144.449219 303.289062 C 144 303.289062 143.589844 302.980469 143.476562 302.523438 C 131.960938 256.046875 129.296875 222.175781 129.09375 201.945312 C 128.871094 179.964844 131.351562 169.152344 131.457031 168.703125 C 131.582031 168.164062 132.121094 167.828125 132.660156 167.957031 C 133.199219 168.085938 133.53125 168.625 133.40625 169.164062 C 133.382812 169.273438 130.871094 180.265625 131.097656 202.042969 C 131.308594 222.148438 133.964844 255.816406 145.421875 302.039062 C 145.554688 302.578125 145.226562 303.125 144.691406 303.257812 C 144.609375 303.277344 144.527344 303.289062 144.449219 303.289062 " fill-opacity="1" fill-rule="nonzero"/><path fill="#959dd7" d="M 187.972656 115.585938 C 177.925781 115.585938 169.699219 112.390625 169.183594 112.1875 C 168.671875 111.984375 168.417969 111.398438 168.621094 110.882812 C 168.824219 110.367188 169.40625 110.117188 169.921875 110.320312 C 170.105469 110.390625 188.449219 117.5 203.355469 110.347656 C 203.851562 110.109375 204.449219 110.320312 204.691406 110.820312 C 204.929688 111.320312 204.71875 111.917969 204.21875 112.15625 C 198.863281 114.730469 193.171875 115.585938 187.972656 115.585938 " fill-opacity="1" fill-rule="nonzero"/><path fill="#cc3557" d="M 233.234375 228.175781 C 230.722656 229.78125 226.957031 229.203125 224.640625 227.484375 C 222.5625 225.941406 221.074219 223.742188 219.359375 221.804688 C 221.800781 220.660156 224.644531 220.261719 227.289062 219.984375 C 229.722656 219.734375 232.851562 219.652344 234.644531 221.660156 C 236.441406 223.679688 235.320312 226.835938 233.234375 228.175781 Z M 222.511719 209.953125 C 223.402344 208.214844 224.414062 206.542969 225.542969 204.949219 C 225.957031 204.359375 226.5 203.417969 227.339844 203.507812 C 228.148438 203.59375 228.792969 204.429688 229.160156 205.085938 C 230.898438 208.1875 228.988281 212.359375 226.59375 214.523438 C 224.332031 216.554688 221.46875 217.742188 219.078125 219.589844 C 219.90625 216.261719 220.933594 213.042969 222.511719 209.953125 Z M 236.828125 221.953125 C 235.539062 218.96875 232 218.058594 229.035156 218.136719 C 227.152344 218.183594 225.230469 218.476562 223.386719 218.835938 C 223.324219 218.847656 223.265625 218.859375 223.203125 218.871094 C 224.566406 218.054688 225.949219 217.25 227.1875 216.257812 C 229.722656 214.21875 231.523438 210.984375 231.511719 207.679688 C 231.5 206.058594 230.992188 204.457031 229.9375 203.214844 C 228.828125 201.921875 227.003906 201.269531 225.535156 202.382812 C 224.808594 202.929688 224.292969 203.75 223.78125 204.492188 C 223.214844 205.316406 222.675781 206.15625 222.171875 207.015625 C 221.167969 208.730469 220.296875 210.515625 219.539062 212.351562 C 218.78125 214.203125 218.160156 216.101562 217.675781 218.039062 C 217.550781 218.535156 217.4375 219.035156 217.324219 219.53125 C 216.5625 219.109375 215.773438 218.746094 214.953125 218.464844 L 215.414062 220.496094 C 215.933594 220.722656 216.433594 220.984375 216.917969 221.277344 C 216.707031 222.167969 216.472656 223.050781 216.195312 223.921875 C 216.191406 223.9375 216.183594 223.960938 216.179688 223.976562 C 215.050781 227.449219 212.820312 230.253906 209.777344 232.238281 C 203.046875 236.636719 194.242188 236.464844 186.535156 235.804688 C 178.453125 235.117188 170.414062 233.089844 163.3125 229.121094 L 164.117188 231.492188 C 169.730469 234.359375 175.875 236.121094 182.105469 237.011719 C 185.894531 237.554688 189.722656 237.820312 193.550781 237.8125 C 197.621094 237.800781 201.773438 237.445312 205.648438 236.121094 C 208.835938 235.027344 211.859375 233.265625 214.175781 230.777344 C 215.308594 229.558594 216.167969 228.210938 216.847656 226.78125 C 217.40625 225.597656 217.839844 224.355469 218.207031 223.074219 C 219.984375 225.074219 221.535156 227.308594 223.707031 228.914062 C 226.464844 230.960938 230.808594 231.539062 233.847656 229.8125 C 236.46875 228.320312 238.078125 224.835938 236.828125 221.953125 " fill-opacity="1" fill-rule="nonzero"/><path fill="#4c2227" d="M 175.257812 35.183594 C 175.257812 34.238281 174.492188 33.46875 173.546875 33.46875 C 172.601562 33.46875 171.835938 34.238281 171.835938 35.183594 C 171.835938 36.132812 172.601562 36.902344 173.546875 36.902344 C 174.492188 36.902344 175.257812 36.132812 175.257812 35.183594 " fill-opacity="1" fill-rule="nonzero"/><path fill="#4c2227" d="M 180.964844 43.191406 C 180.964844 42.558594 180.453125 42.046875 179.824219 42.046875 C 179.195312 42.046875 178.683594 42.558594 178.683594 43.191406 C 178.683594 43.824219 179.195312 44.335938 179.824219 44.335938 C 180.453125 44.335938 180.964844 43.824219 180.964844 43.191406 " fill-opacity="1" fill-rule="nonzero"/><path fill="#4c2227" d="M 187.242188 36.902344 C 187.242188 35.949219 186.472656 35.183594 185.53125 35.183594 C 184.585938 35.183594 183.816406 35.949219 183.816406 36.902344 C 183.816406 37.847656 184.585938 38.613281 185.53125 38.613281 C 186.472656 38.613281 187.242188 37.847656 187.242188 36.902344 " fill-opacity="1" fill-rule="nonzero"/><path fill="#4c2227" d="M 188.382812 50.628906 C 188.382812 49.996094 187.871094 49.484375 187.242188 49.484375 C 186.609375 49.484375 186.097656 49.996094 186.097656 50.628906 C 186.097656 51.257812 186.609375 51.769531 187.242188 51.769531 C 187.871094 51.769531 188.382812 51.257812 188.382812 50.628906 " fill-opacity="1" fill-rule="nonzero"/><path fill="#4c2227" d="M 182.105469 59.207031 C 182.105469 58.574219 181.59375 58.0625 180.964844 58.0625 C 180.335938 58.0625 179.824219 58.574219 179.824219 59.207031 C 179.824219 59.839844 180.335938 60.351562 180.964844 60.351562 C 181.59375 60.351562 182.105469 59.839844 182.105469 59.207031 " fill-opacity="1" fill-rule="nonzero"/><path fill="#4c2227" d="M 188.953125 75.21875 C 188.953125 74.90625 188.695312 74.648438 188.382812 74.648438 C 188.066406 74.648438 187.8125 74.90625 187.8125 75.21875 C 187.8125 75.535156 188.066406 75.792969 188.382812 75.792969 C 188.695312 75.792969 188.953125 75.535156 188.953125 75.21875 " fill-opacity="1" fill-rule="nonzero"/></svg>