<svg xmlns="http://www.w3.org/2000/svg" xmlns:xlink="http://www.w3.org/1999/xlink" width="500" zoomAndPan="magnify" viewBox="0 0 375 374.999991" height="500" preserveAspectRatio="xMidYMid meet" version="1.0"><defs><clipPath id="24d42c6d47"><path d="M 293 20.269531 L 346.136719 20.269531 L 346.136719 73 L 293 73 Z M 293 20.269531 " clip-rule="nonzero"/></clipPath></defs><path fill="#de655b" d="M 331.324219 60.644531 L 324.34375 66.816406 C 324.03125 67.105469 323.675781 67.324219 323.277344 67.472656 C 322.875 67.625 322.460938 67.691406 322.035156 67.679688 C 321.609375 67.667969 321.199219 67.574219 320.808594 67.402344 C 320.421875 67.230469 320.078125 66.988281 319.78125 66.679688 L 299.722656 46.625 C 299.417969 46.328125 299.175781 45.984375 299.003906 45.597656 C 298.832031 45.207031 298.738281 44.796875 298.726562 44.371094 C 298.714844 43.945312 298.78125 43.53125 298.929688 43.132812 C 299.082031 42.734375 299.300781 42.378906 299.589844 42.0625 L 305.761719 35.082031 Z M 331.324219 60.644531 " fill-opacity="1" fill-rule="nonzero"/><g clip-path="url(#24d42c6d47)"><path fill="#445c8c" d="M 313.996094 71.667969 L 294.742188 52.410156 C 294.449219 52.105469 294.222656 51.761719 294.0625 51.371094 C 293.90625 50.980469 293.824219 50.574219 293.820312 50.152344 C 293.816406 49.730469 293.890625 49.324219 294.042969 48.933594 C 294.195312 48.539062 294.417969 48.1875 294.703125 47.878906 L 317.585938 22.339844 C 317.84375 22.039062 318.125 21.773438 318.433594 21.53125 C 318.746094 21.292969 319.078125 21.085938 319.429688 20.914062 C 319.78125 20.742188 320.148438 20.609375 320.527344 20.507812 C 320.90625 20.410156 321.292969 20.355469 321.683594 20.335938 C 322.074219 20.316406 322.464844 20.335938 322.851562 20.394531 C 323.238281 20.457031 323.617188 20.554688 323.984375 20.691406 C 324.351562 20.828125 324.699219 21 325.03125 21.210938 C 325.363281 21.417969 325.671875 21.65625 325.957031 21.929688 L 344.476562 40.453125 C 344.75 40.738281 344.988281 41.042969 345.195312 41.375 C 345.40625 41.707031 345.578125 42.058594 345.714844 42.425781 C 345.851562 42.792969 345.949219 43.171875 346.011719 43.558594 C 346.070312 43.945312 346.089844 44.335938 346.074219 44.726562 C 346.054688 45.117188 345.996094 45.503906 345.898438 45.882812 C 345.800781 46.261719 345.664062 46.628906 345.492188 46.980469 C 345.320312 47.332031 345.113281 47.664062 344.875 47.972656 C 344.636719 48.285156 344.367188 48.566406 344.070312 48.820312 L 318.527344 71.703125 C 318.21875 71.992188 317.867188 72.210938 317.472656 72.363281 C 317.082031 72.515625 316.675781 72.589844 316.253906 72.585938 C 315.832031 72.582031 315.425781 72.503906 315.035156 72.34375 C 314.644531 72.183594 314.296875 71.957031 313.996094 71.667969 Z M 313.996094 71.667969 " fill-opacity="1" fill-rule="nonzero"/></g><path fill="#c2e4ff" d="M 283.011719 116.964844 C 283.023438 115.867188 283.246094 114.8125 283.671875 113.800781 C 284.097656 112.792969 284.699219 111.898438 285.476562 111.121094 L 318.878906 77.71875 L 320.890625 79.730469 C 321.375 80.214844 321.902344 80.648438 322.472656 81.03125 C 323.039062 81.410156 323.640625 81.734375 324.277344 81.996094 C 324.910156 82.257812 325.5625 82.457031 326.234375 82.589844 C 326.90625 82.722656 327.585938 82.789062 328.269531 82.792969 C 328.957031 82.792969 329.632812 82.722656 330.308594 82.589844 C 330.980469 82.457031 331.632812 82.257812 332.265625 81.996094 C 332.898438 81.734375 333.5 81.414062 334.070312 81.03125 C 334.640625 80.652344 335.167969 80.21875 335.652344 79.734375 C 336.136719 79.25 336.570312 78.722656 336.949219 78.152344 C 337.332031 77.582031 337.652344 76.980469 337.914062 76.347656 C 338.175781 75.714844 338.375 75.0625 338.507812 74.390625 C 338.640625 73.714844 338.710938 73.039062 338.710938 72.351562 C 338.707031 71.667969 338.640625 70.988281 338.507812 70.316406 C 338.375 69.644531 338.175781 68.992188 337.914062 68.359375 C 337.652344 67.722656 337.328125 67.125 336.949219 66.554688 C 336.566406 65.984375 336.132812 65.457031 335.648438 64.972656 L 301.433594 30.753906 C 300.949219 30.269531 300.421875 29.839844 299.851562 29.457031 C 299.28125 29.078125 298.679688 28.753906 298.046875 28.492188 C 297.414062 28.230469 296.761719 28.035156 296.089844 27.898438 C 295.417969 27.765625 294.738281 27.699219 294.054688 27.699219 C 293.371094 27.699219 292.691406 27.765625 292.019531 27.898438 C 291.347656 28.035156 290.695312 28.230469 290.0625 28.492188 C 289.429688 28.753906 288.828125 29.078125 288.257812 29.457031 C 287.6875 29.839844 287.160156 30.269531 286.675781 30.753906 C 286.191406 31.238281 285.757812 31.765625 285.378906 32.335938 C 284.996094 32.90625 284.675781 33.507812 284.414062 34.140625 C 284.152344 34.773438 283.953125 35.425781 283.820312 36.097656 C 283.683594 36.769531 283.617188 37.449219 283.617188 38.136719 C 283.617188 38.820312 283.683594 39.5 283.820312 40.171875 C 283.953125 40.84375 284.152344 41.496094 284.414062 42.128906 C 284.675781 42.761719 284.996094 43.363281 285.378906 43.933594 C 285.757812 44.503906 286.191406 45.03125 286.675781 45.515625 L 288.6875 47.527344 L 255.28125 80.933594 C 254.507812 81.710938 253.613281 82.308594 252.601562 82.738281 C 251.589844 83.164062 250.539062 83.382812 249.441406 83.398438 L 231.933594 83.621094 C 229.015625 83.65625 226.109375 83.835938 223.207031 84.152344 C 220.308594 84.472656 217.429688 84.929688 214.574219 85.527344 C 211.71875 86.125 208.898438 86.855469 206.113281 87.726562 C 203.328125 88.59375 200.589844 89.59375 197.902344 90.730469 C 195.214844 91.863281 192.585938 93.125 190.019531 94.511719 C 187.453125 95.898438 184.960938 97.40625 182.539062 99.035156 C 180.117188 100.664062 177.78125 102.40625 175.527344 104.261719 C 173.277344 106.113281 171.117188 108.074219 169.054688 110.136719 L 36.488281 242.703125 C 35.78125 243.414062 35.128906 244.171875 34.53125 244.976562 C 33.933594 245.78125 33.398438 246.625 32.925781 247.507812 C 32.449219 248.386719 32.042969 249.300781 31.703125 250.242188 C 31.359375 251.183594 31.089844 252.148438 30.886719 253.128906 C 30.683594 254.109375 30.554688 255.101562 30.496094 256.101562 C 30.441406 257.101562 30.453125 258.101562 30.542969 259.097656 C 30.628906 260.097656 30.789062 261.082031 31.019531 262.058594 C 31.253906 263.03125 31.550781 263.984375 31.921875 264.917969 C 45.117188 298.097656 68.304688 321.289062 101.488281 334.484375 C 102.417969 334.855469 103.371094 335.152344 104.347656 335.386719 C 105.320312 335.617188 106.308594 335.777344 107.308594 335.863281 C 108.304688 335.949219 109.304688 335.964844 110.304688 335.90625 C 111.304688 335.851562 112.296875 335.71875 113.277344 335.519531 C 114.257812 335.316406 115.222656 335.046875 116.164062 334.703125 C 117.105469 334.363281 118.015625 333.953125 118.898438 333.480469 C 119.78125 333.003906 120.625 332.46875 121.429688 331.871094 C 122.234375 331.277344 122.992188 330.625 123.703125 329.917969 L 256.269531 197.347656 C 258.332031 195.285156 260.289062 193.128906 262.144531 190.875 C 264 188.625 265.742188 186.289062 267.371094 183.867188 C 269 181.445312 270.507812 178.953125 271.894531 176.386719 C 273.28125 173.820312 274.542969 171.191406 275.675781 168.503906 C 276.808594 165.816406 277.8125 163.078125 278.679688 160.292969 C 279.550781 157.507812 280.285156 154.6875 280.878906 151.832031 C 281.476562 148.976562 281.933594 146.097656 282.253906 143.199219 C 282.570312 140.296875 282.75 137.390625 282.785156 134.472656 Z M 283.011719 116.964844 " fill-opacity="1" fill-rule="nonzero"/><path fill="#669ed1" d="M 115.351562 333.800781 C 115.222656 333.800781 115.097656 333.785156 114.976562 333.761719 C 114.730469 333.714844 114.5 333.617188 114.292969 333.476562 C 114.082031 333.335938 113.910156 333.164062 113.769531 332.953125 C 113.628906 332.742188 113.535156 332.515625 113.488281 332.265625 C 113.4375 332.019531 113.4375 331.773438 113.488281 331.527344 C 115.046875 323.800781 105.609375 307.429688 89.449219 289.824219 C 69.003906 267.558594 45.929688 251.71875 35.558594 252.808594 C 35.308594 252.839844 35.0625 252.816406 34.820312 252.75 C 34.578125 252.679688 34.359375 252.566406 34.164062 252.410156 C 33.964844 252.25 33.804688 252.0625 33.683594 251.84375 C 33.5625 251.621094 33.488281 251.386719 33.460938 251.136719 C 33.429688 250.886719 33.453125 250.640625 33.519531 250.398438 C 33.589844 250.160156 33.703125 249.9375 33.859375 249.742188 C 34.019531 249.546875 34.207031 249.386719 34.425781 249.265625 C 34.648438 249.140625 34.882812 249.066406 35.132812 249.039062 C 48.777344 247.472656 74.34375 267.757812 92.242188 287.257812 C 98.789062 294.390625 119.941406 318.714844 117.210938 332.277344 C 117.167969 332.492188 117.089844 332.691406 116.976562 332.878906 C 116.863281 333.066406 116.722656 333.230469 116.550781 333.371094 C 116.382812 333.507812 116.195312 333.613281 115.988281 333.6875 C 115.78125 333.761719 115.570312 333.800781 115.351562 333.800781 Z M 115.351562 333.800781 " fill-opacity="1" fill-rule="nonzero"/><path fill="#ffffff" d="M 61.40625 251.527344 C 55.140625 262.1875 57.527344 278.375 61.230469 284.503906 L 66.152344 278.894531 C 66.152344 278.894531 76.882812 294.675781 86.15625 292.730469 C 95.433594 290.785156 122.925781 250.832031 163.292969 228.578125 C 194.464844 211.394531 255.332031 174.160156 260.082031 166.589844 C 267.65625 154.507812 250.800781 122.695312 230.742188 120.671875 C 219.613281 119.550781 168.226562 189.472656 141.351562 203.558594 C 110.515625 219.71875 67.550781 241.074219 61.40625 251.527344 Z M 61.40625 251.527344 " fill-opacity="1" fill-rule="nonzero"/><path fill="#fc9c86" d="M 66.152344 280.320312 C 65.863281 280.316406 65.597656 280.238281 65.359375 280.074219 C 65.117188 279.914062 64.941406 279.699219 64.835938 279.429688 C 64.726562 279.160156 64.699219 278.886719 64.761719 278.601562 C 64.820312 278.316406 64.953125 278.074219 65.160156 277.875 C 77.558594 265.847656 88.136719 258.480469 104.152344 247.335938 C 114.589844 240.070312 127.582031 231.03125 145.046875 217.9375 C 155.949219 209.761719 166.59375 201.882812 176.535156 194.523438 C 205.339844 173.199219 228.359375 156.160156 233.886719 149.554688 C 231.519531 146.628906 224.550781 137.214844 225.1875 128.597656 C 225.300781 126.839844 225.757812 125.175781 226.5625 123.605469 C 227.371094 122.039062 228.457031 120.699219 229.824219 119.585938 C 229.964844 119.464844 230.128906 119.375 230.308594 119.316406 C 230.488281 119.257812 230.671875 119.238281 230.859375 119.253906 C 231.046875 119.269531 231.226562 119.320312 231.394531 119.410156 C 231.558594 119.496094 231.703125 119.609375 231.828125 119.753906 C 231.949219 119.898438 232.039062 120.0625 232.09375 120.238281 C 232.152344 120.417969 232.171875 120.605469 232.15625 120.792969 C 232.140625 120.980469 232.089844 121.15625 232.003906 121.324219 C 231.914062 121.492188 231.800781 121.636719 231.65625 121.757812 C 230.582031 122.625 229.726562 123.671875 229.09375 124.898438 C 228.460938 126.125 228.105469 127.429688 228.027344 128.808594 C 227.363281 137.765625 236.675781 148.46875 236.773438 148.574219 C 236.988281 148.820312 237.105469 149.105469 237.125 149.433594 C 237.144531 149.757812 237.058594 150.054688 236.875 150.324219 C 232.539062 156.601562 209.757812 173.46875 178.222656 196.8125 C 168.292969 204.164062 157.648438 212.042969 146.75 220.214844 C 129.246094 233.339844 116.234375 242.394531 105.777344 249.671875 C 89.878906 260.738281 79.371094 268.050781 67.140625 279.921875 C 66.867188 280.1875 66.535156 280.320312 66.152344 280.320312 Z M 66.152344 280.320312 " fill-opacity="1" fill-rule="nonzero"/><path fill="#fc9c86" d="M 252.675781 171.164062 C 252.101562 171.160156 251.527344 171.128906 250.957031 171.066406 C 242.574219 170.144531 232.28125 162.488281 229.015625 156.519531 C 228.925781 156.355469 228.871094 156.179688 228.851562 155.992188 C 228.828125 155.804688 228.84375 155.621094 228.898438 155.441406 C 228.949219 155.257812 229.035156 155.09375 229.152344 154.949219 C 229.273438 154.800781 229.414062 154.683594 229.578125 154.589844 C 229.746094 154.5 229.921875 154.445312 230.109375 154.425781 C 230.296875 154.402344 230.480469 154.417969 230.660156 154.472656 C 230.839844 154.523438 231.003906 154.609375 231.152344 154.726562 C 231.300781 154.847656 231.417969 154.988281 231.507812 155.152344 C 234.039062 159.773438 243.210938 167.347656 251.273438 168.234375 C 254.546875 168.59375 257.1875 167.730469 259.011719 165.648438 C 259.136719 165.507812 259.28125 165.394531 259.453125 165.308594 C 259.621094 165.226562 259.800781 165.179688 259.988281 165.164062 C 260.175781 165.152344 260.359375 165.175781 260.539062 165.238281 C 260.71875 165.296875 260.878906 165.390625 261.023438 165.515625 C 261.164062 165.640625 261.277344 165.785156 261.359375 165.957031 C 261.445312 166.125 261.492188 166.304688 261.503906 166.492188 C 261.515625 166.679688 261.492188 166.863281 261.429688 167.042969 C 261.371094 167.222656 261.277344 167.382812 261.152344 167.523438 C 259.050781 169.921875 256.140625 171.164062 252.675781 171.164062 Z M 252.675781 171.164062 " fill-opacity="1" fill-rule="nonzero"/><path fill="#fc9c86" d="M 249.472656 164.179688 C 246.105469 164.179688 242.550781 161.613281 240.753906 158.636719 C 237.277344 152.875 234.882812 143.710938 237 139.773438 C 237.304688 139.160156 237.746094 138.667969 238.324219 138.296875 C 238.902344 137.925781 239.535156 137.726562 240.222656 137.707031 C 242.222656 137.597656 244.042969 138.757812 245.609375 140.980469 C 248.078125 144.484375 249.359375 150.089844 248.292969 152.734375 C 248.21875 152.90625 248.117188 153.058594 247.984375 153.191406 C 247.851562 153.324219 247.699219 153.425781 247.527344 153.496094 C 247.355469 153.570312 247.175781 153.605469 246.988281 153.609375 C 246.800781 153.609375 246.621094 153.574219 246.445312 153.503906 C 246.273438 153.433594 246.117188 153.335938 245.984375 153.203125 C 245.851562 153.074219 245.746094 152.921875 245.671875 152.75 C 245.597656 152.578125 245.558594 152.398438 245.554688 152.210938 C 245.550781 152.023438 245.582031 151.84375 245.652344 151.667969 C 246.230469 150.238281 245.394531 145.617188 243.285156 142.617188 C 242.722656 141.824219 241.621094 140.632812 240.332031 140.550781 C 240.148438 140.550781 239.980469 140.605469 239.828125 140.707031 C 239.679688 140.8125 239.570312 140.949219 239.503906 141.121094 C 238.078125 143.773438 239.902344 151.71875 243.191406 157.164062 C 244.917969 160.035156 248.429688 161.933594 250.585938 161.140625 C 252.746094 160.339844 253.464844 156.78125 252.558594 151.371094 C 250.523438 139.25 242.671875 132.183594 236.324219 131.6875 C 232.945312 131.425781 230.554688 133.011719 229.507812 136.140625 C 229.445312 136.320312 229.355469 136.480469 229.230469 136.625 C 229.105469 136.765625 228.960938 136.878906 228.792969 136.964844 C 228.625 137.046875 228.445312 137.097656 228.257812 137.109375 C 228.070312 137.121094 227.886719 137.097656 227.707031 137.039062 C 227.527344 136.980469 227.367188 136.886719 227.226562 136.765625 C 227.082031 136.640625 226.96875 136.492188 226.886719 136.324219 C 226.800781 136.15625 226.753906 135.976562 226.738281 135.789062 C 226.726562 135.601562 226.75 135.417969 226.808594 135.238281 C 228.265625 130.878906 231.890625 128.488281 236.542969 128.851562 C 244.15625 129.445312 253.066406 137.210938 255.363281 150.898438 C 256.941406 160.324219 253.667969 163.035156 251.574219 163.8125 C 250.894531 164.058594 250.195312 164.183594 249.472656 164.179688 Z M 249.472656 164.179688 " fill-opacity="1" fill-rule="nonzero"/><path fill="#de655b" d="M 167.074219 228.28125 C 166.5625 228.28125 166.167969 228.070312 165.890625 227.644531 L 147.652344 200.121094 C 147.550781 199.964844 147.480469 199.792969 147.445312 199.605469 C 147.40625 199.421875 147.40625 199.238281 147.445312 199.050781 C 147.484375 198.867188 147.554688 198.695312 147.660156 198.539062 C 147.765625 198.382812 147.898438 198.253906 148.054688 198.148438 C 148.210938 198.046875 148.382812 197.976562 148.566406 197.941406 C 148.753906 197.902344 148.9375 197.902344 149.121094 197.941406 C 149.308594 197.980469 149.476562 198.050781 149.632812 198.15625 C 149.789062 198.261719 149.921875 198.394531 150.023438 198.550781 L 168.257812 226.074219 C 168.40625 226.292969 168.484375 226.53125 168.496094 226.796875 C 168.507812 227.058594 168.453125 227.304688 168.328125 227.535156 C 168.207031 227.765625 168.03125 227.949219 167.804688 228.082031 C 167.578125 228.21875 167.335938 228.285156 167.074219 228.285156 Z M 167.074219 228.28125 " fill-opacity="1" fill-rule="nonzero"/><path fill="#de655b" d="M 160.222656 230.910156 C 159.746094 230.910156 159.367188 230.722656 159.082031 230.339844 L 140.277344 205.191406 C 140.160156 205.042969 140.078125 204.875 140.027344 204.691406 C 139.980469 204.507812 139.96875 204.320312 139.992188 204.128906 C 140.019531 203.941406 140.078125 203.765625 140.175781 203.597656 C 140.273438 203.433594 140.398438 203.296875 140.550781 203.179688 C 140.703125 203.066406 140.871094 202.988281 141.058594 202.941406 C 141.242188 202.894531 141.429688 202.886719 141.617188 202.914062 C 141.808594 202.945312 141.984375 203.007812 142.144531 203.105469 C 142.308594 203.207031 142.445312 203.335938 142.558594 203.488281 L 161.363281 228.636719 C 161.523438 228.851562 161.617188 229.09375 161.640625 229.363281 C 161.664062 229.632812 161.617188 229.886719 161.496094 230.128906 C 161.375 230.367188 161.199219 230.558594 160.96875 230.699219 C 160.742188 230.839844 160.492188 230.910156 160.222656 230.910156 Z M 160.222656 230.910156 " fill-opacity="1" fill-rule="nonzero"/><path fill="#de655b" d="M 152.085938 236.738281 C 151.804688 236.738281 151.542969 236.660156 151.304688 236.503906 C 151.066406 236.347656 150.890625 236.136719 150.78125 235.875 L 137.828125 205.78125 C 137.75 205.609375 137.714844 205.429688 137.710938 205.238281 C 137.707031 205.050781 137.742188 204.867188 137.8125 204.695312 C 137.878906 204.519531 137.980469 204.363281 138.113281 204.226562 C 138.242188 204.09375 138.394531 203.988281 138.570312 203.914062 C 138.742188 203.839844 138.921875 203.800781 139.113281 203.796875 C 139.300781 203.792969 139.484375 203.828125 139.65625 203.898438 C 139.832031 203.96875 139.988281 204.066406 140.125 204.199219 C 140.257812 204.332031 140.363281 204.484375 140.4375 204.65625 L 149.019531 224.589844 L 145.355469 200.4375 C 145.328125 200.25 145.335938 200.066406 145.382812 199.882812 C 145.425781 199.699219 145.503906 199.53125 145.617188 199.378906 C 145.730469 199.226562 145.867188 199.101562 146.027344 199.003906 C 146.191406 198.90625 146.363281 198.84375 146.550781 198.816406 C 146.738281 198.785156 146.921875 198.792969 147.109375 198.835938 C 147.292969 198.878906 147.460938 198.957031 147.613281 199.070312 C 147.765625 199.183594 147.890625 199.320312 147.988281 199.484375 C 148.085938 199.644531 148.144531 199.820312 148.171875 200.007812 L 153.496094 235.101562 C 153.523438 235.308594 153.511719 235.507812 153.453125 235.707031 C 153.394531 235.90625 153.300781 236.085938 153.164062 236.242188 C 153.03125 236.398438 152.867188 236.519531 152.679688 236.605469 C 152.492188 236.695312 152.292969 236.738281 152.085938 236.738281 Z M 152.085938 236.738281 " fill-opacity="1" fill-rule="nonzero"/><path fill="#de655b" d="M 148.589844 200.335938 C 148.246094 200.335938 147.945312 200.226562 147.679688 200.007812 C 137.957031 191.929688 129.21875 174.617188 131.269531 167.515625 C 131.382812 167.039062 131.566406 166.59375 131.816406 166.179688 C 132.070312 165.761719 132.378906 165.390625 132.742188 165.070312 C 133.109375 164.746094 133.515625 164.488281 133.960938 164.292969 C 134.40625 164.097656 134.871094 163.972656 135.355469 163.917969 C 137.757812 163.589844 140.148438 164.535156 142.257812 166.613281 C 148.074219 172.355469 151.476562 186.617188 150 199.082031 C 149.972656 199.339844 149.878906 199.574219 149.71875 199.78125 C 149.5625 199.988281 149.359375 200.140625 149.117188 200.238281 C 148.949219 200.304688 148.773438 200.335938 148.589844 200.335938 Z M 136.277344 166.703125 C 136.089844 166.703125 135.90625 166.71875 135.722656 166.742188 C 135.292969 166.773438 134.914062 166.933594 134.59375 167.226562 C 134.273438 167.515625 134.074219 167.875 134 168.304688 C 132.519531 173.425781 139.03125 187.667969 147.417969 195.929688 C 148.019531 185.128906 145.011719 173.332031 140.257812 168.640625 C 138.953125 167.355469 137.617188 166.703125 136.277344 166.703125 Z M 136.277344 166.703125 " fill-opacity="1" fill-rule="nonzero"/><path fill="#de655b" d="M 148.589844 200.335938 C 148.464844 200.335938 148.34375 200.320312 148.222656 200.289062 C 129.847656 195.425781 120.808594 190.945312 118.925781 185.753906 C 118.179688 183.699219 118.554688 181.59375 120.03125 179.503906 C 120.585938 178.65625 121.304688 177.988281 122.191406 177.496094 C 123.078125 177.003906 124.027344 176.746094 125.039062 176.726562 L 125.160156 176.726562 C 130.683594 176.726562 138.714844 183.703125 149.71875 198.046875 C 149.882812 198.261719 149.980469 198.503906 150.007812 198.773438 C 150.035156 199.046875 149.988281 199.300781 149.867188 199.546875 C 149.746094 199.789062 149.570312 199.980469 149.339844 200.125 C 149.109375 200.265625 148.859375 200.339844 148.585938 200.335938 Z M 125.171875 179.570312 C 125.144531 179.570312 125.117188 179.570312 125.09375 179.570312 C 124.53125 179.582031 124.007812 179.726562 123.523438 180.007812 C 123.039062 180.285156 122.648438 180.667969 122.359375 181.144531 C 121.128906 182.882812 121.339844 184.050781 121.605469 184.78125 C 122.945312 188.484375 130.75 192.382812 144.8125 196.398438 C 133.777344 182.625 128.066406 179.570312 125.171875 179.570312 Z M 125.171875 179.570312 " fill-opacity="1" fill-rule="nonzero"/><path fill="#de655b" d="M 103.101562 217.515625 C 102.914062 217.515625 102.734375 217.480469 102.5625 217.410156 C 102.390625 217.339844 102.238281 217.238281 102.105469 217.109375 C 101.972656 216.976562 101.867188 216.828125 101.792969 216.65625 C 101.71875 216.484375 101.679688 216.304688 101.675781 216.121094 C 101.675781 215.933594 101.707031 215.753906 101.773438 215.578125 C 101.839844 215.40625 101.9375 215.25 102.066406 215.113281 C 102.191406 214.980469 102.34375 214.871094 102.511719 214.796875 C 102.679688 214.71875 102.859375 214.675781 103.046875 214.667969 C 108.949219 214.433594 112.339844 210.78125 116.261719 206.550781 C 117.121094 205.625 117.996094 204.683594 118.917969 203.753906 C 122.292969 200.355469 128.816406 200.515625 135.089844 200.65625 C 136.960938 200.703125 138.847656 200.753906 140.5625 200.683594 C 137.9375 200.214844 135.347656 199.613281 132.785156 198.871094 C 127.199219 197.375 121.425781 195.832031 115.578125 196.597656 C 112.324219 197.027344 110.097656 199.457031 107.738281 202.03125 C 104.582031 205.460938 101.011719 209.351562 94.738281 207.574219 C 94.554688 207.523438 94.390625 207.441406 94.242188 207.324219 C 94.09375 207.207031 93.976562 207.066406 93.882812 206.902344 C 93.792969 206.734375 93.734375 206.558594 93.710938 206.371094 C 93.691406 206.1875 93.707031 206 93.757812 205.820312 C 93.808594 205.636719 93.894531 205.472656 94.011719 205.324219 C 94.128906 205.179688 94.269531 205.058594 94.433594 204.964844 C 94.597656 204.875 94.773438 204.816406 94.960938 204.796875 C 95.148438 204.773438 95.332031 204.789062 95.511719 204.839844 C 99.863281 206.089844 102.203125 203.851562 105.640625 200.105469 C 108.121094 197.40625 110.929688 194.34375 115.207031 193.777344 C 121.625 192.925781 127.953125 194.628906 133.523438 196.125 C 139.234375 197.660156 144.171875 198.984375 148.113281 197.574219 C 148.375 197.480469 148.644531 197.464844 148.917969 197.53125 C 149.191406 197.597656 149.425781 197.730469 149.617188 197.933594 C 149.8125 198.136719 149.933594 198.375 149.988281 198.652344 C 150.039062 198.925781 150.011719 199.195312 149.90625 199.453125 C 148.125 203.8125 141.75 203.664062 135.023438 203.503906 C 129.605469 203.367188 123.445312 203.226562 120.9375 205.761719 C 120.039062 206.667969 119.1875 207.585938 118.347656 208.488281 C 114.179688 212.988281 110.238281 217.230469 103.160156 217.515625 Z M 103.101562 217.515625 " fill-opacity="1" fill-rule="nonzero"/><path fill="#669ed1" d="M 317.015625 76.585938 C 316.492188 76.585938 316.042969 76.402344 315.671875 76.027344 L 289.773438 50.128906 C 289.59375 49.949219 289.457031 49.746094 289.359375 49.511719 C 289.265625 49.28125 289.214844 49.039062 289.214844 48.785156 C 289.214844 48.535156 289.261719 48.289062 289.359375 48.058594 C 289.457031 47.824219 289.59375 47.621094 289.773438 47.441406 C 289.949219 47.265625 290.15625 47.125 290.390625 47.03125 C 290.621094 46.933594 290.863281 46.886719 291.117188 46.886719 C 291.367188 46.886719 291.609375 46.9375 291.84375 47.03125 C 292.074219 47.128906 292.28125 47.265625 292.457031 47.445312 L 318.359375 73.347656 C 318.632812 73.617188 318.804688 73.941406 318.878906 74.320312 C 318.953125 74.695312 318.917969 75.0625 318.769531 75.414062 C 318.625 75.769531 318.390625 76.054688 318.070312 76.265625 C 317.75 76.480469 317.398438 76.585938 317.015625 76.585938 Z M 317.015625 76.585938 " fill-opacity="1" fill-rule="nonzero"/></svg>