<svg xmlns="http://www.w3.org/2000/svg" xmlns:xlink="http://www.w3.org/1999/xlink" width="500" zoomAndPan="magnify" viewBox="0 0 375 374.999991" height="500" preserveAspectRatio="xMidYMid meet" version="1.0"><defs><clipPath id="9db9e156e6"><path d="M 55.46875 102.378906 L 319.464844 102.378906 L 319.464844 272.554688 L 55.46875 272.554688 Z M 55.46875 102.378906 " clip-rule="nonzero"/></clipPath></defs><path fill="#ffe7e3" d="M 302.0625 271.011719 L 72.871094 271.011719 C 64.148438 271.011719 57.011719 263.875 57.011719 255.15625 L 57.011719 119.78125 C 57.011719 111.058594 64.148438 103.925781 72.871094 103.925781 L 302.0625 103.925781 C 310.785156 103.925781 317.921875 111.058594 317.921875 119.78125 L 317.921875 255.15625 C 317.921875 263.875 310.785156 271.011719 302.0625 271.011719 " fill-opacity="1" fill-rule="nonzero"/><g clip-path="url(#9db9e156e6)"><path fill="#681307" d="M 72.871094 105.46875 C 64.976562 105.46875 58.554688 111.890625 58.554688 119.78125 L 58.554688 255.152344 C 58.554688 263.046875 64.976562 269.46875 72.871094 269.46875 L 302.0625 269.46875 C 309.957031 269.46875 316.378906 263.046875 316.378906 255.152344 L 316.378906 119.78125 C 316.378906 111.890625 309.957031 105.46875 302.0625 105.46875 Z M 302.0625 272.554688 L 72.871094 272.554688 C 63.277344 272.554688 55.46875 264.75 55.46875 255.152344 L 55.46875 119.78125 C 55.46875 110.1875 63.277344 102.378906 72.871094 102.378906 L 302.0625 102.378906 C 311.660156 102.378906 319.464844 110.1875 319.464844 119.78125 L 319.464844 255.152344 C 319.464844 264.75 311.660156 272.554688 302.0625 272.554688 " fill-opacity="1" fill-rule="nonzero"/></g><path fill="#681307" d="M 177.839844 193.265625 L 57.234375 122.667969 L 58.792969 120.003906 L 179.402344 190.601562 L 177.839844 193.265625 " fill-opacity="1" fill-rule="nonzero"/><path fill="#681307" d="M 197.09375 193.265625 L 195.535156 190.601562 L 316.140625 120.003906 L 317.699219 122.667969 L 197.09375 193.265625 " fill-opacity="1" fill-rule="nonzero"/><path fill="#e87367" d="M 212.644531 179.386719 C 212.546875 174.6875 208.964844 166.582031 200.414062 166.085938 C 190.695312 165.523438 187.46875 174.976562 187.46875 174.976562 C 187.46875 174.976562 184.242188 165.523438 174.523438 166.085938 C 165.972656 166.582031 162.390625 174.6875 162.292969 179.386719 C 162.257812 181.136719 161.5 189.902344 170.273438 198.917969 C 177.390625 206.230469 187.46875 211.113281 187.46875 211.113281 C 187.46875 211.113281 197.542969 206.230469 204.660156 198.917969 C 213.4375 189.902344 212.679688 181.136719 212.644531 179.386719 " fill-opacity="1" fill-rule="nonzero"/><path fill="#681307" d="M 175.34375 167.605469 C 175.101562 167.605469 174.859375 167.613281 174.613281 167.628906 C 166.722656 168.085938 163.90625 175.917969 163.835938 179.417969 C 163.835938 179.507812 163.832031 179.617188 163.828125 179.742188 C 163.601562 186.371094 166.144531 192.460938 171.378906 197.839844 C 177.179688 203.796875 185.125 208.164062 187.46875 209.382812 C 189.808594 208.164062 197.757812 203.796875 203.554688 197.839844 C 208.792969 192.460938 211.332031 186.371094 211.109375 179.742188 C 211.105469 179.617188 211.101562 179.507812 211.097656 179.417969 C 211.027344 175.917969 208.214844 168.085938 200.324219 167.628906 C 191.925781 167.136719 189.046875 175.136719 188.925781 175.480469 C 188.710938 176.101562 188.125 176.519531 187.46875 176.519531 C 187.46875 176.519531 187.464844 176.519531 187.464844 176.519531 C 186.804688 176.515625 186.21875 176.097656 186.007812 175.476562 C 185.894531 175.148438 183.175781 167.605469 175.34375 167.605469 Z M 187.46875 212.65625 C 187.238281 212.65625 187.007812 212.605469 186.792969 212.5 C 186.375 212.296875 176.390625 207.414062 169.167969 199.992188 C 163.324219 193.988281 160.488281 187.140625 160.742188 179.636719 L 160.75 179.355469 C 160.867188 173.53125 165.191406 165.082031 174.433594 164.546875 C 181.011719 164.167969 185.265625 168.027344 187.46875 171.5 C 189.667969 168.027344 193.925781 164.164062 200.5 164.546875 C 209.742188 165.082031 214.066406 173.53125 214.1875 179.355469 L 214.195312 179.636719 C 214.449219 187.136719 211.613281 193.988281 205.769531 199.992188 C 198.542969 207.414062 188.5625 212.296875 188.140625 212.5 C 187.929688 212.605469 187.699219 212.65625 187.46875 212.65625 " fill-opacity="1" fill-rule="nonzero"/><path fill="#681307" d="M 299.003906 257.902344 L 195.746094 257.902344 C 194.890625 257.902344 194.199219 257.210938 194.199219 256.359375 C 194.199219 255.503906 194.890625 254.8125 195.746094 254.8125 L 299.003906 254.8125 C 299.855469 254.8125 300.546875 255.503906 300.546875 256.359375 C 300.546875 257.210938 299.855469 257.902344 299.003906 257.902344 " fill-opacity="1" fill-rule="nonzero"/><path fill="#681307" d="M 299.003906 243.320312 L 245.007812 243.320312 C 244.15625 243.320312 243.464844 242.628906 243.464844 241.777344 C 243.464844 240.925781 244.15625 240.234375 245.007812 240.234375 L 299.003906 240.234375 C 299.855469 240.234375 300.546875 240.925781 300.546875 241.777344 C 300.546875 242.628906 299.855469 243.320312 299.003906 243.320312 " fill-opacity="1" fill-rule="nonzero"/></svg>