<svg xmlns="http://www.w3.org/2000/svg" xmlns:xlink="http://www.w3.org/1999/xlink" width="500" zoomAndPan="magnify" viewBox="0 0 375 374.999991" height="500" preserveAspectRatio="xMidYMid meet" version="1.0"><defs><clipPath id="cc9ab5af6b"><path d="M 7 279 L 373 279 L 373 352.59375 L 7 352.59375 Z M 7 279 " clip-rule="nonzero"/></clipPath><clipPath id="74b2305209"><path d="M 36 279 L 373 279 L 373 352.59375 L 36 352.59375 Z M 36 279 " clip-rule="nonzero"/></clipPath></defs><path fill="#d68a5a" d="M 276.351562 77.976562 L 242.820312 67.128906 L 250.464844 24.785156 C 251.300781 20.171875 256.011719 17.351562 260.472656 18.796875 L 290.398438 28.472656 C 294.863281 29.917969 297.027344 34.960938 294.996094 39.1875 Z M 276.351562 77.976562 " fill-opacity="1" fill-rule="nonzero"/><path fill="#c47a4a" d="M 294.996094 39.183594 L 276.355469 77.976562 L 258.773438 72.289062 L 277.5 33.328125 C 279.195312 29.789062 278.027344 25.699219 275.050781 23.507812 L 290.402344 28.476562 C 294.863281 29.914062 297.023438 34.960938 294.996094 39.183594 Z M 294.996094 39.183594 " fill-opacity="1" fill-rule="nonzero"/><path fill="#eaf6ff" d="M 285.082031 146.523438 L 270.867188 119.773438 C 270.378906 118.847656 270.28125 117.761719 270.605469 116.765625 L 282.320312 80.613281 C 283.636719 76.546875 281.40625 72.183594 277.335938 70.867188 L 246.191406 60.792969 C 242.121094 59.476562 237.753906 61.707031 236.4375 65.773438 L 224.722656 101.925781 C 224.398438 102.921875 223.6875 103.746094 222.746094 104.207031 L 195.539062 117.5625 C 194.753906 117.945312 193.867188 118.042969 193.015625 117.867188 C 187.285156 116.679688 181.464844 119.972656 179.621094 125.660156 L 120.164062 309.152344 L 233.773438 345.898438 L 293.226562 162.40625 C 295.070312 156.71875 292.285156 150.640625 286.949219 148.246094 C 286.152344 147.890625 285.492188 147.292969 285.082031 146.523438 Z M 285.082031 146.523438 " fill-opacity="1" fill-rule="nonzero"/><path fill="#d9ecfd" d="M 293.230469 162.40625 L 233.769531 345.894531 L 210.375 338.324219 L 270.210938 153.648438 C 272.070312 147.914062 269.253906 141.78125 263.871094 139.371094 C 263.074219 139.015625 262.414062 138.417969 262.003906 137.652344 L 249.5 114.117188 C 247.832031 110.980469 247.511719 107.296875 248.605469 103.917969 L 259.214844 71.183594 C 259.933594 68.945312 259.59375 66.625 258.46875 64.761719 L 277.335938 70.867188 C 281.402344 72.179688 283.632812 76.546875 282.316406 80.617188 L 270.105469 118.324219 L 285.085938 146.527344 C 285.492188 147.292969 286.15625 147.894531 286.949219 148.25 C 292.285156 150.640625 295.070312 156.71875 293.230469 162.40625 Z M 293.230469 162.40625 " fill-opacity="1" fill-rule="nonzero"/><path fill="#fff2df" d="M 242.957031 172.363281 L 163.316406 284.953125 L 163.511719 285.085938 C 161.84375 290.214844 167.496094 299.054688 177.101562 305.839844 C 186.710938 312.621094 196.9375 314.996094 201.21875 311.710938 L 201.410156 311.847656 L 281.050781 199.257812 Z M 242.957031 172.363281 " fill-opacity="1" fill-rule="nonzero"/><path fill="#ffe5c4" d="M 281.046875 199.257812 L 201.414062 311.84375 L 201.21875 311.714844 C 197.050781 314.902344 187.277344 312.75 177.90625 306.390625 C 179.996094 306.367188 181.742188 305.886719 182.988281 304.933594 L 183.179688 305.066406 L 265.695312 188.414062 Z M 281.046875 199.257812 " fill-opacity="1" fill-rule="nonzero"/><path fill="#f2d6b6" d="M 236.445312 226.832031 C 235.253906 226.832031 234.054688 226.46875 233.019531 225.710938 C 230.429688 223.820312 229.867188 220.191406 231.757812 217.601562 L 253.175781 188.332031 C 255.066406 185.742188 258.703125 185.179688 261.292969 187.070312 C 263.882812 188.960938 264.445312 192.59375 262.554688 195.179688 L 241.136719 224.453125 C 240 226.007812 238.234375 226.832031 236.445312 226.832031 Z M 236.445312 226.832031 " fill-opacity="1" fill-rule="nonzero"/><path fill="#ffbc8a" d="M 268.15625 177.105469 C 268.78125 177.542969 269.394531 177.996094 269.996094 178.464844 C 270.597656 178.929688 271.183594 179.40625 271.757812 179.894531 C 272.328125 180.378906 272.886719 180.875 273.425781 181.378906 C 273.964844 181.882812 274.484375 182.394531 274.984375 182.910156 C 275.484375 183.421875 275.960938 183.941406 276.417969 184.464844 C 276.871094 184.988281 277.304688 185.507812 277.710938 186.035156 C 278.117188 186.558594 278.5 187.078125 278.855469 187.597656 C 279.210938 188.121094 279.539062 188.636719 279.835938 189.148438 C 280.136719 189.660156 280.40625 190.164062 280.648438 190.664062 C 280.886719 191.164062 281.097656 191.652344 281.277344 192.132812 C 281.457031 192.613281 281.605469 193.082031 281.722656 193.539062 C 281.839844 194 281.925781 194.441406 281.980469 194.875 C 282.035156 195.304688 282.054688 195.71875 282.042969 196.117188 C 282.035156 196.519531 281.992188 196.898438 281.914062 197.261719 C 281.839844 197.628906 281.734375 197.972656 281.597656 198.296875 C 281.457031 198.625 281.289062 198.929688 281.085938 199.210938 C 280.886719 199.496094 280.65625 199.757812 280.394531 199.996094 C 280.132812 200.234375 279.84375 200.453125 279.527344 200.644531 C 279.207031 200.835938 278.863281 201.003906 278.488281 201.148438 C 278.117188 201.292969 277.71875 201.410156 277.292969 201.503906 C 276.867188 201.597656 276.421875 201.664062 275.949219 201.707031 C 275.480469 201.75 274.988281 201.769531 274.472656 201.757812 C 273.960938 201.75 273.429688 201.714844 272.878906 201.65625 C 272.324219 201.597656 271.757812 201.511719 271.175781 201.402344 C 270.59375 201.289062 269.996094 201.152344 269.386719 200.992188 C 268.777344 200.832031 268.15625 200.648438 267.527344 200.441406 C 266.898438 200.230469 266.257812 200 265.613281 199.746094 C 264.96875 199.492188 264.320312 199.214844 263.667969 198.917969 C 263.011719 198.617188 262.359375 198.300781 261.703125 197.960938 C 261.046875 197.621094 260.394531 197.265625 259.742188 196.886719 C 259.09375 196.511719 258.445312 196.117188 257.804688 195.707031 C 257.164062 195.296875 256.535156 194.871094 255.910156 194.429688 C 255.285156 193.992188 254.671875 193.539062 254.070312 193.070312 C 253.46875 192.605469 252.882812 192.128906 252.308594 191.640625 C 251.738281 191.15625 251.179688 190.660156 250.640625 190.15625 C 250.101562 189.652344 249.582031 189.140625 249.082031 188.625 C 248.582031 188.109375 248.105469 187.59375 247.648438 187.070312 C 247.195312 186.546875 246.761719 186.023438 246.355469 185.5 C 245.949219 184.976562 245.566406 184.457031 245.210938 183.933594 C 244.855469 183.414062 244.527344 182.898438 244.230469 182.386719 C 243.929688 181.875 243.660156 181.371094 243.417969 180.871094 C 243.179688 180.371094 242.96875 179.882812 242.789062 179.402344 C 242.609375 178.921875 242.460938 178.453125 242.34375 177.996094 C 242.226562 177.535156 242.140625 177.09375 242.085938 176.660156 C 242.03125 176.230469 242.011719 175.816406 242.023438 175.417969 C 242.03125 175.015625 242.074219 174.636719 242.152344 174.269531 C 242.226562 173.90625 242.332031 173.5625 242.472656 173.238281 C 242.609375 172.910156 242.777344 172.605469 242.980469 172.324219 C 243.179688 172.039062 243.410156 171.777344 243.671875 171.539062 C 243.933594 171.300781 244.222656 171.082031 244.539062 170.890625 C 244.859375 170.699219 245.203125 170.53125 245.578125 170.386719 C 245.949219 170.242188 246.347656 170.125 246.773438 170.03125 C 247.199219 169.9375 247.644531 169.867188 248.117188 169.824219 C 248.585938 169.785156 249.078125 169.765625 249.59375 169.773438 C 250.105469 169.785156 250.636719 169.816406 251.1875 169.878906 C 251.742188 169.9375 252.308594 170.023438 252.890625 170.132812 C 253.472656 170.246094 254.070312 170.378906 254.679688 170.539062 C 255.289062 170.703125 255.910156 170.886719 256.539062 171.09375 C 257.167969 171.304688 257.808594 171.535156 258.453125 171.789062 C 259.097656 172.042969 259.746094 172.320312 260.398438 172.617188 C 261.054688 172.917969 261.707031 173.234375 262.363281 173.574219 C 263.019531 173.914062 263.671875 174.269531 264.324219 174.648438 C 264.972656 175.023438 265.621094 175.417969 266.261719 175.828125 C 266.902344 176.238281 267.535156 176.664062 268.15625 177.105469 Z M 268.15625 177.105469 " fill-opacity="1" fill-rule="nonzero"/><path fill="#fca863" d="M 281.050781 199.332031 C 278.925781 202.335938 273.6875 202.605469 267.480469 200.558594 C 267.890625 200.246094 268.242188 199.886719 268.535156 199.46875 C 271.917969 194.6875 266.132812 184.792969 255.617188 177.363281 C 251.699219 174.597656 247.6875 172.566406 244.015625 171.34375 C 248.296875 168.058594 258.523438 170.4375 268.132812 177.222656 C 278.648438 184.648438 284.433594 194.546875 281.050781 199.332031 Z M 281.050781 199.332031 " fill-opacity="1" fill-rule="nonzero"/><g clip-path="url(#cc9ab5af6b)"><path fill="#fdd1a7" d="M 364.683594 352.589844 C 371.777344 352.589844 374.753906 343.480469 368.988281 339.355469 C 341.5625 319.746094 307.96875 308.203125 271.667969 308.203125 C 271.46875 308.203125 271.265625 308.203125 271.066406 308.203125 C 249.097656 308.28125 227.476562 303.554688 207.460938 294.511719 C 186.441406 285.011719 163.113281 279.726562 138.542969 279.726562 C 86.53125 279.726562 40.070312 303.421875 9.359375 340.59375 C 5.410156 345.375 8.789062 352.589844 14.992188 352.589844 Z M 364.683594 352.589844 " fill-opacity="1" fill-rule="nonzero"/></g><g clip-path="url(#74b2305209)"><path fill="#ffbc8a" d="M 364.683594 352.585938 L 337.066406 352.585938 C 310.648438 335.175781 279.007812 325.039062 245 325.039062 L 244.398438 325.039062 C 222.433594 325.117188 200.808594 320.386719 180.796875 311.351562 C 159.777344 301.847656 136.449219 296.5625 111.878906 296.5625 C 84.671875 296.5625 58.980469 303.046875 36.265625 314.554688 C 64.550781 292.722656 100.023438 279.722656 138.546875 279.722656 C 163.113281 279.722656 186.441406 285.007812 207.460938 294.511719 C 227.472656 303.550781 249.097656 308.277344 271.0625 308.199219 L 271.667969 308.199219 C 307.964844 308.199219 341.558594 319.746094 368.984375 339.355469 C 374.753906 343.476562 371.773438 352.585938 364.683594 352.585938 Z M 364.683594 352.585938 " fill-opacity="1" fill-rule="nonzero"/></g><path fill="#ffbc8a" d="M 147.265625 327.761719 L 147.183594 327.761719 C 143.976562 327.761719 141.375 325.164062 141.375 321.960938 C 141.375 318.753906 143.976562 316.15625 147.183594 316.15625 L 147.265625 316.15625 C 150.472656 316.15625 153.074219 318.753906 153.074219 321.960938 C 153.074219 325.164062 150.472656 327.761719 147.265625 327.761719 Z M 147.265625 327.761719 " fill-opacity="1" fill-rule="nonzero"/><path fill="#d68a5a" d="M 166.199219 314.214844 L 166.117188 314.214844 C 162.910156 314.214844 160.308594 311.617188 160.308594 308.414062 C 160.308594 305.207031 162.910156 302.609375 166.117188 302.609375 L 166.199219 302.609375 C 169.40625 302.609375 172.007812 305.207031 172.007812 308.414062 C 172.007812 311.621094 169.40625 314.214844 166.199219 314.214844 Z M 166.199219 314.214844 " fill-opacity="1" fill-rule="nonzero"/><path fill="#fff2df" d="M 89.191406 331.253906 L 89.109375 331.253906 C 85.902344 331.253906 83.300781 328.65625 83.300781 325.453125 C 83.300781 322.246094 85.902344 319.648438 89.109375 319.648438 L 89.191406 319.648438 C 92.398438 319.648438 95 322.246094 95 325.453125 C 95 328.65625 92.398438 331.253906 89.191406 331.253906 Z M 89.191406 331.253906 " fill-opacity="1" fill-rule="nonzero"/><path fill="#c47a4a" d="M 263.503906 51.398438 L 263.425781 51.398438 C 260.214844 51.398438 257.617188 48.800781 257.617188 45.59375 C 257.617188 42.390625 260.214844 39.789062 263.425781 39.789062 L 263.503906 39.789062 C 266.714844 39.789062 269.3125 42.390625 269.3125 45.59375 C 269.3125 48.800781 266.714844 51.398438 263.503906 51.398438 Z M 263.503906 51.398438 " fill-opacity="1" fill-rule="nonzero"/></svg>