<svg xmlns="http://www.w3.org/2000/svg" xmlns:xlink="http://www.w3.org/1999/xlink" width="500" zoomAndPan="magnify" viewBox="0 0 375 374.999991" height="500" preserveAspectRatio="xMidYMid meet" version="1.0"><defs><clipPath id="d184eb44c7"><path d="M 136.332031 169.085938 L 238.332031 169.085938 L 238.332031 271.085938 L 136.332031 271.085938 Z M 136.332031 169.085938 " clip-rule="nonzero"/></clipPath></defs><path fill="#9e7059" d="M 187.328125 237.324219 C 193.011719 237.625 196.878906 240.839844 196.878906 240.839844 C 209.605469 239.25 217.5625 255.160156 217.5625 255.160156 C 231.886719 253.570312 236.660156 269.484375 236.660156 269.484375 L 138 269.484375 C 138 269.484375 142.773438 253.570312 157.09375 255.160156 C 157.09375 255.160156 165.050781 239.25 177.78125 240.839844 C 177.78125 240.839844 181.648438 237.625 187.328125 237.324219 Z M 187.328125 237.324219 " fill-opacity="1" fill-rule="nonzero"/><path fill="#995b3f" d="M 217.5625 255.160156 C 217.5625 255.160156 214.375 248.796875 208.8125 244.519531 C 199.289062 257.964844 185.3125 265.976562 169.640625 269.484375 L 236.660156 269.484375 C 236.660156 269.484375 231.886719 253.570312 217.5625 255.160156 Z M 217.5625 255.160156 " fill-opacity="1" fill-rule="nonzero"/><path fill="#90b541" d="M 209.605469 206.054688 L 222.925781 200.789062 C 222.925781 200.789062 221.0625 205.308594 217.832031 209.554688 C 217.609375 209.109375 216.066406 206.613281 209.605469 206.054688 Z M 209.605469 206.054688 " fill-opacity="1" fill-rule="nonzero"/><path fill="#90b541" d="M 213.203125 197.859375 C 213.347656 198.339844 213.933594 201.21875 209.605469 206.054688 L 200.757812 209.554688 L 200.726562 209.554688 C 206.425781 204.179688 204.945312 198.75 204.660156 197.875 C 207.363281 197.238281 210.402344 197.382812 213.203125 197.859375 Z M 213.203125 197.859375 " fill-opacity="1" fill-rule="nonzero"/><path fill="#90b541" d="M 200.757812 209.554688 C 208.574219 209.605469 211.199219 214.554688 211.582031 215.394531 C 207.316406 217.832031 202.097656 217.78125 196.289062 211.324219 L 200.726562 209.554688 Z M 200.757812 209.554688 " fill-opacity="1" fill-rule="nonzero"/><path fill="#90b541" d="M 193.40625 178.242188 C 192.914062 178.289062 190.226562 178.75 187.328125 184.542969 L 187.328125 170.824219 C 187.328125 170.824219 190.671875 173.960938 193.40625 178.242188 Z M 193.40625 178.242188 " fill-opacity="1" fill-rule="nonzero"/><path fill="#90b541" d="M 187.328125 184.542969 L 187.328125 194.089844 C 184.433594 186.847656 178.910156 186.195312 177.957031 186.132812 C 178.402344 183.347656 179.738281 180.578125 181.28125 178.191406 C 181.777344 178.242188 184.433594 178.75 187.328125 184.542969 Z M 187.328125 184.542969 " fill-opacity="1" fill-rule="nonzero"/><path fill="#90b541" d="M 187.328125 194.089844 C 190.226562 186.847656 195.746094 186.195312 196.703125 186.132812 C 197.496094 190.9375 195.589844 195.808594 187.328125 198.863281 Z M 187.328125 194.089844 " fill-opacity="1" fill-rule="nonzero"/><path fill="#90b541" d="M 166.644531 215.601562 L 153.324219 210.335938 C 153.324219 210.335938 157.78125 208.300781 163.046875 207.40625 C 162.902344 207.886719 162.316406 210.765625 166.644531 215.601562 Z M 166.644531 215.601562 " fill-opacity="1" fill-rule="nonzero"/><path fill="#90b541" d="M 171.59375 207.425781 C 176.367188 208.570312 180.152344 212.183594 179.960938 220.871094 L 175.523438 219.105469 C 169.824219 213.726562 171.304688 208.300781 171.59375 207.425781 Z M 171.59375 207.425781 " fill-opacity="1" fill-rule="nonzero"/><path fill="#90b541" d="M 166.644531 215.601562 L 175.492188 219.105469 C 167.675781 219.152344 165.050781 224.101562 164.667969 224.945312 C 162.234375 223.558594 160.132812 221.363281 158.417969 219.105469 C 158.640625 218.660156 160.183594 216.160156 166.644531 215.601562 Z M 166.644531 215.601562 " fill-opacity="1" fill-rule="nonzero"/><path fill="#76991f" d="M 222.925781 200.789062 L 209.605469 206.054688 C 213.933594 201.21875 213.347656 198.339844 213.203125 197.859375 C 218.46875 198.75 222.925781 200.789062 222.925781 200.789062 Z M 222.925781 200.789062 " fill-opacity="1" fill-rule="nonzero"/><path fill="#76991f" d="M 209.605469 206.054688 C 216.066406 206.613281 217.609375 209.109375 217.832031 209.554688 C 216.117188 211.816406 214.015625 214.011719 211.582031 215.394531 C 211.199219 214.554688 208.574219 209.605469 200.757812 209.554688 Z M 209.605469 206.054688 " fill-opacity="1" fill-rule="nonzero"/><path fill="#76991f" d="M 196.289062 211.324219 C 196.097656 202.632812 199.882812 199.023438 204.660156 197.875 C 204.945312 198.75 206.425781 204.179688 200.726562 209.554688 Z M 196.289062 211.324219 " fill-opacity="1" fill-rule="nonzero"/><path fill="#76991f" d="M 222.925781 200.789062 C 222.925781 200.789062 221.0625 205.308594 217.832031 209.554688 C 217.707031 209.300781 217.148438 208.378906 215.480469 207.519531 C 216.320312 206.660156 217.117188 205.722656 217.832031 204.78125 C 218.519531 203.875 219.15625 202.953125 219.710938 202.0625 Z M 222.925781 200.789062 " fill-opacity="1" fill-rule="nonzero"/><path fill="#76991f" d="M 211.582031 215.394531 C 207.316406 217.832031 202.097656 217.78125 196.289062 211.324219 L 200.171875 209.777344 C 201.15625 210.636719 202.320312 211.308594 203.65625 211.703125 C 205.359375 212.214844 206.980469 212.214844 208.507812 211.847656 C 210.5 213.28125 211.375 214.933594 211.582031 215.394531 Z M 211.582031 215.394531 " fill-opacity="1" fill-rule="nonzero"/><path fill="#627c12" d="M 217.832031 209.554688 C 216.117188 211.816406 214.015625 214.011719 211.582031 215.394531 C 211.375 214.933594 210.5 213.28125 208.507812 211.847656 C 209.574219 211.609375 210.609375 211.179688 211.582031 210.621094 C 212.996094 209.8125 214.300781 208.746094 215.480469 207.519531 C 217.148438 208.378906 217.707031 209.300781 217.832031 209.554688 Z M 217.832031 209.554688 " fill-opacity="1" fill-rule="nonzero"/><path fill="#627c12" d="M 200.171875 209.777344 L 196.289062 211.324219 C 196.222656 208.695312 196.542969 206.515625 197.148438 204.75 C 197.609375 206.675781 198.660156 208.457031 200.171875 209.777344 Z M 200.171875 209.777344 " fill-opacity="1" fill-rule="nonzero"/><path fill="#76991f" d="M 187.328125 170.824219 L 187.328125 184.542969 C 184.433594 178.75 181.777344 178.242188 181.28125 178.191406 C 184.003906 173.929688 187.328125 170.824219 187.328125 170.824219 Z M 187.328125 170.824219 " fill-opacity="1" fill-rule="nonzero"/><path fill="#76991f" d="M 196.703125 186.132812 C 195.746094 186.195312 190.226562 186.847656 187.328125 194.089844 L 187.328125 184.542969 C 190.226562 178.75 192.914062 178.289062 193.40625 178.242188 C 194.9375 180.628906 196.273438 183.363281 196.703125 186.132812 Z M 196.703125 186.132812 " fill-opacity="1" fill-rule="nonzero"/><path fill="#76991f" d="M 187.328125 197.875 L 187.328125 198.863281 C 179.070312 195.808594 177.160156 190.9375 177.957031 186.132812 C 178.910156 186.195312 184.433594 186.847656 187.328125 194.089844 Z M 187.328125 197.875 " fill-opacity="1" fill-rule="nonzero"/><path fill="#76991f" d="M 193.40625 178.242188 C 193.121094 178.273438 192.070312 178.445312 190.65625 179.785156 C 190.097656 178.480469 189.382812 177.222656 188.632812 176.042969 C 188.203125 175.375 187.773438 174.753906 187.328125 174.152344 L 187.328125 170.824219 C 187.328125 170.824219 190.671875 173.960938 193.40625 178.242188 Z M 193.40625 178.242188 " fill-opacity="1" fill-rule="nonzero"/><path fill="#76991f" d="M 187.328125 198.863281 L 187.328125 194.074219 L 187.34375 194.074219 C 188.394531 193.484375 189.351562 192.703125 190.128906 191.6875 C 191.035156 190.507812 191.59375 189.269531 191.863281 187.996094 C 194.078125 186.402344 196.144531 186.164062 196.703125 186.132812 C 197.496094 190.9375 195.589844 195.808594 187.328125 198.863281 Z M 187.328125 198.863281 " fill-opacity="1" fill-rule="nonzero"/><path fill="#627c12" d="M 191.863281 187.996094 C 192.167969 186.675781 192.152344 185.304688 191.929688 183.9375 C 191.707031 182.535156 191.261719 181.136719 190.65625 179.785156 C 192.070312 178.445312 193.121094 178.273438 193.40625 178.242188 C 194.9375 180.628906 196.273438 183.363281 196.703125 186.132812 C 196.144531 186.164062 194.078125 186.402344 191.863281 187.996094 Z M 191.863281 187.996094 " fill-opacity="1" fill-rule="nonzero"/><path fill="#627c12" d="M 187.328125 194.074219 L 187.328125 198.863281 C 184.511719 197.828125 182.445312 196.570312 180.964844 195.171875 C 183.128906 195.539062 185.386719 195.171875 187.328125 194.074219 Z M 187.328125 194.074219 " fill-opacity="1" fill-rule="nonzero"/><path fill="#76991f" d="M 153.324219 210.335938 L 166.644531 215.601562 C 160.183594 216.160156 158.640625 218.660156 158.417969 219.105469 C 155.1875 214.855469 153.324219 210.335938 153.324219 210.335938 Z M 153.324219 210.335938 " fill-opacity="1" fill-rule="nonzero"/><path fill="#76991f" d="M 175.523438 219.105469 L 175.492188 219.105469 L 166.644531 215.601562 C 162.316406 210.765625 162.902344 207.886719 163.046875 207.40625 C 165.847656 206.929688 168.886719 206.789062 171.59375 207.425781 C 171.304688 208.300781 169.824219 213.726562 175.523438 219.105469 Z M 175.523438 219.105469 " fill-opacity="1" fill-rule="nonzero"/><path fill="#76991f" d="M 175.523438 219.105469 L 179.960938 220.871094 C 174.152344 227.332031 168.933594 227.378906 164.667969 224.945312 C 165.050781 224.101562 167.675781 219.152344 175.492188 219.105469 Z M 175.523438 219.105469 " fill-opacity="1" fill-rule="nonzero"/><path fill="#76991f" d="M 179.960938 220.871094 L 176.078125 219.328125 C 177.574219 217.988281 178.640625 216.207031 179.101562 214.28125 C 179.707031 216.066406 180.027344 218.230469 179.960938 220.871094 Z M 179.960938 220.871094 " fill-opacity="1" fill-rule="nonzero"/><path fill="#76991f" d="M 167.742188 221.394531 C 165.75 222.828125 164.875 224.480469 164.667969 224.945312 C 162.234375 223.558594 160.132812 221.363281 158.417969 219.105469 C 158.542969 218.847656 159.101562 217.925781 160.769531 217.066406 C 161.949219 218.292969 163.253906 219.359375 164.667969 220.171875 C 165.640625 220.726562 166.675781 221.15625 167.742188 221.394531 Z M 167.742188 221.394531 " fill-opacity="1" fill-rule="nonzero"/><path fill="#627c12" d="M 160.769531 217.066406 C 159.101562 217.925781 158.542969 218.847656 158.417969 219.105469 C 155.1875 214.855469 153.324219 210.335938 153.324219 210.335938 L 156.539062 211.609375 C 157.09375 212.5 157.730469 213.421875 158.417969 214.332031 C 159.132812 215.269531 159.929688 216.207031 160.769531 217.066406 Z M 160.769531 217.066406 " fill-opacity="1" fill-rule="nonzero"/><path fill="#627c12" d="M 179.960938 220.871094 C 174.152344 227.332031 168.933594 227.378906 164.667969 224.945312 C 164.875 224.480469 165.75 222.828125 167.742188 221.394531 C 169.269531 221.761719 170.890625 221.761719 172.59375 221.253906 C 173.929688 220.855469 175.09375 220.1875 176.078125 219.328125 Z M 179.960938 220.871094 " fill-opacity="1" fill-rule="nonzero"/><g clip-path="url(#d184eb44c7)"><path fill="#472b3c" d="M 136.722656 270.433594 C 137.023438 270.835938 137.496094 271.074219 138 271.074219 L 236.660156 271.074219 C 237.164062 271.074219 237.636719 270.835938 237.9375 270.433594 C 238.238281 270.03125 238.332031 269.507812 238.1875 269.027344 C 238.136719 268.859375 233.121094 252.683594 218.472656 253.488281 C 216.472656 249.964844 208.910156 238.203125 197.335938 239.195312 C 196.128906 238.335938 193.070312 236.460938 188.921875 235.890625 L 188.921875 223.765625 C 192.703125 217.195312 195.019531 214.484375 196.113281 213.425781 C 199.4375 216.769531 202.867188 218.472656 206.351562 218.472656 C 206.972656 218.472656 207.597656 218.417969 208.222656 218.3125 C 218.03125 216.621094 224.140625 202.007812 224.394531 201.386719 C 224.722656 200.597656 224.363281 199.691406 223.585938 199.335938 C 222.972656 199.058594 208.519531 192.578125 200.210938 198.050781 C 196.601562 200.429688 194.769531 204.613281 194.714844 210.453125 C 193.617188 211.308594 191.75 213.257812 188.921875 217.636719 L 188.921875 199.929688 C 194.253906 197.714844 197.410156 194.503906 198.246094 190.34375 C 200.167969 180.785156 188.898438 170.113281 188.414062 169.664062 C 187.804688 169.089844 186.851562 169.089844 186.242188 169.664062 C 185.761719 170.113281 174.488281 180.785156 176.414062 190.34375 C 177.25 194.503906 180.40625 197.714844 185.738281 199.929688 L 185.738281 226.96875 C 183.792969 223.675781 182.347656 221.382812 181.539062 220.296875 C 181.546875 214.300781 179.710938 210.015625 176.039062 207.597656 C 167.730469 202.125 153.277344 208.605469 152.664062 208.882812 C 151.886719 209.238281 151.527344 210.144531 151.855469 210.933594 C 152.109375 211.554688 158.21875 226.167969 168.027344 227.859375 C 168.652344 227.964844 169.277344 228.019531 169.898438 228.019531 C 173.257812 228.019531 176.570312 226.453125 179.78125 223.34375 C 180.722656 224.785156 182.507812 227.667969 185.738281 233.308594 L 185.738281 235.890625 C 181.589844 236.460938 178.53125 238.335938 177.324219 239.195312 C 172.734375 238.800781 168.257812 240.394531 164.03125 243.929688 C 163.355469 244.496094 163.265625 245.5 163.832031 246.171875 C 164.394531 246.847656 165.394531 246.9375 166.074219 246.371094 C 169.796875 243.257812 173.667969 241.933594 177.585938 242.417969 C 178.019531 242.476562 178.460938 242.34375 178.800781 242.0625 C 178.832031 242.039062 181.574219 239.804688 185.738281 239.109375 L 185.738281 244.496094 C 185.214844 244.351562 184.875 244.199219 184.851562 244.1875 C 184.0625 243.800781 183.117188 244.121094 182.722656 244.902344 C 182.328125 245.6875 182.648438 246.644531 183.433594 247.039062 C 183.539062 247.089844 185.21875 247.910156 187.457031 247.910156 C 188.613281 247.910156 189.914062 247.691406 191.222656 247.039062 C 192.011719 246.644531 192.328125 245.6875 191.933594 244.902344 C 191.542969 244.117188 190.585938 243.796875 189.800781 244.191406 C 189.507812 244.339844 189.210938 244.449219 188.921875 244.53125 L 188.921875 239.109375 C 193.054688 239.808594 195.832031 242.039062 195.859375 242.0625 C 196.199219 242.34375 196.640625 242.476562 197.078125 242.417969 C 208.523438 240.984375 216.070312 255.726562 216.144531 255.875 C 216.441406 256.46875 217.074219 256.820312 217.742188 256.742188 C 227.71875 255.644531 232.597656 263.902344 234.355469 267.890625 L 140.328125 267.890625 C 142.113281 263.917969 147.074219 255.65625 156.917969 256.742188 C 157.589844 256.820312 158.21875 256.46875 158.519531 255.875 C 158.53125 255.847656 160.011719 252.925781 162.636719 249.824219 C 163.203125 249.152344 163.117188 248.148438 162.445312 247.582031 C 161.777344 247.011719 160.773438 247.101562 160.203125 247.769531 C 158.242188 250.085938 156.882812 252.28125 156.195312 253.488281 C 141.589844 252.652344 136.527344 268.859375 136.476562 269.027344 C 136.332031 269.507812 136.421875 270.03125 136.722656 270.433594 Z M 207.683594 215.171875 C 204.878906 215.660156 202 214.5625 199.109375 211.910156 L 201 211.164062 C 205.667969 211.261719 208.117188 213.261719 209.28125 214.714844 C 208.757812 214.914062 208.226562 215.078125 207.683594 215.171875 Z M 212.097656 213.171875 C 211.132812 211.847656 209.390625 210.078125 206.519531 208.980469 L 209.828125 207.671875 C 213.257812 208.023438 214.980469 208.953125 215.78125 209.601562 C 214.679688 210.9375 213.445312 212.1875 212.097656 213.171875 Z M 217.679688 207.054688 C 217.054688 206.5625 216.183594 206.058594 215.035156 205.613281 L 219.671875 203.777344 C 219.121094 204.78125 218.457031 205.902344 217.679688 207.054688 Z M 213.867188 202.652344 C 214.398438 201.546875 214.6875 200.585938 214.8125 199.800781 C 216.164062 200.105469 217.414062 200.46875 218.5 200.820312 Z M 211.679688 199.238281 C 211.539062 200.261719 210.914062 202.113281 208.652344 204.714844 L 205.347656 206.023438 C 206.691406 203.257812 206.753906 200.777344 206.550781 199.152344 C 208.210938 198.949219 209.964844 199.019531 211.679688 199.238281 Z M 201.957031 200.710938 C 202.421875 200.40625 202.925781 200.164062 203.441406 199.949219 C 203.585938 201.804688 203.167969 204.945312 199.828125 208.207031 L 197.9375 208.953125 C 198.238281 205.042969 199.585938 202.277344 201.957031 200.710938 Z M 178.3125 218.5 L 176.417969 217.75 C 173.082031 214.492188 172.664062 211.355469 172.808594 209.496094 C 173.324219 209.710938 173.828125 209.953125 174.292969 210.257812 C 176.664062 211.824219 178.011719 214.589844 178.3125 218.5 Z M 169.699219 208.699219 C 169.496094 210.324219 169.558594 212.804688 170.902344 215.570312 L 167.59375 214.261719 C 165.335938 211.660156 164.714844 209.808594 164.570312 208.789062 C 166.289062 208.566406 168.039062 208.5 169.699219 208.699219 Z M 156.582031 213.328125 L 161.214844 215.160156 C 160.070312 215.605469 159.199219 216.105469 158.574219 216.597656 C 157.796875 215.449219 157.132812 214.328125 156.582031 213.328125 Z M 157.75 210.371094 C 158.835938 210.015625 160.089844 209.65625 161.4375 209.347656 C 161.5625 210.136719 161.851562 211.09375 162.382812 212.199219 Z M 160.472656 219.148438 C 161.277344 218.496094 162.996094 217.574219 166.421875 217.21875 L 169.730469 218.527344 C 166.859375 219.625 165.117188 221.390625 164.15625 222.71875 C 162.808594 221.730469 161.574219 220.480469 160.472656 219.148438 Z M 168.570312 224.722656 C 168.023438 224.628906 167.492188 224.460938 166.96875 224.261719 C 168.132812 222.808594 170.582031 220.808594 175.246094 220.710938 L 177.140625 221.460938 C 174.25 224.105469 171.375 225.203125 168.570312 224.722656 Z M 185.738281 184.9375 L 185.738281 188.492188 C 183.683594 186.242188 181.425781 185.269531 179.847656 184.855469 C 180.3125 183.234375 181.070312 181.632812 181.945312 180.132812 C 182.78125 180.648438 184.175781 181.914062 185.738281 184.9375 Z M 192.730469 180.164062 C 193.601562 181.652344 194.351562 183.246094 194.808594 184.855469 C 193.230469 185.269531 190.976562 186.242188 188.921875 188.488281 L 188.921875 184.941406 C 190.484375 181.917969 191.886719 180.667969 192.730469 180.164062 Z M 195.125 189.71875 C 194.570312 192.480469 192.484375 194.742188 188.921875 196.46875 L 188.921875 194.429688 C 190.738281 190.105469 193.5 188.566406 195.269531 188.023438 C 195.269531 188.597656 195.238281 189.164062 195.125 189.71875 Z M 190.984375 177.5 C 190.359375 177.886719 189.660156 178.46875 188.921875 179.28125 L 188.921875 174.867188 C 189.570312 175.632812 190.277344 176.523438 190.984375 177.5 Z M 185.738281 174.867188 L 185.738281 179.253906 C 185.003906 178.441406 184.3125 177.859375 183.699219 177.46875 C 184.394531 176.503906 185.09375 175.625 185.738281 174.867188 Z M 179.535156 189.71875 C 179.421875 189.164062 179.386719 188.597656 179.386719 188.023438 C 181.160156 188.566406 183.921875 190.105469 185.738281 194.429688 L 185.738281 196.46875 C 182.175781 194.742188 180.089844 192.480469 179.535156 189.71875 Z M 179.535156 189.71875 " fill-opacity="1" fill-rule="nonzero"/></g><path fill="#472b3c" d="M 171.726562 252.683594 C 172.230469 252.21875 172.5 252.484375 172.679688 252.664062 C 172.988281 252.972656 173.398438 253.128906 173.804688 253.128906 C 174.210938 253.128906 174.617188 252.972656 174.929688 252.664062 C 175.550781 252.039062 175.550781 251.035156 174.929688 250.414062 C 172.9375 248.417969 170.589844 249.320312 169.496094 250.414062 C 168.882812 251.023438 168.886719 252.003906 169.488281 252.628906 C 170.085938 253.253906 171.089844 253.273438 171.726562 252.683594 Z M 171.726562 252.683594 " fill-opacity="1" fill-rule="nonzero"/><path fill="#472b3c" d="M 155.175781 261.550781 C 154.5625 262.164062 154.566406 263.140625 155.164062 263.765625 C 155.765625 264.390625 156.765625 264.410156 157.40625 263.820312 C 157.90625 263.355469 158.179688 263.625 158.355469 263.800781 C 158.667969 264.113281 159.074219 264.265625 159.480469 264.265625 C 159.890625 264.265625 160.296875 264.113281 160.605469 263.800781 C 161.230469 263.179688 161.230469 262.171875 160.605469 261.550781 C 158.617188 259.558594 156.265625 260.457031 155.175781 261.550781 Z M 155.175781 261.550781 " fill-opacity="1" fill-rule="nonzero"/><path fill="#472b3c" d="M 181.273438 260.640625 C 181.777344 260.175781 182.050781 260.441406 182.226562 260.617188 C 182.535156 260.929688 182.945312 261.085938 183.351562 261.085938 C 183.757812 261.085938 184.164062 260.929688 184.476562 260.617188 C 185.097656 259.996094 185.097656 258.988281 184.476562 258.367188 C 182.484375 256.375 180.136719 257.273438 179.042969 258.367188 C 178.429688 258.980469 178.433594 259.960938 179.035156 260.582031 C 179.632812 261.207031 180.636719 261.226562 181.273438 260.640625 Z M 181.273438 260.640625 " fill-opacity="1" fill-rule="nonzero"/><path fill="#472b3c" d="M 197.1875 252.683594 C 197.6875 252.21875 197.960938 252.484375 198.140625 252.664062 C 198.449219 252.972656 198.855469 253.128906 199.265625 253.128906 C 199.671875 253.128906 200.078125 252.972656 200.390625 252.664062 C 201.011719 252.039062 201.011719 251.035156 200.390625 250.414062 C 198.394531 248.417969 196.046875 249.320312 194.957031 250.414062 C 194.34375 251.023438 194.347656 252.003906 194.945312 252.628906 C 195.546875 253.253906 196.550781 253.273438 197.1875 252.683594 Z M 197.1875 252.683594 " fill-opacity="1" fill-rule="nonzero"/><path fill="#472b3c" d="M 208.324219 259.046875 C 208.828125 258.582031 209.101562 258.847656 209.277344 259.027344 C 209.589844 259.339844 209.996094 259.492188 210.402344 259.492188 C 210.808594 259.492188 211.21875 259.339844 211.527344 259.027344 C 212.148438 258.40625 212.148438 257.398438 211.527344 256.777344 C 209.535156 254.785156 207.1875 255.683594 206.09375 256.777344 C 205.484375 257.390625 205.484375 258.367188 206.085938 258.992188 C 206.6875 259.617188 207.6875 259.636719 208.324219 259.046875 Z M 208.324219 259.046875 " fill-opacity="1" fill-rule="nonzero"/><path fill="#472b3c" d="M 221.054688 265.414062 C 221.558594 264.945312 221.832031 265.214844 222.007812 265.390625 C 222.320312 265.703125 222.726562 265.859375 223.132812 265.859375 C 223.539062 265.859375 223.945312 265.703125 224.257812 265.390625 C 224.878906 264.769531 224.878906 263.765625 224.257812 263.140625 C 222.265625 261.148438 219.917969 262.050781 218.824219 263.140625 C 218.214844 263.753906 218.214844 264.734375 218.816406 265.359375 C 219.414062 265.980469 220.417969 266 221.054688 265.414062 Z M 221.054688 265.414062 " fill-opacity="1" fill-rule="nonzero"/></svg>