<svg xmlns="http://www.w3.org/2000/svg" xmlns:xlink="http://www.w3.org/1999/xlink" width="500" zoomAndPan="magnify" viewBox="0 0 375 374.999991" height="500" preserveAspectRatio="xMidYMid meet" version="1.0"><defs><clipPath id="6b08ffb2fd"><path d="M 100 251 L 270 251 L 270 304.972656 L 100 304.972656 Z M 100 251 " clip-rule="nonzero"/></clipPath><clipPath id="b6364a76c4"><path d="M 166.875 176.429688 L 175.761719 176.429688 L 175.761719 212.863281 L 166.875 212.863281 Z M 166.875 176.429688 " clip-rule="nonzero"/></clipPath><clipPath id="db86340116"><path d="M 171.238281 212.863281 C 171.214844 204.507812 169.984375 197.007812 168.683594 189.0625 C 168.035156 185.121094 167.382812 181.128906 166.875 176.984375 L 171.363281 176.429688 C 171.863281 180.515625 172.507812 184.445312 173.148438 188.335938 C 174.417969 196.101562 175.734375 204.132812 175.761719 212.847656 Z M 171.238281 212.863281 " clip-rule="nonzero"/></clipPath><clipPath id="ba434aa17a"><path d="M 171.238281 212.863281 C 171.214844 204.507812 169.984375 197.007812 168.683594 189.0625 C 168.035156 185.121094 167.382812 181.128906 166.875 176.984375 L 171.363281 176.429688 C 171.863281 180.515625 172.507812 184.445312 173.148438 188.335938 C 174.417969 196.101562 175.734375 204.132812 175.761719 212.847656 L 171.238281 212.863281 " clip-rule="nonzero"/></clipPath><linearGradient x1="-0.00000238006" gradientTransform="matrix(8.887678, 0, 0, 8.878196, 166.876099, 194.646545)" y1="0" x2="0.999986" gradientUnits="userSpaceOnUse" y2="0" id="d22392bdce"><stop stop-opacity="1" stop-color="rgb(24.299622%, 47.499084%, 18.798828%)" offset="0"/><stop stop-opacity="1" stop-color="rgb(24.494934%, 47.645569%, 18.798828%)" offset="0.015625"/><stop stop-opacity="1" stop-color="rgb(24.694824%, 47.795105%, 18.797302%)" offset="0.03125"/><stop stop-opacity="1" stop-color="rgb(24.699402%, 47.799683%, 18.600464%)" offset="0.0625"/><stop stop-opacity="1" stop-color="rgb(24.797058%, 47.895813%, 18.4021%)" offset="0.0703125"/><stop stop-opacity="1" stop-color="rgb(24.996948%, 48.095703%, 18.400574%)" offset="0.078125"/><stop stop-opacity="1" stop-color="rgb(25.099182%, 48.199463%, 18.597412%)" offset="0.09375"/><stop stop-opacity="1" stop-color="rgb(25.099182%, 48.199463%, 18.795776%)" offset="0.125"/><stop stop-opacity="1" stop-color="rgb(25.19989%, 48.300171%, 18.798828%)" offset="0.140625"/><stop stop-opacity="1" stop-color="rgb(25.402832%, 48.500061%, 18.798828%)" offset="0.15625"/><stop stop-opacity="1" stop-color="rgb(25.700378%, 48.599243%, 18.798828%)" offset="0.171875"/><stop stop-opacity="1" stop-color="rgb(25.897217%, 48.79303%, 18.798828%)" offset="0.1875"/><stop stop-opacity="1" stop-color="rgb(25.900269%, 48.99292%, 18.798828%)" offset="0.203125"/><stop stop-opacity="1" stop-color="rgb(26.097107%, 48.999023%, 18.798828%)" offset="0.21875"/><stop stop-opacity="1" stop-color="rgb(26.295471%, 48.999023%, 18.798828%)" offset="0.25"/><stop stop-opacity="1" stop-color="rgb(26.493835%, 49.194336%, 18.798828%)" offset="0.265625"/><stop stop-opacity="1" stop-color="rgb(26.693726%, 49.394226%, 18.798828%)" offset="0.28125"/><stop stop-opacity="1" stop-color="rgb(26.699829%, 49.398804%, 18.798828%)" offset="0.3125"/><stop stop-opacity="1" stop-color="rgb(26.795959%, 49.49646%, 18.798828%)" offset="0.320313"/><stop stop-opacity="1" stop-color="rgb(26.99585%, 49.69635%, 18.798828%)" offset="0.328125"/><stop stop-opacity="1" stop-color="rgb(27.099609%, 49.798584%, 18.798828%)" offset="0.34375"/><stop stop-opacity="1" stop-color="rgb(27.099609%, 49.803162%, 18.798828%)" offset="0.359375"/><stop stop-opacity="1" stop-color="rgb(27.099609%, 50.003052%, 18.798828%)" offset="0.375"/><stop stop-opacity="1" stop-color="rgb(27.200317%, 50.198364%, 18.798828%)" offset="0.390625"/><stop stop-opacity="1" stop-color="rgb(27.400208%, 50.19989%, 18.798828%)" offset="0.40625"/><stop stop-opacity="1" stop-color="rgb(27.644348%, 50.392151%, 18.798828%)" offset="0.4375"/><stop stop-opacity="1" stop-color="rgb(27.793884%, 50.592041%, 18.798828%)" offset="0.46875"/><stop stop-opacity="1" stop-color="rgb(27.900696%, 50.700378%, 18.798828%)" offset="0.476563"/><stop stop-opacity="1" stop-color="rgb(28.100586%, 50.900269%, 18.798828%)" offset="0.484375"/><stop stop-opacity="1" stop-color="rgb(28.199768%, 50.999451%, 18.798828%)" offset="0.5"/><stop stop-opacity="1" stop-color="rgb(28.199768%, 50.999451%, 18.798828%)" offset="0.515625"/><stop stop-opacity="1" stop-color="rgb(28.297424%, 51.098633%, 18.798828%)" offset="0.523438"/><stop stop-opacity="1" stop-color="rgb(28.497314%, 51.298523%, 18.798828%)" offset="0.53125"/><stop stop-opacity="1" stop-color="rgb(28.599548%, 51.399231%, 18.798828%)" offset="0.5625"/><stop stop-opacity="1" stop-color="rgb(28.601074%, 51.400757%, 18.798828%)" offset="0.578125"/><stop stop-opacity="1" stop-color="rgb(28.797913%, 51.597595%, 18.798828%)" offset="0.59375"/><stop stop-opacity="1" stop-color="rgb(28.996277%, 51.795959%, 18.798828%)" offset="0.625"/><stop stop-opacity="1" stop-color="rgb(28.999329%, 51.799011%, 18.798828%)" offset="0.640625"/><stop stop-opacity="1" stop-color="rgb(28.999329%, 51.898193%, 18.798828%)" offset="0.648438"/><stop stop-opacity="1" stop-color="rgb(29.000854%, 52.098083%, 18.798828%)" offset="0.65625"/><stop stop-opacity="1" stop-color="rgb(29.197693%, 52.198792%, 18.798828%)" offset="0.6875"/><stop stop-opacity="1" stop-color="rgb(29.493713%, 52.272034%, 18.798828%)" offset="0.695312"/><stop stop-opacity="1" stop-color="rgb(29.696655%, 52.42157%, 18.798828%)" offset="0.703125"/><stop stop-opacity="1" stop-color="rgb(29.798889%, 52.49939%, 18.798828%)" offset="0.71875"/><stop stop-opacity="1" stop-color="rgb(29.798889%, 52.49939%, 18.798828%)" offset="0.75"/><stop stop-opacity="1" stop-color="rgb(29.899597%, 52.600098%, 18.798828%)" offset="0.765625"/><stop stop-opacity="1" stop-color="rgb(30.102539%, 52.799988%, 18.798828%)" offset="0.78125"/><stop stop-opacity="1" stop-color="rgb(30.400085%, 52.89917%, 18.798828%)" offset="0.796875"/><stop stop-opacity="1" stop-color="rgb(30.596924%, 53.092957%, 18.798828%)" offset="0.8125"/><stop stop-opacity="1" stop-color="rgb(30.696106%, 53.292847%, 18.798828%)" offset="0.820312"/><stop stop-opacity="1" stop-color="rgb(30.89447%, 53.29895%, 18.798828%)" offset="0.828125"/><stop stop-opacity="1" stop-color="rgb(30.801392%, 53.29895%, 18.798828%)" offset="0.84375"/><stop stop-opacity="1" stop-color="rgb(30.702209%, 53.29895%, 18.798828%)" offset="0.851562"/><stop stop-opacity="1" stop-color="rgb(30.899048%, 53.303528%, 18.798828%)" offset="0.859375"/><stop stop-opacity="1" stop-color="rgb(30.999756%, 53.503418%, 18.798828%)" offset="0.875"/><stop stop-opacity="1" stop-color="rgb(31.193542%, 53.69873%, 18.798828%)" offset="0.890625"/><stop stop-opacity="1" stop-color="rgb(31.393433%, 53.701782%, 18.798828%)" offset="0.90625"/><stop stop-opacity="1" stop-color="rgb(31.399536%, 53.900146%, 18.798828%)" offset="0.921875"/><stop stop-opacity="1" stop-color="rgb(31.399536%, 54.096985%, 18.798828%)" offset="0.9375"/><stop stop-opacity="1" stop-color="rgb(31.495667%, 54.098511%, 18.798828%)" offset="0.945312"/><stop stop-opacity="1" stop-color="rgb(31.695557%, 54.098511%, 18.798828%)" offset="0.953125"/><stop stop-opacity="1" stop-color="rgb(31.799316%, 54.098511%, 18.798828%)" offset="0.96875"/><stop stop-opacity="1" stop-color="rgb(31.799316%, 54.199219%, 18.798828%)" offset="0.976562"/><stop stop-opacity="1" stop-color="rgb(31.803894%, 54.399109%, 18.798828%)" offset="0.984375"/><stop stop-opacity="1" stop-color="rgb(32.003784%, 54.499817%, 18.798828%)" offset="1"/></linearGradient><clipPath id="6c22f45e76"><path d="M 169.746094 140.835938 L 265.105469 140.835938 L 265.105469 283.464844 L 169.746094 283.464844 Z M 169.746094 140.835938 " clip-rule="nonzero"/></clipPath><clipPath id="0c1b45a7ef"><path d="M 265.023438 140.914062 C 238.542969 149.179688 170.113281 147.234375 169.800781 225.90625 L 169.796875 283.445312 L 175.765625 283.445312 L 175.765625 226.226562 C 265.910156 222.9375 259.179688 146.75 265.023438 140.914062 Z M 265.023438 140.914062 " clip-rule="nonzero"/></clipPath><clipPath id="a31d02726b"><path d="M 265.023438 140.914062 C 238.546875 149.179688 170.117188 147.234375 169.800781 225.90625 L 169.796875 283.445312 L 175.765625 283.445312 L 175.765625 226.222656 C 265.910156 222.9375 259.179688 146.75 265.023438 140.914062 " clip-rule="nonzero"/></clipPath><clipPath id="d602124369"><path d="M 241.882812 99.339844 L 108.011719 176.546875 L 193.824219 325.019531 L 327.695312 247.8125 Z M 241.882812 99.339844 " clip-rule="nonzero"/></clipPath><linearGradient x1="-0.349291" gradientTransform="matrix(46.907725, 81.15988, -81.246565, 46.857676, 191.02202, 166.468356)" y1="0" x2="1.47582" gradientUnits="userSpaceOnUse" y2="0" id="31af353e53"><stop stop-opacity="1" stop-color="rgb(24.299622%, 47.499084%, 18.798828%)" offset="0"/><stop stop-opacity="1" stop-color="rgb(24.299622%, 47.499084%, 18.798828%)" offset="0.125"/><stop stop-opacity="1" stop-color="rgb(24.299622%, 47.499084%, 18.798828%)" offset="0.1875"/><stop stop-opacity="1" stop-color="rgb(24.487305%, 47.639465%, 18.798828%)" offset="0.203125"/><stop stop-opacity="1" stop-color="rgb(24.687195%, 47.790527%, 18.798828%)" offset="0.21875"/><stop stop-opacity="1" stop-color="rgb(24.890137%, 47.990417%, 18.791199%)" offset="0.234375"/><stop stop-opacity="1" stop-color="rgb(25.090027%, 48.190308%, 18.791199%)" offset="0.25"/><stop stop-opacity="1" stop-color="rgb(25.271606%, 48.371887%, 18.798828%)" offset="0.265625"/><stop stop-opacity="1" stop-color="rgb(25.471497%, 48.571777%, 18.798828%)" offset="0.273438"/><stop stop-opacity="1" stop-color="rgb(25.686646%, 48.599243%, 18.798828%)" offset="0.28125"/><stop stop-opacity="1" stop-color="rgb(25.886536%, 48.786926%, 18.798828%)" offset="0.296875"/><stop stop-opacity="1" stop-color="rgb(26.071167%, 48.986816%, 18.798828%)" offset="0.304688"/><stop stop-opacity="1" stop-color="rgb(26.271057%, 48.999023%, 18.798828%)" offset="0.3125"/><stop stop-opacity="1" stop-color="rgb(26.298523%, 48.999023%, 18.798828%)" offset="0.328125"/><stop stop-opacity="1" stop-color="rgb(26.475525%, 49.176025%, 18.621826%)" offset="0.335938"/><stop stop-opacity="1" stop-color="rgb(26.675415%, 49.375916%, 18.59436%)" offset="0.34375"/><stop stop-opacity="1" stop-color="rgb(26.699829%, 49.398804%, 18.769836%)" offset="0.359375"/><stop stop-opacity="1" stop-color="rgb(26.879883%, 49.580383%, 18.798828%)" offset="0.367188"/><stop stop-opacity="1" stop-color="rgb(27.079773%, 49.780273%, 18.798828%)" offset="0.375"/><stop stop-opacity="1" stop-color="rgb(27.288818%, 49.987793%, 18.798828%)" offset="0.40625"/><stop stop-opacity="1" stop-color="rgb(27.488708%, 50.37384%, 18.798828%)" offset="0.421875"/><stop stop-opacity="1" stop-color="rgb(27.648926%, 50.584412%, 18.798828%)" offset="0.4375"/><stop stop-opacity="1" stop-color="rgb(27.973938%, 50.773621%, 18.798828%)" offset="0.453125"/><stop stop-opacity="1" stop-color="rgb(28.173828%, 50.973511%, 18.798828%)" offset="0.46875"/><stop stop-opacity="1" stop-color="rgb(28.388977%, 51.18866%, 18.798828%)" offset="0.484375"/><stop stop-opacity="1" stop-color="rgb(28.588867%, 51.38855%, 18.798828%)" offset="0.5"/><stop stop-opacity="1" stop-color="rgb(28.75824%, 51.557922%, 18.798828%)" offset="0.515625"/><stop stop-opacity="1" stop-color="rgb(28.95813%, 51.757812%, 18.798828%)" offset="0.53125"/><stop stop-opacity="1" stop-color="rgb(28.999329%, 51.96228%, 18.798828%)" offset="0.546875"/><stop stop-opacity="1" stop-color="rgb(29.176331%, 52.16217%, 18.798828%)" offset="0.5625"/><stop stop-opacity="1" stop-color="rgb(29.544067%, 52.325439%, 18.798828%)" offset="0.578125"/><stop stop-opacity="1" stop-color="rgb(29.766846%, 52.474976%, 18.798828%)" offset="0.59375"/><stop stop-opacity="1" stop-color="rgb(29.951477%, 52.49939%, 18.798828%)" offset="0.601562"/><stop stop-opacity="1" stop-color="rgb(30.151367%, 52.668762%, 18.798828%)" offset="0.609375"/><stop stop-opacity="1" stop-color="rgb(30.198669%, 52.868652%, 18.798828%)" offset="0.625"/><stop stop-opacity="1" stop-color="rgb(30.374146%, 52.89917%, 18.798828%)" offset="0.640625"/><stop stop-opacity="1" stop-color="rgb(30.743408%, 53.067017%, 18.798828%)" offset="0.648438"/><stop stop-opacity="1" stop-color="rgb(30.799866%, 53.266907%, 18.798828%)" offset="0.65625"/><stop stop-opacity="1" stop-color="rgb(30.793762%, 53.460693%, 18.798828%)" offset="0.664062"/><stop stop-opacity="1" stop-color="rgb(30.961609%, 53.660583%, 18.798828%)" offset="0.671875"/><stop stop-opacity="1" stop-color="rgb(31.150818%, 53.69873%, 18.798828%)" offset="0.679688"/><stop stop-opacity="1" stop-color="rgb(31.350708%, 53.69873%, 18.798828%)" offset="0.6875"/><stop stop-opacity="1" stop-color="rgb(31.399536%, 53.860474%, 18.798828%)" offset="0.695312"/><stop stop-opacity="1" stop-color="rgb(31.399536%, 54.060364%, 18.798828%)" offset="0.703125"/><stop stop-opacity="1" stop-color="rgb(31.575012%, 54.098511%, 18.798828%)" offset="0.71875"/><stop stop-opacity="1" stop-color="rgb(31.774902%, 54.244995%, 18.798828%)" offset="0.726562"/><stop stop-opacity="1" stop-color="rgb(31.799316%, 54.444885%, 18.798828%)" offset="0.734375"/><stop stop-opacity="1" stop-color="rgb(31.976318%, 54.499817%, 18.798828%)" offset="0.75"/><stop stop-opacity="1" stop-color="rgb(32.176208%, 54.499817%, 18.798828%)" offset="1"/></linearGradient><clipPath id="4c57e9758f"><path d="M 102.203125 161.765625 L 163.699219 161.765625 L 163.699219 226.332031 L 102.203125 226.332031 Z M 102.203125 161.765625 " clip-rule="nonzero"/></clipPath><clipPath id="5b51f97216"><path d="M 102.203125 161.765625 C 115.359375 164.058594 153.75 164.074219 163.699219 226.226562 C 120.914062 229.167969 102.203125 161.765625 102.203125 161.765625 Z M 102.203125 161.765625 " clip-rule="nonzero"/></clipPath><clipPath id="3ee571aeb2"><path d="M 102.203125 161.765625 C 115.359375 164.058594 153.75 164.074219 163.699219 226.226562 C 120.914062 229.167969 102.203125 161.765625 102.203125 161.765625 " clip-rule="nonzero"/></clipPath><linearGradient x1="-0.000159373" gradientTransform="matrix(0, -64.555311, 64.624258, 0, 132.951463, 226.320538)" y1="0" x2="0.999998" gradientUnits="userSpaceOnUse" y2="0" id="3a72e66e2c"><stop stop-opacity="1" stop-color="rgb(24.299622%, 47.499084%, 18.798828%)" offset="0"/><stop stop-opacity="1" stop-color="rgb(24.423218%, 47.592163%, 18.798828%)" offset="0.015625"/><stop stop-opacity="1" stop-color="rgb(24.623108%, 47.743225%, 18.798828%)" offset="0.03125"/><stop stop-opacity="1" stop-color="rgb(24.803162%, 47.799683%, 18.693542%)" offset="0.0625"/><stop stop-opacity="1" stop-color="rgb(25.003052%, 47.897339%, 18.592834%)" offset="0.078125"/><stop stop-opacity="1" stop-color="rgb(25.099182%, 48.097229%, 18.696594%)" offset="0.09375"/><stop stop-opacity="1" stop-color="rgb(25.170898%, 48.271179%, 18.798828%)" offset="0.125"/><stop stop-opacity="1" stop-color="rgb(25.419617%, 48.471069%, 18.798828%)" offset="0.15625"/><stop stop-opacity="1" stop-color="rgb(25.747681%, 48.64502%, 18.798828%)" offset="0.171875"/><stop stop-opacity="1" stop-color="rgb(25.898743%, 48.84491%, 18.798828%)" offset="0.1875"/><stop stop-opacity="1" stop-color="rgb(25.930786%, 48.999023%, 18.798828%)" offset="0.203125"/><stop stop-opacity="1" stop-color="rgb(26.130676%, 48.999023%, 18.798828%)" offset="0.21875"/><stop stop-opacity="1" stop-color="rgb(26.304626%, 49.005127%, 18.798828%)" offset="0.25"/><stop stop-opacity="1" stop-color="rgb(26.506042%, 49.205017%, 18.798828%)" offset="0.3125"/><stop stop-opacity="1" stop-color="rgb(26.863098%, 49.563599%, 18.798828%)" offset="0.328125"/><stop stop-opacity="1" stop-color="rgb(27.062988%, 49.763489%, 18.798828%)" offset="0.34375"/><stop stop-opacity="1" stop-color="rgb(27.235413%, 49.934387%, 18.798828%)" offset="0.375"/><stop stop-opacity="1" stop-color="rgb(27.435303%, 50.135803%, 18.798828%)" offset="0.40625"/><stop stop-opacity="1" stop-color="rgb(27.520752%, 50.227356%, 18.798828%)" offset="0.421875"/><stop stop-opacity="1" stop-color="rgb(27.670288%, 50.427246%, 18.798828%)" offset="0.4375"/><stop stop-opacity="1" stop-color="rgb(27.886963%, 50.686646%, 18.798828%)" offset="0.46875"/><stop stop-opacity="1" stop-color="rgb(28.086853%, 50.886536%, 18.798828%)" offset="0.5"/><stop stop-opacity="1" stop-color="rgb(28.260803%, 51.060486%, 18.798828%)" offset="0.515625"/><stop stop-opacity="1" stop-color="rgb(28.460693%, 51.260376%, 18.798828%)" offset="0.53125"/><stop stop-opacity="1" stop-color="rgb(28.599548%, 51.399231%, 18.798828%)" offset="0.5625"/><stop stop-opacity="1" stop-color="rgb(28.599548%, 51.423645%, 18.798828%)" offset="0.578125"/><stop stop-opacity="1" stop-color="rgb(28.620911%, 51.623535%, 18.798828%)" offset="0.59375"/><stop stop-opacity="1" stop-color="rgb(28.820801%, 51.799011%, 18.798828%)" offset="0.625"/><stop stop-opacity="1" stop-color="rgb(29.182434%, 51.982117%, 18.798828%)" offset="0.65625"/><stop stop-opacity="1" stop-color="rgb(29.382324%, 52.182007%, 18.798828%)" offset="0.6875"/><stop stop-opacity="1" stop-color="rgb(29.556274%, 52.316284%, 18.798828%)" offset="0.703125"/><stop stop-opacity="1" stop-color="rgb(29.756165%, 52.467346%, 18.798828%)" offset="0.71875"/><stop stop-opacity="1" stop-color="rgb(29.930115%, 52.630615%, 18.798828%)" offset="0.75"/><stop stop-opacity="1" stop-color="rgb(30.189514%, 52.830505%, 18.798828%)" offset="0.78125"/><stop stop-opacity="1" stop-color="rgb(30.458069%, 52.946472%, 18.798828%)" offset="0.8125"/><stop stop-opacity="1" stop-color="rgb(30.639648%, 53.187561%, 18.798828%)" offset="0.84375"/><stop stop-opacity="1" stop-color="rgb(30.839539%, 53.540039%, 18.798828%)" offset="0.875"/><stop stop-opacity="1" stop-color="rgb(31.025696%, 53.72467%, 18.798828%)" offset="0.90625"/><stop stop-opacity="1" stop-color="rgb(31.144714%, 53.845215%, 18.798828%)" offset="0.921875"/><stop stop-opacity="1" stop-color="rgb(31.347656%, 54.017639%, 18.798828%)" offset="0.9375"/><stop stop-opacity="1" stop-color="rgb(31.626892%, 54.112244%, 18.798828%)" offset="0.96875"/><stop stop-opacity="1" stop-color="rgb(31.799316%, 54.31366%, 18.798828%)" offset="0.984375"/><stop stop-opacity="1" stop-color="rgb(31.811523%, 54.499817%, 18.798828%)" offset="0.992188"/><stop stop-opacity="1" stop-color="rgb(32.011414%, 54.499817%, 18.798828%)" offset="1"/></linearGradient><clipPath id="a738378222"><path d="M 130.453125 93.472656 L 177.667969 93.472656 L 177.667969 178.546875 L 130.453125 178.546875 Z M 130.453125 93.472656 " clip-rule="nonzero"/></clipPath><clipPath id="416ea9e161"><path d="M 133.625 93.511719 C 133.625 93.511719 115.449219 159.6875 167.046875 177.730469 C 167.480469 177.878906 167.882812 178.058594 168.328125 178.203125 C 168.304688 178.113281 168.277344 178 168.257812 177.90625 C 168.285156 177.949219 168.300781 178.019531 168.328125 178.046875 C 169.085938 178.894531 169.769531 178.320312 170.179688 177.570312 C 170.179688 177.640625 170.179688 177.707031 170.175781 177.773438 C 195.808594 118.539062 148.476562 101.421875 133.625 93.511719 Z M 133.625 93.511719 " clip-rule="nonzero"/></clipPath><clipPath id="b131a3172e"><path d="M 133.625 93.511719 C 133.625 93.511719 115.449219 159.6875 167.046875 177.730469 C 167.480469 177.878906 167.878906 178.058594 168.328125 178.203125 C 168.304688 178.113281 168.277344 178 168.257812 177.90625 C 168.28125 177.949219 168.300781 178.019531 168.328125 178.046875 C 169.085938 178.894531 169.769531 178.320312 170.179688 177.574219 C 170.179688 177.640625 170.179688 177.710938 170.175781 177.773438 C 195.808594 118.539062 148.476562 101.425781 133.625 93.511719 " clip-rule="nonzero"/></clipPath><clipPath id="03000037ea"><path d="M 78.4375 157.546875 L 175.71875 213.65625 L 232.820312 114.855469 L 135.539062 58.75 Z M 78.4375 157.546875 " clip-rule="nonzero"/></clipPath><linearGradient x1="-0.309715" gradientTransform="matrix(29.036164, -50.238456, 50.292113, 29.005185, 136.939927, 161.544366)" y1="0" x2="1.366317" gradientUnits="userSpaceOnUse" y2="0" id="5a9594d46b"><stop stop-opacity="1" stop-color="rgb(24.299622%, 47.499084%, 18.798828%)" offset="0"/><stop stop-opacity="1" stop-color="rgb(24.299622%, 47.499084%, 18.798828%)" offset="0.125"/><stop stop-opacity="1" stop-color="rgb(24.317932%, 47.512817%, 18.798828%)" offset="0.1875"/><stop stop-opacity="1" stop-color="rgb(24.517822%, 47.662354%, 18.798828%)" offset="0.203125"/><stop stop-opacity="1" stop-color="rgb(24.752808%, 47.853088%, 18.798828%)" offset="0.21875"/><stop stop-opacity="1" stop-color="rgb(24.952698%, 48.052979%, 18.798828%)" offset="0.25"/><stop stop-opacity="1" stop-color="rgb(25.230408%, 48.330688%, 18.798828%)" offset="0.265625"/><stop stop-opacity="1" stop-color="rgb(25.494385%, 48.530579%, 18.798828%)" offset="0.28125"/><stop stop-opacity="1" stop-color="rgb(25.762939%, 48.704529%, 18.798828%)" offset="0.296875"/><stop stop-opacity="1" stop-color="rgb(26.054382%, 48.904419%, 18.798828%)" offset="0.3125"/><stop stop-opacity="1" stop-color="rgb(26.254272%, 48.999023%, 18.798828%)" offset="0.328125"/><stop stop-opacity="1" stop-color="rgb(26.361084%, 49.061584%, 18.798828%)" offset="0.335937"/><stop stop-opacity="1" stop-color="rgb(26.560974%, 49.261475%, 18.798828%)" offset="0.34375"/><stop stop-opacity="1" stop-color="rgb(26.699829%, 49.398804%, 18.798828%)" offset="0.359375"/><stop stop-opacity="1" stop-color="rgb(26.699829%, 49.543762%, 18.798828%)" offset="0.367188"/><stop stop-opacity="1" stop-color="rgb(26.811218%, 49.743652%, 18.798828%)" offset="0.375"/><stop stop-opacity="1" stop-color="rgb(27.011108%, 49.798584%, 18.798828%)" offset="0.390625"/><stop stop-opacity="1" stop-color="rgb(27.099609%, 49.835205%, 18.798828%)" offset="0.398438"/><stop stop-opacity="1" stop-color="rgb(27.102661%, 50.035095%, 18.798828%)" offset="0.40625"/><stop stop-opacity="1" stop-color="rgb(27.272034%, 50.19989%, 18.798828%)" offset="0.414062"/><stop stop-opacity="1" stop-color="rgb(27.468872%, 50.19989%, 18.798828%)" offset="0.421875"/><stop stop-opacity="1" stop-color="rgb(27.558899%, 50.27771%, 18.798828%)" offset="0.4375"/><stop stop-opacity="1" stop-color="rgb(27.708435%, 50.4776%, 18.798828%)" offset="0.453125"/><stop stop-opacity="1" stop-color="rgb(27.960205%, 50.759888%, 18.798828%)" offset="0.46875"/><stop stop-opacity="1" stop-color="rgb(28.160095%, 50.959778%, 18.798828%)" offset="0.484375"/><stop stop-opacity="1" stop-color="rgb(28.283691%, 51.083374%, 18.798828%)" offset="0.492188"/><stop stop-opacity="1" stop-color="rgb(28.483582%, 51.283264%, 18.798828%)" offset="0.5"/><stop stop-opacity="1" stop-color="rgb(28.599548%, 51.533508%, 18.798828%)" offset="0.53125"/><stop stop-opacity="1" stop-color="rgb(28.707886%, 51.733398%, 18.798828%)" offset="0.539062"/><stop stop-opacity="1" stop-color="rgb(28.907776%, 51.799011%, 18.798828%)" offset="0.546875"/><stop stop-opacity="1" stop-color="rgb(28.999329%, 51.806641%, 18.798828%)" offset="0.5625"/><stop stop-opacity="1" stop-color="rgb(29.139709%, 52.006531%, 18.798828%)" offset="0.578125"/><stop stop-opacity="1" stop-color="rgb(29.3396%, 52.198792%, 18.798828%)" offset="0.59375"/><stop stop-opacity="1" stop-color="rgb(29.464722%, 52.24762%, 18.798828%)" offset="0.601562"/><stop stop-opacity="1" stop-color="rgb(29.664612%, 52.398682%, 18.798828%)" offset="0.609375"/><stop stop-opacity="1" stop-color="rgb(29.798889%, 52.49939%, 18.798828%)" offset="0.625"/><stop stop-opacity="1" stop-color="rgb(29.949951%, 52.648926%, 18.798828%)" offset="0.632812"/><stop stop-opacity="1" stop-color="rgb(30.149841%, 52.848816%, 18.798828%)" offset="0.640625"/><stop stop-opacity="1" stop-color="rgb(30.255127%, 52.89917%, 18.798828%)" offset="0.65625"/><stop stop-opacity="1" stop-color="rgb(30.455017%, 53.088379%, 18.798828%)" offset="0.671875"/><stop stop-opacity="1" stop-color="rgb(30.651855%, 53.288269%, 18.798828%)" offset="0.6875"/><stop stop-opacity="1" stop-color="rgb(30.851746%, 53.379822%, 18.798828%)" offset="0.703125"/><stop stop-opacity="1" stop-color="rgb(31.045532%, 53.579712%, 18.798828%)" offset="0.710938"/><stop stop-opacity="1" stop-color="rgb(31.245422%, 53.69873%, 18.798828%)" offset="0.71875"/><stop stop-opacity="1" stop-color="rgb(31.399536%, 53.866577%, 18.798828%)" offset="0.734375"/><stop stop-opacity="1" stop-color="rgb(31.503296%, 54.066467%, 18.798828%)" offset="0.75"/><stop stop-opacity="1" stop-color="rgb(31.703186%, 54.136658%, 18.798828%)" offset="0.765625"/><stop stop-opacity="1" stop-color="rgb(31.993103%, 54.336548%, 18.798828%)" offset="0.78125"/><stop stop-opacity="1" stop-color="rgb(32.192993%, 54.499817%, 18.798828%)" offset="0.8125"/><stop stop-opacity="1" stop-color="rgb(32.199097%, 54.499817%, 18.798828%)" offset="0.875"/><stop stop-opacity="1" stop-color="rgb(32.199097%, 54.499817%, 18.798828%)" offset="1"/></linearGradient><clipPath id="3bfc5a6c2d"><path d="M 159.109375 221.5625 L 174.273438 221.5625 L 174.273438 244.601562 L 159.109375 244.601562 Z M 159.109375 221.5625 " clip-rule="nonzero"/></clipPath><clipPath id="d41cf93e6b"><path d="M 174.257812 244.601562 L 169.730469 244.457031 C 169.851562 240.636719 167.890625 236.652344 166.402344 233.980469 C 165.464844 232.304688 164.375 230.613281 163.15625 228.957031 C 162.523438 228.097656 161.808594 227.351562 161.09375 226.597656 C 160.410156 225.878906 159.734375 225.164062 159.109375 224.382812 L 162.644531 221.5625 C 163.191406 222.246094 163.785156 222.867188 164.375 223.488281 C 165.21875 224.378906 166.050781 225.265625 166.796875 226.28125 C 168.132812 228.089844 169.328125 229.941406 170.351562 231.78125 C 172.097656 234.917969 174.414062 239.65625 174.257812 244.601562 Z M 174.257812 244.601562 " clip-rule="nonzero"/></clipPath><clipPath id="537b2e43a3"><path d="M 174.257812 244.601562 L 169.730469 244.457031 C 169.851562 240.636719 167.890625 236.652344 166.402344 233.980469 C 165.464844 232.304688 164.375 230.613281 163.15625 228.957031 C 162.523438 228.097656 161.808594 227.351562 161.09375 226.597656 C 160.410156 225.878906 159.734375 225.164062 159.109375 224.382812 L 162.644531 221.5625 C 163.191406 222.246094 163.785156 222.867188 164.375 223.488281 C 165.21875 224.378906 166.050781 225.265625 166.796875 226.28125 C 168.132812 228.089844 169.328125 229.941406 170.351562 231.78125 C 172.097656 234.917969 174.414062 239.65625 174.257812 244.601562 " clip-rule="nonzero"/></clipPath><linearGradient x1="0.0000124162" gradientTransform="matrix(15.155244, 0, 0, 15.139073, 159.109407, 233.080974)" y1="0" x2="1.000569" gradientUnits="userSpaceOnUse" y2="0" id="7219b00db2"><stop stop-opacity="1" stop-color="rgb(24.299622%, 47.499084%, 18.798828%)" offset="0"/><stop stop-opacity="1" stop-color="rgb(24.493408%, 47.644043%, 18.798828%)" offset="0.015625"/><stop stop-opacity="1" stop-color="rgb(24.693298%, 47.793579%, 18.798828%)" offset="0.03125"/><stop stop-opacity="1" stop-color="rgb(24.699402%, 47.799683%, 18.605042%)" offset="0.0625"/><stop stop-opacity="1" stop-color="rgb(24.891663%, 47.990417%, 18.405151%)" offset="0.078125"/><stop stop-opacity="1" stop-color="rgb(25.091553%, 48.190308%, 18.585205%)" offset="0.09375"/><stop stop-opacity="1" stop-color="rgb(25.099182%, 48.199463%, 18.785095%)" offset="0.125"/><stop stop-opacity="1" stop-color="rgb(25.291443%, 48.391724%, 18.798828%)" offset="0.15625"/><stop stop-opacity="1" stop-color="rgb(25.669861%, 48.591614%, 18.798828%)" offset="0.171875"/><stop stop-opacity="1" stop-color="rgb(25.87738%, 48.770142%, 18.798828%)" offset="0.1875"/><stop stop-opacity="1" stop-color="rgb(26.069641%, 48.970032%, 18.798828%)" offset="0.21875"/><stop stop-opacity="1" stop-color="rgb(26.269531%, 48.999023%, 18.798828%)" offset="0.25"/><stop stop-opacity="1" stop-color="rgb(26.463318%, 49.163818%, 18.634033%)" offset="0.265625"/><stop stop-opacity="1" stop-color="rgb(26.663208%, 49.363708%, 18.603516%)" offset="0.28125"/><stop stop-opacity="1" stop-color="rgb(26.699829%, 49.577332%, 18.766785%)" offset="0.3125"/><stop stop-opacity="1" stop-color="rgb(26.860046%, 49.777222%, 18.798828%)" offset="0.328125"/><stop stop-opacity="1" stop-color="rgb(27.059937%, 49.798584%, 18.798828%)" offset="0.34375"/><stop stop-opacity="1" stop-color="rgb(27.099609%, 49.954224%, 18.798828%)" offset="0.375"/><stop stop-opacity="1" stop-color="rgb(27.276611%, 50.15564%, 18.798828%)" offset="0.40625"/><stop stop-opacity="1" stop-color="rgb(27.587891%, 50.3479%, 18.798828%)" offset="0.421875"/><stop stop-opacity="1" stop-color="rgb(27.761841%, 50.547791%, 18.798828%)" offset="0.4375"/><stop stop-opacity="1" stop-color="rgb(27.799988%, 50.59967%, 18.798828%)" offset="0.46875"/><stop stop-opacity="1" stop-color="rgb(27.94342%, 50.743103%, 18.798828%)" offset="0.484375"/><stop stop-opacity="1" stop-color="rgb(28.143311%, 50.942993%, 18.798828%)" offset="0.5"/><stop stop-opacity="1" stop-color="rgb(28.337097%, 51.13678%, 18.798828%)" offset="0.53125"/><stop stop-opacity="1" stop-color="rgb(28.536987%, 51.33667%, 18.798828%)" offset="0.5625"/><stop stop-opacity="1" stop-color="rgb(28.599548%, 51.528931%, 18.798828%)" offset="0.578125"/><stop stop-opacity="1" stop-color="rgb(28.726196%, 51.728821%, 18.798828%)" offset="0.59375"/><stop stop-opacity="1" stop-color="rgb(28.926086%, 51.799011%, 18.798828%)" offset="0.625"/><stop stop-opacity="1" stop-color="rgb(28.999329%, 51.919556%, 18.798828%)" offset="0.640625"/><stop stop-opacity="1" stop-color="rgb(29.119873%, 52.119446%, 18.798828%)" offset="0.65625"/><stop stop-opacity="1" stop-color="rgb(29.319763%, 52.198792%, 18.798828%)" offset="0.6875"/><stop stop-opacity="1" stop-color="rgb(29.51355%, 52.284241%, 18.798828%)" offset="0.703125"/><stop stop-opacity="1" stop-color="rgb(29.71344%, 52.435303%, 18.798828%)" offset="0.71875"/><stop stop-opacity="1" stop-color="rgb(29.911804%, 52.610779%, 18.798828%)" offset="0.75"/><stop stop-opacity="1" stop-color="rgb(30.111694%, 52.810669%, 18.798828%)" offset="0.78125"/><stop stop-opacity="1" stop-color="rgb(30.303955%, 52.89917%, 18.798828%)" offset="0.796875"/><stop stop-opacity="1" stop-color="rgb(30.505371%, 52.998352%, 18.798828%)" offset="0.8125"/><stop stop-opacity="1" stop-color="rgb(30.700684%, 53.198242%, 18.798828%)" offset="0.84375"/><stop stop-opacity="1" stop-color="rgb(30.79834%, 53.396606%, 18.798828%)" offset="0.859375"/><stop stop-opacity="1" stop-color="rgb(30.897522%, 53.596497%, 18.798828%)" offset="0.875"/><stop stop-opacity="1" stop-color="rgb(31.108093%, 53.69873%, 18.798828%)" offset="0.90625"/><stop stop-opacity="1" stop-color="rgb(31.199646%, 53.788757%, 18.798828%)" offset="0.921875"/><stop stop-opacity="1" stop-color="rgb(31.289673%, 53.988647%, 18.798828%)" offset="0.9375"/><stop stop-opacity="1" stop-color="rgb(31.481934%, 54.098511%, 18.798828%)" offset="0.953125"/><stop stop-opacity="1" stop-color="rgb(31.681824%, 54.182434%, 18.798828%)" offset="0.96875"/><stop stop-opacity="1" stop-color="rgb(31.881714%, 54.382324%, 18.798828%)" offset="1"/></linearGradient><clipPath id="8902224b9b"><path d="M 260 285 L 289 285 L 289 304.972656 L 260 304.972656 Z M 260 285 " clip-rule="nonzero"/></clipPath></defs><g clip-path="url(#6b08ffb2fd)"><path fill="#593d29" d="M 100.433594 304.4375 C 100.433594 248.417969 154.195312 231.179688 172.773438 281.5625 C 195.007812 250.40625 213.925781 281.5625 213.925781 281.5625 C 213.925781 267.652344 269.996094 230.519531 269.996094 304.4375 L 100.433594 304.4375 " fill-opacity="1" fill-rule="nonzero"/></g><path fill="#f2f2f0" d="M 108.390625 293.097656 C 108.390625 293.097656 108.273438 292.175781 108.082031 290.570312 C 107.960938 289.773438 107.964844 288.785156 108.03125 287.621094 C 108.03125 286.445312 108.183594 285.140625 108.460938 283.746094 C 108.632812 282.316406 109.140625 280.855469 109.609375 279.28125 C 110.222656 277.773438 110.757812 276.085938 111.679688 274.554688 C 112.5 272.957031 113.460938 271.375 114.550781 269.84375 C 115.089844 269.078125 115.703125 268.363281 116.277344 267.613281 C 116.628906 267.199219 116.742188 266.964844 117.285156 266.402344 L 118.246094 265.425781 C 119.425781 264.144531 121.222656 262.9375 122.792969 261.753906 C 124.449219 260.789062 126.046875 259.816406 127.734375 259.164062 C 129.394531 258.445312 131.027344 257.835938 132.667969 257.515625 C 133.480469 257.332031 134.25 257.113281 135.015625 256.980469 C 135.796875 256.921875 136.554688 256.871094 137.28125 256.824219 C 138.714844 256.628906 140.050781 256.796875 141.214844 257.007812 C 142.382812 257.128906 143.363281 257.34375 144.125 257.753906 C 145.671875 258.429688 146.460938 258.832031 146.460938 258.832031 C 146.460938 258.832031 145.542969 258.765625 143.9375 258.632812 C 143.183594 258.472656 142.226562 258.59375 141.15625 258.734375 C 140.09375 258.824219 138.933594 258.972656 137.664062 259.386719 C 136.398438 259.6875 135.070312 260.113281 133.695312 260.734375 C 132.289062 261.207031 130.917969 262.007812 129.476562 262.738281 C 128.015625 263.410156 126.707031 264.527344 125.253906 265.355469 C 124.007812 266.394531 122.71875 267.183594 121.441406 268.625 L 120.453125 269.570312 C 120.339844 269.644531 119.941406 270.167969 119.695312 270.441406 C 119.148438 271.117188 118.5625 271.765625 118.046875 272.453125 C 117.042969 273.84375 115.957031 275.152344 115.113281 276.546875 C 113.324219 279.28125 111.910156 282 110.941406 284.460938 C 109.925781 286.929688 109.34375 289.011719 108.972656 290.621094 C 108.605469 292.191406 108.390625 293.097656 108.390625 293.097656 " fill-opacity="1" fill-rule="nonzero"/><path fill="#f2f2f0" d="M 221.453125 292.007812 C 221.453125 292.007812 221.171875 291.320312 220.753906 290.117188 C 220.496094 289.535156 220.421875 288.738281 220.316406 287.785156 C 220.148438 286.820312 220.230469 285.78125 220.34375 284.625 C 220.402344 283.460938 220.773438 282.261719 221.125 280.976562 C 221.609375 279.761719 222.042969 278.40625 222.8125 277.191406 C 223.488281 275.910156 224.328125 274.691406 225.257812 273.496094 C 226.183594 272.398438 227.359375 271.117188 228.390625 270.210938 C 229.359375 269.253906 230.777344 268.324219 232.003906 267.414062 C 233.3125 266.632812 234.613281 265.890625 235.957031 265.375 C 238.589844 264.214844 241.261719 263.75 243.496094 263.578125 C 244.605469 263.40625 245.648438 263.542969 246.542969 263.542969 C 247.441406 263.535156 248.222656 263.675781 248.867188 263.777344 C 250.140625 263.980469 250.851562 264.140625 250.851562 264.140625 C 250.851562 264.140625 250.144531 264.332031 248.910156 264.675781 C 248.300781 264.816406 247.5625 264.996094 246.738281 265.257812 C 245.921875 265.542969 244.976562 265.722656 244.011719 266.121094 C 243.039062 266.496094 241.976562 266.820312 240.929688 267.328125 C 239.851562 267.765625 238.789062 268.351562 237.695312 268.953125 C 236.574219 269.492188 235.578125 270.367188 234.476562 271.011719 C 233.492188 271.832031 232.492188 272.464844 231.445312 273.542969 C 230.300781 274.5 229.523438 275.304688 228.582031 276.320312 C 227.777344 277.332031 226.847656 278.25 226.175781 279.300781 C 225.417969 280.296875 224.832031 281.328125 224.214844 282.308594 C 223.769531 283.328125 223.152344 284.273438 222.859375 285.222656 C 222.542969 286.167969 222.152344 287.050781 222.035156 287.835938 C 221.886719 288.621094 221.621094 289.347656 221.640625 290 C 221.550781 291.269531 221.453125 292.007812 221.453125 292.007812 " fill-opacity="1" fill-rule="nonzero"/><path fill="#674c2a" d="M 141.640625 291.988281 C 134.875 294.972656 122.917969 294.4375 121.785156 285.089844 C 120.921875 278.0625 128.085938 270.492188 134.015625 267.863281 C 141.425781 264.574219 151.859375 262.976562 154.460938 272.765625 C 156.773438 281.460938 148.734375 288.855469 141.640625 291.988281 " fill-opacity="1" fill-rule="nonzero"/><path fill="#674c2a" d="M 202.675781 282.019531 C 202.511719 282.554688 202.269531 283.117188 201.945312 283.707031 C 197.710938 291.421875 177.121094 291.988281 182.359375 280.265625 C 186.257812 271.539062 205.574219 272.753906 202.675781 282.019531 " fill-opacity="1" fill-rule="nonzero"/><path fill="#674c2a" d="M 251.359375 292.320312 C 245.277344 295.554688 236.375 295.902344 233.527344 290.566406 C 231.121094 286.046875 233.003906 279.628906 236.371094 276.191406 C 239.832031 272.652344 245.207031 270.941406 249.804688 273.300781 C 253.429688 275.152344 258.097656 281.464844 257.21875 285.734375 C 256.671875 288.410156 254.359375 290.71875 251.359375 292.320312 " fill-opacity="1" fill-rule="nonzero"/><g clip-path="url(#b6364a76c4)"><g clip-path="url(#db86340116)"><g clip-path="url(#ba434aa17a)"><path fill="url(#d22392bdce)" d="M 166.875 176.429688 L 166.875 212.863281 L 175.761719 212.863281 L 175.761719 176.429688 Z M 166.875 176.429688 " fill-rule="nonzero"/></g></g></g><g clip-path="url(#6c22f45e76)"><g clip-path="url(#0c1b45a7ef)"><g clip-path="url(#a31d02726b)"><g clip-path="url(#d602124369)"><path fill="url(#31af353e53)" d="M 241.277344 99.6875 L 108.011719 176.546875 L 193.625 324.671875 L 326.890625 247.8125 Z M 241.277344 99.6875 " fill-rule="nonzero"/></g></g></g></g><g clip-path="url(#4c57e9758f)"><g clip-path="url(#5b51f97216)"><g clip-path="url(#3ee571aeb2)"><path fill="url(#3a72e66e2c)" d="M 102.203125 226.332031 L 163.699219 226.332031 L 163.699219 161.765625 L 102.203125 161.765625 Z M 102.203125 226.332031 " fill-rule="nonzero"/></g></g></g><g clip-path="url(#a738378222)"><g clip-path="url(#416ea9e161)"><g clip-path="url(#b131a3172e)"><g clip-path="url(#03000037ea)"><path fill="url(#5a9594d46b)" d="M 93.589844 157.289062 L 165.863281 198.972656 L 214.53125 114.769531 L 142.253906 73.089844 Z M 93.589844 157.289062 " fill-rule="nonzero"/></g></g></g></g><path fill="#346229" d="M 174.539062 219.488281 C 174.539062 219.488281 174.988281 217.792969 175.882812 214.859375 C 176.839844 211.957031 178.050781 207.71875 180.054688 202.828125 C 180.96875 200.34375 182.253906 197.761719 183.546875 195.003906 C 185.015625 192.332031 186.453125 189.429688 188.417969 186.699219 C 190.203125 183.855469 192.429688 181.164062 194.722656 178.476562 C 195.953125 177.214844 197.203125 175.933594 198.449219 174.652344 C 199.902344 173.1875 201.164062 172.328125 202.535156 171.132812 C 205.085938 168.84375 208.410156 167 211.410156 165.0625 C 214.523438 163.402344 217.609375 161.804688 220.671875 160.550781 C 226.78125 157.914062 232.605469 156.003906 237.535156 154.273438 C 239.996094 153.402344 242.265625 152.605469 244.265625 151.898438 C 246.289062 151.230469 247.996094 150.527344 249.394531 149.917969 C 252.214844 148.757812 253.878906 148.144531 253.878906 148.144531 C 253.878906 148.144531 252.414062 149.109375 249.78125 150.707031 C 248.476562 151.519531 246.867188 152.472656 244.953125 153.433594 C 243.050781 154.425781 240.921875 155.609375 238.519531 156.667969 C 233.785156 158.957031 228.125 161.320312 222.335938 164.164062 C 219.382812 165.492188 216.566406 167.253906 213.621094 168.820312 C 210.898438 170.675781 208.046875 172.207031 205.402344 174.625 C 204.125 175.703125 202.492188 176.855469 201.511719 177.867188 C 200.308594 179.058594 199.125 180.25 197.9375 181.429688 C 195.765625 183.953125 193.464844 186.328125 191.667969 188.976562 C 189.714844 191.503906 188.101562 194.15625 186.488281 196.625 C 185.070312 199.21875 183.554688 201.585938 182.398438 203.917969 C 179.972656 208.515625 178.011719 212.410156 176.695312 215.179688 C 175.355469 217.9375 174.539062 219.488281 174.539062 219.488281 " fill-opacity="1" fill-rule="nonzero"/><path fill="#346229" d="M 181.515625 204.621094 C 181.515625 204.621094 181.800781 203.902344 182.367188 202.695312 C 182.574219 202.0625 183.269531 201.480469 183.941406 200.703125 C 184.632812 199.863281 185.59375 199.40625 186.625 198.679688 C 187.707031 198.175781 188.910156 197.511719 190.25 197.203125 C 191.574219 196.796875 192.996094 196.480469 194.484375 196.335938 C 195.964844 196.207031 197.507812 196.046875 199.0625 196.15625 L 200.230469 196.207031 L 201.472656 196.367188 L 203.703125 196.671875 C 205.15625 196.867188 206.675781 197.261719 208.175781 197.683594 C 209.734375 198.078125 211.0625 198.550781 212.402344 198.933594 C 213.75 199.328125 215.042969 199.808594 216.207031 200.070312 C 217.394531 200.332031 218.511719 200.792969 219.578125 200.925781 C 220.636719 201.101562 221.632812 201.320312 222.523438 201.511719 C 223.417969 201.597656 224.195312 201.675781 224.835938 201.730469 C 226.175781 201.890625 226.933594 201.984375 226.933594 201.984375 C 226.933594 201.984375 226.230469 202.242188 224.921875 202.625 C 224.277344 202.800781 223.472656 203.078125 222.539062 203.246094 C 221.609375 203.339844 220.535156 203.449219 219.359375 203.511719 C 218.167969 203.65625 216.910156 203.476562 215.554688 203.382812 C 214.15625 203.300781 212.824219 203.082031 211.453125 202.800781 C 210.066406 202.519531 208.574219 202.285156 207.273438 201.949219 C 205.925781 201.613281 204.535156 201.296875 203.011719 201.132812 L 200.804688 200.75 L 199.839844 200.585938 L 198.792969 200.503906 C 197.414062 200.386719 196.039062 200.300781 194.722656 200.300781 C 193.402344 200.324219 192.132812 200.335938 190.9375 200.492188 C 189.734375 200.578125 188.664062 200.882812 187.621094 201.0625 C 186.71875 201.460938 185.636719 201.613281 184.996094 202.058594 C 184.335938 202.507812 183.53125 202.683594 183.089844 203.214844 C 182.105469 204.125 181.515625 204.621094 181.515625 204.621094 " fill-opacity="1" fill-rule="nonzero"/><path fill="#346229" d="M 195.078125 183.726562 C 195.078125 183.726562 195.71875 183.191406 196.832031 182.257812 C 197.421875 181.832031 198.035156 181.210938 198.9375 180.714844 C 199.808594 180.1875 200.804688 179.574219 201.9375 178.960938 C 203.097656 178.449219 204.363281 177.898438 205.734375 177.371094 C 207.210938 176.960938 208.496094 176.539062 210.382812 176.203125 C 211.921875 176.109375 213.445312 175.84375 215.109375 175.875 C 216.828125 176.015625 218.6875 176.085938 220.335938 176.335938 C 221.960938 176.636719 223.574219 176.945312 225.179688 177.242188 C 225.953125 177.390625 226.722656 177.558594 227.484375 177.742188 L 228.511719 177.972656 L 229.652344 178.164062 C 231.128906 178.335938 232.675781 178.824219 233.90625 178.8125 C 235.191406 178.832031 236.425781 179.148438 237.585938 179.03125 C 238.738281 178.957031 239.832031 178.933594 240.816406 178.917969 C 241.78125 178.769531 242.628906 178.644531 243.320312 178.542969 C 244.765625 178.367188 245.585938 178.257812 245.585938 178.257812 C 245.585938 178.257812 244.894531 178.695312 243.605469 179.394531 C 242.957031 179.730469 242.179688 180.195312 241.226562 180.59375 C 240.257812 180.910156 239.140625 181.269531 237.894531 181.605469 C 236.664062 182.019531 235.214844 182.019531 233.714844 182.179688 C 232.132812 182.390625 230.769531 182.1875 229.210938 182.113281 L 228.0625 182.039062 L 226.78125 181.890625 C 225.992188 181.792969 225.199219 181.679688 224.402344 181.539062 C 222.839844 181.300781 221.253906 181.046875 219.664062 180.800781 C 218.101562 180.515625 216.703125 180.441406 215.238281 180.230469 C 213.644531 180.210938 212.078125 180.1875 210.5625 180.167969 C 209.179688 180.328125 207.84375 180.484375 206.570312 180.628906 C 205.273438 180.933594 204.015625 181.164062 202.84375 181.382812 C 201.730469 181.726562 200.675781 182 199.722656 182.25 C 198.765625 182.46875 197.945312 182.84375 197.261719 183.046875 C 195.867188 183.480469 195.078125 183.726562 195.078125 183.726562 " fill-opacity="1" fill-rule="nonzero"/><path fill="#346229" d="M 222.21875 162.824219 C 222.21875 162.824219 224.167969 162.296875 227.085938 161.839844 C 227.816406 161.734375 228.609375 161.617188 229.449219 161.539062 C 230.300781 161.496094 231.121094 161.210938 232.003906 161.097656 C 233.761719 160.765625 235.621094 160.539062 237.488281 160.304688 C 239.328125 159.898438 241.167969 159.46875 242.933594 159.195312 C 243.796875 158.988281 244.707031 159.015625 245.464844 158.71875 C 246.246094 158.476562 247 158.292969 247.699219 158.121094 C 250.511719 157.449219 252.566406 157.179688 252.566406 157.179688 C 252.566406 157.179688 251.003906 158.382812 248.40625 159.929688 C 247.757812 160.316406 247.046875 160.726562 246.269531 161.117188 C 245.523438 161.585938 244.628906 161.765625 243.742188 162.066406 C 241.953125 162.648438 240.007812 163.148438 238.054688 163.648438 C 236.046875 163.832031 234.027344 164.019531 232.148438 164.074219 C 230.257812 164.222656 228.566406 163.988281 227.097656 163.78125 C 224.171875 163.339844 222.21875 162.824219 222.21875 162.824219 " fill-opacity="1" fill-rule="nonzero"/><path fill="#68b330" d="M 173.59375 216.289062 C 173.59375 216.289062 173.574219 214.59375 173.652344 211.644531 C 173.625 210.167969 173.917969 208.390625 174.222656 206.3125 C 174.441406 204.210938 174.984375 201.910156 175.734375 199.449219 C 176.3125 196.910156 177.519531 194.382812 178.609375 191.617188 C 179.980469 189.007812 181.226562 186.085938 183.109375 183.460938 C 184.816406 180.699219 186.839844 178.039062 189 175.410156 C 190.097656 174.117188 191.300781 172.902344 192.453125 171.632812 C 193.09375 170.992188 193.523438 170.402344 194.324219 169.71875 L 196.195312 168.019531 C 198.570312 165.777344 201.691406 163.667969 204.527344 161.816406 C 206.003906 160.960938 207.46875 160.117188 208.925781 159.28125 C 210.441406 158.578125 211.9375 157.894531 213.414062 157.214844 C 216.574219 155.847656 219.375 155.214844 222.175781 154.273438 C 224.871094 153.429688 227.652344 152.558594 230.09375 151.976562 C 234.984375 150.695312 239.117188 149.820312 241.984375 149.121094 C 244.863281 148.457031 246.527344 148.144531 246.527344 148.144531 C 246.527344 148.144531 244.976562 148.84375 242.242188 149.960938 C 239.488281 151.03125 235.597656 152.691406 230.855469 154.453125 C 228.460938 155.320312 226.117188 156.359375 223.359375 157.433594 C 220.753906 158.539062 217.644531 159.589844 215.074219 160.828125 C 213.710938 161.535156 212.324219 162.257812 210.921875 162.980469 C 209.589844 163.808594 208.234375 164.648438 206.867188 165.492188 C 204.210938 167.320312 201.703125 168.988281 199.207031 171.386719 L 197.3125 173.054688 C 196.8125 173.4375 196.195312 174.175781 195.644531 174.722656 C 194.527344 175.914062 193.355469 177.050781 192.296875 178.265625 C 190.238281 180.746094 188.113281 183.121094 186.402344 185.675781 C 184.519531 188.113281 183.117188 190.742188 181.613281 193.128906 C 180.417969 195.671875 178.984375 197.964844 178.175781 200.304688 C 177.234375 202.597656 176.371094 204.699219 175.871094 206.640625 C 175.269531 208.566406 174.714844 210.265625 174.527344 211.742188 C 173.972656 214.640625 173.59375 216.289062 173.59375 216.289062 " fill-opacity="1" fill-rule="nonzero"/><path fill="#68b330" d="M 137.597656 98.914062 C 137.597656 98.914062 137.835938 99.113281 138.28125 99.492188 C 138.6875 99.921875 139.460938 100.324219 140.3125 100.871094 C 142.164062 101.878906 145.007812 103.375 148.109375 105.316406 C 149.6875 106.296875 151.421875 107.289062 153.171875 108.515625 C 154.886719 109.820312 156.730469 111.191406 158.570312 112.679688 C 159.503906 113.421875 160.445312 114.171875 161.40625 114.9375 C 162.5 116.027344 163.082031 116.777344 163.929688 117.75 C 165.578125 119.433594 166.9375 121.792969 168.339844 124.050781 C 169.761719 126.328125 170.476562 128.742188 171.554688 131.042969 C 172.402344 133.402344 172.957031 135.816406 173.597656 138.105469 C 174.007812 140.441406 174.378906 142.710938 174.632812 144.859375 C 174.773438 147.023438 174.84375 149.070312 174.894531 150.945312 C 174.824219 152.832031 174.664062 154.554688 174.527344 156.066406 C 174.457031 157.585938 174.101562 158.890625 173.933594 159.960938 C 173.519531 162.101562 173.21875 163.296875 173.21875 163.296875 C 173.21875 163.296875 173.121094 162.042969 173.054688 159.894531 C 173 158.820312 173.078125 157.527344 172.84375 156.046875 C 172.65625 154.566406 172.464844 152.90625 172.304688 151.105469 C 171.96875 149.316406 171.609375 147.390625 171.292969 145.355469 C 170.796875 143.359375 170.273438 141.253906 169.734375 139.078125 C 169.003906 136.976562 168.242188 134.804688 167.472656 132.597656 C 166.453125 130.546875 165.683594 128.203125 164.4375 126.335938 C 163.277344 124.398438 162.308594 122.398438 160.585938 120.554688 C 159.863281 119.660156 159.148438 118.777344 158.4375 117.902344 C 157.582031 117.128906 156.738281 116.371094 155.90625 115.621094 C 154.230469 114.136719 152.664062 112.628906 151.152344 111.203125 C 149.527344 109.851562 148 108.574219 146.578125 107.402344 C 143.769531 104.984375 141.429688 102.980469 139.792969 101.574219 C 138.089844 100.042969 137.679688 98.875 137.597656 98.914062 " fill-opacity="1" fill-rule="nonzero"/><path fill="#68b330" d="M 107.652344 165.441406 C 107.652344 165.441406 108.863281 165.628906 110.949219 166.0625 C 113.011719 166.539062 116.015625 167.097656 119.53125 167.984375 C 119.976562 168.09375 120.425781 168.207031 120.886719 168.316406 C 121.648438 168.523438 121.859375 168.679688 122.386719 168.867188 C 123.289062 169.246094 124.222656 169.632812 125.175781 170.035156 C 126.132812 170.441406 127.113281 170.855469 128.121094 171.277344 C 129.109375 171.761719 130.082031 172.460938 131.09375 173.070312 C 133.074219 174.371094 135.324219 175.539062 137.066406 177.261719 C 138.859375 178.941406 140.960938 180.371094 142.515625 182.34375 C 144.097656 184.304688 145.867188 185.992188 147.246094 188.171875 C 148.582031 190.132812 149.8125 192.105469 151.015625 194.039062 C 152.09375 196.132812 153.054688 198.195312 153.964844 200.136719 C 154.992188 202.023438 155.347656 204.039062 155.964844 205.773438 C 156.46875 207.550781 157.109375 209.113281 157.226562 210.632812 C 157.4375 212.109375 157.625 213.398438 157.78125 214.460938 C 158.058594 216.574219 158.160156 217.773438 158.160156 217.773438 C 158.160156 217.773438 157.667969 216.636719 156.921875 214.660156 C 156.558594 213.679688 156.121094 212.484375 155.617188 211.121094 C 155.203125 209.730469 154.238281 208.335938 153.539062 206.71875 C 152.695312 205.15625 152.078125 203.3125 150.945312 201.644531 C 149.898438 199.9375 148.785156 198.152344 147.722656 196.273438 C 146.398438 194.445312 145.03125 192.554688 143.648438 190.636719 C 142.460938 188.816406 140.660156 187.171875 139.203125 185.410156 C 137.804688 183.535156 135.871094 182.191406 134.246094 180.589844 C 132.617188 178.941406 130.785156 177.765625 129.066406 176.480469 C 128.1875 175.855469 127.382812 175.199219 126.488281 174.609375 C 125.542969 174.082031 124.609375 173.558594 123.703125 173.054688 C 122.796875 172.550781 121.917969 172.054688 121.0625 171.574219 C 120.703125 171.375 120.101562 170.980469 119.957031 170.953125 C 119.515625 170.773438 119.089844 170.597656 118.671875 170.421875 C 115.320312 169.054688 112.597656 167.726562 110.65625 166.886719 C 108.730469 166.003906 107.652344 165.441406 107.652344 165.441406 " fill-opacity="1" fill-rule="nonzero"/><path fill="#528b30" d="M 136.324219 105.59375 C 136.324219 105.59375 124.214844 152.484375 164.738281 170.929688 C 163.605469 137.222656 136.324219 105.59375 136.324219 105.59375 " fill-opacity="1" fill-rule="nonzero"/><path fill="#346229" d="M 142.121094 109.078125 C 142.121094 109.078125 142.957031 109.941406 144.3125 111.511719 C 145.617188 113.128906 147.664062 115.277344 149.792969 118.132812 C 151.949219 120.976562 154.484375 124.296875 156.785156 128.144531 C 157.933594 130.066406 159.292969 131.953125 160.277344 134.117188 C 161.335938 136.234375 162.40625 138.382812 163.480469 140.53125 C 164.328125 142.796875 165.167969 145.058594 166 147.285156 C 166.957031 149.464844 167.203125 151.847656 167.816406 154.011719 C 168.367188 156.210938 168.859375 158.339844 168.980469 160.414062 C 169.207031 162.476562 169.367188 164.421875 169.507812 166.210938 C 169.753906 167.992188 169.507812 169.652344 169.464844 171.109375 C 169.378906 172.5625 169.3125 173.824219 169.25 174.871094 C 169.117188 176.945312 168.980469 178.117188 168.980469 178.117188 C 168.980469 178.117188 168.71875 176.941406 168.371094 174.898438 C 168.207031 173.878906 168.011719 172.644531 167.785156 171.226562 C 167.515625 169.824219 167.40625 168.21875 166.929688 166.519531 C 166.511719 164.820312 166.066406 162.984375 165.664062 161.039062 C 165.328125 159.078125 164.589844 157.105469 163.964844 155.035156 C 163.273438 152.988281 162.796875 150.808594 161.875 148.726562 C 161.042969 146.617188 160.191406 144.476562 159.339844 142.335938 C 157.367188 138.164062 155.476562 133.941406 153.339844 130.121094 C 152.285156 128.210938 151.414062 126.277344 150.378906 124.550781 C 149.375 122.804688 148.472656 121.121094 147.640625 119.570312 C 145.964844 116.4375 144.566406 113.828125 143.585938 112.007812 C 142.617188 110.164062 142.121094 109.078125 142.121094 109.078125 " fill-opacity="1" fill-rule="nonzero"/><path fill="#346229" d="M 143.820312 151.152344 C 143.832031 151.117188 144.097656 151.609375 144.738281 152.09375 C 145.277344 152.597656 146.359375 153.105469 147.59375 153.65625 C 148.230469 153.925781 148.925781 154.214844 149.652344 154.523438 C 150.394531 154.8125 151.179688 155.121094 151.984375 155.4375 C 153.652344 156.066406 155.371094 156.863281 157.09375 157.640625 C 157.9375 158.023438 158.773438 158.402344 159.601562 158.777344 C 160.472656 159.140625 161.292969 159.652344 162.105469 160.09375 C 163.699219 161.054688 165.136719 162.121094 166.128906 163.320312 C 166.660156 163.878906 167.0625 164.453125 167.324219 165.035156 C 167.621094 165.585938 167.878906 166.046875 167.96875 166.488281 C 168.207031 167.351562 168.269531 167.8125 168.269531 167.8125 C 168.269531 167.8125 167.910156 167.4375 167.394531 166.8125 C 166.886719 166.191406 165.984375 165.472656 164.84375 164.785156 C 163.738281 164.0625 162.308594 163.425781 160.757812 162.757812 C 159.117188 162.097656 157.367188 161.394531 155.613281 160.6875 C 153.917969 159.839844 152.21875 159.003906 150.679688 158.113281 C 149.953125 157.726562 149.089844 157.203125 148.445312 156.734375 C 147.753906 156.269531 147.117188 155.78125 146.550781 155.285156 C 145.390625 154.324219 144.617188 153.300781 144.1875 152.453125 C 143.78125 151.648438 143.878906 151.148438 143.820312 151.152344 " fill-opacity="1" fill-rule="nonzero"/><path fill="#346229" d="M 136.324219 112.183594 C 136.324219 112.183594 136.476562 112.550781 136.6875 113.203125 C 136.75 113.5625 137.054688 113.855469 137.253906 114.230469 C 137.445312 114.59375 137.847656 114.964844 138.15625 115.402344 C 138.847656 116.253906 139.855469 117.078125 140.933594 117.957031 C 141.460938 118.402344 142.058594 118.816406 142.644531 119.265625 C 143.269531 119.726562 143.792969 120.117188 144.46875 120.523438 C 145.734375 121.414062 146.992188 122.070312 148.242188 122.910156 C 149.484375 123.703125 150.585938 124.605469 151.441406 125.472656 C 152.296875 126.328125 152.847656 127.214844 153.136719 127.847656 C 153.4375 128.488281 153.574219 128.84375 153.574219 128.84375 C 153.574219 128.84375 153.28125 128.578125 152.785156 128.109375 C 152.355469 127.597656 151.53125 127.082031 150.628906 126.453125 C 149.726562 125.808594 148.515625 125.289062 147.257812 124.636719 C 146.007812 124.023438 144.507812 123.257812 143.21875 122.410156 C 140.5625 120.628906 138.253906 118.324219 137.109375 116.109375 C 136.824219 115.550781 136.570312 115.078125 136.472656 114.53125 C 136.382812 114.019531 136.207031 113.605469 136.257812 113.265625 C 136.28125 112.582031 136.324219 112.183594 136.324219 112.183594 " fill-opacity="1" fill-rule="nonzero"/><path fill="#346229" d="M 137.738281 130.824219 C 137.738281 130.824219 138.121094 131.195312 138.785156 131.84375 C 139.414062 132.554688 140.433594 133.277344 141.699219 134.125 C 144.214844 135.847656 148.109375 137.160156 151.964844 138.957031 C 155.730469 140.675781 159.664062 142.757812 161.800781 145.359375 C 162.390625 145.933594 162.785156 146.585938 163.082031 147.195312 C 163.433594 147.765625 163.675781 148.277344 163.785156 148.753906 C 164.054688 149.660156 164.171875 150.164062 164.171875 150.164062 C 164.171875 150.164062 163.882812 149.722656 163.390625 148.949219 C 162.953125 148.164062 162.054688 147.210938 160.90625 146.265625 C 158.628906 144.28125 154.820312 142.777344 150.996094 141 C 147.273438 139.285156 143.308594 137.421875 140.910156 135.125 C 139.699219 134.058594 138.867188 132.871094 138.429688 132.101562 C 137.992188 131.289062 137.738281 130.824219 137.738281 130.824219 " fill-opacity="1" fill-rule="nonzero"/><g clip-path="url(#3bfc5a6c2d)"><g clip-path="url(#d41cf93e6b)"><g clip-path="url(#537b2e43a3)"><path fill="url(#7219b00db2)" d="M 159.109375 221.5625 L 159.109375 244.601562 L 174.273438 244.601562 L 174.273438 221.5625 Z M 159.109375 221.5625 " fill-rule="nonzero"/></g></g></g><path fill="#346229" d="M 176.542969 222.972656 C 176.542969 222.972656 177.875 222.703125 180.207031 222.34375 C 181.378906 222.175781 182.796875 221.96875 184.421875 221.730469 C 186.066406 221.570312 187.847656 221.050781 189.773438 220.597656 C 191.652344 220.160156 193.6875 219.6875 195.84375 219.183594 C 198.027344 218.414062 200.320312 217.605469 202.695312 216.761719 C 205.148438 216.050781 207.378906 214.832031 209.800781 213.902344 C 211 213.410156 212.207031 212.914062 213.414062 212.414062 L 216.96875 210.75 C 219.535156 209.726562 221.507812 208.320312 223.769531 207.140625 C 225.847656 205.636719 228.105469 204.46875 229.980469 202.875 C 231.957031 201.414062 233.828125 199.945312 235.507812 198.425781 C 237.261719 196.992188 238.777344 195.457031 240.25 194.113281 C 241.730469 192.773438 242.957031 191.414062 244.144531 190.289062 C 245.332031 189.15625 246.289062 188.105469 247.082031 187.238281 C 248.6875 185.523438 249.664062 184.566406 249.664062 184.566406 C 249.664062 184.566406 249.015625 185.75 247.777344 187.773438 C 247.160156 188.785156 246.40625 190.007812 245.445312 191.355469 C 244.492188 192.699219 243.515625 194.316406 242.171875 195.855469 C 240.878906 197.433594 239.539062 199.21875 237.851562 200.859375 C 237.03125 201.710938 236.1875 202.582031 235.332031 203.476562 C 234.394531 204.296875 233.441406 205.132812 232.472656 205.980469 C 230.570312 207.742188 228.320312 209.226562 226.113281 210.824219 C 223.734375 212.148438 221.273438 213.847656 218.851562 214.855469 L 215.078125 216.53125 C 213.800781 217.027344 212.535156 217.519531 211.273438 218.003906 C 208.761719 218.945312 206.269531 219.984375 203.835938 220.5625 C 201.398438 221.199219 199.042969 221.824219 196.804688 222.402344 C 194.234375 222.789062 192.148438 222.949219 190.058594 223.164062 C 188.011719 223.394531 186.148438 223.558594 184.503906 223.398438 C 182.863281 223.328125 181.429688 223.269531 180.253906 223.222656 C 177.890625 223.101562 176.542969 222.972656 176.542969 222.972656 " fill-opacity="1" fill-rule="nonzero"/><path fill="#346229" d="M 124.785156 199.347656 C 124.785156 199.347656 127.027344 200.941406 130.097656 203.605469 C 131.625 204.933594 133.304688 206.683594 135.144531 208.34375 C 136.046875 209.199219 137.007812 210.042969 137.925781 210.964844 C 138.851562 211.882812 139.933594 212.574219 140.933594 213.402344 L 142.425781 214.640625 L 142.796875 214.949219 C 142.8125 214.96875 143.03125 215.128906 142.871094 215.023438 L 143.085938 215.152344 L 143.957031 215.65625 C 145.113281 216.269531 146.199219 217.097656 147.292969 217.617188 C 149.429688 218.566406 151.460938 219.554688 153.386719 220.242188 C 155.261719 221.015625 156.828125 221.65625 157.929688 222.109375 C 159.03125 222.566406 159.644531 222.878906 159.644531 222.878906 C 159.644531 222.878906 156.90625 222.800781 152.851562 222.113281 C 150.820312 221.847656 148.445312 221.152344 145.875 220.242188 C 144.644531 219.746094 143.527344 219.132812 142.34375 218.503906 L 141.460938 218.027344 L 141.242188 217.910156 C 140.933594 217.726562 141.039062 217.761719 140.910156 217.679688 L 140.503906 217.363281 L 138.84375 216.0625 C 137.78125 215.148438 136.617188 214.324219 135.675781 213.34375 C 134.734375 212.367188 133.855469 211.351562 132.988281 210.398438 C 131.246094 208.484375 129.914062 206.582031 128.6875 204.9375 C 126.261719 201.660156 124.785156 199.347656 124.785156 199.347656 " fill-opacity="1" fill-rule="nonzero"/><path fill="#528b30" d="M 209.621094 192.917969 C 207.253906 192.3125 204.84375 191.941406 202.335938 192.160156 C 199.574219 192.402344 196.257812 194 193.617188 193.914062 C 191.492188 193.847656 190.703125 192.949219 192.648438 190.894531 C 201.484375 181.570312 214.296875 183.917969 225.605469 185.058594 C 229.304688 185.425781 234.902344 186.601562 233.992188 191.53125 C 233.492188 194.242188 230.347656 195.539062 227.777344 196.066406 C 221.253906 197.398438 215.5625 194.429688 209.621094 192.917969 " fill-opacity="1" fill-rule="nonzero"/><path fill="#528b30" d="M 241.550781 175.546875 C 239.898438 175.886719 238.128906 175.882812 236.535156 175.816406 C 233.535156 175.6875 230.730469 175.09375 227.867188 174.511719 C 224.441406 173.8125 220.742188 173.074219 217.238281 173.195312 C 216.28125 173.230469 211.832031 174.394531 212.414062 172.234375 C 212.792969 170.816406 217.132812 169.242188 218.382812 168.742188 C 220.886719 167.738281 223.609375 167.355469 226.28125 167.117188 C 230.59375 166.722656 234.984375 166.648438 239.375 166.214844 C 241.257812 166.03125 244.011719 165.710938 245.75 166.59375 C 248.460938 167.96875 247.136719 172.300781 245.164062 173.9375 C 244.132812 174.785156 242.878906 175.273438 241.550781 175.546875 " fill-opacity="1" fill-rule="nonzero"/><path fill="#528b30" d="M 209.820312 206.148438 C 212.078125 206.894531 213.683594 207.792969 212.605469 208.71875 C 211.117188 209.988281 209.003906 209.363281 207.265625 209.597656 C 205.769531 209.796875 204.453125 210.160156 202.921875 210.253906 C 198.695312 210.519531 194.441406 211.042969 190.410156 212.378906 C 188.402344 213.039062 180.101562 219.421875 179.589844 214.902344 C 179.136719 210.851562 187.011719 205.394531 190.144531 204.105469 C 194.136719 202.460938 198.234375 203.328125 202.269531 204.324219 C 202.9375 204.488281 206.917969 205.191406 209.820312 206.148438 " fill-opacity="1" fill-rule="nonzero"/><path fill="#528b30" d="M 111.917969 172.855469 C 119.359375 174.9375 140.125 176.628906 154.234375 217.839844 C 131.507812 217.890625 111.917969 172.855469 111.917969 172.855469 " fill-opacity="1" fill-rule="nonzero"/><path fill="#4a3328" d="M 180.382812 294.082031 C 178.597656 301.074219 170.105469 304.945312 161.394531 302.734375 C 152.6875 300.515625 147.070312 293.054688 148.859375 286.0625 C 150.644531 279.070312 159.140625 275.195312 167.855469 277.414062 C 176.558594 279.625 182.171875 287.085938 180.382812 294.082031 " fill-opacity="1" fill-rule="nonzero"/><g clip-path="url(#8902224b9b)"><path fill="#4a3328" d="M 272.734375 304.53125 C 265.738281 304.710938 255.421875 300.199219 262.285156 292.023438 C 265.457031 288.234375 269.796875 285.691406 274.746094 285.289062 C 281.53125 284.730469 291.066406 285.582031 288.148438 294.496094 C 285.8125 301.632812 279.984375 304.34375 272.734375 304.53125 " fill-opacity="1" fill-rule="nonzero"/></g><path fill="#4a3328" d="M 100.453125 303.941406 C 94.523438 304.097656 84.0625 300.765625 87.558594 292.996094 C 90.742188 285.921875 99.832031 283.472656 106.4375 288.113281 C 109.367188 290.171875 112.671875 293.996094 111.917969 297.871094 C 110.914062 303.0625 104.792969 303.832031 100.453125 303.941406 " fill-opacity="1" fill-rule="nonzero"/><path fill="#4a3328" d="M 213.722656 302.207031 C 203.394531 304.9375 202.988281 292.957031 210.957031 289.949219 C 214.632812 288.566406 219.710938 289.3125 220.613281 293.601562 C 221.632812 298.414062 217.851562 301.113281 213.722656 302.207031 " fill-opacity="1" fill-rule="nonzero"/><path fill="#4a3328" d="M 233.722656 298.871094 C 233.722656 298.871094 234.289062 298.820312 235.261719 298.820312 C 236.222656 298.828125 237.628906 298.886719 239.171875 298.847656 C 239.941406 298.847656 240.765625 298.898438 241.613281 298.78125 C 242.464844 298.660156 243.359375 298.6875 244.238281 298.511719 C 245.125 298.316406 246.019531 298.0625 246.929688 297.9375 C 247.648438 297.667969 248.992188 297.332031 249.742188 296.945312 C 251.402344 296.332031 253.164062 295.390625 254.59375 294.398438 C 255.375 293.941406 255.921875 293.304688 256.609375 292.820312 C 257.203125 292.246094 257.679688 291.648438 258.214844 291.121094 C 258.644531 290.5 259.035156 289.941406 259.378906 289.4375 C 259.789062 288.933594 259.921875 288.40625 260.164062 287.996094 C 260.601562 287.125 260.863281 286.632812 260.863281 286.632812 C 260.863281 286.632812 260.957031 287.164062 261.042969 288.164062 C 261.042969 288.652344 261.210938 289.308594 261.027344 289.976562 C 260.902344 290.664062 260.789062 291.496094 260.511719 292.339844 C 260.144531 293.132812 259.804688 294.082031 259.238281 294.941406 C 258.597656 295.726562 258.054688 296.753906 257.164062 297.4375 C 255.550781 299.0625 253.527344 300.253906 251.226562 301.210938 C 250.003906 301.6875 249.238281 301.800781 247.949219 302.171875 C 246.785156 302.34375 245.617188 302.382812 244.519531 302.46875 C 243.410156 302.550781 242.355469 302.242188 241.371094 302.128906 C 240.367188 302.042969 239.488281 301.679688 238.6875 301.386719 C 237.046875 300.859375 235.875 300.179688 235.035156 299.683594 C 234.191406 299.195312 233.722656 298.871094 233.722656 298.871094 " fill-opacity="1" fill-rule="nonzero"/><path fill="#4a3328" d="M 181.515625 292.15625 C 181.535156 292.089844 181.875 292.765625 182.707031 293.246094 C 183.492188 293.765625 184.792969 294.175781 186.398438 294.3125 C 188.011719 294.433594 189.929688 294.367188 191.957031 294.066406 C 192.964844 293.953125 193.988281 293.671875 194.992188 293.457031 C 196.054688 293.171875 196.796875 292.929688 197.625 292.378906 C 198.730469 291.820312 199.617188 291.238281 200.414062 290.664062 C 201.226562 290.070312 202.097656 289.4375 202.847656 288.789062 C 203.523438 288.074219 204.34375 287.484375 204.863281 286.75 C 205.488281 286.070312 205.988281 285.390625 206.371094 284.691406 C 206.855469 284.019531 207.074219 283.339844 207.320312 282.707031 C 207.617188 282.074219 207.769531 281.492188 207.800781 280.996094 C 207.980469 279.949219 208.085938 279.355469 208.085938 279.355469 C 208.085938 279.355469 208.328125 279.882812 208.695312 280.941406 C 208.917969 281.476562 209.085938 282.148438 209.039062 282.933594 C 209.0625 283.730469 209.121094 284.683594 208.796875 285.609375 C 208.675781 286.097656 208.542969 286.609375 208.410156 287.132812 C 208.199219 287.617188 207.933594 288.097656 207.679688 288.609375 C 207.210938 289.675781 206.476562 290.582031 205.714844 291.554688 C 204.882812 292.449219 204.070312 293.390625 203.007812 294.175781 C 201.933594 295.003906 200.871094 295.75 199.882812 296.292969 C 198.695312 297.007812 197.152344 297.476562 195.941406 297.707031 C 194.667969 297.964844 193.40625 298.015625 192.207031 298.023438 C 189.808594 298.027344 187.550781 297.585938 185.734375 296.804688 C 183.890625 296.066406 182.574219 294.871094 182.011719 293.808594 C 181.429688 292.769531 181.601562 292.15625 181.515625 292.15625 " fill-opacity="1" fill-rule="nonzero"/><path fill="#4a3328" d="M 121.582031 296.109375 C 121.582031 296.109375 122.285156 296.335938 123.476562 296.789062 C 124.046875 297.078125 124.808594 297.226562 125.617188 297.34375 C 126.429688 297.476562 127.25 297.683594 128.300781 297.699219 C 130.316406 297.863281 132.683594 297.886719 135.195312 297.621094 C 136.453125 297.578125 137.734375 297.308594 139.03125 297.121094 C 140.34375 297.003906 141.597656 296.5625 142.882812 296.285156 C 144.15625 295.847656 145.195312 295.628906 146.527344 294.96875 C 147.824219 294.363281 148.855469 293.929688 149.992188 293.285156 C 152.261719 292.125 154.214844 290.796875 155.929688 289.640625 C 156.695312 288.996094 157.542969 288.488281 158.140625 287.90625 C 158.738281 287.328125 159.382812 286.890625 159.777344 286.425781 C 160.65625 285.519531 161.160156 285.003906 161.160156 285.003906 C 161.160156 285.003906 160.96875 285.691406 160.53125 286.925781 C 160.042969 288.121094 159.132812 289.773438 157.722656 291.523438 C 156.285156 293.222656 154.410156 295.105469 152.089844 296.671875 C 150.972656 297.441406 149.59375 298.351562 148.359375 298.925781 C 147.195312 299.5625 145.507812 300.140625 144.097656 300.640625 C 142.601562 300.914062 141.117188 301.34375 139.636719 301.441406 C 138.15625 301.628906 136.703125 301.660156 135.289062 301.589844 C 132.484375 301.542969 129.855469 301.007812 127.726562 300.222656 C 126.664062 299.949219 125.679688 299.351562 124.871094 298.898438 C 124.015625 298.464844 123.402344 298.011719 122.984375 297.539062 C 122.078125 296.648438 121.582031 296.109375 121.582031 296.109375 " fill-opacity="1" fill-rule="nonzero"/></svg>