<svg xmlns="http://www.w3.org/2000/svg" xmlns:xlink="http://www.w3.org/1999/xlink" width="500" zoomAndPan="magnify" viewBox="0 0 375 374.999991" height="500" preserveAspectRatio="xMidYMid meet" version="1.0"><defs><clipPath id="6e791b7918"><path d="M 104.953125 43.945312 L 220 43.945312 L 220 238 L 104.953125 238 Z M 104.953125 43.945312 " clip-rule="nonzero"/></clipPath><clipPath id="01ba8f6696"><path d="M 104.953125 43.945312 L 209 43.945312 L 209 210 L 104.953125 210 Z M 104.953125 43.945312 " clip-rule="nonzero"/></clipPath><clipPath id="a8fc0123a0"><path d="M 104.953125 43.945312 L 175 43.945312 L 175 177 L 104.953125 177 Z M 104.953125 43.945312 " clip-rule="nonzero"/></clipPath><clipPath id="a01aada260"><path d="M 220 269 L 256 269 L 256 331.195312 L 220 331.195312 Z M 220 269 " clip-rule="nonzero"/></clipPath><clipPath id="7a1572ca53"><path d="M 205 227 L 269.953125 227 L 269.953125 260 L 205 260 Z M 205 227 " clip-rule="nonzero"/></clipPath><clipPath id="a5b54e815d"><path d="M 154 43.945312 L 208 43.945312 L 208 60 L 154 60 Z M 154 43.945312 " clip-rule="nonzero"/></clipPath><clipPath id="85dcdd1074"><path d="M 109 43.945312 L 148 43.945312 L 148 104 L 109 104 Z M 109 43.945312 " clip-rule="nonzero"/></clipPath><clipPath id="315805fd3d"><path d="M 117 43.945312 L 143 43.945312 L 143 93 L 117 93 Z M 117 43.945312 " clip-rule="nonzero"/></clipPath><clipPath id="04dbbb46da"><path d="M 163 43.945312 L 184 43.945312 L 184 52 L 163 52 Z M 163 43.945312 " clip-rule="nonzero"/></clipPath><clipPath id="6d31f6574c"><path d="M 135 43.945312 L 257 43.945312 L 257 322 L 135 322 Z M 135 43.945312 " clip-rule="nonzero"/></clipPath></defs><g clip-path="url(#6e791b7918)"><path fill="#79bd8f" d="M 219.183594 66.644531 C 218.53125 69.445312 217.214844 72.035156 215.28125 74.335938 C 213.566406 76.371094 211.367188 78.210938 208.554688 79.964844 C 203.609375 83.050781 197.394531 85.453125 190.808594 87.992188 C 177.550781 93.109375 162.519531 98.910156 152.433594 112.214844 C 150.6875 114.523438 149.289062 117.011719 148.132812 119.828125 C 144.695312 128.1875 143.367188 139.441406 141.25 157.378906 C 139.808594 169.585938 139.558594 179.601562 139.644531 188.089844 C 139.679688 191.761719 139.78125 195.144531 139.871094 198.296875 C 140.09375 205.898438 140.269531 211.90625 139.378906 216.996094 C 138.878906 219.835938 138.066406 222.261719 136.894531 224.410156 C 135.605469 226.769531 133.882812 228.808594 131.625 230.648438 C 127.328125 234.15625 121.636719 236.394531 114.714844 237.3125 C 112.261719 237.636719 109.621094 237.796875 106.816406 237.796875 C 106.203125 237.796875 105.582031 237.789062 104.953125 237.773438 L 104.953125 230.675781 C 108.054688 230.761719 110.902344 230.636719 113.492188 230.296875 C 118.835938 229.589844 122.949219 228.011719 126.066406 225.46875 C 129.003906 223.070312 130.578125 220.21875 131.332031 215.925781 C 132.113281 211.460938 131.945312 205.730469 131.734375 198.480469 C 131.691406 197.027344 131.652344 195.527344 131.609375 193.976562 C 131.363281 184.136719 131.324219 172.144531 133.15625 156.652344 C 133.542969 153.359375 133.90625 150.28125 134.261719 147.398438 C 134.878906 142.421875 135.46875 138.015625 136.132812 134.054688 C 137.675781 124.828125 139.601562 118.027344 143.082031 112.125 C 143.863281 110.804688 144.71875 109.527344 145.644531 108.304688 C 150.746094 101.570312 157.351562 95.96875 165.835938 91.171875 C 166.140625 91 166.445312 90.832031 166.75 90.664062 C 173.742188 86.816406 181.042969 84 187.511719 81.503906 C 190.277344 80.433594 192.917969 79.417969 195.355469 78.394531 C 203.695312 74.890625 209.789062 71.292969 211.207031 65.226562 C 212.148438 61.195312 210.953125 56.628906 207.640625 51.578125 C 206.046875 49.148438 203.96875 46.613281 201.402344 43.964844 L 211.695312 43.964844 C 214.554688 47.5 216.652344 50.925781 217.964844 54.207031 C 219.691406 58.527344 220.101562 62.714844 219.183594 66.644531 Z M 219.183594 66.644531 " fill-opacity="1" fill-rule="nonzero"/></g><g clip-path="url(#01ba8f6696)"><path fill="#beeb9f" d="M 208.183594 43.964844 C 208.136719 46.46875 207.957031 48.96875 207.652344 51.453125 C 207.648438 51.492188 207.644531 51.53125 207.636719 51.570312 L 207.636719 51.574219 C 207.628906 51.636719 207.625 51.695312 207.617188 51.753906 C 206.542969 60.085938 203.726562 69.273438 197.011719 76.683594 C 196.46875 77.277344 195.917969 77.847656 195.355469 78.390625 C 194.355469 79.363281 193.320312 80.25 192.257812 81.070312 C 186.871094 85.214844 180.769531 87.519531 174.703125 89.03125 C 174.019531 89.199219 173.339844 89.359375 172.664062 89.511719 C 171.621094 89.742188 170.582031 89.957031 169.554688 90.152344 C 169.46875 90.167969 169.382812 90.1875 169.292969 90.203125 C 168.71875 90.3125 168.148438 90.414062 167.578125 90.515625 C 167.300781 90.566406 167.027344 90.613281 166.75 90.660156 C 165.75 90.835938 164.757812 91 163.777344 91.15625 C 161.753906 91.488281 159.785156 91.800781 157.914062 92.140625 C 150.289062 93.523438 144.195312 95.359375 141.816406 100.75 C 140.332031 104.109375 140.882812 107.515625 142.558594 111.078125 C 142.71875 111.425781 142.894531 111.773438 143.078125 112.125 C 143.078125 112.125 143.078125 112.128906 143.078125 112.128906 C 144.375 114.605469 146.15625 117.15625 148.128906 119.828125 C 148.128906 119.828125 148.128906 119.832031 148.132812 119.832031 C 148.558594 120.410156 148.996094 120.992188 149.4375 121.585938 C 149.871094 122.167969 150.316406 122.757812 150.761719 123.351562 C 153.289062 126.730469 155.90625 130.3125 158.078125 134.160156 C 160.855469 139.074219 162.910156 144.425781 163.128906 150.355469 C 163.140625 150.652344 163.144531 150.953125 163.148438 151.253906 C 163.195312 159.792969 159.402344 170.589844 145.320312 183.308594 C 143.589844 184.875 141.699219 186.46875 139.644531 188.089844 L 139.640625 188.09375 C 137.207031 190.011719 134.53125 191.972656 131.609375 193.972656 C 131.609375 193.972656 131.605469 193.976562 131.605469 193.976562 C 124.382812 198.917969 115.597656 204.09375 104.953125 209.492188 L 104.953125 43.964844 Z M 208.183594 43.964844 " fill-opacity="1" fill-rule="nonzero"/></g><g clip-path="url(#a8fc0123a0)"><path fill="#79bd8f" d="M 174.839844 48.390625 C 174.828125 51.207031 174.59375 54.132812 173.976562 56.925781 C 173.035156 61.171875 171.199219 65.109375 167.890625 67.871094 C 166.59375 68.953125 165.269531 69.6875 163.910156 70.183594 C 162.324219 70.765625 160.6875 71.027344 158.980469 71.144531 C 154.050781 71.480469 148.527344 70.613281 141.953125 72.734375 C 140.917969 73.066406 139.859375 73.472656 138.773438 73.96875 C 129.5625 78.183594 120.910156 87.695312 118.671875 97.75 C 118.300781 99.417969 118.105469 101.105469 118.117188 102.78125 C 118.191406 115.699219 130.3125 120.453125 134.851562 130.253906 C 135.402344 131.4375 135.839844 132.695312 136.132812 134.050781 C 136.242188 134.574219 136.335938 135.109375 136.402344 135.660156 C 136.804688 138.949219 136.378906 142.84375 134.261719 147.394531 C 133.488281 149.0625 132.488281 150.816406 131.21875 152.660156 C 126.632812 159.335938 118.539062 167.199219 104.953125 176.382812 L 104.953125 43.964844 L 174.699219 43.964844 C 174.773438 45.09375 174.824219 46.265625 174.835938 47.464844 C 174.839844 47.769531 174.84375 48.078125 174.839844 48.390625 Z M 174.839844 48.390625 " fill-opacity="1" fill-rule="nonzero"/></g><g clip-path="url(#a01aada260)"><path fill="#7aa081" d="M 226.398438 269.378906 C 226.398438 269.378906 242.816406 273.191406 245.269531 290.476562 C 247.722656 307.765625 249.390625 325.875 255.84375 331.175781 C 255.84375 331.175781 203.449219 309.023438 226.398438 269.378906 Z M 226.398438 269.378906 " fill-opacity="1" fill-rule="nonzero"/></g><g clip-path="url(#7a1572ca53)"><path fill="#7aa081" d="M 269.949219 255.808594 C 269.949219 255.808594 255.25 252.296875 240.585938 237.710938 C 225.917969 223.125 205.757812 228.644531 205.757812 228.644531 C 205.757812 228.644531 234.699219 271.75 269.949219 255.808594 Z M 269.949219 255.808594 " fill-opacity="1" fill-rule="nonzero"/></g><path fill="#7aa081" d="M 205.757812 228.644531 C 205.757812 228.644531 218.683594 265.414062 183.371094 290.886719 C 183.371094 290.886719 184.886719 249.109375 205.757812 228.644531 Z M 205.757812 228.644531 " fill-opacity="1" fill-rule="nonzero"/><path fill="#7aa081" d="M 194.878906 198.019531 C 194.878906 198.019531 200.894531 225.835938 165.675781 248.679688 C 165.675781 248.679688 166.558594 209.632812 194.878906 198.019531 Z M 194.878906 198.019531 " fill-opacity="1" fill-rule="nonzero"/><path fill="#7aa081" d="M 189.023438 177.15625 C 189.023438 177.15625 229.792969 176.566406 245.601562 204.21875 C 245.601562 204.21875 217.964844 223.210938 189.023438 177.15625 Z M 189.023438 177.15625 " fill-opacity="1" fill-rule="nonzero"/><path fill="#7aa081" d="M 180.371094 137.175781 C 180.371094 137.175781 200.445312 129.3125 211.707031 138.714844 C 222.964844 148.113281 235.882812 158.566406 245.296875 161.335938 C 245.296875 161.335938 208.878906 180.175781 180.371094 137.175781 Z M 180.371094 137.175781 " fill-opacity="1" fill-rule="nonzero"/><path fill="#7aa081" d="M 180.371094 137.175781 C 180.371094 137.175781 189.996094 175.832031 143.117188 196.308594 C 143.117188 196.308594 144.660156 156.449219 180.371094 137.175781 Z M 180.371094 137.175781 " fill-opacity="1" fill-rule="nonzero"/><path fill="#7aa081" d="M 232.191406 101.082031 C 232.191406 101.082031 220.933594 102.1875 199.441406 85.535156 C 179.125 69.796875 166.429688 86.054688 166.429688 86.054688 C 166.429688 86.054688 199.472656 134.742188 232.191406 101.082031 Z M 232.191406 101.082031 " fill-opacity="1" fill-rule="nonzero"/><path fill="#7aa081" d="M 166.429688 86.054688 C 166.429688 86.054688 181.511719 127.34375 131.113281 159.445312 C 131.113281 159.445312 128.609375 108.648438 166.429688 86.054688 Z M 166.429688 86.054688 " fill-opacity="1" fill-rule="nonzero"/><g clip-path="url(#a5b54e815d)"><path fill="#7aa081" d="M 207.988281 51.472656 C 207.894531 51.542969 207.804688 51.613281 207.710938 51.683594 C 207.679688 51.707031 207.648438 51.730469 207.617188 51.753906 C 195.59375 60.75 183.921875 60.648438 173.972656 56.925781 C 166.082031 53.972656 159.269531 48.742188 154.222656 43.964844 L 189.347656 43.964844 C 199.183594 50.285156 205.847656 51.285156 207.554688 51.441406 C 207.589844 51.449219 207.621094 51.449219 207.652344 51.453125 C 207.875 51.46875 207.988281 51.472656 207.988281 51.472656 Z M 207.988281 51.472656 " fill-opacity="1" fill-rule="nonzero"/></g><g clip-path="url(#85dcdd1074)"><path fill="#7aa081" d="M 141.949219 72.734375 C 137.753906 81.210938 130.578125 89.957031 118.671875 97.75 C 115.824219 99.613281 112.707031 101.425781 109.292969 103.164062 C 109.292969 103.164062 113.988281 66.84375 133.289062 43.964844 L 147.070312 43.964844 C 147.816406 51.347656 147.359375 61.8125 141.949219 72.734375 Z M 141.949219 72.734375 " fill-opacity="1" fill-rule="nonzero"/></g><path fill="#5a775e" d="M 192.285156 54.296875 C 190.414062 53.890625 188.535156 53.320312 186.664062 52.644531 C 188.480469 53.382812 190.273438 54.179688 192.023438 55.074219 C 192.558594 55.347656 192.875 54.425781 192.285156 54.296875 Z M 192.285156 54.296875 " fill-opacity="1" fill-rule="nonzero"/><path fill="#5a775e" d="M 183.710938 51.5 C 184.695312 51.90625 185.679688 52.289062 186.664062 52.644531 C 185.683594 52.25 184.699219 51.871094 183.710938 51.5 Z M 183.710938 51.5 " fill-opacity="1" fill-rule="nonzero"/><g clip-path="url(#315805fd3d)"><path fill="#5a775e" d="M 141.039062 47.324219 C 138.859375 52.203125 136.5 57 134 61.714844 C 128.894531 71.355469 120.714844 81.675781 118.238281 92.527344 C 118.164062 92.851562 117.667969 92.769531 117.734375 92.4375 C 119.742188 82.058594 126.945312 72.121094 131.601562 62.820312 C 134.53125 56.976562 136.546875 50.320312 138.878906 43.964844 L 142.320312 43.964844 C 141.890625 45.210938 141.464844 46.367188 141.039062 47.324219 Z M 141.039062 47.324219 " fill-opacity="1" fill-rule="nonzero"/></g><g clip-path="url(#04dbbb46da)"><path fill="#5a775e" d="M 168.984375 46.207031 C 167.230469 45.496094 165.5 44.742188 163.789062 43.964844 L 167.089844 43.964844 C 167.464844 44.128906 167.839844 44.289062 168.214844 44.445312 C 170.386719 45.363281 172.597656 46.402344 174.835938 47.464844 C 177.757812 48.851562 180.726562 50.273438 183.710938 51.5 C 180.773438 50.414062 177.796875 49.425781 174.839844 48.390625 C 172.871094 47.699219 170.914062 46.988281 168.984375 46.207031 Z M 168.984375 46.207031 " fill-opacity="1" fill-rule="nonzero"/></g><g clip-path="url(#6d31f6574c)"><path fill="#5a775e" d="M 256.671875 253.726562 C 239.847656 249.839844 225.808594 240.152344 210.707031 232.28125 C 211.160156 233.539062 211.609375 234.796875 212.0625 236.054688 C 212.167969 236.335938 212.273438 236.613281 212.382812 236.890625 C 213.476562 239.695312 214.648438 242.46875 215.8125 245.269531 C 217.019531 247.914062 218.546875 250.417969 219.953125 252.980469 C 221.5625 255.726562 223.039062 258.554688 224.695312 261.257812 C 226.574219 264.515625 228.3125 267.617188 230.207031 270.761719 C 230.40625 271.085938 230.601562 271.410156 230.804688 271.738281 C 231.234375 272.382812 232.101562 273.839844 232.550781 274.902344 C 233.949219 278.238281 230.3125 275.527344 229.042969 274.167969 C 228.976562 274.101562 228.914062 274.039062 228.847656 273.980469 C 230.800781 278.585938 232.238281 283.261719 233.539062 288.902344 C 236.203125 300.433594 239.675781 311.566406 246.625 321.261719 C 246.714844 321.382812 246.523438 321.527344 246.429688 321.417969 C 240.722656 314.746094 236.464844 307.3125 233.972656 298.863281 C 232.308594 293.226562 231.34375 287.445312 229.75 281.8125 C 228.699219 278.09375 227.015625 274.78125 225.238281 271.496094 C 224.800781 270.6875 224.355469 269.878906 223.917969 269.066406 C 222.773438 267.574219 221.6875 265.917969 220.785156 264.503906 C 219.414062 262.449219 218.105469 260.359375 216.859375 258.226562 C 216.03125 256.8125 215.246094 255.371094 214.558594 253.886719 C 214.082031 252.898438 213.449219 251.964844 213.042969 250.980469 C 211.910156 248.285156 211.539062 245.652344 209.898438 243.078125 C 209.203125 242.027344 208.527344 240.988281 207.875 239.929688 C 207.382812 239.140625 206.90625 238.34375 206.441406 237.535156 C 204.382812 253.140625 194.808594 265.996094 189.382812 281.582031 C 189.238281 281.988281 188.601562 281.878906 188.636719 281.429688 C 189.164062 274.625 193.800781 267.109375 196.628906 261.105469 C 201.058594 251.707031 204.535156 243.796875 204.71875 234.257812 C 204.316406 233.421875 203.925781 232.5625 203.558594 231.667969 C 203.492188 231.507812 203.425781 231.34375 203.359375 231.183594 C 202.035156 227.863281 201.050781 224.289062 199.976562 220.949219 C 198.765625 217.105469 197.28125 213.320312 196.0625 209.472656 C 195.71875 208.410156 195.410156 207.34375 195.117188 206.273438 C 194.632812 204.5 194.199219 202.714844 193.746094 200.9375 C 191.433594 205.789062 188.207031 210.59375 185.710938 215 C 180.921875 223.449219 175.925781 231.851562 170.914062 240.152344 C 170.527344 240.789062 169.554688 240.230469 169.910156 239.570312 C 174.015625 231.984375 178.011719 224.367188 182.242188 216.847656 C 185.203125 211.585938 189.246094 205.4375 191.765625 199.460938 C 192.113281 198.640625 192.429688 197.828125 192.710938 197.019531 C 191.378906 192.171875 189.859375 187.277344 187.882812 182.773438 C 186.386719 179.414062 185.257812 175.695312 184.144531 171.9375 C 183.042969 168.171875 182.136719 164.335938 181.617188 160.617188 C 181.253906 158.25 180.914062 155.902344 180.542969 153.566406 C 180.175781 151.253906 179.777344 148.960938 179.292969 146.679688 C 173.4375 155.367188 167.441406 163.9375 161.6875 172.710938 C 157.179688 179.585938 153.019531 185.523438 146.507812 190.246094 C 146.199219 190.46875 145.902344 189.976562 146.128906 189.726562 C 158.375 176.113281 169.347656 158.96875 178.335938 142.570312 C 178.035156 141.328125 177.742188 140.085938 177.453125 138.839844 C 176.527344 134.894531 175.613281 130.949219 174.550781 127.03125 C 173.144531 121.761719 172.132812 116.402344 170.835938 111.109375 C 170.046875 107.976562 169.320312 104.820312 168.539062 101.675781 C 168.285156 100.652344 168.023438 99.632812 167.75 98.613281 C 167.449219 97.484375 167.132812 96.363281 166.800781 95.242188 C 166.59375 94.542969 166.382812 93.84375 166.175781 93.144531 C 164.710938 96.488281 163.128906 99.761719 161.480469 103.003906 C 158.816406 108.242188 155.96875 113.390625 153.15625 118.613281 C 152.335938 120.144531 151.542969 121.730469 150.761719 123.351562 C 148.417969 128.230469 146.195312 133.433594 143.667969 138.359375 C 141.386719 142.796875 138.855469 147.007812 135.753906 150.546875 C 135.425781 150.921875 134.902344 150.40625 135.1875 150.011719 C 138.914062 144.90625 141.859375 138.902344 144.597656 132.734375 C 146.246094 129.023438 147.816406 125.253906 149.4375 121.585938 C 150.777344 118.546875 152.152344 115.578125 153.632812 112.773438 C 154.484375 111.152344 155.3125 109.523438 156.121094 107.890625 C 158.578125 102.921875 160.851562 97.890625 163.0625 92.8125 C 163.300781 92.261719 163.539062 91.710938 163.777344 91.160156 C 164.128906 90.351562 164.476562 89.539062 164.824219 88.730469 C 164.675781 88.261719 164.53125 87.796875 164.382812 87.332031 C 162.675781 81.90625 160.871094 76.511719 158.980469 71.144531 C 158.117188 68.707031 157.242188 66.273438 156.347656 63.847656 C 155.28125 60.984375 154.21875 58.148438 152.8125 55.46875 C 150.714844 51.664062 149.132812 47.957031 147.601562 43.964844 L 152.066406 43.964844 C 152.9375 45.828125 153.8125 47.691406 154.6875 49.566406 C 157.4375 55.007812 160.796875 60.742188 162.804688 66.554688 C 163.199219 67.792969 163.542969 68.988281 163.90625 70.1875 C 164.257812 71.347656 164.625 72.511719 165.066406 73.730469 C 166.160156 76.882812 167.363281 80 168.273438 83.210938 C 168.351562 83.472656 168.421875 83.726562 168.480469 83.976562 C 168.492188 84.035156 168.507812 84.097656 168.519531 84.15625 C 169 84.527344 169.304688 85.179688 169.089844 85.886719 C 170.1875 86.535156 171.296875 87.164062 172.40625 87.785156 C 173.167969 88.207031 173.933594 88.621094 174.699219 89.03125 C 176.660156 90.082031 178.636719 91.089844 180.628906 92.066406 C 183.554688 93.507812 186.515625 94.886719 189.492188 96.238281 C 195.054688 98.765625 212.621094 108.378906 218.414062 103.714844 C 218.824219 103.386719 219.300781 104.039062 218.988281 104.410156 C 215.429688 108.628906 204.25 103.808594 200.3125 102.441406 C 193.027344 99.90625 185.753906 96.601562 178.757812 92.886719 C 176.699219 91.792969 174.664062 90.667969 172.660156 89.511719 C 172.078125 89.179688 171.5 88.839844 170.921875 88.5 C 170.265625 88.113281 169.609375 87.722656 168.960938 87.328125 C 169.015625 87.996094 169.070312 88.671875 169.167969 89.378906 C 169.171875 89.429688 169.179688 89.476562 169.1875 89.523438 C 169.195312 89.59375 169.207031 89.667969 169.21875 89.738281 C 169.238281 89.894531 169.265625 90.046875 169.292969 90.203125 C 169.671875 92.320312 170.472656 94.425781 171.335938 96.53125 C 171.425781 96.746094 171.515625 96.964844 171.605469 97.179688 C 172.621094 99.738281 173.765625 102.277344 174.546875 104.753906 C 175.40625 107.429688 176.261719 110.113281 177.121094 112.796875 L 179.457031 120.933594 L 181.734375 129.097656 C 182.304688 131.457031 182.824219 133.824219 183.328125 136.195312 C 183.410156 136.585938 183.492188 136.972656 183.574219 137.359375 C 183.722656 138.078125 183.859375 138.796875 183.988281 139.515625 C 191.296875 142.429688 198.238281 146.09375 205.242188 149.753906 C 210.265625 152.378906 215.222656 155.007812 220.640625 156.625 C 224.492188 157.773438 228.132812 158.183594 231.609375 160.300781 C 232.375 160.765625 231.878906 161.96875 231.03125 161.59375 C 223.273438 158.179688 215.253906 157.058594 207.488281 153.117188 C 199.785156 149.210938 192.316406 145.019531 184.367188 141.746094 C 184.4375 142.167969 184.503906 142.589844 184.574219 143.011719 C 184.957031 145.378906 185.34375 147.75 185.917969 150.128906 C 186.84375 153.988281 187.425781 157.988281 188.148438 161.882812 C 188.859375 165.8125 189.933594 169.679688 190.914062 173.5625 L 191.890625 177.230469 L 192.347656 178.9375 C 205.382812 191.222656 220.589844 197.160156 238.085938 202.417969 C 238.957031 202.679688 238.632812 204.042969 237.757812 203.804688 C 227.78125 201.066406 217.546875 197.96875 208.265625 193.199219 C 202.117188 190.039062 197.707031 186.679688 193.417969 182.5 L 194.03125 184.519531 L 194.203125 185.082031 C 195.140625 188.097656 195.925781 191.140625 196.796875 194.167969 C 197.339844 196.027344 197.933594 197.882812 198.578125 199.726562 C 201.722656 208.929688 205.660156 217.410156 208.707031 226.710938 C 208.859375 227.144531 209.015625 227.574219 209.171875 228.007812 C 209.367188 228.550781 209.558594 229.089844 209.753906 229.632812 C 225.097656 238.515625 239.269531 248.917969 256.742188 253.347656 C 256.984375 253.40625 256.910156 253.785156 256.667969 253.730469 Z M 256.671875 253.726562 " fill-opacity="1" fill-rule="nonzero"/></g></svg>