<svg xmlns="http://www.w3.org/2000/svg" xmlns:xlink="http://www.w3.org/1999/xlink" width="500" zoomAndPan="magnify" viewBox="0 0 375 374.999991" height="500" preserveAspectRatio="xMidYMid meet" version="1.0"><defs><clipPath id="191ddb07fc"><path d="M 52.15625 220 L 98 220 L 98 234.132812 L 52.15625 234.132812 Z M 52.15625 220 " clip-rule="nonzero"/></clipPath><clipPath id="4dd5e49dd8"><path d="M 110 220 L 156 220 L 156 234.132812 L 110 234.132812 Z M 110 220 " clip-rule="nonzero"/></clipPath><clipPath id="3f8856ee58"><path d="M 166 220 L 212 220 L 212 234.132812 L 166 234.132812 Z M 166 220 " clip-rule="nonzero"/></clipPath><clipPath id="4761c6c79e"><path d="M 225 220 L 271 220 L 271 234.132812 L 225 234.132812 Z M 225 220 " clip-rule="nonzero"/></clipPath><clipPath id="c83c599e3a"><path d="M 309 141.132812 L 320 141.132812 L 320 159 L 309 159 Z M 309 141.132812 " clip-rule="nonzero"/></clipPath><clipPath id="8b9e9fc0de"><path d="M 287 220 L 333 220 L 333 234.132812 L 287 234.132812 Z M 287 220 " clip-rule="nonzero"/></clipPath></defs><path fill="#618f2f" d="M 73.773438 212.410156 C 73.648438 212.238281 73.640625 212.03125 73.730469 211.84375 C 73.910156 211.410156 74.105469 210.980469 74.3125 210.554688 C 74.808594 209.523438 75.40625 208.527344 76.222656 207.71875 C 76.910156 207.042969 77.65625 206.425781 78.453125 205.886719 C 78.996094 205.550781 79.585938 205.285156 80.1875 205.0625 C 81.199219 204.691406 82.25 204.441406 83.304688 204.21875 C 85.113281 203.839844 87.039062 203.636719 88.835938 204.1875 C 89.652344 204.449219 90.550781 204.773438 91.042969 205.519531 C 91.363281 206.011719 91.070312 206.585938 90.816406 207.039062 C 90.441406 207.703125 89.96875 208.300781 89.457031 208.863281 C 88.199219 210.222656 86.773438 211.488281 85.058594 212.214844 C 84.371094 212.503906 83.667969 212.777344 82.949219 212.984375 C 82.347656 213.128906 81.730469 213.21875 81.117188 213.285156 C 79.585938 213.453125 78.023438 213.460938 76.507812 213.179688 C 75.851562 213.058594 75.195312 212.910156 74.550781 212.722656 C 74.339844 212.6875 73.90625 212.601562 73.773438 212.410156 Z M 73.773438 212.410156 " fill-opacity="1" fill-rule="nonzero"/><path fill="#557d2f" d="M 89.511719 205.863281 C 89.363281 205.324219 87.726562 205.988281 87.367188 206.136719 C 86.433594 206.542969 85.539062 207.050781 84.558594 207.347656 C 83.644531 207.648438 82.730469 207.929688 81.800781 208.167969 C 80.6875 208.441406 79.566406 208.714844 78.515625 209.1875 C 77.683594 209.558594 76.910156 210.035156 76.167969 210.5625 C 75.929688 210.730469 75.707031 210.921875 75.476562 211.101562 C 75.382812 211.164062 75.285156 211.242188 75.265625 211.363281 C 75.207031 211.632812 75.539062 211.851562 75.757812 211.683594 C 76.941406 210.742188 77.980469 210.058594 79.269531 209.566406 C 80.253906 209.183594 81.285156 208.960938 82.304688 208.695312 C 83.734375 208.289062 85.179688 207.90625 86.511719 207.242188 C 87.191406 206.914062 87.875 206.578125 88.609375 206.382812 C 88.773438 206.34375 88.773438 206.339844 89.101562 206.300781 C 89.359375 206.324219 89.601562 206.15625 89.511719 205.863281 Z M 89.511719 205.863281 " fill-opacity="1" fill-rule="nonzero"/><path fill="#618f2f" d="M 74.921875 214.84375 C 74.890625 214.460938 74.757812 213.183594 74.640625 212.804688 C 74.609375 212.699219 74.339844 211.722656 73.984375 211.746094 C 73.625 211.769531 73.714844 212.34375 73.648438 212.460938 C 73.65625 214.25 72.941406 220.539062 72.652344 222.320312 C 72.375 223.953125 72.167969 225.585938 71.910156 227.21875 C 71.75 228.261719 71.582031 229.304688 71.507812 230.347656 C 71.488281 230.648438 71.472656 230.945312 71.464844 231.246094 C 71.460938 231.378906 71.449219 231.515625 71.5625 231.636719 C 71.792969 231.890625 72.320312 231.921875 72.75 231.9375 C 73.117188 231.957031 73.503906 231.914062 73.585938 231.664062 C 73.679688 231.359375 73.65625 231.046875 73.667969 230.738281 C 73.679688 230.066406 73.683594 229.394531 73.726562 228.726562 C 73.804688 227.390625 74.003906 226.050781 74.167969 224.714844 C 74.398438 222.585938 75.035156 216.976562 74.921875 214.84375 Z M 74.921875 214.84375 " fill-opacity="1" fill-rule="nonzero"/><g clip-path="url(#191ddb07fc)"><path fill="#713d22" d="M 97.046875 232.667969 C 96.8125 232.34375 96.464844 232.152344 96.183594 231.878906 C 95.289062 231.148438 94.160156 230.804688 93.394531 230.359375 C 92.808594 229.949219 92.164062 229.695312 91.527344 229.433594 C 91.480469 229.40625 91.367188 229.347656 91.335938 229.324219 C 91.113281 229.191406 90.890625 229.046875 90.667969 228.910156 C 90.472656 228.78125 89.585938 228.285156 89.65625 228.316406 C 89.332031 228 89.058594 227.609375 88.726562 227.304688 C 88.382812 226.960938 88.464844 227.117188 88.40625 226.890625 C 88.378906 226.722656 88.359375 226.628906 88.28125 226.484375 C 88.171875 226.273438 88.027344 226.257812 87.941406 226.199219 C 87.554688 225.925781 87.574219 226.285156 87.1875 225.84375 C 86.960938 225.507812 86.808594 225.175781 86.484375 225.058594 C 86.109375 224.921875 85.707031 224.914062 85.320312 224.980469 C 85.285156 224.988281 85.238281 224.988281 85.203125 224.984375 C 84.957031 224.929688 85.207031 224.214844 84.773438 224.160156 C 84.527344 224.117188 84.289062 224.148438 84.054688 224.21875 C 84.039062 224.222656 84.035156 224.222656 84.027344 224.222656 C 84.015625 224.222656 84.011719 224.226562 84 224.226562 C 83.605469 224.242188 83.570312 223.574219 83.171875 223.601562 C 82.992188 223.652344 82.839844 223.425781 82.40625 223.175781 C 82.257812 223.078125 82.097656 223.042969 81.945312 223.058594 C 81.910156 222.964844 81.871094 222.875 81.835938 222.796875 C 81.582031 222.324219 81.082031 222.171875 80.628906 222.164062 C 80.539062 222.105469 80.460938 222.039062 80.378906 221.976562 C 80.054688 221.6875 79.660156 221.542969 79.261719 221.464844 C 79.136719 221.511719 78.75 221.027344 78.375 221.128906 C 78.039062 221.183594 77.734375 221.410156 77.503906 221.699219 C 77.300781 221.570312 77.113281 221.390625 76.878906 221.347656 C 76.617188 221.296875 76.355469 221.320312 76.097656 221.386719 C 76.058594 221.371094 76.023438 221.359375 75.984375 221.339844 C 76.191406 221.429688 75.65625 221.160156 75.574219 221.148438 C 75.3125 221.085938 75.050781 221.152344 74.800781 221.238281 C 74.761719 221.199219 74.65625 221.085938 74.628906 221.046875 C 74.425781 220.796875 74.207031 220.535156 73.925781 220.40625 C 73.464844 220.167969 72.675781 220.464844 72.488281 220.472656 C 72.328125 220.460938 72.113281 220.375 71.773438 220.324219 C 71.488281 220.339844 71.21875 220.464844 70.984375 220.652344 C 70.980469 220.648438 70.972656 220.644531 70.96875 220.636719 C 70.734375 220.386719 70.46875 220.128906 70.136719 220.089844 C 69.800781 219.996094 69.226562 220.261719 69.171875 220.300781 C 69.160156 220.304688 69.160156 220.308594 69.152344 220.308594 C 68.929688 220.316406 68.699219 220.328125 68.507812 220.476562 C 68.15625 220.6875 67.726562 221.328125 67.617188 221.402344 C 67.476562 221.496094 67.109375 221.574219 66.835938 221.882812 C 66.464844 222.273438 66.320312 222.660156 66.140625 222.765625 C 65.894531 222.832031 65.003906 223.53125 64.75 223.628906 C 64.25 223.734375 63.421875 224.210938 63.234375 224.332031 C 62.910156 224.472656 62.855469 224.367188 62.445312 224.53125 C 62.183594 224.652344 61.960938 224.859375 61.785156 225.117188 C 61.785156 225.117188 61.785156 225.117188 61.78125 225.117188 C 61.480469 225.125 61.21875 225.3125 60.988281 225.523438 C 60.808594 225.65625 60.679688 225.863281 60.527344 226.027344 C 60.527344 226.027344 60.523438 226.03125 60.523438 226.03125 C 60.304688 226.089844 59.871094 225.992188 59.484375 226.230469 C 59.144531 226.484375 59.285156 226.238281 58.773438 226.464844 C 58.578125 226.601562 58.410156 226.796875 58.308594 227.023438 C 58.292969 227.023438 58.277344 227.015625 58.265625 227.019531 C 57.914062 227.03125 57.6875 227.441406 57.605469 227.820312 C 57.503906 227.824219 57.40625 227.851562 57.316406 227.90625 C 57.175781 228.003906 57.046875 228.128906 56.9375 228.269531 C 56.890625 228.332031 56.851562 228.394531 56.804688 228.460938 C 56.796875 228.523438 56.675781 228.628906 56.785156 228.496094 C 56.605469 228.714844 56.710938 228.53125 56.257812 228.734375 C 56.074219 228.84375 55.925781 229.011719 55.800781 229.199219 C 55.710938 229.15625 55.476562 229.0625 55.398438 229.085938 C 55.113281 229.085938 54.851562 229.285156 54.652344 229.511719 C 54.601562 229.578125 54.558594 229.652344 54.515625 229.722656 C 54.261719 229.59375 53.980469 229.738281 53.796875 229.964844 C 53.667969 229.921875 53.539062 229.890625 53.40625 229.957031 C 53.222656 230.039062 53.054688 230.195312 52.949219 230.394531 C 52.925781 230.445312 52.898438 230.496094 52.871094 230.542969 C 52.738281 230.652344 52.664062 230.832031 52.65625 231.015625 C 52.644531 231.09375 52.660156 231.171875 52.667969 231.246094 C 52.671875 231.277344 52.679688 231.316406 52.6875 231.339844 C 52.6875 231.34375 52.6875 231.355469 52.6875 231.363281 C 52.6875 231.394531 52.691406 231.433594 52.695312 231.464844 C 52.527344 231.613281 52.527344 231.546875 52.3125 231.863281 C 52.152344 232.164062 52.320312 232.554688 52.605469 232.644531 C 52.785156 232.730469 52.976562 232.742188 53.167969 232.738281 C 53.214844 232.851562 53.304688 232.941406 53.433594 232.9375 C 57.601562 233.433594 61.78125 233.664062 65.96875 233.648438 C 69.160156 233.753906 72.34375 234.042969 75.539062 234.011719 C 78.5 234.007812 81.445312 233.632812 84.402344 233.550781 C 87.25 233.492188 90.09375 233.707031 92.941406 233.613281 C 94.234375 233.546875 95.554688 233.671875 96.832031 233.414062 C 97.125 233.335938 97.222656 232.929688 97.046875 232.667969 Z M 97.046875 232.667969 " fill-opacity="1" fill-rule="nonzero"/></g><path fill="#618f2f" d="M 133.78125 208.457031 C 133.675781 208.273438 133.679688 208.066406 133.785156 207.890625 C 134 207.46875 134.230469 207.058594 134.46875 206.652344 C 135.050781 205.667969 135.726562 204.722656 136.609375 203.984375 C 137.347656 203.367188 138.140625 202.816406 138.980469 202.34375 C 139.554688 202.050781 140.160156 201.835938 140.78125 201.667969 C 141.820312 201.378906 142.882812 201.214844 143.957031 201.085938 C 145.792969 200.855469 147.726562 200.816406 149.472656 201.511719 C 150.265625 201.839844 151.132812 202.234375 151.5625 203.019531 C 151.839844 203.535156 151.503906 204.085938 151.210938 204.515625 C 150.78125 205.144531 150.265625 205.703125 149.710938 206.222656 C 148.34375 207.46875 146.816406 208.613281 145.050781 209.199219 C 144.339844 209.429688 143.621094 209.644531 142.886719 209.789062 C 142.273438 209.886719 141.652344 209.921875 141.03125 209.941406 C 139.488281 209.980469 137.933594 209.855469 136.445312 209.453125 C 135.800781 209.277344 135.160156 209.074219 134.535156 208.839844 C 134.328125 208.78125 133.902344 208.65625 133.78125 208.457031 Z M 133.78125 208.457031 " fill-opacity="1" fill-rule="nonzero"/><path fill="#557d2f" d="M 150.007812 203.234375 C 149.902344 202.6875 148.21875 203.214844 147.851562 203.332031 C 146.886719 203.65625 145.953125 204.089844 144.949219 204.308594 C 144.019531 204.53125 143.078125 204.734375 142.136719 204.894531 C 141.003906 205.078125 139.863281 205.257812 138.78125 205.640625 C 137.921875 205.941406 137.109375 206.351562 136.328125 206.816406 C 136.074219 206.964844 135.839844 207.132812 135.59375 207.296875 C 135.492188 207.351562 135.386719 207.417969 135.359375 207.539062 C 135.277344 207.804688 135.59375 208.050781 135.828125 207.902344 C 137.082031 207.058594 138.175781 206.464844 139.5 206.085938 C 140.507812 205.78125 141.558594 205.644531 142.59375 205.464844 C 144.046875 205.179688 145.523438 204.917969 146.90625 204.367188 C 147.609375 204.09375 148.320312 203.816406 149.0625 203.683594 C 149.230469 203.65625 149.226562 203.65625 149.558594 203.644531 C 149.816406 203.679688 150.070312 203.535156 150.007812 203.234375 Z M 150.007812 203.234375 " fill-opacity="1" fill-rule="nonzero"/><path fill="#618f2f" d="M 134.628906 208.082031 C 134.75 207.910156 134.765625 207.703125 134.671875 207.515625 C 134.496094 207.082031 134.304688 206.652344 134.101562 206.226562 C 133.609375 205.195312 133.023438 204.199219 132.21875 203.390625 C 131.542969 202.714844 130.804688 202.097656 130.019531 201.558594 C 129.480469 201.222656 128.898438 200.957031 128.304688 200.734375 C 127.300781 200.363281 126.265625 200.109375 125.222656 199.890625 C 123.433594 199.507812 121.53125 199.308594 119.753906 199.851562 C 118.945312 200.113281 118.058594 200.4375 117.570312 201.183594 C 117.253906 201.675781 117.539062 202.25 117.789062 202.703125 C 118.160156 203.367188 118.628906 203.964844 119.128906 204.53125 C 120.367188 205.890625 121.777344 207.15625 123.472656 207.886719 C 124.152344 208.179688 124.84375 208.449219 125.558594 208.65625 C 126.152344 208.800781 126.761719 208.890625 127.371094 208.960938 C 128.886719 209.132812 130.425781 209.132812 131.929688 208.855469 C 132.578125 208.738281 133.230469 208.585938 133.863281 208.402344 C 134.066406 208.363281 134.492188 208.273438 134.628906 208.082031 Z M 134.628906 208.082031 " fill-opacity="1" fill-rule="nonzero"/><path fill="#557d2f" d="M 119.082031 201.523438 C 119.226562 200.988281 120.84375 201.652344 121.195312 201.800781 C 122.121094 202.203125 123.003906 202.714844 123.972656 203.011719 C 124.875 203.3125 125.78125 203.59375 126.699219 203.832031 C 127.800781 204.109375 128.910156 204.382812 129.945312 204.855469 C 130.765625 205.226562 131.53125 205.703125 132.265625 206.230469 C 132.5 206.398438 132.71875 206.589844 132.945312 206.769531 C 133.039062 206.832031 133.140625 206.910156 133.15625 207.03125 C 133.214844 207.296875 132.886719 207.515625 132.664062 207.351562 C 131.496094 206.410156 130.472656 205.726562 129.199219 205.230469 C 128.230469 204.847656 127.207031 204.621094 126.203125 204.355469 C 124.792969 203.949219 123.359375 203.566406 122.042969 202.898438 C 121.371094 202.570312 120.699219 202.230469 119.972656 202.039062 C 119.808594 202 119.8125 201.996094 119.488281 201.960938 C 119.230469 201.984375 118.988281 201.816406 119.082031 201.523438 Z M 119.082031 201.523438 " fill-opacity="1" fill-rule="nonzero"/><path fill="#618f2f" d="M 134.71875 210.726562 C 134.6875 210.34375 134.558594 209.066406 134.441406 208.6875 C 134.40625 208.582031 134.140625 207.605469 133.78125 207.628906 C 133.421875 207.652344 133.511719 208.226562 133.445312 208.34375 C 133.453125 210.132812 132.738281 216.421875 132.453125 218.203125 C 132.171875 219.835938 131.964844 221.46875 131.707031 223.101562 C 131.546875 224.144531 131.378906 225.1875 131.304688 226.230469 C 131.285156 226.53125 131.269531 226.828125 131.261719 227.128906 C 131.257812 227.261719 131.25 227.398438 131.359375 227.519531 C 131.589844 227.773438 132.117188 227.804688 132.546875 227.820312 C 132.914062 227.839844 133.300781 227.796875 133.382812 227.546875 C 133.476562 227.242188 133.453125 226.929688 133.464844 226.621094 C 133.476562 225.949219 133.480469 225.277344 133.523438 224.609375 C 133.601562 223.273438 133.800781 221.933594 133.964844 220.597656 C 134.195312 218.472656 134.835938 212.859375 134.71875 210.726562 Z M 134.71875 210.726562 " fill-opacity="1" fill-rule="nonzero"/><g clip-path="url(#4dd5e49dd8)"><path fill="#713d22" d="M 155.246094 232.746094 C 155.011719 232.417969 154.664062 232.226562 154.382812 231.957031 C 153.488281 231.222656 152.359375 230.882812 151.59375 230.4375 C 151.007812 230.027344 150.363281 229.773438 149.726562 229.511719 C 149.679688 229.484375 149.566406 229.425781 149.535156 229.402344 C 149.3125 229.269531 149.089844 229.125 148.867188 228.984375 C 148.671875 228.859375 147.789062 228.363281 147.859375 228.390625 C 147.53125 228.078125 147.257812 227.6875 146.925781 227.382812 C 146.585938 227.039062 146.664062 227.195312 146.609375 226.964844 C 146.578125 226.796875 146.5625 226.707031 146.480469 226.558594 C 146.371094 226.351562 146.226562 226.335938 146.140625 226.273438 C 145.753906 226.003906 145.777344 226.363281 145.386719 225.917969 C 145.160156 225.582031 145.011719 225.25 144.6875 225.136719 C 144.308594 225 143.90625 224.992188 143.519531 225.058594 C 143.484375 225.0625 143.4375 225.0625 143.402344 225.058594 C 143.15625 225.007812 143.40625 224.292969 142.972656 224.238281 C 142.726562 224.195312 142.488281 224.226562 142.253906 224.296875 C 142.238281 224.296875 142.234375 224.296875 142.226562 224.296875 C 142.214844 224.296875 142.214844 224.300781 142.199219 224.300781 C 141.804688 224.320312 141.769531 223.652344 141.371094 223.675781 C 141.191406 223.730469 141.039062 223.503906 140.605469 223.253906 C 140.457031 223.152344 140.296875 223.121094 140.144531 223.136719 C 140.109375 223.042969 140.070312 222.953125 140.035156 222.871094 C 139.78125 222.402344 139.28125 222.25 138.828125 222.242188 C 138.742188 222.183594 138.660156 222.117188 138.578125 222.054688 C 138.253906 221.765625 137.859375 221.621094 137.460938 221.542969 C 137.335938 221.585938 136.949219 221.105469 136.574219 221.207031 C 136.238281 221.261719 135.933594 221.488281 135.703125 221.773438 C 135.5 221.648438 135.3125 221.464844 135.078125 221.425781 C 134.816406 221.375 134.554688 221.398438 134.296875 221.464844 C 134.257812 221.449219 134.222656 221.4375 134.1875 221.414062 C 134.394531 221.507812 133.855469 221.238281 133.773438 221.226562 C 133.515625 221.164062 133.25 221.226562 133 221.316406 C 132.960938 221.273438 132.855469 221.164062 132.828125 221.125 C 132.625 220.871094 132.40625 220.613281 132.125 220.484375 C 131.664062 220.246094 130.878906 220.542969 130.6875 220.550781 C 130.53125 220.535156 130.3125 220.453125 129.972656 220.402344 C 129.6875 220.414062 129.417969 220.542969 129.183594 220.726562 C 129.179688 220.726562 129.171875 220.722656 129.167969 220.714844 C 128.933594 220.464844 128.667969 220.207031 128.335938 220.167969 C 128 220.074219 127.425781 220.339844 127.371094 220.378906 C 127.363281 220.382812 127.359375 220.386719 127.351562 220.386719 C 127.128906 220.390625 126.898438 220.40625 126.707031 220.554688 C 126.355469 220.765625 125.925781 221.40625 125.816406 221.480469 C 125.675781 221.574219 125.308594 221.652344 125.035156 221.960938 C 124.664062 222.347656 124.519531 222.738281 124.339844 222.84375 C 124.09375 222.910156 123.203125 223.605469 122.949219 223.703125 C 122.449219 223.8125 121.625 224.289062 121.433594 224.410156 C 121.109375 224.550781 121.054688 224.441406 120.644531 224.605469 C 120.382812 224.726562 120.160156 224.9375 119.984375 225.195312 C 119.683594 225.199219 119.417969 225.390625 119.1875 225.601562 C 119.007812 225.734375 118.878906 225.9375 118.726562 226.105469 C 118.726562 226.105469 118.722656 226.105469 118.722656 226.105469 C 118.503906 226.167969 118.070312 226.070312 117.683594 226.308594 C 117.34375 226.558594 117.484375 226.316406 116.972656 226.542969 C 116.777344 226.675781 116.609375 226.871094 116.507812 227.101562 C 116.492188 227.101562 116.476562 227.09375 116.464844 227.097656 C 116.113281 227.105469 115.886719 227.519531 115.804688 227.898438 C 115.703125 227.902344 115.605469 227.929688 115.515625 227.984375 C 115.375 228.082031 115.246094 228.203125 115.136719 228.34375 C 115.089844 228.410156 115.050781 228.472656 115.007812 228.539062 C 114.996094 228.601562 114.875 228.703125 114.984375 228.574219 C 114.804688 228.792969 114.910156 228.605469 114.457031 228.8125 C 114.273438 228.917969 114.125 229.085938 114 229.273438 C 113.910156 229.234375 113.675781 229.140625 113.597656 229.164062 C 113.3125 229.164062 113.050781 229.363281 112.851562 229.589844 C 112.800781 229.652344 112.757812 229.726562 112.71875 229.800781 C 112.464844 229.671875 112.179688 229.816406 111.996094 230.042969 C 111.867188 230 111.738281 229.96875 111.609375 230.035156 C 111.421875 230.117188 111.253906 230.273438 111.148438 230.472656 C 111.125 230.523438 111.101562 230.574219 111.070312 230.621094 C 110.9375 230.726562 110.867188 230.910156 110.855469 231.09375 C 110.84375 231.171875 110.859375 231.246094 110.867188 231.320312 C 110.871094 231.355469 110.878906 231.390625 110.886719 231.414062 C 110.886719 231.421875 110.886719 231.433594 110.886719 231.4375 C 110.886719 231.472656 110.890625 231.507812 110.894531 231.542969 C 110.730469 231.691406 110.726562 231.625 110.511719 231.9375 C 110.351562 232.242188 110.519531 232.628906 110.804688 232.722656 C 110.984375 232.808594 111.175781 232.820312 111.367188 232.816406 C 111.414062 232.929688 111.503906 233.019531 111.632812 233.011719 C 115.800781 233.507812 119.980469 233.742188 124.167969 233.722656 C 127.359375 233.832031 130.542969 234.121094 133.738281 234.089844 C 136.699219 234.085938 139.644531 233.710938 142.605469 233.628906 C 145.449219 233.570312 148.296875 233.785156 151.140625 233.691406 C 152.433594 233.625 153.753906 233.746094 155.03125 233.492188 C 155.320312 233.414062 155.421875 233.007812 155.246094 232.746094 Z M 155.246094 232.746094 " fill-opacity="1" fill-rule="nonzero"/></g><path fill="#618f2f" d="M 187.886719 197.886719 C 187.78125 197.703125 187.785156 197.496094 187.890625 197.320312 C 188.105469 196.898438 188.335938 196.488281 188.574219 196.082031 C 189.15625 195.097656 189.832031 194.152344 190.714844 193.414062 C 191.453125 192.796875 192.25 192.246094 193.085938 191.773438 C 193.660156 191.480469 194.265625 191.265625 194.886719 191.097656 C 195.925781 190.808594 196.992188 190.644531 198.0625 190.515625 C 199.898438 190.285156 201.832031 190.246094 203.578125 190.941406 C 204.371094 191.269531 205.238281 191.664062 205.667969 192.449219 C 205.945312 192.96875 205.609375 193.515625 205.320312 193.945312 C 204.886719 194.574219 204.371094 195.132812 203.816406 195.652344 C 202.453125 196.898438 200.925781 198.042969 199.15625 198.628906 C 198.445312 198.859375 197.726562 199.074219 196.992188 199.21875 C 196.378906 199.316406 195.757812 199.351562 195.136719 199.371094 C 193.59375 199.410156 192.042969 199.285156 190.550781 198.882812 C 189.90625 198.707031 189.265625 198.503906 188.640625 198.269531 C 188.433594 198.210938 188.007812 198.085938 187.886719 197.886719 Z M 187.886719 197.886719 " fill-opacity="1" fill-rule="nonzero"/><path fill="#557d2f" d="M 204.113281 192.660156 C 204.007812 192.113281 202.324219 192.640625 201.957031 192.757812 C 200.992188 193.085938 200.058594 193.515625 199.054688 193.734375 C 198.125 193.957031 197.183594 194.160156 196.242188 194.324219 C 195.109375 194.503906 193.96875 194.683594 192.886719 195.066406 C 192.027344 195.367188 191.214844 195.777344 190.433594 196.242188 C 190.179688 196.390625 189.945312 196.5625 189.699219 196.722656 C 189.597656 196.777344 189.492188 196.847656 189.464844 196.964844 C 189.382812 197.230469 189.699219 197.476562 189.933594 197.328125 C 191.1875 196.488281 192.28125 195.894531 193.605469 195.511719 C 194.613281 195.207031 195.664062 195.070312 196.699219 194.894531 C 198.152344 194.609375 199.628906 194.347656 201.011719 193.792969 C 201.714844 193.519531 202.425781 193.242188 203.167969 193.109375 C 203.335938 193.085938 203.332031 193.082031 203.664062 193.070312 C 203.921875 193.105469 204.175781 192.960938 204.113281 192.660156 Z M 204.113281 192.660156 " fill-opacity="1" fill-rule="nonzero"/><path fill="#618f2f" d="M 188.734375 197.511719 C 188.855469 197.339844 188.871094 197.132812 188.78125 196.945312 C 188.601562 196.511719 188.410156 196.082031 188.207031 195.65625 C 187.714844 194.625 187.128906 193.628906 186.324219 192.820312 C 185.648438 192.144531 184.910156 191.527344 184.125 190.988281 C 183.585938 190.652344 183.003906 190.386719 182.410156 190.164062 C 181.40625 189.792969 180.371094 189.539062 179.328125 189.320312 C 177.539062 188.9375 175.636719 188.738281 173.859375 189.28125 C 173.050781 189.542969 172.164062 189.867188 171.675781 190.613281 C 171.363281 191.105469 171.644531 191.679688 171.894531 192.132812 C 172.265625 192.796875 172.734375 193.394531 173.234375 193.960938 C 174.472656 195.320312 175.882812 196.585938 177.578125 197.316406 C 178.257812 197.609375 178.949219 197.878906 179.664062 198.085938 C 180.257812 198.230469 180.867188 198.320312 181.476562 198.390625 C 182.992188 198.5625 184.53125 198.5625 186.035156 198.285156 C 186.683594 198.167969 187.335938 198.015625 187.972656 197.832031 C 188.171875 197.789062 188.597656 197.703125 188.734375 197.511719 Z M 188.734375 197.511719 " fill-opacity="1" fill-rule="nonzero"/><path fill="#557d2f" d="M 173.1875 190.953125 C 173.332031 190.417969 174.949219 191.082031 175.300781 191.230469 C 176.226562 191.632812 177.109375 192.144531 178.078125 192.441406 C 178.980469 192.742188 179.886719 193.023438 180.804688 193.261719 C 181.90625 193.539062 183.015625 193.8125 184.050781 194.285156 C 184.871094 194.65625 185.636719 195.132812 186.371094 195.660156 C 186.605469 195.828125 186.824219 196.019531 187.050781 196.199219 C 187.144531 196.261719 187.246094 196.339844 187.261719 196.460938 C 187.320312 196.726562 186.992188 196.945312 186.769531 196.78125 C 185.601562 195.839844 184.578125 195.15625 183.304688 194.660156 C 182.335938 194.277344 181.3125 194.050781 180.308594 193.785156 C 178.898438 193.378906 177.46875 192.996094 176.148438 192.328125 C 175.480469 192 174.804688 191.660156 174.078125 191.46875 C 173.914062 191.429688 173.917969 191.425781 173.59375 191.390625 C 173.335938 191.410156 173.097656 191.246094 173.1875 190.953125 Z M 173.1875 190.953125 " fill-opacity="1" fill-rule="nonzero"/><path fill="#618f2f" d="M 188.636719 201.347656 C 188.601562 200.769531 188.472656 198.84375 188.355469 198.273438 C 188.320312 198.109375 188.054688 196.632812 187.695312 196.675781 C 187.339844 196.710938 187.425781 197.574219 187.363281 197.753906 C 187.371094 200.453125 186.652344 209.941406 186.367188 212.625 C 186.085938 215.082031 185.882812 217.546875 185.621094 220.003906 C 185.460938 221.578125 185.292969 223.148438 185.21875 224.726562 C 185.199219 225.175781 185.183594 225.628906 185.175781 226.078125 C 185.171875 226.277344 185.164062 226.488281 185.273438 226.667969 C 185.503906 227.050781 186.03125 227.097656 186.464844 227.117188 C 186.828125 227.148438 187.214844 227.082031 187.300781 226.703125 C 187.394531 226.246094 187.371094 225.773438 187.378906 225.308594 C 187.394531 224.296875 187.394531 223.285156 187.4375 222.273438 C 187.515625 220.253906 187.714844 218.238281 187.878906 216.226562 C 188.109375 213.023438 188.75 204.5625 188.636719 201.347656 Z M 188.636719 201.347656 " fill-opacity="1" fill-rule="nonzero"/><g clip-path="url(#3f8856ee58)"><path fill="#713d22" d="M 211.003906 232.746094 C 210.769531 232.417969 210.421875 232.226562 210.140625 231.957031 C 209.246094 231.222656 208.117188 230.882812 207.351562 230.4375 C 206.765625 230.027344 206.121094 229.773438 205.484375 229.511719 C 205.4375 229.484375 205.320312 229.425781 205.292969 229.402344 C 205.066406 229.269531 204.847656 229.125 204.625 228.984375 C 204.429688 228.859375 203.542969 228.363281 203.613281 228.390625 C 203.285156 228.078125 203.015625 227.6875 202.683594 227.382812 C 202.339844 227.039062 202.421875 227.195312 202.363281 226.964844 C 202.335938 226.796875 202.316406 226.707031 202.238281 226.558594 C 202.128906 226.351562 201.984375 226.335938 201.898438 226.273438 C 201.511719 226.003906 201.53125 226.363281 201.144531 225.917969 C 200.917969 225.582031 200.765625 225.25 200.441406 225.136719 C 200.066406 225 199.664062 224.992188 199.277344 225.058594 C 199.242188 225.0625 199.191406 225.0625 199.160156 225.058594 C 198.914062 225.007812 199.164062 224.292969 198.726562 224.238281 C 198.484375 224.195312 198.242188 224.226562 198.011719 224.296875 C 197.996094 224.296875 197.988281 224.296875 197.984375 224.296875 C 197.972656 224.296875 197.96875 224.300781 197.957031 224.300781 C 197.5625 224.320312 197.523438 223.652344 197.128906 223.675781 C 196.945312 223.730469 196.796875 223.503906 196.363281 223.253906 C 196.214844 223.152344 196.054688 223.121094 195.902344 223.136719 C 195.867188 223.042969 195.828125 222.953125 195.789062 222.871094 C 195.535156 222.402344 195.039062 222.25 194.585938 222.242188 C 194.496094 222.183594 194.417969 222.117188 194.332031 222.054688 C 194.007812 221.765625 193.617188 221.621094 193.21875 221.542969 C 193.09375 221.585938 192.707031 221.105469 192.332031 221.207031 C 191.996094 221.261719 191.691406 221.488281 191.460938 221.773438 C 191.257812 221.648438 191.070312 221.464844 190.835938 221.425781 C 190.574219 221.375 190.308594 221.398438 190.054688 221.464844 C 190.015625 221.449219 189.980469 221.4375 189.941406 221.414062 C 190.148438 221.507812 189.613281 221.238281 189.53125 221.226562 C 189.269531 221.164062 189.007812 221.226562 188.757812 221.316406 C 188.71875 221.273438 188.613281 221.164062 188.585938 221.125 C 188.382812 220.871094 188.164062 220.613281 187.878906 220.484375 C 187.421875 220.246094 186.632812 220.542969 186.445312 220.550781 C 186.285156 220.535156 186.070312 220.453125 185.726562 220.402344 C 185.445312 220.414062 185.171875 220.542969 184.941406 220.726562 C 184.9375 220.726562 184.929688 220.722656 184.925781 220.714844 C 184.6875 220.464844 184.425781 220.207031 184.09375 220.167969 C 183.757812 220.074219 183.183594 220.339844 183.128906 220.378906 C 183.117188 220.382812 183.113281 220.386719 183.109375 220.386719 C 182.882812 220.390625 182.65625 220.40625 182.464844 220.554688 C 182.113281 220.765625 181.679688 221.40625 181.574219 221.480469 C 181.433594 221.574219 181.066406 221.652344 180.792969 221.960938 C 180.421875 222.347656 180.277344 222.738281 180.097656 222.84375 C 179.851562 222.910156 178.960938 223.605469 178.707031 223.703125 C 178.207031 223.8125 177.378906 224.289062 177.191406 224.410156 C 176.867188 224.550781 176.8125 224.441406 176.402344 224.605469 C 176.140625 224.726562 175.917969 224.9375 175.742188 225.195312 C 175.742188 225.195312 175.742188 225.195312 175.738281 225.195312 C 175.4375 225.199219 175.175781 225.390625 174.945312 225.601562 C 174.761719 225.734375 174.636719 225.9375 174.484375 226.105469 C 174.484375 226.105469 174.480469 226.105469 174.480469 226.105469 C 174.261719 226.167969 173.828125 226.070312 173.441406 226.308594 C 173.097656 226.558594 173.242188 226.316406 172.726562 226.542969 C 172.535156 226.675781 172.367188 226.871094 172.265625 227.101562 C 172.25 227.101562 172.234375 227.09375 172.21875 227.097656 C 171.871094 227.105469 171.644531 227.519531 171.5625 227.898438 C 171.460938 227.902344 171.363281 227.929688 171.269531 227.984375 C 171.128906 228.082031 171.003906 228.203125 170.894531 228.34375 C 170.847656 228.410156 170.804688 228.472656 170.761719 228.539062 C 170.753906 228.601562 170.632812 228.703125 170.738281 228.574219 C 170.5625 228.792969 170.667969 228.605469 170.214844 228.8125 C 170.03125 228.917969 169.882812 229.085938 169.757812 229.273438 C 169.667969 229.234375 169.433594 229.140625 169.355469 229.164062 C 169.070312 229.164062 168.808594 229.363281 168.609375 229.589844 C 168.558594 229.652344 168.515625 229.726562 168.472656 229.800781 C 168.21875 229.671875 167.9375 229.816406 167.753906 230.042969 C 167.625 230 167.496094 229.96875 167.363281 230.035156 C 167.175781 230.117188 167.011719 230.273438 166.90625 230.472656 C 166.882812 230.523438 166.855469 230.574219 166.828125 230.621094 C 166.695312 230.726562 166.621094 230.910156 166.613281 231.09375 C 166.601562 231.171875 166.617188 231.246094 166.625 231.320312 C 166.628906 231.355469 166.636719 231.390625 166.640625 231.414062 C 166.640625 231.421875 166.640625 231.433594 166.640625 231.4375 C 166.640625 231.472656 166.648438 231.507812 166.652344 231.542969 C 166.484375 231.691406 166.480469 231.625 166.269531 231.9375 C 166.109375 232.242188 166.273438 232.628906 166.5625 232.722656 C 166.742188 232.808594 166.933594 232.820312 167.125 232.816406 C 167.171875 232.929688 167.261719 233.019531 167.390625 233.011719 C 171.558594 233.507812 175.734375 233.742188 179.921875 233.722656 C 183.113281 233.832031 186.300781 234.121094 189.496094 234.089844 C 192.457031 234.085938 195.402344 233.710938 198.359375 233.628906 C 201.203125 233.570312 204.050781 233.785156 206.894531 233.691406 C 208.1875 233.625 209.507812 233.746094 210.789062 233.492188 C 211.078125 233.414062 211.175781 233.007812 211.003906 232.746094 Z M 211.003906 232.746094 " fill-opacity="1" fill-rule="nonzero"/></g><path fill="#618f2f" d="M 249.304688 181.160156 C 249.097656 181.128906 248.9375 180.996094 248.867188 180.800781 C 248.675781 180.375 248.496094 179.933594 248.332031 179.492188 C 247.933594 178.421875 247.621094 177.300781 247.597656 176.148438 C 247.582031 175.183594 247.648438 174.214844 247.804688 173.265625 C 247.933594 172.636719 248.148438 172.023438 248.402344 171.4375 C 248.832031 170.445312 249.367188 169.503906 249.9375 168.585938 C 250.90625 167.003906 252.085938 165.464844 253.714844 164.53125 C 254.46875 164.117188 255.316406 163.683594 256.199219 163.839844 C 256.773438 163.945312 256.992188 164.554688 257.140625 165.050781 C 257.359375 165.78125 257.46875 166.539062 257.527344 167.296875 C 257.644531 169.144531 257.578125 171.058594 256.925781 172.808594 C 256.660156 173.511719 256.375 174.207031 256.027344 174.875 C 255.722656 175.414062 255.359375 175.921875 254.988281 176.421875 C 254.054688 177.652344 252.988281 178.792969 251.742188 179.707031 C 251.203125 180.101562 250.640625 180.476562 250.066406 180.816406 C 249.898438 180.9375 249.535156 181.191406 249.304688 181.160156 Z M 249.304688 181.160156 " fill-opacity="1" fill-rule="nonzero"/><path fill="#557d2f" d="M 255.394531 165.183594 C 254.902344 164.921875 254.261719 166.570312 254.121094 166.933594 C 253.769531 167.898438 253.523438 168.898438 253.066406 169.816406 C 252.652344 170.683594 252.226562 171.546875 251.757812 172.390625 C 251.191406 173.390625 250.617188 174.398438 250.238281 175.488281 C 249.933594 176.347656 249.746094 177.242188 249.617188 178.144531 C 249.574219 178.433594 249.558594 178.730469 249.527344 179.019531 C 249.507812 179.136719 249.496094 179.257812 249.574219 179.355469 C 249.726562 179.585938 250.113281 179.492188 250.148438 179.214844 C 250.28125 177.707031 250.5 176.476562 251.03125 175.199219 C 251.425781 174.21875 251.976562 173.3125 252.484375 172.386719 C 253.171875 171.066406 253.890625 169.75 254.324219 168.320312 C 254.550781 167.597656 254.78125 166.867188 255.148438 166.203125 C 255.230469 166.054688 255.226562 166.054688 255.425781 165.789062 C 255.617188 165.609375 255.664062 165.320312 255.394531 165.183594 Z M 255.394531 165.183594 " fill-opacity="1" fill-rule="nonzero"/><path fill="#618f2f" d="M 250.09375 186.945312 C 250.058594 186.121094 249.929688 183.378906 249.8125 182.570312 C 249.78125 182.339844 249.511719 180.242188 249.15625 180.296875 C 248.796875 180.347656 248.882812 181.574219 248.820312 181.832031 C 248.828125 185.671875 248.113281 199.167969 247.824219 202.988281 C 247.542969 206.484375 247.339844 209.988281 247.078125 213.488281 C 246.917969 215.726562 246.753906 217.960938 246.679688 220.203125 C 246.660156 220.84375 246.640625 221.488281 246.636719 222.128906 C 246.632812 222.414062 246.621094 222.710938 246.730469 222.964844 C 246.960938 223.511719 247.492188 223.582031 247.921875 223.605469 C 248.285156 223.648438 248.671875 223.554688 248.757812 223.015625 C 248.851562 222.363281 248.828125 221.691406 248.835938 221.027344 C 248.851562 219.585938 248.855469 218.152344 248.898438 216.710938 C 248.972656 213.835938 249.175781 210.96875 249.339844 208.101562 C 249.570312 203.554688 250.207031 191.515625 250.09375 186.945312 Z M 250.09375 186.945312 " fill-opacity="1" fill-rule="nonzero"/><path fill="#618f2f" d="M 249.117188 194.507812 C 248.960938 194.242188 248.96875 193.941406 249.121094 193.683594 C 249.4375 193.074219 249.761719 192.472656 250.113281 191.886719 C 250.960938 190.457031 251.941406 189.085938 253.222656 188.015625 C 254.292969 187.117188 255.449219 186.316406 256.667969 185.632812 C 257.496094 185.207031 258.382812 184.898438 259.277344 184.652344 C 260.789062 184.234375 262.339844 183.992188 263.894531 183.800781 C 266.554688 183.46875 269.367188 183.414062 271.902344 184.421875 C 273.054688 184.898438 274.316406 185.472656 274.941406 186.613281 C 275.34375 187.363281 274.855469 188.164062 274.429688 188.785156 C 273.804688 189.695312 273.050781 190.511719 272.246094 191.261719 C 270.265625 193.078125 268.046875 194.738281 265.476562 195.585938 C 264.445312 195.921875 263.398438 196.238281 262.332031 196.441406 C 261.441406 196.585938 260.539062 196.636719 259.636719 196.660156 C 257.402344 196.722656 255.144531 196.539062 252.976562 195.953125 C 252.042969 195.703125 251.109375 195.40625 250.203125 195.0625 C 249.910156 194.980469 249.292969 194.800781 249.117188 194.507812 Z M 249.117188 194.507812 " fill-opacity="1" fill-rule="nonzero"/><path fill="#557d2f" d="M 272.683594 186.921875 C 272.535156 186.128906 270.089844 186.894531 269.554688 187.0625 C 268.152344 187.539062 266.796875 188.167969 265.339844 188.480469 C 263.984375 188.800781 262.621094 189.097656 261.25 189.332031 C 259.605469 189.597656 257.949219 189.855469 256.375 190.417969 C 255.125 190.847656 253.945312 191.453125 252.8125 192.125 C 252.441406 192.339844 252.097656 192.585938 251.746094 192.820312 C 251.597656 192.902344 251.445312 193 251.402344 193.175781 C 251.285156 193.558594 251.742188 193.917969 252.082031 193.699219 C 253.90625 192.476562 255.496094 191.613281 257.417969 191.054688 C 258.882812 190.617188 260.40625 190.417969 261.910156 190.15625 C 264.023438 189.738281 266.164062 189.359375 268.175781 188.558594 C 269.195312 188.160156 270.226562 187.757812 271.3125 187.566406 C 271.554688 187.53125 271.550781 187.519531 272.03125 187.507812 C 272.410156 187.5625 272.777344 187.355469 272.683594 186.921875 Z M 272.683594 186.921875 " fill-opacity="1" fill-rule="nonzero"/><path fill="#618f2f" d="M 248.855469 194.445312 C 249.03125 194.195312 249.046875 193.894531 248.917969 193.628906 C 248.660156 192.992188 248.386719 192.371094 248.089844 191.753906 C 247.378906 190.253906 246.519531 188.804688 245.351562 187.632812 C 244.371094 186.65625 243.300781 185.753906 242.15625 184.972656 C 241.375 184.484375 240.53125 184.097656 239.667969 183.777344 C 238.214844 183.238281 236.707031 182.871094 235.1875 182.550781 C 232.59375 181.996094 229.824219 181.707031 227.246094 182.496094 C 226.070312 182.875 224.777344 183.347656 224.066406 184.433594 C 223.609375 185.144531 224.023438 185.984375 224.386719 186.640625 C 224.929688 187.601562 225.605469 188.472656 226.332031 189.292969 C 228.128906 191.265625 230.179688 193.105469 232.640625 194.164062 C 233.632812 194.585938 234.636719 194.988281 235.671875 195.28125 C 236.535156 195.496094 237.421875 195.625 238.304688 195.726562 C 240.503906 195.96875 242.742188 195.980469 244.925781 195.574219 C 245.867188 195.402344 246.8125 195.183594 247.734375 194.917969 C 248.035156 194.851562 248.660156 194.726562 248.855469 194.445312 Z M 248.855469 194.445312 " fill-opacity="1" fill-rule="nonzero"/><path fill="#557d2f" d="M 226.269531 184.921875 C 226.484375 184.140625 228.828125 185.105469 229.34375 185.324219 C 230.6875 185.914062 231.96875 186.652344 233.378906 187.085938 C 234.6875 187.515625 236.003906 187.925781 237.335938 188.277344 C 238.933594 188.675781 240.546875 189.074219 242.054688 189.761719 C 243.246094 190.300781 244.359375 190.996094 245.421875 191.761719 C 245.765625 192.007812 246.082031 192.28125 246.414062 192.542969 C 246.550781 192.636719 246.695312 192.75 246.71875 192.925781 C 246.800781 193.320312 246.324219 193.632812 246.003906 193.394531 C 244.304688 192.023438 242.816406 191.03125 240.96875 190.3125 C 239.558594 189.753906 238.074219 189.425781 236.613281 189.039062 C 234.566406 188.449219 232.484375 187.894531 230.578125 186.925781 C 229.601562 186.445312 228.617188 185.960938 227.570312 185.679688 C 227.332031 185.621094 227.335938 185.609375 226.863281 185.5625 C 226.484375 185.585938 226.140625 185.347656 226.269531 184.921875 Z M 226.269531 184.921875 " fill-opacity="1" fill-rule="nonzero"/><g clip-path="url(#4761c6c79e)"><path fill="#713d22" d="M 270.15625 232.746094 C 269.921875 232.417969 269.574219 232.226562 269.292969 231.957031 C 268.398438 231.222656 267.269531 230.882812 266.503906 230.4375 C 265.917969 230.027344 265.273438 229.773438 264.632812 229.511719 C 264.589844 229.484375 264.472656 229.425781 264.445312 229.402344 C 264.21875 229.269531 264 229.125 263.777344 228.984375 C 263.582031 228.859375 262.695312 228.363281 262.765625 228.390625 C 262.4375 228.078125 262.167969 227.6875 261.835938 227.382812 C 261.492188 227.039062 261.574219 227.195312 261.515625 226.964844 C 261.488281 226.796875 261.46875 226.707031 261.390625 226.558594 C 261.28125 226.351562 261.136719 226.335938 261.046875 226.273438 C 260.664062 226.003906 260.683594 226.363281 260.296875 225.917969 C 260.070312 225.582031 259.917969 225.25 259.59375 225.136719 C 259.21875 225 258.816406 224.992188 258.429688 225.058594 C 258.394531 225.0625 258.34375 225.0625 258.3125 225.058594 C 258.066406 225.007812 258.316406 224.292969 257.878906 224.238281 C 257.636719 224.195312 257.394531 224.226562 257.164062 224.296875 C 257.148438 224.296875 257.140625 224.296875 257.136719 224.296875 C 257.125 224.296875 257.121094 224.300781 257.109375 224.300781 C 256.714844 224.320312 256.675781 223.652344 256.28125 223.675781 C 256.097656 223.730469 255.949219 223.503906 255.515625 223.253906 C 255.367188 223.152344 255.207031 223.121094 255.054688 223.136719 C 255.019531 223.042969 254.980469 222.953125 254.941406 222.871094 C 254.6875 222.402344 254.191406 222.25 253.738281 222.242188 C 253.648438 222.183594 253.570312 222.117188 253.484375 222.054688 C 253.160156 221.765625 252.765625 221.621094 252.371094 221.542969 C 252.246094 221.585938 251.859375 221.105469 251.484375 221.207031 C 251.148438 221.261719 250.84375 221.488281 250.613281 221.773438 C 250.40625 221.648438 250.222656 221.464844 249.988281 221.425781 C 249.726562 221.375 249.460938 221.398438 249.203125 221.464844 C 249.167969 221.449219 249.132812 221.4375 249.09375 221.414062 C 249.300781 221.507812 248.765625 221.238281 248.683594 221.226562 C 248.421875 221.164062 248.160156 221.226562 247.910156 221.316406 C 247.871094 221.273438 247.765625 221.164062 247.738281 221.125 C 247.535156 220.871094 247.316406 220.613281 247.03125 220.484375 C 246.574219 220.246094 245.785156 220.542969 245.59375 220.550781 C 245.4375 220.535156 245.222656 220.453125 244.878906 220.402344 C 244.597656 220.414062 244.324219 220.542969 244.09375 220.726562 C 244.089844 220.726562 244.082031 220.722656 244.078125 220.714844 C 243.839844 220.464844 243.578125 220.207031 243.246094 220.167969 C 242.910156 220.074219 242.335938 220.339844 242.28125 220.378906 C 242.269531 220.382812 242.265625 220.386719 242.261719 220.386719 C 242.035156 220.390625 241.808594 220.40625 241.617188 220.554688 C 241.265625 220.765625 240.832031 221.40625 240.726562 221.480469 C 240.585938 221.574219 240.21875 221.652344 239.945312 221.960938 C 239.574219 222.347656 239.429688 222.738281 239.25 222.84375 C 239.003906 222.910156 238.113281 223.605469 237.859375 223.703125 C 237.359375 223.8125 236.53125 224.289062 236.34375 224.410156 C 236.019531 224.550781 235.964844 224.441406 235.554688 224.605469 C 235.292969 224.726562 235.070312 224.9375 234.894531 225.195312 C 234.894531 225.195312 234.894531 225.195312 234.890625 225.195312 C 234.589844 225.199219 234.328125 225.390625 234.097656 225.601562 C 233.914062 225.734375 233.789062 225.9375 233.636719 226.105469 C 233.636719 226.105469 233.632812 226.105469 233.632812 226.105469 C 233.414062 226.167969 232.980469 226.070312 232.59375 226.308594 C 232.25 226.558594 232.394531 226.316406 231.878906 226.542969 C 231.6875 226.675781 231.519531 226.871094 231.414062 227.101562 C 231.402344 227.101562 231.386719 227.09375 231.371094 227.097656 C 231.023438 227.105469 230.796875 227.519531 230.714844 227.898438 C 230.613281 227.902344 230.511719 227.929688 230.421875 227.984375 C 230.28125 228.082031 230.15625 228.203125 230.046875 228.34375 C 230 228.410156 229.957031 228.472656 229.914062 228.539062 C 229.90625 228.601562 229.785156 228.703125 229.890625 228.574219 C 229.714844 228.792969 229.820312 228.605469 229.367188 228.8125 C 229.183594 228.917969 229.03125 229.085938 228.910156 229.273438 C 228.820312 229.234375 228.585938 229.140625 228.507812 229.164062 C 228.222656 229.164062 227.960938 229.363281 227.761719 229.589844 C 227.710938 229.652344 227.667969 229.726562 227.625 229.800781 C 227.371094 229.671875 227.089844 229.816406 226.902344 230.042969 C 226.777344 230 226.648438 229.96875 226.515625 230.035156 C 226.328125 230.117188 226.164062 230.273438 226.058594 230.472656 C 226.035156 230.523438 226.007812 230.574219 225.980469 230.621094 C 225.847656 230.726562 225.773438 230.910156 225.765625 231.09375 C 225.753906 231.171875 225.769531 231.246094 225.777344 231.320312 C 225.78125 231.355469 225.789062 231.390625 225.792969 231.414062 C 225.792969 231.421875 225.792969 231.433594 225.792969 231.4375 C 225.792969 231.472656 225.800781 231.507812 225.804688 231.542969 C 225.636719 231.691406 225.632812 231.625 225.421875 231.9375 C 225.261719 232.242188 225.425781 232.628906 225.714844 232.722656 C 225.894531 232.808594 226.085938 232.820312 226.277344 232.816406 C 226.324219 232.929688 226.414062 233.019531 226.542969 233.011719 C 230.710938 233.507812 234.886719 233.742188 239.074219 233.722656 C 242.265625 233.832031 245.453125 234.121094 248.648438 234.089844 C 251.609375 234.085938 254.554688 233.710938 257.511719 233.628906 C 260.355469 233.570312 263.203125 233.785156 266.046875 233.691406 C 267.339844 233.625 268.660156 233.746094 269.941406 233.492188 C 270.230469 233.414062 270.332031 233.007812 270.15625 232.746094 Z M 270.15625 232.746094 " fill-opacity="1" fill-rule="nonzero"/></g><g clip-path="url(#c83c599e3a)"><path fill="#618f2f" d="M 311.324219 158.613281 C 311.117188 158.585938 310.957031 158.453125 310.886719 158.257812 C 310.695312 157.828125 310.515625 157.390625 310.351562 156.949219 C 309.953125 155.875 309.640625 154.757812 309.617188 153.605469 C 309.601562 152.640625 309.667969 151.671875 309.824219 150.722656 C 309.953125 150.089844 310.167969 149.480469 310.421875 148.894531 C 310.851562 147.902344 311.386719 146.960938 311.957031 146.042969 C 312.925781 144.460938 314.105469 142.921875 315.734375 141.988281 C 316.488281 141.574219 317.335938 141.140625 318.21875 141.296875 C 318.792969 141.402344 319.011719 142.011719 319.160156 142.507812 C 319.378906 143.234375 319.488281 143.996094 319.546875 144.753906 C 319.667969 146.601562 319.597656 148.515625 318.945312 150.265625 C 318.679688 150.96875 318.394531 151.664062 318.050781 152.328125 C 317.742188 152.871094 317.378906 153.378906 317.007812 153.875 C 316.074219 155.109375 315.007812 156.25 313.761719 157.160156 C 313.222656 157.558594 312.660156 157.933594 312.085938 158.273438 C 311.917969 158.390625 311.554688 158.644531 311.324219 158.613281 Z M 311.324219 158.613281 " fill-opacity="1" fill-rule="nonzero"/></g><path fill="#557d2f" d="M 317.414062 142.640625 C 316.921875 142.378906 316.28125 144.023438 316.140625 144.386719 C 315.789062 145.351562 315.542969 146.351562 315.085938 147.269531 C 314.671875 148.140625 314.246094 149 313.777344 149.84375 C 313.210938 150.84375 312.636719 151.851562 312.257812 152.941406 C 311.953125 153.800781 311.765625 154.695312 311.636719 155.597656 C 311.59375 155.886719 311.578125 156.183594 311.546875 156.472656 C 311.527344 156.589844 311.515625 156.710938 311.59375 156.808594 C 311.746094 157.039062 312.132812 156.949219 312.167969 156.667969 C 312.300781 155.160156 312.519531 153.929688 313.050781 152.652344 C 313.445312 151.671875 313.996094 150.765625 314.503906 149.839844 C 315.191406 148.519531 315.910156 147.203125 316.34375 145.773438 C 316.570312 145.050781 316.800781 144.320312 317.167969 143.65625 C 317.25 143.507812 317.246094 143.507812 317.445312 143.242188 C 317.636719 143.0625 317.683594 142.773438 317.414062 142.640625 Z M 317.414062 142.640625 " fill-opacity="1" fill-rule="nonzero"/><path fill="#618f2f" d="M 312.398438 168.144531 C 312.359375 166.851562 312.207031 162.566406 312.066406 161.296875 C 312.027344 160.929688 311.710938 157.652344 311.292969 157.734375 C 310.878906 157.820312 310.976562 159.738281 310.902344 160.140625 C 310.910156 166.152344 310.070312 187.273438 309.734375 193.25 C 309.40625 198.722656 309.164062 204.207031 308.863281 209.683594 C 308.675781 213.183594 308.476562 216.6875 308.394531 220.203125 C 308.367188 221.203125 308.351562 222.207031 308.339844 223.210938 C 308.335938 223.65625 308.324219 224.125 308.453125 224.527344 C 308.726562 225.375 309.34375 225.488281 309.847656 225.527344 C 310.273438 225.59375 310.730469 225.445312 310.828125 224.609375 C 310.9375 223.582031 310.90625 222.535156 310.921875 221.5 C 310.933594 219.25 310.941406 216.996094 310.992188 214.75 C 311.082031 210.25 311.316406 205.761719 311.507812 201.273438 C 311.78125 194.140625 312.53125 175.300781 312.398438 168.144531 Z M 312.398438 168.144531 " fill-opacity="1" fill-rule="nonzero"/><path fill="#618f2f" d="M 310.921875 192.917969 C 310.761719 192.652344 310.769531 192.351562 310.921875 192.09375 C 311.238281 191.484375 311.566406 190.882812 311.917969 190.296875 C 312.761719 188.867188 313.746094 187.492188 315.023438 186.421875 C 316.097656 185.527344 317.253906 184.726562 318.46875 184.039062 C 319.296875 183.617188 320.183594 183.304688 321.078125 183.0625 C 322.589844 182.644531 324.140625 182.402344 325.695312 182.210938 C 328.359375 181.878906 331.167969 181.824219 333.707031 182.828125 C 334.855469 183.304688 336.117188 183.882812 336.742188 185.023438 C 337.144531 185.773438 336.65625 186.574219 336.230469 187.195312 C 335.605469 188.105469 334.851562 188.917969 334.046875 189.671875 C 332.066406 191.488281 329.847656 193.148438 327.277344 193.996094 C 326.246094 194.332031 325.199219 194.648438 324.132812 194.851562 C 323.246094 194.992188 322.34375 195.046875 321.441406 195.070312 C 319.207031 195.132812 316.945312 194.949219 314.78125 194.363281 C 313.84375 194.109375 312.914062 193.816406 312.007812 193.46875 C 311.710938 193.390625 311.09375 193.210938 310.921875 192.917969 Z M 310.921875 192.917969 " fill-opacity="1" fill-rule="nonzero"/><path fill="#557d2f" d="M 334.484375 185.332031 C 334.335938 184.539062 331.886719 185.300781 331.351562 185.472656 C 329.949219 185.945312 328.597656 186.578125 327.140625 186.890625 C 325.78125 187.210938 324.421875 187.507812 323.046875 187.742188 C 321.402344 188.007812 319.746094 188.265625 318.171875 188.824219 C 316.925781 189.257812 315.746094 189.863281 314.609375 190.535156 C 314.242188 190.75 313.898438 190.996094 313.542969 191.230469 C 313.398438 191.3125 313.242188 191.410156 313.203125 191.585938 C 313.085938 191.96875 313.539062 192.324219 313.882812 192.109375 C 315.707031 190.886719 317.292969 190.023438 319.214844 189.464844 C 320.683594 189.027344 322.207031 188.824219 323.710938 188.5625 C 325.820312 188.148438 327.964844 187.769531 329.972656 186.96875 C 330.996094 186.570312 332.023438 186.167969 333.109375 185.976562 C 333.355469 185.941406 333.351562 185.929688 333.828125 185.917969 C 334.210938 185.972656 334.578125 185.765625 334.484375 185.332031 Z M 334.484375 185.332031 " fill-opacity="1" fill-rule="nonzero"/><path fill="#618f2f" d="M 310.65625 192.851562 C 310.832031 192.601562 310.851562 192.300781 310.71875 192.035156 C 310.460938 191.398438 310.1875 190.777344 309.890625 190.15625 C 309.179688 188.660156 308.324219 187.210938 307.152344 186.039062 C 306.171875 185.0625 305.101562 184.160156 303.960938 183.378906 C 303.175781 182.890625 302.332031 182.503906 301.46875 182.183594 C 300.015625 181.644531 298.507812 181.277344 296.992188 180.957031 C 294.394531 180.402344 291.628906 180.113281 289.046875 180.902344 C 287.875 181.28125 286.582031 181.753906 285.871094 182.839844 C 285.410156 183.550781 285.824219 184.390625 286.191406 185.046875 C 286.730469 186.007812 287.40625 186.878906 288.136719 187.699219 C 289.933594 189.671875 291.980469 191.511719 294.445312 192.570312 C 295.433594 192.992188 296.441406 193.394531 297.472656 193.6875 C 298.339844 193.902344 299.222656 194.03125 300.105469 194.132812 C 302.304688 194.375 304.542969 194.386719 306.726562 193.980469 C 307.667969 193.808594 308.613281 193.589844 309.535156 193.324219 C 309.835938 193.257812 310.460938 193.132812 310.65625 192.851562 Z M 310.65625 192.851562 " fill-opacity="1" fill-rule="nonzero"/><path fill="#557d2f" d="M 288.066406 183.328125 C 288.28125 182.550781 290.628906 183.515625 291.144531 183.730469 C 292.488281 184.324219 293.769531 185.0625 295.175781 185.492188 C 296.488281 185.925781 297.804688 186.335938 299.136719 186.683594 C 300.734375 187.085938 302.34375 187.484375 303.851562 188.171875 C 305.046875 188.707031 306.160156 189.40625 307.222656 190.171875 C 307.566406 190.417969 307.882812 190.691406 308.214844 190.953125 C 308.351562 191.046875 308.496094 191.15625 308.519531 191.335938 C 308.601562 191.730469 308.125 192.042969 307.800781 191.800781 C 306.105469 190.433594 304.613281 189.441406 302.765625 188.722656 C 301.355469 188.160156 299.871094 187.835938 298.410156 187.449219 C 296.367188 186.859375 294.285156 186.300781 292.375 185.335938 C 291.398438 184.855469 290.417969 184.371094 289.367188 184.085938 C 289.132812 184.03125 289.132812 184.019531 288.664062 183.96875 C 288.285156 183.992188 287.9375 183.753906 288.066406 183.328125 Z M 288.066406 183.328125 " fill-opacity="1" fill-rule="nonzero"/><path fill="#618f2f" d="M 311.230469 174.199219 C 311.101562 173.976562 311.109375 173.730469 311.234375 173.515625 C 311.496094 173.007812 311.769531 172.507812 312.058594 172.015625 C 312.761719 170.828125 313.582031 169.6875 314.644531 168.796875 C 315.535156 168.050781 316.496094 167.382812 317.507812 166.8125 C 318.195312 166.460938 318.929688 166.203125 319.675781 165.996094 C 320.933594 165.652344 322.21875 165.449219 323.511719 165.292969 C 325.730469 165.015625 328.066406 164.96875 330.171875 165.804688 C 331.125 166.203125 332.175781 166.683594 332.695312 167.632812 C 333.03125 168.257812 332.621094 168.921875 332.273438 169.4375 C 331.75 170.195312 331.121094 170.871094 330.453125 171.496094 C 328.808594 173.007812 326.964844 174.386719 324.828125 175.089844 C 323.96875 175.371094 323.097656 175.632812 322.210938 175.800781 C 321.472656 175.921875 320.722656 175.964844 319.972656 175.984375 C 318.117188 176.035156 316.238281 175.882812 314.441406 175.394531 C 313.660156 175.183594 312.886719 174.9375 312.132812 174.652344 C 311.890625 174.589844 311.375 174.445312 311.230469 174.199219 Z M 311.230469 174.199219 " fill-opacity="1" fill-rule="nonzero"/><path fill="#557d2f" d="M 330.820312 167.894531 C 330.699219 167.230469 328.664062 167.867188 328.21875 168.011719 C 327.050781 168.40625 325.925781 168.925781 324.714844 169.1875 C 323.589844 169.453125 322.457031 169.703125 321.316406 169.898438 C 319.949219 170.113281 318.574219 170.332031 317.261719 170.796875 C 316.226562 171.160156 315.246094 171.660156 314.300781 172.214844 C 314 172.394531 313.710938 172.601562 313.417969 172.792969 C 313.296875 172.859375 313.167969 172.941406 313.132812 173.089844 C 313.035156 173.40625 313.414062 173.703125 313.699219 173.523438 C 315.214844 172.507812 316.535156 171.792969 318.132812 171.328125 C 319.351562 170.964844 320.617188 170.796875 321.867188 170.578125 C 323.625 170.230469 325.40625 169.917969 327.074219 169.25 C 327.925781 168.921875 328.78125 168.585938 329.683594 168.421875 C 329.882812 168.394531 329.882812 168.386719 330.28125 168.375 C 330.589844 168.425781 330.898438 168.253906 330.820312 167.894531 Z M 330.820312 167.894531 " fill-opacity="1" fill-rule="nonzero"/><path fill="#618f2f" d="M 311.011719 174.148438 C 311.15625 173.941406 311.171875 173.691406 311.0625 173.46875 C 310.851562 172.941406 310.621094 172.421875 310.375 171.90625 C 309.785156 170.660156 309.074219 169.457031 308.101562 168.484375 C 307.285156 167.667969 306.390625 166.921875 305.441406 166.269531 C 304.792969 165.863281 304.089844 165.542969 303.375 165.277344 C 302.164062 164.828125 300.910156 164.519531 299.652344 164.253906 C 297.492188 163.792969 295.191406 163.546875 293.046875 164.207031 C 292.070312 164.523438 291 164.914062 290.40625 165.816406 C 290.027344 166.410156 290.371094 167.105469 290.675781 167.652344 C 291.125 168.449219 291.6875 169.175781 292.292969 169.851562 C 293.785156 171.492188 295.492188 173.023438 297.535156 173.902344 C 298.359375 174.253906 299.195312 174.585938 300.050781 174.832031 C 300.769531 175.015625 301.507812 175.117188 302.242188 175.203125 C 304.070312 175.40625 305.929688 175.414062 307.746094 175.078125 C 308.53125 174.933594 309.3125 174.753906 310.082031 174.53125 C 310.328125 174.484375 310.847656 174.378906 311.011719 174.148438 Z M 311.011719 174.148438 " fill-opacity="1" fill-rule="nonzero"/><path fill="#557d2f" d="M 292.230469 166.230469 C 292.410156 165.582031 294.359375 166.382812 294.789062 166.5625 C 295.910156 167.050781 296.972656 167.664062 298.144531 168.027344 C 299.234375 168.386719 300.328125 168.730469 301.4375 169.019531 C 302.765625 169.351562 304.101562 169.683594 305.355469 170.253906 C 306.347656 170.699219 307.273438 171.28125 308.15625 171.914062 C 308.441406 172.113281 308.703125 172.347656 308.980469 172.566406 C 309.097656 172.640625 309.214844 172.734375 309.234375 172.882812 C 309.304688 173.207031 308.910156 173.472656 308.640625 173.273438 C 307.230469 172.136719 305.992188 171.308594 304.453125 170.710938 C 303.28125 170.25 302.046875 169.976562 300.835938 169.65625 C 299.132812 169.164062 297.402344 168.703125 295.816406 167.898438 C 295.007812 167.496094 294.1875 167.089844 293.316406 166.855469 C 293.117188 166.808594 293.121094 166.804688 292.730469 166.757812 C 292.414062 166.78125 292.125 166.582031 292.230469 166.230469 Z M 292.230469 166.230469 " fill-opacity="1" fill-rule="nonzero"/><g clip-path="url(#8b9e9fc0de)"><path fill="#713d22" d="M 332.730469 232.746094 C 332.496094 232.417969 332.148438 232.226562 331.867188 231.957031 C 330.972656 231.222656 329.84375 230.882812 329.078125 230.4375 C 328.492188 230.027344 327.847656 229.773438 327.210938 229.511719 C 327.164062 229.484375 327.046875 229.425781 327.019531 229.402344 C 326.792969 229.269531 326.574219 229.125 326.351562 228.984375 C 326.15625 228.859375 325.269531 228.363281 325.339844 228.390625 C 325.011719 228.078125 324.742188 227.6875 324.410156 227.382812 C 324.066406 227.039062 324.148438 227.195312 324.089844 226.964844 C 324.0625 226.796875 324.042969 226.707031 323.964844 226.558594 C 323.855469 226.351562 323.710938 226.335938 323.625 226.273438 C 323.238281 226.003906 323.257812 226.363281 322.871094 225.917969 C 322.644531 225.582031 322.492188 225.25 322.167969 225.136719 C 321.792969 225 321.390625 224.992188 321.003906 225.058594 C 320.96875 225.0625 320.917969 225.0625 320.886719 225.058594 C 320.640625 225.007812 320.890625 224.292969 320.453125 224.238281 C 320.210938 224.195312 319.96875 224.226562 319.738281 224.296875 C 319.722656 224.296875 319.714844 224.296875 319.710938 224.296875 C 319.699219 224.296875 319.695312 224.300781 319.683594 224.300781 C 319.289062 224.320312 319.25 223.652344 318.855469 223.675781 C 318.671875 223.730469 318.523438 223.503906 318.089844 223.253906 C 317.941406 223.152344 317.78125 223.121094 317.628906 223.136719 C 317.59375 223.042969 317.554688 222.953125 317.515625 222.871094 C 317.261719 222.402344 316.765625 222.25 316.3125 222.242188 C 316.222656 222.183594 316.144531 222.117188 316.058594 222.054688 C 315.734375 221.765625 315.34375 221.621094 314.945312 221.542969 C 314.820312 221.585938 314.433594 221.105469 314.058594 221.207031 C 313.722656 221.261719 313.417969 221.488281 313.1875 221.773438 C 312.984375 221.648438 312.796875 221.464844 312.5625 221.425781 C 312.300781 221.375 312.035156 221.398438 311.78125 221.464844 C 311.742188 221.449219 311.707031 221.4375 311.667969 221.414062 C 311.875 221.507812 311.339844 221.238281 311.257812 221.226562 C 310.996094 221.164062 310.734375 221.226562 310.484375 221.316406 C 310.445312 221.273438 310.339844 221.164062 310.3125 221.125 C 310.109375 220.871094 309.890625 220.613281 309.605469 220.484375 C 309.148438 220.246094 308.359375 220.542969 308.171875 220.550781 C 308.011719 220.535156 307.796875 220.453125 307.453125 220.402344 C 307.171875 220.414062 306.898438 220.542969 306.667969 220.726562 C 306.664062 220.726562 306.65625 220.722656 306.652344 220.714844 C 306.414062 220.464844 306.152344 220.207031 305.820312 220.167969 C 305.484375 220.074219 304.910156 220.339844 304.855469 220.378906 C 304.84375 220.382812 304.839844 220.386719 304.835938 220.386719 C 304.609375 220.390625 304.382812 220.40625 304.191406 220.554688 C 303.839844 220.765625 303.40625 221.40625 303.300781 221.480469 C 303.160156 221.574219 302.792969 221.652344 302.519531 221.960938 C 302.148438 222.347656 302.003906 222.738281 301.824219 222.84375 C 301.578125 222.910156 300.6875 223.605469 300.433594 223.703125 C 299.933594 223.8125 299.105469 224.289062 298.917969 224.410156 C 298.59375 224.550781 298.539062 224.441406 298.128906 224.605469 C 297.867188 224.726562 297.644531 224.9375 297.46875 225.195312 C 297.46875 225.195312 297.46875 225.195312 297.464844 225.195312 C 297.164062 225.199219 296.902344 225.390625 296.671875 225.601562 C 296.488281 225.734375 296.363281 225.9375 296.210938 226.105469 C 296.210938 226.105469 296.207031 226.105469 296.207031 226.105469 C 295.988281 226.167969 295.554688 226.070312 295.167969 226.308594 C 294.824219 226.558594 294.96875 226.316406 294.453125 226.542969 C 294.261719 226.675781 294.09375 226.871094 293.992188 227.101562 C 293.976562 227.101562 293.960938 227.09375 293.945312 227.097656 C 293.597656 227.105469 293.371094 227.519531 293.289062 227.898438 C 293.1875 227.902344 293.089844 227.929688 292.996094 227.984375 C 292.855469 228.082031 292.730469 228.203125 292.621094 228.34375 C 292.574219 228.410156 292.53125 228.472656 292.488281 228.539062 C 292.480469 228.601562 292.359375 228.703125 292.464844 228.574219 C 292.289062 228.792969 292.394531 228.605469 291.941406 228.8125 C 291.757812 228.917969 291.609375 229.085938 291.484375 229.273438 C 291.394531 229.234375 291.160156 229.140625 291.082031 229.164062 C 290.796875 229.164062 290.535156 229.363281 290.335938 229.589844 C 290.285156 229.652344 290.242188 229.726562 290.199219 229.800781 C 289.945312 229.671875 289.664062 229.816406 289.480469 230.042969 C 289.351562 230 289.222656 229.96875 289.089844 230.035156 C 288.902344 230.117188 288.738281 230.273438 288.632812 230.472656 C 288.609375 230.523438 288.582031 230.574219 288.554688 230.621094 C 288.421875 230.726562 288.347656 230.910156 288.339844 231.09375 C 288.328125 231.171875 288.34375 231.246094 288.351562 231.320312 C 288.355469 231.355469 288.363281 231.390625 288.367188 231.414062 C 288.367188 231.421875 288.367188 231.433594 288.367188 231.4375 C 288.367188 231.472656 288.375 231.507812 288.378906 231.542969 C 288.210938 231.691406 288.207031 231.625 287.996094 231.9375 C 287.835938 232.242188 288 232.628906 288.292969 232.722656 C 288.472656 232.808594 288.664062 232.820312 288.855469 232.816406 C 288.902344 232.929688 288.992188 233.019531 289.121094 233.011719 C 293.289062 233.507812 297.464844 233.742188 301.652344 233.722656 C 304.84375 233.832031 308.03125 234.121094 311.222656 234.089844 C 314.183594 234.085938 317.132812 233.710938 320.089844 233.628906 C 322.933594 233.570312 325.78125 233.785156 328.625 233.691406 C 329.917969 233.625 331.238281 233.746094 332.519531 233.492188 C 332.808594 233.414062 332.90625 233.007812 332.730469 232.746094 Z M 332.730469 232.746094 " fill-opacity="1" fill-rule="nonzero"/></g></svg>