<svg xmlns="http://www.w3.org/2000/svg" xmlns:xlink="http://www.w3.org/1999/xlink" width="500" zoomAndPan="magnify" viewBox="0 0 375 374.999991" height="500" preserveAspectRatio="xMidYMid meet" version="1.0"><defs><clipPath id="4c54d5eed8"><path d="M 77 250 L 119 250 L 119 284.453125 L 77 284.453125 Z M 77 250 " clip-rule="nonzero"/></clipPath><clipPath id="c27f937054"><path d="M 79 279 L 117 279 L 117 284.453125 L 79 284.453125 Z M 79 279 " clip-rule="nonzero"/></clipPath><clipPath id="3165d81fea"><path d="M 13.191406 230 L 35 230 L 35 261 L 13.191406 261 Z M 13.191406 230 " clip-rule="nonzero"/></clipPath><clipPath id="c990e8bd37"><path d="M 19 256 L 55 256 L 55 284.453125 L 19 284.453125 Z M 19 256 " clip-rule="nonzero"/></clipPath><clipPath id="0efa66554c"><path d="M 21 279 L 54 279 L 54 284.453125 L 21 284.453125 Z M 21 279 " clip-rule="nonzero"/></clipPath><clipPath id="e898e1c103"><path d="M 257 253 L 294 253 L 294 284.453125 L 257 284.453125 Z M 257 253 " clip-rule="nonzero"/></clipPath><clipPath id="8592cf56bf"><path d="M 261 280 L 290 280 L 290 284.453125 L 261 284.453125 Z M 261 280 " clip-rule="nonzero"/></clipPath><clipPath id="216d4fec67"><path d="M 143 121.703125 L 179 121.703125 L 179 162 L 143 162 Z M 143 121.703125 " clip-rule="nonzero"/></clipPath><clipPath id="b2c34926bc"><path d="M 195 251 L 234 251 L 234 284.453125 L 195 284.453125 Z M 195 251 " clip-rule="nonzero"/></clipPath><clipPath id="59cfa3efd9"><path d="M 199 279 L 230 279 L 230 284.453125 L 199 284.453125 Z M 199 279 " clip-rule="nonzero"/></clipPath><clipPath id="d8c27069a7"><path d="M 332 234 L 359.691406 234 L 359.691406 257 L 332 257 Z M 332 234 " clip-rule="nonzero"/></clipPath><clipPath id="ad00248b30"><path d="M 318 256 L 349 256 L 349 284.453125 L 318 284.453125 Z M 318 256 " clip-rule="nonzero"/></clipPath><clipPath id="378bad2e4f"><path d="M 320 279 L 347 279 L 347 284.453125 L 320 284.453125 Z M 320 279 " clip-rule="nonzero"/></clipPath></defs><path fill="#7ca417" d="M 126.230469 194.617188 C 125.984375 193.9375 126.070312 193.773438 126.230469 193.15625 C 126.570312 191.847656 129.191406 191.261719 130.519531 188.695312 C 131.367188 187.0625 134.242188 187.59375 135.945312 186.019531 C 137.15625 184.898438 135.671875 184.34375 138.695312 182.53125 C 143.292969 179.769531 142.613281 176.84375 142.421875 176.769531 C 142.117188 176.652344 142.167969 177.53125 141.820312 177.976562 C 140.175781 180.070312 129.3125 176.300781 120.128906 182.464844 C 116.136719 185.144531 113.363281 188.84375 112.632812 193.480469 C 112.09375 196.878906 113.210938 198.59375 114.417969 198.273438 C 115.839844 197.898438 114.792969 198.851562 115.683594 200.125 C 119.394531 205.410156 127.15625 197.152344 126.230469 194.617188 " fill-opacity="1" fill-rule="nonzero"/><path fill="#346e00" d="M 78.726562 203.558594 C 83.207031 207.871094 86.535156 204.492188 89.398438 201.046875 C 90.089844 200.214844 92.085938 203.179688 94.507812 200.046875 C 98.3125 195.121094 93.347656 188.265625 88.171875 172.796875 C 87.535156 170.894531 81.71875 157.214844 78.214844 151.320312 C 76.496094 148.429688 74.574219 146.417969 72.9375 145.574219 C 68.777344 143.425781 65.855469 144.777344 65.550781 143.003906 C 65.328125 141.707031 66.378906 141.40625 65.738281 141.132812 C 64.921875 140.78125 62.957031 146.222656 63.359375 151.652344 C 63.671875 155.914062 65.1875 157.496094 66.820312 162.199219 C 68.414062 166.804688 68.082031 168.511719 69.160156 176.019531 C 71.203125 190.261719 72.222656 197.296875 78.726562 203.558594 " fill-opacity="1" fill-rule="nonzero"/><path fill="#346e00" d="M 99.039062 254.011719 C 99.40625 250.238281 99.796875 246.460938 100.289062 242.699219 C 100.785156 238.933594 101.371094 235.175781 102.113281 231.449219 C 102.851562 227.71875 103.738281 224.019531 104.824219 220.375 C 105.90625 216.730469 107.199219 213.140625 108.75 209.671875 C 110.304688 206.199219 112.125 202.84375 114.28125 199.707031 C 116.441406 196.578125 118.941406 193.675781 121.785156 191.15625 C 124.628906 188.636719 127.820312 186.515625 131.25 184.902344 C 131.683594 184.707031 132.113281 184.507812 132.546875 184.316406 L 133.84375 183.753906 C 134.710938 183.375 135.570312 182.980469 136.40625 182.546875 C 137.242188 182.113281 138.0625 181.636719 138.828125 181.085938 C 139.59375 180.535156 140.308594 179.898438 140.886719 179.152344 C 140.320312 179.90625 139.613281 180.554688 138.855469 181.121094 C 138.09375 181.683594 137.28125 182.175781 136.449219 182.625 C 135.613281 183.074219 134.757812 183.480469 133.898438 183.875 L 132.609375 184.460938 C 132.179688 184.65625 131.753906 184.863281 131.328125 185.0625 C 127.9375 186.71875 124.800781 188.878906 122.023438 191.421875 C 119.238281 193.960938 116.808594 196.871094 114.722656 200.003906 C 112.636719 203.144531 110.886719 206.492188 109.398438 209.957031 C 107.914062 213.417969 106.691406 216.992188 105.671875 220.621094 C 104.65625 224.25 103.832031 227.9375 103.15625 231.648438 C 102.480469 235.359375 101.953125 239.097656 101.519531 242.847656 C 101.085938 246.601562 100.757812 250.363281 100.449219 254.136719 L 99.039062 254.011719 " fill-opacity="1" fill-rule="nonzero"/><path fill="#9fbc50" d="M 76.078125 159.132812 C 73.484375 163.167969 69.410156 164.058594 69.339844 163.933594 C 69.25 163.777344 72.953125 162.375 74.980469 158.34375 C 73.234375 157.210938 71.179688 156.457031 68.78125 156.261719 C 64.207031 155.890625 65.882812 154.828125 62.113281 153.558594 C 57.171875 151.890625 55.148438 151.765625 54.066406 152.113281 C 52.316406 152.671875 52.257812 151.179688 51.976562 151.457031 C 51.792969 151.636719 50.304688 155.191406 52.6875 157.644531 C 53.945312 158.9375 55.460938 158.394531 57.171875 160.292969 C 58.082031 161.308594 58.003906 161.984375 58.664062 163.289062 C 60.089844 166.105469 63.480469 165.664062 63.953125 168.125 C 66.753906 182.730469 71.949219 183.640625 76.636719 183.707031 C 79.21875 183.742188 78.808594 181.511719 80.425781 181.820312 C 84.652344 182.632812 84.691406 166.019531 76.078125 159.132812 " fill-opacity="1" fill-rule="nonzero"/><path fill="#346e00" d="M 99.0625 148.273438 C 102.84375 151.21875 106.980469 150.710938 107.007812 150.566406 C 107.042969 150.394531 103.085938 150.296875 99.835938 147.160156 C 101.113281 145.515625 102.804688 144.121094 105 143.144531 C 109.195312 141.277344 107.261719 140.832031 110.398438 138.382812 C 114.515625 135.171875 116.382812 134.382812 117.519531 134.351562 C 119.355469 134.300781 118.917969 132.871094 119.273438 133.039062 C 119.507812 133.148438 122.082031 136.011719 120.644531 139.113281 C 119.886719 140.75 118.273438 140.738281 117.289062 143.101562 C 116.761719 144.359375 117.058594 144.972656 116.867188 146.421875 C 116.453125 149.554688 113.105469 150.257812 113.472656 152.742188 C 115.652344 167.453125 111.050781 170.03125 106.648438 171.648438 C 104.222656 172.539062 103.871094 170.296875 102.453125 171.125 C 98.726562 173.289062 93.207031 157.625 99.0625 148.273438 " fill-opacity="1" fill-rule="nonzero"/><path fill="#7ca417" d="M 99.707031 138.175781 C 95.128906 134.566406 93.089844 131.042969 90.164062 130.6875 C 88.558594 130.492188 88.726562 131.175781 87.175781 129.996094 C 86.464844 129.453125 85.894531 128.601562 85.683594 128.730469 C 85.484375 128.847656 86.007812 129.582031 85.910156 130.457031 C 85.761719 131.824219 84.234375 132.226562 83.265625 133.453125 C 82.546875 134.363281 82.402344 135.394531 82.402344 136.464844 C 85.222656 137.707031 90.125 137.25 89.453125 137.546875 C 88.757812 137.851562 84.960938 138.628906 82.464844 138.53125 C 82.492188 142.859375 80.648438 144.070312 79.476562 149.117188 C 78.578125 152.972656 79.042969 154.867188 79.128906 160.175781 C 79.382812 176.347656 75.371094 179.925781 78.898438 186.441406 C 79.292969 187.167969 84.015625 192.851562 88.277344 192.894531 C 90.835938 192.917969 91.589844 190.886719 94.945312 190.703125 C 98.21875 190.527344 99.203125 192.371094 102.53125 192.664062 C 102.53125 192.664062 104.78125 193 109.132812 190.128906 C 120.125 182.882812 111.546875 147.503906 99.707031 138.175781 " fill-opacity="1" fill-rule="nonzero"/><path fill="#9fbc50" d="M 130.441406 164.785156 C 130.140625 162.996094 129.238281 162.285156 129.550781 160.648438 C 129.660156 160.066406 129.90625 159.476562 129.710938 159.351562 C 129.453125 159.183594 128.65625 160.015625 128.417969 160.242188 C 126.386719 162.183594 121.769531 161.484375 120.808594 161.378906 C 114.988281 160.75 107.367188 167.261719 103.808594 171.4375 C 102.160156 173.371094 95.597656 181.074219 97.492188 189.363281 C 97.5625 189.671875 98.0625 195.65625 102.269531 196.257812 C 104.9375 196.640625 106.082031 193.566406 109.007812 194.332031 C 110.925781 194.835938 111.730469 196.175781 113.523438 196.339844 C 115.90625 196.558594 117.988281 193.640625 118.460938 192.933594 C 120.164062 190.378906 119.242188 189.144531 120.808594 184.578125 C 121.539062 182.441406 122.15625 180.644531 123.640625 178.65625 C 125.003906 176.832031 126.15625 176.117188 126.863281 175.167969 C 125.480469 175.609375 123.75 175.523438 121.839844 174.890625 C 120.535156 174.457031 119.40625 173.546875 119.539062 173.390625 C 119.652344 173.261719 121.121094 174.203125 123.03125 174.070312 C 125.613281 173.882812 126.859375 173.074219 127.601562 172.429688 C 127.535156 170.824219 126.886719 169.496094 127.445312 169.167969 C 127.898438 168.898438 128.445312 169.707031 129.144531 169.492188 C 130.195312 169.167969 130.777344 166.789062 130.441406 164.785156 " fill-opacity="1" fill-rule="nonzero"/><path fill="#7ca417" d="M 84.789062 195.460938 C 80.253906 193.140625 79.496094 193.566406 76.6875 190.640625 C 75.78125 189.699219 75.246094 188.113281 69.40625 185.753906 C 68.058594 185.210938 68.988281 184.304688 68.796875 184.105469 C 68.484375 183.773438 67.128906 184.96875 66.507812 186.429688 C 65.046875 189.859375 65.59375 192.582031 66.625 194.828125 C 70.421875 197.019531 72.941406 195.777344 73.117188 196.25 C 73.183594 196.421875 70.199219 197.203125 67.84375 197.054688 C 68.324219 197.832031 68.792969 198.542969 69.15625 199.210938 C 70.207031 201.125 70.078125 204.625 71.234375 208.113281 C 75.96875 205.824219 79.757812 206.40625 79.757812 206.480469 C 79.757812 206.492188 79.371094 206.5 79.046875 206.5625 C 75.097656 207.320312 73.328125 209.121094 72.164062 210.3125 C 73.117188 212.113281 74.574219 213.820312 76.898438 215.191406 C 77.398438 215.488281 79.441406 216.835938 82.191406 216.273438 C 84.789062 215.746094 84.027344 212.6875 85.96875 212.824219 C 94.859375 213.453125 92.667969 199.492188 84.789062 195.460938 " fill-opacity="1" fill-rule="nonzero"/><path fill="#7ca417" d="M 100.4375 251.992188 C 103.359375 244.527344 105.800781 236.855469 107.28125 228.984375 C 108.019531 225.054688 108.507812 221.070312 108.640625 217.078125 C 108.703125 215.082031 108.679688 213.082031 108.550781 211.089844 C 108.417969 209.097656 108.183594 207.113281 107.828125 205.148438 C 107.738281 204.65625 107.644531 204.171875 107.539062 203.675781 C 107.433594 203.183594 107.332031 202.683594 107.238281 202.183594 C 107.050781 201.179688 106.890625 200.167969 106.773438 199.15625 C 106.53125 197.125 106.445312 195.078125 106.527344 193.039062 C 106.605469 190.996094 106.859375 188.964844 107.289062 186.96875 L 107.457031 186.222656 L 107.644531 185.480469 C 107.773438 184.992188 107.90625 184.503906 108.046875 184.015625 C 108.328125 183.039062 108.644531 182.070312 109 181.117188 C 109.714844 179.210938 110.589844 177.367188 111.65625 175.632812 C 112.722656 173.902344 113.976562 172.285156 115.421875 170.859375 C 116.144531 170.148438 116.914062 169.484375 117.722656 168.875 L 118.339844 168.429688 C 118.542969 168.28125 118.757812 168.148438 118.964844 168.003906 C 119.394531 167.734375 119.824219 167.464844 120.265625 167.222656 C 122.023438 166.226562 123.910156 165.460938 125.851562 164.925781 C 123.921875 165.503906 122.0625 166.3125 120.335938 167.34375 C 119.902344 167.597656 119.480469 167.871094 119.0625 168.152344 C 118.859375 168.296875 118.652344 168.4375 118.449219 168.589844 L 117.851562 169.042969 C 117.0625 169.664062 116.316406 170.339844 115.621094 171.058594 C 114.226562 172.5 113.027344 174.121094 112.019531 175.851562 C 111.007812 177.582031 110.1875 179.417969 109.527344 181.308594 C 109.199219 182.253906 108.910156 183.214844 108.65625 184.183594 C 108.527344 184.667969 108.40625 185.152344 108.289062 185.644531 L 108.125 186.375 L 107.976562 187.109375 C 107.601562 189.070312 107.402344 191.066406 107.367188 193.0625 C 107.339844 195.054688 107.46875 197.054688 107.75 199.027344 C 107.890625 200.015625 108.070312 200.996094 108.277344 201.972656 C 108.378906 202.460938 108.492188 202.949219 108.605469 203.441406 C 108.722656 203.933594 108.832031 204.433594 108.9375 204.933594 C 109.347656 206.933594 109.636719 208.957031 109.820312 210.992188 C 110 213.027344 110.066406 215.066406 110.050781 217.109375 C 110.015625 221.1875 109.609375 225.257812 108.957031 229.277344 C 107.632812 237.324219 105.339844 245.167969 102.558594 252.796875 L 100.4375 251.992188 " fill-opacity="1" fill-rule="nonzero"/><path fill="#7ca417" d="M 93.949219 254.507812 C 93.589844 244.945312 92.570312 235.394531 91.074219 225.925781 C 89.566406 216.457031 87.574219 207.050781 84.929688 197.832031 C 84.265625 195.527344 83.554688 193.234375 82.796875 190.964844 C 82.039062 188.6875 81.222656 186.433594 80.339844 184.207031 C 79.460938 181.980469 78.503906 179.78125 77.460938 177.625 C 76.933594 176.550781 76.390625 175.484375 75.8125 174.4375 C 75.234375 173.390625 74.628906 172.359375 73.988281 171.351562 C 72.695312 169.34375 71.265625 167.414062 69.578125 165.730469 C 69.363281 165.527344 69.15625 165.3125 68.929688 165.117188 L 68.261719 164.523438 L 67.570312 163.964844 C 67.335938 163.78125 67.089844 163.613281 66.851562 163.4375 C 66.605469 163.273438 66.355469 163.113281 66.101562 162.957031 C 65.84375 162.8125 65.589844 162.65625 65.320312 162.527344 C 64.792969 162.253906 64.246094 162.027344 63.695312 161.773438 C 63.144531 161.519531 62.601562 161.210938 62.140625 160.800781 C 61.679688 160.398438 61.28125 159.929688 60.941406 159.425781 C 60.765625 159.179688 60.597656 158.933594 60.429688 158.683594 C 60.257812 158.441406 60.078125 158.199219 59.890625 157.96875 C 59.515625 157.507812 59.105469 157.074219 58.652344 156.6875 C 58.195312 156.304688 57.699219 155.96875 57.167969 155.699219 C 56.636719 155.425781 56.074219 155.214844 55.511719 155.007812 C 54.949219 154.800781 54.378906 154.59375 53.867188 154.269531 C 53.609375 154.109375 53.371094 153.925781 53.152344 153.714844 C 52.941406 153.503906 52.75 153.273438 52.574219 153.027344 C 52.753906 153.269531 52.949219 153.496094 53.167969 153.703125 C 53.386719 153.90625 53.628906 154.085938 53.886719 154.238281 C 54.398438 154.550781 54.96875 154.746094 55.535156 154.941406 C 56.101562 155.136719 56.671875 155.335938 57.214844 155.601562 C 57.757812 155.867188 58.269531 156.195312 58.742188 156.578125 C 59.210938 156.960938 59.636719 157.394531 60.027344 157.855469 C 60.222656 158.085938 60.40625 158.328125 60.589844 158.570312 C 60.761719 158.820312 60.9375 159.066406 61.113281 159.304688 C 61.457031 159.789062 61.851562 160.234375 62.300781 160.613281 C 62.75 160.992188 63.265625 161.277344 63.8125 161.515625 C 64.355469 161.753906 64.917969 161.972656 65.464844 162.242188 C 65.738281 162.367188 66.003906 162.519531 66.269531 162.664062 C 66.53125 162.820312 66.792969 162.976562 67.046875 163.140625 C 67.296875 163.316406 67.550781 163.484375 67.792969 163.664062 L 68.511719 164.222656 L 69.203125 164.8125 C 69.433594 165.007812 69.648438 165.222656 69.875 165.425781 C 71.628906 167.105469 73.113281 169.035156 74.464844 171.039062 C 75.132812 172.046875 75.761719 173.078125 76.371094 174.121094 C 76.972656 175.167969 77.542969 176.234375 78.09375 177.308594 C 79.1875 179.460938 80.195312 181.65625 81.125 183.882812 C 82.058594 186.109375 82.925781 188.363281 83.734375 190.636719 C 84.542969 192.910156 85.304688 195.199219 86.015625 197.503906 C 88.859375 206.726562 91.046875 216.140625 92.75 225.640625 C 94.445312 235.144531 95.660156 244.738281 96.214844 254.402344 L 93.949219 254.507812 " fill-opacity="1" fill-rule="nonzero"/><path fill="#7ca417" d="M 98.96875 250.523438 C 96.980469 241.167969 95.636719 231.65625 94.773438 222.105469 C 93.925781 212.554688 93.558594 202.949219 93.871094 193.359375 C 93.949219 190.964844 94.082031 188.566406 94.261719 186.175781 C 94.441406 183.785156 94.683594 181.398438 94.996094 179.023438 C 95.304688 176.648438 95.695312 174.28125 96.179688 171.9375 C 96.425781 170.765625 96.691406 169.597656 96.996094 168.441406 C 97.300781 167.285156 97.636719 166.136719 98.011719 165 C 98.777344 162.738281 99.691406 160.515625 100.917969 158.472656 C 101.074219 158.222656 101.222656 157.960938 101.394531 157.71875 L 101.894531 156.976562 L 102.433594 156.265625 C 102.613281 156.027344 102.8125 155.808594 103 155.578125 C 103.199219 155.355469 103.402344 155.140625 103.609375 154.929688 C 103.824219 154.722656 104.03125 154.511719 104.261719 154.320312 C 104.703125 153.925781 105.183594 153.570312 105.65625 153.191406 C 106.125 152.8125 106.574219 152.378906 106.921875 151.867188 C 107.269531 151.363281 107.546875 150.8125 107.753906 150.242188 C 107.863281 149.957031 107.964844 149.675781 108.066406 149.394531 C 108.175781 149.117188 108.285156 148.839844 108.414062 148.570312 C 108.664062 148.03125 108.957031 147.507812 109.300781 147.023438 C 109.648438 146.539062 110.050781 146.09375 110.5 145.699219 C 110.949219 145.304688 111.441406 144.960938 111.9375 144.625 C 112.433594 144.289062 112.933594 143.945312 113.351562 143.507812 C 113.558594 143.289062 113.746094 143.050781 113.90625 142.792969 C 114.0625 142.535156 114.191406 142.265625 114.300781 141.984375 C 114.183594 142.261719 114.050781 142.53125 113.890625 142.785156 C 113.726562 143.035156 113.535156 143.269531 113.324219 143.480469 C 112.902344 143.90625 112.398438 144.238281 111.898438 144.566406 C 111.394531 144.894531 110.890625 145.226562 110.429688 145.621094 C 109.96875 146.007812 109.550781 146.453125 109.1875 146.9375 C 108.828125 147.425781 108.519531 147.949219 108.253906 148.496094 C 108.117188 148.765625 108 149.042969 107.882812 149.324219 C 107.773438 149.605469 107.664062 149.890625 107.554688 150.164062 C 107.339844 150.71875 107.0625 151.246094 106.722656 151.722656 C 106.378906 152.203125 105.949219 152.605469 105.476562 152.96875 C 105.007812 153.332031 104.515625 153.683594 104.050781 154.078125 C 103.816406 154.269531 103.597656 154.480469 103.375 154.6875 C 103.15625 154.902344 102.945312 155.117188 102.738281 155.339844 C 102.539062 155.570312 102.332031 155.792969 102.140625 156.03125 L 101.582031 156.746094 L 101.054688 157.488281 C 100.878906 157.734375 100.722656 157.996094 100.554688 158.25 C 99.265625 160.308594 98.292969 162.542969 97.476562 164.816406 C 97.074219 165.957031 96.710938 167.109375 96.378906 168.273438 C 96.050781 169.433594 95.757812 170.609375 95.484375 171.785156 C 94.953125 174.140625 94.511719 176.515625 94.152344 178.90625 C 93.792969 181.292969 93.503906 183.6875 93.273438 186.089844 C 93.042969 188.492188 92.867188 190.902344 92.738281 193.308594 C 92.234375 202.949219 92.414062 212.613281 93.078125 222.242188 C 93.757812 231.871094 94.921875 241.472656 96.746094 250.980469 L 98.96875 250.523438 " fill-opacity="1" fill-rule="nonzero"/><path fill="#346e00" d="M 96.316406 254.308594 C 96.746094 249.214844 96.957031 244.078125 97.0625 238.933594 C 97.164062 233.792969 97.167969 228.644531 97.113281 223.496094 C 97 213.199219 96.660156 202.894531 96.191406 192.597656 C 95.710938 182.304688 95.113281 172.007812 94.3125 161.730469 C 94.109375 159.164062 93.898438 156.59375 93.652344 154.03125 L 93.460938 152.109375 L 93.253906 150.1875 C 93.179688 149.554688 93.082031 148.921875 92.929688 148.304688 C 92.777344 147.6875 92.546875 147.105469 92.265625 146.523438 C 92.128906 146.234375 91.996094 145.933594 91.878906 145.628906 C 91.765625 145.320312 91.667969 145.011719 91.582031 144.695312 C 91.40625 144.066406 91.296875 143.425781 91.191406 142.789062 C 90.988281 141.515625 90.820312 140.238281 90.558594 138.980469 C 90.300781 137.71875 89.941406 136.476562 89.402344 135.3125 C 88.863281 134.144531 88.140625 133.0625 87.273438 132.109375 C 88.15625 133.046875 88.902344 134.117188 89.464844 135.28125 C 90.03125 136.445312 90.417969 137.6875 90.699219 138.949219 C 90.984375 140.210938 91.175781 141.488281 91.398438 142.753906 C 91.519531 143.386719 91.636719 144.015625 91.820312 144.628906 C 91.910156 144.933594 92.011719 145.234375 92.128906 145.53125 C 92.246094 145.824219 92.378906 146.113281 92.519531 146.402344 C 92.8125 146.976562 93.074219 147.589844 93.238281 148.222656 C 93.40625 148.855469 93.519531 149.5 93.609375 150.144531 L 93.851562 152.0625 L 94.078125 153.984375 C 94.367188 156.550781 94.628906 159.117188 94.878906 161.683594 C 95.867188 171.953125 96.65625 182.238281 97.324219 192.535156 C 97.980469 202.832031 98.507812 213.140625 98.8125 223.460938 C 98.960938 228.625 99.054688 233.789062 99.046875 238.957031 C 99.035156 244.128906 98.921875 249.304688 98.578125 254.492188 L 96.316406 254.308594 " fill-opacity="1" fill-rule="nonzero"/><path fill="#346e00" d="M 92.9375 254.605469 C 92.75 248.570312 92.21875 242.542969 91.28125 236.574219 C 90.335938 230.609375 88.992188 224.699219 87.109375 218.957031 C 86.167969 216.085938 85.097656 213.257812 83.859375 210.5 C 82.625 207.742188 81.226562 205.058594 79.625 202.492188 C 78.023438 199.933594 76.21875 197.492188 74.128906 195.304688 C 73.605469 194.761719 73.054688 194.238281 72.546875 193.671875 C 72.035156 193.113281 71.546875 192.53125 71.085938 191.925781 C 70.628906 191.320312 70.195312 190.695312 69.820312 190.035156 C 69.632812 189.703125 69.460938 189.367188 69.320312 189.011719 C 69.1875 188.660156 69.070312 188.289062 69.074219 187.90625 C 69.078125 188.289062 69.203125 188.65625 69.34375 189.003906 C 69.488281 189.351562 69.667969 189.6875 69.859375 190.011719 C 70.242188 190.664062 70.6875 191.277344 71.15625 191.871094 C 71.625 192.464844 72.121094 193.035156 72.644531 193.582031 C 73.160156 194.136719 73.71875 194.644531 74.253906 195.183594 C 76.394531 197.339844 78.261719 199.757812 79.925781 202.300781 C 81.582031 204.851562 83.046875 207.527344 84.34375 210.277344 C 85.644531 213.027344 86.777344 215.855469 87.78125 218.726562 C 89.789062 224.476562 91.261719 230.40625 92.328125 236.398438 C 93.390625 242.394531 94.042969 248.464844 94.355469 254.546875 L 92.9375 254.605469 " fill-opacity="1" fill-rule="nonzero"/><g clip-path="url(#4c54d5eed8)"><path fill="#d78e42" d="M 115.585938 251.558594 C 115.359375 251.058594 114.984375 250.640625 114.433594 250.640625 L 81.898438 250.640625 C 81.347656 250.640625 80.972656 251.058594 80.746094 251.558594 C 78.941406 255.492188 77.679688 263.800781 77.675781 268.191406 C 77.675781 276.289062 84.898438 284.457031 92.980469 284.457031 L 103.355469 284.457031 C 111.433594 284.457031 118.65625 276.289062 118.65625 268.191406 C 118.652344 263.800781 117.394531 255.492188 115.585938 251.558594 " fill-opacity="1" fill-rule="nonzero"/></g><g clip-path="url(#c27f937054)"><path fill="#a54e00" d="M 113.75 284.457031 L 82.582031 284.457031 C 81.058594 284.457031 79.820312 283.058594 79.820312 281.332031 L 79.820312 280.664062 C 79.820312 280.195312 80.15625 279.8125 80.574219 279.8125 L 115.757812 279.8125 C 116.175781 279.8125 116.511719 280.195312 116.511719 280.664062 L 116.511719 281.332031 C 116.511719 283.058594 115.273438 284.457031 113.75 284.457031 " fill-opacity="1" fill-rule="nonzero"/></g><path fill="#9fbc50" d="M 40.160156 253.527344 C 40.164062 253.671875 39.078125 255.527344 39.722656 255.445312 C 40.992188 255.289062 40.953125 252.246094 42.84375 249.238281 C 43.886719 247.582031 44.375 247.367188 46.257812 245.445312 C 49.367188 242.269531 49.394531 241.222656 53.0625 235.03125 C 53.0625 235.03125 54.921875 231.964844 57.386719 230.25 C 58.449219 229.511719 58.667969 229.738281 58.75 229.566406 C 58.792969 229.480469 58.816406 227.980469 48.1875 235.394531 C 40.148438 241 40.042969 249.554688 40.160156 253.527344 " fill-opacity="1" fill-rule="nonzero"/><path fill="#346e00" d="M 39.722656 255.121094 C 40.789062 255.691406 42.6875 253.585938 46.457031 250.179688 C 46.457031 250.179688 49.808594 247.148438 53.929688 244.546875 C 55.171875 243.765625 56.925781 242.753906 58.597656 243.167969 C 58.976562 243.261719 59.746094 243.523438 59.816406 243.378906 C 59.894531 243.21875 59.085938 242.8125 59.019531 242.800781 C 51.070312 241.625 45.042969 247.046875 43.59375 248.265625 C 41.414062 250.101562 38.648438 252.433594 39.191406 254.324219 C 39.25 254.519531 39.367188 254.929688 39.722656 255.121094 " fill-opacity="1" fill-rule="nonzero"/><path fill="#7ca417" d="M 37.609375 257.183594 C 38.425781 257.96875 40.667969 256.558594 44.921875 254.453125 C 44.921875 254.453125 48.710938 252.582031 53.078125 251.296875 C 54.394531 250.90625 56.230469 250.445312 57.628906 251.242188 C 57.945312 251.421875 58.570312 251.855469 58.671875 251.746094 C 58.78125 251.621094 58.160156 251.046875 58.101562 251.023438 C 51.246094 247.9375 44.445312 251.273438 42.832031 252.003906 C 40.40625 253.097656 37.328125 254.488281 37.335938 256.328125 C 37.335938 256.519531 37.339844 256.917969 37.609375 257.183594 " fill-opacity="1" fill-rule="nonzero"/><path fill="#346e00" d="M 45.183594 242.371094 C 47.933594 235.9375 46.804688 235.875 48.683594 233.074219 C 49.820312 231.378906 52.785156 227.59375 53.507812 225.953125 C 53.765625 225.363281 54.148438 224.363281 54.5 223.21875 C 54.523438 223.140625 54.59375 222.992188 54.566406 222.976562 C 54.484375 222.929688 54.148438 223.917969 53.1875 225.050781 C 51.3125 227.265625 49.160156 228.59375 47.144531 229.9375 C 43.335938 232.480469 41.308594 235.847656 40.519531 237.164062 C 39.605469 238.679688 36.394531 244.015625 38.449219 247.683594 C 38.664062 248.066406 39.375 249.332031 40.410156 249.382812 C 40.855469 249.40625 42.246094 249.242188 45.183594 242.371094 " fill-opacity="1" fill-rule="nonzero"/><path fill="#346e00" d="M 35.957031 236.3125 C 35.445312 236.230469 34.929688 235.90625 34.3125 235.039062 C 32.3125 232.222656 32.113281 226.746094 33.785156 222.289062 C 35.5 217.714844 37.859375 216.652344 38.554688 213.523438 C 38.554688 213.523438 39.046875 211.242188 40.34375 209.777344 C 40.355469 209.765625 40.425781 209.6875 40.519531 209.589844 C 40.871094 209.214844 41.101562 208.972656 41.152344 209.003906 C 41.25 209.0625 40.652344 209.828125 40.4375 210.433594 C 39.769531 212.304688 40.902344 214.457031 41.257812 215.222656 C 42.972656 218.902344 43.386719 226.179688 41.152344 231.160156 C 40.097656 233.511719 37.882812 236.621094 35.957031 236.3125 " fill-opacity="1" fill-rule="nonzero"/><path fill="#346e00" d="M 38.027344 231.210938 C 37.96875 228.171875 39.964844 227.902344 43.488281 221.277344 C 44.621094 219.148438 46.792969 213.632812 48.691406 213.453125 C 48.875 213.4375 48.785156 213.679688 48.578125 213.734375 C 46.421875 214.292969 46.402344 221.066406 46.402344 221.066406 C 46.382812 228.308594 42.203125 236.003906 40.199219 235.886719 C 39.09375 235.824219 38.066406 233.34375 38.027344 231.210938 " fill-opacity="1" fill-rule="nonzero"/><path fill="#7ca417" d="M 35.039062 257.757812 C 33.96875 258.328125 32.074219 256.222656 28.304688 252.816406 C 28.304688 252.816406 24.949219 249.785156 20.828125 247.1875 C 19.585938 246.402344 17.832031 245.390625 16.164062 245.804688 C 15.785156 245.898438 15.015625 246.164062 14.941406 246.015625 C 14.863281 245.859375 15.671875 245.449219 15.738281 245.4375 C 23.691406 244.265625 29.71875 249.683594 31.167969 250.90625 C 33.34375 252.742188 36.109375 255.070312 35.566406 256.960938 C 35.511719 257.15625 35.394531 257.570312 35.039062 257.757812 " fill-opacity="1" fill-rule="nonzero"/><path fill="#7ca417" d="M 28.425781 245.007812 C 25.675781 238.574219 26.804688 238.511719 24.925781 235.710938 C 23.789062 234.015625 20.824219 230.230469 20.101562 228.589844 C 19.839844 228.003906 19.460938 227 19.109375 225.855469 C 19.085938 225.777344 19.015625 225.628906 19.039062 225.617188 C 19.125 225.566406 19.460938 226.554688 20.417969 227.6875 C 22.292969 229.902344 24.449219 231.230469 26.464844 232.574219 C 30.273438 235.117188 32.300781 238.488281 33.089844 239.800781 C 34.003906 241.320312 37.210938 246.652344 35.15625 250.320312 C 34.941406 250.703125 34.234375 251.96875 33.195312 252.019531 C 32.75 252.042969 31.363281 251.882812 28.425781 245.007812 " fill-opacity="1" fill-rule="nonzero"/><path fill="#346e00" d="M 32.621094 233.851562 C 32.675781 230.808594 30.683594 230.539062 27.160156 223.914062 C 26.027344 221.785156 23.855469 216.269531 21.957031 216.089844 C 21.769531 216.074219 21.863281 216.316406 22.070312 216.371094 C 24.226562 216.929688 24.242188 223.703125 24.242188 223.703125 C 24.261719 230.945312 28.441406 238.640625 30.449219 238.527344 C 31.554688 238.464844 32.582031 235.984375 32.621094 233.851562 " fill-opacity="1" fill-rule="nonzero"/><path fill="#7ca417" d="M 37.800781 247.046875 C 35.109375 246.023438 34.488281 239.308594 36.472656 234.242188 C 37.5625 231.464844 39.230469 229.707031 40.289062 228.609375 C 43.898438 224.878906 48.5 223.070312 48.722656 223.402344 C 48.785156 223.503906 48.648438 223.214844 47.980469 224.414062 C 47.191406 225.824219 45.953125 231.746094 44.003906 238.8125 C 42.496094 244.265625 41.769531 246.082031 40.027344 246.832031 C 39.65625 246.992188 38.71875 247.394531 37.800781 247.046875 " fill-opacity="1" fill-rule="nonzero"/><path fill="#7ca417" d="M 26.859375 216.679688 C 27.019531 216.546875 27.808594 217.28125 28.085938 217.539062 C 32.378906 221.539062 34.644531 226.078125 34.644531 226.078125 C 37.546875 231.898438 37.628906 235.972656 37.589844 237.503906 C 37.546875 239.089844 37.144531 240.3125 36.257812 240.945312 C 34.976562 241.863281 33.3125 241.1875 32.03125 240.390625 C 28.449219 238.171875 26.988281 232.074219 27.617188 227.246094 C 27.945312 224.722656 28.207031 219.296875 27.410156 217.699219 C 27.300781 217.480469 26.691406 216.816406 26.859375 216.679688 " fill-opacity="1" fill-rule="nonzero"/><path fill="#9fbc50" d="M 40.335938 231.109375 C 40.128906 230.984375 39.335938 231.949219 39.058594 232.285156 C 34.746094 237.539062 32.84375 243.09375 32.84375 243.09375 C 30.40625 250.214844 30.9375 254.90625 31.222656 256.65625 C 31.511719 258.46875 32.160156 259.808594 33.273438 260.398438 C 34.886719 261.25 36.6875 260.222656 38.039062 259.113281 C 41.804688 256.011719 42.550781 248.792969 41.085938 243.351562 C 40.320312 240.503906 39.1875 234.324219 39.859375 232.367188 C 39.953125 232.097656 40.550781 231.242188 40.335938 231.109375 " fill-opacity="1" fill-rule="nonzero"/><g clip-path="url(#3165d81fea)"><path fill="#9fbc50" d="M 34.304688 258.800781 C 34.296875 258.964844 35.496094 261.097656 34.765625 260.992188 C 33.320312 260.789062 33.425781 257.324219 31.335938 253.863281 C 30.179688 251.949219 29.628906 251.699219 27.527344 249.46875 C 24.050781 245.789062 24.039062 244.59375 19.984375 237.46875 C 19.984375 237.46875 17.933594 233.9375 15.160156 231.933594 C 13.964844 231.074219 13.710938 231.328125 13.617188 231.128906 C 13.574219 231.03125 13.578125 229.324219 25.53125 237.980469 C 34.570312 244.53125 34.519531 254.277344 34.304688 258.800781 " fill-opacity="1" fill-rule="nonzero"/></g><g clip-path="url(#c990e8bd37)"><path fill="#d78e42" d="M 52.199219 257.035156 C 52.007812 256.617188 51.699219 256.269531 51.238281 256.269531 L 23.410156 256.269531 C 22.949219 256.269531 22.640625 256.617188 22.449219 257.035156 C 20.945312 260.3125 19.894531 267.238281 19.890625 270.898438 C 19.890625 277.648438 25.910156 284.457031 32.644531 284.457031 L 42.003906 284.457031 C 48.738281 284.457031 54.761719 277.648438 54.761719 270.898438 C 54.753906 267.238281 53.703125 260.3125 52.199219 257.035156 " fill-opacity="1" fill-rule="nonzero"/></g><g clip-path="url(#0efa66554c)"><path fill="#a54e00" d="M 50.855469 284.457031 L 23.792969 284.457031 C 22.46875 284.457031 21.394531 283.058594 21.394531 281.332031 L 21.394531 280.664062 C 21.394531 280.195312 21.6875 279.8125 22.046875 279.8125 L 52.601562 279.8125 C 52.960938 279.8125 53.253906 280.195312 53.253906 280.664062 L 53.253906 281.332031 C 53.253906 283.058594 52.179688 284.457031 50.855469 284.457031 " fill-opacity="1" fill-rule="nonzero"/></g><path fill="#7ca417" d="M 271.585938 246.566406 C 272.570312 245.542969 272.96875 244.0625 270.371094 239.894531 C 265.148438 231.515625 253.324219 235.34375 251.699219 239.871094 C 251.351562 240.835938 252.488281 239.796875 253.121094 240.632812 C 256.492188 245.09375 269.046875 249.203125 271.585938 246.566406 " fill-opacity="1" fill-rule="nonzero"/><path fill="#346e00" d="M 256.273438 151.636719 C 257.28125 151.078125 256.308594 152.199219 263.648438 153.117188 C 275.710938 154.625 284.949219 171.832031 284.191406 184.671875 C 284.03125 187.402344 283.539062 195.757812 277.796875 199.464844 C 277.082031 199.925781 274.398438 201.816406 271.277344 201.191406 C 239.628906 194.855469 249.144531 159.375 255.53125 154.175781 C 257.246094 152.777344 255.300781 152.179688 256.273438 151.636719 " fill-opacity="1" fill-rule="nonzero"/><path fill="#7ca417" d="M 280.066406 236.03125 C 275.695312 235.316406 275.976562 225.140625 279.46875 218.167969 C 279.46875 218.167969 285.765625 204.390625 303.789062 207.621094 C 304.957031 207.828125 305.511719 207.488281 305.367188 207.785156 C 304.621094 209.300781 305.742188 210.832031 303.640625 215.515625 C 302.15625 218.8125 292.839844 238.117188 280.066406 236.03125 " fill-opacity="1" fill-rule="nonzero"/><path fill="#7ca417" d="M 280.132812 203.65625 C 282.90625 205.324219 289.480469 198.734375 300.550781 187.632812 C 300.550781 187.632812 305.652344 182.515625 312.117188 172.714844 C 314.8125 168.625 314.699219 167.167969 314.699219 167.167969 C 313.1875 165.015625 301.378906 169.699219 292.433594 176.785156 C 288.367188 180.003906 281.882812 185.289062 279.761719 194.164062 C 279.347656 195.917969 277.828125 202.273438 280.132812 203.65625 " fill-opacity="1" fill-rule="nonzero"/><path fill="#7ca417" d="M 269.96875 209.503906 C 267.742188 210.863281 265.140625 207.414062 251.585938 198.40625 C 244.179688 193.488281 238.425781 190.179688 234.71875 182.917969 C 232.929688 179.40625 233.214844 178.183594 233.609375 177.664062 C 234.933594 175.945312 246.890625 176.546875 254.808594 180.609375 C 258.230469 182.363281 266.328125 186.515625 269.800781 195.570312 C 271.539062 200.09375 272.851562 207.746094 269.96875 209.503906 " fill-opacity="1" fill-rule="nonzero"/><path fill="#7ca417" d="M 274.054688 205.84375 C 273.191406 201.160156 272.191406 196.5 271.035156 191.878906 C 269.882812 187.253906 268.554688 182.675781 267.070312 178.144531 C 265.585938 173.609375 263.941406 169.128906 262.144531 164.707031 C 260.351562 160.285156 258.417969 155.914062 256.332031 151.617188 C 258.535156 155.855469 260.589844 160.171875 262.515625 164.550781 C 264.441406 168.925781 266.21875 173.371094 267.835938 177.878906 C 269.453125 182.382812 270.925781 186.949219 272.21875 191.5625 C 273.511719 196.175781 274.648438 200.835938 275.652344 205.523438 L 274.054688 205.84375 " fill-opacity="1" fill-rule="nonzero"/><path fill="#346e00" d="M 275.070312 240.328125 C 276.832031 237.246094 278.683594 234.222656 280.675781 231.285156 L 282.195312 229.105469 L 283.777344 226.96875 C 283.90625 226.789062 284.042969 226.613281 284.183594 226.441406 L 284.59375 225.917969 L 285.417969 224.875 C 285.683594 224.523438 285.976562 224.1875 286.261719 223.847656 L 287.117188 222.828125 C 289.421875 220.140625 291.898438 217.597656 294.574219 215.277344 C 297.25 212.964844 300.121094 210.878906 303.144531 209.066406 C 300.175781 210.976562 297.386719 213.148438 294.800781 215.53125 C 292.214844 217.921875 289.839844 220.527344 287.640625 223.265625 L 286.820312 224.300781 C 286.550781 224.648438 286.273438 224.988281 286.015625 225.34375 L 284.84375 226.9375 C 284.710938 227.113281 284.582031 227.289062 284.460938 227.472656 L 282.960938 229.636719 L 281.523438 231.847656 C 279.644531 234.820312 277.90625 237.875 276.261719 240.980469 L 275.070312 240.328125 " fill-opacity="1" fill-rule="nonzero"/><path fill="#346e00" d="M 273.582031 211.929688 C 276.160156 208.121094 278.605469 204.199219 281.160156 200.339844 C 283.710938 196.480469 286.363281 192.675781 289.25 189.050781 C 289.96875 188.144531 290.703125 187.25 291.457031 186.367188 C 292.203125 185.484375 292.976562 184.617188 293.757812 183.765625 L 294.34375 183.128906 L 294.945312 182.5 C 295.34375 182.078125 295.761719 181.675781 296.167969 181.265625 C 297 180.457031 297.839844 179.664062 298.707031 178.898438 C 300.433594 177.355469 302.226562 175.894531 304.066406 174.5 C 305.910156 173.105469 307.800781 171.777344 309.757812 170.550781 C 307.832031 171.828125 305.976562 173.199219 304.171875 174.632812 C 302.367188 176.070312 300.617188 177.570312 298.933594 179.148438 C 295.550781 182.273438 292.570312 185.800781 289.785156 189.46875 C 287.007812 193.140625 284.464844 196.984375 282.015625 200.894531 C 279.566406 204.800781 277.214844 208.777344 274.710938 212.679688 L 273.582031 211.929688 " fill-opacity="1" fill-rule="nonzero"/><path fill="#346e00" d="M 273.214844 216.589844 C 272.574219 214.453125 271.671875 212.371094 270.613281 210.367188 C 269.5625 208.363281 268.375 206.421875 267.09375 204.539062 C 264.53125 200.773438 261.617188 197.242188 258.453125 193.949219 C 255.289062 190.660156 251.867188 187.605469 248.183594 184.894531 C 244.5 182.1875 240.5625 179.804688 236.355469 177.980469 C 240.605469 179.703125 244.617188 181.992188 248.382812 184.621094 C 252.148438 187.25 255.667969 190.234375 258.9375 193.46875 C 262.207031 196.710938 265.234375 200.199219 267.929688 203.953125 C 269.273438 205.828125 270.53125 207.777344 271.660156 209.804688 C 272.792969 211.828125 273.78125 213.949219 274.515625 216.191406 L 273.214844 216.589844 " fill-opacity="1" fill-rule="nonzero"/><path fill="#346e00" d="M 275.609375 249.71875 C 275.050781 248.957031 274.382812 248.238281 273.667969 247.566406 C 272.953125 246.894531 272.191406 246.261719 271.402344 245.660156 C 269.820312 244.464844 268.128906 243.394531 266.367188 242.457031 C 264.605469 241.519531 262.765625 240.714844 260.863281 240.089844 C 258.960938 239.472656 256.988281 239.027344 254.980469 238.894531 C 256.996094 238.914062 259.003906 239.246094 260.960938 239.765625 C 262.917969 240.285156 264.824219 240.996094 266.667969 241.847656 C 268.511719 242.699219 270.296875 243.691406 271.992188 244.832031 C 272.839844 245.402344 273.667969 246.015625 274.457031 246.679688 C 275.25 247.34375 276.003906 248.0625 276.683594 248.890625 L 275.609375 249.71875 " fill-opacity="1" fill-rule="nonzero"/><path fill="#9fbc50" d="M 239.582031 205.207031 C 239.613281 203.695312 257.53125 198.5625 270.5625 219.167969 C 273.664062 224.070312 273.316406 232.402344 271.601562 231.707031 C 264.800781 228.953125 248.632812 223.183594 241.421875 206.589844 C 240.585938 204.660156 239.566406 206.007812 239.582031 205.207031 " fill-opacity="1" fill-rule="nonzero"/><path fill="#7ca417" d="M 276.078125 199.789062 C 276.023438 201.101562 275.921875 202.390625 275.816406 203.675781 L 275.5 207.519531 C 275.390625 208.796875 275.285156 210.070312 275.1875 211.34375 C 275.082031 212.617188 274.957031 213.890625 274.792969 215.164062 C 274.234375 221.839844 275.09375 229.261719 275.308594 230.546875 C 275.417969 231.183594 275.511719 231.828125 275.605469 232.472656 C 275.691406 233.117188 275.761719 233.765625 275.824219 234.414062 C 275.953125 235.707031 276.058594 237 276.164062 238.292969 C 276.371094 240.882812 276.503906 243.472656 276.527344 246.0625 C 276.550781 248.65625 276.496094 251.25 276.367188 253.84375 C 276.332031 254.492188 276.300781 255.136719 276.25 255.789062 C 276.210938 256.433594 276.152344 257.082031 276.101562 257.730469 C 276.046875 258.375 275.972656 259.023438 275.910156 259.671875 C 275.832031 260.316406 275.753906 260.964844 275.660156 261.609375 L 275.441406 261.605469 C 275.28125 260.3125 275.164062 259.019531 275.046875 257.730469 C 274.929688 256.441406 274.824219 255.152344 274.730469 253.863281 C 274.542969 251.285156 274.378906 248.707031 274.25 246.132812 C 274.117188 243.558594 274.050781 240.980469 273.996094 238.402344 C 273.972656 237.117188 273.933594 235.828125 273.886719 234.542969 L 273.824219 232.617188 C 273.8125 231.972656 273.792969 231.328125 273.792969 230.679688 C 273.777344 229.386719 273.777344 228.085938 273.753906 226.789062 C 273.730469 225.488281 273.679688 224.191406 273.621094 222.894531 C 273.566406 221.597656 273.480469 220.300781 273.382812 219.003906 C 273.277344 217.703125 273.167969 216.398438 273.121094 215.089844 C 273.019531 212.472656 273.324219 209.863281 273.773438 207.289062 C 274.238281 204.71875 274.878906 202.179688 275.867188 199.746094 L 276.078125 199.789062 " fill-opacity="1" fill-rule="nonzero"/><path fill="#7ca417" d="M 274.425781 237.632812 C 273.910156 235.894531 273.183594 234.191406 272.339844 232.546875 C 271.5 230.898438 270.554688 229.296875 269.542969 227.738281 C 267.511719 224.625 265.207031 221.675781 262.703125 218.914062 C 261.449219 217.53125 260.144531 216.195312 258.785156 214.917969 C 257.417969 213.644531 256 212.425781 254.527344 211.28125 C 251.578125 208.988281 248.402344 206.964844 244.964844 205.464844 C 248.445312 206.859375 251.699219 208.796875 254.730469 211.007812 C 256.25 212.117188 257.710938 213.300781 259.125 214.542969 C 260.535156 215.785156 261.890625 217.09375 263.199219 218.445312 C 265.808594 221.160156 268.226562 224.066406 270.386719 227.171875 C 271.464844 228.722656 272.472656 230.324219 273.390625 231.992188 C 274.304688 233.65625 275.117188 235.390625 275.722656 237.234375 L 274.425781 237.632812 " fill-opacity="1" fill-rule="nonzero"/><g clip-path="url(#e898e1c103)"><path fill="#d78e42" d="M 289.515625 253.402344 L 261.898438 253.402344 C 259.765625 253.402344 257.789062 256.65625 257.808594 258.796875 C 257.824219 260.503906 257.851562 261.449219 257.890625 262.40625 C 258.363281 273.375 264.554688 281.519531 266.808594 283.808594 C 267.214844 284.222656 267.773438 284.457031 268.355469 284.457031 L 283.183594 284.457031 C 283.769531 284.457031 284.324219 284.222656 284.730469 283.808594 C 286.988281 281.519531 293.050781 273.375 293.523438 262.40625 C 293.566406 261.449219 293.589844 260.503906 293.605469 258.796875 C 293.625 256.65625 291.648438 253.402344 289.515625 253.402344 " fill-opacity="1" fill-rule="nonzero"/></g><g clip-path="url(#8592cf56bf)"><path fill="#a54e00" d="M 287.609375 284.457031 L 263.804688 284.457031 C 262.640625 284.457031 261.695312 283.152344 261.695312 281.546875 L 261.695312 280.921875 C 261.695312 280.484375 261.953125 280.128906 262.269531 280.128906 L 289.144531 280.128906 C 289.464844 280.128906 289.71875 280.484375 289.71875 280.921875 L 289.71875 281.546875 C 289.71875 283.152344 288.777344 284.457031 287.609375 284.457031 " fill-opacity="1" fill-rule="nonzero"/></g><path fill="#7ca417" d="M 149.535156 189.503906 C 149.472656 190.152344 150.816406 191.03125 151.171875 191.210938 C 152.355469 191.804688 153.949219 192.070312 155.742188 192.265625 C 156.300781 193.582031 156.089844 194.5 156.339844 195.679688 C 156.835938 198.007812 157.675781 197.515625 157.742188 197.46875 C 158.722656 196.730469 158.21875 193.777344 157.484375 192.433594 C 158.472656 192.523438 159.496094 192.617188 160.527344 192.746094 C 160.769531 192.777344 161.011719 192.828125 161.253906 192.890625 C 161.304688 192.988281 161.355469 193.089844 161.402344 193.203125 C 162.671875 196.320312 161.777344 197.636719 161.769531 199.738281 C 161.757812 202.984375 163.019531 202.570312 163.117188 202.523438 C 164.675781 201.804688 164.828125 197.523438 164.179688 195.585938 C 164.070312 195.257812 163.851562 194.605469 163.449219 193.914062 C 168.320312 197.109375 172.058594 205.71875 165.464844 207.992188 C 163.949219 208.511719 165.40625 209.714844 164.316406 211.78125 C 163.390625 213.539062 161.027344 213.8125 160.28125 213.929688 C 156.515625 214.523438 152.066406 212.488281 149.597656 209.003906 C 147.238281 205.675781 146.8125 201.21875 147.804688 198.03125 C 148.148438 196.921875 150.046875 193.554688 149.589844 192.386719 C 149.035156 190.972656 149.011719 190.070312 149.082031 189.535156 C 149.136719 189.09375 149.582031 189.046875 149.535156 189.503906 " fill-opacity="1" fill-rule="nonzero"/><path fill="#346e00" d="M 165.980469 219.664062 C 166.3125 218.46875 168.394531 218.933594 169.511719 217.070312 C 170.59375 215.269531 170.5 212.058594 168.878906 210.929688 C 166.105469 209 164.75 206.316406 162.914062 205.28125 C 159.964844 203.617188 155.796875 203.910156 147.125 206.910156 C 146.171875 207.238281 145.320312 207.535156 144.558594 207.8125 C 145.269531 208.054688 146.015625 208.371094 146.753906 208.789062 C 147.167969 209.023438 148.855469 210.007812 150.0625 211.945312 C 150.480469 212.617188 151.300781 213.9375 150.789062 214.855469 C 150.75 214.925781 150.519531 215.195312 150.109375 215.28125 C 149.332031 215.4375 148.566406 214.433594 147.253906 212.652344 C 145.113281 209.75 144.128906 208.703125 143.484375 208.210938 C 141.355469 209.027344 140.058594 209.707031 139.230469 210.6875 C 138.007812 212.132812 136.632812 214.53125 134.941406 214.492188 C 133.960938 214.46875 133.726562 213.554688 133.457031 213.757812 C 132.894531 214.183594 135.25 217.421875 136.992188 221.671875 C 139.667969 228.207031 139.492188 227.675781 140.644531 229.109375 C 140.84375 229.359375 141.046875 229.59375 141.261719 229.820312 C 149.097656 228.414062 151.921875 224.15625 153.523438 223.457031 C 153.8125 223.332031 154.878906 222.871094 155.175781 223.214844 C 155.601562 223.707031 154.191406 225.570312 153.890625 225.96875 C 152.066406 228.386719 148.113281 231.9375 144.183594 232.15625 C 146.773438 233.695312 149.71875 234.382812 152.429688 235.015625 C 156.976562 236.070312 161.136719 237.042969 165.035156 234.777344 C 167.40625 233.402344 169.746094 230.40625 169.984375 227.691406 C 170.335938 223.730469 165.167969 222.554688 165.980469 219.664062 " fill-opacity="1" fill-rule="nonzero"/><path fill="#7ca417" d="M 135.914062 215.351562 C 136.757812 215.761719 137.65625 216.039062 138.558594 216.285156 C 139.460938 216.53125 140.378906 216.730469 141.296875 216.910156 C 143.136719 217.265625 144.988281 217.539062 146.847656 217.773438 C 150.5625 218.246094 154.292969 218.570312 158.03125 218.847656 C 159.898438 218.984375 161.765625 219.105469 163.636719 219.222656 L 166.445312 219.402344 C 166.914062 219.429688 167.382812 219.464844 167.855469 219.503906 C 168.089844 219.523438 168.335938 219.554688 168.574219 219.582031 C 168.816406 219.621094 169.054688 219.65625 169.292969 219.707031 C 169.769531 219.808594 170.242188 219.9375 170.703125 220.109375 C 171.160156 220.273438 171.609375 220.46875 172.042969 220.695312 C 172.910156 221.132812 173.707031 221.671875 174.480469 222.230469 C 174.867188 222.511719 175.238281 222.796875 175.617188 223.097656 C 176 223.40625 176.355469 223.734375 176.699219 224.066406 C 177.386719 224.730469 178.035156 225.417969 178.679688 226.105469 C 179.960938 227.488281 181.214844 228.878906 182.496094 230.242188 C 183.773438 231.605469 185.074219 232.945312 186.414062 234.238281 C 189.089844 236.828125 191.921875 239.25 194.980469 241.324219 C 198.035156 243.398438 201.320312 245.121094 204.792969 246.242188 C 208.265625 247.371094 211.921875 247.855469 215.535156 247.609375 L 215.648438 249.597656 C 214.675781 249.636719 213.707031 249.636719 212.742188 249.589844 C 211.773438 249.535156 210.808594 249.445312 209.851562 249.300781 C 208.898438 249.152344 207.949219 248.96875 207.011719 248.738281 C 206.074219 248.503906 205.148438 248.226562 204.238281 247.917969 C 200.59375 246.660156 197.210938 244.789062 194.105469 242.589844 C 190.996094 240.390625 188.15625 237.855469 185.492188 235.175781 C 184.160156 233.835938 182.871094 232.457031 181.613281 231.054688 C 180.351562 229.660156 179.121094 228.238281 177.875 226.84375 C 177.25 226.148438 176.625 225.457031 175.976562 224.804688 C 175.652344 224.476562 175.320312 224.164062 174.980469 223.875 C 174.632812 223.585938 174.261719 223.292969 173.898438 223.011719 C 173.167969 222.457031 172.414062 221.925781 171.617188 221.496094 C 171.222656 221.277344 170.816406 221.089844 170.394531 220.925781 C 169.980469 220.761719 169.550781 220.628906 169.113281 220.53125 C 168.894531 220.476562 168.671875 220.4375 168.449219 220.398438 C 168.226562 220.367188 168.007812 220.332031 167.777344 220.304688 C 167.316406 220.257812 166.851562 220.214844 166.382812 220.171875 L 163.585938 219.925781 C 161.714844 219.761719 159.847656 219.589844 157.980469 219.40625 C 154.25 219.035156 150.519531 218.617188 146.808594 218.050781 C 144.953125 217.769531 143.101562 217.449219 141.269531 217.046875 C 140.351562 216.84375 139.441406 216.621094 138.539062 216.355469 C 137.640625 216.082031 136.75 215.78125 135.914062 215.351562 " fill-opacity="1" fill-rule="nonzero"/><path fill="#346e00" d="M 182.148438 193.171875 C 182.746094 187.941406 183.320312 182.707031 183.800781 177.464844 C 184.039062 174.84375 184.261719 172.21875 184.382812 169.59375 C 184.410156 168.941406 184.433594 168.285156 184.433594 167.632812 C 184.433594 167.304688 184.425781 166.980469 184.40625 166.660156 C 184.398438 166.5 184.382812 166.339844 184.363281 166.1875 C 184.351562 166.113281 184.339844 166.035156 184.324219 165.96875 C 184.3125 165.898438 184.289062 165.828125 184.269531 165.789062 C 184.261719 165.769531 184.25 165.757812 184.265625 165.777344 C 184.273438 165.785156 184.292969 165.800781 184.332031 165.808594 C 184.363281 165.816406 184.398438 165.8125 184.414062 165.808594 C 184.449219 165.796875 184.4375 165.796875 184.425781 165.8125 C 184.414062 165.824219 184.394531 165.847656 184.375 165.871094 C 184.304688 165.976562 184.234375 166.117188 184.167969 166.257812 C 184.039062 166.542969 183.929688 166.847656 183.824219 167.15625 C 183.617188 167.769531 183.433594 168.398438 183.257812 169.027344 C 182.550781 171.550781 181.976562 174.121094 181.363281 176.683594 C 180.75 179.242188 180.132812 181.800781 179.539062 184.363281 C 178.953125 186.925781 178.382812 189.492188 177.914062 192.070312 C 177.792969 192.714844 177.6875 193.359375 177.574219 194.003906 C 177.476562 194.652344 177.371094 195.296875 177.289062 195.945312 C 177.109375 197.238281 176.96875 198.535156 176.882812 199.832031 C 176.792969 201.128906 176.753906 202.425781 176.78125 203.71875 C 176.8125 205.015625 176.90625 206.304688 177.078125 207.582031 C 177.40625 210.140625 178.078125 212.636719 179.007812 215.039062 C 179.945312 217.4375 181.113281 219.738281 182.625 221.789062 C 183.375 222.816406 184.21875 223.777344 185.121094 224.671875 C 186.027344 225.570312 187 226.402344 188.023438 227.1875 C 190.0625 228.757812 192.277344 230.160156 194.464844 231.644531 C 196.65625 233.121094 198.824219 234.6875 200.863281 236.417969 C 202.902344 238.144531 204.820312 240.023438 206.589844 242.03125 C 208.359375 244.039062 210.855469 247.367188 212.363281 249.5625 L 209.855469 249.480469 C 208.40625 247.328125 206.84375 245.253906 205.148438 243.296875 C 203.457031 241.339844 201.625 239.511719 199.667969 237.824219 C 197.710938 236.128906 195.621094 234.59375 193.464844 233.113281 C 191.316406 231.625 189.09375 230.191406 186.976562 228.535156 C 185.921875 227.707031 184.898438 226.816406 183.945312 225.855469 C 182.992188 224.894531 182.101562 223.859375 181.308594 222.753906 C 180.910156 222.203125 180.535156 221.636719 180.183594 221.058594 C 180.003906 220.769531 179.839844 220.472656 179.667969 220.183594 C 179.507812 219.882812 179.335938 219.589844 179.1875 219.289062 C 178.871094 218.691406 178.589844 218.074219 178.3125 217.460938 C 178.183594 217.152344 178.042969 216.84375 177.925781 216.53125 L 177.5625 215.589844 C 176.640625 213.0625 175.984375 210.425781 175.695312 207.75 C 175.542969 206.417969 175.46875 205.074219 175.464844 203.734375 C 175.464844 202.394531 175.53125 201.0625 175.648438 199.734375 C 175.761719 198.40625 175.933594 197.085938 176.140625 195.773438 C 176.238281 195.117188 176.355469 194.464844 176.46875 193.8125 C 176.59375 193.164062 176.714844 192.511719 176.851562 191.863281 C 177.375 189.269531 177.996094 186.703125 178.636719 184.144531 C 179.28125 181.589844 179.949219 179.042969 180.609375 176.492188 C 181.277344 173.949219 181.902344 171.386719 182.660156 168.855469 C 182.851562 168.21875 183.050781 167.589844 183.277344 166.960938 C 183.394531 166.648438 183.511719 166.332031 183.660156 166.019531 C 183.734375 165.863281 183.8125 165.710938 183.929688 165.546875 C 183.960938 165.503906 183.996094 165.460938 184.039062 165.417969 C 184.085938 165.375 184.140625 165.324219 184.253906 165.285156 C 184.308594 165.265625 184.386719 165.257812 184.460938 165.277344 C 184.539062 165.296875 184.589844 165.335938 184.628906 165.371094 C 184.707031 165.445312 184.734375 165.507812 184.761719 165.5625 C 184.8125 165.671875 184.832031 165.765625 184.851562 165.855469 C 184.867188 165.945312 184.882812 166.035156 184.890625 166.121094 C 184.910156 166.296875 184.921875 166.464844 184.929688 166.632812 C 184.941406 166.972656 184.941406 167.304688 184.9375 167.636719 C 184.925781 168.300781 184.890625 168.960938 184.847656 169.621094 C 184.675781 172.253906 184.398438 174.875 184.109375 177.496094 C 183.523438 182.730469 182.847656 187.953125 182.148438 193.171875 " fill-opacity="1" fill-rule="nonzero"/><g clip-path="url(#216d4fec67)"><path fill="#346e00" d="M 175.886719 145.324219 C 173.890625 147.539062 167.839844 149.972656 167.539062 148.785156 C 167.320312 147.914062 170.453125 148.382812 172.882812 146.34375 C 173.9375 145.457031 175.164062 142.867188 176.605469 142.851562 C 177.445312 142.839844 176.820312 144.28125 175.886719 145.324219 Z M 170.320312 132.515625 C 170.675781 132.542969 171.011719 132.847656 171.132812 133.203125 C 171.308594 133.710938 171.019531 134.242188 170.660156 134.507812 C 170.109375 134.917969 169.253906 134.800781 169.019531 134.414062 C 168.675781 133.84375 169.511719 132.453125 170.320312 132.515625 Z M 167.648438 144.386719 C 166.1875 144.777344 166.195312 143.628906 166.941406 143.273438 C 168.0625 142.738281 170.230469 141.507812 173.261719 136.375 C 174.992188 133.449219 175.417969 131.578125 175.535156 130.359375 C 175.265625 130.125 174.980469 129.90625 174.667969 129.71875 C 173.375 128.925781 172.242188 128.855469 170.625 127.800781 C 169.609375 127.136719 168.429688 126.046875 167.433594 123.628906 C 167.097656 122.804688 166.667969 121.707031 166.363281 121.882812 C 166.226562 121.964844 166.804688 122.796875 166.476562 123.488281 C 165.957031 124.589844 163.582031 124.710938 162.183594 124.539062 C 161.328125 124.433594 160.960938 124.234375 160.523438 124.171875 C 160.285156 125.273438 159.945312 126.699219 159.800781 128.0625 C 159.234375 133.414062 161.921875 136.5625 161.453125 136.882812 C 160.898438 137.257812 157.253906 132.082031 157.234375 125.984375 C 155.605469 127.367188 153.859375 127.167969 152.027344 127.519531 C 152.46875 133.613281 154.632812 138.691406 156.183594 140.316406 C 156.746094 140.902344 156.019531 142.199219 154.960938 140.953125 C 152.363281 137.894531 150.144531 131.207031 150.144531 131.207031 C 149.835938 130.203125 149.582031 129.347656 149.371094 128.617188 C 149.367188 128.621094 149.363281 128.625 149.359375 128.628906 C 148.402344 129.308594 147.683594 130.65625 146.242188 133.351562 C 144.59375 136.445312 143.351562 138.773438 143.535156 141.71875 C 143.601562 142.816406 143.816406 143.171875 143.957031 144.074219 C 145.171875 145.605469 147.375 147.410156 151.589844 148.9375 C 153.613281 149.671875 152.300781 150.6875 151.25 150.53125 C 149.800781 150.320312 146.367188 148.996094 144.085938 146.222656 C 144.023438 148.113281 143.4375 148.203125 143.617188 149.644531 C 143.902344 151.96875 146.175781 154.441406 148.097656 155.992188 C 153.21875 160.132812 156.402344 153.574219 159.882812 154.3125 C 162.484375 154.867188 161.21875 160.304688 166.632812 161.753906 C 170.046875 162.667969 176.273438 157.667969 177.796875 152.503906 C 178.285156 150.851562 178.15625 148.03125 178.476562 145.675781 C 178.789062 143.390625 178.820312 142.222656 178.84375 141.214844 C 178.855469 140.679688 178.921875 138.441406 178.414062 136.007812 C 175.011719 138.285156 171.523438 143.347656 167.648438 144.386719 " fill-opacity="1" fill-rule="nonzero"/></g><path fill="#7ca417" d="M 186.179688 194.605469 C 186.070312 194.632812 185.933594 194.589844 185.585938 194.238281 C 185.296875 193.949219 183.515625 192.085938 184.039062 189.863281 C 184.128906 189.476562 184.222656 189.074219 184.496094 188.996094 C 185.042969 188.835938 186.007812 190.109375 186.40625 191.367188 C 186.851562 192.78125 186.671875 194.484375 186.179688 194.605469 Z M 191.410156 167.65625 C 191.582031 167.222656 193.550781 167.433594 195.03125 168.027344 C 198.546875 169.433594 200.59375 173.5 200.054688 174.023438 C 199.914062 174.160156 197.546875 172.460938 192.8125 169.0625 C 192.070312 168.527344 191.292969 167.960938 191.410156 167.65625 Z M 198.878906 186.761719 C 198.238281 183.972656 196.292969 180.085938 192.871094 177.5 C 191.679688 176.601562 189.832031 175.5 189.457031 173.714844 C 189.410156 173.496094 189.273438 172.84375 189.59375 172.574219 C 190.070312 172.175781 191.261719 172.886719 191.730469 173.167969 C 198.636719 177.296875 199.695312 183.839844 199.695312 183.839844 C 199.964844 185.503906 199.914062 187.113281 199.773438 188.269531 C 203.378906 181.875 203.652344 177.394531 202.730469 176.410156 C 202.59375 176.265625 201.761719 175.6875 201.261719 174.847656 C 201.125 174.625 201.074219 174.359375 201.105469 174.101562 C 201.246094 172.917969 201.632812 169.046875 200.921875 166.84375 C 199.859375 163.558594 195.335938 161.179688 194.269531 160.855469 C 193.011719 160.472656 191.980469 160.160156 190.710938 160.445312 C 187.480469 161.167969 186.605469 164.894531 185.238281 164.625 C 183.820312 164.347656 184.8125 160.332031 182.449219 158.109375 C 179.957031 155.765625 174.832031 156.460938 171.746094 158.640625 C 169.515625 160.222656 167.734375 163.015625 168.066406 164.148438 C 168.105469 164.292969 168.34375 164.957031 168.066406 165.585938 C 167.921875 165.902344 167.703125 166.089844 167.652344 166.136719 C 167.117188 166.613281 164.972656 170.042969 164.144531 174.574219 C 167.125 172.085938 175.210938 168.558594 178.476562 169.058594 C 178.683594 169.09375 178.449219 169.625 176.707031 170.25 C 168.351562 173.246094 165.421875 177.304688 163.847656 178.992188 C 163.976562 180.957031 164.476562 182.460938 164.84375 183.550781 C 164.878906 183.65625 164.914062 183.757812 164.945312 183.855469 C 166.632812 181.742188 169.683594 179.59375 174.34375 177.621094 C 181.203125 174.71875 179.816406 178.738281 178.714844 179.300781 C 175.457031 180.976562 170.277344 185.472656 168.03125 189.925781 C 168.414062 190.542969 168.855469 191.246094 169.363281 192.050781 C 170.777344 194.292969 171.820312 195.914062 173.605469 196.152344 C 174.355469 196.253906 174.582031 195.996094 175.386719 196.222656 C 176.953125 196.660156 176.882812 197.863281 178.808594 199.171875 C 180.078125 200.03125 180.804688 199.742188 181.269531 200.964844 C 181.625 201.902344 181.730469 203.058594 182.023438 203.046875 C 182.304688 203.035156 182.027344 201.949219 182.433594 201.308594 C 183.824219 199.121094 189.363281 199.320312 189.824219 199.25 C 189.929688 199.234375 190.027344 199.21875 190.128906 199.199219 C 190.28125 198.78125 190.398438 198.292969 190.449219 197.714844 C 191.011719 191.378906 188.671875 189.507812 187.496094 185.71875 C 185.675781 179.871094 188.183594 179.917969 188.382812 179.945312 C 191.59375 180.375 194.238281 188.011719 194.144531 191.863281 C 194.117188 192.949219 194.046875 195.777344 192.609375 198.257812 C 195.136719 196.695312 196.609375 193.554688 199.128906 189.378906 C 199.160156 189.328125 199.183594 189.28125 199.214844 189.230469 C 199.175781 188.644531 199.109375 187.761719 198.878906 186.761719 " fill-opacity="1" fill-rule="nonzero"/><path fill="#346e00" d="M 217.082031 251.261719 C 216.699219 251.257812 216.25 251.28125 215.808594 251.300781 C 215.363281 251.320312 214.90625 251.34375 214.445312 251.355469 C 213.527344 251.382812 212.597656 251.378906 211.667969 251.328125 C 209.808594 251.226562 207.941406 250.929688 206.136719 250.394531 C 204.335938 249.859375 202.601562 249.082031 201.003906 248.097656 C 199.40625 247.117188 197.949219 245.925781 196.640625 244.605469 C 196.3125 244.273438 195.996094 243.933594 195.6875 243.585938 L 194.800781 242.574219 C 194.21875 241.914062 193.617188 241.265625 193 240.636719 C 191.765625 239.378906 190.464844 238.195312 189.070312 237.144531 C 187.679688 236.09375 186.191406 235.175781 184.601562 234.53125 C 183.019531 233.882812 181.324219 233.523438 179.644531 233.640625 C 178.804688 233.695312 177.972656 233.863281 177.175781 234.148438 C 176.777344 234.289062 176.386719 234.453125 176.003906 234.648438 C 175.8125 234.746094 175.632812 234.839844 175.460938 234.949219 C 175.285156 235.058594 175.117188 235.175781 174.953125 235.300781 C 174.289062 235.804688 173.714844 236.441406 173.21875 237.140625 C 172.71875 237.839844 172.304688 238.605469 171.945312 239.398438 C 171.238281 240.996094 170.769531 242.710938 170.46875 244.453125 C 170.167969 246.199219 170.039062 247.980469 170.03125 249.761719 C 170.015625 253.324219 170.492188 256.894531 171.3125 260.375 C 172.132812 263.863281 173.300781 267.269531 174.738281 270.558594 C 173.207031 267.3125 171.941406 263.933594 171.015625 260.453125 C 170.089844 256.972656 169.507812 253.386719 169.417969 249.765625 C 169.375 247.957031 169.457031 246.136719 169.714844 244.335938 C 169.972656 242.535156 170.40625 240.746094 171.105469 239.035156 C 171.460938 238.183594 171.878906 237.351562 172.402344 236.574219 C 172.921875 235.796875 173.539062 235.066406 174.289062 234.460938 C 174.476562 234.308594 174.671875 234.164062 174.875 234.03125 C 175.074219 233.894531 175.289062 233.773438 175.496094 233.664062 C 175.910156 233.4375 176.335938 233.242188 176.777344 233.070312 C 177.664062 232.730469 178.597656 232.507812 179.542969 232.417969 C 181.445312 232.230469 183.355469 232.589844 185.101562 233.246094 C 186.855469 233.90625 188.472656 234.84375 189.972656 235.910156 C 191.472656 236.976562 192.867188 238.171875 194.179688 239.441406 C 194.839844 240.074219 195.480469 240.726562 196.101562 241.390625 C 196.410156 241.71875 196.726562 242.070312 197.015625 242.378906 C 197.308594 242.699219 197.613281 243.007812 197.921875 243.308594 C 199.160156 244.507812 200.523438 245.574219 202 246.4375 C 203.472656 247.304688 205.054688 247.976562 206.699219 248.425781 C 208.34375 248.875 210.046875 249.113281 211.765625 249.167969 C 212.625 249.199219 213.488281 249.183594 214.359375 249.140625 C 214.796875 249.117188 215.234375 249.089844 215.683594 249.058594 C 216.132812 249.03125 216.582031 248.996094 217.097656 248.988281 C 217.722656 248.984375 218.234375 249.492188 218.238281 250.117188 C 218.242188 250.746094 217.742188 251.257812 217.113281 251.261719 C 217.109375 251.261719 217.101562 251.261719 217.09375 251.261719 L 217.082031 251.261719 " fill-opacity="1" fill-rule="nonzero"/><path fill="#346e00" d="M 214.457031 248.386719 C 212 246.484375 209.636719 244.625 207.5 242.363281 C 205.363281 240.101562 203.410156 237.652344 201.773438 234.992188 C 200.136719 232.335938 198.8125 229.457031 198.050781 226.40625 C 197.667969 224.882812 197.433594 223.324219 197.359375 221.753906 C 197.320312 220.96875 197.332031 220.183594 197.375 219.402344 C 197.421875 218.617188 197.507812 217.835938 197.640625 217.066406 C 197.902344 215.523438 198.300781 214.011719 198.832031 212.542969 C 199.097656 211.808594 199.402344 211.085938 199.757812 210.386719 C 200.117188 209.6875 200.519531 209.003906 201.039062 208.386719 C 201.296875 208.078125 201.589844 207.789062 201.9375 207.542969 C 202.277344 207.300781 202.695312 207.109375 203.160156 207.085938 C 203.625 207.066406 204.070312 207.246094 204.410156 207.496094 C 204.757812 207.746094 205.035156 208.054688 205.277344 208.375 C 205.753906 209.019531 206.109375 209.722656 206.425781 210.429688 C 206.742188 211.144531 207.007812 211.871094 207.25 212.605469 C 207.734375 214.074219 208.125 215.566406 208.476562 217.0625 C 208.828125 218.5625 209.132812 220.070312 209.414062 221.582031 C 209.976562 224.605469 210.441406 227.644531 210.855469 230.6875 C 210.367188 227.652344 209.835938 224.628906 209.203125 221.625 C 208.886719 220.121094 208.542969 218.625 208.160156 217.140625 C 207.777344 215.660156 207.351562 214.183594 206.839844 212.746094 C 206.582031 212.027344 206.300781 211.320312 205.980469 210.636719 C 205.660156 209.953125 205.296875 209.285156 204.84375 208.707031 C 204.621094 208.417969 204.367188 208.15625 204.085938 207.964844 C 203.804688 207.769531 203.496094 207.667969 203.191406 207.6875 C 202.882812 207.707031 202.574219 207.847656 202.296875 208.054688 C 202.023438 208.257812 201.769531 208.519531 201.542969 208.804688 C 201.085938 209.371094 200.714844 210.027344 200.390625 210.703125 C 200.066406 211.378906 199.789062 212.082031 199.546875 212.796875 C 199.066406 214.226562 198.71875 215.707031 198.5 217.199219 C 198.390625 217.945312 198.328125 218.695312 198.300781 219.445312 C 198.273438 220.199219 198.277344 220.949219 198.332031 221.699219 C 198.441406 223.195312 198.695312 224.683594 199.09375 226.132812 C 199.890625 229.035156 201.21875 231.773438 202.859375 234.304688 C 204.5 236.835938 206.445312 239.171875 208.574219 241.324219 C 210.699219 243.476562 213.046875 245.230469 215.484375 247.027344 L 214.457031 248.386719 " fill-opacity="1" fill-rule="nonzero"/><path fill="#346e00" d="M 229.019531 230.894531 C 228.996094 230.929688 228.945312 230.957031 228.753906 230.949219 C 228.59375 230.949219 227.59375 230.910156 227.136719 230.144531 C 227.0625 230.011719 226.976562 229.871094 227.03125 229.777344 C 227.144531 229.585938 227.757812 229.679688 228.210938 229.921875 C 228.714844 230.199219 229.125 230.726562 229.019531 230.894531 Z M 232.15625 235.183594 C 231.613281 235.199219 230.960938 234.023438 230.832031 233.714844 C 230.410156 232.695312 230.28125 231.347656 230.226562 229.839844 C 229.164062 229.292969 228.386719 229.414062 227.421875 229.136719 C 225.515625 228.585938 225.976562 227.914062 226.015625 227.863281 C 226.691406 227.085938 229.113281 227.679688 230.1875 228.371094 C 230.171875 227.542969 230.15625 226.683594 230.109375 225.8125 C 230.097656 225.609375 230.070312 225.40625 230.03125 225.199219 C 229.953125 225.152344 229.871094 225.101562 229.78125 225.058594 C 227.261719 223.8125 226.117188 224.484375 224.367188 224.363281 C 221.667969 224.183594 222.085938 223.152344 222.128906 223.074219 C 222.820312 221.8125 226.390625 221.941406 227.960938 222.59375 C 228.230469 222.707031 228.757812 222.929688 229.308594 223.304688 C 226.941406 219.046875 220 215.417969 217.71875 220.792969 C 217.195312 222.027344 216.285156 220.738281 214.5 221.527344 C 212.984375 222.195312 212.617188 224.15625 212.476562 224.769531 C 211.761719 227.878906 213.191406 231.714844 215.945312 233.980469 C 218.574219 236.148438 222.253906 236.765625 224.964844 236.125 C 225.90625 235.902344 228.816406 234.515625 229.761719 234.96875 C 230.90625 235.511719 231.65625 235.589844 232.105469 235.5625 C 232.476562 235.539062 232.542969 235.171875 232.15625 235.183594 " fill-opacity="1" fill-rule="nonzero"/><path fill="#7ca417" d="M 215.285156 211.664062 C 215.1875 211.757812 213.542969 210.578125 210.253906 208.214844 C 209.738281 207.84375 209.195312 207.449219 209.28125 207.238281 C 209.398438 206.9375 210.765625 207.085938 211.796875 207.496094 C 214.238281 208.472656 215.660156 211.296875 215.285156 211.664062 Z M 218.269531 211.675781 C 216.71875 207.808594 213.574219 205.109375 210.316406 204.070312 C 209.460938 203.800781 207.984375 203.351562 206.882812 204.070312 C 205.15625 205.199219 205.644531 208.34375 204.957031 208.433594 C 204.101562 208.546875 203.855469 203.851562 201.1875 202.679688 C 199.21875 201.8125 196.445312 202.691406 194.910156 204.207031 C 191.007812 208.0625 191.859375 215.542969 193.988281 220.230469 C 195.234375 222.976562 198.988281 229.320312 203.785156 230.46875 C 204.746094 230.699219 208.117188 231.285156 208.976562 233.488281 C 209.160156 233.960938 209.136719 234.273438 209.394531 234.410156 C 210.5 235.007812 214.289062 231.113281 216.429688 227.195312 C 217.394531 225.421875 221.082031 218.679688 218.269531 211.675781 " fill-opacity="1" fill-rule="nonzero"/><path fill="#7ca417" d="M 166.914062 126.210938 C 167.117188 127.691406 167.160156 129.195312 167.03125 130.6875 C 166.910156 132.179688 166.621094 133.65625 166.226562 135.101562 C 165.429688 137.996094 164.203125 140.742188 162.976562 143.460938 C 161.75 146.1875 160.511719 148.910156 159.671875 151.761719 C 159.460938 152.472656 159.277344 153.191406 159.125 153.917969 C 158.96875 154.640625 158.855469 155.363281 158.832031 156.09375 C 158.8125 156.824219 158.871094 157.550781 159.03125 158.257812 C 159.191406 158.964844 159.441406 159.652344 159.757812 160.308594 C 160.398438 161.625 161.261719 162.835938 162.136719 164.039062 C 163.015625 165.242188 163.910156 166.445312 164.757812 167.6875 C 166.457031 170.164062 167.953125 172.792969 169.183594 175.539062 C 169.804688 176.914062 170.367188 178.3125 170.871094 179.730469 C 171.375 181.144531 171.859375 182.554688 172.347656 183.96875 L 175.261719 192.445312 C 177.21875 198.09375 179.214844 203.722656 181.34375 209.292969 C 182.410156 212.078125 183.507812 214.855469 184.660156 217.597656 C 185.816406 220.34375 187.015625 223.066406 188.320312 225.730469 C 188.644531 226.398438 188.984375 227.054688 189.320312 227.714844 C 189.667969 228.367188 190.007812 229.023438 190.371094 229.664062 C 190.730469 230.316406 191.082031 230.933594 191.480469 231.535156 C 191.875 232.132812 192.300781 232.707031 192.753906 233.261719 C 193.660156 234.363281 194.6875 235.363281 195.816406 236.234375 C 196.945312 237.109375 198.171875 237.855469 199.460938 238.492188 C 199.621094 238.574219 199.785156 238.648438 199.949219 238.726562 C 200.109375 238.800781 200.28125 238.882812 200.425781 238.945312 C 200.730469 239.074219 201.066406 239.191406 201.410156 239.3125 L 203.53125 240.011719 C 204.964844 240.496094 206.40625 241.046875 207.792969 241.726562 C 210.574219 243.074219 213.660156 245.605469 215.75 247.917969 L 213.847656 248.675781 C 211.941406 246.542969 209.523438 244.730469 206.945312 243.457031 C 205.65625 242.816406 204.308594 242.285156 202.921875 241.804688 L 200.796875 241.089844 C 200.4375 240.960938 200.066406 240.828125 199.6875 240.664062 C 199.488281 240.582031 199.324219 240.5 199.148438 240.417969 C 198.976562 240.332031 198.800781 240.246094 198.628906 240.160156 C 197.253906 239.460938 195.925781 238.636719 194.703125 237.667969 C 193.476562 236.703125 192.359375 235.597656 191.382812 234.382812 C 190.894531 233.773438 190.4375 233.140625 190.015625 232.492188 C 189.597656 231.839844 189.210938 231.15625 188.863281 230.492188 C 188.496094 229.832031 188.160156 229.152344 187.820312 228.480469 C 187.488281 227.804688 187.152344 227.128906 186.835938 226.445312 C 185.550781 223.722656 184.382812 220.957031 183.261719 218.175781 C 182.144531 215.390625 181.085938 212.585938 180.0625 209.773438 C 178.011719 204.148438 176.101562 198.476562 174.230469 192.796875 L 171.445312 184.273438 C 170.980469 182.855469 170.515625 181.429688 170.039062 180.023438 C 169.5625 178.617188 169.035156 177.230469 168.441406 175.871094 C 167.269531 173.148438 165.835938 170.542969 164.191406 168.070312 C 163.371094 166.828125 162.5 165.621094 161.636719 164.398438 C 160.777344 163.175781 159.910156 161.929688 159.265625 160.542969 C 158.941406 159.851562 158.683594 159.121094 158.527344 158.367188 C 158.367188 157.613281 158.316406 156.839844 158.351562 156.074219 C 158.386719 155.3125 158.515625 154.554688 158.683594 153.820312 C 158.851562 153.085938 159.050781 152.359375 159.273438 151.640625 C 160.171875 148.765625 161.460938 146.050781 162.726562 143.347656 C 163.992188 140.644531 165.257812 137.929688 166.09375 135.0625 C 166.507812 133.632812 166.816406 132.167969 166.960938 130.679688 C 167.113281 129.195312 167.09375 127.695312 166.914062 126.210938 " fill-opacity="1" fill-rule="nonzero"/><path fill="#9fbc50" d="M 188.078125 249.167969 C 183.90625 244.890625 179.257812 243.085938 178.550781 242.386719 C 178.496094 242.332031 178.007812 241.832031 178.152344 241.453125 C 178.300781 241.078125 178.996094 240.980469 179.285156 241.023438 C 185.898438 241.972656 188.472656 249.542969 191.9375 252.214844 C 191.9375 252.082031 191.9375 251.945312 191.9375 251.800781 C 191.976562 248.9375 192.863281 240.003906 187.105469 233.503906 C 186.320312 232.617188 183.796875 230.25 181.066406 230.683594 C 177.453125 231.253906 176.109375 232.53125 173.953125 236.128906 C 173.0625 237.613281 172.195312 233.84375 169.386719 232.226562 C 169.121094 232.074219 165.851562 230.257812 162.273438 231.285156 C 156.589844 232.921875 155.277344 240.257812 155.226562 240.566406 C 154.910156 242.5 155.15625 244.097656 155.496094 246.285156 C 155.777344 248.121094 156.140625 250.335938 157.441406 252.738281 C 158.71875 255.097656 159.175781 254.464844 160.261719 256.707031 C 161.382812 259.03125 161.359375 260.691406 163.011719 261.886719 C 163.210938 262.03125 163.382812 262.128906 163.535156 262.226562 C 163.832031 260.816406 164.382812 259.160156 165.25 257.683594 C 165.625 257.046875 166.652344 255.296875 167.546875 255.476562 C 167.839844 255.535156 168.070312 255.792969 168.179688 256.039062 C 168.574219 256.957031 167.457031 258.226562 166.863281 258.980469 C 165.515625 260.683594 164.804688 262.324219 164.367188 263.535156 C 164.414062 264.480469 163.625 265.386719 163.816406 266.59375 C 164.25 269.335938 169.289062 270.804688 169.859375 270.964844 C 171.207031 271.34375 171.367188 271.121094 172.339844 271.570312 C 174.042969 272.359375 174.746094 273.59375 176.234375 273.519531 C 176.570312 273.503906 177.285156 273.460938 177.039062 273.320312 C 176.722656 273.140625 175.503906 271.507812 175.972656 269.75 C 176.394531 268.164062 184.464844 265.792969 189.042969 259.742188 C 188.074219 257.84375 186.40625 254.648438 183.054688 251.539062 C 181.882812 250.453125 179.71875 248.644531 180.132812 247.03125 C 180.246094 246.59375 180.5625 246.109375 181.03125 245.9375 C 182.457031 245.410156 184.605469 248.035156 185.386719 248.988281 C 187.8125 251.953125 189.382812 255.609375 190.082031 258.195312 C 190.90625 256.804688 191.535156 255.242188 191.871094 253.480469 C 191.90625 253.304688 191.921875 253.125 191.929688 252.941406 C 191.074219 252.179688 189.847656 250.988281 188.078125 249.167969 " fill-opacity="1" fill-rule="nonzero"/><path fill="#346e00" d="M 215.460938 249.992188 C 214.941406 248.035156 214.621094 246.03125 214.496094 244.027344 C 214.433594 243.023438 214.421875 242.019531 214.460938 241.015625 C 214.496094 240.015625 214.582031 239.019531 214.722656 238.027344 C 214.859375 237.042969 215.042969 236.058594 215.277344 235.09375 C 215.511719 234.128906 215.792969 233.171875 216.117188 232.238281 C 216.769531 230.367188 217.609375 228.566406 218.609375 226.875 C 217.734375 228.636719 217.03125 230.476562 216.523438 232.363281 C 216.269531 233.308594 216.0625 234.261719 215.902344 235.222656 C 215.738281 236.179688 215.632812 237.148438 215.570312 238.117188 C 215.5 239.082031 215.488281 240.054688 215.523438 241.019531 C 215.558594 241.984375 215.636719 242.949219 215.765625 243.902344 C 216.023438 245.8125 216.464844 247.6875 217.085938 249.496094 L 215.460938 249.992188 " fill-opacity="1" fill-rule="nonzero"/><g clip-path="url(#b2c34926bc)"><path fill="#d78e42" d="M 229.113281 251.128906 L 199.472656 251.128906 C 197.183594 251.128906 195.0625 254.625 195.082031 256.917969 C 195.101562 258.75 195.128906 259.765625 195.171875 260.792969 C 195.675781 272.566406 202.320312 281.304688 204.742188 283.757812 C 205.179688 284.207031 205.777344 284.457031 206.402344 284.457031 L 222.316406 284.457031 C 222.941406 284.457031 223.539062 284.207031 223.976562 283.757812 C 226.398438 281.304688 232.910156 272.566406 233.410156 260.792969 C 233.457031 259.765625 233.484375 258.75 233.5 256.917969 C 233.519531 254.625 231.398438 251.128906 229.113281 251.128906 " fill-opacity="1" fill-rule="nonzero"/></g><g clip-path="url(#59cfa3efd9)"><path fill="#a54e00" d="M 227.066406 284.457031 L 201.519531 284.457031 C 200.269531 284.457031 199.253906 283.058594 199.253906 281.332031 L 199.253906 280.664062 C 199.253906 280.195312 199.53125 279.8125 199.871094 279.8125 L 228.714844 279.8125 C 229.054688 279.8125 229.332031 280.195312 229.332031 280.664062 L 229.332031 281.332031 C 229.332031 283.058594 228.316406 284.457031 227.066406 284.457031 " fill-opacity="1" fill-rule="nonzero"/></g><path fill="#346e00" d="M 331.746094 249.910156 C 328.164062 244.550781 330.863281 235.050781 339.441406 230.675781 C 341.460938 229.644531 344.183594 227.679688 345.09375 224.957031 C 345.355469 224.171875 345.121094 223.46875 345.324219 223.484375 C 345.574219 223.5 345.648438 225.191406 345.667969 225.648438 C 345.820312 229.160156 345.046875 232.046875 344.71875 233.707031 C 343.621094 239.214844 345.410156 246.46875 340.417969 251.382812 C 336.828125 254.921875 333.527344 252.570312 331.746094 249.910156 " fill-opacity="1" fill-rule="nonzero"/><path fill="#346e00" d="M 324.0625 228.390625 C 324.25 228.40625 323.832031 228.652344 324.023438 229.269531 C 324.296875 230.140625 325.023438 230.664062 325.464844 231.148438 C 327.042969 232.878906 327.394531 235.105469 327.285156 237.378906 C 327.199219 239.042969 325.933594 241.453125 324.746094 240.617188 C 319.070312 236.625 322.996094 230.949219 323.457031 229.953125 C 324.019531 228.738281 323.820312 228.367188 324.0625 228.390625 " fill-opacity="1" fill-rule="nonzero"/><path fill="#346e00" d="M 329.242188 258.667969 C 331.902344 256.027344 328.390625 241.15625 316.355469 233.824219 C 315.113281 233.066406 313.074219 231.628906 312.695312 231.921875 C 312.503906 232.070312 313.808594 232.308594 313.417969 233.570312 C 309.074219 247.425781 323.597656 247.425781 324.34375 256.285156 C 324.566406 258.898438 327.742188 260.152344 329.242188 258.667969 " fill-opacity="1" fill-rule="nonzero"/><g clip-path="url(#d8c27069a7)"><path fill="#7ca417" d="M 358.949219 235.238281 C 358.15625 235.976562 355.714844 235.691406 353.433594 236.691406 C 351.304688 237.628906 350.386719 239.753906 349.445312 242.804688 C 347.824219 248.050781 343.214844 256.066406 336.75 256.125 C 326.296875 256.214844 335.757812 244.3125 345.101562 237.875 C 349.136719 235.09375 354.691406 235.042969 357.179688 235.011719 C 358.660156 234.992188 359.316406 234.898438 358.949219 235.238281 " fill-opacity="1" fill-rule="nonzero"/></g><path fill="#7ca417" d="M 330.882812 223.570312 C 331.675781 223.183594 330.613281 226.355469 334.601562 230.414062 C 343.109375 239.078125 341.351562 256.570312 332.4375 257.449219 C 328.902344 257.796875 315.730469 243.667969 329.933594 227.121094 C 331.609375 225.167969 330.585938 223.714844 330.882812 223.570312 " fill-opacity="1" fill-rule="nonzero"/><path fill="#9fbc50" d="M 340.394531 236.765625 C 340.449219 236.15625 342.566406 242.425781 342.816406 245.492188 C 343.363281 252.144531 342.503906 255.804688 339.929688 258.574219 C 336.925781 261.800781 331.832031 263.121094 328.808594 260.222656 C 326.105469 257.628906 325.957031 253.03125 328.289062 249.824219 C 329.953125 247.539062 330.527344 247.445312 335.121094 242.546875 C 337.960938 239.515625 340.160156 239.582031 340.394531 236.765625 " fill-opacity="1" fill-rule="nonzero"/><g clip-path="url(#ad00248b30)"><path fill="#d78e42" d="M 347.0625 258.316406 C 346.988281 257.4375 346.25 256.757812 345.367188 256.757812 L 321.484375 256.757812 C 320.601562 256.757812 319.863281 257.4375 319.789062 258.316406 L 318.726562 270.3125 L 318.726562 272.03125 C 318.726562 278.5625 324.011719 284.457031 330.53125 284.457031 L 336.320312 284.457031 C 342.839844 284.457031 348.125 278.5625 348.125 272.03125 L 348.125 270.3125 L 347.0625 258.316406 " fill-opacity="1" fill-rule="nonzero"/></g><g clip-path="url(#378bad2e4f)"><path fill="#a54e00" d="M 344.492188 284.457031 L 322.03125 284.457031 C 320.929688 284.457031 320.035156 283.058594 320.035156 281.332031 L 320.035156 280.664062 C 320.035156 280.195312 320.28125 279.8125 320.582031 279.8125 L 345.941406 279.8125 C 346.242188 279.8125 346.484375 280.195312 346.484375 280.664062 L 346.484375 281.332031 C 346.484375 283.058594 345.59375 284.457031 344.492188 284.457031 " fill-opacity="1" fill-rule="nonzero"/></g></svg>