<svg xmlns="http://www.w3.org/2000/svg" xmlns:xlink="http://www.w3.org/1999/xlink" width="500" zoomAndPan="magnify" viewBox="0 0 375 374.999991" height="500" preserveAspectRatio="xMidYMid meet" version="1.0"><defs><clipPath id="01d07d5b82"><path d="M 119 56.308594 L 155 56.308594 L 155 67 L 119 67 Z M 119 56.308594 " clip-rule="nonzero"/></clipPath></defs><path fill="#f3df42" d="M 120.269531 146.796875 C 120.269531 146.796875 118.550781 150.164062 118.550781 150.164062 C 118.550781 150.164062 121.46875 154.875 121.46875 154.875 C 121.46875 154.875 126.476562 154.875 126.476562 154.875 C 126.476562 154.875 130.144531 151.734375 130.144531 151.734375 C 130.144531 151.734375 132.238281 151.808594 132.238281 151.808594 C 132.238281 151.808594 135.828125 152.929688 135.828125 152.929688 C 135.828125 152.929688 131.863281 147.695312 131.863281 147.695312 C 131.863281 147.695312 126.03125 146.257812 126.03125 146.257812 C 126.03125 146.257812 120.269531 146.796875 120.269531 146.796875 Z M 120.269531 146.796875 " fill-opacity="1" fill-rule="nonzero"/><path fill="#f3df42" d="M 225.445312 231.527344 C 225.445312 231.527344 232.625 226.796875 232.625 226.796875 C 232.625 226.796875 238.980469 226.199219 238.980469 226.199219 C 238.980469 226.199219 243.394531 228.863281 243.394531 228.863281 C 243.394531 228.863281 245.5625 234.800781 245.5625 234.800781 C 245.5625 234.800781 240.476562 233.605469 240.476562 233.605469 C 240.476562 233.605469 232.101562 235.921875 232.101562 235.921875 C 232.101562 235.921875 225.445312 231.527344 225.445312 231.527344 Z M 225.445312 231.527344 " fill-opacity="1" fill-rule="nonzero"/><path fill="#f3df42" d="M 262.917969 166.125 C 262.917969 166.125 264.039062 157.765625 264.039062 157.765625 C 264.039062 157.765625 266.996094 151.878906 266.996094 151.878906 C 266.996094 151.878906 273.632812 148.175781 273.632812 148.175781 C 273.632812 148.175781 277.167969 145.484375 277.167969 145.484375 C 277.167969 145.484375 276.605469 153.558594 276.605469 153.558594 C 276.605469 153.558594 273.6875 161.75 273.6875 161.75 C 273.6875 161.75 270.605469 164.59375 270.605469 164.59375 C 270.605469 164.59375 262.917969 166.125 262.917969 166.125 Z M 262.917969 166.125 " fill-opacity="1" fill-rule="nonzero"/><path fill="#ffb630" d="M 168.660156 233.183594 C 168.660156 233.183594 173.875 231.5 173.875 231.5 C 173.875 231.5 179.429688 233.882812 179.429688 233.882812 C 179.429688 233.882812 184.289062 240.121094 184.289062 240.121094 C 184.289062 240.121094 190.367188 243.28125 190.367188 243.28125 C 190.367188 243.28125 196.085938 250.347656 196.085938 250.347656 C 196.085938 250.347656 185.652344 249.675781 185.652344 249.675781 C 185.652344 249.675781 176.867188 247.839844 174.996094 245.597656 C 173.128906 243.355469 170.136719 236.921875 170.136719 236.921875 C 170.136719 236.921875 168.660156 233.183594 168.660156 233.183594 Z M 168.660156 233.183594 " fill-opacity="1" fill-rule="nonzero"/><path fill="#865100" d="M 287.515625 228.523438 C 287.515625 228.523438 280.703125 221.167969 280.703125 221.167969 C 280.703125 221.167969 283.890625 221.167969 283.890625 221.167969 C 283.890625 221.167969 283.890625 215.304688 283.890625 215.304688 C 283.890625 215.304688 287.078125 218.234375 287.078125 218.234375 C 287.078125 218.234375 288.691406 216.664062 288.691406 216.664062 C 288.691406 216.664062 290.308594 220.148438 290.308594 220.148438 C 290.308594 220.148438 290.648438 217.511719 291.753906 215.304688 C 292.855469 213.09375 296.679688 210.96875 296.679688 210.96875 C 296.679688 210.96875 296.679688 215.132812 296.679688 215.132812 C 296.679688 215.132812 303.566406 212.667969 303.566406 212.667969 C 303.566406 212.667969 299.65625 218.703125 299.65625 218.703125 C 299.65625 218.703125 301.183594 219.511719 301.183594 219.511719 C 301.183594 219.511719 295.660156 222.613281 295.660156 222.613281 C 295.660156 222.613281 297.53125 222.960938 297.53125 222.960938 C 297.53125 222.960938 296.765625 224.480469 296.765625 224.480469 C 296.765625 224.480469 304.414062 225.714844 304.414062 225.714844 C 304.414062 225.714844 300.589844 228.050781 300.589844 228.050781 C 300.589844 228.050781 302.136719 229.664062 302.136719 229.664062 C 302.136719 229.664062 288.777344 228.902344 288.777344 228.902344 C 288.777344 228.902344 288.269531 232.414062 288.269531 232.414062 C 288.269531 232.414062 286.992188 231.28125 286.992188 231.28125 C 286.992188 231.28125 287.515625 228.523438 287.515625 228.523438 Z M 287.515625 228.523438 " fill-opacity="1" fill-rule="nonzero"/><g clip-path="url(#01d07d5b82)"><path fill="#865100" d="M 124.867188 51.597656 C 124.867188 51.597656 123.96875 48.230469 124.867188 44.863281 C 125.765625 41.5 131.710938 38.582031 131.710938 38.582031 C 131.710938 38.582031 132.382812 44.304688 132.382812 44.304688 C 132.382812 44.304688 135.414062 42.84375 135.414062 42.84375 C 135.414062 42.84375 137.65625 43.183594 137.65625 43.183594 C 137.65625 43.183594 142.480469 39.144531 142.480469 39.144531 C 142.480469 39.144531 150.136719 37.871094 150.136719 37.871094 C 150.136719 37.871094 147.492188 43.257812 147.492188 43.257812 C 147.492188 43.257812 143.75 47.921875 143.75 47.921875 C 143.75 47.921875 147.492188 49.089844 147.492188 49.089844 C 147.492188 49.089844 147.265625 50.363281 147.265625 50.363281 C 147.265625 50.363281 154.746094 56.945312 154.746094 56.945312 C 154.746094 56.945312 147.566406 58.738281 147.566406 58.738281 C 147.566406 58.738281 139.605469 57.617188 139.605469 57.617188 C 139.605469 57.617188 138.441406 60.023438 138.441406 60.023438 C 138.441406 60.023438 140.160156 66.589844 140.160156 66.589844 C 140.160156 66.589844 135.824219 64.945312 135.824219 64.945312 C 135.824219 64.945312 132.160156 62.777344 132.007812 60.757812 C 131.859375 58.738281 131.859375 56.867188 131.859375 56.867188 C 131.859375 56.867188 128.269531 60.023438 128.269531 60.023438 C 128.269531 60.023438 127.222656 63.226562 127.222656 63.226562 C 127.222656 63.226562 124.46875 59.039062 124.46875 59.039062 C 124.46875 59.039062 123.933594 55.746094 123.933594 55.746094 C 123.933594 55.746094 124.304688 52.828125 124.304688 52.828125 C 124.304688 52.828125 119.296875 51.484375 119.296875 51.484375 C 119.296875 51.484375 119.59375 50.925781 119.59375 50.925781 C 119.59375 50.925781 124.867188 51.597656 124.867188 51.597656 Z M 124.867188 51.597656 " fill-opacity="1" fill-rule="nonzero"/></g><path fill="#865100" d="M 193.742188 141.488281 C 193.742188 141.488281 187.414062 142.421875 187.414062 142.421875 C 187.414062 142.421875 183.003906 147.1875 183.003906 147.1875 C 183.003906 147.1875 189.210938 147.1875 189.210938 147.1875 C 189.210938 147.1875 188.910156 149.878906 188.910156 149.878906 C 188.910156 149.878906 193.359375 148.648438 193.359375 148.648438 C 193.359375 148.648438 192.328125 155.828125 192.328125 155.828125 C 192.328125 155.828125 198.296875 149.125 198.296875 149.125 C 198.296875 149.125 201.101562 151.265625 201.101562 151.265625 C 201.101562 151.265625 202.257812 150.464844 202.257812 150.464844 C 202.257812 150.464844 208.394531 155.042969 208.394531 155.042969 C 208.394531 155.042969 206.148438 145.027344 206.148438 145.027344 C 206.148438 145.027344 211.535156 145.027344 211.535156 145.027344 C 211.535156 145.027344 208.429688 141.914062 208.429688 141.914062 C 208.429688 141.914062 203.234375 140.457031 203.234375 140.457031 C 203.234375 140.457031 204.019531 138.785156 204.019531 138.785156 C 204.019531 138.785156 199.082031 138.785156 199.082031 138.785156 C 199.082031 138.785156 201.660156 136.417969 201.660156 136.417969 C 201.660156 136.417969 196.667969 136.417969 196.667969 136.417969 C 196.667969 136.417969 194.707031 139.785156 194.707031 139.785156 C 194.707031 139.785156 190.707031 137.539062 190.707031 137.539062 C 190.707031 137.539062 188.257812 138.785156 188.257812 138.785156 C 188.257812 138.785156 188.609375 139.597656 188.609375 139.597656 C 188.609375 139.597656 190.707031 138.847656 190.707031 138.847656 C 190.707031 138.847656 193.742188 141.488281 193.742188 141.488281 Z M 193.742188 141.488281 " fill-opacity="1" fill-rule="nonzero"/><path fill="#ee444e" d="M 104.492188 164.398438 C 104.492188 164.398438 108.101562 162.410156 108.101562 162.410156 C 108.101562 162.410156 112.09375 160.769531 112.09375 160.769531 C 112.09375 160.769531 115.316406 162.296875 115.316406 162.296875 C 115.316406 162.296875 115.953125 159.976562 115.953125 159.976562 C 115.953125 159.976562 114.945312 155.609375 114.945312 155.609375 C 114.945312 155.609375 116.625 155.445312 116.625 155.445312 C 116.625 155.445312 117.414062 159.386719 117.414062 159.386719 C 117.414062 159.386719 116.253906 162.410156 116.253906 162.410156 C 116.253906 162.410156 120.160156 160.5625 120.160156 160.5625 C 120.160156 160.5625 124.199219 160.144531 124.199219 160.144531 C 124.199219 160.144531 128.648438 161.191406 128.648438 161.191406 C 128.648438 161.191406 123.695312 163.332031 123.695312 163.332031 C 123.695312 163.332031 123.695312 164.84375 123.695312 164.84375 C 123.695312 164.84375 122.011719 164.84375 122.011719 164.84375 C 122.011719 164.84375 123.75 166.230469 123.75 166.230469 C 123.75 166.230469 127.339844 169.167969 127.339844 169.167969 C 127.339844 169.167969 127.507812 172.648438 127.507812 172.648438 C 127.507812 172.648438 121.453125 170.636719 121.453125 170.636719 C 121.453125 170.636719 119.769531 176.34375 119.769531 176.34375 C 119.769531 176.34375 112.195312 173.027344 112.195312 173.027344 C 112.195312 173.027344 112.699219 166.859375 112.699219 166.859375 C 112.699219 166.859375 109.335938 169.167969 109.335938 169.167969 C 109.335938 169.167969 109.839844 166.3125 109.839844 166.3125 C 109.839844 166.3125 107.820312 166.269531 107.820312 166.269531 C 107.820312 166.269531 107.429688 165.097656 107.429688 165.097656 C 107.429688 165.097656 104.492188 164.398438 104.492188 164.398438 Z M 104.492188 164.398438 " fill-opacity="1" fill-rule="nonzero"/><path fill="#ee444e" d="M 331.25 203.734375 C 331.25 203.734375 326.835938 198.96875 326.835938 198.96875 C 326.835938 198.96875 324.367188 200.59375 324.367188 200.59375 C 324.367188 200.59375 320.890625 199.371094 320.890625 199.371094 C 320.890625 199.371094 321.675781 197.714844 321.675781 197.714844 C 321.675781 197.714844 324.445312 199.371094 324.445312 199.371094 C 324.445312 199.371094 326.070312 197.789062 326.070312 197.789062 C 326.070312 197.789062 323.394531 188.648438 323.394531 188.648438 C 323.394531 188.648438 326.070312 190.238281 326.070312 190.238281 C 326.070312 190.238281 327.246094 187.46875 327.246094 187.46875 C 327.246094 187.46875 329.230469 190.238281 329.230469 190.238281 C 329.230469 190.238281 331.25 189.5625 331.25 189.5625 C 331.25 189.5625 331.25 192.238281 331.25 192.238281 C 331.25 192.238281 337.679688 190.085938 337.679688 190.085938 C 337.679688 190.085938 334.765625 194.71875 334.765625 194.71875 C 334.765625 194.71875 337.25 196.371094 337.25 196.371094 C 337.25 196.371094 331.773438 197.339844 331.773438 197.339844 C 331.773438 197.339844 335.4375 201.082031 335.4375 201.082031 C 335.4375 201.082031 330.183594 200.035156 330.183594 200.035156 C 330.183594 200.035156 331.25 203.734375 331.25 203.734375 Z M 331.25 203.734375 " fill-opacity="1" fill-rule="nonzero"/><path fill="#ee444e" d="M 143.015625 122.609375 C 143.015625 122.609375 141.332031 122.609375 141.332031 122.609375 C 141.332031 122.609375 141.332031 119.46875 141.332031 119.46875 C 141.332031 119.46875 132.765625 114.308594 132.765625 114.308594 C 132.765625 114.308594 136.992188 114.308594 136.992188 114.308594 C 136.992188 114.308594 135.273438 108.625 135.273438 108.625 C 135.273438 108.625 139.085938 112.289062 139.085938 112.289062 C 139.085938 112.289062 139.890625 110.71875 139.890625 110.71875 C 139.890625 110.71875 141.554688 111.589844 141.554688 111.589844 C 141.554688 111.589844 144.171875 106.15625 144.171875 106.15625 C 144.171875 106.15625 145.144531 108.175781 145.144531 108.175781 C 145.144531 108.175781 150.457031 105.257812 150.457031 105.257812 C 150.457031 105.257812 148.511719 110.71875 148.511719 110.71875 C 148.511719 110.71875 151.054688 110.792969 151.054688 110.792969 C 151.054688 110.792969 146.417969 115.128906 146.417969 115.128906 C 146.417969 115.128906 149.558594 115.503906 149.558594 115.503906 C 149.558594 115.503906 148.285156 117.226562 148.285156 117.226562 C 148.285156 117.226562 154.941406 117.148438 154.941406 117.148438 C 154.941406 117.148438 148.4375 120.515625 148.4375 120.515625 C 148.4375 120.515625 148.960938 121.863281 148.960938 121.863281 C 148.960938 121.863281 142.675781 119.542969 142.675781 119.542969 C 142.675781 119.542969 142.078125 120.925781 142.078125 120.925781 C 142.078125 120.925781 143.015625 122.609375 143.015625 122.609375 Z M 143.015625 122.609375 " fill-opacity="1" fill-rule="nonzero"/></svg>