<svg xmlns="http://www.w3.org/2000/svg" xmlns:xlink="http://www.w3.org/1999/xlink" width="500" zoomAndPan="magnify" viewBox="0 0 375 374.999991" height="500" preserveAspectRatio="xMidYMid meet" version="1.0"><defs><clipPath id="1d25d5e5ea"><path d="M 127 18.75 L 230 18.75 L 230 121 L 127 121 Z M 127 18.75 " clip-rule="nonzero"/></clipPath><clipPath id="f29ff35449"><path d="M 82 70 L 283.535156 70 L 283.535156 342 L 82 342 Z M 82 70 " clip-rule="nonzero"/></clipPath></defs><path fill="#ea8e4b" d="M 104.773438 73.898438 C 143.734375 77.753906 181.054688 93.863281 217.859375 107.464844 C 222.324219 109.113281 245.773438 117.144531 247.367188 120.609375 C 248.875 123.882812 239.914062 139.914062 238.457031 142.726562 C 219.5625 179.207031 186.8125 182.679688 150.269531 169.179688 C 144.953125 167.214844 137.34375 165.730469 132.523438 162.621094 C 107.917969 146.753906 96.65625 119.765625 97.5625 91.410156 C 97.730469 86.152344 98.328125 74.609375 104.773438 73.898438 Z M 104.773438 73.898438 " fill-opacity="1" fill-rule="nonzero"/><path fill="#fad9a9" d="M 69.800781 251.617188 C 122.753906 237.792969 179.484375 240.839844 234.332031 240.839844 C 240.980469 240.839844 275.613281 240.007812 279.378906 243.777344 C 282.941406 247.339844 278.949219 272.699219 278.402344 277.09375 C 271.28125 334.082031 230.023438 354.507812 175.570312 354.507812 C 167.648438 354.507812 156.953125 356.25 149.128906 354.507812 C 109.183594 345.625 81.355469 315.695312 68.820312 278.074219 C 66.496094 271.101562 61.695312 255.671875 69.800781 251.617188 Z M 69.800781 251.617188 " fill-opacity="1" fill-rule="nonzero"/><path fill="#ffaa3a" d="M 79 196.394531 C 118.625 173.851562 164.925781 164.0625 209.050781 152.230469 C 214.402344 150.796875 242.085938 142.660156 245.929688 144.878906 C 249.5625 146.976562 251.816406 168.242188 252.320312 171.894531 C 258.871094 219.28125 230.074219 244.613281 186.265625 256.359375 C 179.890625 258.070312 171.664062 261.777344 164.992188 262.0625 C 130.941406 263.535156 102.101562 245.457031 83.914062 217.890625 C 80.539062 212.78125 73.351562 201.40625 79 196.394531 Z M 79 196.394531 " fill-opacity="1" fill-rule="nonzero"/><g clip-path="url(#1d25d5e5ea)"><path fill="#f46322" d="M 229.015625 69.71875 C 229.015625 71.390625 228.933594 73.054688 228.769531 74.714844 C 228.605469 76.378906 228.359375 78.027344 228.035156 79.664062 C 227.710938 81.300781 227.304688 82.917969 226.820312 84.515625 C 226.335938 86.113281 225.773438 87.683594 225.136719 89.226562 C 224.496094 90.769531 223.785156 92.273438 223 93.746094 C 222.210938 95.21875 221.355469 96.648438 220.429688 98.039062 C 219.503906 99.425781 218.507812 100.765625 217.449219 102.054688 C 216.390625 103.34375 215.273438 104.582031 214.09375 105.761719 C 212.914062 106.941406 211.679688 108.0625 210.390625 109.121094 C 209.101562 110.179688 207.761719 111.171875 206.375 112.101562 C 204.988281 113.027344 203.558594 113.886719 202.085938 114.671875 C 200.613281 115.457031 199.109375 116.171875 197.566406 116.808594 C 196.027344 117.449219 194.457031 118.011719 192.859375 118.496094 C 191.265625 118.980469 189.648438 119.386719 188.011719 119.710938 C 186.375 120.035156 184.726562 120.28125 183.066406 120.445312 C 181.40625 120.609375 179.742188 120.691406 178.074219 120.691406 C 176.40625 120.691406 174.742188 120.609375 173.082031 120.445312 C 171.421875 120.28125 169.773438 120.035156 168.136719 119.710938 C 166.5 119.386719 164.882812 118.980469 163.285156 118.496094 C 161.691406 118.011719 160.121094 117.449219 158.578125 116.808594 C 157.039062 116.171875 155.53125 115.457031 154.058594 114.671875 C 152.589844 113.886719 151.160156 113.027344 149.773438 112.101562 C 148.386719 111.171875 147.046875 110.179688 145.757812 109.121094 C 144.46875 108.0625 143.234375 106.941406 142.054688 105.761719 C 140.875 104.582031 139.753906 103.34375 138.695312 102.054688 C 137.636719 100.765625 136.644531 99.425781 135.71875 98.039062 C 134.789062 96.648438 133.933594 95.21875 133.148438 93.746094 C 132.363281 92.273438 131.648438 90.769531 131.011719 89.226562 C 130.371094 87.683594 129.8125 86.113281 129.328125 84.515625 C 128.84375 82.917969 128.4375 81.300781 128.113281 79.664062 C 127.785156 78.027344 127.542969 76.378906 127.378906 74.714844 C 127.214844 73.054688 127.132812 71.390625 127.132812 69.71875 C 127.132812 68.050781 127.214844 66.386719 127.378906 64.722656 C 127.542969 63.0625 127.785156 61.414062 128.113281 59.777344 C 128.4375 58.140625 128.84375 56.523438 129.328125 54.925781 C 129.8125 53.328125 130.371094 51.757812 131.011719 50.214844 C 131.648438 48.671875 132.363281 47.164062 133.148438 45.691406 C 133.933594 44.222656 134.789062 42.789062 135.71875 41.402344 C 136.644531 40.015625 137.636719 38.675781 138.695312 37.386719 C 139.753906 36.09375 140.875 34.859375 142.054688 33.679688 C 143.234375 32.5 144.46875 31.378906 145.757812 30.320312 C 147.046875 29.261719 148.386719 28.265625 149.773438 27.339844 C 151.160156 26.414062 152.589844 25.554688 154.058594 24.769531 C 155.53125 23.980469 157.039062 23.269531 158.578125 22.628906 C 160.121094 21.992188 161.691406 21.429688 163.285156 20.945312 C 164.882812 20.460938 166.5 20.054688 168.136719 19.730469 C 169.773438 19.402344 171.421875 19.160156 173.082031 18.996094 C 174.742188 18.832031 176.40625 18.75 178.074219 18.75 C 179.742188 18.75 181.40625 18.832031 183.066406 18.996094 C 184.726562 19.160156 186.375 19.402344 188.011719 19.730469 C 189.648438 20.054688 191.265625 20.460938 192.859375 20.945312 C 194.457031 21.429688 196.027344 21.992188 197.566406 22.628906 C 199.109375 23.269531 200.613281 23.980469 202.085938 24.769531 C 203.558594 25.554688 204.988281 26.414062 206.375 27.339844 C 207.761719 28.265625 209.101562 29.261719 210.390625 30.320312 C 211.679688 31.378906 212.914062 32.5 214.09375 33.679688 C 215.273438 34.859375 216.390625 36.09375 217.449219 37.386719 C 218.507812 38.675781 219.503906 40.015625 220.429688 41.402344 C 221.355469 42.789062 222.210938 44.222656 223 45.691406 C 223.785156 47.164062 224.496094 48.671875 225.136719 50.214844 C 225.773438 51.757812 226.335938 53.328125 226.820312 54.925781 C 227.304688 56.523438 227.710938 58.140625 228.035156 59.777344 C 228.359375 61.414062 228.605469 63.0625 228.769531 64.722656 C 228.933594 66.386719 229.015625 68.050781 229.015625 69.71875 Z M 229.015625 69.71875 " fill-opacity="1" fill-rule="nonzero"/></g><g clip-path="url(#f29ff35449)"><path fill="#800000" d="M 264.4375 70.101562 C 258.738281 70.222656 250.089844 75.40625 237.457031 87.832031 C 231.078125 94.203125 223.046875 105.445312 216.734375 117.304688 C 210.488281 129.03125 205.925781 141.296875 206.484375 150.195312 C 202.226562 154.917969 198.101562 159.738281 194.042969 164.597656 C 196.167969 152.359375 198.898438 137.734375 198.273438 124.003906 C 197.609375 109.40625 193.074219 95.828125 179.855469 87.769531 C 178.3125 86.824219 175.75 85.300781 173.078125 84.050781 C 170.40625 82.796875 167.664062 81.773438 165.496094 81.976562 C 164.574219 82.0625 163.769531 82.519531 163.199219 83.222656 C 162.632812 83.929688 162.269531 84.859375 162.042969 85.964844 C 161.589844 88.175781 161.667969 91.144531 162.125 94.707031 C 163.039062 101.824219 165.511719 111.285156 168.71875 121.167969 C 171.925781 131.050781 175.871094 141.351562 179.742188 150.113281 C 183.488281 158.589844 187.121094 165.539062 190.042969 169.414062 C 183.484375 177.484375 177.238281 185.742188 171.289062 194.144531 C 173.402344 182.011719 175.992188 167.691406 175.324219 154.246094 C 174.605469 139.773438 170.042969 126.339844 156.925781 118.34375 C 155.378906 117.398438 152.816406 115.875 150.144531 114.625 C 147.472656 113.371094 144.730469 112.347656 142.5625 112.550781 C 141.640625 112.636719 140.835938 113.09375 140.265625 113.796875 C 139.699219 114.503906 139.335938 115.433594 139.109375 116.539062 C 138.652344 118.753906 138.734375 121.726562 139.191406 125.289062 C 140.109375 132.414062 142.585938 141.878906 145.796875 151.769531 C 149.007812 161.65625 152.957031 171.960938 156.828125 180.722656 C 160.582031 189.222656 164.226562 196.183594 167.148438 200.042969 C 159.269531 211.558594 152.007812 223.359375 145.402344 235.386719 C 148.1875 216.964844 149.605469 201.847656 143.964844 179.601562 C 143.929688 179.460938 143.863281 179.253906 143.738281 178.863281 C 143.613281 178.476562 143.433594 177.941406 143.210938 177.285156 C 142.765625 175.96875 142.136719 174.167969 141.363281 172.0625 C 139.820312 167.851562 137.707031 162.433594 135.347656 157.300781 C 132.988281 152.171875 130.398438 147.335938 127.820312 144.242188 C 126.53125 142.695312 125.246094 141.558594 123.882812 141.085938 C 122.519531 140.605469 121.042969 140.9375 119.910156 142.140625 C 108.851562 154.0625 108.816406 173.628906 114.320312 192.828125 C 119.769531 211.828125 130.664062 230.53125 142.125 241.441406 C 137.039062 251.097656 132.4375 260.910156 128.257812 270.832031 C 128.089844 251.710938 127.191406 236.410156 117.898438 214.960938 C 117.839844 214.828125 117.742188 214.636719 117.554688 214.273438 C 117.367188 213.910156 117.109375 213.410156 116.785156 212.796875 C 116.132812 211.570312 115.222656 209.890625 114.125 207.9375 C 111.929688 204.027344 108.976562 199.015625 105.824219 194.332031 C 102.675781 189.644531 99.34375 185.289062 96.304688 182.648438 C 94.785156 181.328125 93.335938 180.414062 91.914062 180.160156 C 90.492188 179.90625 89.085938 180.46875 88.160156 181.839844 C 79.152344 195.382812 82.25 214.703125 90.757812 232.773438 C 99.171875 250.648438 112.90625 267.355469 125.960938 276.289062 C 117.652344 296.96875 111.398438 318.144531 107.546875 339.605469 C 107.382812 340.542969 108.019531 341.449219 108.953125 341.613281 C 109.882812 341.78125 110.792969 341.152344 110.960938 340.21875 C 114.757812 319.0625 120.925781 298.164062 129.121094 277.734375 C 141.910156 281.144531 158.15625 286.34375 173.8125 287.515625 C 189.6875 288.699219 205.011719 285.671875 215.105469 272.261719 C 216.238281 270.757812 218.078125 268.261719 219.644531 265.621094 C 221.214844 262.980469 222.550781 260.242188 222.5625 257.988281 C 222.5625 257.023438 222.179688 256.152344 221.507812 255.496094 C 220.839844 254.835938 219.914062 254.367188 218.789062 254.019531 C 216.539062 253.324219 213.441406 253.105469 209.691406 253.222656 C 202.195312 253.453125 192.105469 255.0625 181.511719 257.394531 C 170.914062 259.722656 159.820312 262.773438 150.355469 265.902344 C 142.011719 268.65625 135.117188 271.429688 130.726562 273.894531 C 135.039062 263.5 139.84375 253.230469 145.167969 243.117188 C 159.644531 249.539062 180.789062 252.625 200.175781 250.636719 C 219.816406 248.621094 237.710938 241.398438 244.664062 226.863281 C 245.367188 225.367188 245.132812 223.871094 244.1875 222.777344 C 243.242188 221.683594 241.71875 220.910156 239.804688 220.277344 C 235.980469 219.015625 230.535156 218.378906 224.902344 218.070312 C 219.265625 217.757812 213.453125 217.78125 208.96875 217.894531 C 206.730469 217.949219 204.824219 218.027344 203.4375 218.097656 C 202.746094 218.128906 202.183594 218.160156 201.773438 218.1875 C 201.367188 218.210938 201.152344 218.226562 201.007812 218.246094 C 177.988281 221.207031 164.441406 228.171875 148.085938 237.707031 C 154.652344 225.695312 161.886719 213.910156 169.742188 202.40625 C 182.558594 205.859375 198.695312 210.945312 214.179688 212 C 229.839844 213.066406 244.90625 209.945312 254.875 196.707031 C 256.007812 195.203125 257.847656 192.703125 259.414062 190.0625 C 260.984375 187.421875 262.320312 184.6875 262.332031 182.429688 C 262.332031 181.511719 261.984375 180.675781 261.371094 180.03125 C 260.753906 179.386719 259.902344 178.917969 258.863281 178.566406 C 256.792969 177.855469 253.945312 177.59375 250.484375 177.640625 C 243.558594 177.738281 234.195312 179.121094 224.191406 181.210938 C 205.542969 185.109375 184.867188 191.4375 173.757812 196.664062 C 179.730469 188.203125 186.003906 179.890625 192.605469 171.761719 C 205.730469 173.679688 222.554688 176.988281 238.273438 176.324219 C 254.140625 175.65625 268.964844 170.871094 277.433594 156.421875 C 278.382812 154.796875 279.921875 152.101562 281.175781 149.300781 C 282.429688 146.5 283.441406 143.625 283.195312 141.382812 C 283.09375 140.472656 282.648438 139.683594 281.96875 139.117188 C 281.285156 138.546875 280.390625 138.179688 279.328125 137.945312 C 277.199219 137.480469 274.355469 137.542969 270.941406 137.984375 C 264.113281 138.863281 255.019531 141.292969 245.363281 144.5 C 228.21875 150.195312 209.402344 158.3125 198.550781 164.671875 C 202.085938 160.484375 205.636719 156.304688 209.324219 152.21875 C 232.570312 148.28125 251.570312 127.890625 262.277344 108.523438 C 267.648438 98.804688 270.941406 89.339844 271.59375 82.222656 C 271.921875 78.664062 271.609375 75.671875 270.449219 73.5 C 269.296875 71.324219 267.214844 70.046875 264.449219 70.101562 Z M 264.46875 71.445312 C 266.832031 71.398438 268.300781 72.324219 269.257812 74.128906 C 270.214844 75.933594 270.5625 78.691406 270.246094 82.097656 C 269.621094 88.914062 266.398438 98.273438 261.089844 107.871094 C 250.480469 127.070312 231.566406 147.21875 208.84375 150.949219 C 208.695312 150.972656 208.558594 151.046875 208.457031 151.160156 C 203.722656 156.398438 199.121094 161.726562 194.644531 167.128906 C 194.152344 167.726562 194.890625 168.542969 195.53125 168.113281 C 205.035156 161.707031 226.558594 152.160156 245.777344 145.777344 C 255.386719 142.582031 264.433594 140.175781 271.101562 139.316406 C 274.433594 138.886719 277.175781 138.851562 279.027344 139.257812 C 279.953125 139.460938 280.648438 139.769531 281.101562 140.148438 C 281.550781 140.523438 281.785156 140.941406 281.847656 141.53125 C 282.035156 143.207031 281.160156 146.03125 279.941406 148.753906 C 278.722656 151.472656 277.207031 154.132812 276.261719 155.742188 C 268.074219 169.71875 253.839844 174.324219 238.207031 174.984375 C 222.574219 175.644531 205.640625 172.292969 192.402344 170.375 C 192.171875 170.339844 191.9375 170.433594 191.789062 170.613281 C 184.527344 179.542969 177.613281 188.683594 171.109375 198.011719 C 170.707031 198.589844 171.347656 199.316406 171.96875 198.992188 C 182.011719 193.730469 204.546875 186.6875 224.457031 182.527344 C 234.410156 180.445312 243.730469 179.078125 250.488281 178.984375 C 253.871094 178.9375 256.613281 179.21875 258.417969 179.835938 C 259.320312 180.144531 259.980469 180.53125 260.386719 180.960938 C 260.796875 181.386719 260.980469 181.828125 260.980469 182.425781 C 260.964844 184.109375 259.773438 186.816406 258.25 189.378906 C 256.726562 191.941406 254.914062 194.40625 253.789062 195.898438 C 244.152344 208.703125 229.683594 211.710938 214.257812 210.660156 C 198.832031 209.609375 182.546875 204.449219 169.613281 200.980469 C 169.339844 200.90625 169.046875 201.015625 168.886719 201.25 C 160.449219 213.585938 152.695312 226.230469 145.738281 239.148438 C 145.414062 239.746094 146.082031 240.386719 146.667969 240.042969 C 163.996094 229.871094 177.351562 222.640625 201.164062 219.578125 C 201.164062 219.578125 201.449219 219.550781 201.847656 219.527344 C 202.25 219.503906 202.804688 219.46875 203.496094 219.4375 C 204.867188 219.367188 206.765625 219.292969 208.992188 219.238281 C 213.453125 219.125 219.234375 219.101562 224.816406 219.410156 C 230.398438 219.714844 235.789062 220.367188 239.375 221.550781 C 241.167969 222.144531 242.496094 222.882812 243.164062 223.65625 C 243.832031 224.429688 243.972656 225.15625 243.441406 226.292969 C 236.800781 240.164062 219.425781 247.3125 200.027344 249.300781 C 180.628906 251.292969 159.289062 248.109375 145.113281 241.652344 C 144.789062 241.507812 144.40625 241.636719 144.242188 241.949219 C 138.476562 252.863281 133.269531 263.957031 128.679688 275.195312 C 128.433594 275.804688 129.113281 276.367188 129.664062 276.011719 C 133.5625 273.488281 141.355469 270.289062 150.769531 267.179688 C 160.179688 264.070312 171.242188 261.027344 181.789062 258.707031 C 192.335938 256.386719 202.382812 254.789062 209.722656 254.566406 C 213.394531 254.453125 216.394531 254.691406 218.382812 255.304688 C 219.378906 255.613281 220.109375 256.011719 220.558594 256.457031 C 221.011719 256.898438 221.214844 257.359375 221.210938 257.980469 C 221.199219 259.667969 220.007812 262.371094 218.484375 264.9375 C 216.960938 267.5 215.148438 269.96875 214.023438 271.457031 C 204.261719 284.421875 189.546875 287.34375 173.902344 286.175781 C 158.257812 285.011719 141.792969 279.703125 128.867188 276.28125 C 128.542969 276.191406 128.199219 276.363281 128.074219 276.679688 C 119.734375 297.363281 113.476562 318.539062 109.628906 339.984375 C 109.589844 340.203125 109.398438 340.335938 109.175781 340.296875 C 108.957031 340.257812 108.820312 340.066406 108.859375 339.84375 C 112.722656 318.316406 119.007812 297.0625 127.378906 276.304688 C 127.496094 276.011719 127.394531 275.675781 127.132812 275.496094 C 114.246094 266.835938 100.363281 250.054688 91.960938 232.207031 C 83.558594 214.355469 80.667969 195.519531 89.265625 182.589844 C 89.96875 181.550781 90.664062 181.300781 91.671875 181.480469 C 92.679688 181.660156 93.988281 182.421875 95.417969 183.660156 C 98.269531 186.136719 101.585938 190.4375 104.703125 195.082031 C 107.824219 199.71875 110.761719 204.707031 112.949219 208.597656 C 114.039062 210.539062 114.945312 212.210938 115.589844 213.425781 C 115.914062 214.035156 116.171875 214.53125 116.355469 214.886719 C 116.535156 215.242188 116.660156 215.496094 116.660156 215.5 C 126.378906 237.921875 126.855469 253.257812 126.972656 273.882812 C 126.972656 274.617188 127.984375 274.816406 128.265625 274.136719 C 132.78125 263.148438 137.886719 252.300781 143.523438 241.628906 C 143.664062 241.363281 143.609375 241.03125 143.390625 240.824219 C 132.054688 230.210938 121.039062 211.425781 115.601562 192.460938 C 110.167969 173.496094 110.328125 154.445312 120.882812 143.058594 C 121.742188 142.144531 122.46875 142.011719 123.433594 142.351562 C 124.398438 142.691406 125.574219 143.652344 126.78125 145.101562 C 129.203125 148.003906 131.789062 152.78125 134.125 157.863281 C 136.460938 162.945312 138.5625 168.335938 140.097656 172.523438 C 140.867188 174.617188 141.492188 176.414062 141.933594 177.714844 C 142.15625 178.367188 142.332031 178.898438 142.453125 179.28125 C 142.578125 179.664062 142.660156 179.9375 142.660156 179.9375 C 148.621094 203.453125 146.714844 218.613281 143.570312 238.765625 C 143.457031 239.511719 144.46875 239.851562 144.824219 239.1875 C 151.925781 225.96875 159.859375 213.03125 168.507812 200.421875 C 168.671875 200.179688 168.664062 199.859375 168.484375 199.628906 C 165.691406 196.078125 161.898438 188.902344 158.050781 180.1875 C 154.199219 171.472656 150.265625 161.203125 147.066406 151.359375 C 143.871094 141.515625 141.417969 132.09375 140.519531 125.125 C 140.070312 121.636719 140.019531 118.761719 140.417969 116.816406 C 140.617188 115.84375 140.929688 115.113281 141.304688 114.648438 C 141.679688 114.179688 142.09375 113.949219 142.683594 113.894531 C 144.285156 113.742188 146.980469 114.632812 149.570312 115.847656 C 152.164062 117.058594 154.691406 118.5625 156.222656 119.496094 C 168.886719 127.21875 173.273438 140.085938 173.980469 154.320312 C 174.683594 168.554688 171.648438 184.070312 169.472656 196.757812 C 169.347656 197.464844 170.273438 197.84375 170.683594 197.257812 C 177.199219 187.929688 184.121094 178.796875 191.390625 169.871094 C 191.589844 169.628906 191.59375 169.28125 191.402344 169.03125 C 188.609375 165.472656 184.816406 158.289062 180.96875 149.574219 C 177.121094 140.863281 173.1875 130.59375 169.996094 120.757812 C 166.804688 110.921875 164.351562 101.503906 163.457031 94.539062 C 163.007812 91.058594 162.957031 88.183594 163.359375 86.242188 C 163.558594 85.269531 163.871094 84.539062 164.246094 84.074219 C 164.621094 83.609375 165.035156 83.375 165.621094 83.320312 C 167.222656 83.171875 169.917969 84.058594 172.511719 85.273438 C 175.101562 86.484375 177.628906 87.988281 179.160156 88.921875 C 191.921875 96.703125 196.28125 109.710938 196.933594 124.070312 C 197.585938 138.433594 194.476562 154.0625 192.3125 166.761719 C 192.199219 167.4375 193.050781 167.828125 193.488281 167.300781 C 198.078125 161.746094 202.800781 156.28125 207.652344 150.902344 C 207.777344 150.765625 207.839844 150.585938 207.824219 150.398438 C 207.1875 142.046875 211.664062 129.6875 217.917969 117.9375 C 224.171875 106.191406 232.183594 95.003906 238.402344 88.792969 C 250.945312 76.453125 259.589844 71.550781 264.472656 71.449219 Z M 264.46875 71.445312 " fill-opacity="1" fill-rule="nonzero"/></g></svg>