<svg xmlns="http://www.w3.org/2000/svg" xmlns:xlink="http://www.w3.org/1999/xlink" width="500" zoomAndPan="magnify" viewBox="0 0 375 374.999991" height="500" preserveAspectRatio="xMidYMid meet" version="1.0"><defs><clipPath id="24b9028388"><path d="M 61 137.726562 L 115 137.726562 L 115 211 L 61 211 Z M 61 137.726562 " clip-rule="nonzero"/></clipPath><clipPath id="b24f22852a"><path d="M 150 191 L 155 191 L 155 237.449219 L 150 237.449219 Z M 150 191 " clip-rule="nonzero"/></clipPath><clipPath id="1f2e7f8738"><path d="M 24.160156 201.035156 L 29 201.035156 L 29 237.449219 L 24.160156 237.449219 Z M 24.160156 201.035156 " clip-rule="nonzero"/></clipPath><clipPath id="325177c2be"><path d="M 85 191 L 90.398438 191 L 90.398438 237.449219 L 85 237.449219 Z M 85 191 " clip-rule="nonzero"/></clipPath><clipPath id="9b798b12d3"><path d="M 252 137.726562 L 306 137.726562 L 306 211 L 252 211 Z M 252 137.726562 " clip-rule="nonzero"/></clipPath><clipPath id="15ddcfea15"><path d="M 336 184 L 375 184 L 375 223.683594 L 336 223.683594 Z M 336 184 " clip-rule="nonzero"/></clipPath><clipPath id="4bac73f124"><path d="M 341 191 L 346 191 L 346 237.449219 L 341 237.449219 Z M 341 191 " clip-rule="nonzero"/></clipPath><clipPath id="ab6e75388a"><path d="M 215.085938 201.035156 L 220 201.035156 L 220 237.449219 L 215.085938 237.449219 Z M 215.085938 201.035156 " clip-rule="nonzero"/></clipPath><clipPath id="ce77276748"><path d="M 276.652344 191 L 281.328125 191 L 281.328125 237.449219 L 276.652344 237.449219 Z M 276.652344 191 " clip-rule="nonzero"/></clipPath></defs><path fill="#ce561e" d="M 53.3125 191.984375 C 53.3125 206.734375 41.375 210.839844 26.65625 210.839844 C 11.933594 210.839844 0 206.734375 0 191.984375 C 0 177.230469 11.933594 157.414062 26.65625 157.414062 C 41.375 157.414062 53.3125 177.230469 53.3125 191.984375 " fill-opacity="1" fill-rule="nonzero"/><g clip-path="url(#24b9028388)"><path fill="#7f9838" d="M 114.585938 191.984375 C 114.585938 206.734375 102.652344 210.839844 87.929688 210.839844 C 73.207031 210.839844 61.273438 206.734375 61.273438 191.984375 C 61.273438 177.230469 73.207031 137.773438 87.929688 137.773438 C 102.652344 137.773438 114.585938 177.230469 114.585938 191.984375 " fill-opacity="1" fill-rule="nonzero"/></g><path fill="#edb41a" d="M 171.84375 181.625 C 171.84375 192.335938 163.179688 201.019531 152.488281 201.019531 C 141.800781 201.019531 133.132812 192.335938 133.132812 181.625 C 133.132812 170.910156 141.800781 162.226562 152.488281 162.226562 C 163.179688 162.226562 171.84375 170.910156 171.84375 181.625 " fill-opacity="1" fill-rule="nonzero"/><path fill="#edb41a" d="M 159.332031 203.976562 C 159.332031 214.691406 150.667969 223.375 139.980469 223.375 C 129.289062 223.375 120.621094 214.691406 120.621094 203.976562 C 120.621094 193.265625 129.289062 184.582031 139.980469 184.582031 C 150.667969 184.582031 159.332031 193.265625 159.332031 203.976562 " fill-opacity="1" fill-rule="nonzero"/><path fill="#edb41a" d="M 183.972656 203.976562 C 183.972656 214.691406 175.308594 223.375 164.617188 223.375 C 153.929688 223.375 145.261719 214.691406 145.261719 203.976562 C 145.261719 193.265625 153.929688 184.582031 164.617188 184.582031 C 175.308594 184.582031 183.972656 193.265625 183.972656 203.976562 " fill-opacity="1" fill-rule="nonzero"/><g clip-path="url(#b24f22852a)"><path fill="#995f20" d="M 150.1875 193.851562 C 150.1875 207.640625 150.1875 221.429688 150.1875 235.21875 C 150.1875 238.195312 154.789062 238.195312 154.789062 235.21875 C 154.789062 221.429688 154.789062 207.640625 154.789062 193.851562 C 154.789062 190.875 150.1875 190.875 150.1875 193.851562 " fill-opacity="1" fill-rule="nonzero"/></g><path fill="#995f20" d="M 163.371094 199.632812 C 159.199219 203.808594 155.03125 207.988281 150.863281 212.167969 C 151.945312 212.167969 153.027344 212.167969 154.117188 212.167969 C 149.945312 207.988281 145.773438 203.808594 141.609375 199.632812 C 139.507812 197.527344 136.25 200.789062 138.351562 202.890625 C 142.519531 207.070312 146.691406 211.25 150.863281 215.425781 C 151.746094 216.316406 153.230469 216.316406 154.117188 215.425781 C 158.285156 211.25 162.457031 207.070312 166.625 202.890625 C 168.726562 200.789062 165.46875 197.527344 163.371094 199.632812 " fill-opacity="1" fill-rule="nonzero"/><g clip-path="url(#1f2e7f8738)"><path fill="#995f20" d="M 24.351562 203.671875 C 24.351562 214.1875 24.351562 224.703125 24.351562 235.21875 C 24.351562 238.195312 28.957031 238.195312 28.957031 235.21875 C 28.957031 224.703125 28.957031 214.1875 28.957031 203.671875 C 28.957031 200.695312 24.351562 200.695312 24.351562 203.671875 " fill-opacity="1" fill-rule="nonzero"/></g><path fill="#995f20" d="M 37.539062 189.8125 C 33.371094 193.992188 29.199219 198.171875 25.027344 202.347656 C 26.113281 202.347656 27.199219 202.347656 28.28125 202.347656 C 24.113281 198.171875 19.941406 193.992188 15.773438 189.8125 C 13.671875 187.707031 10.417969 190.96875 12.515625 193.074219 C 16.6875 197.25 20.859375 201.429688 25.027344 205.609375 C 25.914062 206.5 27.398438 206.5 28.28125 205.609375 C 32.453125 201.429688 36.625 197.25 40.792969 193.074219 C 42.894531 190.96875 39.636719 187.707031 37.539062 189.8125 " fill-opacity="1" fill-rule="nonzero"/><g clip-path="url(#325177c2be)"><path fill="#995f20" d="M 85.628906 193.851562 C 85.628906 207.640625 85.628906 221.429688 85.628906 235.21875 C 85.628906 238.195312 90.230469 238.195312 90.230469 235.21875 C 90.230469 221.429688 90.230469 207.640625 90.230469 193.851562 C 90.230469 190.875 85.628906 190.875 85.628906 193.851562 " fill-opacity="1" fill-rule="nonzero"/></g><path fill="#995f20" d="M 89.554688 202.347656 C 85.386719 198.171875 81.21875 193.992188 77.046875 189.8125 C 74.945312 187.707031 71.691406 190.96875 73.792969 193.074219 C 77.960938 197.25 82.132812 201.429688 86.300781 205.609375 C 88.402344 207.714844 91.65625 204.453125 89.554688 202.347656 " fill-opacity="1" fill-rule="nonzero"/><path fill="#ce561e" d="M 244.347656 191.984375 C 244.347656 206.734375 232.414062 210.839844 217.691406 210.839844 C 202.972656 210.839844 191.039062 206.734375 191.039062 191.984375 C 191.039062 177.230469 202.972656 157.414062 217.691406 157.414062 C 232.414062 157.414062 244.347656 177.230469 244.347656 191.984375 " fill-opacity="1" fill-rule="nonzero"/><g clip-path="url(#9b798b12d3)"><path fill="#7f9838" d="M 305.621094 191.984375 C 305.621094 206.734375 293.6875 210.839844 278.964844 210.839844 C 264.246094 210.839844 252.3125 206.734375 252.3125 191.984375 C 252.3125 177.230469 264.246094 137.773438 278.964844 137.773438 C 293.6875 137.773438 305.621094 177.230469 305.621094 191.984375 " fill-opacity="1" fill-rule="nonzero"/></g><path fill="#edb41a" d="M 362.878906 181.625 C 362.878906 192.335938 354.214844 201.019531 343.527344 201.019531 C 332.835938 201.019531 324.171875 192.335938 324.171875 181.625 C 324.171875 170.910156 332.835938 162.226562 343.527344 162.226562 C 354.214844 162.226562 362.878906 170.910156 362.878906 181.625 " fill-opacity="1" fill-rule="nonzero"/><path fill="#edb41a" d="M 350.371094 203.976562 C 350.371094 214.691406 341.707031 223.375 331.015625 223.375 C 320.328125 223.375 311.660156 214.691406 311.660156 203.976562 C 311.660156 193.265625 320.328125 184.582031 331.015625 184.582031 C 341.707031 184.582031 350.371094 193.265625 350.371094 203.976562 " fill-opacity="1" fill-rule="nonzero"/><g clip-path="url(#15ddcfea15)"><path fill="#edb41a" d="M 375.011719 203.976562 C 375.011719 214.691406 366.34375 223.375 355.65625 223.375 C 344.964844 223.375 336.300781 214.691406 336.300781 203.976562 C 336.300781 193.265625 344.964844 184.582031 355.65625 184.582031 C 366.34375 184.582031 375.011719 193.265625 375.011719 203.976562 " fill-opacity="1" fill-rule="nonzero"/></g><g clip-path="url(#4bac73f124)"><path fill="#995f20" d="M 341.222656 193.851562 C 341.222656 207.640625 341.222656 221.429688 341.222656 235.21875 C 341.222656 238.195312 345.828125 238.195312 345.828125 235.21875 C 345.828125 221.429688 345.828125 207.640625 345.828125 193.851562 C 345.828125 190.875 341.222656 190.875 341.222656 193.851562 " fill-opacity="1" fill-rule="nonzero"/></g><path fill="#995f20" d="M 354.410156 199.632812 C 350.238281 203.808594 346.066406 207.988281 341.898438 212.167969 C 342.984375 212.167969 344.066406 212.167969 345.152344 212.167969 C 340.984375 207.988281 336.8125 203.808594 332.644531 199.632812 C 330.542969 197.527344 327.289062 200.789062 329.390625 202.890625 C 333.558594 207.070312 337.726562 211.25 341.898438 215.425781 C 342.78125 216.316406 344.265625 216.316406 345.152344 215.425781 C 349.320312 211.25 353.492188 207.070312 357.664062 202.890625 C 359.761719 200.789062 356.507812 197.527344 354.410156 199.632812 " fill-opacity="1" fill-rule="nonzero"/><g clip-path="url(#ab6e75388a)"><path fill="#995f20" d="M 215.390625 203.671875 C 215.390625 214.1875 215.390625 224.703125 215.390625 235.21875 C 215.390625 238.195312 219.996094 238.195312 219.996094 235.21875 C 219.996094 224.703125 219.996094 214.1875 219.996094 203.671875 C 219.996094 200.695312 215.390625 200.695312 215.390625 203.671875 " fill-opacity="1" fill-rule="nonzero"/></g><path fill="#995f20" d="M 228.574219 189.8125 C 224.40625 193.992188 220.234375 198.171875 216.0625 202.347656 C 217.152344 202.347656 218.234375 202.347656 219.320312 202.347656 C 215.152344 198.171875 210.980469 193.992188 206.808594 189.8125 C 204.710938 187.707031 201.457031 190.96875 203.554688 193.074219 C 207.726562 197.25 211.894531 201.429688 216.0625 205.609375 C 216.953125 206.5 218.433594 206.5 219.320312 205.609375 C 223.488281 201.429688 227.660156 197.25 231.828125 193.074219 C 233.929688 190.96875 230.675781 187.707031 228.574219 189.8125 " fill-opacity="1" fill-rule="nonzero"/><g clip-path="url(#ce77276748)"><path fill="#995f20" d="M 276.664062 193.851562 C 276.664062 207.640625 276.664062 221.429688 276.664062 235.21875 C 276.664062 238.195312 281.265625 238.195312 281.265625 235.21875 C 281.265625 221.429688 281.265625 207.640625 281.265625 193.851562 C 281.265625 190.875 276.664062 190.875 276.664062 193.851562 " fill-opacity="1" fill-rule="nonzero"/></g><path fill="#995f20" d="M 280.59375 202.347656 C 276.421875 198.171875 272.253906 193.992188 268.082031 189.8125 C 265.980469 187.707031 262.726562 190.96875 264.828125 193.074219 C 269 197.25 273.167969 201.429688 277.339844 205.609375 C 279.441406 207.714844 282.695312 204.453125 280.59375 202.347656 " fill-opacity="1" fill-rule="nonzero"/></svg>