<svg xmlns="http://www.w3.org/2000/svg" xmlns:xlink="http://www.w3.org/1999/xlink" width="500" zoomAndPan="magnify" viewBox="0 0 375 374.999991" height="500" preserveAspectRatio="xMidYMid meet" version="1.0"><path fill="#293b52" d="M 255.292969 367.566406 C 254.5625 361.863281 248.71875 351.949219 233.5 343.617188 C 225.457031 303.828125 232.175781 231.144531 227.917969 160.085938 C 182.25 160.292969 174.953125 154.933594 174.953125 154.933594 C 169.839844 226.273438 162.558594 252.9375 162.558594 252.9375 C 124.828125 236.25 112.121094 205.550781 114.972656 142.828125 C 108.40625 215.421875 123.800781 259.972656 161.15625 276.460938 C 158.140625 320.027344 156.625 341.808594 156.625 341.808594 C 149.226562 353.640625 129.085938 356.316406 132.550781 361.773438 C 166.929688 371.363281 177.863281 361.148438 187.832031 363.679688 C 233.46875 359.265625 248.84375 374.96875 255.292969 367.566406 Z M 255.292969 367.566406 " fill-opacity="1" fill-rule="evenodd"/><path fill="#b3d44e" d="M 71.164062 227.613281 C 57.886719 227.847656 71.039062 333.324219 61.085938 330 C 33.417969 336.3125 36.335938 252.441406 29.929688 251.582031 C 21.167969 250.40625 38.949219 307.871094 18.65625 275.570312 C 14.417969 274.800781 12.429688 232.164062 14.183594 189.3125 C 15.203125 164.371094 5.292969 143.445312 18.234375 127.582031 C 28.007812 115.597656 43.152344 134.230469 69.050781 105.757812 C 69.394531 90.570312 73.644531 76.988281 84.746094 70.378906 C 92.726562 66.175781 101.984375 63.628906 111.488281 62.6875 C 109.449219 42.667969 112.441406 22.855469 126.625 14.40625 C 153.882812 0.078125 195.871094 4.917969 212.605469 27.382812 C 221.570312 39.410156 234.351562 38.253906 239.832031 37.8125 C 259.269531 36.257812 272.800781 32.277344 280.308594 24.308594 C 302.011719 19.125 305.972656 31.300781 319.289062 48.316406 C 332.40625 65.070312 348.082031 72.015625 347.769531 92.574219 C 343.605469 151.617188 338.605469 160.871094 332.78125 120.332031 C 330.882812 139.601562 328.621094 155.308594 325.992188 167.445312 C 343.808594 170.78125 364.925781 190.847656 364.347656 213.074219 C 363.058594 262.414062 369.808594 267.550781 360.113281 284.429688 C 350.414062 301.304688 336.808594 210.277344 336.34375 255.027344 C 335.710938 315.835938 332.644531 361.628906 322.511719 333.300781 C 312.378906 304.980469 296.414062 278.949219 295.101562 316.203125 C 293.792969 353.457031 281.171875 345.894531 278.269531 312.328125 C 274.839844 291.265625 270.171875 281.007812 264.261719 281.554688 C 255.105469 283.523438 250.824219 277.597656 249.945312 266.871094 C 229.339844 231.730469 215.492188 250.339844 214.777344 289.984375 C 215.242188 330.785156 203.015625 322.855469 201.308594 317.054688 C 200.949219 314.328125 187.941406 286.816406 187.589844 284.453125 C 182.539062 285.992188 179.164062 281.753906 177.464844 271.730469 C 163.859375 252.023438 160.25 348.320312 145.585938 318.640625 C 134.28125 274.078125 126.167969 210.523438 125.203125 266.269531 C 117.882812 337.53125 97.800781 213.320312 95.964844 283.894531 C 93.367188 311.285156 87.648438 296.71875 82.65625 281.042969 C 75.9375 259.882812 76.386719 221.894531 71.164062 227.613281 Z M 71.164062 227.613281 " fill-opacity="1" fill-rule="evenodd"/><path fill="#63911d" d="M 76.5625 125.445312 C 76.5625 125.445312 69.089844 104.652344 80.355469 110.070312 C 94.898438 123.578125 112.222656 103.402344 108.585938 114.300781 C 103.621094 123.945312 89.613281 132.355469 76.5625 125.445312 Z M 321.960938 123.113281 C 320.742188 140.121094 316.636719 138.140625 316.636719 138.140625 C 312.496094 140.695312 309.027344 130.425781 310.566406 108.21875 C 311.101562 100.519531 322.71875 106.792969 321.960938 123.113281 Z M 24.96875 226.113281 C 22.644531 221.011719 22.25 213.152344 23.78125 202.53125 C 26.027344 182.613281 28.457031 176.203125 31.085938 183.292969 C 35.167969 221.355469 33.835938 236.652344 27.078125 229.191406 Z M 272.945312 251.824219 C 270.6875 229.191406 290.183594 283.453125 302.066406 234.605469 C 306.148438 272.667969 296.453125 263.128906 289.695312 255.667969 C 289.75 271.257812 274.300781 268.273438 272.945312 251.824219 Z M 134.828125 196.488281 C 145.761719 193.476562 157.613281 243.234375 159.007812 212.695312 C 159.929688 185.464844 156.167969 183.75 143.789062 179.160156 C 126.769531 181.066406 121.894531 180.953125 114.109375 168.769531 C 102.457031 152.953125 111.621094 175.554688 110.660156 224.359375 C 112.648438 238.8125 121.773438 223.984375 122.710938 198.804688 C 128.066406 228.414062 128.996094 219.585938 134.828125 196.488281 Z M 182.257812 203.554688 C 190.855469 225.792969 190.597656 235.882812 181.472656 233.839844 C 178.402344 234.359375 176.398438 233.179688 175.460938 230.3125 C 176.933594 239.742188 176.277344 252.648438 171.835938 252.410156 C 167.023438 254.074219 164.722656 249.71875 164.941406 239.351562 C 163.046875 228.328125 165.351562 218.320312 169.519531 221.636719 C 171.804688 218.914062 173.734375 222.15625 174.914062 227.421875 C 174.683594 224.707031 174.988281 221.148438 175.820312 216.75 C 175.765625 203.128906 177.914062 198.722656 182.257812 203.554688 Z M 171.113281 88.574219 C 176.496094 107.378906 175.539062 115.605469 168.234375 113.265625 C 163.152344 113.652344 162.03125 108.859375 164.882812 98.878906 C 165.839844 87.742188 167.921875 84.3125 171.113281 88.574219 Z M 143.476562 40.820312 C 131.683594 51.464844 125.78125 49.140625 125.765625 33.839844 C 118.222656 32.328125 121.972656 57.457031 116.371094 63.644531 C 125.054688 66.953125 130.152344 63.28125 131.667969 52.636719 C 132.742188 66.046875 136.40625 74.554688 142.667969 78.152344 C 152.425781 82.148438 157.613281 88.6875 158.230469 97.761719 C 162.679688 102.507812 168.566406 59.101562 162.519531 60.164062 C 153.652344 80.484375 149.539062 78.246094 150.179688 53.445312 C 143.871094 65.582031 141.640625 61.375 143.476562 40.820312 Z M 243.472656 159.316406 C 252.148438 178.878906 272.34375 209.941406 293.640625 180.828125 C 303.496094 170.589844 314.285156 166.125 326.007812 167.445312 C 321.757812 158.835938 317.476562 156.558594 313.148438 160.597656 C 309.21875 166.277344 302.539062 156.222656 301.503906 130.425781 C 299.566406 126.933594 298.019531 135.570312 295.460938 156.335938 C 295.394531 175.441406 286.792969 176.582031 280.15625 151.367188 C 275.265625 142.660156 278.132812 172.96875 275.257812 177.832031 C 264.679688 195.75 258.394531 133.421875 257.59375 134.59375 C 238.460938 147.523438 219.085938 133.734375 215.148438 122.734375 C 210.859375 116.773438 182.179688 139.839844 192.128906 144.453125 C 210.777344 139.582031 237.101562 144.960938 243.472656 159.316406 Z M 243.472656 159.316406 " fill-opacity="1" fill-rule="evenodd"/></svg>