<svg xmlns="http://www.w3.org/2000/svg" xmlns:xlink="http://www.w3.org/1999/xlink" width="500" zoomAndPan="magnify" viewBox="0 0 375 374.999991" height="500" preserveAspectRatio="xMidYMid meet" version="1.0"><defs><clipPath id="b258074873"><path d="M 326 231 L 337.5 231 L 337.5 237 L 326 237 Z M 326 231 " clip-rule="nonzero"/></clipPath><clipPath id="343db92840"><path d="M 52.5 163 L 64 163 L 64 168 L 52.5 168 Z M 52.5 163 " clip-rule="nonzero"/></clipPath></defs><path fill="#5ea835" d="M 181.574219 374.742188 C 170.261719 374.742188 160.785156 366.160156 159.699219 354.898438 C 142.832031 179.496094 117.515625 52.460938 207.996094 52.726562 C 292.097656 52.980469 257.304688 254.078125 246.667969 355.101562 C 245.492188 366.277344 236.054688 374.742188 224.816406 374.742188 L 181.574219 374.742188 " fill-opacity="1" fill-rule="nonzero"/><path fill="#5ea835" d="M 157.996094 184.921875 C 125.539062 190.859375 120.277344 174.753906 123.789062 143.402344 C 126.066406 123.050781 117.679688 88.410156 89.574219 90.242188 C 65.375 91.820312 59.078125 125.84375 58.488281 144.316406 C 57.664062 170.222656 67.550781 195.636719 86.949219 213.738281 C 138.699219 262.039062 208.871094 188.3125 208.871094 188.3125 L 157.996094 184.921875 " fill-opacity="1" fill-rule="nonzero"/><path fill="#5ea835" d="M 246.332031 251.488281 C 274.308594 256.601562 278.84375 242.726562 275.820312 215.699219 C 273.855469 198.160156 281.082031 168.304688 305.308594 169.882812 C 326.164062 171.242188 331.59375 200.566406 332.101562 216.488281 C 332.8125 238.8125 324.289062 260.71875 307.574219 276.320312 C 262.96875 317.953125 202.484375 254.410156 202.484375 254.410156 L 246.332031 251.488281 " fill-opacity="1" fill-rule="nonzero"/><path fill="#9dcc0a" d="M 175.691406 372.871094 C 175.242188 372.871094 174.855469 372.527344 174.816406 372.070312 C 173.886719 361.824219 172.933594 351.546875 171.980469 341.269531 C 158.609375 197.160156 145.976562 61.039062 202.347656 52.007812 C 202.808594 51.933594 203.28125 52.257812 203.359375 52.738281 C 203.433594 53.21875 203.105469 53.671875 202.628906 53.75 C 147.886719 62.519531 161.027344 204.144531 173.738281 341.109375 C 174.691406 351.382812 175.648438 361.667969 176.574219 371.910156 C 176.617188 372.394531 176.261719 372.820312 175.773438 372.867188 C 175.75 372.867188 175.71875 372.871094 175.691406 372.871094 " fill-opacity="1" fill-rule="nonzero"/><path fill="#9dcc0a" d="M 194.480469 373.621094 C 194.007812 373.621094 193.617188 373.246094 193.597656 372.769531 C 192.933594 355.179688 192.230469 337.882812 191.550781 320.992188 C 186.210938 189.117188 182 84.957031 201.730469 52.417969 C 201.988281 52.003906 202.53125 51.875 202.945312 52.121094 C 203.359375 52.375 203.492188 52.917969 203.242188 53.335938 C 183.78125 85.417969 187.984375 189.34375 193.3125 320.921875 C 193.996094 337.8125 194.695312 355.109375 195.363281 372.707031 C 195.382812 373.191406 195 373.601562 194.511719 373.621094 C 194.5 373.621094 194.492188 373.621094 194.480469 373.621094 " fill-opacity="1" fill-rule="nonzero"/><path fill="#9dcc0a" d="M 232.175781 372.871094 C 232.148438 372.871094 232.125 372.867188 232.09375 372.867188 C 231.605469 372.820312 231.25 372.394531 231.292969 371.910156 C 232.226562 361.667969 233.175781 351.382812 234.128906 341.109375 C 246.839844 204.144531 259.980469 62.519531 205.238281 53.75 C 204.761719 53.671875 204.433594 53.21875 204.507812 52.738281 C 204.585938 52.257812 205.050781 51.933594 205.519531 52.007812 C 261.890625 61.039062 249.257812 197.160156 235.886719 341.269531 C 234.933594 351.546875 233.980469 361.824219 233.050781 372.070312 C 233.011719 372.527344 232.621094 372.871094 232.175781 372.871094 " fill-opacity="1" fill-rule="nonzero"/><path fill="#9dcc0a" d="M 213.386719 373.621094 C 213.378906 373.621094 213.371094 373.621094 213.363281 373.621094 C 212.875 373.605469 212.492188 373.199219 212.503906 372.710938 C 213.011719 355.835938 213.601562 338.445312 214.195312 320.898438 C 218.164062 203.929688 222.261719 82.976562 204.621094 53.328125 C 204.371094 52.914062 204.511719 52.371094 204.929688 52.121094 C 205.339844 51.867188 205.886719 52.007812 206.136719 52.425781 C 224.042969 82.519531 219.933594 203.734375 215.960938 320.960938 C 215.363281 338.503906 214.777344 355.890625 214.269531 372.765625 C 214.257812 373.246094 213.863281 373.621094 213.386719 373.621094 " fill-opacity="1" fill-rule="nonzero"/><path fill="#9dcc0a" d="M 142.101562 197.011719 C 142.058594 197.011719 142.011719 197.007812 141.964844 197 C 117.871094 193.277344 102.316406 188.316406 105.542969 154.625 C 107.933594 129.644531 105.988281 98.527344 92.625 93.046875 C 92.171875 92.859375 91.960938 92.34375 92.140625 91.894531 C 92.332031 91.441406 92.847656 91.230469 93.292969 91.410156 C 107.539062 97.253906 109.867188 127.980469 107.300781 154.792969 C 104.214844 187.023438 118.441406 191.582031 142.230469 195.261719 C 142.714844 195.332031 143.042969 195.785156 142.972656 196.261719 C 142.90625 196.699219 142.527344 197.011719 142.101562 197.011719 " fill-opacity="1" fill-rule="nonzero"/><path fill="#9dcc0a" d="M 144.445312 213.316406 C 144.425781 213.316406 144.398438 213.3125 144.375 213.3125 C 94.488281 209.242188 73.378906 187.378906 73.785156 140.203125 C 74.128906 100.054688 88.53125 93.078125 89.144531 92.804688 C 89.582031 92.605469 90.109375 92.800781 90.3125 93.246094 C 90.511719 93.6875 90.316406 94.214844 89.875 94.414062 C 89.738281 94.476562 75.882812 101.398438 75.546875 140.21875 C 75.152344 186.242188 95.777344 207.578125 144.515625 211.558594 C 145 211.59375 145.363281 212.023438 145.324219 212.503906 C 145.289062 212.964844 144.902344 213.316406 144.445312 213.316406 " fill-opacity="1" fill-rule="nonzero"/><path fill="#9dcc0a" d="M 266.046875 262.917969 C 260.566406 262.917969 256.390625 261.550781 256.296875 261.515625 C 255.835938 261.359375 255.589844 260.859375 255.742188 260.398438 C 255.898438 259.9375 256.410156 259.691406 256.867188 259.847656 C 257.664062 260.117188 276.664062 266.300781 285.84375 250.234375 C 294.464844 235.15625 291.871094 214.394531 290.328125 201.984375 C 290.164062 200.667969 290.011719 199.433594 289.878906 198.300781 C 288.882812 189.585938 291.039062 180.199219 295.242188 174.929688 C 297.207031 172.464844 299.558594 171.015625 302.046875 170.742188 C 302.511719 170.691406 302.972656 171.039062 303.023438 171.527344 C 303.078125 172.007812 302.726562 172.445312 302.242188 172.5 C 300.203125 172.722656 298.316406 173.914062 296.621094 176.03125 C 292.753906 180.875 290.699219 189.957031 291.632812 198.101562 C 291.761719 199.230469 291.914062 200.457031 292.074219 201.769531 C 293.648438 214.394531 296.28125 235.519531 287.375 251.105469 C 281.859375 260.761719 272.925781 262.917969 266.046875 262.917969 " fill-opacity="1" fill-rule="nonzero"/><path fill="#9dcc0a" d="M 264.648438 276.992188 C 259 276.992188 255.183594 276.414062 255.0625 276.394531 C 254.578125 276.316406 254.253906 275.867188 254.328125 275.382812 C 254.40625 274.902344 254.847656 274.570312 255.339844 274.652344 C 255.742188 274.722656 295.925781 280.757812 309.285156 252.367188 C 319.441406 230.785156 318.628906 201.898438 312.703125 185.675781 C 310.472656 179.5625 307.648438 175.578125 304.542969 174.148438 C 304.097656 173.945312 303.902344 173.421875 304.105469 172.976562 C 304.308594 172.539062 304.839844 172.34375 305.277344 172.546875 C 308.820312 174.175781 311.960938 178.503906 314.359375 185.070312 C 320.40625 201.625 321.246094 231.105469 310.882812 253.117188 C 301.128906 273.847656 277.859375 276.992188 264.648438 276.992188 " fill-opacity="1" fill-rule="nonzero"/><path fill="#5ea835" d="M 179.863281 62.132812 C 179.550781 62.132812 179.246094 61.964844 179.089844 61.671875 L 174.542969 53.257812 C 174.308594 52.832031 174.46875 52.292969 174.898438 52.066406 C 175.320312 51.832031 175.859375 51.988281 176.089844 52.421875 L 180.636719 60.832031 C 180.871094 61.261719 180.710938 61.796875 180.28125 62.027344 C 180.152344 62.097656 180.007812 62.132812 179.863281 62.132812 " fill-opacity="1" fill-rule="nonzero"/><path fill="#5ea835" d="M 179.863281 62.132812 C 179.738281 62.132812 179.617188 62.109375 179.5 62.054688 L 172.125 58.734375 C 171.679688 58.53125 171.480469 58.007812 171.679688 57.5625 C 171.882812 57.117188 172.410156 56.921875 172.847656 57.121094 L 180.222656 60.445312 C 180.667969 60.644531 180.867188 61.171875 180.667969 61.609375 C 180.519531 61.941406 180.195312 62.132812 179.863281 62.132812 " fill-opacity="1" fill-rule="nonzero"/><path fill="#5ea835" d="M 179.863281 62.132812 C 179.828125 62.132812 179.789062 62.132812 179.757812 62.128906 C 179.269531 62.066406 178.925781 61.628906 178.988281 61.144531 L 179.949219 53.261719 C 180.007812 52.78125 180.464844 52.4375 180.929688 52.492188 C 181.417969 52.550781 181.757812 52.992188 181.699219 53.476562 L 180.738281 61.355469 C 180.683594 61.804688 180.304688 62.132812 179.863281 62.132812 " fill-opacity="1" fill-rule="nonzero"/><path fill="#5ea835" d="M 235.632812 69.4375 C 235.417969 69.4375 235.199219 69.359375 235.027344 69.195312 C 234.675781 68.863281 234.660156 68.304688 234.992188 67.949219 L 241.558594 60.996094 C 241.890625 60.644531 242.453125 60.625 242.804688 60.964844 C 243.160156 61.296875 243.175781 61.851562 242.839844 62.207031 L 236.277344 69.164062 C 236.101562 69.34375 235.871094 69.4375 235.632812 69.4375 " fill-opacity="1" fill-rule="nonzero"/><path fill="#5ea835" d="M 235.636719 69.4375 C 235.605469 69.4375 235.574219 69.433594 235.539062 69.433594 C 235.058594 69.382812 234.707031 68.945312 234.757812 68.460938 L 235.605469 60.414062 C 235.65625 59.929688 236.070312 59.578125 236.578125 59.628906 C 237.058594 59.679688 237.410156 60.117188 237.359375 60.597656 L 236.511719 68.644531 C 236.460938 69.097656 236.082031 69.4375 235.636719 69.4375 " fill-opacity="1" fill-rule="nonzero"/><path fill="#5ea835" d="M 235.632812 69.4375 C 235.222656 69.4375 234.855469 69.144531 234.769531 68.726562 C 234.675781 68.25 234.984375 67.78125 235.464844 67.691406 L 243.246094 66.136719 C 243.71875 66.035156 244.1875 66.347656 244.285156 66.828125 C 244.382812 67.304688 244.074219 67.769531 243.59375 67.863281 L 235.804688 69.421875 C 235.746094 69.433594 235.691406 69.4375 235.632812 69.4375 " fill-opacity="1" fill-rule="nonzero"/><path fill="#5ea835" d="M 253.515625 104.484375 C 253.070312 104.484375 252.6875 104.144531 252.640625 103.691406 C 252.589844 103.207031 252.941406 102.773438 253.429688 102.726562 L 262.941406 101.746094 C 263.375 101.675781 263.859375 102.042969 263.910156 102.53125 C 263.957031 103.015625 263.605469 103.445312 263.117188 103.496094 L 253.605469 104.480469 C 253.578125 104.484375 253.546875 104.484375 253.515625 104.484375 " fill-opacity="1" fill-rule="nonzero"/><path fill="#5ea835" d="M 253.515625 104.484375 C 253.285156 104.484375 253.046875 104.390625 252.875 104.207031 C 252.539062 103.847656 252.554688 103.292969 252.910156 102.960938 L 258.8125 97.417969 C 259.164062 97.082031 259.722656 97.101562 260.058594 97.457031 C 260.390625 97.8125 260.375 98.371094 260.019531 98.703125 L 254.121094 104.246094 C 253.953125 104.402344 253.734375 104.484375 253.515625 104.484375 " fill-opacity="1" fill-rule="nonzero"/><path fill="#5ea835" d="M 260.429688 108.390625 C 260.28125 108.390625 260.132812 108.351562 259.996094 108.277344 L 253.085938 104.367188 C 252.65625 104.132812 252.507812 103.589844 252.746094 103.167969 C 252.988281 102.742188 253.53125 102.59375 253.953125 102.832031 L 260.867188 106.738281 C 261.289062 106.976562 261.4375 107.519531 261.199219 107.941406 C 261.035156 108.230469 260.734375 108.390625 260.429688 108.390625 " fill-opacity="1" fill-rule="nonzero"/><path fill="#5ea835" d="M 259.5625 150.40625 C 259.113281 150.40625 258.730469 150.066406 258.6875 149.617188 C 258.636719 149.132812 258.984375 148.695312 259.472656 148.648438 L 268.984375 147.667969 C 269.445312 147.597656 269.902344 147.972656 269.953125 148.457031 C 270.003906 148.941406 269.652344 149.375 269.167969 149.425781 L 259.652344 150.402344 C 259.625 150.40625 259.589844 150.40625 259.5625 150.40625 " fill-opacity="1" fill-rule="nonzero"/><path fill="#5ea835" d="M 259.5625 150.40625 C 259.328125 150.40625 259.097656 150.3125 258.917969 150.132812 C 258.589844 149.773438 258.605469 149.21875 258.957031 148.882812 L 264.855469 143.34375 C 265.214844 143.007812 265.773438 143.023438 266.101562 143.378906 C 266.4375 143.734375 266.417969 144.292969 266.0625 144.625 L 260.167969 150.171875 C 259.996094 150.328125 259.78125 150.40625 259.5625 150.40625 " fill-opacity="1" fill-rule="nonzero"/><path fill="#5ea835" d="M 266.472656 154.3125 C 266.328125 154.3125 266.179688 154.277344 266.042969 154.199219 L 259.128906 150.292969 C 258.707031 150.054688 258.554688 149.515625 258.796875 149.089844 C 259.03125 148.667969 259.574219 148.515625 259.996094 148.757812 L 266.910156 152.664062 C 267.332031 152.898438 267.484375 153.441406 267.246094 153.867188 C 267.082031 154.152344 266.785156 154.3125 266.472656 154.3125 " fill-opacity="1" fill-rule="nonzero"/><path fill="#5ea835" d="M 258.066406 197.460938 C 257.59375 197.460938 257.199219 197.082031 257.1875 196.601562 C 257.175781 196.113281 257.558594 195.707031 258.046875 195.695312 L 267.605469 195.449219 C 268.164062 195.5 268.496094 195.824219 268.511719 196.308594 C 268.523438 196.796875 268.136719 197.203125 267.652344 197.214844 L 258.09375 197.460938 C 258.085938 197.460938 258.074219 197.460938 258.066406 197.460938 " fill-opacity="1" fill-rule="nonzero"/><path fill="#5ea835" d="M 258.066406 197.460938 C 257.8125 197.460938 257.554688 197.351562 257.382812 197.132812 C 257.078125 196.753906 257.136719 196.195312 257.515625 195.890625 L 263.820312 190.820312 C 264.203125 190.515625 264.753906 190.570312 265.058594 190.953125 C 265.367188 191.332031 265.304688 191.890625 264.925781 192.195312 L 258.621094 197.265625 C 258.457031 197.398438 258.261719 197.460938 258.066406 197.460938 " fill-opacity="1" fill-rule="nonzero"/><path fill="#5ea835" d="M 264.664062 201.890625 C 264.488281 201.890625 264.320312 201.839844 264.171875 201.738281 L 257.578125 197.3125 C 257.175781 197.039062 257.0625 196.492188 257.335938 196.089844 C 257.609375 195.683594 258.160156 195.578125 258.558594 195.847656 L 265.152344 200.273438 C 265.554688 200.546875 265.664062 201.09375 265.394531 201.496094 C 265.222656 201.753906 264.945312 201.890625 264.664062 201.890625 " fill-opacity="1" fill-rule="nonzero"/><path fill="#5ea835" d="M 256.441406 241.144531 C 255.964844 241.144531 255.570312 240.765625 255.558594 240.285156 C 255.542969 239.800781 255.929688 239.398438 256.421875 239.386719 L 265.980469 239.136719 C 266.464844 239.195312 266.871094 239.507812 266.878906 239.996094 C 266.894531 240.480469 266.507812 240.882812 266.019531 240.898438 L 256.464844 241.144531 C 256.460938 241.144531 256.445312 241.144531 256.441406 241.144531 " fill-opacity="1" fill-rule="nonzero"/><path fill="#5ea835" d="M 256.441406 241.144531 C 256.183594 241.144531 255.929688 241.035156 255.753906 240.820312 C 255.449219 240.4375 255.511719 239.882812 255.886719 239.578125 L 262.195312 234.503906 C 262.570312 234.203125 263.125 234.253906 263.429688 234.640625 C 263.738281 235.019531 263.675781 235.574219 263.300781 235.878906 L 256.996094 240.949219 C 256.832031 241.082031 256.636719 241.144531 256.441406 241.144531 " fill-opacity="1" fill-rule="nonzero"/><path fill="#5ea835" d="M 263.03125 245.574219 C 262.863281 245.574219 262.695312 245.523438 262.542969 245.421875 L 255.949219 240.996094 C 255.542969 240.726562 255.433594 240.179688 255.710938 239.773438 C 255.980469 239.363281 256.535156 239.265625 256.933594 239.53125 L 263.523438 243.957031 C 263.929688 244.226562 264.039062 244.777344 263.769531 245.179688 C 263.597656 245.4375 263.316406 245.574219 263.03125 245.574219 " fill-opacity="1" fill-rule="nonzero"/><path fill="#5ea835" d="M 257.964844 316.875 C 257.917969 316.875 257.867188 316.871094 257.816406 316.863281 L 248.390625 315.257812 C 247.910156 315.171875 247.585938 314.71875 247.667969 314.242188 C 247.75 313.757812 248.226562 313.441406 248.6875 313.515625 L 258.113281 315.121094 C 258.597656 315.207031 258.917969 315.660156 258.839844 316.140625 C 258.761719 316.574219 258.390625 316.875 257.964844 316.875 " fill-opacity="1" fill-rule="nonzero"/><path fill="#5ea835" d="M 248.539062 315.269531 C 248.222656 315.269531 247.914062 315.097656 247.757812 314.796875 C 247.53125 314.363281 247.695312 313.832031 248.128906 313.605469 L 255.296875 309.847656 C 255.722656 309.625 256.261719 309.789062 256.484375 310.21875 C 256.714844 310.652344 256.542969 311.183594 256.113281 311.410156 L 248.949219 315.167969 C 248.820312 315.234375 248.679688 315.269531 248.539062 315.269531 " fill-opacity="1" fill-rule="nonzero"/><path fill="#5ea835" d="M 254.152344 320.886719 C 253.925781 320.886719 253.703125 320.796875 253.53125 320.628906 L 247.914062 315.011719 C 247.570312 314.664062 247.570312 314.109375 247.914062 313.761719 C 248.257812 313.421875 248.820312 313.421875 249.160156 313.761719 L 254.777344 319.378906 C 255.121094 319.722656 255.121094 320.28125 254.777344 320.628906 C 254.605469 320.796875 254.378906 320.886719 254.152344 320.886719 " fill-opacity="1" fill-rule="nonzero"/><path fill="#5ea835" d="M 253.230469 360.726562 C 253.183594 360.726562 253.132812 360.722656 253.082031 360.714844 L 243.652344 359.109375 C 243.175781 359.027344 242.851562 358.574219 242.933594 358.089844 C 243.015625 357.613281 243.488281 357.296875 243.949219 357.371094 L 253.378906 358.976562 C 253.859375 359.054688 254.183594 359.511719 254.101562 359.996094 C 254.023438 360.421875 253.652344 360.726562 253.230469 360.726562 " fill-opacity="1" fill-rule="nonzero"/><path fill="#5ea835" d="M 243.800781 359.121094 C 243.484375 359.121094 243.179688 358.949219 243.023438 358.648438 C 242.792969 358.21875 242.964844 357.683594 243.390625 357.460938 L 250.558594 353.703125 C 250.984375 353.476562 251.523438 353.636719 251.746094 354.074219 C 251.976562 354.503906 251.8125 355.035156 251.378906 355.261719 L 244.214844 359.023438 C 244.082031 359.089844 243.941406 359.121094 243.800781 359.121094 " fill-opacity="1" fill-rule="nonzero"/><path fill="#5ea835" d="M 249.414062 364.738281 C 249.191406 364.738281 248.964844 364.652344 248.792969 364.480469 L 243.179688 358.867188 C 242.835938 358.519531 242.835938 357.960938 243.179688 357.617188 C 243.523438 357.273438 244.082031 357.273438 244.429688 357.617188 L 250.042969 363.234375 C 250.382812 363.578125 250.382812 364.136719 250.042969 364.480469 C 249.867188 364.652344 249.644531 364.738281 249.414062 364.738281 " fill-opacity="1" fill-rule="nonzero"/><path fill="#5ea835" d="M 268.457031 297.53125 C 268.457031 297.53125 268.457031 297.53125 268.449219 297.53125 C 267.964844 297.523438 267.570312 297.128906 267.574219 296.640625 L 267.644531 287.078125 C 267.648438 286.589844 268.039062 286.203125 268.523438 286.203125 C 268.527344 286.203125 268.527344 286.203125 268.53125 286.203125 C 269.019531 286.207031 269.40625 286.605469 269.40625 287.089844 L 269.339844 296.652344 C 269.335938 297.136719 268.941406 297.53125 268.457031 297.53125 " fill-opacity="1" fill-rule="nonzero"/><path fill="#5ea835" d="M 273.386719 294.433594 C 273.121094 294.433594 272.851562 294.3125 272.683594 294.082031 L 267.820312 287.617188 C 267.527344 287.226562 267.605469 286.671875 267.992188 286.378906 C 268.386719 286.082031 268.9375 286.164062 269.230469 286.554688 L 274.089844 293.019531 C 274.386719 293.410156 274.304688 293.964844 273.914062 294.257812 C 273.757812 294.375 273.574219 294.433594 273.386719 294.433594 " fill-opacity="1" fill-rule="nonzero"/><path fill="#5ea835" d="M 263.882812 294.410156 C 263.707031 294.410156 263.523438 294.355469 263.371094 294.246094 C 262.972656 293.957031 262.882812 293.40625 263.167969 293.011719 L 267.808594 286.570312 C 268.089844 286.171875 268.644531 286.078125 269.039062 286.367188 C 269.4375 286.65625 269.527344 287.207031 269.238281 287.597656 L 264.597656 294.042969 C 264.425781 294.28125 264.160156 294.410156 263.882812 294.410156 " fill-opacity="1" fill-rule="nonzero"/><path fill="#5ea835" d="M 314.292969 279.03125 C 314 279.03125 313.714844 278.882812 313.546875 278.617188 L 308.5 270.492188 C 308.242188 270.078125 308.367188 269.53125 308.785156 269.277344 C 309.195312 269.027344 309.738281 269.148438 310 269.5625 L 315.042969 277.683594 C 315.300781 278.101562 315.175781 278.640625 314.761719 278.898438 C 314.617188 278.988281 314.457031 279.03125 314.292969 279.03125 " fill-opacity="1" fill-rule="nonzero"/><path fill="#5ea835" d="M 316.8125 273.78125 C 316.707031 273.78125 316.601562 273.765625 316.5 273.726562 L 308.9375 270.851562 C 308.476562 270.679688 308.25 270.167969 308.421875 269.714844 C 308.597656 269.257812 309.113281 269.03125 309.5625 269.203125 L 317.125 272.078125 C 317.578125 272.25 317.808594 272.761719 317.640625 273.214844 C 317.503906 273.566406 317.167969 273.78125 316.8125 273.78125 " fill-opacity="1" fill-rule="nonzero"/><path fill="#5ea835" d="M 308.761719 278.832031 C 308.746094 278.832031 308.722656 278.832031 308.710938 278.832031 C 308.21875 278.800781 307.851562 278.382812 307.882812 277.898438 L 308.367188 269.972656 C 308.398438 269.484375 308.828125 269.113281 309.304688 269.148438 C 309.789062 269.175781 310.160156 269.597656 310.128906 270.078125 L 309.640625 278.007812 C 309.613281 278.472656 309.226562 278.832031 308.761719 278.832031 " fill-opacity="1" fill-rule="nonzero"/><g clip-path="url(#b258074873)"><path fill="#5ea835" d="M 336.542969 236.765625 C 336.429688 236.765625 336.308594 236.742188 336.199219 236.695312 L 327.394531 232.964844 C 326.945312 232.773438 326.738281 232.257812 326.929688 231.808594 C 327.121094 231.359375 327.636719 231.152344 328.085938 231.34375 L 336.890625 235.070312 C 337.339844 235.261719 337.546875 235.777344 337.355469 236.226562 C 337.214844 236.566406 336.890625 236.765625 336.542969 236.765625 " fill-opacity="1" fill-rule="nonzero"/></g><path fill="#5ea835" d="M 327.738281 233.035156 C 327.34375 233.035156 326.988281 232.769531 326.886719 232.371094 C 326.765625 231.898438 327.046875 231.417969 327.523438 231.296875 L 335.359375 229.289062 C 335.839844 229.171875 336.308594 229.453125 336.433594 229.925781 C 336.554688 230.398438 336.269531 230.875 335.796875 231 L 327.957031 233.003906 C 327.886719 233.027344 327.816406 233.035156 327.738281 233.035156 " fill-opacity="1" fill-rule="nonzero"/><path fill="#5ea835" d="M 331.914062 239.792969 C 331.617188 239.792969 331.328125 239.644531 331.160156 239.371094 L 326.988281 232.617188 C 326.734375 232.203125 326.863281 231.660156 327.277344 231.402344 C 327.691406 231.148438 328.234375 231.273438 328.492188 231.6875 L 332.660156 238.445312 C 332.917969 238.859375 332.789062 239.402344 332.375 239.660156 C 332.230469 239.75 332.070312 239.792969 331.914062 239.792969 " fill-opacity="1" fill-rule="nonzero"/><path fill="#5ea835" d="M 326.136719 197.734375 C 325.792969 197.734375 325.460938 197.527344 325.324219 197.1875 C 325.140625 196.738281 325.355469 196.222656 325.804688 196.039062 L 334.65625 192.417969 C 335.109375 192.238281 335.625 192.449219 335.808594 192.902344 C 335.992188 193.351562 335.773438 193.867188 335.324219 194.054688 L 326.472656 197.667969 C 326.363281 197.714844 326.253906 197.734375 326.136719 197.734375 " fill-opacity="1" fill-rule="nonzero"/><path fill="#5ea835" d="M 326.136719 197.734375 C 325.984375 197.734375 325.832031 197.699219 325.695312 197.613281 C 325.273438 197.367188 325.132812 196.824219 325.382812 196.40625 L 329.476562 189.429688 C 329.722656 189.007812 330.269531 188.871094 330.683594 189.117188 C 331.105469 189.363281 331.242188 189.90625 331 190.324219 L 326.902344 197.300781 C 326.734375 197.578125 326.445312 197.734375 326.136719 197.734375 " fill-opacity="1" fill-rule="nonzero"/><path fill="#5ea835" d="M 333.871094 199.539062 C 333.808594 199.539062 333.742188 199.53125 333.671875 199.515625 L 325.941406 197.714844 C 325.464844 197.601562 325.167969 197.125 325.277344 196.652344 C 325.394531 196.179688 325.867188 195.882812 326.339844 195.992188 L 334.070312 197.796875 C 334.550781 197.910156 334.839844 198.382812 334.730469 198.855469 C 334.636719 199.265625 334.273438 199.539062 333.871094 199.539062 " fill-opacity="1" fill-rule="nonzero"/><path fill="#5ea835" d="M 305.113281 175.289062 C 305.035156 175.289062 304.960938 175.28125 304.878906 175.257812 C 304.410156 175.132812 304.132812 174.648438 304.257812 174.179688 L 306.734375 164.9375 C 306.867188 164.472656 307.347656 164.210938 307.816406 164.316406 C 308.289062 164.445312 308.566406 164.929688 308.441406 165.398438 L 305.964844 174.636719 C 305.859375 175.03125 305.503906 175.289062 305.113281 175.289062 " fill-opacity="1" fill-rule="nonzero"/><path fill="#5ea835" d="M 305.113281 175.289062 C 304.765625 175.289062 304.4375 175.082031 304.296875 174.742188 L 301.21875 167.253906 C 301.035156 166.804688 301.253906 166.289062 301.707031 166.101562 C 302.148438 165.921875 302.667969 166.136719 302.851562 166.585938 L 305.925781 174.074219 C 306.113281 174.523438 305.894531 175.039062 305.449219 175.226562 C 305.335938 175.265625 305.222656 175.289062 305.113281 175.289062 " fill-opacity="1" fill-rule="nonzero"/><path fill="#5ea835" d="M 305.113281 175.289062 C 304.859375 175.289062 304.605469 175.179688 304.433594 174.972656 C 304.117188 174.59375 304.171875 174.039062 304.550781 173.726562 L 310.664062 168.664062 C 311.039062 168.351562 311.59375 168.402344 311.90625 168.777344 C 312.214844 169.15625 312.164062 169.710938 311.789062 170.019531 L 305.675781 175.085938 C 305.511719 175.222656 305.308594 175.289062 305.113281 175.289062 " fill-opacity="1" fill-rule="nonzero"/><path fill="#5ea835" d="M 284.691406 188.734375 C 284.484375 188.734375 284.28125 188.664062 284.117188 188.519531 L 276.859375 182.292969 C 276.488281 181.980469 276.441406 181.421875 276.761719 181.054688 C 277.082031 180.6875 277.640625 180.644531 278.003906 180.957031 L 285.265625 187.183594 C 285.636719 187.5 285.679688 188.058594 285.363281 188.429688 C 285.183594 188.632812 284.9375 188.734375 284.691406 188.734375 " fill-opacity="1" fill-rule="nonzero"/><path fill="#5ea835" d="M 284.691406 188.734375 C 284.675781 188.734375 284.660156 188.734375 284.640625 188.734375 L 276.5625 188.265625 C 276.074219 188.242188 275.703125 187.824219 275.730469 187.335938 C 275.757812 186.851562 276.128906 186.476562 276.664062 186.507812 L 284.738281 186.972656 C 285.230469 187 285.597656 187.417969 285.570312 187.902344 C 285.542969 188.371094 285.15625 188.734375 284.691406 188.734375 " fill-opacity="1" fill-rule="nonzero"/><path fill="#5ea835" d="M 284.691406 188.734375 C 284.296875 188.734375 283.933594 188.464844 283.832031 188.066406 L 281.90625 180.359375 C 281.792969 179.890625 282.082031 179.410156 282.550781 179.292969 C 283.03125 179.171875 283.503906 179.460938 283.621094 179.933594 L 285.546875 187.640625 C 285.664062 188.109375 285.375 188.589844 284.90625 188.707031 C 284.832031 188.726562 284.761719 188.734375 284.691406 188.734375 " fill-opacity="1" fill-rule="nonzero"/><path fill="#5ea835" d="M 271.390625 225.640625 C 270.949219 225.640625 270.5625 225.304688 270.511719 224.851562 C 270.460938 224.371094 270.808594 223.933594 271.296875 223.878906 L 280.800781 222.839844 C 281.261719 222.773438 281.722656 223.132812 281.773438 223.617188 C 281.828125 224.105469 281.476562 224.539062 280.992188 224.589844 L 271.484375 225.636719 C 271.457031 225.640625 271.421875 225.640625 271.390625 225.640625 " fill-opacity="1" fill-rule="nonzero"/><path fill="#5ea835" d="M 275.039062 230.179688 C 274.804688 230.179688 274.570312 230.085938 274.398438 229.902344 C 274.0625 229.550781 274.078125 228.992188 274.429688 228.652344 L 280.285156 223.074219 C 280.640625 222.742188 281.195312 222.75 281.535156 223.105469 C 281.871094 223.460938 281.855469 224.019531 281.503906 224.351562 L 275.648438 229.9375 C 275.472656 230.097656 275.257812 230.179688 275.039062 230.179688 " fill-opacity="1" fill-rule="nonzero"/><path fill="#5ea835" d="M 280.894531 224.59375 C 280.753906 224.59375 280.605469 224.5625 280.46875 224.484375 L 273.527344 220.625 C 273.101562 220.386719 272.949219 219.847656 273.1875 219.425781 C 273.421875 219 273.960938 218.847656 274.386719 219.082031 L 281.324219 222.945312 C 281.75 223.179688 281.902344 223.71875 281.667969 224.140625 C 281.503906 224.433594 281.207031 224.59375 280.894531 224.59375 " fill-opacity="1" fill-rule="nonzero"/><path fill="#5ea835" d="M 158.582031 82.472656 C 158.449219 82.472656 158.316406 82.441406 158.191406 82.378906 L 149.617188 78.144531 C 149.183594 77.929688 149.003906 77.398438 149.21875 76.964844 C 149.433594 76.527344 149.964844 76.351562 150.402344 76.5625 L 158.972656 80.800781 C 159.410156 81.015625 159.585938 81.539062 159.371094 81.980469 C 159.21875 82.289062 158.90625 82.472656 158.582031 82.472656 " fill-opacity="1" fill-rule="nonzero"/><path fill="#5ea835" d="M 150.636719 84.019531 C 150.222656 84.019531 149.855469 83.730469 149.773438 83.308594 C 149.679688 82.832031 149.992188 82.367188 150.46875 82.273438 L 158.414062 80.722656 C 158.886719 80.636719 159.355469 80.9375 159.445312 81.421875 C 159.539062 81.894531 159.230469 82.363281 158.753906 82.453125 L 150.808594 84.007812 C 150.753906 84.015625 150.691406 84.019531 150.636719 84.019531 " fill-opacity="1" fill-rule="nonzero"/><path fill="#5ea835" d="M 158.582031 82.472656 C 158.269531 82.472656 157.964844 82.304688 157.804688 82.003906 L 154.03125 75.019531 C 153.804688 74.59375 153.960938 74.054688 154.394531 73.824219 C 154.8125 73.597656 155.355469 73.75 155.585938 74.183594 L 159.359375 81.171875 C 159.589844 81.597656 159.429688 82.132812 159.003906 82.367188 C 158.867188 82.4375 158.722656 82.472656 158.582031 82.472656 " fill-opacity="1" fill-rule="nonzero"/><path fill="#5ea835" d="M 149.328125 118.164062 C 149.277344 118.164062 149.226562 118.160156 149.175781 118.152344 L 139.753906 116.527344 C 139.273438 116.441406 138.949219 115.988281 139.035156 115.503906 C 139.117188 115.023438 139.574219 114.699219 140.054688 114.785156 L 149.476562 116.410156 C 149.960938 116.492188 150.28125 116.949219 150.199219 117.433594 C 150.125 117.859375 149.75 118.164062 149.328125 118.164062 " fill-opacity="1" fill-rule="nonzero"/><path fill="#5ea835" d="M 142.15625 121.90625 C 141.835938 121.90625 141.527344 121.734375 141.371094 121.433594 C 141.148438 121 141.3125 120.46875 141.746094 120.242188 L 148.917969 116.496094 C 149.351562 116.277344 149.882812 116.441406 150.109375 116.875 C 150.335938 117.304688 150.167969 117.839844 149.738281 118.0625 L 142.5625 121.808594 C 142.429688 121.871094 142.289062 121.90625 142.15625 121.90625 " fill-opacity="1" fill-rule="nonzero"/><path fill="#5ea835" d="M 149.328125 118.164062 C 149.101562 118.164062 148.878906 118.074219 148.703125 117.902344 L 143.097656 112.277344 C 142.757812 111.929688 142.757812 111.375 143.101562 111.027344 C 143.445312 110.683594 144.003906 110.683594 144.351562 111.03125 L 149.953125 116.65625 C 150.296875 117.003906 150.296875 117.5625 149.953125 117.90625 C 149.777344 118.074219 149.554688 118.164062 149.328125 118.164062 " fill-opacity="1" fill-rule="nonzero"/><path fill="#5ea835" d="M 137.367188 154.199219 C 136.9375 154.199219 136.558594 153.882812 136.496094 153.445312 C 136.421875 152.964844 136.757812 152.515625 137.242188 152.441406 L 146.703125 151.054688 C 147.179688 150.996094 147.632812 151.316406 147.703125 151.800781 C 147.773438 152.28125 147.4375 152.730469 146.957031 152.804688 L 137.5 154.191406 C 137.453125 154.195312 137.410156 154.199219 137.367188 154.199219 " fill-opacity="1" fill-rule="nonzero"/><path fill="#5ea835" d="M 141.175781 158.601562 C 140.953125 158.601562 140.734375 158.515625 140.558594 158.347656 C 140.210938 158.007812 140.203125 157.449219 140.546875 157.097656 L 146.199219 151.3125 C 146.539062 150.964844 147.097656 150.957031 147.445312 151.300781 C 147.792969 151.640625 147.800781 152.199219 147.460938 152.542969 L 141.808594 158.335938 C 141.632812 158.507812 141.40625 158.601562 141.175781 158.601562 " fill-opacity="1" fill-rule="nonzero"/><path fill="#5ea835" d="M 146.828125 152.8125 C 146.691406 152.8125 146.558594 152.78125 146.429688 152.714844 L 139.351562 149.109375 C 138.921875 148.886719 138.746094 148.355469 138.96875 147.921875 C 139.1875 147.484375 139.726562 147.316406 140.152344 147.535156 L 147.230469 151.144531 C 147.664062 151.363281 147.839844 151.898438 147.617188 152.328125 C 147.460938 152.632812 147.148438 152.8125 146.828125 152.8125 " fill-opacity="1" fill-rule="nonzero"/><path fill="#5ea835" d="M 130.25 185.808594 C 130.070312 185.808594 129.886719 185.753906 129.726562 185.632812 C 129.335938 185.347656 129.253906 184.796875 129.546875 184.402344 L 135.234375 176.71875 C 135.527344 176.324219 136.082031 176.246094 136.46875 176.53125 C 136.859375 176.824219 136.945312 177.375 136.652344 177.769531 L 130.964844 185.453125 C 130.789062 185.683594 130.523438 185.808594 130.25 185.808594 " fill-opacity="1" fill-rule="nonzero"/><path fill="#5ea835" d="M 130.25 185.808594 C 129.769531 185.808594 129.375 185.421875 129.371094 184.941406 L 129.257812 176.847656 C 129.25 176.363281 129.636719 175.960938 130.125 175.953125 C 130.128906 175.953125 130.132812 175.953125 130.136719 175.953125 C 130.621094 175.953125 131.015625 176.339844 131.019531 176.824219 L 131.136719 184.914062 C 131.140625 185.402344 130.75 185.804688 130.265625 185.808594 C 130.261719 185.808594 130.257812 185.808594 130.25 185.808594 " fill-opacity="1" fill-rule="nonzero"/><path fill="#5ea835" d="M 130.25 185.808594 C 129.882812 185.808594 129.535156 185.574219 129.414062 185.203125 C 129.261719 184.742188 129.515625 184.242188 129.980469 184.089844 L 137.523438 181.617188 C 137.984375 181.464844 138.484375 181.71875 138.636719 182.183594 C 138.789062 182.644531 138.535156 183.144531 138.074219 183.296875 L 130.527344 185.765625 C 130.433594 185.796875 130.34375 185.808594 130.25 185.808594 " fill-opacity="1" fill-rule="nonzero"/><path fill="#5ea835" d="M 128.316406 140.949219 C 128.300781 140.949219 128.28125 140.949219 128.261719 140.949219 L 118.71875 140.359375 C 118.230469 140.324219 117.863281 139.90625 117.890625 139.421875 C 117.925781 138.933594 118.277344 138.550781 118.828125 138.597656 L 128.371094 139.191406 C 128.859375 139.21875 129.226562 139.636719 129.199219 140.125 C 129.167969 140.589844 128.777344 140.949219 128.316406 140.949219 " fill-opacity="1" fill-rule="nonzero"/><path fill="#5ea835" d="M 118.773438 140.359375 C 118.488281 140.359375 118.210938 140.21875 118.039062 139.96875 C 117.769531 139.5625 117.878906 139.015625 118.28125 138.742188 L 125.007812 134.242188 C 125.414062 133.972656 125.960938 134.082031 126.234375 134.488281 C 126.503906 134.890625 126.394531 135.4375 125.988281 135.710938 L 119.261719 140.210938 C 119.109375 140.3125 118.941406 140.359375 118.773438 140.359375 " fill-opacity="1" fill-rule="nonzero"/><path fill="#5ea835" d="M 124.949219 145.34375 C 124.757812 145.34375 124.558594 145.28125 124.394531 145.148438 L 118.21875 140.160156 C 117.839844 139.859375 117.78125 139.300781 118.085938 138.921875 C 118.390625 138.542969 118.949219 138.484375 119.328125 138.792969 L 125.503906 143.777344 C 125.882812 144.082031 125.941406 144.636719 125.632812 145.019531 C 125.460938 145.234375 125.207031 145.34375 124.949219 145.34375 " fill-opacity="1" fill-rule="nonzero"/><path fill="#5ea835" d="M 111.925781 109.039062 C 111.636719 109.039062 111.351562 108.894531 111.183594 108.632812 C 110.917969 108.214844 111.042969 107.675781 111.457031 107.414062 L 119.53125 102.289062 C 119.941406 102.03125 120.488281 102.152344 120.75 102.566406 C 121.011719 102.976562 120.886719 103.523438 120.472656 103.78125 L 112.402344 108.902344 C 112.253906 108.996094 112.089844 109.039062 111.925781 109.039062 " fill-opacity="1" fill-rule="nonzero"/><path fill="#5ea835" d="M 111.925781 109.039062 C 111.824219 109.039062 111.722656 109.019531 111.621094 108.984375 C 111.164062 108.8125 110.933594 108.308594 111.101562 107.851562 L 113.902344 100.261719 C 114.074219 99.804688 114.585938 99.570312 115.039062 99.742188 C 115.496094 99.910156 115.726562 100.414062 115.558594 100.871094 L 112.757812 108.460938 C 112.621094 108.816406 112.285156 109.039062 111.925781 109.039062 " fill-opacity="1" fill-rule="nonzero"/><path fill="#5ea835" d="M 119.855469 109.453125 C 119.84375 109.453125 119.824219 109.453125 119.808594 109.449219 L 111.878906 109.039062 C 111.394531 109.011719 111.019531 108.597656 111.046875 108.109375 C 111.070312 107.625 111.492188 107.242188 111.972656 107.277344 L 119.902344 107.6875 C 120.390625 107.710938 120.761719 108.128906 120.734375 108.613281 C 120.714844 109.085938 120.324219 109.453125 119.855469 109.453125 " fill-opacity="1" fill-rule="nonzero"/><path fill="#5ea835" d="M 91.984375 94.980469 C 91.933594 94.980469 91.882812 94.972656 91.832031 94.964844 C 91.351562 94.878906 91.03125 94.421875 91.117188 93.941406 L 92.789062 84.523438 C 92.875 84.046875 93.339844 83.738281 93.808594 83.8125 C 94.292969 83.894531 94.609375 84.355469 94.523438 84.832031 L 92.851562 94.246094 C 92.777344 94.679688 92.40625 94.980469 91.984375 94.980469 " fill-opacity="1" fill-rule="nonzero"/><path fill="#5ea835" d="M 91.984375 94.980469 C 91.667969 94.980469 91.359375 94.804688 91.203125 94.5 L 87.496094 87.308594 C 87.269531 86.875 87.4375 86.339844 87.875 86.121094 C 88.308594 85.894531 88.835938 86.066406 89.058594 86.496094 L 92.769531 93.6875 C 92.992188 94.125 92.824219 94.660156 92.390625 94.878906 C 92.261719 94.945312 92.121094 94.980469 91.984375 94.980469 " fill-opacity="1" fill-rule="nonzero"/><path fill="#5ea835" d="M 91.984375 94.980469 C 91.757812 94.980469 91.53125 94.890625 91.359375 94.714844 C 91.015625 94.367188 91.019531 93.8125 91.367188 93.46875 L 97.023438 87.894531 C 97.367188 87.554688 97.925781 87.554688 98.273438 87.902344 C 98.609375 88.25 98.605469 88.808594 98.257812 89.152344 L 92.605469 94.726562 C 92.433594 94.894531 92.210938 94.980469 91.984375 94.980469 " fill-opacity="1" fill-rule="nonzero"/><path fill="#5ea835" d="M 67.460938 113.183594 C 67.367188 113.183594 67.269531 113.167969 67.175781 113.136719 L 58.113281 110.082031 C 57.652344 109.925781 57.40625 109.425781 57.558594 108.960938 C 57.714844 108.503906 58.210938 108.261719 58.675781 108.410156 L 67.738281 111.46875 C 68.199219 111.621094 68.449219 112.121094 68.292969 112.585938 C 68.171875 112.949219 67.828125 113.183594 67.460938 113.183594 " fill-opacity="1" fill-rule="nonzero"/><path fill="#5ea835" d="M 59.792969 115.777344 C 59.425781 115.777344 59.082031 115.546875 58.957031 115.179688 C 58.796875 114.71875 59.046875 114.21875 59.511719 114.058594 L 67.175781 111.46875 C 67.640625 111.316406 68.136719 111.554688 68.292969 112.019531 C 68.449219 112.480469 68.199219 112.980469 67.738281 113.136719 L 60.074219 115.730469 C 59.980469 115.765625 59.886719 115.777344 59.792969 115.777344 " fill-opacity="1" fill-rule="nonzero"/><path fill="#5ea835" d="M 67.460938 113.183594 C 67.183594 113.183594 66.917969 113.058594 66.742188 112.816406 L 62.074219 106.394531 C 61.789062 106.003906 61.871094 105.453125 62.269531 105.164062 C 62.664062 104.882812 63.214844 104.960938 63.5 105.359375 L 68.171875 111.78125 C 68.457031 112.175781 68.371094 112.730469 67.976562 113.011719 C 67.820312 113.125 67.636719 113.183594 67.460938 113.183594 " fill-opacity="1" fill-rule="nonzero"/><g clip-path="url(#343db92840)"><path fill="#5ea835" d="M 53.453125 167.101562 C 53.042969 167.101562 52.667969 166.804688 52.589844 166.386719 C 52.496094 165.910156 52.808594 165.441406 53.289062 165.347656 L 62.671875 163.523438 C 63.144531 163.4375 63.617188 163.746094 63.710938 164.222656 C 63.800781 164.703125 63.488281 165.167969 63.011719 165.261719 L 53.625 167.085938 C 53.566406 167.09375 53.511719 167.101562 53.453125 167.101562 " fill-opacity="1" fill-rule="nonzero"/></g><path fill="#5ea835" d="M 57.460938 171.316406 C 57.253906 171.316406 57.046875 171.246094 56.875 171.09375 C 56.511719 170.773438 56.484375 170.214844 56.804688 169.851562 L 62.183594 163.808594 C 62.507812 163.441406 63.066406 163.410156 63.429688 163.734375 C 63.792969 164.058594 63.824219 164.617188 63.5 164.976562 L 58.121094 171.023438 C 57.949219 171.21875 57.707031 171.316406 57.460938 171.316406 " fill-opacity="1" fill-rule="nonzero"/><path fill="#5ea835" d="M 62.839844 165.273438 C 62.71875 165.273438 62.597656 165.246094 62.476562 165.195312 L 55.242188 161.921875 C 54.796875 161.722656 54.605469 161.199219 54.804688 160.757812 C 55.007812 160.3125 55.535156 160.117188 55.972656 160.316406 L 63.207031 163.589844 C 63.648438 163.792969 63.847656 164.3125 63.644531 164.757812 C 63.496094 165.082031 63.179688 165.273438 62.839844 165.273438 " fill-opacity="1" fill-rule="nonzero"/><path fill="#5ea835" d="M 70.789062 207.023438 C 70.535156 207.023438 70.292969 206.917969 70.117188 206.714844 C 69.800781 206.34375 69.847656 205.789062 70.214844 205.46875 L 77.492188 199.265625 C 77.859375 198.945312 78.417969 198.992188 78.734375 199.367188 C 79.054688 199.734375 79.007812 200.292969 78.632812 200.609375 L 71.363281 206.8125 C 71.195312 206.957031 70.988281 207.023438 70.789062 207.023438 " fill-opacity="1" fill-rule="nonzero"/><path fill="#5ea835" d="M 76.351562 208.730469 C 76.292969 208.730469 76.230469 208.722656 76.167969 208.707031 C 75.6875 208.605469 75.386719 208.136719 75.492188 207.660156 L 77.203125 199.75 C 77.304688 199.277344 77.773438 198.972656 78.25 199.074219 C 78.726562 199.175781 79.027344 199.648438 78.925781 200.125 L 77.214844 208.03125 C 77.128906 208.445312 76.757812 208.730469 76.351562 208.730469 " fill-opacity="1" fill-rule="nonzero"/><path fill="#5ea835" d="M 70.152344 201.523438 C 69.703125 201.523438 69.316406 201.183594 69.277344 200.726562 C 69.234375 200.238281 69.59375 199.804688 70.074219 199.765625 L 77.988281 199.0625 C 78.453125 199.039062 78.902344 199.375 78.945312 199.855469 C 78.984375 200.34375 78.625 200.777344 78.144531 200.816406 L 70.230469 201.519531 C 70.207031 201.523438 70.179688 201.523438 70.152344 201.523438 " fill-opacity="1" fill-rule="nonzero"/><path fill="#5ea835" d="M 104.804688 233.011719 C 104.691406 233.011719 104.582031 232.988281 104.480469 232.945312 C 104.027344 232.769531 103.804688 232.253906 103.980469 231.804688 L 107.503906 222.910156 C 107.6875 222.457031 108.203125 222.234375 108.648438 222.414062 C 109.097656 222.597656 109.324219 223.109375 109.140625 223.558594 L 105.625 232.449219 C 105.484375 232.796875 105.15625 233.011719 104.804688 233.011719 " fill-opacity="1" fill-rule="nonzero"/><path fill="#5ea835" d="M 110.519531 231.90625 C 110.132812 231.90625 109.777344 231.652344 109.671875 231.261719 L 107.472656 223.472656 C 107.34375 223.007812 107.613281 222.519531 108.082031 222.386719 C 108.5625 222.261719 109.039062 222.527344 109.171875 222.996094 L 111.367188 230.785156 C 111.5 231.253906 111.222656 231.738281 110.757812 231.871094 C 110.679688 231.898438 110.597656 231.90625 110.519531 231.90625 " fill-opacity="1" fill-rule="nonzero"/><path fill="#5ea835" d="M 101.667969 228.445312 C 101.378906 228.445312 101.097656 228.308594 100.929688 228.042969 C 100.664062 227.636719 100.777344 227.09375 101.1875 226.824219 L 107.84375 222.496094 C 108.25 222.234375 108.792969 222.34375 109.0625 222.753906 C 109.328125 223.164062 109.214844 223.710938 108.804688 223.976562 L 102.148438 228.304688 C 102 228.398438 101.832031 228.445312 101.667969 228.445312 " fill-opacity="1" fill-rule="nonzero"/><path fill="#5ea835" d="M 136.792969 233.011719 C 136.683594 233.011719 136.570312 232.988281 136.464844 232.945312 C 136.011719 232.769531 135.792969 232.253906 135.96875 231.804688 L 139.492188 222.910156 C 139.671875 222.457031 140.191406 222.234375 140.636719 222.414062 C 141.089844 222.597656 141.3125 223.109375 141.128906 223.558594 L 137.613281 232.449219 C 137.472656 232.796875 137.144531 233.011719 136.792969 233.011719 " fill-opacity="1" fill-rule="nonzero"/><path fill="#5ea835" d="M 142.507812 231.90625 C 142.121094 231.90625 141.769531 231.652344 141.65625 231.261719 L 139.464844 223.472656 C 139.332031 223.007812 139.601562 222.519531 140.074219 222.386719 C 140.550781 222.261719 141.027344 222.527344 141.160156 222.996094 L 143.355469 230.785156 C 143.488281 231.253906 143.214844 231.738281 142.746094 231.871094 C 142.664062 231.898438 142.585938 231.90625 142.507812 231.90625 " fill-opacity="1" fill-rule="nonzero"/><path fill="#5ea835" d="M 133.65625 228.445312 C 133.367188 228.445312 133.082031 228.308594 132.917969 228.042969 C 132.652344 227.636719 132.765625 227.09375 133.175781 226.824219 L 139.832031 222.496094 C 140.238281 222.234375 140.785156 222.34375 141.050781 222.753906 C 141.316406 223.164062 141.203125 223.710938 140.792969 223.976562 L 134.136719 228.304688 C 133.988281 228.398438 133.820312 228.445312 133.65625 228.445312 " fill-opacity="1" fill-rule="nonzero"/><path fill="#5ea835" d="M 144.023438 266.726562 C 143.59375 266.726562 143.214844 266.414062 143.148438 265.972656 C 143.078125 265.488281 143.414062 265.042969 143.894531 264.96875 L 153.351562 263.558594 C 153.835938 263.496094 154.28125 263.820312 154.355469 264.304688 C 154.425781 264.78125 154.09375 265.234375 153.609375 265.304688 L 144.152344 266.714844 C 144.109375 266.722656 144.0625 266.726562 144.023438 266.726562 " fill-opacity="1" fill-rule="nonzero"/><path fill="#5ea835" d="M 147.84375 271.121094 C 147.621094 271.121094 147.398438 271.035156 147.226562 270.871094 C 146.878906 270.53125 146.871094 269.972656 147.210938 269.621094 L 152.851562 263.816406 C 153.191406 263.46875 153.75 263.460938 154.097656 263.800781 C 154.449219 264.140625 154.453125 264.699219 154.113281 265.050781 L 148.476562 270.851562 C 148.300781 271.03125 148.074219 271.121094 147.84375 271.121094 " fill-opacity="1" fill-rule="nonzero"/><path fill="#5ea835" d="M 153.484375 265.316406 C 153.347656 265.316406 153.210938 265.28125 153.085938 265.21875 L 146 261.632812 C 145.5625 261.414062 145.390625 260.878906 145.609375 260.445312 C 145.828125 260.011719 146.363281 259.84375 146.792969 260.058594 L 153.878906 263.644531 C 154.316406 263.863281 154.488281 264.398438 154.269531 264.828125 C 154.113281 265.136719 153.804688 265.316406 153.484375 265.316406 " fill-opacity="1" fill-rule="nonzero"/><path fill="#5ea835" d="M 148.75 303.886719 C 148.324219 303.886719 147.945312 303.574219 147.882812 303.136719 C 147.804688 302.65625 148.140625 302.203125 148.625 302.136719 L 158.078125 300.722656 C 158.574219 300.65625 159.011719 300.980469 159.082031 301.460938 C 159.15625 301.945312 158.820312 302.394531 158.34375 302.464844 L 148.882812 303.878906 C 148.839844 303.882812 148.792969 303.886719 148.75 303.886719 " fill-opacity="1" fill-rule="nonzero"/><path fill="#5ea835" d="M 152.574219 308.28125 C 152.347656 308.28125 152.128906 308.195312 151.953125 308.027344 C 151.605469 307.6875 151.597656 307.128906 151.9375 306.78125 L 157.574219 300.980469 C 157.917969 300.632812 158.476562 300.625 158.824219 300.960938 C 159.175781 301.300781 159.179688 301.859375 158.839844 302.207031 L 153.203125 308.015625 C 153.03125 308.1875 152.800781 308.28125 152.574219 308.28125 " fill-opacity="1" fill-rule="nonzero"/><path fill="#5ea835" d="M 158.210938 302.476562 C 158.074219 302.476562 157.941406 302.445312 157.8125 302.378906 L 150.726562 298.789062 C 150.289062 298.570312 150.117188 298.042969 150.335938 297.605469 C 150.558594 297.167969 151.089844 297 151.527344 297.214844 L 158.609375 300.804688 C 159.042969 301.027344 159.21875 301.558594 159 301.992188 C 158.839844 302.300781 158.53125 302.476562 158.210938 302.476562 " fill-opacity="1" fill-rule="nonzero"/><path fill="#5ea835" d="M 152.566406 344.984375 C 152.140625 344.984375 151.765625 344.671875 151.699219 344.238281 C 151.628906 343.75 151.957031 343.300781 152.441406 343.234375 L 161.898438 341.820312 C 162.382812 341.746094 162.828125 342.082031 162.902344 342.558594 C 162.972656 343.042969 162.644531 343.492188 162.160156 343.5625 L 152.703125 344.972656 C 152.65625 344.980469 152.609375 344.984375 152.566406 344.984375 " fill-opacity="1" fill-rule="nonzero"/><path fill="#5ea835" d="M 156.390625 349.375 C 156.167969 349.375 155.945312 349.292969 155.777344 349.125 C 155.425781 348.785156 155.417969 348.226562 155.753906 347.882812 L 161.398438 342.078125 C 161.738281 341.730469 162.296875 341.722656 162.648438 342.0625 C 162.996094 342.398438 163.003906 342.957031 162.660156 343.304688 L 157.019531 349.109375 C 156.851562 349.285156 156.621094 349.375 156.390625 349.375 " fill-opacity="1" fill-rule="nonzero"/><path fill="#5ea835" d="M 162.027344 343.570312 C 161.894531 343.570312 161.757812 343.542969 161.632812 343.480469 L 154.546875 339.890625 C 154.113281 339.667969 153.9375 339.140625 154.15625 338.703125 C 154.378906 338.269531 154.914062 338.101562 155.339844 338.316406 L 162.425781 341.902344 C 162.863281 342.125 163.035156 342.65625 162.816406 343.089844 C 162.660156 343.398438 162.351562 343.570312 162.027344 343.570312 " fill-opacity="1" fill-rule="nonzero"/><path fill="#f8748d" d="M 202.484375 23.535156 C 176.035156 0.292969 158.546875 39.875 202.484375 56.5625 C 246.425781 39.875 228.9375 0.292969 202.484375 23.535156 " fill-opacity="1" fill-rule="nonzero"/></svg>