<svg xmlns="http://www.w3.org/2000/svg" xmlns:xlink="http://www.w3.org/1999/xlink" width="500" zoomAndPan="magnify" viewBox="0 0 375 374.999991" height="500" preserveAspectRatio="xMidYMid meet" version="1.0"><defs><clipPath id="85021a974f"><path d="M 97 78 L 358.707031 78 L 358.707031 309 L 97 309 Z M 97 78 " clip-rule="nonzero"/></clipPath><clipPath id="9a117e5627"><path d="M 24.207031 214 L 34 214 L 34 225 L 24.207031 225 Z M 24.207031 214 " clip-rule="nonzero"/></clipPath><clipPath id="26ef6c1c14"><path d="M 211 0 L 356 0 L 356 374.828125 L 211 374.828125 Z M 211 0 " clip-rule="nonzero"/></clipPath></defs><g clip-path="url(#85021a974f)"><path fill="#e0a68a" d="M 209.773438 125.511719 C 211.925781 122.566406 214.058594 120.035156 215.773438 117.246094 C 233.464844 88.429688 261.007812 79.128906 292.832031 78.460938 C 309.488281 78.113281 324.375 83.375 338.082031 92.742188 C 351.28125 101.765625 358.128906 114.027344 358.367188 129.929688 C 358.578125 144.070312 357.65625 158.121094 352.222656 171.394531 C 336.992188 208.621094 321.515625 245.734375 299.1875 279.5 C 292 290.371094 283.078125 299.058594 271 304.410156 C 263.441406 307.753906 255.722656 309.285156 247.511719 308.285156 C 226.710938 305.753906 206.671875 301.050781 188.46875 289.914062 C 171.878906 279.761719 155.429688 269.507812 140.007812 257.554688 C 118.269531 240.703125 106.296875 217.84375 99.179688 192.257812 C 93.585938 172.117188 104.386719 146.621094 122.832031 134.230469 C 143.847656 120.105469 166.933594 115.28125 191.871094 120.863281 C 197.699219 122.164062 203.429688 123.855469 209.773438 125.511719 " fill-opacity="1" fill-rule="nonzero"/></g><path fill="#8c4e37" d="M 140.535156 150.675781 C 127.277344 152.257812 114.519531 157.140625 102.378906 165.292969 C 84.433594 177.355469 74.492188 201.628906 79.753906 220.550781 C 87.628906 248.871094 100.695312 269.796875 119.699219 284.53125 C 134.882812 296.304688 151.179688 306.484375 167.933594 316.730469 C 183.386719 326.191406 201.28125 331.75 225.957031 334.753906 C 233.269531 335.640625 240.519531 334.4375 248.113281 331.070312 C 258.816406 326.332031 267.679688 318.484375 275.21875 307.085938 C 298.183594 272.351562 314.039062 233.601562 328.023438 199.414062 C 333.601562 185.777344 334.167969 171.300781 333.980469 158.941406 C 333.753906 143.964844 327.480469 132.46875 314.792969 123.800781 C 300.699219 114.160156 286.378906 109.632812 271.027344 109.957031 C 235.167969 110.71875 211.347656 122.65625 196.066406 147.542969 C 194.84375 149.53125 193.464844 151.339844 192.003906 153.253906 C 191.328125 154.132812 190.640625 155.03125 189.953125 155.972656 L 188.933594 157.363281 L 187.269531 156.929688 C 185.230469 156.394531 183.246094 155.855469 181.308594 155.328125 C 177.222656 154.21875 173.359375 153.171875 169.460938 152.296875 C 159.597656 150.089844 149.941406 149.550781 140.535156 150.675781 Z M 235.742188 339.78125 C 232.273438 340.195312 228.824219 340.191406 225.34375 339.761719 C 199.917969 336.667969 181.398438 330.894531 165.292969 321.039062 C 148.414062 310.710938 131.988281 300.449219 116.601562 288.519531 C 96.707031 273.097656 83.0625 251.308594 74.886719 221.902344 C 69.082031 201.011719 79.914062 174.308594 99.5625 161.101562 C 121.507812 146.359375 145.394531 141.742188 170.566406 147.371094 C 174.578125 148.269531 178.488281 149.332031 182.628906 150.453125 C 184.03125 150.839844 185.453125 151.222656 186.90625 151.609375 C 187.265625 151.128906 187.628906 150.65625 187.984375 150.191406 C 189.367188 148.378906 190.671875 146.671875 191.757812 144.898438 C 208.027344 118.410156 233.179688 105.699219 270.921875 104.910156 C 287.363281 104.5625 302.648438 109.378906 317.648438 119.628906 C 331.589844 129.160156 338.789062 142.359375 339.035156 158.859375 C 339.226562 171.734375 338.628906 186.84375 332.703125 201.320312 C 318.625 235.726562 302.671875 274.722656 279.433594 309.867188 C 271.34375 322.097656 261.773438 330.542969 250.164062 335.691406 C 245.273438 337.851562 240.496094 339.214844 235.742188 339.78125 " fill-opacity="1" fill-rule="nonzero"/><path fill="#edcfc2" d="M 95.558594 153.074219 C 92.875 153.546875 90.355469 151.898438 90.121094 149.222656 C 89.972656 147.480469 90.105469 145.636719 90.53125 143.949219 C 91.121094 141.597656 93.773438 140.214844 96.53125 140.449219 C 98.671875 140.636719 100.628906 142.3125 101.121094 144.378906 C 102.191406 148.875 100.003906 152.292969 95.558594 153.074219 " fill-opacity="1" fill-rule="nonzero"/><path fill="#edcfc2" d="M 79.667969 174.679688 C 79.023438 170.5 80.433594 168.289062 83.066406 167.933594 C 85.808594 167.5625 88.070312 169.023438 88.785156 171.636719 C 88.875 171.976562 88.972656 172.324219 89.027344 172.675781 C 89.527344 176.167969 88.039062 179.085938 85.507812 179.621094 C 82.894531 180.179688 80.511719 178.132812 79.660156 174.589844 C 79.574219 174.242188 79.570312 173.878906 79.667969 174.679688 " fill-opacity="1" fill-rule="nonzero"/><path fill="#edcfc2" d="M 108.703125 192.785156 C 109.015625 196.578125 106.800781 199.582031 103.742188 199.515625 C 100.953125 199.457031 98.667969 197.207031 98.261719 194.109375 C 97.820312 190.796875 100.203125 187.660156 103.386719 187.359375 C 105.988281 187.109375 108.441406 189.613281 108.703125 192.785156 " fill-opacity="1" fill-rule="nonzero"/><path fill="#edcfc2" d="M 79.304688 132.195312 C 78.371094 133.777344 77.78125 135.492188 76.609375 136.585938 C 75.203125 137.890625 72.457031 137.035156 70.949219 135.242188 C 68.785156 132.667969 68.898438 129.183594 71.226562 126.503906 C 72.21875 125.355469 75.140625 125.148438 76.082031 126.4375 C 77.292969 128.097656 78.125 130.035156 79.304688 132.195312 " fill-opacity="1" fill-rule="nonzero"/><path fill="#edcfc2" d="M 129.96875 138.128906 C 130.144531 141.316406 128.179688 144.078125 125.429688 144.503906 C 122.503906 144.957031 119.582031 142.375 119.773438 139.507812 C 119.949219 136.925781 122.507812 134.609375 125.65625 134.183594 C 127.570312 133.925781 129.851562 136.011719 129.96875 138.128906 " fill-opacity="1" fill-rule="nonzero"/><path fill="#edcfc2" d="M 52.054688 216.933594 C 52.976562 216.972656 53.730469 216.839844 54.363281 217.066406 C 57.492188 218.167969 58.875 220.484375 58.332031 223.707031 C 58.027344 225.554688 57.125 227.207031 55.242188 227.648438 C 53.28125 228.113281 51.921875 226.800781 50.878906 225.242188 C 49.605469 223.351562 49.140625 221.292969 50.132812 219.1875 C 50.554688 218.285156 51.460938 217.605469 52.054688 216.933594 " fill-opacity="1" fill-rule="nonzero"/><path fill="#edcfc2" d="M 134.824219 189.710938 C 134.375 191.199219 134.132812 192.589844 133.546875 193.816406 C 132.285156 196.457031 128.230469 196.683594 126.484375 194.300781 C 124.367188 191.402344 125.515625 186.972656 128.863281 185.378906 C 130.253906 184.71875 131.703125 184.960938 132.683594 186.128906 C 133.546875 187.160156 134.097656 188.460938 134.824219 189.710938 " fill-opacity="1" fill-rule="nonzero"/><path fill="#edcfc2" d="M 68.070312 254.675781 C 67.796875 255.96875 67.652344 257.015625 67.351562 258.015625 C 66.839844 259.734375 64.328125 260.402344 62.960938 259.28125 C 60.898438 257.597656 59.566406 255.464844 60.105469 252.8125 C 60.34375 251.613281 61.433594 249.988281 62.460938 249.703125 C 63.492188 249.417969 65.175781 250.28125 66.105469 251.144531 C 67.070312 252.042969 67.472656 253.542969 68.070312 254.675781 " fill-opacity="1" fill-rule="nonzero"/><g clip-path="url(#9a117e5627)"><path fill="#edcfc2" d="M 30.082031 224.132812 C 27.472656 224.402344 25.046875 222.566406 24.664062 220.03125 C 24.339844 217.867188 25.859375 215.113281 27.542969 214.8125 C 30.078125 214.355469 33.242188 216.820312 33.699219 219.609375 C 34.035156 221.660156 32.238281 223.90625 30.082031 224.132812 " fill-opacity="1" fill-rule="nonzero"/></g><path fill="#edcfc2" d="M 133.566406 105.664062 C 134.113281 108.707031 133.226562 110.8125 131.632812 111.167969 C 130.683594 111.382812 129.339844 111.367188 128.613281 110.84375 C 126.105469 109.027344 124.992188 106.417969 125.691406 103.347656 C 125.898438 102.445312 126.761719 101.367188 127.597656 101.03125 C 128.40625 100.703125 129.941406 100.867188 130.492188 101.445312 C 131.910156 102.941406 132.953125 104.789062 133.566406 105.664062 " fill-opacity="1" fill-rule="nonzero"/><path fill="#edcfc2" d="M 103.523438 116.390625 C 103.328125 118.683594 101.484375 120.640625 99.546875 120.609375 C 96.457031 120.566406 94.296875 117.371094 94.949219 113.695312 C 95.230469 112.089844 96.378906 111.257812 97.941406 111.351562 C 101.46875 111.546875 103.75 113.683594 103.523438 116.390625 " fill-opacity="1" fill-rule="nonzero"/><path fill="#edcfc2" d="M 59.664062 189.265625 C 62.277344 189.117188 64.667969 190.933594 65.085938 193.375 C 65.445312 195.488281 63.875 197.808594 61.847656 198.160156 C 59.054688 198.652344 56.65625 196.289062 56.542969 192.925781 C 56.484375 191.164062 58.019531 189.355469 59.664062 189.265625 " fill-opacity="1" fill-rule="nonzero"/><path fill="#edcfc2" d="M 158.679688 143.9375 C 157.582031 145.863281 157.03125 147.617188 155.855469 148.695312 C 154.320312 150.097656 152.265625 149.519531 151.074219 148.054688 C 150.023438 146.757812 149.242188 145.003906 149 143.351562 C 148.679688 141.195312 151.386719 139.144531 153.359375 140.058594 C 155.164062 140.890625 156.648438 142.414062 158.679688 143.9375 " fill-opacity="1" fill-rule="nonzero"/><path fill="#edcfc2" d="M 117.109375 164.460938 C 119.1875 164.222656 121.179688 165.875 121.570312 168.164062 C 122.046875 170.96875 120.492188 173.367188 117.941406 173.757812 C 115.375 174.15625 112.867188 172.179688 112.710938 169.628906 C 112.554688 167.066406 114.523438 164.753906 117.109375 164.460938 " fill-opacity="1" fill-rule="nonzero"/><path fill="#edcfc2" d="M 114.335938 228.667969 C 114.292969 229.179688 114.300781 230.265625 114.097656 231.304688 C 113.734375 233.195312 112.105469 234.507812 110.347656 234.476562 C 108.660156 234.445312 107.351562 232.640625 107.605469 230.578125 C 107.742188 229.515625 107.777344 228.320312 108.304688 227.453125 C 108.984375 226.34375 109.953125 225.171875 111.085938 224.632812 C 112.347656 224.035156 114.078125 226.085938 114.335938 228.667969 " fill-opacity="1" fill-rule="nonzero"/><path fill="#edcfc2" d="M 143.605469 117.40625 C 145.789062 116.921875 147.898438 118.140625 148.492188 120.230469 C 149.21875 122.789062 147.792969 125.554688 145.488281 126.035156 C 143.257812 126.492188 140.566406 124.4375 140.21875 122.007812 C 139.925781 119.964844 141.457031 117.882812 143.605469 117.40625 " fill-opacity="1" fill-rule="nonzero"/><path fill="#edcfc2" d="M 110.109375 89.054688 C 110.089844 89.753906 110.269531 90.546875 110.007812 91.136719 C 109.605469 92.03125 108.988281 93.371094 108.304688 93.46875 C 107.078125 93.644531 105.417969 93.421875 104.535156 92.667969 C 103.597656 91.859375 103.089844 90.292969 102.875 88.976562 C 102.507812 86.710938 104.082031 84.4375 105.941406 84.039062 C 107.710938 83.664062 109.59375 85.503906 109.984375 88 C 110.042969 88.351562 110.066406 88.699219 110.109375 89.054688 " fill-opacity="1" fill-rule="nonzero"/><path fill="#edcfc2" d="M 204.679688 165.308594 C 204.882812 167.039062 203.089844 168.746094 201.257812 168.558594 C 198.148438 168.238281 196.160156 165.648438 196.785156 162.53125 C 197.105469 160.914062 198.355469 160.132812 199.933594 160.296875 C 202.554688 160.582031 204.367188 162.59375 204.679688 165.308594 " fill-opacity="1" fill-rule="nonzero"/><path fill="#edcfc2" d="M 68.246094 98.34375 C 69.050781 98.832031 70.558594 99.253906 71.175781 100.234375 C 72.65625 102.578125 71.710938 105.96875 69.464844 107.726562 C 68.46875 108.511719 66.375 108.277344 65.640625 107.300781 C 64.011719 105.128906 64.039062 101.65625 65.820312 99.539062 C 66.222656 99.058594 67.03125 98.917969 68.246094 98.34375 " fill-opacity="1" fill-rule="nonzero"/><path fill="#edcfc2" d="M 205.902344 186.21875 C 205.359375 186.894531 204.691406 188.164062 203.644531 188.851562 C 202.957031 189.300781 201.714844 188.933594 200.722656 188.851562 C 200.414062 188.824219 200.09375 188.554688 199.835938 188.335938 C 197.546875 186.359375 196.804688 183.644531 198.3125 181.980469 C 198.90625 181.324219 200.125 180.785156 200.972656 180.894531 C 203.644531 181.226562 205.59375 183.292969 205.902344 186.21875 " fill-opacity="1" fill-rule="nonzero"/><path fill="#edcfc2" d="M 25.574219 187.496094 C 25.210938 185.6875 26.441406 183.574219 28.019531 183.292969 C 30.324219 182.871094 32.855469 184.777344 33.460938 187.390625 C 33.828125 188.980469 32.476562 191.179688 30.878906 191.585938 C 28.59375 192.164062 26.125 190.261719 25.574219 187.496094 " fill-opacity="1" fill-rule="nonzero"/><path fill="#edcfc2" d="M 189.171875 110.246094 C 191.34375 110.261719 192.421875 111.636719 192.988281 113.40625 C 193.6875 115.597656 192.640625 118.152344 190.808594 118.847656 C 190.199219 119.074219 189.371094 119.054688 188.738281 118.847656 C 185.671875 117.832031 184.804688 113.183594 187.28125 110.972656 C 187.765625 110.539062 188.566406 110.46875 189.171875 110.246094 " fill-opacity="1" fill-rule="nonzero"/><path fill="#edcfc2" d="M 166.371094 158.019531 C 168.269531 157.738281 170.269531 158.90625 171.445312 161.078125 C 172.339844 162.734375 172.597656 164.503906 171.273438 165.988281 C 170.652344 166.683594 169.496094 167.355469 168.632812 167.292969 C 165.210938 167.027344 162.945312 162.257812 164.726562 159.234375 C 165.042969 158.691406 165.808594 158.417969 166.371094 158.019531 " fill-opacity="1" fill-rule="nonzero"/><path fill="#edcfc2" d="M 78.5625 212.601562 C 80.914062 212.507812 83.125 214.628906 83.449219 217.269531 C 83.644531 218.832031 82.058594 220.796875 80.417969 221.03125 C 77.714844 221.421875 75.375 219.679688 75.121094 217.097656 C 74.902344 214.765625 76.496094 212.675781 78.5625 212.601562 " fill-opacity="1" fill-rule="nonzero"/><path fill="#edcfc2" d="M 173.363281 186.113281 C 172.578125 185.800781 171.339844 185.679688 170.792969 185 C 169.953125 183.964844 169.296875 182.59375 169.078125 181.28125 C 168.671875 178.820312 170.449219 176.671875 172.425781 176.878906 C 174.621094 177.113281 175.363281 178.761719 175.550781 180.574219 C 175.695312 181.921875 175.464844 183.355469 175.132812 184.683594 C 175.003906 185.199219 174.136719 185.523438 173.363281 186.113281 " fill-opacity="1" fill-rule="nonzero"/><path fill="#edcfc2" d="M 98.726562 272.042969 C 99.027344 273.777344 97.699219 275.6875 96.027344 275.921875 C 93.941406 276.214844 91.9375 274.667969 91.527344 272.441406 C 91.199219 270.652344 92.464844 268.847656 94.214844 268.589844 C 96.289062 268.289062 98.347656 269.867188 98.726562 272.042969 " fill-opacity="1" fill-rule="nonzero"/><path fill="#edcfc2" d="M 136.9375 166.753906 C 134.867188 166.882812 133.292969 165.347656 132.921875 162.84375 C 132.636719 160.914062 133.585938 159.082031 135.101562 158.644531 C 137.195312 158.035156 139.523438 160.214844 139.789062 163.035156 C 139.949219 164.757812 138.492188 166.65625 136.9375 166.753906 " fill-opacity="1" fill-rule="nonzero"/><path fill="#edcfc2" d="M 116.589844 263.640625 C 114.46875 263.664062 112.78125 262.019531 112.53125 259.679688 C 112.285156 257.355469 114.003906 255.515625 116.242188 255.703125 C 118.492188 255.894531 120.171875 257.449219 120.484375 259.621094 C 120.769531 261.652344 118.863281 263.621094 116.589844 263.640625 " fill-opacity="1" fill-rule="nonzero"/><path fill="#edcfc2" d="M 47.992188 155.804688 C 49.535156 155.363281 51.761719 156.589844 52.136719 158.085938 C 52.609375 159.996094 51.226562 162.25 49.175781 162.917969 C 47.59375 163.429688 45.484375 162.246094 45.101562 160.628906 C 44.621094 158.609375 45.957031 156.382812 47.992188 155.804688 " fill-opacity="1" fill-rule="nonzero"/><path fill="#edcfc2" d="M 187.933594 213.570312 C 188.382812 215.621094 187.046875 218.160156 185.1875 218.785156 C 183.265625 219.433594 180.597656 218.152344 179.90625 216.246094 C 179.082031 213.976562 180.925781 211.535156 183.828125 211.058594 C 185.683594 210.753906 187.570312 211.90625 187.933594 213.570312 " fill-opacity="1" fill-rule="nonzero"/><path fill="#edcfc2" d="M 167.339844 235.136719 C 168.074219 235.933594 169.125 236.800781 169.824219 237.894531 C 170.878906 239.542969 170.855469 241.417969 169.433594 242.792969 C 168.828125 243.378906 167.351562 243.648438 166.550781 243.339844 C 163.878906 242.308594 162.988281 238.375 164.828125 236.128906 C 165.207031 235.660156 166.089844 235.605469 167.339844 235.136719 " fill-opacity="1" fill-rule="nonzero"/><path fill="#edcfc2" d="M 149.683594 185.230469 C 150.078125 187.207031 149.226562 188.882812 147.550781 189.449219 C 145.492188 190.140625 143.390625 188.835938 142.871094 186.539062 C 142.351562 184.261719 143.582031 181.835938 145.445312 181.476562 C 147.335938 181.109375 149.199219 182.761719 149.683594 185.230469 " fill-opacity="1" fill-rule="nonzero"/><path fill="#edcfc2" d="M 146.679688 239.632812 C 147 241.253906 145.707031 243.292969 144.109375 243.703125 C 142.082031 244.214844 139.757812 242.472656 139.621094 240.335938 C 139.503906 238.535156 140.929688 236.964844 142.804688 236.828125 C 144.757812 236.691406 146.324219 237.820312 146.679688 239.632812 " fill-opacity="1" fill-rule="nonzero"/><path fill="#edcfc2" d="M 90.960938 249.5625 C 91.175781 251.265625 89.859375 253.054688 88.183594 253.328125 C 85.785156 253.71875 83.394531 251.730469 83.210938 249.199219 C 83.097656 247.613281 84.761719 246.046875 86.59375 246.027344 C 88.9375 245.996094 90.679688 247.414062 90.960938 249.5625 " fill-opacity="1" fill-rule="nonzero"/><path fill="#edcfc2" d="M 28.035156 151.457031 C 27.152344 150.722656 26.132812 150.25 25.699219 149.457031 C 24.601562 147.433594 25.042969 145.433594 26.421875 143.636719 C 27.351562 142.421875 30.234375 142.628906 30.933594 143.992188 C 31.945312 145.964844 32.203125 148.023438 30.683594 149.828125 C 30.089844 150.535156 29.046875 150.859375 28.035156 151.457031 " fill-opacity="1" fill-rule="nonzero"/><path fill="#edcfc2" d="M 184.414062 148.777344 C 182.394531 149.078125 180.4375 147.589844 179.976562 145.398438 C 179.625 143.71875 180.828125 141.917969 182.542969 141.566406 C 184.660156 141.132812 186.394531 142.484375 186.839844 144.910156 C 187.1875 146.820312 186.121094 148.519531 184.414062 148.777344 " fill-opacity="1" fill-rule="nonzero"/><path fill="#edcfc2" d="M 173.121094 130.945312 C 171.460938 131.433594 169.675781 130.53125 168.921875 128.820312 C 168.03125 126.789062 169.03125 124.515625 171.125 123.828125 C 172.851562 123.261719 174.652344 124.148438 175.269531 125.867188 C 176.054688 128.050781 175.074219 130.363281 173.121094 130.945312 " fill-opacity="1" fill-rule="nonzero"/><path fill="#edcfc2" d="M 43.738281 119.539062 C 44.234375 121.902344 43.015625 124.117188 40.980469 124.542969 C 39.375 124.875 37.496094 123.523438 37.078125 121.738281 C 36.519531 119.355469 37.710938 117.210938 39.828125 116.792969 C 41.519531 116.464844 43.363281 117.757812 43.738281 119.539062 " fill-opacity="1" fill-rule="nonzero"/><path fill="#edcfc2" d="M 136.050781 211.035156 C 136.402344 212.960938 135.332031 214.808594 133.726562 215.0625 C 131.777344 215.375 129.730469 213.910156 129.078125 211.742188 C 128.457031 209.664062 129.996094 207.191406 131.964844 207.097656 C 133.992188 207.007812 135.597656 208.554688 136.050781 211.035156 " fill-opacity="1" fill-rule="nonzero"/><path fill="#edcfc2" d="M 115.585938 121.578125 C 115.878906 120.851562 116.011719 119.703125 116.652344 119.09375 C 118.554688 117.28125 121.21875 117.542969 123.09375 119.488281 C 124.023438 120.449219 123.777344 122.320312 122.691406 123.148438 C 120.8125 124.578125 118.835938 124.578125 116.863281 123.503906 C 116.351562 123.226562 116.121094 122.421875 115.585938 121.578125 " fill-opacity="1" fill-rule="nonzero"/><path fill="#edcfc2" d="M 200.527344 135.785156 C 202.105469 135.34375 204.128906 136.457031 204.65625 138.050781 C 205.292969 139.964844 203.714844 142.605469 201.808594 142.800781 C 200.296875 142.957031 198.453125 141.453125 198.121094 139.792969 C 197.765625 138.027344 198.828125 136.265625 200.527344 135.785156 " fill-opacity="1" fill-rule="nonzero"/><path fill="#edcfc2" d="M 206.875 215.554688 C 204.859375 215.8125 202.957031 213.996094 202.792969 211.65625 C 202.664062 209.882812 203.992188 208.144531 205.707031 207.828125 C 207.378906 207.523438 209.152344 208.808594 209.539062 210.613281 C 210.050781 213.03125 208.828125 215.304688 206.875 215.554688 " fill-opacity="1" fill-rule="nonzero"/><path fill="#edcfc2" d="M 195.035156 234.890625 C 195.375 236.855469 194.457031 238.535156 192.78125 239.011719 C 190.691406 239.605469 188.664062 238.054688 188.484375 235.734375 C 188.355469 234 189.710938 232.222656 191.363281 231.96875 C 193.007812 231.71875 194.726562 233.082031 195.035156 234.890625 " fill-opacity="1" fill-rule="nonzero"/><path fill="#edcfc2" d="M 138.996094 79.304688 C 139.046875 81.21875 137.664062 83.082031 136.164062 83.113281 C 134.605469 83.136719 133.082031 81.363281 133.035156 79.464844 C 132.988281 77.507812 134.300781 75.800781 135.929688 75.710938 C 137.570312 75.621094 138.9375 77.222656 138.996094 79.304688 " fill-opacity="1" fill-rule="nonzero"/><path fill="#edcfc2" d="M 159.824219 111.84375 C 158.164062 112.355469 156.480469 111.261719 156.007812 109.371094 C 155.582031 107.660156 156.90625 105.226562 158.351562 105.519531 C 159.507812 105.753906 160.820312 106.683594 161.457031 107.6875 C 162.46875 109.285156 161.476562 111.34375 159.824219 111.84375 " fill-opacity="1" fill-rule="nonzero"/><path fill="#edcfc2" d="M 86.769531 81.007812 C 86.769531 82.890625 85.222656 84.527344 83.535156 83.964844 C 82.460938 83.601562 81.292969 82.425781 80.910156 81.351562 C 80.367188 79.851562 82.132812 77.792969 83.617188 77.648438 C 85.171875 77.503906 86.769531 79.207031 86.769531 81.007812 " fill-opacity="1" fill-rule="nonzero"/><path fill="#edcfc2" d="M 52.597656 138.710938 C 50.050781 138.851562 48.28125 137.105469 48.53125 135.363281 C 48.757812 133.824219 49.761719 132.824219 51.324219 132.628906 C 53.074219 132.417969 54.988281 134.265625 54.523438 135.984375 C 54.214844 137.140625 53.070312 138.078125 52.597656 138.710938 " fill-opacity="1" fill-rule="nonzero"/><path fill="#edcfc2" d="M 161.085938 207.574219 C 162.640625 207.722656 163.328125 208.9375 163.417969 210.445312 C 163.515625 212.066406 162.53125 213.183594 161.007812 213.507812 C 159.382812 213.855469 157.664062 211.820312 157.964844 210.015625 C 158.226562 208.410156 159.203125 207.53125 161.085938 207.574219 " fill-opacity="1" fill-rule="nonzero"/><path fill="#edcfc2" d="M 162.90625 90.570312 C 161.121094 90.605469 159.496094 88.953125 159.621094 87.222656 C 159.742188 85.515625 161.566406 84.003906 163.238281 84.3125 C 164.75 84.585938 165.722656 85.484375 165.929688 87.066406 C 166.15625 88.816406 164.667969 90.53125 162.90625 90.570312 " fill-opacity="1" fill-rule="nonzero"/><path fill="#edcfc2" d="M 152.53125 262.53125 C 152.582031 264.238281 151.597656 265.199219 150.0625 265.414062 C 148.261719 265.667969 146.648438 264.007812 146.699219 262.152344 C 146.742188 260.5 147.761719 259.515625 149.238281 259.1875 C 150.855469 258.828125 152.445312 260.554688 152.53125 262.53125 " fill-opacity="1" fill-rule="nonzero"/><path fill="#edcfc2" d="M 67.792969 153.042969 C 68.363281 153.628906 69.582031 154.363281 69.976562 155.410156 C 70.636719 157.15625 69.367188 159.226562 67.765625 159.359375 C 66.28125 159.476562 65.097656 158.78125 64.730469 157.1875 C 64.316406 155.394531 65.398438 153.5625 67.792969 153.042969 " fill-opacity="1" fill-rule="nonzero"/><path fill="#edcfc2" d="M 113.578125 70.191406 C 113.59375 70.257812 114.09375 69.085938 115.71875 68.589844 C 116.992188 68.199219 118.8125 69.402344 118.699219 70.765625 C 118.625 71.6875 118.035156 72.804688 117.3125 73.390625 C 116.320312 74.199219 114.285156 73.195312 113.578125 70.191406 " fill-opacity="1" fill-rule="nonzero"/><g clip-path="url(#26ef6c1c14)"><path fill="#503433" d="M 288.867188 323.648438 C 288.816406 323.753906 288.757812 323.871094 288.703125 323.980469 C 288.753906 323.875 288.808594 323.761719 288.859375 323.660156 C 289.121094 323.191406 289.429688 322.765625 289.730469 322.328125 C 289.433594 322.761719 289.128906 323.191406 288.867188 323.648438 Z M 288.101562 326.011719 C 288.101562 326.007812 288.105469 326.003906 288.101562 326 C 288.164062 326.1875 288.328125 326.261719 288.480469 326.351562 C 288.328125 326.261719 288.164062 326.1875 288.101562 326.011719 Z M 286.992188 288.046875 C 284.652344 281.664062 283.136719 274.960938 281.855469 268.289062 C 281.527344 262.167969 281.480469 255.96875 282.148438 249.863281 C 282.925781 245.636719 283.824219 241.441406 285.664062 237.503906 C 286.378906 235.929688 287.1875 234.394531 288.039062 232.894531 C 288.914062 240.398438 289.691406 247.917969 290.257812 255.457031 C 290.773438 261.195312 290.972656 266.953125 290.847656 272.714844 C 290.714844 280.109375 289.910156 287.53125 289.789062 294.945312 C 288.894531 292.632812 287.933594 290.339844 286.992188 288.046875 Z M 287.144531 218.207031 C 287.050781 217.414062 286.933594 216.601562 286.753906 215.796875 C 286.9375 216.605469 287.054688 217.417969 287.148438 218.214844 C 287.148438 218.210938 287.144531 218.210938 287.144531 218.207031 Z M 283.699219 173.550781 C 283.640625 173.511719 283.636719 173.433594 283.613281 173.359375 C 283.640625 173.429688 283.652344 173.507812 283.710938 173.546875 C 283.816406 173.582031 284.023438 173.570312 284.113281 173.523438 C 284.121094 173.527344 284.121094 173.527344 284.125 173.527344 C 284.035156 173.5625 283.820312 173.59375 283.699219 173.550781 Z M 285.183594 142.566406 C 285.183594 142.566406 285.179688 142.566406 285.179688 142.5625 C 285.144531 142.414062 285.101562 142.269531 285.066406 142.121094 C 285.105469 142.273438 285.148438 142.40625 285.1875 142.566406 C 285.183594 142.566406 285.183594 142.566406 285.183594 142.566406 Z M 298.894531 70.210938 C 298.847656 70.230469 298.808594 70.242188 298.773438 70.238281 C 298.804688 70.238281 298.84375 70.222656 298.878906 70.203125 C 298.890625 70.203125 298.90625 70.203125 298.898438 70.210938 Z M 298.703125 70.140625 C 298.691406 70.007812 298.695312 69.871094 298.691406 69.734375 C 298.695312 69.871094 298.691406 70.007812 298.703125 70.144531 C 298.703125 70.140625 298.703125 70.144531 298.703125 70.140625 Z M 301.003906 214.585938 C 301.035156 214.625 301.066406 214.636719 301.101562 214.632812 C 301.074219 214.628906 301.046875 214.628906 300.996094 214.59375 C 300.878906 214.398438 300.789062 214.144531 300.699219 213.949219 C 300.796875 214.15625 300.886719 214.410156 301.003906 214.585938 Z M 355.28125 239.472656 C 355.320312 237.984375 355.445312 234.253906 353 235.863281 C 343.90625 245.277344 331.128906 250.699219 323.28125 261.410156 C 322.144531 263.027344 320.875 264.574219 320.070312 266.378906 C 319.089844 269.007812 318.558594 271.816406 318.242188 274.609375 C 318.007812 278.414062 317.742188 282.1875 317.457031 285.964844 C 317.304688 287.472656 317.3125 288.992188 317.1875 290.5 C 316.851562 292.5625 316.21875 294.59375 315.402344 296.535156 C 314.609375 297.339844 313.835938 298.144531 313.03125 298.941406 C 310.289062 301.589844 307.492188 304.175781 304.597656 306.652344 C 302.824219 308.023438 301.136719 309.398438 299.554688 311.085938 C 296.207031 314.441406 292.785156 317.761719 290.144531 321.6875 C 290.84375 316.40625 291.34375 311.097656 291.457031 305.765625 C 291.523438 299.097656 291.363281 292.351562 291.890625 285.679688 C 292.324219 279.632812 292.726562 273.582031 292.628906 267.515625 C 292.601562 260.484375 291.828125 253.492188 291.3125 246.484375 C 290.8125 241.109375 290.230469 235.734375 289.578125 230.367188 C 291.589844 227.152344 293.808594 224.058594 296.089844 221.046875 C 297.742188 218.964844 299.371094 216.863281 301.003906 214.765625 C 300.980469 214.761719 300.960938 214.761719 300.9375 214.753906 L 301.007812 214.757812 C 301.167969 214.800781 301.292969 214.59375 301.40625 214.523438 C 301.332031 214.515625 301.195312 214.605469 301.109375 214.628906 C 301.257812 214.433594 301.414062 214.242188 301.566406 214.046875 C 301.570312 214.046875 301.578125 214.046875 301.582031 214.046875 C 304.582031 214.273438 308.320312 212.710938 310.800781 211.289062 C 315.402344 208.855469 319.527344 205.640625 323.574219 202.371094 C 326.652344 199.972656 329.738281 197.460938 331.480469 193.863281 C 333.9375 190.460938 335.324219 186.535156 336.65625 182.574219 C 338.035156 178.8125 339.933594 175.226562 340.378906 171.195312 C 340.90625 166.542969 341.007812 161.722656 340.339844 157.082031 C 339.972656 153.007812 340.0625 148.675781 339.375 144.578125 C 339.15625 142.605469 337.953125 140.113281 335.792969 141.941406 C 334.429688 143.292969 333.785156 145.191406 332.75 146.820312 C 331.761719 148.578125 330.746094 150.339844 329.707031 152.066406 C 327.277344 156.101562 324.488281 159.910156 321.675781 163.691406 C 317.957031 168.558594 314.1875 173.375 310.570312 178.335938 C 306.9375 183.132812 303.167969 187.972656 300.722656 193.492188 C 298.390625 199.644531 295.675781 207.746094 299.863281 213.5 C 299.011719 214.59375 298.132812 215.664062 297.28125 216.765625 C 294.492188 220.285156 291.707031 223.859375 289.210938 227.605469 C 288.761719 224.03125 288.3125 220.453125 287.785156 216.890625 C 286.664062 210.28125 285.789062 203.628906 284.945312 196.976562 C 284.179688 188.738281 283.960938 180.425781 284.152344 172.128906 C 284.023438 172.539062 283.875 172.945312 283.761719 173.359375 C 283.765625 173.476562 283.890625 173.488281 284.007812 173.507812 C 283.894531 173.492188 283.765625 173.480469 283.753906 173.355469 C 283.871094 172.933594 284.011719 172.539062 284.15625 172.113281 C 285.070312 169.316406 286.277344 166.570312 287.085938 163.707031 C 288.222656 159.839844 289.523438 155.960938 291.191406 152.273438 C 292.792969 148.988281 293.992188 145.699219 295.652344 142.417969 C 297.5 139.15625 299.347656 135.914062 301.503906 132.839844 C 302.445312 131.644531 303.335938 130.417969 304.222656 129.214844 C 305.0625 128.933594 305.890625 128.707031 306.75 128.558594 C 308.722656 128.019531 310.589844 127.113281 312.605469 126.6875 C 323.707031 124.792969 327.160156 116.914062 330.804688 107.398438 C 332.453125 103.601562 333.628906 99.601562 334.003906 95.457031 C 334.242188 93.226562 334.378906 90.957031 334.757812 88.734375 C 335.101562 85.890625 336.488281 82.316406 334.296875 79.9375 C 331.710938 78.390625 326.980469 83.285156 324.949219 84.855469 C 320.960938 88.101562 317.261719 91.753906 313.796875 95.558594 C 310.097656 99.1875 307.339844 103.597656 305.238281 108.273438 C 304.292969 110.179688 303.375 112.082031 302.953125 114.160156 C 302.296875 118.148438 302.851562 122.210938 303.035156 126.210938 C 302.996094 126.96875 302.878906 127.746094 302.679688 128.488281 C 300.890625 130.753906 299.097656 132.992188 297.636719 135.558594 C 295.90625 138.425781 294.035156 141.28125 292.75 144.375 C 291.761719 146.761719 290.761719 148.929688 289.613281 151.328125 C 287.511719 155.980469 285.859375 160.835938 284.683594 165.8125 C 284.558594 166.34375 284.429688 166.902344 284.300781 167.4375 C 284.25 167.679688 284.21875 167.925781 284.164062 168.175781 C 284.214844 167.929688 284.246094 167.683594 284.296875 167.445312 C 284.417969 164.882812 284.542969 162.324219 284.742188 159.773438 C 285.125 153.890625 286.023438 148.074219 286.707031 142.226562 C 287 138.855469 287.269531 135.480469 287.511719 132.105469 C 288.160156 118.765625 289.171875 105.371094 292.117188 92.320312 C 293.945312 86.457031 295.671875 80.5625 297.726562 74.773438 C 298.757812 71.878906 299.636719 68.929688 300.414062 65.957031 C 300.117188 66.207031 299.824219 66.457031 299.523438 66.699219 C 299.546875 67.179688 299.449219 67.65625 299.328125 68.125 C 299.449219 67.652344 299.542969 67.175781 299.511719 66.695312 C 299.832031 66.449219 300.121094 66.207031 300.414062 65.957031 C 302.222656 64.453125 303.957031 62.863281 305.367188 60.945312 C 306.644531 59.289062 308.355469 57.96875 309.664062 56.3125 C 310.597656 55.195312 311.074219 53.742188 311.589844 52.429688 C 312.285156 50.617188 313.082031 48.867188 313.75 47.050781 C 314.625 44.65625 315.457031 42.199219 316.101562 39.730469 C 316.65625 37.25 316.738281 34.679688 317.027344 32.183594 C 317.21875 29.269531 317.351562 26.351562 317.292969 23.46875 C 317.1875 20.558594 316.722656 17.644531 316.527344 14.753906 C 316.179688 9.515625 315.742188 4.378906 315.144531 -0.828125 C 314.867188 -2.71875 315.503906 -8.015625 314.128906 -9.136719 C 313.050781 -9.875 312.085938 -8.703125 311.625 -7.796875 C 308.546875 -3.085938 305.792969 1.921875 302.761719 6.6875 C 300.011719 10.660156 297.9375 15.019531 295.835938 19.347656 C 292.902344 25.855469 290.933594 33.179688 291.851562 40.390625 C 293.066406 46.976562 294.164062 53.664062 295.984375 60.132812 C 296.570312 62.246094 297.660156 64.152344 298.386719 66.195312 C 298.394531 66.261719 298.425781 66.328125 298.449219 66.394531 C 298.425781 66.332031 298.398438 66.265625 298.375 66.203125 C 296.101562 74.519531 292.988281 82.625 290.617188 90.921875 C 287.027344 104.78125 286.46875 119.128906 285.5 133.375 C 285.828125 135.695312 285.980469 138.023438 285.664062 140.304688 C 285.976562 138.019531 285.828125 135.683594 285.496094 133.375 C 285.222656 131.402344 284.820312 129.445312 284.460938 127.539062 C 283.753906 123.683594 282.902344 119.871094 281.214844 116.308594 C 279.25 110.960938 276.730469 105.652344 274.261719 100.480469 C 274.285156 100.183594 274.363281 99.921875 274.414062 99.625 C 275.867188 94.890625 276.132812 89.757812 275.429688 84.871094 C 275.136719 82.867188 274.734375 80.824219 273.855469 78.988281 C 273.222656 77.796875 272.421875 76.671875 271.734375 75.5 C 267.824219 69.316406 263.226562 63.585938 258.507812 58.007812 C 256.015625 55.011719 253.433594 52.136719 251.054688 49.058594 C 249.179688 46.464844 247.566406 43.695312 245.921875 40.980469 C 245.648438 40.335938 244.921875 39.917969 244.320312 40.332031 C 243.390625 41.011719 244.128906 42.269531 244.160156 43.195312 C 244.402344 44.492188 244.566406 45.777344 244.730469 47.09375 C 245.363281 53.171875 246.1875 59.234375 247.175781 65.257812 C 247.941406 68.769531 248.269531 72.324219 248.679688 75.882812 C 249.167969 80.699219 252.203125 84.722656 255.035156 88.511719 C 257.671875 92.34375 261.25 95.355469 265.261719 97.695312 C 267.628906 99.304688 270.246094 100.445312 272.800781 101.6875 C 274.667969 105.671875 276.703125 109.585938 278.203125 113.726562 C 279.195312 116.46875 280.496094 119.097656 281.289062 121.957031 C 281.644531 123.5625 281.996094 125.191406 282.320312 126.816406 C 282.910156 129.851562 283.527344 132.832031 283.785156 135.949219 C 283.898438 137.832031 284.402344 139.609375 284.878906 141.414062 C 284.878906 141.417969 284.878906 141.421875 284.878906 141.425781 C 284.851562 141.734375 284.832031 142.046875 284.804688 142.351562 C 282.347656 159.402344 281.71875 176.664062 282.851562 193.855469 C 283.429688 200 284.320312 206.113281 285.253906 212.210938 C 285.3125 212.3125 285.363281 212.40625 285.425781 212.5 C 285.367188 212.410156 285.3125 212.316406 285.257812 212.222656 C 284.542969 211.023438 283.773438 209.847656 282.855469 208.796875 C 281.089844 207.183594 279.179688 205.722656 277.382812 204.105469 C 275.1875 202.484375 273.105469 200.710938 271.117188 198.835938 C 269.3125 197.03125 267.394531 195.324219 266.03125 193.121094 C 264.777344 191.550781 263.726562 189.835938 262.757812 188.074219 C 263.160156 185.558594 263.621094 182.992188 264.289062 180.496094 C 264.675781 178.765625 265.386719 177.085938 265.5625 175.3125 C 265.667969 174.046875 265.578125 172.871094 265.492188 171.589844 C 265.382812 169 264.6875 166.3125 263.75 163.878906 C 262.835938 162.144531 261.78125 160.480469 260.921875 158.730469 C 260 156.75 258.363281 155.257812 257.441406 153.28125 C 255.429688 149.097656 252.933594 145.175781 250.03125 141.542969 C 248.527344 139.734375 246.78125 138.203125 245.277344 136.425781 C 243.140625 134.046875 241.03125 131.621094 238.714844 129.449219 C 238.121094 128.773438 236.929688 128.433594 236.441406 129.367188 C 235.917969 130.40625 236.511719 131.515625 236.503906 132.574219 C 236.621094 134.402344 236.601562 136.214844 236.78125 138.019531 C 237.15625 141.632812 238.136719 145.132812 238.734375 148.738281 C 239.351562 152.722656 240.101562 156.695312 240.582031 160.695312 C 241.019531 166.210938 241.972656 171.6875 244.601562 176.628906 C 247.765625 182.671875 251.289062 185.296875 257.738281 187.382812 C 258.640625 187.675781 259.671875 187.976562 260.582031 188.433594 C 260.765625 188.53125 260.921875 188.625 261.074219 188.746094 C 262.957031 192.214844 265.089844 195.566406 267.933594 198.296875 C 272.097656 202.714844 277.164062 206.066406 281.539062 210.257812 C 282.359375 211.167969 282.863281 212.296875 283.625 213.253906 C 284.429688 214.296875 285.15625 215.390625 285.910156 216.457031 C 286.199219 216.914062 286.523438 217.355469 286.847656 217.789062 C 286.523438 217.351562 286.207031 216.914062 285.902344 216.46875 C 286.089844 217.691406 286.277344 218.914062 286.464844 220.140625 C 286.921875 223.414062 287.285156 226.714844 287.683594 230.003906 C 285.617188 233.363281 283.8125 236.863281 282.492188 240.625 C 280.316406 247.136719 279.703125 254.007812 279.832031 260.835938 C 279.902344 264.695312 279.792969 268.589844 280.914062 272.316406 C 280.316406 271.121094 279.671875 269.945312 279.066406 268.734375 C 277.410156 265.859375 275.933594 262.867188 274.089844 260.101562 C 273.277344 258.855469 272.367188 257.703125 271.425781 256.574219 C 271.371094 257.082031 271.328125 257.589844 271.355469 258.101562 C 272.5625 259.121094 273.535156 260.679688 273.886719 262.160156 C 273.886719 262.160156 273.882812 262.160156 273.882812 262.15625 C 273.515625 260.667969 272.566406 259.128906 271.347656 258.105469 C 271.3125 257.589844 271.378906 257.078125 271.425781 256.566406 C 271.511719 255.84375 271.601562 255.089844 271.582031 254.355469 C 271.160156 250.007812 269.742188 245.84375 267.84375 241.917969 C 266.941406 239.699219 265.273438 237.929688 263.679688 236.167969 C 261.625 234.128906 259.574219 232.03125 257.15625 230.417969 C 254.746094 229.050781 252.339844 227.628906 249.792969 226.574219 C 248.710938 226.214844 247.550781 226.140625 246.507812 225.621094 C 243.042969 223.21875 239.257812 221.410156 235.800781 218.921875 C 233.152344 217.101562 230.726562 214.972656 228.359375 212.792969 C 227.519531 212.097656 226.90625 210.988281 225.851562 210.632812 C 225.261719 210.53125 224.734375 210.972656 224.664062 211.535156 C 224.554688 212.152344 225.035156 212.570312 225.414062 212.953125 C 226.492188 214.320312 227.421875 215.890625 228.328125 217.375 C 231.355469 222.402344 233.621094 227.746094 235.882812 233.199219 C 238.390625 238.238281 241.476562 242.917969 245.460938 246.9375 C 247.550781 248.90625 249.378906 251.363281 252.046875 252.5625 C 256.351562 254.65625 261.1875 255.574219 265.664062 257.253906 C 267.5 258.003906 269.558594 258.417969 271.292969 259.457031 C 271.367188 259.519531 271.441406 259.605469 271.542969 259.671875 C 271.695312 259.785156 271.832031 259.933594 271.980469 260.058594 C 271.828125 259.929688 271.6875 259.777344 271.53125 259.660156 C 273.023438 261.738281 274.386719 263.90625 275.605469 266.167969 C 277.3125 269.316406 279.492188 272.179688 281.554688 275.09375 C 282.785156 280.726562 284.191406 286.363281 286.65625 291.597656 C 287.542969 293.484375 288.664062 295.261719 289.742188 297.039062 C 289.742188 297.113281 289.738281 297.1875 289.738281 297.261719 C 289.785156 303.667969 289.722656 310.066406 289.007812 316.457031 C 288.015625 325.121094 286.511719 333.703125 284.9375 342.277344 C 284.558594 340.339844 283.902344 338.4375 283.074219 336.660156 C 281.015625 332.28125 278.589844 328.042969 275.875 324.035156 C 273.28125 320.488281 271.050781 316.605469 267.730469 313.625 C 265.691406 311.46875 263.722656 309.238281 261.464844 307.304688 C 261.339844 307.203125 261.207031 307.101562 261.085938 306.996094 C 261.164062 307.464844 261.265625 307.925781 261.421875 308.382812 C 261.777344 308.613281 262.308594 308.886719 262.554688 309.238281 C 262.300781 308.890625 261.78125 308.621094 261.417969 308.390625 C 261.269531 307.914062 261.171875 307.472656 261.070312 307.003906 C 260.863281 305.632812 260.925781 304.226562 260.796875 302.859375 C 260.40625 300.359375 259.632812 297.933594 258.90625 295.539062 C 257.375 289.847656 253.640625 286.769531 249.117188 283.40625 C 245.007812 279.945312 239.902344 278.054688 234.957031 276.121094 C 230.375 274.058594 225.871094 271.8125 221.714844 268.914062 C 218.886719 266.96875 216.070312 264.945312 213.761719 262.363281 C 213.523438 261.988281 213.054688 261.761719 212.609375 261.886719 C 212 262.027344 211.660156 262.8125 211.996094 263.355469 C 212.1875 263.667969 212.496094 263.914062 212.769531 264.179688 C 213.457031 265.050781 214.03125 265.96875 214.65625 266.890625 C 216.324219 269.414062 217.382812 272.296875 218.425781 275.125 C 219.832031 278.738281 221.238281 282.382812 222.925781 285.914062 C 225.179688 290.445312 228.539062 294.441406 231.882812 298.277344 C 235.828125 302.703125 241.371094 305.253906 247.152344 306.277344 C 249.847656 306.804688 252.507812 307.484375 255.320312 307.910156 C 257.09375 308.167969 258.925781 308.34375 260.683594 308.738281 C 260.6875 308.738281 260.6875 308.738281 260.6875 308.738281 C 262.78125 310.621094 264.664062 312.71875 266.566406 314.792969 C 268.574219 316.855469 270.363281 318.941406 272.015625 321.390625 C 273.800781 324.203125 275.960938 326.910156 277.441406 329.929688 C 279.253906 333.09375 280.996094 336.347656 282.296875 339.796875 C 282.773438 341.785156 283.28125 343.675781 283.816406 345.6875 C 283.796875 346.324219 283.867188 346.921875 283.976562 347.515625 C 283.613281 349.492188 283.246094 351.46875 282.886719 353.449219 C 282.273438 356.941406 281.539062 360.417969 280.734375 363.875 C 279.910156 367.46875 279.128906 371.160156 279.589844 374.863281 C 281.417969 371.347656 281.828125 367.335938 282.679688 363.5 C 284.613281 354.3125 286.195312 345.050781 287.914062 335.820312 C 288.628906 331.816406 289.28125 327.789062 289.847656 323.753906 C 289.460938 324.191406 289.109375 324.644531 288.796875 325.125 C 289.105469 324.640625 289.449219 324.183594 289.835938 323.753906 C 290.34375 323.203125 290.90625 322.65625 291.414062 322.097656 C 293.476562 320.179688 295.371094 317.953125 297.285156 315.859375 C 299.253906 314.070312 300.960938 312.125 302.910156 310.28125 C 307.660156 306.390625 312.234375 302.324219 316.4375 297.847656 C 317.003906 297.242188 317.570312 296.636719 318.164062 296.007812 C 318.390625 295.921875 318.640625 295.828125 318.863281 295.769531 C 321.234375 295.367188 323.289062 294.15625 325.410156 293.109375 C 328.296875 292.078125 331.015625 290.730469 333.546875 289.046875 C 335.851562 287.445312 338.15625 285.820312 340.21875 283.875 C 342.96875 281.203125 345.066406 277.875 347.023438 274.59375 C 348.261719 272.097656 349.585938 269.601562 350.488281 266.933594 C 351.539062 263.472656 352.402344 259.933594 353.214844 256.394531 C 354.570312 250.863281 355.289062 245.171875 355.28125 239.472656 " fill-opacity="1" fill-rule="nonzero"/></g></svg>