<svg xmlns="http://www.w3.org/2000/svg" xmlns:xlink="http://www.w3.org/1999/xlink" width="500" zoomAndPan="magnify" viewBox="0 0 375 374.999991" height="500" preserveAspectRatio="xMidYMid meet" version="1.0"><defs><clipPath id="b2e1bcb8ac"><path d="M 4 33 L 257 33 L 257 344.25 L 4 344.25 Z M 4 33 " clip-rule="nonzero"/></clipPath></defs><path fill="#eee0ca" d="M 325.269531 29.457031 C 315.660156 13.828125 299.140625 1.691406 280.8125 0.78125 C 265.226562 0.0078125 250.324219 7.164062 237.300781 15.761719 C 224.28125 24.359375 212.253906 34.617188 198.183594 41.367188 C 183.632812 48.351562 167.273438 51.386719 153.480469 59.765625 C 132.644531 72.429688 121.445312 94.636719 111.25 115.84375 C 102.539062 133.96875 98.984375 150.761719 105.84375 170.019531 C 114.140625 193.300781 114.976562 218.574219 119.015625 242.796875 C 122.988281 266.625 130.3125 291.015625 147.121094 308.371094 C 166.292969 328.167969 195.574219 335.871094 223.042969 333.585938 C 250.507812 331.300781 276.476562 320.078125 300.507812 306.589844 C 307.238281 302.808594 313.917969 298.800781 319.621094 293.605469 C 326.324219 287.5 331.503906 279.910156 336.171875 272.136719 C 349.65625 249.699219 355.429688 228.757812 349.6875 203.171875 C 346.207031 187.667969 346.398438 171.714844 345.359375 155.945312 C 344.28125 139.660156 337.828125 124.027344 337.53125 107.902344 C 337.347656 97.9375 338.519531 88.007812 338.804688 78.054688 C 339.269531 61.851562 333.695312 43.164062 325.269531 29.457031 Z M 325.269531 29.457031 " fill-opacity="1" fill-rule="nonzero"/><g clip-path="url(#b2e1bcb8ac)"><path fill="#e1ccb7" d="M 198.046875 344.25 C 193.871094 344.25 189.695312 343.886719 185.640625 343.476562 C 164.769531 341.367188 143.828125 337.886719 123.394531 333.136719 C 110.371094 330.109375 96.601562 326.363281 84.15625 319.519531 C 66.261719 309.679688 52.546875 294.367188 39.273438 279.554688 C 34.574219 274.3125 29.71875 268.886719 26.179688 262.574219 C 23.253906 257.355469 21.359375 251.835938 19.363281 245.671875 C 13.679688 228.171875 7.546875 207.429688 5.175781 186.320312 C 0.09375 141.117188 12.507812 94.082031 39.246094 57.273438 C 45.429688 48.753906 54.097656 38.496094 66.253906 34.761719 C 74.351562 32.28125 83.296875 33.035156 90.484375 33.648438 C 106.867188 35.035156 121.507812 36.71875 134.78125 43.257812 C 151.683594 51.578125 165.195312 67.234375 176.078125 91.128906 C 180.0625 99.871094 182.3125 104.320312 189.9375 110.007812 C 199.585938 117.207031 207.011719 125.765625 212.011719 135.449219 C 214.78125 140.816406 216.871094 146.5625 218.898438 152.117188 C 219.691406 154.300781 220.515625 156.558594 221.363281 158.753906 C 225.222656 168.734375 230.082031 178.550781 234.78125 188.050781 C 242.347656 203.339844 250.171875 219.148438 254.058594 236.066406 C 259.6875 260.578125 256.8125 286.566406 245.957031 309.25 C 240.933594 319.75 229.609375 338.085938 210.210938 342.917969 C 206.234375 343.910156 202.136719 344.253906 198.042969 344.253906 Z M 79.375 35.277344 C 75.195312 35.277344 70.96875 35.667969 66.914062 36.910156 C 55.390625 40.445312 47.046875 50.355469 41.0625 58.59375 C 14.652344 94.953125 2.386719 141.414062 7.410156 186.070312 C 9.765625 206.980469 15.855469 227.582031 21.503906 244.980469 C 23.464844 251.023438 25.316406 256.4375 28.140625 261.476562 C 31.558594 267.570312 36.332031 272.902344 40.949219 278.054688 C 54.089844 292.726562 67.683594 307.894531 85.238281 317.550781 C 97.441406 324.265625 111.035156 327.957031 123.902344 330.953125 C 144.242188 335.679688 165.085938 339.140625 185.863281 341.242188 C 193.691406 342.035156 201.972656 342.648438 209.664062 340.730469 C 228.167969 336.125 239.074219 318.417969 243.929688 308.273438 C 254.566406 286.046875 257.382812 260.582031 251.867188 236.566406 C 248.039062 219.902344 240.277344 204.21875 232.765625 189.046875 C 228.042969 179.503906 223.160156 169.636719 219.261719 159.5625 C 218.402344 157.34375 217.578125 155.078125 216.777344 152.882812 C 214.777344 147.394531 212.710938 141.714844 210.007812 136.472656 C 205.164062 127.097656 197.960938 118.796875 188.589844 111.808594 C 180.519531 105.789062 178.167969 101.152344 174.023438 92.054688 C 163.359375 68.65625 150.199219 53.351562 133.777344 45.273438 C 120.855469 38.910156 106.4375 37.261719 90.285156 35.890625 C 86.808594 35.59375 83.109375 35.277344 79.367188 35.277344 Z M 79.375 35.277344 " fill-opacity="1" fill-rule="nonzero"/></g><path fill="#e1ccb7" d="M 193.28125 334.671875 C 189.40625 334.671875 185.535156 334.332031 181.773438 333.953125 C 162.433594 331.996094 143.023438 328.773438 124.082031 324.371094 C 112.003906 321.558594 99.238281 318.089844 87.699219 311.742188 C 71.105469 302.617188 58.386719 288.421875 46.089844 274.691406 C 41.730469 269.828125 37.230469 264.800781 33.941406 258.941406 C 31.226562 254.097656 29.46875 248.976562 27.617188 243.265625 C 22.347656 227.039062 16.671875 207.816406 14.464844 188.246094 C 9.753906 146.339844 21.261719 102.726562 46.050781 68.601562 C 51.792969 60.699219 59.832031 51.179688 71.125 47.710938 C 78.644531 45.40625 86.941406 46.109375 93.609375 46.671875 C 108.804688 47.960938 122.375 49.519531 134.6875 55.585938 C 150.371094 63.308594 162.902344 77.832031 173 99.988281 C 176.683594 108.070312 178.765625 112.191406 185.820312 117.453125 C 194.769531 124.128906 201.65625 132.066406 206.296875 141.054688 C 208.867188 146.035156 210.804688 151.355469 212.679688 156.507812 C 213.417969 158.53125 214.179688 160.625 214.964844 162.660156 C 218.542969 171.90625 223.046875 181.003906 227.398438 189.804688 C 234.410156 203.976562 241.664062 218.632812 245.265625 234.316406 C 250.488281 257.046875 247.820312 281.148438 237.75 302.1875 C 233.089844 311.933594 222.574219 328.949219 204.566406 333.433594 C 200.871094 334.351562 197.074219 334.675781 193.277344 334.675781 Z M 83.308594 48.351562 C 79.449219 48.351562 75.53125 48.714844 71.789062 49.859375 C 61.132812 53.125 53.414062 62.292969 47.875 69.917969 C 23.410156 103.597656 12.046875 146.636719 16.699219 187.996094 C 18.878906 207.367188 24.523438 226.457031 29.753906 242.566406 C 31.566406 248.164062 33.285156 253.175781 35.898438 257.839844 C 39.0625 263.480469 43.484375 268.417969 47.761719 273.1875 C 59.9375 286.777344 72.523438 300.828125 88.777344 309.769531 C 100.078125 315.988281 112.667969 319.40625 124.585938 322.179688 C 143.433594 326.5625 162.75 329.769531 181.996094 331.714844 C 189.242188 332.449219 196.910156 333.015625 204.023438 331.246094 C 221.140625 326.984375 231.230469 310.601562 235.722656 301.214844 C 245.570312 280.636719 248.179688 257.054688 243.070312 234.820312 C 239.523438 219.390625 232.332031 204.855469 225.378906 190.800781 C 221.003906 181.957031 216.472656 172.8125 212.859375 163.472656 C 212.066406 161.414062 211.296875 159.3125 210.558594 157.277344 C 208.707031 152.195312 206.792969 146.9375 204.289062 142.085938 C 199.808594 133.402344 193.140625 125.726562 184.464844 119.253906 C 176.972656 113.664062 174.789062 109.359375 170.945312 100.921875 C 161.070312 79.257812 148.886719 65.085938 133.6875 57.605469 C 121.726562 51.714844 108.371094 50.1875 93.414062 48.917969 C 90.191406 48.644531 86.769531 48.355469 83.300781 48.355469 Z M 83.308594 48.351562 " fill-opacity="1" fill-rule="nonzero"/><path fill="#e1ccb7" d="M 188.507812 325.09375 C 184.9375 325.09375 181.367188 324.785156 177.902344 324.433594 C 160.082031 322.632812 142.203125 319.664062 124.765625 315.605469 C 113.640625 313.019531 101.878906 309.820312 91.234375 303.96875 C 75.945312 295.5625 64.226562 282.480469 52.894531 269.832031 C 48.878906 265.347656 44.726562 260.714844 41.699219 255.3125 C 39.195312 250.84375 37.574219 246.125 35.867188 240.859375 C 31.011719 225.917969 25.78125 208.207031 23.753906 190.175781 C 19.410156 151.5625 30.015625 111.378906 52.855469 79.9375 C 58.15625 72.648438 65.566406 63.867188 75.992188 60.667969 C 82.929688 58.539062 90.582031 59.1875 96.730469 59.710938 C 110.726562 60.898438 123.238281 62.335938 134.589844 67.925781 C 149.050781 75.046875 160.605469 88.433594 169.910156 108.855469 C 173.296875 116.289062 175.210938 120.074219 181.683594 124.90625 C 189.9375 131.058594 196.292969 138.382812 200.570312 146.667969 C 202.941406 151.257812 204.726562 156.164062 206.457031 160.914062 C 207.136719 162.777344 207.835938 164.703125 208.558594 166.574219 C 211.851562 175.082031 215.996094 183.460938 220.003906 191.558594 C 226.464844 204.617188 233.144531 218.113281 236.464844 232.574219 C 241.28125 253.527344 238.820312 275.742188 229.539062 295.132812 C 225.238281 304.121094 215.542969 319.816406 198.921875 323.953125 C 195.511719 324.800781 192.007812 325.101562 188.5 325.101562 Z M 87.242188 61.429688 C 83.691406 61.429688 80.09375 61.761719 76.652344 62.816406 C 66.867188 65.816406 59.769531 74.246094 54.675781 81.257812 C 32.164062 112.25 21.707031 151.859375 25.988281 189.925781 C 27.992188 207.757812 33.1875 225.328125 38.007812 240.164062 C 39.675781 245.3125 41.257812 249.925781 43.660156 254.210938 C 46.566406 259.394531 50.636719 263.9375 54.570312 268.328125 C 65.777344 280.835938 77.363281 293.773438 92.320312 301.996094 C 102.71875 307.714844 114.304688 310.867188 125.273438 313.417969 C 142.621094 317.453125 160.40625 320.402344 178.128906 322.195312 C 184.789062 322.871094 191.84375 323.394531 198.386719 321.765625 C 214.109375 317.847656 223.386719 302.789062 227.515625 294.15625 C 236.574219 275.21875 238.976562 253.53125 234.277344 233.070312 C 231.011719 218.871094 224.394531 205.492188 217.992188 192.550781 C 213.960938 184.40625 209.792969 175.980469 206.464844 167.378906 C 205.734375 165.488281 205.027344 163.550781 204.34375 161.679688 C 202.640625 157 200.878906 152.160156 198.574219 147.699219 C 194.453125 139.714844 188.320312 132.652344 180.34375 126.703125 C 173.425781 121.542969 171.414062 117.574219 167.863281 109.785156 C 158.78125 89.851562 147.574219 76.820312 133.601562 69.9375 C 122.597656 64.523438 110.308594 63.113281 96.542969 61.949219 C 93.578125 61.695312 90.429688 61.433594 87.242188 61.433594 Z M 87.242188 61.429688 " fill-opacity="1" fill-rule="nonzero"/><path fill="#e1ccb7" d="M 183.738281 315.511719 C 180.472656 315.511719 177.207031 315.230469 174.039062 314.910156 C 157.746094 313.261719 141.402344 310.546875 125.453125 306.839844 C 115.277344 304.472656 104.519531 301.542969 94.78125 296.195312 C 80.789062 288.496094 70.070312 276.535156 59.710938 264.96875 C 56.035156 260.867188 52.238281 256.625 49.464844 251.675781 C 47.171875 247.585938 45.691406 243.269531 44.125 238.449219 C 39.691406 224.785156 34.90625 208.59375 33.050781 192.101562 C 29.078125 156.78125 38.78125 120.027344 59.671875 91.265625 C 64.519531 84.585938 71.3125 76.550781 80.871094 73.617188 C 87.230469 71.664062 94.234375 72.257812 99.867188 72.734375 C 112.667969 73.820312 124.113281 75.140625 134.507812 80.257812 C 147.75 86.773438 158.324219 99.03125 166.839844 117.71875 C 170.007812 124.679688 171.660156 127.941406 177.574219 132.347656 C 185.128906 137.980469 190.945312 144.6875 194.859375 152.277344 C 197.027344 156.476562 198.664062 160.960938 200.242188 165.304688 C 200.863281 167.007812 201.503906 168.769531 202.167969 170.480469 C 205.175781 178.253906 208.964844 185.910156 212.625 193.3125 C 218.535156 205.246094 224.644531 217.59375 227.679688 230.820312 C 232.085938 249.988281 229.835938 270.324219 221.34375 288.066406 C 217.40625 296.296875 208.523438 310.671875 193.296875 314.460938 C 190.167969 315.238281 186.957031 315.511719 183.75 315.511719 Z M 91.171875 74.5 C 87.933594 74.5 84.65625 74.804688 81.523438 75.765625 C 72.609375 78.5 66.132812 86.191406 61.488281 92.585938 C 40.925781 120.898438 31.371094 157.078125 35.28125 191.851562 C 37.113281 208.144531 41.859375 224.195312 46.261719 237.753906 C 47.785156 242.457031 49.230469 246.667969 51.421875 250.578125 C 54.074219 255.3125 57.789062 259.457031 61.378906 263.46875 C 71.617188 274.894531 82.203125 286.710938 95.863281 294.226562 C 105.359375 299.449219 115.9375 302.320312 125.960938 304.652344 C 141.816406 308.339844 158.066406 311.039062 174.265625 312.679688 C 180.347656 313.292969 186.785156 313.769531 192.746094 312.285156 C 207.078125 308.714844 215.542969 294.976562 219.3125 287.101562 C 227.582031 269.8125 229.777344 250.007812 225.484375 231.328125 C 222.503906 218.359375 216.457031 206.136719 210.605469 194.3125 C 206.917969 186.863281 203.105469 179.164062 200.0625 171.292969 C 199.394531 169.558594 198.75 167.785156 198.125 166.074219 C 196.570312 161.796875 194.957031 157.382812 192.855469 153.308594 C 189.097656 146.027344 183.5 139.578125 176.226562 134.152344 C 169.878906 129.417969 168.039062 125.78125 164.789062 118.648438 C 156.496094 100.453125 146.261719 88.554688 133.511719 82.273438 C 123.46875 77.328125 112.246094 76.046875 99.671875 74.976562 C 96.96875 74.746094 94.089844 74.503906 91.179688 74.503906 Z M 91.171875 74.5 " fill-opacity="1" fill-rule="nonzero"/><path fill="#e1ccb7" d="M 178.972656 305.929688 C 176.007812 305.929688 173.046875 305.675781 170.171875 305.382812 C 155.40625 303.890625 140.589844 301.429688 126.140625 298.066406 C 116.910156 295.925781 107.160156 293.269531 98.324219 288.414062 C 85.628906 281.429688 75.914062 270.585938 66.519531 260.097656 C 63.1875 256.378906 59.738281 252.53125 57.222656 248.039062 C 55.140625 244.324219 53.796875 240.402344 52.378906 236.035156 C 48.359375 223.648438 44.023438 208.972656 42.339844 194.023438 C 38.738281 162 47.535156 128.671875 66.476562 102.589844 C 70.882812 96.527344 77.050781 89.226562 85.738281 86.558594 C 91.515625 84.789062 97.875 85.324219 102.984375 85.757812 C 114.597656 86.742188 124.972656 87.933594 134.40625 92.578125 C 146.425781 98.492188 156.019531 109.613281 163.75 126.566406 C 166.617188 132.855469 168.105469 135.804688 173.445312 139.785156 C 180.300781 144.898438 185.582031 150.984375 189.136719 157.875 C 191.105469 161.6875 192.585938 165.757812 194.019531 169.695312 C 194.578125 171.238281 195.160156 172.828125 195.761719 174.378906 C 198.488281 181.417969 201.917969 188.351562 205.234375 195.058594 C 210.585938 205.878906 216.128906 217.070312 218.882812 229.0625 C 222.878906 246.457031 220.839844 264.902344 213.132812 281 C 209.558594 288.472656 201.492188 301.523438 187.652344 304.96875 C 184.8125 305.679688 181.890625 305.925781 178.976562 305.925781 Z M 95.105469 87.570312 C 92.179688 87.570312 89.21875 87.84375 86.394531 88.710938 C 78.34375 91.179688 72.492188 98.132812 68.296875 103.910156 C 49.683594 129.542969 41.035156 162.292969 44.574219 193.773438 C 46.230469 208.523438 50.527344 223.0625 54.515625 235.34375 C 55.894531 239.59375 57.203125 243.40625 59.183594 246.941406 C 61.582031 251.214844 64.941406 254.96875 68.195312 258.597656 C 77.464844 268.945312 87.046875 279.644531 99.410156 286.445312 C 108 291.171875 117.578125 293.773438 126.648438 295.882812 C 141.007812 299.222656 155.726562 301.664062 170.398438 303.148438 C 175.898438 303.707031 181.722656 304.136719 187.105469 302.796875 C 200.050781 299.570312 207.699219 287.152344 211.105469 280.039062 C 218.589844 264.394531 220.570312 246.476562 216.6875 229.578125 C 213.992188 217.835938 208.515625 206.769531 203.21875 196.0625 C 199.875 189.308594 196.425781 182.332031 193.664062 175.199219 C 193.058594 173.632812 192.472656 172.027344 191.910156 170.476562 C 190.5 166.609375 189.042969 162.605469 187.140625 158.921875 C 183.742188 152.335938 178.679688 146.511719 172.101562 141.597656 C 166.347656 137.308594 164.578125 133.816406 161.707031 127.511719 C 154.207031 111.046875 144.953125 100.28125 133.421875 94.605469 C 124.339844 90.132812 114.183594 88.972656 102.800781 88.007812 C 100.351562 87.796875 97.746094 87.582031 95.113281 87.582031 Z M 95.105469 87.570312 " fill-opacity="1" fill-rule="nonzero"/><path fill="#e1ccb7" d="M 174.203125 296.351562 C 171.542969 296.351562 168.878906 296.121094 166.304688 295.859375 C 153.070312 294.523438 139.785156 292.316406 126.824219 289.300781 C 118.542969 287.375 109.789062 284.992188 101.863281 280.632812 C 90.46875 274.367188 81.753906 264.636719 73.328125 255.234375 C 70.339844 251.894531 67.246094 248.445312 64.980469 244.402344 C 63.109375 241.070312 61.90625 237.550781 60.628906 233.625 C 57.023438 222.519531 53.132812 209.359375 51.625 195.949219 C 48.398438 167.21875 56.289062 137.320312 73.28125 113.921875 C 77.238281 108.472656 82.785156 101.914062 90.601562 99.511719 C 95.804688 97.914062 101.519531 98.402344 106.105469 98.789062 C 116.527344 99.675781 125.839844 100.746094 134.3125 104.917969 C 145.109375 110.234375 153.726562 120.214844 160.664062 135.441406 C 163.222656 141.058594 164.558594 143.691406 169.316406 147.242188 C 175.476562 151.835938 180.21875 157.300781 183.414062 163.496094 C 185.183594 166.917969 186.511719 170.570312 187.796875 174.101562 C 188.300781 175.480469 188.820312 176.914062 189.359375 178.296875 C 191.796875 184.597656 194.871094 190.8125 197.84375 196.820312 C 202.644531 206.523438 207.609375 216.558594 210.082031 227.328125 C 213.671875 242.941406 211.839844 259.496094 204.921875 273.949219 C 201.710938 280.664062 194.453125 292.398438 182.003906 295.492188 C 179.445312 296.128906 176.824219 296.351562 174.199219 296.351562 Z M 99.035156 100.648438 C 96.421875 100.648438 93.78125 100.890625 91.261719 101.664062 C 84.078125 103.867188 78.851562 110.082031 75.097656 115.246094 C 58.433594 138.195312 50.691406 167.519531 53.855469 195.703125 C 55.34375 208.910156 59.191406 221.9375 62.765625 232.9375 C 64 236.746094 65.167969 240.15625 66.9375 243.3125 C 69.078125 247.132812 72.089844 250.488281 75 253.738281 C 83.300781 263.007812 91.882812 272.585938 102.945312 278.667969 C 110.636719 282.894531 119.210938 285.226562 127.332031 287.113281 C 140.199219 290.109375 153.390625 292.296875 166.527344 293.625 C 171.449219 294.125 176.652344 294.511719 181.460938 293.316406 C 193.019531 290.4375 199.851562 279.335938 202.894531 272.980469 C 209.589844 258.984375 211.363281 242.949219 207.890625 227.832031 C 205.476562 217.324219 200.570312 207.410156 195.828125 197.820312 C 192.832031 191.769531 189.734375 185.507812 187.261719 179.113281 C 186.714844 177.703125 186.191406 176.261719 185.683594 174.875 C 184.421875 171.410156 183.117188 167.828125 181.414062 164.53125 C 178.378906 158.648438 173.855469 153.4375 167.96875 149.050781 C 162.789062 145.1875 161.199219 142.046875 158.617188 136.378906 C 151.90625 121.652344 143.632812 112.019531 133.320312 106.945312 C 125.199219 102.945312 116.109375 101.902344 105.917969 101.042969 C 103.726562 100.855469 101.394531 100.65625 99.039062 100.65625 Z M 99.035156 100.648438 " fill-opacity="1" fill-rule="nonzero"/><path fill="#e1ccb7" d="M 169.4375 286.773438 C 167.074219 286.773438 164.71875 286.566406 162.433594 286.335938 C 150.722656 285.152344 138.972656 283.203125 127.507812 280.53125 C 120.175781 278.828125 112.425781 276.71875 105.402344 272.855469 C 95.308594 267.304688 87.59375 258.695312 80.136719 250.371094 C 77.488281 247.414062 74.75 244.355469 72.734375 240.773438 C 71.074219 237.808594 70.007812 234.691406 68.878906 231.214844 C 65.6875 221.390625 62.246094 209.746094 60.910156 197.875 C 58.046875 172.4375 65.039062 145.96875 80.085938 125.25 C 83.597656 120.417969 88.519531 114.597656 95.46875 112.460938 C 100.097656 111.042969 105.160156 111.46875 109.226562 111.816406 C 118.453125 112.597656 126.703125 113.550781 134.214844 117.25 C 143.789062 121.964844 151.433594 130.8125 157.574219 144.296875 C 159.832031 149.242188 161.003906 151.5625 165.183594 154.679688 C 170.648438 158.753906 174.859375 163.605469 177.691406 169.097656 C 179.257812 172.132812 180.433594 175.367188 181.574219 178.488281 C 182.019531 179.710938 182.480469 180.96875 182.953125 182.195312 C 185.105469 187.765625 187.824219 193.25 190.453125 198.5625 C 194.703125 207.152344 199.09375 216.035156 201.285156 225.566406 C 204.464844 239.402344 202.839844 254.074219 196.714844 266.878906 C 193.859375 272.84375 187.425781 283.25 176.367188 286.003906 C 174.09375 286.570312 171.761719 286.769531 169.433594 286.769531 Z M 102.96875 113.722656 C 100.667969 113.722656 98.339844 113.933594 96.132812 114.613281 C 89.816406 116.550781 85.210938 122.023438 81.910156 126.574219 C 67.191406 146.84375 60.351562 172.738281 63.152344 197.628906 C 64.464844 209.296875 67.871094 220.804688 71.023438 230.523438 C 72.113281 233.886719 73.140625 236.890625 74.707031 239.675781 C 76.59375 243.042969 79.246094 246.003906 81.816406 248.875 C 89.144531 257.0625 96.730469 265.527344 106.492188 270.890625 C 113.277344 274.621094 120.847656 276.675781 128.019531 278.347656 C 139.394531 280.988281 151.046875 282.925781 162.664062 284.097656 C 167.003906 284.539062 171.597656 284.875 175.828125 283.824219 C 185.992188 281.292969 192.011719 271.519531 194.691406 265.914062 C 200.597656 253.566406 202.167969 239.417969 199.097656 226.074219 C 196.96875 216.800781 192.628906 208.035156 188.4375 199.5625 C 185.789062 194.207031 183.050781 188.671875 180.859375 183.011719 C 180.378906 181.761719 179.917969 180.492188 179.46875 179.261719 C 178.351562 176.203125 177.199219 173.039062 175.699219 170.128906 C 173.023438 164.945312 169.035156 160.355469 163.847656 156.484375 C 159.242188 153.046875 157.828125 150.265625 155.539062 145.234375 C 149.617188 132.238281 142.320312 123.742188 133.226562 119.269531 C 126.066406 115.746094 118.039062 114.828125 109.042969 114.0625 C 107.105469 113.898438 105.050781 113.726562 102.972656 113.726562 Z M 102.96875 113.722656 " fill-opacity="1" fill-rule="nonzero"/><path fill="#e1ccb7" d="M 164.664062 277.195312 C 162.605469 277.195312 160.554688 277.015625 158.5625 276.8125 C 148.378906 275.785156 138.164062 274.085938 128.191406 271.769531 C 121.8125 270.289062 115.0625 268.453125 108.945312 265.082031 C 100.148438 260.242188 93.433594 252.753906 86.945312 245.511719 C 84.640625 242.933594 82.25 240.269531 80.5 237.140625 C 79.050781 234.554688 78.121094 231.835938 77.132812 228.808594 C 74.355469 220.261719 71.363281 210.128906 70.203125 199.800781 C 67.710938 177.65625 73.796875 154.617188 86.890625 136.582031 C 89.953125 132.363281 94.253906 127.277344 100.335938 125.410156 C 104.382812 124.167969 108.796875 124.542969 112.347656 124.839844 C 120.382812 125.523438 127.566406 126.347656 134.117188 129.574219 C 142.46875 133.6875 149.132812 141.398438 154.492188 153.15625 C 156.441406 157.429688 157.453125 159.433594 161.058594 162.125 C 165.824219 165.675781 169.496094 169.914062 171.96875 174.703125 C 173.335938 177.351562 174.363281 180.167969 175.351562 182.886719 C 175.738281 183.945312 176.140625 185.042969 176.550781 186.105469 C 178.421875 190.941406 180.777344 195.707031 183.058594 200.320312 C 186.757812 207.792969 190.578125 215.519531 192.488281 223.816406 C 195.257812 235.871094 193.84375 248.65625 188.503906 259.816406 C 186.011719 265.019531 180.390625 274.105469 170.722656 276.515625 C 168.730469 277.011719 166.691406 277.183594 164.664062 277.183594 Z M 106.902344 126.796875 C 104.914062 126.796875 102.90625 126.980469 101 127.566406 C 95.554688 129.234375 91.578125 133.972656 88.714844 137.90625 C 75.945312 155.492188 70.011719 177.957031 72.441406 199.554688 C 73.582031 209.683594 76.535156 219.675781 79.277344 228.117188 C 80.222656 231.027344 81.113281 233.632812 82.464844 236.042969 C 84.097656 238.953125 86.398438 241.527344 88.625 244.011719 C 94.992188 251.117188 101.570312 258.464844 110.027344 263.113281 C 115.90625 266.347656 122.480469 268.132812 128.703125 269.578125 C 138.582031 271.875 148.703125 273.558594 158.792969 274.574219 C 162.707031 274.96875 166.527344 275.25 170.183594 274.339844 C 178.960938 272.15625 184.164062 263.699219 186.484375 258.851562 C 191.605469 248.148438 192.960938 235.890625 190.304688 224.324219 C 188.457031 216.277344 184.691406 208.671875 181.058594 201.320312 C 178.753906 196.664062 176.371094 191.847656 174.464844 186.917969 C 174.046875 185.832031 173.640625 184.726562 173.25 183.65625 C 172.285156 181 171.285156 178.253906 169.984375 175.734375 C 167.667969 171.246094 164.214844 167.273438 159.726562 163.925781 C 155.691406 160.917969 154.457031 158.484375 152.457031 154.085938 C 147.328125 142.824219 141.003906 135.460938 133.136719 131.589844 C 126.9375 128.535156 119.976562 127.742188 112.175781 127.078125 C 110.496094 126.9375 108.714844 126.785156 106.910156 126.785156 Z M 106.902344 126.796875 " fill-opacity="1" fill-rule="nonzero"/><path fill="#e1ccb7" d="M 159.894531 267.613281 C 158.140625 267.613281 156.394531 267.464844 154.695312 267.289062 C 146.035156 266.414062 137.351562 264.972656 128.878906 263.003906 C 123.449219 261.738281 117.703125 260.175781 112.484375 257.304688 C 104.988281 253.183594 99.28125 246.808594 93.757812 240.644531 C 91.789062 238.449219 89.753906 236.179688 88.257812 233.511719 C 87.019531 231.300781 86.222656 228.984375 85.386719 226.402344 C 83.027344 219.136719 80.480469 210.523438 79.496094 201.734375 C 77.375 182.882812 82.554688 163.269531 93.699219 147.914062 C 96.320312 144.3125 99.992188 139.964844 105.210938 138.367188 C 108.679688 137.304688 112.449219 137.625 115.476562 137.878906 C 122.316406 138.460938 128.433594 139.164062 134.027344 141.914062 C 141.15625 145.425781 146.84375 152.003906 151.410156 162.023438 C 153.050781 165.628906 153.90625 167.316406 156.933594 169.574219 C 161.003906 172.613281 164.136719 176.226562 166.253906 180.320312 C 167.417969 182.574219 168.292969 184.972656 169.132812 187.289062 C 169.464844 188.203125 169.800781 189.117188 170.148438 190.023438 C 171.734375 194.121094 173.738281 198.167969 175.671875 202.082031 C 178.816406 208.4375 182.070312 215.011719 183.695312 222.078125 C 186.058594 232.355469 184.851562 243.253906 180.300781 252.765625 C 178.171875 257.210938 173.367188 264.980469 165.085938 267.042969 C 163.382812 267.464844 161.632812 267.613281 159.898438 267.613281 Z M 110.832031 139.871094 C 109.15625 139.871094 107.46875 140.023438 105.867188 140.515625 C 101.292969 141.917969 97.933594 145.914062 95.519531 149.234375 C 84.699219 164.136719 79.671875 183.175781 81.730469 201.480469 C 82.695312 210.070312 85.203125 218.546875 87.527344 225.707031 C 88.324219 228.171875 89.082031 230.378906 90.222656 232.410156 C 91.597656 234.863281 93.550781 237.042969 95.433594 239.144531 C 100.832031 245.167969 106.410156 251.394531 113.570312 255.332031 C 118.546875 258.070312 124.113281 259.582031 129.386719 260.808594 C 137.765625 262.753906 146.355469 264.179688 154.921875 265.046875 C 158.101562 265.367188 161.460938 265.617188 164.539062 264.851562 C 171.925781 263.011719 176.316406 255.878906 178.269531 251.789062 C 182.601562 242.730469 183.753906 232.355469 181.503906 222.574219 C 179.9375 215.761719 176.746094 209.308594 173.660156 203.070312 C 171.703125 199.109375 169.675781 195.019531 168.054688 190.824219 C 167.703125 189.90625 167.363281 188.980469 167.027344 188.054688 C 166.207031 185.804688 165.359375 183.476562 164.261719 181.347656 C 162.304688 177.5625 159.390625 174.203125 155.597656 171.378906 C 152.136719 168.796875 151.082031 166.714844 149.367188 162.957031 C 145.027344 153.425781 139.683594 147.203125 133.039062 143.929688 C 127.800781 141.351562 121.902344 140.675781 115.292969 140.117188 C 113.871094 139.996094 112.363281 139.871094 110.835938 139.871094 Z M 110.832031 139.871094 " fill-opacity="1" fill-rule="nonzero"/><path fill="#e1ccb7" d="M 155.128906 258.035156 C 153.675781 258.035156 152.230469 257.910156 150.828125 257.769531 C 143.699219 257.050781 136.542969 255.863281 129.5625 254.238281 C 125.082031 253.199219 120.339844 251.90625 116.027344 249.53125 C 109.832031 246.125 104.910156 240.632812 100.566406 235.785156 C 98.941406 233.972656 97.261719 232.097656 96.015625 229.878906 C 94.988281 228.042969 94.328125 226.128906 93.636719 224 C 91.691406 218.011719 89.59375 210.914062 88.777344 203.667969 C 87.03125 188.109375 91.304688 171.925781 100.5 159.253906 C 102.675781 156.261719 105.726562 152.65625 110.070312 151.324219 C 112.964844 150.433594 116.082031 150.699219 118.59375 150.914062 C 124.242188 151.390625 129.296875 151.976562 133.929688 154.253906 C 139.835938 157.160156 144.546875 162.605469 148.320312 170.894531 C 149.660156 173.828125 150.351562 175.199219 152.804688 177.03125 C 156.175781 179.546875 158.773438 182.546875 160.527344 185.941406 C 161.492188 187.804688 162.210938 189.785156 162.90625 191.695312 C 163.179688 192.449219 163.453125 193.195312 163.742188 193.941406 C 165.042969 197.308594 166.6875 200.632812 168.277344 203.847656 C 170.871094 209.085938 173.550781 214.5 174.890625 220.339844 C 176.84375 228.839844 175.84375 237.851562 172.082031 245.714844 C 170.316406 249.40625 166.324219 255.847656 159.429688 257.566406 C 158.007812 257.921875 156.558594 258.042969 155.113281 258.042969 Z M 114.765625 152.945312 C 113.40625 152.945312 112.039062 153.070312 110.742188 153.46875 C 107.035156 154.601562 104.300781 157.859375 102.335938 160.570312 C 93.460938 172.785156 89.339844 188.40625 91.027344 203.40625 C 91.820312 210.453125 93.875 217.417969 95.785156 223.300781 C 96.4375 225.316406 97.058594 227.121094 97.984375 228.773438 C 99.109375 230.777344 100.703125 232.558594 102.25 234.277344 C 106.679688 239.222656 111.253906 244.332031 117.117188 247.554688 C 121.1875 249.796875 125.753906 251.035156 130.078125 252.039062 C 136.964844 253.640625 144.027344 254.816406 151.0625 255.523438 C 153.765625 255.796875 156.402344 255.992188 158.902344 255.367188 C 164.898438 253.871094 168.46875 248.058594 170.0625 244.730469 C 173.609375 237.320312 174.550781 228.828125 172.707031 220.828125 C 171.425781 215.246094 168.804688 209.949219 166.269531 204.824219 C 164.65625 201.566406 162.988281 198.191406 161.652344 194.734375 C 161.355469 193.976562 161.078125 193.214844 160.800781 192.449219 C 160.132812 190.605469 159.433594 188.695312 158.539062 186.957031 C 156.945312 183.867188 154.5625 181.132812 151.464844 178.820312 C 148.582031 176.667969 147.707031 174.9375 146.28125 171.816406 C 142.726562 164.023438 138.363281 158.933594 132.9375 156.265625 C 128.65625 154.160156 123.824219 153.605469 118.40625 153.148438 C 117.246094 153.046875 116.007812 152.941406 114.757812 152.941406 Z M 114.765625 152.945312 " fill-opacity="1" fill-rule="nonzero"/><path fill="#e1ccb7" d="M 150.355469 248.457031 C 149.207031 248.457031 148.066406 248.359375 146.960938 248.246094 C 141.355469 247.679688 135.730469 246.75 130.246094 245.472656 C 126.710938 244.652344 122.972656 243.632812 119.566406 241.757812 C 114.667969 239.0625 110.792969 234.734375 107.371094 230.921875 C 106.089844 229.488281 104.761719 228.007812 103.773438 226.246094 C 102.957031 224.789062 102.414062 223.210938 101.890625 221.585938 C 100.359375 216.875 98.710938 211.292969 98.070312 205.589844 C 96.691406 193.328125 100.0625 180.566406 107.3125 170.578125 C 109.039062 168.199219 111.464844 165.335938 114.941406 164.269531 C 117.253906 163.5625 119.726562 163.773438 121.71875 163.941406 C 126.175781 164.324219 130.160156 164.78125 133.832031 166.585938 C 138.515625 168.894531 142.25 173.203125 145.234375 179.757812 C 146.289062 182.074219 146.792969 183.074219 148.671875 184.476562 C 151.347656 186.46875 153.410156 188.847656 154.800781 191.546875 C 155.5625 193.023438 156.128906 194.582031 156.679688 196.085938 C 156.890625 196.675781 157.105469 197.261719 157.332031 197.84375 C 158.347656 200.46875 159.636719 203.074219 160.882812 205.589844 C 162.921875 209.710938 165.03125 213.972656 166.089844 218.582031 C 167.632812 225.296875 166.847656 232.425781 163.871094 238.648438 C 162.46875 241.582031 159.289062 246.707031 153.785156 248.074219 C 152.648438 248.355469 151.492188 248.453125 150.34375 248.453125 Z M 118.699219 166.019531 C 117.652344 166.019531 116.597656 166.113281 115.609375 166.414062 C 112.769531 167.285156 110.65625 169.800781 109.136719 171.894531 C 102.210938 181.429688 98.992188 193.617188 100.308594 205.328125 C 100.929688 210.832031 102.539062 216.28125 104.035156 220.886719 C 104.542969 222.457031 105.027344 223.859375 105.742188 225.140625 C 106.613281 226.6875 107.855469 228.074219 109.054688 229.414062 C 112.515625 233.273438 116.089844 237.273438 120.65625 239.777344 C 123.824219 241.523438 127.382812 242.488281 130.757812 243.273438 C 136.148438 244.523438 141.679688 245.445312 147.1875 246 C 149.285156 246.214844 151.328125 246.363281 153.253906 245.886719 C 157.863281 244.738281 160.617188 240.246094 161.847656 237.667969 C 164.605469 231.90625 165.339844 225.300781 163.90625 219.074219 C 162.90625 214.722656 160.855469 210.582031 158.875 206.574219 C 157.605469 204.011719 156.292969 201.367188 155.242188 198.640625 C 155.011719 198.042969 154.792969 197.441406 154.574219 196.84375 C 154.027344 195.335938 153.503906 193.914062 152.808594 192.5625 C 151.574219 190.171875 149.730469 188.054688 147.335938 186.265625 C 145.023438 184.542969 144.328125 183.164062 143.191406 180.675781 C 140.425781 174.609375 137.042969 170.660156 132.839844 168.589844 C 129.519531 166.953125 125.753906 166.527344 121.53125 166.167969 C 120.625 166.089844 119.660156 166.007812 118.6875 166.007812 Z M 118.699219 166.019531 " fill-opacity="1" fill-rule="nonzero"/><path fill="#e1ccb7" d="M 145.585938 238.875 C 144.742188 238.875 143.90625 238.800781 143.09375 238.71875 C 139.019531 238.308594 134.929688 237.632812 130.933594 236.699219 C 128.347656 236.097656 125.613281 235.355469 123.109375 233.976562 C 119.515625 232 116.683594 228.839844 114.191406 226.054688 C 113.25 225.003906 112.277344 223.917969 111.542969 222.605469 C 110.933594 221.527344 110.539062 220.367188 110.148438 219.171875 C 109.035156 215.746094 107.832031 211.675781 107.367188 207.511719 C 106.359375 198.542969 108.820312 189.210938 114.125 181.90625 C 115.40625 180.140625 117.210938 178.015625 119.820312 177.214844 C 121.554688 176.683594 123.382812 176.839844 124.855469 176.964844 C 128.117188 177.242188 131.039062 177.578125 133.75 178.910156 C 137.214844 180.621094 139.96875 183.792969 142.164062 188.609375 C 142.910156 190.242188 143.265625 190.941406 144.5625 191.910156 C 146.539062 193.382812 148.066406 195.148438 149.09375 197.140625 C 149.660156 198.230469 150.074219 199.371094 150.476562 200.472656 C 150.628906 200.894531 150.78125 201.320312 150.945312 201.742188 C 151.675781 203.632812 152.605469 205.515625 153.507812 207.335938 C 154.996094 210.34375 156.535156 213.445312 157.3125 216.824219 C 158.449219 221.765625 157.867188 227.007812 155.679688 231.578125 C 154.636719 233.753906 152.277344 237.558594 148.164062 238.582031 C 147.308594 238.796875 146.445312 238.871094 145.59375 238.871094 Z M 122.628906 179.089844 C 121.894531 179.089844 121.160156 179.160156 120.480469 179.363281 C 118.503906 179.96875 117.019531 181.746094 115.945312 183.222656 C 110.96875 190.078125 108.652344 198.835938 109.601562 207.253906 C 110.046875 211.222656 111.210938 215.152344 112.289062 218.472656 C 112.652344 219.597656 112.996094 220.601562 113.503906 221.5 C 114.117188 222.59375 115.007812 223.589844 115.867188 224.546875 C 118.355469 227.328125 120.9375 230.203125 124.195312 232 C 126.460938 233.246094 129.019531 233.9375 131.445312 234.5 C 135.347656 235.40625 139.339844 236.074219 143.324219 236.472656 C 144.820312 236.625 146.269531 236.734375 147.617188 236.398438 C 150.835938 235.59375 152.777344 232.425781 153.648438 230.605469 C 155.621094 226.488281 156.140625 221.773438 155.121094 217.324219 C 154.402344 214.203125 152.992188 211.351562 151.496094 208.332031 C 150.574219 206.464844 149.621094 204.539062 148.851562 202.546875 C 148.683594 202.113281 148.523438 201.675781 148.363281 201.238281 C 147.972656 200.152344 147.597656 199.132812 147.101562 198.167969 C 146.230469 196.476562 144.921875 194.972656 143.222656 193.703125 C 141.488281 192.410156 140.941406 191.328125 140.121094 189.53125 C 138.144531 185.203125 135.738281 182.382812 132.757812 180.917969 C 130.398438 179.757812 127.699219 179.449219 124.667969 179.191406 C 124.015625 179.136719 123.324219 179.078125 122.632812 179.078125 Z M 122.628906 179.089844 " fill-opacity="1" fill-rule="nonzero"/></svg>