<svg xmlns="http://www.w3.org/2000/svg" xmlns:xlink="http://www.w3.org/1999/xlink" width="500" zoomAndPan="magnify" viewBox="0 0 375 374.999991" height="500" preserveAspectRatio="xMidYMid meet" version="1.0"><defs><clipPath id="16008509b6"><path d="M 116 142 L 360.75 142 L 360.75 356 L 116 356 Z M 116 142 " clip-rule="nonzero"/></clipPath></defs><g clip-path="url(#16008509b6)"><path fill="#c26944" d="M 360.511719 276.84375 C 360.15625 254.457031 356.207031 231.675781 347.488281 210.980469 C 338.550781 189.757812 324.675781 170.011719 305.515625 156.839844 C 299.855469 152.871094 293.796875 149.660156 287.332031 147.207031 C 280.351562 144.703125 273.160156 143.179688 265.761719 142.636719 C 252.765625 141.5 239.371094 142.78125 226.566406 145.089844 C 202.113281 149.492188 178.347656 159.699219 159.226562 175.703125 C 141.574219 190.472656 127.777344 210.574219 121.464844 232.789062 C 119.921875 238.324219 118.828125 243.949219 118.183594 249.664062 C 116.429688 254.851562 115.757812 260.179688 116.160156 265.644531 C 116.929688 276.582031 121.019531 287.539062 128.113281 295.964844 C 144.0625 314.898438 167.988281 323.378906 190.300781 332.320312 C 215.800781 342.542969 241.699219 351.785156 269.132812 354.964844 C 292.21875 357.644531 317.3125 355.464844 336.5625 341.265625 C 346.226562 334.140625 352.902344 323.652344 356.4375 312.269531 C 359.96875 300.890625 360.703125 288.6875 360.511719 276.84375 Z M 155.785156 298.175781 C 155.777344 298.175781 155.777344 298.175781 155.769531 298.167969 C 155.621094 298.066406 155.480469 297.960938 155.347656 297.84375 C 155.496094 297.953125 155.644531 298.0625 155.785156 298.175781 C 155.796875 298.1875 155.808594 298.195312 155.820312 298.203125 L 155.839844 298.222656 C 155.820312 298.207031 155.800781 298.191406 155.785156 298.175781 Z M 160.042969 198.753906 C 160.105469 198.679688 160.207031 198.554688 160.371094 198.375 L 160.515625 198.222656 C 160.375 198.40625 160.199219 198.585938 160.042969 198.753906 Z M 296.035156 339.46875 L 296.152344 339.449219 L 296.164062 339.449219 C 296.1875 339.449219 296.210938 339.441406 296.238281 339.4375 C 296.265625 339.4375 296.292969 339.4375 296.320312 339.433594 C 296.230469 339.445312 296.136719 339.457031 296.035156 339.46875 Z M 330.027344 324.300781 C 330.222656 324.035156 330.417969 323.777344 330.621094 323.519531 C 330.441406 323.792969 330.242188 324.050781 330.027344 324.300781 Z M 330.027344 324.300781 " fill-opacity="1" fill-rule="nonzero"/></g><path fill="#694336" d="M 0.121094 245.429688 C -0.03125 228.039062 0.0117188 210.914062 3.285156 196.929688 C 10.683594 165.355469 34.03125 141.988281 61.289062 130.152344 C 80.4375 121.839844 112.824219 114.308594 138.621094 121.015625 L 167.625 132.085938 C 211.292969 147.585938 232.234375 155.792969 253.746094 194.117188 C 259.140625 203.71875 263.855469 213.800781 265.523438 227.15625 C 269.242188 256.9375 252.515625 272.953125 240.742188 288.308594 C 216.070312 320.492188 191.710938 347.878906 134.578125 347.878906 C 121.5 347.878906 109.421875 347.710938 98.726562 345.242188 C 51.128906 334.261719 19.601562 304.5625 3.460938 262.125 C 2.347656 256.558594 1.234375 250.996094 0.121094 245.429688 Z M 0.121094 245.429688 " fill-opacity="1" fill-rule="evenodd"/><path fill="#cf8770" d="M 297.839844 47.636719 C 288.589844 33.476562 277.347656 21.566406 263.75 15.148438 C 231.816406 0.0703125 193.335938 6.375 159.582031 9.769531 C 105.796875 15.179688 54.597656 29.710938 52.46875 93.234375 C 50.480469 152.511719 91.214844 193.328125 141.507812 216.335938 C 162.78125 226.066406 184.628906 234.257812 207.050781 240.917969 C 253.378906 254.675781 305.433594 245.109375 326.257812 194.96875 C 336.527344 170.230469 334.996094 141.855469 327.359375 116.179688 C 321.253906 95.648438 311.832031 69.0625 297.839844 47.636719 Z M 297.839844 47.636719 " fill-opacity="1" fill-rule="nonzero"/><path fill="#eee2d4" d="M 130.289062 345.746094 C 136.863281 351.96875 144.234375 357 151.4375 362.316406 C 156.550781 365.964844 161.15625 370.167969 165.257812 374.929688 C 166.539062 374.804688 167.828125 374.726562 169.117188 374.679688 C 169 359.671875 174.550781 345.632812 183.65625 334.230469 C 186.859375 329.390625 190.273438 324.683594 193.847656 320.085938 C 204.933594 305.972656 217.160156 292.3125 224.253906 275.570312 C 228.023438 266.65625 230.3125 257.109375 229.796875 247.398438 C 229.738281 245.796875 227.28125 245.285156 226.9375 247 C 223.339844 264.597656 210.363281 278.027344 197.960938 290.199219 C 185.902344 302.027344 173.042969 314.429688 167.496094 330.945312 C 166.480469 334 165.757812 337.125 165.324219 340.316406 C 164.925781 336.488281 164.582031 332.714844 164.351562 328.941406 C 164.621094 328.652344 164.753906 328.308594 164.753906 327.914062 C 165.4375 308.316406 182.585938 295.113281 194.988281 282.085938 C 207.277344 269.113281 218.535156 254.140625 222.308594 236.3125 C 224.367188 226.539062 224.136719 216.253906 220.652344 206.824219 C 220.554688 206.511719 220.375 206.261719 220.109375 206.066406 C 219.847656 205.871094 219.550781 205.773438 219.222656 205.773438 C 218.894531 205.773438 218.601562 205.871094 218.335938 206.066406 C 218.074219 206.261719 217.890625 206.511719 217.792969 206.824219 C 210.992188 223.226562 203.105469 239.339844 192.703125 253.796875 C 182.929688 267.339844 171.097656 279.742188 164.8125 295.457031 C 167.152344 280.542969 175.5 267.113281 183.957031 254.769531 C 194.132812 240.082031 205.277344 225.339844 209.050781 207.511719 C 211.050781 198.082031 210.933594 188.195312 207.335938 179.167969 C 207.21875 178.828125 207.007812 178.5625 206.703125 178.371094 C 206.398438 178.183594 206.066406 178.113281 205.710938 178.160156 C 205.355469 178.210938 205.054688 178.367188 204.8125 178.632812 C 204.570312 178.898438 204.4375 179.210938 204.417969 179.566406 C 203.277344 196.367188 195.332031 211.511719 186.875 225.683594 C 178.417969 240.027344 169.105469 254.082031 164.128906 270.144531 C 164.070312 270.3125 164.011719 270.484375 163.957031 270.65625 C 164.128906 264.542969 164.300781 258.429688 164.472656 252.3125 C 167.097656 237.96875 177.160156 226.65625 185.332031 215.109375 C 189.332031 209.453125 193.105469 203.625 195.621094 197.167969 C 198.820312 188.882812 198.9375 180.3125 198.136719 171.625 C 197.105469 160.308594 195.847656 148.996094 194.707031 137.683594 C 194.535156 135.855469 191.734375 135.796875 191.734375 137.683594 C 191.75 153.566406 189.523438 169.128906 185.050781 184.371094 C 182.792969 192.003906 179.992188 199.433594 176.648438 206.65625 C 173.332031 213.914062 169.046875 220.769531 165.730469 228.085938 C 165.390625 228.828125 165.046875 229.570312 164.761719 230.371094 C 164.761719 226.085938 164.703125 221.796875 164.644531 217.511719 C 165.160156 210.199219 167.046875 203.113281 168.875 196.023438 C 171.21875 186.9375 173.332031 177.851562 175.21875 168.652344 C 178.992188 150.480469 181.792969 132.136719 183.738281 113.734375 C 184.765625 103.332031 185.566406 92.933594 186.078125 82.535156 C 186.992188 81.105469 185.050781 79.21875 183.90625 80.589844 C 158.929688 109.792969 155.046875 149.851562 157.5 186.652344 C 158.300781 198.539062 159.671875 210.308594 161.042969 222.082031 C 161.089844 222.453125 161.242188 222.777344 161.5 223.050781 C 161.527344 223.328125 161.621094 223.574219 161.785156 223.796875 C 161.84375 228.710938 161.84375 233.625 161.785156 238.539062 C 159.039062 224.539062 155.875 210.617188 152.292969 196.765625 C 150.007812 187.796875 147.492188 178.882812 144.804688 170.023438 C 142.117188 161.28125 139.144531 152.59375 136.800781 143.679688 C 134.230469 133.851562 132.515625 123.738281 132.917969 113.507812 C 132.972656 111.621094 130.058594 111.621094 129.945312 113.507812 C 129.457031 113.636719 129.132812 113.941406 128.972656 114.417969 C 127.152344 119.148438 125.683594 123.980469 124.570312 128.925781 C 123.453125 133.867188 122.703125 138.863281 122.316406 143.914062 C 121.925781 148.964844 121.910156 154.019531 122.257812 159.070312 C 122.609375 164.125 123.320312 169.128906 124.398438 174.078125 C 128.859375 194.078125 139.773438 211.050781 150.519531 228.136719 C 156.234375 237.28125 161.722656 247.28125 161.265625 258.425781 C 161.257812 258.578125 161.277344 258.730469 161.324219 258.878906 C 161.09375 266.878906 160.921875 274.878906 160.75 282.882812 C 157.09375 268.710938 153.089844 254.648438 147.320312 241.164062 C 141.203125 226.765625 133.601562 212.996094 125.484375 199.621094 C 120.96875 192.191406 116.226562 184.761719 111.539062 177.449219 L 111.539062 176.707031 C 111.652344 174.820312 108.683594 174.820312 108.566406 176.707031 L 108.566406 176.992188 C 108.355469 177.390625 108.355469 177.792969 108.566406 178.191406 C 108.375 182.714844 108.523438 187.222656 109.003906 191.722656 C 109.488281 196.222656 110.304688 200.664062 111.453125 205.039062 C 112.601562 209.417969 114.066406 213.6875 115.855469 217.84375 C 117.640625 222.003906 119.726562 226.003906 122.113281 229.851562 C 131.601562 244.996094 145.320312 257.109375 153.492188 273.167969 C 155.964844 278.066406 157.792969 283.195312 158.976562 288.554688 C 160.15625 293.914062 160.652344 299.339844 160.464844 304.824219 C 160.464844 304.9375 160.523438 305.050781 160.523438 305.226562 C 160.578125 308.652344 160.636719 312.082031 160.75 315.511719 C 157.660156 304.8125 153.433594 294.582031 148.0625 284.824219 C 139.660156 269.625 127.773438 256.882812 118.570312 242.195312 C 113.539062 234.195312 109.425781 225.621094 107.59375 216.308594 C 107.253906 214.652344 104.738281 215.050781 104.679688 216.707031 C 104.507812 234.25 107.308594 251.964844 114.109375 268.195312 C 117.488281 276.316406 121.8125 283.898438 127.085938 290.9375 C 132.457031 298.082031 138.574219 304.59375 144.574219 311.226562 C 147.832031 314.882812 151.089844 318.597656 154.175781 322.480469 C 157.320312 326.539062 161.09375 330.996094 161.550781 336.3125 C 161.550781 336.738281 161.722656 337.082031 162.066406 337.339844 C 162.636719 343.742188 163.492188 350.140625 164.578125 356.542969 C 160.597656 348.210938 155.703125 340.457031 149.890625 333.28125 C 140.003906 320.996094 127.3125 311.792969 115.996094 301.054688 C 109.597656 294.9375 103.824219 288.308594 99.765625 280.480469 C 99.136719 279.222656 96.851562 279.738281 97.019531 281.222656 C 98.113281 289.414062 100.125 297.367188 103.058594 305.089844 C 105.996094 312.8125 109.773438 320.09375 114.398438 326.941406 C 119.011719 333.785156 124.308594 340.054688 130.289062 345.746094 Z M 164.695312 239.570312 C 167.210938 228.367188 174.699219 217.910156 179.328125 207.796875 C 185.800781 193.765625 190.242188 179.117188 192.644531 163.851562 C 193.046875 161.339844 193.386719 158.824219 193.617188 156.308594 C 194.015625 160.136719 194.417969 163.910156 194.816406 167.738281 C 195.730469 176.710938 196.417969 185.738281 193.445312 194.480469 C 188.875 207.910156 178.644531 218.425781 170.984375 230.082031 C 168.554688 233.796875 166.4375 237.683594 164.640625 241.738281 C 164.695312 240.996094 164.695312 240.3125 164.695312 239.570312 Z M 144.578125 254.367188 C 139.03125 247.285156 133.089844 240.539062 127.886719 233.226562 C 122.390625 225.503906 118.21875 217.121094 115.371094 208.082031 C 112.796875 199.820312 111.480469 191.363281 111.425781 182.710938 C 127.375 207.566406 142.75 233.113281 151.722656 261.398438 C 152.351562 263.339844 152.921875 265.285156 153.492188 267.285156 C 150.789062 262.792969 147.816406 258.488281 144.578125 254.367188 Z M 179.15625 276.3125 C 184.1875 269.457031 189.671875 262.941406 194.644531 256.082031 C 199.691406 249.085938 204.226562 241.769531 208.25 234.136719 C 212.191406 226.765625 215.734375 219.109375 218.996094 211.453125 C 223.507812 227.964844 218.25 245.507812 209.164062 259.738281 C 204.304688 267.339844 198.417969 274.195312 192.246094 280.710938 C 185.84375 287.398438 178.929688 293.566406 173.097656 300.824219 C 169.039062 305.8125 165.933594 311.339844 163.78125 317.398438 C 162.8125 302.425781 170.582031 288.140625 179.15625 276.3125 Z M 179.15625 276.3125 " fill-opacity="1" fill-rule="nonzero"/></svg>