<svg xmlns="http://www.w3.org/2000/svg" xmlns:xlink="http://www.w3.org/1999/xlink" width="500" zoomAndPan="magnify" viewBox="0 0 375 374.999991" height="500" preserveAspectRatio="xMidYMid meet" version="1.0"><defs><clipPath id="2f4f5be6a3"><path d="M 37.5 0 L 367.5 0 L 367.5 375 L 37.5 375 Z M 37.5 0 " clip-rule="nonzero"/></clipPath></defs><g clip-path="url(#2f4f5be6a3)"><path fill="#ddd3ca" d="M 366.667969 7.507812 C 366.605469 7.269531 366.042969 5.273438 364.921875 3.527344 C 363.800781 1.78125 362.121094 0.289062 359.84375 0.988281 C 356.953125 1.871094 354.644531 5.726562 352.796875 8.800781 C 352.203125 9.804688 351.269531 11.355469 350.214844 13.675781 C 349.6875 14.835938 349.121094 16.183594 348.539062 17.753906 C 347.96875 19.328125 347.300781 21.085938 346.671875 23.109375 C 346.378906 24.027344 346.054688 25.09375 345.714844 26.371094 C 345.542969 27.007812 345.363281 27.695312 345.183594 28.445312 C 344.988281 29.1875 344.789062 29.992188 344.585938 30.863281 C 344.179688 32.609375 343.753906 34.625 343.324219 36.980469 C 342.886719 39.335938 342.367188 42 341.878906 45.089844 C 341.785156 45.671875 341.652344 46.503906 341.488281 47.511719 C 341.3125 48.519531 341.109375 49.699219 340.882812 50.984375 C 340.441406 53.558594 339.996094 56.585938 339.523438 59.429688 C 339.304688 60.859375 339.109375 62.253906 338.957031 63.546875 C 338.804688 64.839844 338.703125 66.03125 338.628906 67.035156 C 338.625 67.078125 338.625 67.121094 338.621094 67.164062 L 335.667969 73.78125 L 334.960938 75.28125 C 334.609375 76.007812 334.25 76.777344 333.867188 77.585938 C 333.175781 79.046875 332.394531 80.707031 331.546875 82.421875 L 328.3125 88.84375 L 324.445312 96.070312 L 321.699219 100.925781 C 321.921875 99.914062 322.132812 98.800781 322.320312 97.621094 C 322.46875 96.660156 322.617188 95.664062 322.734375 94.660156 C 322.84375 93.644531 322.9375 92.621094 323.023438 91.621094 C 323.191406 89.621094 323.324219 87.71875 323.421875 86.125 C 323.609375 81.777344 323.558594 78.851562 323.367188 76.75 C 323.15625 74.640625 322.863281 73.386719 322.605469 72.46875 C 321.332031 67.933594 319.511719 66.207031 318.816406 65.609375 C 317.378906 64.378906 315.820312 63.070312 313.558594 64.222656 C 310.648438 65.65625 308.777344 70.105469 308.53125 70.632812 C 307.875 72.109375 307.464844 73.585938 307.226562 75.019531 C 306.988281 76.453125 306.933594 77.851562 306.925781 79.125 C 306.941406 81.6875 307.359375 83.894531 307.621094 85.300781 C 307.855469 86.53125 308.125 87.613281 308.449219 88.597656 C 308.769531 89.578125 309.136719 90.457031 309.53125 91.257812 C 310.3125 92.859375 311.195312 94.140625 311.984375 95.300781 C 313.605469 97.699219 314.105469 97.429688 316.371094 100.800781 C 318.015625 103.269531 318.636719 104.773438 319.136719 105.285156 C 315.050781 112.121094 310.894531 118.480469 306.503906 124.625 C 305.5 126.074219 304.4375 127.484375 303.3125 128.972656 C 302.839844 129.601562 302.367188 130.230469 301.886719 130.878906 C 301.355469 131.605469 300.796875 132.308594 300.203125 133.050781 C 299.953125 133.367188 299.699219 133.6875 299.457031 133.996094 C 299.160156 134.367188 298.863281 134.742188 298.566406 135.117188 C 298.023438 135.804688 297.476562 136.5 296.925781 137.171875 L 294.261719 140.355469 C 294.097656 140.546875 293.933594 140.742188 293.773438 140.9375 C 293.492188 141.273438 293.214844 141.613281 292.921875 141.941406 L 291.519531 143.527344 C 291.179688 143.902344 290.847656 144.285156 290.507812 144.667969 C 289.914062 145.34375 289.300781 146.042969 288.683594 146.707031 L 287.40625 148.078125 C 287.886719 147.023438 288.371094 145.84375 288.835938 144.59375 C 289.207031 143.5625 289.566406 142.492188 289.917969 141.410156 C 290.269531 140.332031 290.609375 139.246094 290.898438 138.15625 C 291.484375 135.984375 292.027344 133.933594 292.429688 132.191406 C 292.964844 129.828125 293.347656 127.847656 293.625 126.171875 C 293.878906 124.472656 294.019531 123.070312 294.101562 121.902344 C 294.261719 119.570312 294.164062 118.160156 294.023438 117.09375 C 293.351562 111.871094 291.605469 109.65625 290.949219 108.882812 C 289.574219 107.277344 288.054688 105.566406 285.390625 106.335938 C 283.695312 106.820312 282.191406 108.171875 281.039062 109.441406 C 279.871094 110.695312 279.085938 111.902344 278.917969 112.167969 C 278 113.640625 277.296875 115.109375 276.789062 116.585938 C 276.28125 118.054688 275.984375 119.550781 275.753906 120.910156 C 275.535156 122.285156 275.4375 123.59375 275.398438 124.753906 C 275.378906 125.335938 275.371094 125.878906 275.371094 126.378906 C 275.367188 126.871094 275.367188 127.316406 275.363281 127.707031 C 275.359375 130.421875 275.730469 132.679688 276.265625 134.613281 C 276.773438 136.527344 277.453125 138.128906 278.054688 139.582031 C 279.289062 142.585938 279.878906 142.394531 281.605469 146.65625 C 282.777344 149.617188 283.113281 151.390625 283.507812 152.144531 C 279.96875 155.75 276.402344 159.167969 272.875 162.304688 C 268.160156 166.464844 263.265625 170.394531 258.328125 173.988281 C 253.148438 177.757812 247.71875 181.304688 242.183594 184.53125 C 242.160156 184.542969 242.136719 184.558594 242.109375 184.570312 C 242.953125 183.589844 243.832031 182.472656 244.703125 181.265625 C 247.550781 177.339844 250.265625 172.527344 252.074219 169.0625 C 252.691406 167.890625 253.214844 166.777344 253.691406 165.769531 C 254.164062 164.753906 254.589844 163.839844 254.9375 162.957031 C 255.644531 161.210938 256.15625 159.769531 256.539062 158.554688 C 257.265625 156.082031 257.488281 154.542969 257.605469 153.390625 C 257.882812 150.53125 257.636719 148.375 257.296875 146.832031 C 256.945312 145.285156 256.476562 144.328125 256.214844 143.832031 C 255.664062 142.804688 255.070312 141.71875 254.253906 140.917969 C 253.4375 140.125 252.386719 139.589844 250.910156 139.625 C 249.972656 139.644531 249.039062 139.902344 248.160156 140.28125 C 247.285156 140.667969 246.429688 141.128906 245.691406 141.628906 C 244.953125 142.125 244.324219 142.648438 243.832031 143.050781 C 243.339844 143.453125 243.007812 143.765625 242.890625 143.875 C 242.238281 144.496094 241.652344 145.148438 241.125 145.828125 C 240.582031 146.488281 240.09375 147.171875 239.660156 147.871094 C 238.792969 149.285156 238.085938 150.699219 237.519531 152.09375 C 237.238281 152.785156 236.992188 153.484375 236.769531 154.140625 C 236.539062 154.796875 236.339844 155.429688 236.164062 156.03125 C 235.816406 157.234375 235.5625 158.3125 235.355469 159.144531 C 233.878906 164.902344 234.378906 169.101562 234.8125 172.582031 C 235.027344 174.382812 235.277344 175.261719 235.566406 176.339844 C 235.847656 177.417969 236.160156 178.671875 236.40625 181.210938 C 236.730469 184.621094 236.558594 186.605469 236.707031 187.582031 C 232.757812 189.710938 228.714844 191.726562 224.617188 193.589844 C 219.109375 196.101562 213.019531 198.605469 206.007812 201.242188 C 201.550781 202.914062 196.976562 204.546875 192.550781 206.128906 C 191.179688 206.617188 189.8125 207.109375 188.441406 207.601562 C 189.542969 206.6875 190.726562 205.636719 191.945312 204.503906 C 195.894531 200.832031 200.140625 196.320312 203.089844 193.050781 C 207.089844 188.636719 209.445312 185.398438 210.992188 183 C 212.519531 180.589844 213.210938 179 213.691406 177.808594 C 215.957031 171.859375 215.296875 168.4375 215.042969 167.21875 C 214.484375 164.6875 213.8125 161.960938 210.707031 161.199219 C 208.707031 160.691406 206.457031 161.195312 204.527344 161.839844 C 202.640625 162.496094 201.070312 163.304688 200.75 163.488281 C 197.066406 165.480469 194.207031 168.324219 191.9375 171.128906 C 190.832031 172.527344 189.855469 173.917969 189.058594 175.179688 C 188.269531 176.4375 187.617188 177.566406 187.105469 178.445312 C 183.566406 184.566406 183.085938 189.332031 182.757812 193.230469 C 182.414062 197.246094 183.179688 197.335938 182.765625 202.988281 C 182.503906 206.671875 182.035156 208.8125 182.035156 209.925781 C 177.675781 211.539062 172.726562 213.4375 167.8125 215.515625 C 161.128906 218.367188 155.164062 221.292969 149.566406 224.460938 C 144.800781 227.164062 140.125 230.214844 135.605469 233.527344 C 136.484375 232.203125 137.421875 230.707031 138.421875 229.125 C 139.222656 227.863281 140.035156 226.511719 140.902344 225.199219 C 141.761719 223.875 142.613281 222.488281 143.5 221.195312 C 145.238281 218.546875 146.996094 216.046875 148.503906 213.9375 C 152.621094 208.28125 155.546875 204.449219 157.472656 201.570312 C 158.445312 200.15625 159.183594 198.980469 159.765625 197.988281 C 160.347656 196.992188 160.765625 196.207031 161.113281 195.511719 C 162.824219 192.085938 163.65625 189.449219 164.042969 187.453125 C 164.429688 185.464844 164.359375 184.148438 164.285156 183.46875 C 164.132812 182.046875 163.984375 180.558594 163.351562 179.335938 C 162.714844 178.113281 161.609375 177.144531 159.460938 176.835938 C 156.757812 176.417969 153.347656 177.285156 150.46875 178.386719 C 149.023438 178.949219 147.734375 179.519531 146.726562 180.03125 C 145.71875 180.546875 145.015625 180.945312 144.765625 181.089844 C 144.074219 181.488281 143.40625 181.890625 142.761719 182.320312 C 142.109375 182.757812 141.480469 183.203125 140.875 183.660156 C 139.660156 184.566406 138.539062 185.5 137.496094 186.5 C 136.453125 187.488281 135.5 188.46875 134.625 189.476562 C 133.753906 190.496094 132.964844 191.507812 132.25 192.496094 C 131.53125 193.472656 130.898438 194.464844 130.328125 195.414062 C 129.761719 196.363281 129.257812 197.269531 128.816406 198.121094 C 127.929688 199.824219 127.296875 201.363281 126.800781 202.523438 C 125.941406 204.546875 125.382812 206.433594 125.011719 208.15625 C 124.644531 209.882812 124.457031 211.425781 124.410156 212.878906 C 124.328125 215.785156 124.714844 218.175781 125.082031 220.316406 C 125.460938 222.515625 125.90625 223.570312 126.394531 224.839844 C 126.886719 226.105469 127.421875 227.601562 128.140625 230.632812 C 128.519531 232.226562 128.792969 233.558594 129.007812 234.660156 C 129.226562 235.761719 129.398438 236.644531 129.554688 237.304688 C 129.625 237.589844 129.691406 237.828125 129.761719 238.039062 C 125.8125 241.257812 121.941406 244.746094 118.222656 248.464844 C 109.734375 256.941406 102.160156 266.414062 95.683594 276.613281 C 95.753906 276.296875 95.820312 275.96875 95.882812 275.632812 C 96.144531 274.214844 96.425781 272.691406 96.714844 271.105469 C 97 269.511719 97.273438 267.835938 97.601562 266.164062 C 97.921875 264.488281 98.199219 262.753906 98.554688 261.089844 C 98.902344 259.421875 99.214844 257.75 99.566406 256.183594 C 99.929688 254.609375 100.277344 253.117188 100.589844 251.757812 C 101.515625 248.089844 102.300781 244.929688 103.019531 242.277344 C 103.363281 240.933594 103.675781 239.710938 103.960938 238.589844 C 104.253906 237.480469 104.511719 236.464844 104.734375 235.53125 C 105.605469 231.789062 106.019531 229.511719 106.21875 227.785156 C 106.351562 226.722656 106.445312 225.722656 106.515625 224.796875 C 106.597656 223.875 106.648438 223.019531 106.667969 222.222656 C 106.710938 220.632812 106.644531 219.28125 106.515625 218.160156 C 106.253906 215.902344 105.757812 214.558594 105.457031 213.871094 C 104.832031 212.4375 104.195312 210.929688 103.085938 209.921875 C 101.984375 208.917969 100.375 208.398438 97.894531 209.0625 C 96.316406 209.480469 94.625 210.285156 93.039062 211.316406 C 91.464844 212.347656 89.941406 213.574219 88.589844 214.777344 C 85.957031 217.230469 84.015625 219.5625 83.617188 220.082031 C 82.5 221.515625 81.5 222.960938 80.605469 224.394531 C 79.710938 225.832031 78.976562 227.300781 78.304688 228.722656 C 77.976562 229.4375 77.664062 230.144531 77.378906 230.84375 C 77.097656 231.542969 76.855469 232.25 76.621094 232.9375 C 76.160156 234.316406 75.777344 235.65625 75.460938 236.9375 C 74.851562 239.519531 74.546875 241.90625 74.359375 243.960938 C 74.1875 246.027344 74.191406 247.800781 74.183594 249.15625 C 74.160156 251.519531 74.386719 253.613281 74.730469 255.476562 C 75.074219 257.335938 75.53125 258.957031 76.074219 260.414062 C 77.183594 263.339844 78.546875 265.578125 79.785156 267.574219 C 81.066406 269.625 81.925781 270.503906 82.929688 271.582031 C 83.9375 272.65625 85.078125 273.941406 87.015625 276.703125 C 89.054688 279.609375 90.246094 281.644531 91.101562 282.863281 C 91.261719 283.097656 91.40625 283.289062 91.542969 283.457031 C 87.269531 290.886719 83.445312 298.707031 80.152344 306.796875 C 78.355469 311.222656 76.644531 315.863281 75.070312 320.59375 C 74.042969 323.707031 73.050781 326.976562 72.054688 330.5 C 71.871094 328.667969 71.613281 326.640625 71.328125 324.5 C 70.859375 321.027344 70.355469 317.28125 69.871094 313.683594 C 69.652344 311.855469 69.4375 310.0625 69.234375 308.363281 C 69.0625 306.644531 68.898438 305.015625 68.75 303.53125 C 68.015625 295.445312 67.664062 289.773438 67.191406 285.699219 C 66.792969 281.640625 66.292969 279.164062 65.910156 277.371094 C 65.425781 275.144531 64.855469 273.226562 64.324219 271.613281 C 63.789062 270 63.226562 268.675781 62.683594 267.59375 C 61.601562 265.425781 60.585938 264.25 60.023438 263.664062 C 58.855469 262.445312 57.65625 261.164062 56.167969 260.542969 C 54.671875 259.921875 52.90625 259.976562 50.636719 261.488281 C 49.914062 261.96875 49.207031 262.558594 48.523438 263.222656 C 47.839844 263.882812 47.210938 264.632812 46.597656 265.417969 C 45.371094 266.992188 44.265625 268.742188 43.382812 270.417969 C 41.554688 273.757812 40.519531 276.773438 40.285156 277.417969 C 37.773438 284.632812 37.492188 291.382812 38.046875 296.894531 C 38.632812 302.421875 40.046875 306.746094 40.96875 309.464844 C 41.792969 311.828125 42.6875 313.847656 43.65625 315.597656 C 44.636719 317.351562 45.660156 318.839844 46.691406 320.136719 C 48.761719 322.726562 50.910156 324.566406 52.828125 326.203125 C 54.816406 327.890625 55.96875 328.515625 57.34375 329.304688 C 58.71875 330.085938 60.300781 331.039062 63.167969 333.269531 C 66.179688 335.609375 68.0625 337.34375 69.308594 338.335938 C 69.515625 338.5 69.703125 338.640625 69.878906 338.761719 C 68.601562 343.96875 67.492188 349.183594 66.5625 354.316406 C 65.464844 360.339844 64.800781 365.011719 64.390625 368.007812 L 63.925781 371.625 L 63.777344 372.863281 C 63.691406 373.570312 64.113281 374.222656 64.753906 374.457031 C 64.859375 374.496094 64.972656 374.523438 65.09375 374.539062 C 65.917969 374.636719 66.667969 374.046875 66.765625 373.222656 L 67.375 368.40625 C 67.777344 365.445312 68.4375 360.816406 69.523438 354.851562 C 70.460938 349.679688 71.585938 344.425781 72.875 339.179688 C 74.425781 338.882812 76.871094 338.257812 80.578125 337.796875 C 84.144531 337.351562 85.964844 337.394531 87.53125 337.445312 C 89.09375 337.503906 90.414062 337.582031 92.941406 337.324219 C 95.402344 337.082031 98.09375 336.820312 101.140625 336.160156 C 102.660156 335.832031 104.261719 335.402344 105.9375 334.824219 C 107.625 334.253906 109.417969 333.546875 111.28125 332.65625 C 113.445312 331.640625 116.847656 330.101562 120.308594 327.917969 C 123.800781 325.746094 127.335938 322.957031 129.9375 319.203125 C 130.183594 318.871094 131.230469 317.277344 132.148438 315.273438 C 132.585938 314.253906 133.015625 313.144531 133.257812 311.984375 C 133.378906 311.402344 133.441406 310.800781 133.46875 310.214844 C 133.492188 309.628906 133.457031 309.039062 133.339844 308.453125 C 132.96875 306.609375 131.960938 305.351562 130.660156 304.429688 C 129.359375 303.507812 127.738281 302.902344 126.1875 302.34375 C 125.445312 302.078125 124.023438 301.617188 121.824219 301.410156 C 120.726562 301.308594 119.433594 301.273438 117.925781 301.367188 C 116.410156 301.460938 114.734375 301.71875 112.804688 302.171875 C 111.230469 302.53125 109.195312 303.140625 106.003906 304.644531 C 102.871094 306.199219 98.554688 308.628906 92.769531 313.164062 C 91.710938 314.007812 90.539062 314.949219 89.304688 315.960938 C 88.09375 316.984375 86.820312 318.082031 85.519531 319.226562 C 84.253906 320.386719 82.953125 321.59375 81.691406 322.824219 C 80.457031 324.066406 79.210938 325.320312 78.074219 326.574219 C 77.136719 327.601562 76.253906 328.621094 75.441406 329.613281 C 76.261719 326.78125 77.085938 324.101562 77.929688 321.539062 C 79.484375 316.875 81.167969 312.292969 82.945312 307.929688 C 86.222656 299.867188 90.042969 292.078125 94.316406 284.683594 C 95.765625 284.808594 98.117188 284.886719 101.523438 285.4375 C 104.808594 285.972656 106.410156 286.488281 107.789062 286.949219 C 109.15625 287.410156 110.304688 287.824219 112.617188 288.28125 C 114.851562 288.726562 117.320312 289.242188 120.144531 289.488281 C 121.566406 289.621094 123.09375 289.703125 124.71875 289.679688 C 126.339844 289.65625 128.0625 289.53125 129.945312 289.324219 C 131.027344 289.203125 132.386719 289.039062 133.941406 288.824219 C 135.511719 288.621094 137.226562 288.316406 139.015625 287.902344 C 139.917969 287.703125 140.828125 287.46875 141.734375 287.1875 C 142.1875 287.046875 142.628906 286.886719 143.089844 286.730469 C 143.546875 286.578125 144.003906 286.410156 144.457031 286.226562 C 145.363281 285.871094 146.226562 285.429688 147.105469 284.964844 C 147.984375 284.5 148.828125 283.964844 149.632812 283.339844 C 149.917969 283.113281 151.304688 282.125 152.609375 280.628906 C 153.289062 279.914062 153.957031 279.074219 154.476562 278.132812 C 155 277.199219 155.402344 276.222656 155.519531 275.128906 C 155.695312 273.402344 155.195312 272.042969 154.328125 270.832031 C 153.464844 269.621094 152.238281 268.597656 151.054688 267.628906 C 150.484375 267.164062 149.378906 266.308594 147.539062 265.464844 C 146.617188 265.039062 145.503906 264.613281 144.171875 264.238281 C 143.503906 264.050781 142.78125 263.875 141.992188 263.722656 C 141.214844 263.578125 140.378906 263.464844 139.476562 263.378906 C 138.023438 263.25 136.019531 263.097656 132.832031 263.515625 C 132.03125 263.613281 131.148438 263.742188 130.171875 263.910156 C 129.207031 264.085938 128.164062 264.320312 127.007812 264.597656 C 124.679688 265.132812 122.011719 265.953125 118.808594 267.089844 C 117.644531 267.53125 116.355469 268.019531 114.988281 268.558594 C 113.621094 269.101562 112.222656 269.730469 110.761719 270.378906 C 109.289062 271.015625 107.859375 271.757812 106.402344 272.496094 C 104.9375 273.226562 103.542969 274.03125 102.195312 274.832031 C 101.519531 275.234375 100.859375 275.636719 100.222656 276.035156 C 99.863281 276.273438 99.527344 276.507812 99.1875 276.742188 C 105.328125 267.292969 112.429688 258.5 120.347656 250.589844 C 124.074219 246.863281 127.957031 243.378906 131.914062 240.167969 C 132.515625 240.457031 133.292969 240.789062 134.273438 241.257812 C 135.28125 241.746094 136.488281 242.355469 137.886719 243.164062 C 140.535156 244.699219 141.742188 245.671875 142.773438 246.519531 C 143.800781 247.375 144.644531 248.097656 146.476562 249.261719 C 148.246094 250.390625 150.1875 251.65625 152.507812 252.820312 C 153.667969 253.402344 154.949219 253.996094 156.332031 254.523438 C 157.714844 255.054688 159.210938 255.53125 160.878906 255.992188 C 161.835938 256.257812 163.03125 256.574219 164.429688 256.921875 C 165.128906 257.097656 165.871094 257.265625 166.644531 257.421875 C 167.417969 257.574219 168.214844 257.710938 169.0625 257.839844 C 169.90625 257.964844 170.765625 258.0625 171.636719 258.117188 C 172.519531 258.171875 173.441406 258.207031 174.347656 258.175781 C 175.25 258.136719 176.203125 258.066406 177.152344 257.921875 C 177.625 257.847656 178.101562 257.753906 178.570312 257.644531 C 179.054688 257.535156 179.550781 257.414062 180.039062 257.265625 C 180.214844 257.210938 180.710938 257.058594 181.378906 256.796875 C 182.050781 256.535156 182.949219 256.183594 183.863281 255.707031 C 185.714844 254.757812 187.820312 253.363281 189.003906 251.421875 C 189.90625 249.890625 189.988281 248.480469 189.605469 247.160156 C 189.226562 245.839844 188.398438 244.609375 187.605469 243.433594 C 187.21875 242.867188 186.460938 241.824219 185.007812 240.566406 C 183.558594 239.3125 181.382812 237.828125 178.222656 236.457031 C 177.582031 236.179688 176.808594 235.863281 175.839844 235.542969 C 174.875 235.226562 173.695312 234.890625 172.195312 234.554688 C 169.226562 233.929688 165.003906 233.234375 158.757812 233.117188 C 156.453125 233.089844 153.660156 233.085938 150.742188 233.257812 C 149.265625 233.316406 147.792969 233.476562 146.296875 233.625 C 144.792969 233.765625 143.335938 234 141.910156 234.242188 C 140.867188 234.421875 139.855469 234.625 138.890625 234.847656 C 142.84375 232.027344 146.914062 229.425781 151.050781 227.082031 C 156.546875 223.964844 162.417969 221.089844 168.988281 218.285156 C 173.957031 216.179688 178.980469 214.257812 183.375 212.636719 C 184.269531 213.496094 185.789062 214.773438 187.832031 216.914062 C 191.710938 221.003906 191.1875 221.5625 193.980469 224.453125 C 196.695312 227.253906 199.929688 230.703125 206.722656 233.121094 C 207.699219 233.46875 208.957031 233.914062 210.472656 234.335938 C 211.984375 234.757812 213.71875 235.171875 215.6875 235.429688 C 219.578125 235.972656 224.351562 235.921875 229.523438 234.328125 C 229.992188 234.175781 232.136719 233.527344 234.589844 232.300781 C 237.019531 231.117188 239.742188 229.347656 241.210938 227.273438 C 243.527344 223.949219 241.566406 221.832031 239.824219 219.859375 C 239 218.90625 236.414062 216.460938 229.738281 214.488281 C 228.394531 214.066406 226.554688 213.582031 223.492188 213.09375 C 220.433594 212.582031 216.152344 212.089844 210.011719 211.46875 C 205.464844 211.023438 199.253906 210.277344 193.878906 209.929688 C 192.972656 209.867188 192.089844 209.824219 191.238281 209.792969 C 192.011719 209.515625 192.785156 209.238281 193.5625 208.960938 C 197.996094 207.378906 202.585938 205.742188 207.0625 204.058594 C 214.140625 201.398438 220.292969 198.867188 225.863281 196.328125 C 230.113281 194.398438 234.308594 192.300781 238.40625 190.085938 C 239.328125 190.730469 240.902344 191.648438 243.109375 193.230469 C 245.210938 194.734375 246.179688 195.621094 246.992188 196.398438 C 247.804688 197.171875 248.476562 197.859375 250.023438 198.859375 C 253.035156 200.796875 256.742188 203.21875 263.785156 203.597656 C 264.796875 203.644531 266.09375 203.691406 267.621094 203.660156 C 268.386719 203.640625 269.210938 203.605469 270.082031 203.535156 C 270.949219 203.460938 271.855469 203.335938 272.808594 203.179688 C 274.710938 202.859375 276.777344 202.371094 278.878906 201.566406 C 279.9375 201.167969 281.011719 200.710938 282.09375 200.171875 C 283.160156 199.617188 284.234375 198.988281 285.300781 198.273438 C 285.492188 198.144531 286.035156 197.78125 286.765625 197.238281 C 287.492188 196.691406 288.382812 195.941406 289.3125 195.078125 C 290.234375 194.210938 291.203125 193.242188 291.992188 192.175781 C 292.789062 191.113281 293.449219 189.996094 293.816406 188.894531 C 294.394531 187.15625 294.113281 185.960938 293.429688 185.03125 C 292.75 184.105469 291.683594 183.460938 290.660156 182.832031 C 290.171875 182.527344 289.207031 182 287.570312 181.566406 C 285.925781 181.125 283.632812 180.808594 280.453125 180.824219 C 279.167969 180.820312 277.425781 180.882812 274.621094 181.292969 C 273.203125 181.476562 271.515625 181.738281 269.492188 182.105469 C 268.476562 182.285156 267.371094 182.484375 266.167969 182.699219 C 264.96875 182.921875 263.675781 183.160156 262.265625 183.421875 C 258.09375 184.183594 252.363281 185.042969 247.476562 185.816406 C 246.722656 185.9375 245.988281 186.054688 245.28125 186.175781 C 250.355469 183.15625 255.332031 179.890625 260.097656 176.421875 C 265.109375 172.773438 270.078125 168.78125 274.867188 164.558594 C 278.519531 161.308594 282.210938 157.769531 285.871094 154.03125 C 286.84375 154.324219 288.445312 154.675781 290.789062 155.433594 C 295.199219 156.820312 295.027344 157.441406 298.21875 158.351562 C 299.769531 158.789062 301.5 159.265625 303.609375 159.46875 C 305.691406 159.652344 308.144531 159.554688 311.175781 158.835938 C 311.613281 158.726562 312.109375 158.605469 312.664062 158.472656 C 313.207031 158.320312 313.800781 158.148438 314.4375 157.945312 C 315.710938 157.539062 317.152344 157.007812 318.683594 156.292969 C 320.230469 155.589844 321.789062 154.65625 323.371094 153.507812 C 324.949219 152.359375 326.53125 150.980469 327.941406 149.285156 C 328.195312 148.984375 329.382812 147.570312 330.539062 145.722656 C 331.671875 143.863281 332.722656 141.550781 332.820312 139.527344 C 332.957031 136.34375 330.707031 135.667969 328.65625 135.011719 C 327.679688 134.695312 324.839844 134.019531 319.429688 135.476562 C 318.347656 135.773438 316.859375 136.207031 314.53125 137.1875 C 313.367188 137.671875 312.003906 138.300781 310.363281 139.097656 C 308.695312 139.875 306.757812 140.824219 304.503906 141.976562 C 302.828125 142.828125 300.78125 143.785156 298.710938 144.816406 C 297.683594 145.335938 296.605469 145.835938 295.546875 146.34375 C 294.492188 146.855469 293.457031 147.363281 292.46875 147.871094 C 291.972656 148.117188 291.488281 148.363281 291.019531 148.605469 C 291.617188 147.953125 292.199219 147.292969 292.761719 146.65625 C 293.09375 146.277344 293.425781 145.902344 293.761719 145.527344 L 295.167969 143.933594 C 295.480469 143.582031 295.777344 143.222656 296.078125 142.863281 C 296.234375 142.675781 296.390625 142.488281 296.554688 142.296875 L 299.238281 139.089844 C 299.808594 138.390625 300.367188 137.6875 300.921875 136.984375 C 301.214844 136.613281 301.507812 136.242188 301.808594 135.867188 C 302.054688 135.550781 302.300781 135.238281 302.550781 134.929688 C 303.136719 134.191406 303.742188 133.433594 304.304688 132.664062 C 304.773438 132.035156 305.242188 131.410156 305.710938 130.789062 C 306.804688 129.335938 307.933594 127.835938 308.957031 126.355469 C 313.445312 120.085938 317.691406 113.574219 321.875 106.558594 C 322.773438 106.597656 324.230469 106.546875 326.417969 106.691406 C 330.527344 106.953125 330.496094 107.511719 333.425781 107.628906 C 334.847656 107.679688 336.421875 107.726562 338.257812 107.476562 C 339.171875 107.347656 340.152344 107.144531 341.210938 106.828125 C 342.269531 106.511719 343.410156 106.082031 344.605469 105.480469 C 345.984375 104.792969 348.160156 103.703125 350.480469 101.949219 C 351.65625 101.074219 352.804688 100.019531 353.917969 98.773438 C 355.03125 97.527344 356.089844 96.085938 357.007812 94.433594 C 357.347656 93.847656 359.925781 88.839844 359.351562 85.375 C 358.867188 82.640625 356.800781 82.402344 354.925781 82.171875 C 354.035156 82.0625 351.457031 81.921875 347.015625 84.0625 C 346.117188 84.492188 344.929688 85.125 343.125 86.378906 C 341.300781 87.625 338.804688 89.472656 335.382812 92.328125 C 334.089844 93.363281 332.550781 94.601562 330.945312 95.890625 C 330.152344 96.539062 329.347656 97.199219 328.558594 97.863281 C 327.757812 98.519531 326.957031 99.167969 326.207031 99.808594 C 325.921875 100.050781 325.648438 100.285156 325.378906 100.523438 L 326.683594 98.214844 L 330.742188 90.671875 L 334.234375 83.769531 C 335.097656 82.015625 335.886719 80.34375 336.585938 78.867188 C 336.960938 78.070312 337.320312 77.304688 337.671875 76.574219 L 338.207031 75.4375 L 341.59375 67.882812 C 341.941406 67.109375 342.109375 66.691406 342.117188 66.671875 C 342.160156 66.570312 342.1875 66.46875 342.203125 66.363281 C 343.117188 64.800781 344.300781 62.8125 345.960938 60.4375 C 346.976562 59.003906 347.753906 57.867188 348.488281 56.9375 C 349.214844 56.003906 349.851562 55.253906 350.476562 54.542969 C 351.726562 53.113281 352.941406 51.835938 354.589844 49.445312 C 356.023438 47.386719 357.296875 45.285156 358.40625 43.234375 C 359.476562 41.175781 360.390625 39.167969 361.171875 37.3125 C 361.953125 35.457031 362.59375 33.75 363.066406 32.273438 C 363.554688 30.800781 363.917969 29.574219 364.183594 28.675781 C 364.695312 26.917969 365.257812 25.117188 365.699219 23.289062 C 366.148438 21.464844 366.550781 19.625 366.84375 17.808594 C 367.457031 14.1875 367.515625 10.640625 366.667969 7.507812 Z M 366.667969 7.507812 " fill-opacity="1" fill-rule="nonzero"/></g></svg>