<svg xmlns="http://www.w3.org/2000/svg" xmlns:xlink="http://www.w3.org/1999/xlink" width="500" zoomAndPan="magnify" viewBox="0 0 375 374.999991" height="500" preserveAspectRatio="xMidYMid meet" version="1.0"><path fill="#efd096" d="M 193.574219 109.207031 C 199.132812 67.46875 253.136719 11.28125 293.523438 65.5 C 337.554688 124.671875 296.75 276.511719 211.917969 284.929688 C 131.207031 292.929688 66.085938 167.0625 91.65625 100.488281 C 117.585938 32.835938 172.785156 57.617188 193.933594 109.445312 " fill-opacity="1" fill-rule="evenodd"/><path fill="#a87957" d="M 166.8125 171.601562 C 161.554688 159.300781 153.550781 149.269531 144.585938 143.539062 C 138.613281 139.714844 132.28125 137.867188 126.066406 138.523438 C 115.492188 139.65625 105.578125 148.074219 98.644531 166.289062 C 89.804688 189.394531 96.792969 222.773438 112.863281 249.699219 C 128.875 276.511719 153.90625 297.050781 181.746094 294.242188 C 211.078125 291.316406 232.648438 263.433594 243.222656 231.371094 C 253.855469 199.128906 253.496094 162.464844 238.203125 141.925781 C 232.765625 134.640625 227.03125 130.28125 221.234375 128.253906 C 212.035156 125.089844 202.835938 127.773438 194.832031 133.445312 C 182.703125 142.046875 173.382812 157.511719 171.292969 171.003906 C 171.710938 172.078125 171.230469 173.273438 170.15625 173.75 C 169.5 174.050781 168.722656 173.929688 168.1875 173.511719 C 167.289062 173.273438 166.75 172.496094 166.8125 171.601562 Z M 142.554688 137.625 L 142.199219 137.386719 C 135.6875 133.207031 128.695312 131.117188 121.886719 131.894531 C 110.355469 133.148438 99.484375 142.34375 91.835938 162.285156 C 82.15625 187.542969 89.804688 223.964844 107.367188 253.34375 C 124.8125 282.601562 152.175781 304.992188 182.582031 302.003906 C 214.605469 298.839844 238.144531 268.390625 249.734375 233.339844 C 261.324219 198.171875 260.90625 158.167969 244.238281 135.714844 C 238.320312 127.714844 231.988281 123 225.65625 120.789062 C 215.621094 117.265625 205.464844 120.25 196.683594 126.460938 C 194.710938 127.894531 192.738281 129.445312 190.886719 131.179688 C 191.367188 130.820312 191.84375 130.460938 192.378906 130.101562 C 201.519531 123.59375 212.15625 120.730469 222.609375 124.371094 C 229.0625 126.640625 235.574219 131.355469 241.609375 139.476562 C 257.558594 160.914062 258.335938 199.128906 247.222656 232.742188 C 236.113281 266.480469 213.050781 295.4375 182.226562 298.484375 C 152.890625 301.410156 126.246094 280.152344 109.339844 251.910156 C 92.433594 223.785156 85.382812 188.917969 94.644531 164.792969 C 102.410156 144.554688 113.820312 135.597656 125.589844 134.34375 C 131.207031 133.746094 137 134.941406 142.554688 137.625 Z M 142.496094 132.671875 C 141.539062 131.953125 140.523438 131.296875 139.570312 130.640625 C 132.398438 126.101562 124.753906 123.773438 117.285156 124.609375 C 104.679688 125.925781 92.730469 136.015625 84.367188 157.808594 C 73.792969 185.335938 82.15625 225.101562 101.273438 257.222656 C 120.332031 289.167969 150.203125 313.589844 183.417969 310.304688 C 218.429688 306.84375 244.117188 273.644531 256.722656 235.371094 C 269.386719 196.976562 268.910156 153.332031 250.6875 128.847656 C 244.175781 120.132812 237.304688 114.9375 230.316406 112.488281 C 219.265625 108.667969 208.210938 111.890625 198.59375 118.699219 C 195.367188 120.96875 192.320312 123.714844 189.453125 126.699219 C 190.945312 125.386719 192.5 124.132812 194.113281 123 C 204.03125 115.953125 215.5 112.789062 226.910156 116.789062 C 233.960938 119.238281 240.949219 124.429688 247.523438 133.207031 C 264.847656 156.496094 265.683594 198.050781 253.617188 234.652344 C 241.488281 271.375 216.457031 302.839844 182.941406 306.183594 C 151.039062 309.351562 122.066406 286.242188 103.722656 255.492188 C 85.445312 224.921875 77.796875 187.007812 87.894531 160.792969 C 96.316406 138.878906 108.742188 129.089844 121.40625 127.773438 C 128.457031 126.9375 135.6875 128.789062 142.496094 132.671875 Z M 142.554688 127.597656 C 140.644531 125.984375 138.671875 124.550781 136.703125 123.296875 C 128.875 118.28125 120.511719 115.832031 112.328125 116.667969 C 98.527344 118.160156 85.445312 129.148438 76.304688 152.972656 C 64.773438 183.003906 73.855469 226.414062 94.761719 261.464844 C 115.613281 296.332031 148.230469 323.023438 184.433594 319.441406 C 222.609375 315.679688 250.6875 279.4375 264.488281 237.640625 C 278.289062 195.722656 277.75 148.074219 257.917969 121.386719 C 250.808594 111.832031 243.28125 106.160156 235.632812 103.472656 C 223.566406 99.292969 211.378906 102.816406 200.863281 110.28125 C 196.203125 113.5625 191.902344 117.683594 188.019531 122.222656 C 190.589844 119.65625 193.335938 117.324219 196.203125 115.296875 C 206.957031 107.652344 219.445312 104.25 231.75 108.546875 C 239.398438 111.175781 246.984375 116.789062 254.09375 126.34375 C 272.972656 151.71875 273.867188 196.917969 260.726562 236.683594 C 247.582031 276.628906 220.339844 310.84375 183.835938 314.484375 C 149.128906 317.949219 117.644531 292.75 97.691406 259.375 C 77.855469 226.117188 69.492188 184.855469 80.425781 156.316406 C 89.566406 132.492188 103.007812 121.921875 116.808594 120.429688 C 125.171875 119.535156 133.773438 121.984375 141.78125 127.117188 C 142.019531 127.238281 142.316406 127.417969 142.554688 127.597656 Z M 142.734375 122.402344 C 139.808594 119.714844 136.703125 117.324219 133.59375 115.296875 C 125.050781 109.863281 115.851562 107.117188 106.890625 108.070312 C 91.777344 109.683594 77.496094 121.683594 67.519531 147.777344 C 54.914062 180.558594 64.832031 227.90625 87.652344 266.121094 C 110.355469 304.15625 146.019531 333.292969 185.511719 329.351562 C 227.210938 325.234375 257.859375 285.707031 272.851562 240.085938 C 287.90625 194.351562 287.308594 142.402344 265.625 113.265625 C 257.859375 102.816406 249.613281 96.605469 241.25 93.679688 C 228.046875 89.082031 214.722656 92.964844 203.195312 101.144531 C 196.921875 105.621094 191.1875 111.355469 186.226562 117.804688 C 189.929688 113.683594 193.992188 109.921875 198.355469 106.875 C 210.003906 98.578125 223.507812 94.875 236.886719 99.53125 C 245.191406 102.398438 253.4375 108.488281 261.144531 118.878906 C 281.695312 146.464844 282.589844 195.664062 268.371094 238.953125 C 254.035156 282.363281 224.460938 319.679688 184.792969 323.621094 C 147.035156 327.382812 112.804688 299.976562 91.117188 263.671875 C 69.492188 227.488281 60.410156 182.585938 72.359375 151.539062 C 82.277344 125.683594 96.855469 114.160156 111.847656 112.550781 C 120.929688 111.59375 130.25 114.28125 138.914062 119.773438 C 140.226562 120.609375 141.480469 121.445312 142.734375 122.402344 Z M 166.691406 148.375 C 158.925781 132.433594 147.933594 119.535156 135.804688 111.773438 C 126.367188 105.742188 116.269531 102.875 106.414062 103.890625 C 90.164062 105.621094 74.332031 118.160156 63.519531 146.226562 C 50.554688 180.019531 60.472656 228.863281 83.949219 268.210938 C 107.546875 307.738281 144.765625 337.53125 185.867188 333.472656 C 229.0625 329.171875 261.203125 288.570312 276.796875 241.339844 C 292.328125 194.230469 291.3125 140.730469 268.96875 110.699219 C 260.605469 99.414062 251.644531 92.785156 242.625 89.679688 C 228.105469 84.664062 213.410156 88.664062 200.804688 97.679688 C 184.316406 109.445312 171.351562 129.625 166.691406 148.375 Z M 166.691406 148.375 " fill-opacity="1" fill-rule="evenodd"/></svg>